<?xml version="1.0" encoding="UTF-8" standalone="no"?>
<!DOCTYPE svg PUBLIC "-//W3C//DTD SVG 1.1//EN" "http://www.w3.org/Graphics/SVG/1.1/DTD/svg11.dtd">
<svg width="100%" height="100%" viewBox="0 0 270 85" version="1.1" xmlns="http://www.w3.org/2000/svg" xmlns:xlink="http://www.w3.org/1999/xlink" xml:space="preserve" xmlns:serif="http://www.serif.com/" style="fill-rule:evenodd;clip-rule:evenodd;stroke-linejoin:round;stroke-miterlimit:2;">
    <g id="g1" transform="matrix(1.36416,0,0,1.37785,-11.2551,-99.9231)">
        <g id="path3" transform="matrix(1,0,0,1,0.151252,-1.84697)">
            <path d="M194.525,84.092C194.032,83.994 193.483,83.818 193.305,83.701C193.125,83.583 192.853,83.521 192.694,83.56C192.499,83.61 192.358,83.551 192.248,83.376C192.16,83.235 192.015,83.119 191.926,83.119C191.475,83.119 190.294,81.012 190.173,79.99L190.095,79.331L190.574,79.331C190.88,79.331 191.081,79.402 191.129,79.527C191.242,79.821 192.98,79.808 193.094,79.512C193.236,79.141 192.954,78.622 192.481,78.385C191.877,78.082 189.53,78.056 189.144,78.348C188.75,78.646 188.418,78.584 187.944,78.125L187.508,77.702L179.775,77.731C175.522,77.747 170.896,77.714 169.495,77.658C167.766,77.589 166.907,77.6 166.818,77.693C166.733,77.782 165.81,77.815 164.187,77.787L161.687,77.744L160.313,78.478C159.557,78.881 158.868,79.297 158.781,79.402C158.533,79.702 158.295,79.64 156.762,78.88L155.324,78.167L79.441,78.089L78.788,77.784C78.429,77.615 77.93,77.381 77.678,77.262C77.427,77.143 77.179,76.987 77.129,76.915C77.078,76.843 76.933,76.647 76.807,76.478C76.681,76.31 76.559,76.03 76.536,75.858L76.494,75.544L78.188,75.544C79.19,75.544 79.916,75.598 79.965,75.676C80.086,75.872 156.19,75.774 156.892,75.577C157.221,75.484 157.589,75.234 157.889,74.899C158.15,74.607 158.43,74.368 158.51,74.368C158.591,74.368 158.901,74.545 159.198,74.76C159.496,74.976 159.895,75.152 160.085,75.152C160.275,75.152 160.489,75.21 160.561,75.282C160.699,75.42 166.393,75.463 180.237,75.433C188.13,75.415 188.172,75.413 188.447,75.138C188.688,74.898 188.763,74.883 189.033,75.028C189.268,75.154 190.052,75.176 192.316,75.123C193.952,75.084 196.323,75.093 197.586,75.143L199.882,75.234L200.501,75.651C201.028,76.007 201.307,76.09 202.384,76.21C204.778,76.476 204.82,76.487 204.863,76.856C204.895,77.125 204.813,77.23 204.435,77.411C204.177,77.533 203.815,77.634 203.629,77.634C203.337,77.634 203.314,77.606 203.46,77.429C203.607,77.252 203.588,77.234 203.313,77.292C203.139,77.329 202.38,77.485 201.627,77.639C200.875,77.793 200.101,78.032 199.908,78.169C199.715,78.307 199.288,78.456 198.958,78.501C198.629,78.546 198.36,78.636 198.36,78.701C198.36,78.766 198.604,79.052 198.903,79.337C199.355,79.767 199.537,79.854 199.982,79.854C200.376,79.854 200.56,79.785 200.68,79.593C200.868,79.292 201.336,79.252 201.683,79.506C201.898,79.663 201.907,79.746 201.767,80.33C201.569,81.153 200.969,82.208 200.34,82.837C199.795,83.382 198.732,83.937 198.445,83.827C198.343,83.788 198.033,83.877 197.756,84.025C197.159,84.345 195.928,84.371 194.525,84.092ZM197.65,83.844C197.82,83.733 198.168,83.642 198.425,83.642C198.681,83.642 199.051,83.543 199.246,83.422C199.774,83.096 200.711,82.175 200.711,81.982C200.711,81.889 200.776,81.813 200.856,81.813C200.938,81.813 200.972,81.698 200.934,81.552C200.896,81.408 200.913,81.319 200.97,81.355C201.195,81.494 201.229,80.989 201.007,80.81C200.794,80.639 200.802,80.63 201.102,80.695C201.282,80.734 201.349,80.73 201.251,80.686C201.117,80.626 201.112,80.582 201.229,80.509C201.342,80.44 201.326,80.39 201.172,80.331C201.051,80.284 200.992,80.303 201.036,80.374C201.324,80.84 198.522,80.477 196.939,79.842C195.866,79.413 195.565,79.403 196.431,79.826C197.158,80.182 198.151,80.459 199.586,80.706C200.225,80.816 200.842,80.966 200.958,81.04C201.125,81.146 201.108,81.156 200.874,81.092C200.712,81.048 200.58,81.064 200.58,81.128C200.58,81.397 199.589,82.37 199.021,82.658C198.314,83.016 197.18,83.319 196.129,83.431C195.325,83.516 194.244,83.29 193.402,82.861C192.817,82.562 191.635,81.408 191.35,80.856C191.244,80.651 191.123,80.517 191.081,80.559C191.039,80.601 190.923,80.568 190.824,80.485C190.428,80.157 190.4,80.587 190.767,81.36C191.122,82.108 192.152,83.232 192.512,83.265C192.868,83.297 192.953,83.326 193.369,83.551C194.416,84.119 196.964,84.294 197.65,83.844ZM194.279,82.348C193.758,81.852 193.126,81.12 192.874,80.722C192.623,80.323 192.344,79.994 192.254,79.991C192.026,79.982 192.043,80.045 192.437,80.673C192.904,81.417 193.692,82.309 194.338,82.825C195.289,83.585 195.25,83.273 194.279,82.348ZM196.923,83.06C196.923,83.027 196.663,82.886 196.345,82.745C195.496,82.369 194.46,81.542 193.724,80.652C193.062,79.851 192.755,79.659 193.252,80.357C193.745,81.049 195.359,82.448 196.052,82.783C196.726,83.109 196.923,83.172 196.923,83.06ZM198.042,82.742C198.003,82.678 197.808,82.586 197.61,82.537C196.739,82.322 194.403,80.729 193.702,79.872C193.547,79.683 193.385,79.562 193.343,79.604C193.224,79.721 193.988,80.558 194.75,81.146C195.833,81.981 198.316,83.185 198.042,82.742ZM199.333,81.835C199.264,81.775 198.902,81.659 198.528,81.577C197.688,81.393 195.798,80.385 194.859,79.62C194.473,79.306 194.125,79.082 194.085,79.122C193.972,79.235 194.278,79.546 195.144,80.197C196.235,81.017 197.321,81.543 198.347,81.747C199.44,81.965 199.486,81.969 199.333,81.835ZM196.198,81.316C196.13,81.259 195.732,80.954 195.313,80.64C194.894,80.325 194.324,79.801 194.046,79.476C193.767,79.15 193.496,78.927 193.443,78.981C193.297,79.127 195.079,80.864 195.68,81.161C196.24,81.438 196.399,81.486 196.198,81.316ZM200.188,81.314C200.188,81.255 199.733,81.136 199.176,81.051C197.486,80.79 196.509,80.348 194.843,79.094C194.622,78.928 194.441,78.852 194.441,78.927C194.441,79.11 195.672,80.007 196.471,80.407C197.861,81.103 200.188,81.671 200.188,81.314ZM191.96,80.768C191.96,80.696 191.934,80.638 191.902,80.638C191.871,80.638 191.808,80.696 191.764,80.768C191.72,80.84 191.745,80.899 191.822,80.899C191.898,80.899 191.96,80.84 191.96,80.768ZM191.829,80.458C191.829,80.43 191.74,80.334 191.63,80.243C191.464,80.105 191.445,80.113 191.514,80.293C191.584,80.476 191.829,80.604 191.829,80.458ZM200.711,80.246C200.711,80.174 200.48,80.115 200.199,80.115C199.917,80.115 199.579,80.077 199.448,80.031C199.281,79.972 199.248,79.988 199.339,80.086C199.457,80.212 199.835,80.301 200.482,80.357C200.608,80.367 200.711,80.318 200.711,80.246ZM190.749,80.167C190.706,80.123 190.593,80.119 190.499,80.156C190.394,80.198 190.425,80.229 190.578,80.235C190.715,80.241 190.792,80.21 190.749,80.167ZM201.625,79.723C201.625,79.651 201.493,79.594 201.331,79.595C201.093,79.596 201.075,79.621 201.233,79.723C201.486,79.887 201.625,79.887 201.625,79.723ZM190.98,79.593C190.936,79.521 190.756,79.462 190.581,79.462C190.405,79.462 190.262,79.521 190.262,79.593C190.262,79.664 190.442,79.723 190.661,79.723C190.895,79.723 191.027,79.669 190.98,79.593ZM198.033,79.593C197.989,79.521 197.853,79.462 197.732,79.462C197.61,79.462 197.138,79.286 196.683,79.07C195.763,78.635 195.336,78.548 195.945,78.92C196.389,79.19 197.682,79.706 197.943,79.716C198.037,79.72 198.078,79.664 198.033,79.593ZM158.728,78.949C158.804,78.944 159.007,78.807 159.179,78.646C159.351,78.484 159.876,78.158 160.347,77.921L161.202,77.491L160.046,77.557C159.411,77.593 158.806,77.693 158.701,77.78C158.551,77.904 158.278,77.862 157.375,77.575C156.75,77.375 156.165,77.192 156.075,77.166C155.774,77.08 155.896,76.719 156.226,76.719C156.399,76.719 156.943,76.536 157.435,76.313C158.282,75.928 158.366,75.914 159.055,76.052C159.454,76.131 159.948,76.197 160.152,76.197C160.51,76.197 160.516,76.188 160.297,75.947C160.173,75.809 159.755,75.568 159.369,75.412L158.668,75.127L157.91,75.471C157.494,75.66 157.045,75.876 156.912,75.949C156.78,76.023 156.222,76.085 155.672,76.087C155.122,76.088 137.656,76.131 116.86,76.182C84.201,76.261 79.009,76.299 78.756,76.463C78.365,76.714 78.384,76.792 78.886,77C79.237,77.146 85.744,77.19 116.534,77.254C141.966,77.307 154.077,77.376 154.767,77.472C155.788,77.613 156.659,78.007 157.545,78.727C157.788,78.924 158.061,79.029 158.263,79.002C158.443,78.977 158.652,78.954 158.728,78.949ZM193.923,78.164C193.849,78.025 193.838,77.879 193.9,77.841C194.06,77.742 196.22,77.718 196.374,77.813C196.445,77.857 197.131,77.83 197.897,77.753C199.465,77.595 199.798,77.642 199.517,77.983C199.365,78.167 199.368,78.189 199.535,78.134C199.643,78.099 199.8,77.932 199.885,77.764C199.969,77.596 200.204,77.385 200.407,77.295C200.769,77.135 200.764,77.132 200.155,77.122C199.814,77.116 199.535,77.057 199.535,76.991C199.535,76.803 199.823,76.754 200.319,76.859C201.163,77.037 203.144,77.136 202.931,76.989C202.823,76.915 202.559,76.851 202.343,76.847C202.128,76.844 201.489,76.758 200.925,76.658C200.171,76.524 199.848,76.403 199.709,76.205C199.54,75.964 199.386,75.936 198.222,75.936C197.271,75.936 196.922,75.979 196.921,76.099C196.919,76.229 196.898,76.229 196.815,76.098C196.736,75.974 196.005,75.939 193.78,75.953C190.744,75.971 189.141,75.87 188.855,75.64C188.656,75.481 188.678,75.458 188.324,76.205C187.971,76.952 187.969,77.245 188.317,77.687C188.584,78.027 188.602,78.03 188.927,77.817C189.297,77.575 190.941,77.518 192.458,77.695C193.164,77.778 193.3,77.837 193.402,78.104C193.474,78.295 193.626,78.417 193.79,78.417C194.016,78.417 194.037,78.376 193.923,78.164ZM188.684,77.149C188.535,76.757 188.624,76.197 188.835,76.197C188.91,76.197 188.935,76.256 188.891,76.327C188.809,76.459 190.238,76.515 194.115,76.531C196.654,76.542 197.707,76.599 197.707,76.725C197.707,76.901 197.322,76.951 195.878,76.96C195.124,76.965 194.362,77 194.186,77.038C194.009,77.076 193.629,77.043 193.341,76.966C192.955,76.862 192.804,76.864 192.768,76.973C192.731,77.082 192.671,77.083 192.545,76.978C192.434,76.887 192.19,76.871 191.872,76.936C191.597,76.992 191.284,77.027 191.176,77.014C191.068,77.001 190.775,76.966 190.523,76.937C189.932,76.869 188.881,77.136 188.923,77.344C188.984,77.639 188.82,77.506 188.684,77.149ZM198.164,76.938C198.588,76.646 199.143,76.551 199.143,76.771C199.143,76.874 199.217,76.983 199.307,77.013C199.396,77.044 199.117,77.079 198.686,77.093C197.985,77.116 197.93,77.099 198.164,76.938ZM159.866,77.027L161.071,76.871L159.928,76.893C159.213,76.907 158.802,76.866 158.831,76.785C158.856,76.713 159.077,76.667 159.321,76.683L159.765,76.711L159.373,76.525C158.836,76.27 158.534,76.283 157.902,76.589C157.605,76.732 157.303,76.85 157.232,76.85C157.161,76.85 157.076,76.894 157.042,76.948C156.952,77.094 158.302,76.975 158.492,76.82C158.671,76.674 158.694,76.727 158.581,77.022C158.526,77.165 158.365,77.198 157.96,77.15L157.414,77.086L157.871,77.349C158.292,77.59 158.342,77.594 158.495,77.397C158.608,77.251 159.047,77.133 159.866,77.027ZM167.6,76.981C167.828,76.894 167.916,76.894 167.862,76.981C167.815,77.058 167.969,77.111 168.239,77.111C168.491,77.111 168.733,77.052 168.777,76.981C168.821,76.909 168.928,76.851 169.013,76.852C169.107,76.853 169.091,76.904 168.973,76.981C168.702,77.155 169.753,77.156 170.213,76.981C170.44,76.894 170.528,76.894 170.475,76.981C170.299,77.264 171.367,77.093 172.107,76.719C173.07,76.233 173.324,76.212 172.434,76.692C171.789,77.04 171.786,77.045 172.174,77.084C172.39,77.105 172.965,76.973 173.45,76.791C173.936,76.608 174.582,76.457 174.886,76.456C175.189,76.455 175.702,76.368 176.026,76.262L176.613,76.071L175.764,76.119C175.298,76.146 174.739,76.204 174.524,76.249C174.221,76.312 174.192,76.303 174.393,76.209C174.573,76.125 174.28,76.094 173.446,76.109C172.781,76.121 172.238,76.087 172.238,76.034C172.238,75.887 171.736,75.916 171.429,76.08C171.228,76.188 171.135,76.184 171.062,76.066C170.993,75.954 170.794,75.937 170.393,76.008C170.079,76.064 169.451,76.097 168.998,76.083C168.252,76.059 168.124,76.096 167.659,76.464C167.376,76.688 167.144,76.926 167.144,76.991C167.144,77.142 167.18,77.141 167.6,76.981ZM170.801,76.799C170.801,76.77 170.893,76.712 171.004,76.669C171.12,76.625 171.173,76.647 171.127,76.721C171.05,76.845 170.801,76.904 170.801,76.799ZM174.001,76.981C174.103,76.815 173.931,76.815 173.675,76.981C173.506,77.09 173.509,77.107 173.7,77.109C173.821,77.11 173.957,77.052 174.001,76.981ZM177.985,76.926C178.896,76.808 179.597,76.635 180.075,76.409L180.793,76.069L179.804,76.068C178.554,76.066 176.356,76.385 175.209,76.734C174.725,76.881 174.328,77.027 174.328,77.057C174.328,77.177 176.697,77.092 177.985,76.926ZM181.059,76.859C181.454,76.72 181.743,76.662 181.701,76.728C181.66,76.795 181.545,76.85 181.446,76.85C181.347,76.85 181.225,76.915 181.176,76.995C181.074,77.16 182.058,77.1 182.48,76.915C182.658,76.837 182.702,76.85 182.635,76.958C182.568,77.068 182.739,77.111 183.24,77.111C183.815,77.111 184.067,77.03 184.652,76.657C185.044,76.408 185.423,76.203 185.495,76.201C185.567,76.2 185.376,76.349 185.07,76.532C184.765,76.715 184.515,76.926 184.515,77.001C184.515,77.076 184.736,77.007 185.005,76.848C185.487,76.565 185.491,76.564 185.246,76.835C184.933,77.182 185.106,77.188 185.661,76.849C186.206,76.517 186.33,76.515 185.934,76.846C185.533,77.179 185.6,77.173 186.54,76.791C186.971,76.616 187.342,76.381 187.365,76.27C187.412,76.045 187.189,75.991 187.062,76.197C187.018,76.269 186.911,76.327 186.826,76.325C186.722,76.324 186.729,76.286 186.847,76.211C187.092,76.056 181.695,76.035 181.411,76.19C181.286,76.258 180.789,76.439 180.305,76.592C179.82,76.745 179.391,76.924 179.35,76.991C179.218,77.204 180.32,77.119 181.059,76.859ZM186.67,76.981C186.715,76.909 186.692,76.85 186.62,76.85C186.549,76.85 186.453,76.909 186.409,76.981C186.365,77.052 186.387,77.111 186.459,77.111C186.531,77.111 186.626,77.052 186.67,76.981ZM166.44,76.774C166.396,76.66 166.361,76.513 166.361,76.447C166.361,76.281 162.611,76.292 162.508,76.458C162.463,76.53 162.563,76.596 162.729,76.604C162.995,76.617 163,76.626 162.769,76.682C161.933,76.883 162.463,76.981 164.389,76.981C166.278,76.981 166.51,76.957 166.44,76.774ZM167.412,76.389C167.624,76.28 167.797,76.162 167.797,76.128C167.797,75.966 167.27,76.094 166.996,76.323C166.626,76.631 166.87,76.67 167.412,76.389Z" style="fill-rule:nonzero;"/>
        </g>
        <g id="path31" serif:id="path3" transform="matrix(0.733052,0,0,0.725768,8.25057,72.521)">
            <path d="M253.878,65.402C254.059,65.187 254.157,64.933 254.097,64.835C253.951,64.595 254.195,64.468 254.538,64.607C254.756,64.697 254.68,64.835 254.182,65.255C253.826,65.557 253.692,65.62 253.878,65.402Z"/>
        </g>
        <g id="path32" serif:id="path3" transform="matrix(0.733052,0,0,0.725768,8.25057,72.521)">
            <path d="M255.152,64.271C255.213,64.172 255.337,64.091 255.43,64.091C255.523,64.091 255.598,64.172 255.598,64.271C255.598,64.369 255.472,64.45 255.319,64.45C255.167,64.45 255.092,64.369 255.152,64.271Z"/>
        </g>
        <g id="path33" serif:id="path3" transform="matrix(0.733052,0,0,0.725768,8.25057,72.521)">
            <path d="M257.116,64.464C257.03,64.191 256.846,64.089 256.431,64.085C256,64.081 255.932,64.04 256.146,63.914C256.546,63.677 257.169,63.888 257.3,64.303C257.362,64.498 257.371,64.698 257.322,64.748C257.274,64.797 257.18,64.669 257.116,64.464Z"/>
        </g>
        <g id="path34" serif:id="path3" transform="matrix(0.733052,0,0,0.725768,8.25057,72.521)">
            <path d="M257.03,67.207C257.034,67.126 257.147,66.615 257.283,66.071L257.527,65.08L257.542,65.948C257.551,66.496 257.46,66.915 257.291,67.086C257.143,67.234 257.026,67.289 257.03,67.207Z"/>
        </g>
        <g id="path35" serif:id="path3" transform="matrix(0.733052,0,0,0.725768,8.25057,72.521)">
            <path d="M253.103,66.261C253.103,66.167 253.182,66.042 253.279,65.981C253.38,65.918 253.41,65.991 253.35,66.151C253.231,66.462 253.103,66.52 253.103,66.261Z"/>
        </g>
        <g id="path36" serif:id="path3" transform="matrix(0.733052,0,0,0.725768,8.25057,72.521)">
            <path d="M237.925,76.925C238.053,76.873 238.207,76.88 238.267,76.939C238.326,76.998 238.221,77.041 238.033,77.034C237.826,77.026 237.783,76.982 237.925,76.925Z"/>
        </g>
        <g id="path37" serif:id="path3" transform="matrix(0.733052,0,0,0.725768,8.25057,72.521)">
            <path d="M234.017,78.712C233.79,78.422 233.799,78.418 234.129,78.661C234.324,78.806 234.517,78.948 234.558,78.977C234.599,79.005 234.549,79.028 234.446,79.028C234.344,79.028 234.15,78.886 234.017,78.712Z"/>
        </g>
        <g id="path38" serif:id="path3" transform="matrix(0.733052,0,0,0.725768,8.25057,72.521)">
            <path d="M239.993,77.431C240.278,77.369 240.546,77.216 240.587,77.093C240.662,76.867 240.336,76.815 239.027,76.847C238.517,76.859 238.468,76.832 238.76,76.697C239.637,76.294 240.625,76.564 240.868,77.273C240.96,77.543 240.868,77.585 240.225,77.566C239.563,77.548 239.536,77.532 239.993,77.431Z"/>
        </g>
        <g id="path39" serif:id="path3" transform="matrix(0.733052,0,0,0.725768,8.25057,72.521)">
            <path d="M240.276,80.22C240.276,80.183 240.415,80.041 240.587,79.904C240.869,79.681 240.876,79.687 240.653,79.972C240.422,80.272 240.276,80.367 240.276,80.22Z"/>
        </g>
        <g id="path310" serif:id="path3" transform="matrix(0.733052,0,0,0.725768,8.25057,72.521)">
            <path d="M233.827,79.804C233.957,79.753 234.11,79.758 234.17,79.819C234.228,79.878 234.123,79.921 233.935,79.913C233.728,79.904 233.685,79.862 233.827,79.804Z"/>
        </g>
        <g id="path311" serif:id="path3" transform="matrix(0.733052,0,0,0.725768,8.25057,72.521)">
            <path d="M237.735,79.808C237.858,79.758 238.059,79.758 238.182,79.808C238.304,79.857 238.203,79.899 237.959,79.899C237.714,79.899 237.614,79.857 237.735,79.808Z"/>
        </g>
        <g id="path312" serif:id="path3" transform="matrix(0.733052,0,0,0.725768,8.25057,72.521)">
            <path d="M238.88,79.571C239.142,79.491 239.463,79.371 239.593,79.303C239.723,79.236 239.674,79.309 239.484,79.463C239.293,79.62 238.973,79.74 238.771,79.732C238.476,79.72 238.498,79.688 238.88,79.571Z"/>
        </g>
        <g id="path313" serif:id="path3" transform="matrix(0.733052,0,0,0.725768,8.25057,72.521)">
            <path d="M247.42,73.202C247.208,72.945 247.492,72.602 248.237,72.213C248.819,71.909 248.993,71.982 248.426,72.293C248.156,72.44 247.937,72.682 247.937,72.829C247.937,73.055 248.014,73.047 248.42,72.778C248.686,72.603 248.84,72.562 248.765,72.686C248.688,72.81 248.399,73.03 248.121,73.176C247.703,73.394 247.582,73.398 247.42,73.202Z"/>
        </g>
        <g id="path314" serif:id="path3" transform="matrix(0.733052,0,0,0.725768,8.25057,72.521)">
            <path d="M223.035,78.224C223.229,78.209 223.394,78.193 223.526,78.175C225.537,77.909 226.774,77.686 227.624,77.434C227.968,77.333 228.609,77.155 229.05,77.038C229.492,76.923 230.178,76.675 230.576,76.489C230.975,76.301 231.393,76.148 231.508,76.148C231.621,76.148 231.977,75.987 232.298,75.79C232.908,75.414 233.504,75.315 233.504,75.59C233.504,75.678 233.243,75.983 232.924,76.267C232.452,76.684 232.361,76.878 232.434,77.3C232.575,78.106 233.048,78.306 233.543,77.767C233.767,77.525 233.931,77.266 233.908,77.193C233.883,77.12 234.024,76.974 234.219,76.867C234.414,76.763 234.573,76.586 234.573,76.478C234.573,76.367 234.714,76.162 234.886,76.02C235.066,75.871 235.085,75.82 234.929,75.9C234.7,76.019 234.696,75.995 234.908,75.733C235.041,75.565 235.262,75.429 235.397,75.429C235.532,75.429 235.643,75.266 235.643,75.067C235.643,74.622 236.607,73.991 237.291,73.991C237.575,73.989 237.78,73.89 237.78,73.754C237.78,73.161 238.287,72.826 239.322,72.733C240.031,72.668 240.349,72.564 240.318,72.41C240.289,72.268 240.615,72.358 241.183,72.648C241.682,72.905 242.105,73.088 242.121,73.056C242.136,73.025 242.284,72.837 242.446,72.64C242.726,72.301 242.717,72.18 242.325,70.66C241.822,68.723 241.833,68.702 243.749,68.056C245.693,67.4 247.866,66.474 249.758,65.497C251.696,64.496 251.883,64.292 253.807,61.057C254.738,59.49 256.749,56.46 257.205,55.935C257.363,55.755 261.993,58.075 263.704,59.192C265.024,60.055 267.287,61.212 267.654,61.212C267.774,61.212 268.158,61.646 268.505,62.175C269.211,63.25 269.306,64.001 268.871,65.054C268.703,65.459 268.602,66.288 268.601,67.28C268.598,68.792 268.454,69.401 268.095,69.401C268.005,69.401 267.521,69.749 267.02,70.175C266.387,70.714 266.11,71.085 266.11,71.386C266.11,71.965 265.332,72.509 264.957,72.194C264.749,72.02 264.593,72.05 264.18,72.348C263.719,72.679 263.648,72.862 263.537,74.004C263.424,75.155 263.45,75.33 263.78,75.685C264.247,76.187 264.251,76.72 263.791,77.14C263.48,77.424 263.447,77.611 263.541,78.562C263.645,79.612 263.627,79.68 263.107,80.177C262.618,80.647 262.479,80.687 261.633,80.604C261.048,80.548 260.479,80.606 260.113,80.761C259.791,80.896 259.295,81.008 259.008,81.008C258.69,81.008 258.443,81.122 258.375,81.3C258.282,81.543 258.117,81.57 257.42,81.456C256.298,81.274 254.91,81.303 254.65,81.515C254.534,81.61 254.017,81.745 253.5,81.815C252.775,81.913 252.459,81.876 252.123,81.654C251.702,81.376 251.664,81.388 251.043,81.997C250.688,82.344 250.209,82.676 249.979,82.734C249.523,82.85 248.443,82.55 247.803,82.129C247.538,81.956 247.205,81.906 246.824,81.985C245.368,82.284 245.031,82.299 244.62,82.077C244.259,81.881 243.978,81.892 242.9,82.147C242.191,82.315 241.396,82.451 241.131,82.449C240.868,82.448 240.364,82.619 240.012,82.828C239.194,83.316 237.217,83.509 236.759,83.146C236.478,82.923 236.468,82.929 236.673,83.193C236.862,83.437 236.853,83.539 236.616,83.777C236.459,83.937 236.145,84.067 235.918,84.067C235.693,84.067 235.408,84.188 235.287,84.337C234.992,84.694 234.838,84.67 233.683,84.097C232.564,83.542 232.318,82.952 232.961,82.364C233.447,81.921 233.422,81.727 232.88,81.727C232.604,81.727 232.436,81.829 232.436,81.997C232.436,82.196 232.237,82.264 231.679,82.258C230.192,82.241 227.47,81.784 227,81.472C226.604,81.21 226.387,81.188 225.694,81.337C224.42,81.611 222.561,81.876 220.498,82.076C219.469,82.176 218.187,82.302 217.647,82.355C215.474,82.572 203.018,82.98 198.761,82.974C196.262,82.971 191.733,82.842 188.695,82.689C182.55,82.379 136.362,82.156 68.861,82.11C49.106,82.096 27.281,82.033 20.359,81.967L4.934,81.523L4.961,80.616C4.548,80.013 4.36,78.253 4.932,78.253C5.416,78.253 179.498,77.905 181.3,78.136C182.035,78.23 183.038,78.349 183.528,78.398C184.018,78.449 184.94,78.569 185.577,78.666C186.214,78.763 187.777,78.93 189.051,79.039C190.325,79.146 192.129,79.305 193.061,79.39C193.991,79.476 196.236,79.634 198.049,79.743C199.861,79.851 201.505,79.966 201.701,79.998C201.898,80.031 205.105,80.065 208.828,80.076C214.567,80.093 215.55,80.059 215.28,79.851C215.206,79.794 215.036,79.747 214.727,79.707C216.713,79.343 217.319,79.326 220.291,78.955C220.449,78.935 221.795,78.57 223.035,78.224ZM242.681,77.409C242.541,77.182 242.049,77.182 241.7,77.409C241.502,77.538 241.608,77.584 242.112,77.585C242.52,77.587 242.746,77.516 242.681,77.409ZM249.874,81.974C250.561,81.836 250.602,81.556 249.941,81.52L249.451,81.493L249.916,81.42C250.561,81.319 251.366,80.435 251.292,79.907C251.25,79.611 251.061,79.44 250.64,79.319C250.188,79.188 250.069,79.069 250.134,78.816C250.23,78.446 249.811,78.136 249.284,78.186C249.103,78.204 248.92,78.119 248.878,77.997C248.821,77.835 249.121,77.788 250.017,77.817C250.996,77.85 251.232,77.804 251.232,77.588C251.232,77.37 250.95,77.317 249.78,77.313L248.328,77.307L248.426,77.942C248.481,78.292 248.632,78.642 248.765,78.722C248.897,78.801 249.005,78.978 249.005,79.116C249.005,79.254 249.169,79.483 249.368,79.623C249.725,79.877 249.725,79.881 249.284,80.173C248.864,80.451 248.829,80.447 248.646,80.103C248.383,79.605 248.114,79.823 248.114,80.533C248.114,81.195 248.376,81.537 248.908,81.567C249.211,81.585 249.22,81.603 248.958,81.672C248.787,81.717 248.691,81.829 248.747,81.92C248.866,82.116 249.114,82.128 249.874,81.974ZM238.891,82.078C239.49,81.91 239.535,81.857 239.341,81.545C239.026,81.034 237.959,80.938 237.959,81.418C237.959,81.523 237.826,81.756 237.665,81.938C237.386,82.248 237.393,82.267 237.797,82.266C238.033,82.264 238.525,82.18 238.891,82.078ZM254.618,76.777C254.618,76.1 254.551,75.878 254.351,75.878C254.155,75.878 254.074,76.126 254.043,76.836C254.006,77.661 254.043,77.785 254.309,77.734C254.553,77.686 254.618,77.485 254.618,76.777ZM254.707,74.349C254.707,74.109 254.588,73.989 254.351,73.989C254.007,73.989 253.868,74.342 254.112,74.588C254.358,74.837 254.707,74.696 254.707,74.349ZM237.94,74.964C238.3,74.891 238.502,74.908 238.441,75.009C238.385,75.101 238.613,75.177 238.948,75.177C239.311,75.177 239.468,75.12 239.337,75.036C239.192,74.943 239.25,74.893 239.508,74.892C240.003,74.889 240.191,74.59 239.913,74.251C239.637,73.916 239.076,73.919 238.428,74.261C238.147,74.409 237.681,74.529 237.392,74.529C236.787,74.529 236.178,74.813 236.178,75.096C236.178,75.283 236.479,75.26 237.94,74.964ZM234.887,83.258C235.272,83.146 235.82,82.343 235.82,81.892C235.82,81.588 234.743,81.796 233.764,82.289C233.324,82.513 232.991,82.78 233.025,82.886C233.115,83.16 233.902,83.531 234.217,83.447C234.365,83.407 234.666,83.323 234.887,83.258ZM185.711,79.793C185.754,79.66 185.631,79.567 185.413,79.567C185.195,79.567 185.042,79.684 185.042,79.851C185.042,80.181 185.599,80.133 185.711,79.793ZM245.174,77.463C245.577,77.268 245.774,77.066 245.714,76.907C245.663,76.771 245.62,76.585 245.62,76.494C245.62,76.403 245.44,76.325 245.219,76.32C244.998,76.316 244.5,76.198 244.112,76.059C243.483,75.833 243.368,75.837 243.087,76.094C242.621,76.52 242.698,76.873 243.307,77.104C243.622,77.224 243.809,77.405 243.758,77.54C243.633,77.872 244.413,77.829 245.174,77.463ZM247.045,79.658C247.275,79.411 247.416,79.162 247.358,79.104C247.218,78.96 246.387,79.525 246.264,79.848C246.106,80.265 246.59,80.147 247.045,79.658ZM259.57,69.784C259.58,69.43 259.531,69.083 259.461,69.012C259.192,68.741 259.008,69.253 259.108,69.995C259.229,70.908 259.542,70.765 259.57,69.784ZM262.158,77.811C262.2,77.512 262.125,77.408 261.867,77.408C261.379,77.408 261.067,77.821 261.344,78.101C261.663,78.423 262.093,78.27 262.158,77.811ZM257.46,71.294C258.074,70.979 258.801,70.172 258.804,69.805C258.804,69.732 258.674,69.671 258.513,69.671C258.18,69.671 256.452,71.373 256.617,71.539C256.755,71.678 256.66,71.706 257.46,71.294ZM254.884,75.248C254.884,74.985 254.766,74.889 254.44,74.889C254.021,74.889 253.842,75.215 254.112,75.488C254.378,75.757 254.884,75.6 254.884,75.248ZM178.895,79.388C178.742,79.138 8.476,79.138 8.476,79.388C8.476,79.507 37.017,79.568 93.74,79.568C150.538,79.568 178.969,79.507 178.895,79.388ZM259.784,77.402C259.784,77.257 259.67,77.164 259.529,77.194C259.389,77.226 259.087,77.204 258.861,77.146C258.547,77.067 258.449,76.916 258.449,76.516C258.449,76.227 258.371,75.942 258.278,75.884C258.184,75.824 258.153,75.659 258.207,75.513C258.314,75.233 258.124,75.178 257.662,75.359C257.298,75.499 257.298,75.948 257.662,76.089C257.875,76.172 257.917,76.345 257.834,76.792C257.7,77.511 257.929,77.68 259.015,77.672C259.569,77.668 259.784,77.592 259.784,77.402ZM255.206,73.359C255.206,73.014 255.118,72.73 255.011,72.73C254.905,72.73 254.973,72.614 255.163,72.472C255.591,72.152 255.287,71.734 254.751,71.906C254.491,71.988 254.423,72.133 254.486,72.467C254.532,72.713 254.642,72.958 254.727,73.012C254.815,73.066 254.884,73.204 254.884,73.315C254.884,73.464 254.826,73.461 254.672,73.304C254.386,73.018 253.816,73.029 253.816,73.322C253.816,73.51 254.43,73.82 255.09,73.963C255.153,73.978 255.206,73.705 255.206,73.359ZM243.547,71.546C243.039,69.996 242.645,69.344 242.835,70.368C242.953,71.007 243.847,73.14 243.952,73.034C243.986,73.001 243.803,72.332 243.547,71.546ZM253.26,71.535L253.474,71.061L253.869,71.436C254.208,71.757 254.395,71.793 255.139,71.685C256.287,71.52 256.52,71.035 255.396,71.149C254.968,71.193 254.457,71.289 254.261,71.362C254.039,71.444 254.071,71.392 254.351,71.218C254.595,71.067 255.097,70.94 255.464,70.936C255.936,70.932 256.133,70.85 256.133,70.66C256.133,70.317 255.392,70.303 254.742,70.635C254.478,70.772 253.966,70.936 253.605,71.002C253.245,71.068 252.914,71.22 252.874,71.341C252.833,71.461 252.819,71.418 252.845,71.244C252.898,70.89 252.647,70.655 252.49,70.912C252.361,71.123 252.685,72.009 252.893,72.009C252.977,72.009 253.142,71.796 253.26,71.535ZM266.864,69.526C267.379,69.132 267.784,68.649 267.903,68.286C268.261,67.187 267.99,67.122 267.429,68.173C266.888,69.187 266.843,69.222 265.125,69.974C263.81,70.549 263.313,70.691 263.137,70.543C262.854,70.305 262.848,70.36 263.092,71.065L263.281,71.614L264.65,70.893C265.405,70.496 266.401,69.88 266.864,69.526ZM260.511,77.06C260.683,77.205 260.764,77.211 260.764,77.077C260.764,76.832 260.21,76.533 259.939,76.63C259.788,76.686 259.788,76.816 259.939,77.144C260.128,77.558 260.145,77.562 260.199,77.216C260.245,76.92 260.307,76.89 260.511,77.06ZM253.637,77.139C253.637,76.99 253.517,76.869 253.37,76.869C253.224,76.869 253.103,76.99 253.103,77.139C253.103,77.286 253.224,77.409 253.37,77.409C253.517,77.409 253.637,77.286 253.637,77.139ZM252.097,73.562C252.704,73.306 253.816,72.101 253.816,71.699C253.816,71.341 253.437,71.43 253.337,71.814C253.283,72.026 253.032,72.197 252.677,72.264C251.97,72.398 250.855,73.303 251.035,73.598C251.201,73.871 251.381,73.864 252.097,73.562ZM240.364,81.187C240.424,81.088 240.304,81.007 240.097,81.007C239.889,81.007 239.769,81.088 239.829,81.187C239.889,81.286 240.011,81.368 240.097,81.368C240.183,81.368 240.303,81.286 240.364,81.187ZM252.781,70.6C253.2,70.336 253.404,70.091 253.341,69.927C253.135,69.387 252.635,69.7 252.065,70.724C251.801,71.196 251.844,71.189 252.781,70.6ZM251.947,78.485C252.009,78.384 252.153,78.357 252.269,78.423C252.385,78.491 252.423,78.482 252.354,78.404C252.284,78.327 252.388,77.946 252.583,77.559C252.778,77.172 252.887,76.771 252.824,76.668C252.65,76.384 253.389,75.772 253.741,75.908C253.953,75.991 254.015,75.95 253.951,75.772C253.902,75.633 253.77,75.538 253.661,75.563C253.55,75.587 253.46,75.53 253.46,75.432C253.46,75.326 253.277,75.339 253.002,75.466C252.702,75.605 252.572,75.783 252.625,75.987C252.67,76.159 252.472,76.582 252.181,76.94C251.891,77.295 251.699,77.657 251.754,77.745C251.808,77.835 251.733,78.007 251.587,78.13C251.441,78.251 251.321,78.423 251.321,78.51C251.321,78.728 251.81,78.708 251.947,78.485ZM262.548,79.342C262.904,78.752 263.026,77.948 262.758,77.948C262.565,77.948 261.747,78.842 261.505,79.319C261.087,80.141 262.053,80.163 262.548,79.342ZM257.914,69.209C257.914,68.927 257.746,68.887 257.299,69.061C257.041,69.161 257.044,69.196 257.328,69.405C257.684,69.668 257.914,69.591 257.914,69.209ZM239.251,75.853C240.319,75.674 240.061,75.338 238.861,75.342C237.763,75.346 237.484,75.45 237.684,75.776C237.817,75.994 238.276,76.016 239.251,75.853ZM254.35,72.44C254.35,72.152 253.891,72.1 253.726,72.37C253.666,72.468 253.663,72.626 253.721,72.722C253.868,72.961 254.35,72.745 254.35,72.44ZM256.626,72.81C256.845,72.655 257.023,72.429 257.023,72.307C257.023,72.184 257.278,72.006 257.591,71.911C258.341,71.684 258.535,71.185 257.804,71.364C257.521,71.433 257.205,71.601 257.101,71.738C256.997,71.874 256.575,72.122 256.161,72.289C255.557,72.533 255.45,72.64 255.616,72.841C255.88,73.162 256.138,73.154 256.626,72.81ZM246.506,75.166C246.68,74.954 246.582,74.598 246,73.321C245.294,71.774 244.821,70.116 244.938,69.599C244.982,69.406 245.388,69.559 246.544,70.207C247.395,70.682 248.137,71.027 248.192,70.972C248.248,70.915 248.293,71.01 248.293,71.181C248.293,71.352 248.212,71.441 248.114,71.379C248.017,71.319 247.937,71.397 247.937,71.556C247.937,71.783 248.008,71.804 248.28,71.656C248.9,71.322 248.931,71.462 248.323,71.837C247.997,72.038 247.515,72.406 247.253,72.654C246.789,73.096 246.787,73.113 247.124,73.368C247.602,73.73 247.98,73.696 248.581,73.235L249.095,72.841L248.694,73.292C248.245,73.796 248.174,74.17 248.526,74.17C248.964,74.17 249.54,73.449 249.54,72.902C249.54,72.29 249.722,72.245 250.445,72.677C250.815,72.896 251.017,72.93 251.153,72.79C251.291,72.653 250.885,72.303 249.731,71.567C248.841,71.001 248.114,70.498 248.114,70.449C248.114,70.358 248.675,70.685 250.514,71.849C251.097,72.22 251.64,72.483 251.719,72.434C251.939,72.296 251.713,72.037 251.088,71.713C250.775,71.55 249.473,70.742 248.192,69.913C246.911,69.087 245.769,68.41 245.653,68.41C245.192,68.41 245.499,68.723 246.69,69.464C247.375,69.893 247.937,70.283 247.937,70.331C247.937,70.423 247.047,69.902 245.979,69.187C245.193,68.658 244.941,68.662 244.807,69.204C244.747,69.441 244.543,69.678 244.35,69.729C244.072,69.802 244.024,69.922 244.113,70.33C244.29,71.138 245.296,73.69 245.563,74.008C245.697,74.167 245.757,74.43 245.694,74.593C245.631,74.758 245.669,74.889 245.78,74.889C245.888,74.889 245.976,75.01 245.976,75.159C245.976,75.502 246.226,75.505 246.506,75.166ZM260.741,73.511C260.641,73.39 260.442,73.336 260.299,73.393C260.075,73.479 260.082,73.544 260.342,73.836C260.573,74.092 260.683,74.121 260.786,73.955C260.861,73.832 260.84,73.632 260.741,73.511ZM250.074,76.862C250.306,76.706 250.295,76.646 249.995,76.416C249.806,76.268 249.425,76.148 249.149,76.148C248.823,76.148 248.649,76.055 248.649,75.878C248.649,75.567 248.686,75.563 249.598,75.778C249.973,75.866 250.241,75.897 250.193,75.848C250.144,75.8 250.298,75.472 250.535,75.119C250.954,74.496 251.107,73.809 250.826,73.809C250.608,73.809 249.362,75.087 249.359,75.315C249.358,75.426 249.28,75.399 249.188,75.25C248.954,74.878 248.631,75.228 248.365,76.143L248.158,76.85L248.716,76.92C249.722,77.048 249.804,77.045 250.074,76.862ZM235.07,77.471C235.551,77.255 235.647,77.153 235.42,77.098C235.249,77.056 234.897,77.19 234.639,77.395C234.071,77.846 234.189,77.866 235.07,77.471ZM262.368,74.872C262.368,74.471 262.269,74.331 261.922,74.243C261.615,74.165 261.477,74.007 261.477,73.73C261.477,73.296 261.323,73.054 261.125,73.176C260.833,73.359 261.174,74.284 261.631,74.549C262.183,74.868 262.284,75.554 261.801,75.71C261.541,75.793 261.524,75.869 261.698,76.151C261.895,76.468 261.923,76.454 262.139,75.939C262.264,75.636 262.368,75.155 262.368,74.872ZM247.223,76.433C247.223,76.392 247.272,76.23 247.332,76.074C247.392,75.914 247.349,75.789 247.233,75.789C247.118,75.789 247.075,75.87 247.135,75.969C247.195,76.068 247.084,76.148 246.888,76.148C246.693,76.148 246.482,76.23 246.422,76.329C246.36,76.431 246.51,76.509 246.768,76.509C247.019,76.509 247.223,76.475 247.223,76.433ZM253.703,74.801C253.646,74.652 253.527,74.576 253.438,74.633C253.251,74.75 253.401,75.069 253.643,75.069C253.732,75.069 253.759,74.948 253.703,74.801ZM234.699,81.024C234.989,80.555 236.531,80.07 237.886,80.021C239.134,79.976 239.824,79.637 239.868,79.05C239.888,78.779 239.794,78.667 239.54,78.667C239.345,78.667 239.235,78.587 239.295,78.488C239.472,78.198 237.826,78.274 237.238,78.583C236.646,78.892 236.56,79.28 237.023,79.553C237.195,79.653 237.251,79.739 237.148,79.742C237.045,79.744 236.871,79.656 236.76,79.545C236.491,79.273 235.496,79.622 235.159,80.108C234.974,80.374 234.707,80.468 234.129,80.468C233.699,80.468 233.29,80.561 233.219,80.677C233.134,80.816 233.185,80.851 233.369,80.781C233.55,80.71 233.678,80.793 233.737,81.019C233.853,81.465 234.425,81.468 234.699,81.024ZM254.628,79.372C254.693,79.264 254.659,79.089 254.553,78.98C254.415,78.842 254.414,78.717 254.547,78.554C254.77,78.283 254.611,77.948 254.261,77.948C253.902,77.948 253.753,78.285 253.987,78.569C254.126,78.739 254.13,78.852 254.002,78.931C253.899,78.996 253.815,79.166 253.815,79.308C253.815,79.609 254.451,79.66 254.627,79.371L254.628,79.372ZM249.792,70.099C249.947,70.04 250.074,69.918 250.074,69.829C250.074,69.572 249.604,69.645 249.362,69.94C249.126,70.225 249.301,70.291 249.792,70.099ZM183.764,79.688C183.802,79.485 183.701,79.388 183.451,79.388C183.248,79.388 183.083,79.495 183.083,79.627C183.083,80.178 183.66,80.229 183.764,79.688ZM253.605,80.6C253.637,80.422 253.556,80.287 253.412,80.287C253.231,80.287 253.161,80.059 253.167,79.477C253.171,79.032 253.238,78.667 253.317,78.667C253.395,78.667 253.46,78.587 253.46,78.488C253.46,78.389 253.299,78.307 253.103,78.307C252.769,78.307 252.67,78.558 252.699,79.342C252.703,79.466 252.636,79.567 252.549,79.567C252.462,79.567 252.391,79.487 252.391,79.388C252.391,79.288 252.151,79.207 251.856,79.207C251.563,79.207 251.324,79.268 251.327,79.342C251.342,79.67 251.856,80.13 252.153,80.081C252.61,80.005 252.925,80.245 252.925,80.67C252.925,81.124 253.516,81.062 253.605,80.6ZM241.79,79.206C241.851,79.106 241.769,78.974 241.607,78.911C241.446,78.849 241.245,78.627 241.162,78.418C241.033,78.094 241.008,78.085 240.999,78.365C240.975,79.058 241.524,79.642 241.79,79.206ZM260.988,78.957C261.35,78.68 261.398,78.317 261.076,78.287C260.205,78.205 259.57,78.568 259.894,78.962C260.146,79.269 260.582,79.267 260.988,78.957ZM245.264,80.287C245.264,80.188 245.384,80.107 245.532,80.107C245.678,80.107 245.798,80.027 245.798,79.928C245.798,79.828 245.564,79.747 245.278,79.747C244.993,79.747 244.622,79.695 244.455,79.63C244.237,79.545 244.271,79.641 244.574,79.97C245.03,80.465 245.264,80.572 245.264,80.287ZM258.091,80.377C258.091,79.95 257.423,79.388 256.914,79.388C256.565,79.388 256.476,79.458 256.558,79.671C256.618,79.828 256.667,80.112 256.667,80.302C256.667,80.585 256.796,80.647 257.379,80.647C257.894,80.647 258.091,80.572 258.091,80.377ZM182.191,79.477C182.191,79.328 182.034,79.207 181.84,79.207C181.602,79.207 181.523,79.294 181.592,79.477C181.649,79.626 181.806,79.747 181.944,79.747C182.08,79.747 182.191,79.626 182.191,79.477ZM236.711,78.694C237.439,78.211 238.145,77.948 238.707,77.948C239.478,77.948 239.24,77.511 238.431,77.442C238.068,77.41 237.513,77.515 237.198,77.675C236.65,77.949 236.637,77.948 236.933,77.649C237.146,77.431 237.532,77.33 238.172,77.325C238.988,77.318 239.128,77.373 239.325,77.767C239.662,78.442 240.517,78.435 240.999,77.752C241.202,77.464 241.473,77.228 241.602,77.228C241.73,77.228 241.932,77.11 242.05,76.965C242.282,76.684 242.072,76.592 240.899,76.454C240.408,76.398 240.426,76.38 241.125,76.246C241.544,76.166 241.937,76.017 241.998,75.917C242.068,75.804 242.022,75.789 241.878,75.878C241.72,75.977 241.687,75.954 241.78,75.804C241.854,75.683 242.013,75.622 242.134,75.669C242.255,75.716 242.357,75.66 242.36,75.546C242.364,75.432 242.398,75.217 242.435,75.068C242.488,74.854 242.308,74.797 241.571,74.791C241.06,74.787 240.739,74.846 240.859,74.923C241.019,75.027 241.005,75.069 240.809,75.087C240.663,75.101 240.492,75.105 240.432,75.098C240.372,75.091 240.323,75.222 240.323,75.392C240.325,76.083 240.273,76.172 239.928,76.061C239.48,75.918 238.304,76.238 237.759,76.651C237.291,77.007 236.355,77.449 236.355,77.315C236.355,77.268 236.65,77.088 237.011,76.914C237.371,76.741 237.701,76.489 237.744,76.355C237.802,76.174 237.711,76.187 237.381,76.404C237.137,76.566 236.79,76.647 236.603,76.585C236.358,76.505 236.332,76.522 236.504,76.646C236.666,76.763 236.467,76.805 235.88,76.778C235.399,76.754 235.305,76.771 235.667,76.812C236.214,76.874 236.302,76.943 236.224,77.248C236.169,77.459 236.03,77.569 235.888,77.515C235.455,77.347 235.719,77.85 236.178,78.063C236.596,78.259 236.581,78.27 235.91,78.251C234.262,78.203 233.327,78.309 233.327,78.543C233.327,79.16 235.841,79.272 236.711,78.694ZM239.874,80.625C239.85,80.513 239.941,80.381 240.078,80.331C240.229,80.276 240.277,80.319 240.201,80.444C239.999,80.774 240.372,80.676 240.697,80.313C241.071,79.896 240.9,79.386 240.39,79.39C240.115,79.392 240.074,79.436 240.244,79.543C240.557,79.744 240.087,80.236 239.416,80.411L238.939,80.535L239.383,80.663C239.629,80.734 239.85,80.8 239.874,80.809C239.899,80.819 239.899,80.736 239.874,80.625ZM187.317,79.961C187.357,79.842 187.225,79.747 187.017,79.747C186.646,79.747 186.536,79.936 186.768,80.172C186.933,80.338 187.232,80.224 187.317,79.961ZM244.157,80.582C244.428,80.309 244.417,80.287 244.011,80.282C243.769,80.279 243.416,80.156 243.225,80.012C242.802,79.688 242.341,79.664 242.466,79.972C242.515,80.096 242.611,80.333 242.676,80.498C242.764,80.717 242.683,80.823 242.382,80.892C242.154,80.943 242.394,80.961 242.917,80.931C243.498,80.898 243.978,80.763 244.157,80.582ZM247.139,78.376C247.5,78.741 247.758,78.75 247.758,78.397C247.758,78.249 247.63,78.128 247.474,78.128C247.317,78.128 247.148,77.966 247.098,77.767C246.995,77.377 246.512,77.266 246.508,77.632C246.507,77.756 246.461,78.061 246.406,78.307C246.312,78.734 246.32,78.74 246.578,78.42C246.828,78.11 246.871,78.106 247.139,78.376ZM237.505,81.748C237.467,81.711 237.521,81.519 237.625,81.323C237.75,81.088 237.755,80.909 237.636,80.789C237.414,80.564 236.146,80.767 235.704,81.099C235.385,81.337 235.385,81.352 235.714,81.598C235.996,81.81 237.708,81.953 237.505,81.748ZM255.643,69.01C255.52,68.96 255.319,68.96 255.197,69.01C255.074,69.061 255.175,69.101 255.419,69.101C255.665,69.101 255.764,69.061 255.643,69.01ZM261.477,68.04C261.477,67.946 261.397,67.87 261.299,67.87C261.202,67.87 261.121,67.995 261.121,68.15C261.121,68.304 261.202,68.381 261.299,68.319C261.397,68.259 261.477,68.132 261.477,68.04ZM254.707,69.669L255.152,69.317L254.551,69.313C254.069,69.31 253.989,69.262 254.149,69.067C254.258,68.935 254.306,68.784 254.255,68.733C254.205,68.682 254.285,68.538 254.436,68.413C254.722,68.173 254.807,67.69 254.562,67.69C254.483,67.69 254.262,67.808 254.073,67.954C253.624,68.297 253.281,68.299 253.281,67.96C253.281,67.804 253.12,67.69 252.904,67.69C252.586,67.69 252.561,67.732 252.749,67.962C252.934,68.187 252.914,68.301 252.646,68.602C252.322,68.963 252.325,68.965 252.777,68.792C253.258,68.607 253.637,68.806 253.637,69.242C253.637,69.365 253.808,69.519 254.018,69.587C254.315,69.682 254.344,69.741 254.152,69.865C254.015,69.952 253.985,70.022 254.084,70.022C254.182,70.021 254.461,69.863 254.707,69.669ZM230.785,80.647C231.153,80.251 231.576,79.93 231.722,79.933C231.926,79.937 231.911,79.986 231.664,80.13C231.351,80.313 231.354,80.334 231.718,80.592C232.029,80.812 232.194,80.822 232.612,80.648C233.134,80.429 233.464,79.968 233.089,79.977C232.975,79.98 232.68,79.965 232.436,79.944C232.003,79.906 232.001,79.9 232.373,79.749C232.799,79.575 233.504,79.7 233.504,79.948C233.504,80.151 234.054,80.149 234.371,79.946C234.568,79.82 234.539,79.713 234.227,79.397C233.924,79.091 233.711,79.029 233.271,79.116C232.908,79.188 232.788,79.17 232.936,79.065C233.441,78.712 231.735,77.972 231.122,78.28C230.278,78.706 229.257,79.087 228.159,79.392C227.276,79.637 227.081,79.746 227.341,79.849C227.526,79.925 227.987,79.903 228.365,79.802C229.043,79.619 229.05,79.623 229.05,80.132C229.05,80.63 229.581,81.366 229.939,81.366C230.036,81.366 230.417,81.042 230.785,80.647ZM256.845,68.219C256.845,68.126 256.764,68.049 256.667,68.049C256.569,68.049 256.489,68.176 256.489,68.33C256.489,68.485 256.569,68.56 256.667,68.5C256.764,68.438 256.845,68.312 256.845,68.219ZM256.306,69.496C256.449,69.404 256.516,69.277 256.452,69.212C256.296,69.055 255.598,69.292 255.598,69.501C255.598,69.715 255.966,69.712 256.306,69.496ZM243.912,78.61C244.199,78.4 244.128,78.349 243.249,78.136C242.708,78.004 242.129,77.95 241.964,78.014C241.7,78.117 241.713,78.172 242.083,78.482C242.569,78.892 243.45,78.952 243.912,78.61ZM226.903,80.11C227.077,80.108 227.103,80.048 226.982,79.925C226.758,79.699 225.63,79.906 225.777,80.145C225.836,80.24 226.054,80.272 226.264,80.216C226.473,80.159 226.761,80.111 226.903,80.11ZM223.082,80.647C223.022,80.548 222.741,80.466 222.458,80.466C222.176,80.466 221.895,80.548 221.835,80.647C221.768,80.756 222.015,80.827 222.458,80.827C222.902,80.827 223.149,80.756 223.082,80.647ZM252.747,81.108C252.747,80.838 252.085,80.537 251.9,80.723C251.79,80.833 252.37,81.351 252.613,81.361C252.687,81.363 252.747,81.25 252.747,81.108ZM247.581,80.736C247.426,80.55 247.42,80.466 247.559,80.466C247.668,80.466 247.758,80.311 247.758,80.121C247.758,79.929 247.877,79.653 248.02,79.507C248.25,79.276 248.25,79.217 248.023,79.025C247.813,78.849 247.742,78.871 247.65,79.142C247.587,79.327 247.326,79.659 247.069,79.881C246.743,80.163 246.682,80.291 246.869,80.304C247.014,80.313 246.935,80.388 246.69,80.468L246.244,80.611L246.69,80.632C246.935,80.643 247.256,80.731 247.402,80.827C247.783,81.075 247.836,81.048 247.581,80.736ZM241.7,81.727C241.346,81.496 240.58,81.496 240.72,81.727C240.782,81.826 241.086,81.905 241.4,81.903C241.832,81.902 241.904,81.859 241.7,81.727ZM259.261,80.337C258.971,80.262 259.011,80.207 259.497,80.001C260.319,79.651 260.195,79.137 259.27,79.06C258.89,79.029 258.494,79.09 258.389,79.195C258.097,79.491 257.84,79.423 258.091,79.117C258.27,78.9 258.266,78.847 258.07,78.85C257.935,78.852 257.711,78.926 257.57,79.016C257.165,79.275 258.637,80.455 259.34,80.433C259.486,80.429 259.45,80.385 259.261,80.337ZM250.43,68.949C250.43,68.851 250.395,68.77 250.353,68.77C250.309,68.77 250.224,68.851 250.163,68.949C250.103,69.048 250.138,69.129 250.242,69.129C250.346,69.129 250.43,69.048 250.43,68.949ZM250.863,68.45C251.722,68.139 252.16,67.69 251.604,67.69C251.448,67.69 251.318,67.832 251.316,68.005C251.31,68.293 251.297,68.294 251.138,68.022C251.025,67.826 250.829,67.757 250.565,67.822C250.057,67.947 249.519,68.409 249.643,68.614C249.773,68.826 249.856,68.815 250.863,68.45ZM256.272,67.866C256.495,67.533 256.635,67.133 256.583,66.98C256.523,66.801 256.584,66.827 256.755,67.049C256.902,67.242 257.023,67.475 257.023,67.566C257.023,67.658 257.143,67.633 257.291,67.51C257.483,67.348 257.558,67.344 257.558,67.494C257.558,67.608 257.437,67.747 257.291,67.805C257.143,67.862 257.023,67.978 257.023,68.063C257.023,68.148 257.142,68.172 257.287,68.117C257.569,68.007 257.963,66.837 257.806,66.579C257.755,66.494 257.805,65.971 257.918,65.419C258.068,64.69 258.071,64.358 257.931,64.215C257.824,64.107 257.735,63.837 257.735,63.615C257.735,63.393 257.654,63.161 257.554,63.099C257.332,62.959 256.113,63.333 255.861,63.615C255.521,63.997 254.474,64.472 254.365,64.295C254.302,64.19 254.129,64.217 253.931,64.363C253.751,64.497 253.651,64.686 253.71,64.781C253.771,64.883 253.666,64.917 253.46,64.862C253.261,64.81 253.104,64.857 253.104,64.97C253.104,65.08 253.204,65.176 253.326,65.182C253.449,65.189 253.369,65.282 253.148,65.39C252.928,65.497 252.747,65.715 252.745,65.872C252.744,66.031 252.691,66.354 252.628,66.593C252.548,66.897 252.575,66.988 252.719,66.897C252.839,66.823 252.925,66.879 252.925,67.034C252.925,67.18 252.824,67.341 252.703,67.391C252.58,67.44 252.64,67.488 252.837,67.495C253.085,67.505 253.324,67.261 253.622,66.692C254.191,65.609 255.255,64.764 256.082,64.74C256.467,64.729 256.738,64.811 256.768,64.95C256.796,65.076 256.778,65.096 256.727,64.995C256.678,64.894 256.551,64.81 256.446,64.81C256.341,64.81 256.404,64.977 256.585,65.179C256.879,65.506 256.89,65.615 256.684,66.124C256.555,66.441 256.454,66.844 256.459,67.019C256.464,67.205 256.386,67.287 256.272,67.216C256.15,67.14 256.128,67.178 256.213,67.316C256.296,67.453 256.149,67.754 255.841,68.088C255.56,68.39 255.45,68.6 255.598,68.555C255.745,68.509 256.048,68.199 256.272,67.866ZM225.253,80.266C225.034,80.138 224.719,80.134 224.273,80.253C223.619,80.429 223.621,80.429 224.596,80.443C225.364,80.454 225.506,80.415 225.253,80.266ZM243.839,79.388C243.839,79.288 243.674,79.207 243.472,79.207C243.27,79.207 243.154,79.288 243.215,79.388C243.275,79.487 243.44,79.568 243.582,79.568C243.723,79.568 243.839,79.487 243.839,79.388ZM238.671,80.736C238.861,80.506 238.812,80.466 238.337,80.466C237.806,80.466 237.641,80.626 237.899,80.887C238.098,81.088 238.438,81.022 238.671,80.736ZM256.339,80.017C256.274,79.638 255.812,79.028 255.59,79.028C255.339,79.028 255.224,79.959 255.441,80.223C255.76,80.612 256.414,80.462 256.339,80.017ZM180.855,79.207C180.915,79.108 180.795,79.028 180.588,79.028C180.381,79.028 180.261,79.108 180.321,79.207C180.381,79.306 180.502,79.388 180.588,79.388C180.674,79.388 180.795,79.306 180.855,79.207ZM249.148,69.634C249.421,69.357 249.425,68.949 249.153,68.949C248.905,68.949 248.293,69.481 248.293,69.697C248.293,69.926 248.904,69.88 249.148,69.634ZM258.445,68.148C258.536,67.906 258.862,67.575 259.171,67.415C259.816,67.078 259.78,66.878 259.12,67.132C258.681,67.3 257.914,68.128 257.914,68.434C257.914,68.767 258.288,68.566 258.445,68.148ZM260.632,68.879C260.802,68.748 260.943,68.548 260.943,68.435C260.943,68.125 260.567,68.188 260.3,68.544C259.864,69.125 260.056,69.32 260.632,68.879ZM251.743,69.579C251.627,69.274 251.393,69.226 251.241,69.475C251.185,69.568 251.28,69.679 251.453,69.725C251.625,69.77 251.785,69.817 251.805,69.828C251.827,69.839 251.799,69.727 251.743,69.579ZM254.463,80.969C254.89,80.271 254.452,79.389 253.938,79.915C253.775,80.082 253.8,80.185 254.044,80.369C254.326,80.578 254.33,80.617 254.077,80.714C253.921,80.775 253.843,80.906 253.905,81.005C254.054,81.25 254.3,81.234 254.463,80.969ZM254.813,67.618C255.257,67.612 255.348,67.546 255.281,67.285C255.16,66.815 254.605,66.557 254.193,66.779C253.632,67.082 253.403,68.015 253.95,67.767C254.12,67.69 254.509,67.622 254.813,67.618ZM255.999,66.594C256.431,65.827 256.394,65.71 255.731,65.712C254.755,65.717 254.583,65.948 255.079,66.583C255.315,66.884 255.549,67.134 255.598,67.138C255.647,67.143 255.827,66.899 255.999,66.594ZM261.124,69.574C261.469,69.156 261.224,69.077 260.855,69.488C260.677,69.686 260.614,69.849 260.715,69.849C260.816,69.849 261,69.726 261.124,69.574ZM252.835,65.35C252.897,65.251 252.822,65.171 252.669,65.171C252.516,65.171 252.391,65.251 252.391,65.35C252.391,65.449 252.466,65.531 252.558,65.531C252.65,65.531 252.775,65.449 252.835,65.35ZM259.873,63.191C259.873,63.092 259.788,63.01 259.685,63.01C259.581,63.01 259.546,63.092 259.607,63.191C259.667,63.29 259.752,63.371 259.795,63.371C259.839,63.371 259.873,63.29 259.873,63.191ZM251.894,65.342C252.01,65.025 251.983,65.006 251.664,65.178C251.464,65.285 251.257,65.491 251.204,65.632C251.149,65.774 251.02,65.89 250.916,65.89C250.684,65.89 250.074,66.429 250.074,66.634C250.074,66.904 251.76,65.707 251.894,65.342ZM259.161,64.091C259.161,63.991 259.126,63.91 259.082,63.91C259.04,63.91 258.955,63.991 258.894,64.091C258.834,64.19 258.869,64.271 258.973,64.271C259.076,64.271 259.161,64.19 259.161,64.091ZM268.78,63.866C268.781,63.792 268.669,63.731 268.531,63.731C268.365,63.731 268.313,63.856 268.379,64.106C268.452,64.391 268.511,64.424 268.626,64.241C268.709,64.109 268.778,63.94 268.78,63.866ZM260.675,66.25C260.737,66.152 260.701,66.071 260.597,66.071C260.492,66.071 260.408,66.152 260.408,66.25C260.408,66.349 260.443,66.43 260.487,66.43C260.531,66.43 260.615,66.349 260.675,66.25ZM259.161,74.798C259.161,74.656 259.262,74.577 259.383,74.623C259.7,74.74 260.121,74.429 259.973,74.186C259.884,74.04 259.716,74.055 259.371,74.243C259.109,74.385 258.745,74.549 258.562,74.608C258.308,74.688 258.277,74.77 258.427,74.952C258.535,75.085 258.563,75.257 258.491,75.335C258.419,75.414 258.54,75.384 258.76,75.266C258.981,75.151 259.161,74.94 259.161,74.798ZM254.852,61.342C255.243,60.621 255.891,59.71 256.294,59.316C256.695,58.924 257.023,58.469 257.023,58.306C257.023,58.145 257.171,57.828 257.351,57.604L257.678,57.195L261.404,59.14C263.453,60.209 265.682,61.4 266.357,61.783C267.032,62.167 267.624,62.44 267.675,62.39C267.784,62.279 267.368,61.751 267.17,61.751C266.768,61.751 257.902,57.16 257.701,56.847C257.607,56.7 257.512,56.685 257.424,56.806C256.775,57.702 254.341,61.425 254.109,61.878C253.773,62.538 253.753,62.651 253.979,62.651C254.067,62.651 254.46,62.061 254.852,61.342ZM254.528,63.731C254.528,63.632 254.448,63.551 254.351,63.551C254.253,63.551 254.172,63.447 254.172,63.319C254.172,63.031 253.511,62.962 253.344,63.234C253.269,63.358 253.324,63.393 253.492,63.327C253.644,63.268 253.867,63.371 254.006,63.567C254.27,63.939 254.528,64.019 254.528,63.731ZM262.189,65.26C262.189,65.112 262.11,64.99 262.012,64.99C261.914,64.99 261.833,65.112 261.833,65.26C261.833,65.409 261.914,65.531 262.012,65.531C262.11,65.531 262.189,65.409 262.189,65.26ZM260.953,67.426C261.046,67.484 261.121,67.436 261.121,67.322C261.121,67.205 260.997,67.159 260.839,67.221C260.683,67.28 260.486,67.33 260.4,67.33C260.312,67.33 260.29,67.461 260.351,67.619C260.451,67.885 260.475,67.884 260.623,67.615C260.713,67.454 260.862,67.369 260.953,67.426ZM261.833,64.631C261.833,64.532 261.798,64.45 261.756,64.45C261.712,64.45 261.627,64.532 261.566,64.631C261.506,64.73 261.541,64.81 261.645,64.81C261.749,64.81 261.833,64.73 261.833,64.631ZM247.829,69.099C247.742,68.956 247.798,68.927 248.005,69.007C248.188,69.077 248.267,69.054 248.203,68.948C248.143,68.848 248.305,68.687 248.564,68.588C249.087,68.387 249.076,67.986 248.546,67.911C248.152,67.856 247.046,68.492 247.046,68.773C247.046,68.876 247.226,69.034 247.447,69.124C247.979,69.34 247.976,69.34 247.829,69.099ZM253.994,64.091C253.994,63.991 253.958,63.91 253.916,63.91C253.872,63.91 253.788,63.991 253.726,64.091C253.666,64.19 253.702,64.271 253.805,64.271C253.909,64.271 253.994,64.19 253.994,64.091ZM253.46,64.271C253.46,64.172 253.374,64.091 253.271,64.091C253.167,64.091 253.131,64.172 253.193,64.271C253.253,64.369 253.337,64.45 253.381,64.45C253.425,64.45 253.46,64.369 253.46,64.271ZM253.281,69.31C253.281,69.211 253.201,69.129 253.103,69.129C253.006,69.129 252.925,69.211 252.925,69.31C252.925,69.408 253.006,69.489 253.103,69.489C253.201,69.489 253.281,69.408 253.281,69.31ZM262.189,67.87C262.189,67.771 262.065,67.69 261.912,67.69C261.76,67.69 261.683,67.771 261.745,67.87C261.805,67.969 261.93,68.049 262.022,68.049C262.114,68.049 262.189,67.969 262.189,67.87ZM265.211,66.408C266.525,64.576 266.904,63.907 266.484,64.169C266.395,64.224 265.768,65.101 265.088,66.115C263.664,68.242 263.562,68.41 263.686,68.41C263.736,68.41 264.423,67.509 265.211,66.408ZM250.882,70.488C251.222,70.345 251.5,70.133 251.5,70.017C251.5,69.857 251.437,69.857 251.243,70.02C251.061,70.172 250.889,70.181 250.643,70.047C250.374,69.902 250.233,69.933 250.007,70.185C249.497,70.753 249.912,70.897 250.882,70.488ZM251.678,66.25C251.678,66.152 251.643,66.071 251.599,66.071C251.556,66.071 251.471,66.152 251.411,66.25C251.35,66.349 251.385,66.43 251.489,66.43C251.593,66.43 251.678,66.349 251.678,66.25ZM263.609,69.861C263.71,69.67 263.877,69.289 263.981,69.015C264.167,68.519 264.166,68.518 263.798,68.855C263.594,69.041 263.459,69.28 263.499,69.386C263.537,69.492 263.446,69.721 263.297,69.894C263.133,70.083 263.105,70.208 263.225,70.208C263.335,70.208 263.508,70.053 263.609,69.861ZM255.633,74.394C255.94,74.036 256.183,73.216 255.937,73.369C255.849,73.426 255.775,73.568 255.775,73.686C255.775,73.806 255.616,74.004 255.419,74.127C255.06,74.354 254.935,74.71 255.213,74.71C255.296,74.71 255.486,74.568 255.633,74.394ZM262.502,65.605C262.331,65.434 261.992,65.711 262.118,65.919C262.194,66.042 262.293,66.039 262.421,65.908C262.526,65.803 262.562,65.666 262.502,65.605ZM262.724,66.97C262.724,66.871 262.644,66.79 262.547,66.79C262.449,66.79 262.368,66.871 262.368,66.97C262.368,67.07 262.449,67.149 262.547,67.149C262.644,67.149 262.724,67.07 262.724,66.97ZM262.724,66.43C262.724,66.331 262.644,66.25 262.547,66.25C262.449,66.25 262.368,66.331 262.368,66.43C262.368,66.529 262.449,66.611 262.547,66.611C262.644,66.611 262.724,66.529 262.724,66.43ZM262.547,67.6C262.547,67.451 262.469,67.33 262.374,67.33C262.278,67.33 262.247,67.451 262.304,67.6C262.36,67.749 262.438,67.87 262.476,67.87C262.514,67.87 262.547,67.749 262.547,67.6ZM251.704,67.24C251.704,67.145 251.619,67.041 251.513,67.005C251.407,66.969 251.321,67.075 251.321,67.24C251.321,67.404 251.407,67.51 251.513,67.476C251.619,67.44 251.704,67.334 251.704,67.24ZM259.782,68.045C259.733,67.965 259.794,67.865 259.917,67.819C260.039,67.775 260.087,67.681 260.022,67.61C259.854,67.425 259.124,68.205 259.259,68.425C259.333,68.544 259.457,68.536 259.621,68.398C259.757,68.283 259.829,68.124 259.782,68.045ZM267.122,63.158C267.065,63.013 267.023,63.056 267.014,63.265C267.006,63.455 267.049,63.562 267.109,63.502C267.167,63.442 267.174,63.287 267.122,63.158ZM258.992,72.505C261.678,70.697 262.39,69.991 260.007,71.497C256.673,73.602 256.31,73.849 256.31,74.006C256.31,74.095 256.356,74.17 256.414,74.17C256.469,74.17 257.63,73.42 258.992,72.505ZM257.105,70.104C257.476,69.532 257.386,69.42 256.681,69.576C255.984,69.732 255.831,69.986 256.248,70.306C256.699,70.651 256.76,70.637 257.105,70.104ZM253.46,77.858C253.46,77.709 253.339,77.588 253.193,77.588C253.045,77.588 252.925,77.709 252.925,77.858C252.925,78.006 253.045,78.128 253.193,78.128C253.339,78.128 253.46,78.006 253.46,77.858ZM234.17,78.019C234.11,77.959 233.957,77.953 233.827,78.004C233.685,78.062 233.728,78.105 233.935,78.113C234.123,78.121 234.228,78.079 234.17,78.019ZM261.389,76.586C261.389,76.031 260.899,75.761 260.543,76.121C260.319,76.347 260.846,76.95 261.12,76.779C261.218,76.717 261.299,76.746 261.299,76.843C261.299,76.939 261.217,77.059 261.116,77.11C261.016,77.16 261.037,77.18 261.161,77.155C261.286,77.129 261.389,76.873 261.389,76.586ZM251.792,75.315C252.404,75.021 253.137,73.989 252.734,73.989C252.252,73.989 251.284,74.62 251.041,75.093C250.732,75.698 250.894,75.745 251.792,75.315ZM263.271,76.715L263.68,76.38L263.017,76.421C262.653,76.443 262.299,76.526 262.228,76.604C262.158,76.683 262.214,76.68 262.353,76.599C262.543,76.487 262.578,76.526 262.494,76.749C262.338,77.155 262.756,77.138 263.271,76.715ZM242.521,74.244C242.462,74.088 242.413,73.889 242.413,73.803C242.413,73.54 241.13,73.384 240.608,73.583C240.228,73.729 240.098,73.714 240.025,73.519C239.876,73.128 238.722,73.198 238.502,73.612C238.336,73.927 238.377,73.946 239.026,73.858C239.491,73.796 239.947,73.866 240.37,74.07C240.823,74.287 241.229,74.343 241.756,74.262C242.3,74.179 242.43,74.199 242.234,74.336C242.007,74.496 242.016,74.524 242.299,74.526C242.528,74.528 242.596,74.441 242.521,74.244ZM251.62,76.688C251.773,76.688 252.212,76.064 252.212,75.846C252.212,75.623 252.081,75.593 251.548,75.695C250.537,75.886 250.288,76.074 250.383,76.574C250.458,76.974 250.516,76.998 251.026,76.851C251.335,76.761 251.601,76.688 251.62,76.688ZM263.037,77.303C262.866,77.132 262.526,77.41 262.652,77.617C262.728,77.74 262.828,77.737 262.955,77.607C263.06,77.501 263.097,77.365 263.037,77.303ZM253.816,76.403C253.816,76.086 253.433,76.141 253.322,76.475C253.283,76.592 253.378,76.688 253.534,76.688C253.689,76.688 253.816,76.56 253.816,76.403ZM236.737,76.155C237.15,75.807 237.152,75.801 236.778,75.794C236.385,75.789 235.108,76.267 235.108,76.421C235.108,76.669 236.37,76.462 236.737,76.155Z"/>
        </g>
        <g id="path1" transform="matrix(0.734225,0,0,0.740872,-438.354,-294.027)">
            <path d="M609.97,528.948C609.912,528.991 610.015,527.001 610.015,527.001L610.081,520.585C610.127,516.06 610.189,514.051 610.29,513.769C610.369,513.549 610.434,512.931 610.434,512.396C610.434,511.737 610.526,511.11 610.72,510.45C611.708,507.089 611.9,506.499 612.17,505.992C612.334,505.683 612.468,505.396 612.468,505.354C612.468,504.858 616.337,500.05 617.246,499.416C618.736,498.378 620.005,497.741 621.802,497.133C622.164,497.01 622.675,496.835 622.939,496.744C623.836,496.434 625.448,496.29 627.904,496.301C629.254,496.307 642.204,496.369 656.683,496.44C671.161,496.511 685.585,496.581 688.735,496.596C691.885,496.611 694.492,496.588 694.528,496.544C694.565,496.501 695.372,496.465 696.323,496.465C698.017,496.465 698.055,496.472 698.283,496.816C698.41,497.009 698.641,497.249 698.796,497.349C698.95,497.45 699.409,497.868 699.816,498.28C700.222,498.692 700.605,498.992 700.666,498.947C700.727,498.902 700.777,498.95 700.777,499.053C700.777,499.157 700.939,499.4 701.136,499.593C701.334,499.787 701.495,499.993 701.495,500.051C701.495,500.108 701.212,500.129 700.867,500.096C699.55,499.97 667.892,499.954 653.93,500.073L639.332,500.196L638.704,500.616C638.319,500.873 638.076,501.133 638.076,501.286C638.076,501.572 637.698,502.018 637.178,502.347C636.632,502.692 636.217,503.155 636.354,503.265C636.42,503.318 636.66,503.532 636.886,503.741C637.112,503.949 637.503,504.165 637.754,504.221L638.209,504.321L637.948,504.652C637.695,504.971 637.629,504.981 636.056,504.943C634.7,504.909 634.345,504.854 633.947,504.614C633.684,504.455 632.742,503.875 631.853,503.323C630.867,502.711 629.963,502.255 629.531,502.151C629.142,502.058 628.598,501.866 628.322,501.726C627.029,501.067 624.664,500.975 623.181,501.524C622.262,501.865 622.084,502 620.651,503.446C619.803,504.302 618.904,505.273 618.653,505.604C618.162,506.251 617.135,507.894 617.135,508.033C617.135,508.079 617.553,508.078 618.065,508.032C618.836,507.961 619.022,507.986 619.156,508.177C619.352,508.458 619.276,508.612 618.03,510.472C616.774,512.348 616.472,512.923 615.577,515.146C614.69,517.347 613.947,519.932 613.555,522.183C613.302,523.63 613.302,523.714 613.323,547.129C613.334,560.051 613.324,567.628 613.299,568.214C613.274,568.801 613.252,570.481 613.25,571.947C613.248,573.413 613.224,574.613 613.198,574.613C613.133,574.614 612.414,573.96 612.204,573.71C612.113,573.602 611.675,573.218 611.231,572.856C609.726,571.632 609.844,571.812 609.84,570.738C609.837,570.19 609.887,569.779 609.956,569.779C610.035,569.779 610.075,565.762 610.075,551.063C610.075,538.295 610.03,528.903 609.97,528.948ZM612.119,571.307C612.124,571.21 612.12,564.759 612.11,552.723C612.098,538.918 612.049,530.707 611.975,530.477C611.911,530.276 611.827,528.733 611.788,527.047C611.725,524.27 611.743,523.837 611.977,522.448C612.754,517.841 614.045,514.533 616.504,510.846C617.049,510.029 617.472,509.331 617.443,509.297C617.349,509.186 616.201,509.699 616.046,509.921C615.93,510.087 615.757,510.114 615.289,510.041C614.955,509.988 614.637,509.895 614.583,509.834C614.444,509.68 614.72,509.198 615.099,508.932C615.273,508.81 615.689,508.179 616.024,507.529C617.061,505.517 618.494,503.815 621.055,501.549C622.041,500.677 622.394,500.445 622.85,500.368C623.162,500.316 623.644,500.157 623.922,500.014C624.293,499.824 624.53,499.787 624.819,499.874C625.035,499.939 625.912,500.028 626.768,500.071C628.479,500.158 629.769,500.517 631.229,501.313C631.671,501.554 632.475,501.938 633.015,502.167L633.997,502.583L634.57,501.945C634.886,501.594 635.475,501.118 635.88,500.887C637.208,500.128 637.042,500.077 634.507,500.457C632.71,500.727 632.234,500.657 631.222,499.971C629.825,499.026 628.913,498.713 627.312,498.631C626.148,498.571 625.915,498.519 625.756,498.286C625.478,497.878 624.934,497.93 623.97,498.458C623.315,498.817 623.076,498.89 622.97,498.764C622.761,498.515 622.179,498.564 621.82,498.86C621.646,499.004 620.91,499.458 620.186,499.869C617.284,501.518 616.38,502.168 615.449,503.276C614.569,504.323 613.242,506.583 612.684,507.983C612.318,508.903 612.109,509.518 612.109,509.678C612.109,509.765 612.062,509.947 612.005,510.083C611.877,510.383 611.578,511.592 611.345,512.747C611.25,513.217 611.078,514.816 610.963,516.302C610.774,518.733 610.768,519.497 610.896,523.91C610.987,527.074 611.039,536.866 611.041,551.479L611.043,570.666L611.388,571.076C611.746,571.501 612.103,571.614 612.119,571.307ZM698.623,498.801C698.623,498.757 698.49,498.514 698.328,498.261L698.032,497.8L663.575,497.77C642.917,497.751 629.091,497.791 629.051,497.868C629.014,497.94 629.183,498.043 629.427,498.097C629.671,498.151 630.023,498.289 630.209,498.404C630.398,498.52 631.035,498.644 631.649,498.684C634.923,498.899 698.623,499.01 698.623,498.801Z"/>
        </g>
    </g>
</svg>
