<?xml version="1.0" encoding="UTF-8" standalone="no"?>
<!DOCTYPE svg PUBLIC "-//W3C//DTD SVG 1.1//EN" "http://www.w3.org/Graphics/SVG/1.1/DTD/svg11.dtd">
<svg width="100%" height="100%" viewBox="0 0 270 85" version="1.1" xmlns="http://www.w3.org/2000/svg" xmlns:xlink="http://www.w3.org/1999/xlink" xml:space="preserve" xmlns:serif="http://www.serif.com/" style="fill-rule:evenodd;clip-rule:evenodd;stroke-linejoin:round;stroke-miterlimit:2;">
    <g id="g1" transform="matrix(1.36416,0,0,1.37785,-11.2551,-99.9231)">
        <path id="path3" d="M179.552,133.556C178.732,133.153 178.552,132.725 179.023,132.298C179.379,131.977 179.361,131.836 178.964,131.836C178.761,131.836 178.638,131.91 178.638,132.032C178.638,132.176 178.492,132.226 178.083,132.221C176.993,132.209 174.998,131.877 174.653,131.651C174.363,131.461 174.204,131.445 173.696,131.553C172.762,131.752 171.399,131.944 169.887,132.089C169.133,132.162 168.193,132.253 167.797,132.292C166.204,132.449 157.073,132.745 153.953,132.741C152.121,132.739 148.801,132.645 146.574,132.534C142.069,132.309 108.211,132.147 58.729,132.114C44.248,132.104 28.249,132.058 23.175,132.01L13.949,131.924L13.398,131.129C13.095,130.692 12.603,130.04 12.306,129.681C11.507,128.717 10.455,127.194 10.679,127.325C10.785,127.387 11.034,127.55 11.231,127.687C11.429,127.823 11.591,127.881 11.591,127.815C11.591,127.599 10.982,127.031 10.464,126.765C9.886,126.467 9.173,125.757 9.064,125.371C8.944,124.943 8.834,96.964 8.953,96.964C9.013,96.964 9.198,96.663 9.365,96.295C9.531,95.927 9.85,95.418 10.074,95.163L10.48,94.7L10.572,90.705C10.623,88.508 10.719,86.241 10.786,85.666C10.977,84.023 11.879,81.805 12.91,80.439L13.418,79.766L13.503,77.528C13.579,75.521 13.566,75.281 13.373,75.207C13.104,75.103 13.092,74.777 13.354,74.677C13.47,74.632 13.55,74.435 13.55,74.191C13.551,73.831 13.619,73.753 14.107,73.552C14.412,73.426 14.9,73.324 15.19,73.324C15.48,73.324 15.788,73.253 15.875,73.167C16.097,72.944 19.528,72.947 20.537,73.171C20.968,73.266 21.644,73.405 22.039,73.479C23.186,73.693 23.481,73.841 23.562,74.243C23.608,74.475 23.787,74.686 24.063,74.834C24.474,75.056 24.526,75.056 25.258,74.834C26.513,74.453 26.687,74.445 26.989,74.747C27.302,75.06 27.786,75.113 27.786,74.835C27.786,74.488 28.196,74.209 28.591,74.288C28.861,74.342 28.961,74.311 28.961,74.173C28.961,73.891 29.665,73.557 29.856,73.748C30.072,73.964 30.042,74.078 29.745,74.172C29.227,74.337 29.5,74.433 30.36,74.389C30.843,74.364 31.472,74.414 31.76,74.5C32.137,74.613 32.296,74.617 32.331,74.513C32.407,74.285 32.727,74.344 32.87,74.612C32.942,74.747 32.974,74.884 32.94,74.917C32.907,74.95 33.111,75.164 33.393,75.391L33.907,75.803L53.59,75.806C67.517,75.808 73.322,75.767 73.442,75.667C73.558,75.571 73.69,75.567 73.856,75.656C74.007,75.737 74.173,75.741 74.289,75.667C74.756,75.372 75.202,75.541 76.201,76.393C76.748,76.86 77.26,77.245 77.339,77.249C77.418,77.253 77.614,77.423 77.775,77.627L78.067,77.998L69.742,77.929C65.164,77.891 55.61,77.904 48.512,77.959C37.633,78.042 35.618,78.086 35.676,78.237C35.714,78.336 35.693,78.417 35.631,78.417C35.568,78.417 35.424,78.689 35.311,79.021C35.081,79.695 34.267,80.768 33.986,80.768C33.885,80.768 33.733,80.899 33.648,81.058C33.509,81.319 33.544,81.388 33.996,81.744C34.273,81.961 34.782,82.419 35.126,82.76C35.675,83.302 35.753,83.447 35.753,83.923C35.753,84.686 34.893,85.815 34.215,85.943C33.785,86.023 33.713,85.988 33.282,85.487C32.736,84.853 32.226,84.665 31.08,84.68C30.228,84.69 29.672,84.496 29.126,83.997C28.852,83.746 28.818,83.743 28.593,83.947C28.26,84.249 28.066,84.219 27.893,83.837C27.811,83.658 27.706,83.511 27.659,83.511C27.526,83.511 27.002,84.264 27.002,84.456C27.002,84.551 26.901,84.773 26.777,84.95C26.613,85.185 26.562,85.476 26.59,86.033C26.616,86.563 26.564,86.893 26.42,87.113C26.168,87.497 25.874,87.522 25.762,87.168C25.716,87.024 25.638,86.909 25.589,86.912C25.54,86.916 25.265,87.282 24.978,87.727C24.691,88.172 24.176,88.907 23.835,89.361C23.494,89.815 23.215,90.291 23.215,90.42C23.215,90.741 22.804,91.086 22.421,91.087C22.247,91.087 21.931,91.178 21.72,91.288C21.032,91.647 19.427,91.136 19.427,90.558C19.427,90.413 19.559,90.237 19.725,90.161C19.889,90.087 20.192,89.725 20.398,89.359C20.721,88.783 20.738,88.706 20.524,88.79C19.43,89.222 18.405,89.352 16.815,89.261C15.782,89.201 14.997,89.087 14.677,88.951C14.398,88.832 14.119,88.735 14.056,88.735C13.993,88.735 13.942,89.098 13.942,89.541C13.942,90.118 14.005,90.417 14.165,90.594C14.441,90.899 14.247,91.287 13.826,91.272C13.674,91.266 13.55,91.31 13.55,91.37C13.55,91.429 13.49,91.478 13.417,91.478C13.338,91.478 13.319,91.332 13.37,91.119C13.417,90.921 13.412,90.801 13.357,90.851C13.303,90.901 13.18,91.312 13.083,91.765C12.942,92.424 12.9,95.721 12.873,108.261C12.854,116.881 12.839,124.473 12.84,125.133L12.841,126.331L12.51,126.076C12.327,125.935 11.844,125.587 11.435,125.302C11.027,125.017 10.655,124.723 10.608,124.648C10.562,124.573 10.531,118.078 10.54,110.215C10.549,102.352 10.525,95.919 10.487,95.919C10.448,95.919 10.237,96.286 10.017,96.735L9.617,97.551L9.475,124.587L9.887,125.334C10.235,125.964 10.369,126.093 10.75,126.165C10.999,126.211 11.233,126.3 11.271,126.361C11.309,126.423 11.761,126.598 12.276,126.752C12.79,126.905 13.417,127.17 13.667,127.34L14.123,127.65L75.059,127.651C110.46,127.651 136.466,127.602 137.119,127.533C137.814,127.46 138.612,127.463 139.209,127.541C146.039,128.43 149.993,128.769 158.916,129.23C163.066,129.444 170.563,129.46 172.107,129.258C173.581,129.065 174.488,128.903 175.111,128.72C175.363,128.647 175.833,128.518 176.156,128.433C176.48,128.349 176.983,128.169 177.275,128.034C177.567,127.898 177.874,127.787 177.958,127.787C178.041,127.787 178.302,127.67 178.537,127.527C178.984,127.254 179.421,127.182 179.421,127.382C179.421,127.446 179.23,127.667 178.996,127.873C178.65,128.176 178.583,128.317 178.637,128.623C178.74,129.208 179.087,129.353 179.45,128.962C179.614,128.786 179.734,128.598 179.717,128.545C179.699,128.492 179.802,128.386 179.945,128.309C180.088,128.233 180.205,128.105 180.205,128.026C180.205,127.946 180.308,127.797 180.434,127.694C180.566,127.586 180.58,127.549 180.466,127.607C180.298,127.693 180.295,127.676 180.45,127.486C180.548,127.364 180.71,127.265 180.809,127.265C180.908,127.265 180.989,127.147 180.989,127.002C180.989,126.679 181.696,126.221 182.197,126.221C182.405,126.22 182.556,126.148 182.556,126.049C182.556,125.619 182.927,125.376 183.686,125.308C184.206,125.261 184.439,125.186 184.416,125.074C184.395,124.971 184.634,125.036 185.05,125.247C185.416,125.433 185.726,125.566 185.738,125.543C185.749,125.52 185.857,125.384 185.976,125.241C186.181,124.995 186.175,124.907 185.887,123.804C185.519,122.398 185.527,122.383 186.931,121.914C188.356,121.438 189.949,120.766 191.336,120.057C192.757,119.33 192.894,119.182 194.304,116.834C194.987,115.697 196.461,113.498 196.795,113.117C196.911,112.986 200.305,114.67 201.559,115.481C202.527,116.107 204.186,116.947 204.455,116.947C204.543,116.947 204.824,117.262 205.079,117.646C205.596,118.426 205.666,118.971 205.347,119.735C205.224,120.029 205.15,120.631 205.149,121.351C205.147,122.448 205.041,122.89 204.778,122.89C204.712,122.89 204.357,123.143 203.99,123.452C203.526,123.843 203.323,124.112 203.323,124.331C203.323,124.751 202.753,125.146 202.478,124.917C202.325,124.791 202.211,124.813 201.908,125.029C201.57,125.269 201.518,125.402 201.437,126.231C201.354,127.066 201.373,127.193 201.615,127.451C201.957,127.815 201.96,128.202 201.623,128.507C201.395,128.713 201.371,128.849 201.44,129.539C201.516,130.301 201.503,130.35 201.122,130.711C200.763,131.052 200.661,131.081 200.041,131.021C199.612,130.98 199.195,131.022 198.927,131.135C198.691,131.233 198.327,131.314 198.117,131.314C197.884,131.314 197.703,131.397 197.653,131.526C197.585,131.702 197.464,131.722 196.953,131.639C196.13,131.507 195.113,131.528 194.922,131.682C194.837,131.751 194.458,131.849 194.079,131.9C193.548,131.971 193.316,131.944 193.07,131.783C192.761,131.581 192.733,131.59 192.278,132.032C192.018,132.284 191.667,132.525 191.498,132.567C191.164,132.651 190.372,132.433 189.903,132.128C189.709,132.002 189.465,131.966 189.185,132.023C188.118,132.24 187.871,132.251 187.57,132.09C187.305,131.948 187.099,131.956 186.309,132.141C185.789,132.263 185.206,132.361 185.012,132.36C184.819,132.359 184.45,132.483 184.192,132.635C183.592,132.989 182.143,133.129 181.807,132.866C181.601,132.704 181.594,132.708 181.744,132.9C181.883,133.077 181.876,133.151 181.702,133.324C181.587,133.44 181.357,133.534 181.191,133.534C181.026,133.534 180.817,133.622 180.728,133.73C180.512,133.989 180.399,133.972 179.552,133.556ZM180.435,132.947C180.717,132.866 181.119,132.283 181.119,131.956C181.119,131.735 180.329,131.886 179.612,132.244C179.289,132.406 179.045,132.6 179.07,132.677C179.136,132.876 179.713,133.145 179.944,133.084C180.052,133.055 180.273,132.994 180.435,132.947ZM183.37,132.091C183.809,131.969 183.842,131.93 183.7,131.704C183.469,131.333 182.687,131.263 182.687,131.612C182.687,131.688 182.589,131.857 182.471,131.989C182.267,132.214 182.272,132.228 182.568,132.227C182.741,132.226 183.102,132.165 183.37,132.091ZM191.421,132.015C191.925,131.915 191.955,131.712 191.47,131.686L191.111,131.666L191.452,131.613C191.925,131.54 192.515,130.898 192.461,130.515C192.43,130.3 192.291,130.176 191.983,130.088C191.651,129.993 191.564,129.907 191.612,129.723C191.682,129.455 191.375,129.23 190.989,129.266C190.856,129.279 190.722,129.217 190.691,129.129C190.649,129.011 190.869,128.977 191.526,128.998C192.244,129.022 192.417,128.989 192.417,128.832C192.417,128.674 192.21,128.635 191.352,128.632L190.288,128.628L190.36,129.089C190.4,129.343 190.511,129.597 190.608,129.655C190.705,129.712 190.784,129.841 190.784,129.941C190.784,130.041 190.904,130.207 191.05,130.309C191.312,130.493 191.312,130.496 190.989,130.708C190.681,130.91 190.655,130.907 190.521,130.657C190.328,130.296 190.131,130.454 190.131,130.969C190.131,131.45 190.323,131.698 190.713,131.72C190.935,131.733 190.942,131.746 190.75,131.796C190.624,131.829 190.554,131.91 190.595,131.976C190.682,132.118 190.864,132.127 191.421,132.015ZM182.354,131.851C182.326,131.824 182.366,131.685 182.442,131.543C182.534,131.372 182.537,131.242 182.45,131.155C182.287,130.992 181.358,131.139 181.034,131.38C180.8,131.553 180.8,131.564 181.041,131.742C181.248,131.896 182.503,132 182.354,131.851ZM185.429,131.836C185.17,131.668 184.608,131.668 184.711,131.836C184.756,131.908 184.979,131.965 185.209,131.964C185.526,131.963 185.579,131.932 185.429,131.836ZM177.428,131.052C177.698,130.765 178.008,130.532 178.115,130.534C178.264,130.537 178.253,130.572 178.072,130.677C177.843,130.81 177.845,130.825 178.112,131.012C178.34,131.172 178.461,131.179 178.767,131.053C179.15,130.894 179.392,130.559 179.117,130.566C179.033,130.568 178.817,130.557 178.638,130.542C178.321,130.514 178.319,130.51 178.592,130.4C178.904,130.274 179.421,130.365 179.421,130.545C179.421,130.692 179.824,130.691 180.057,130.543C180.201,130.452 180.18,130.374 179.951,130.145C179.729,129.923 179.573,129.878 179.25,129.941C178.984,129.993 178.896,129.98 179.005,129.904C179.375,129.648 178.124,129.111 177.675,129.334C177.056,129.643 176.308,129.92 175.503,130.141C174.856,130.319 174.713,130.398 174.903,130.473C175.039,130.528 175.377,130.512 175.654,130.439C176.151,130.306 176.156,130.309 176.156,130.678C176.156,131.04 176.545,131.574 176.808,131.574C176.879,131.574 177.158,131.339 177.428,131.052ZM179.658,130.44C179.753,130.403 179.865,130.407 179.909,130.451C179.952,130.494 179.875,130.525 179.737,130.519C179.585,130.513 179.554,130.482 179.658,130.44ZM180.297,131.326C180.51,130.985 181.64,130.633 182.633,130.598C183.548,130.565 184.054,130.319 184.086,129.893C184.101,129.696 184.032,129.615 183.846,129.615C183.703,129.615 183.622,129.557 183.666,129.485C183.796,129.275 182.589,129.33 182.158,129.554C181.724,129.778 181.661,130.06 182.001,130.258C182.127,130.331 182.168,130.393 182.092,130.395C182.017,130.397 181.889,130.333 181.808,130.252C181.611,130.055 180.881,130.308 180.634,130.661C180.499,130.854 180.303,130.922 179.879,130.922C179.564,130.922 179.264,130.99 179.212,131.074C179.15,131.175 179.187,131.2 179.322,131.149C179.455,131.098 179.549,131.158 179.592,131.322C179.677,131.646 180.096,131.648 180.297,131.326ZM182.523,130.443C182.613,130.407 182.76,130.407 182.85,130.443C182.94,130.479 182.866,130.509 182.687,130.509C182.507,130.509 182.434,130.479 182.523,130.443ZM183.362,130.271C183.554,130.213 183.789,130.126 183.885,130.077C183.98,130.028 183.944,130.081 183.805,130.193C183.665,130.307 183.43,130.394 183.282,130.388C183.066,130.379 183.082,130.356 183.362,130.271ZM184.45,131.444C184.494,131.372 184.406,131.313 184.254,131.313C184.102,131.313 184.014,131.372 184.058,131.444C184.102,131.516 184.191,131.575 184.254,131.575C184.317,131.575 184.405,131.516 184.45,131.444ZM193.527,131.387C193.527,131.191 193.042,130.972 192.906,131.107C192.826,131.187 193.251,131.563 193.429,131.57C193.483,131.572 193.527,131.49 193.527,131.387ZM194.785,131.286C195.098,130.779 194.777,130.139 194.4,130.521C194.281,130.642 194.299,130.717 194.478,130.85C194.685,131.002 194.688,131.03 194.502,131.101C194.388,131.145 194.331,131.24 194.376,131.312C194.485,131.49 194.666,131.478 194.785,131.286ZM183.209,131.117C183.348,130.95 183.312,130.921 182.964,130.921C182.575,130.921 182.454,131.037 182.643,131.226C182.789,131.372 183.038,131.324 183.209,131.117ZM187.23,131.005C187.429,130.807 187.421,130.791 187.123,130.787C186.946,130.785 186.687,130.696 186.547,130.591C186.237,130.356 185.899,130.339 185.991,130.562C186.027,130.652 186.097,130.824 186.145,130.944C186.209,131.103 186.15,131.18 185.929,131.23C185.762,131.267 185.938,131.28 186.321,131.258C186.747,131.234 187.099,131.136 187.23,131.005ZM189.74,131.117C189.627,130.982 189.622,130.921 189.724,130.921C189.804,130.921 189.87,130.808 189.87,130.67C189.87,130.531 189.957,130.331 190.062,130.225C190.231,130.057 190.231,130.014 190.064,129.875C189.91,129.747 189.858,129.763 189.791,129.96C189.745,130.094 189.553,130.335 189.365,130.496C189.126,130.701 189.081,130.794 189.218,130.803C189.325,130.81 189.267,130.864 189.087,130.922L188.76,131.026L189.087,131.041C189.267,131.049 189.502,131.113 189.609,131.183C189.888,131.363 189.927,131.343 189.74,131.117ZM194.156,131.018C194.18,130.889 194.12,130.791 194.015,130.791C193.882,130.791 193.831,130.625 193.835,130.203C193.838,129.88 193.887,129.615 193.945,129.615C194.002,129.615 194.05,129.557 194.05,129.485C194.05,129.413 193.932,129.354 193.788,129.354C193.543,129.354 193.471,129.536 193.492,130.105C193.495,130.195 193.446,130.268 193.382,130.268C193.318,130.268 193.266,130.21 193.266,130.138C193.266,130.066 193.09,130.007 192.874,130.007C192.659,130.007 192.484,130.051 192.486,130.105C192.497,130.343 192.874,130.677 193.092,130.641C193.427,130.586 193.658,130.76 193.658,131.069C193.658,131.398 194.091,131.353 194.156,131.018ZM171.781,131.052C171.737,130.98 171.531,130.921 171.324,130.921C171.117,130.921 170.911,130.98 170.867,131.052C170.818,131.131 170.999,131.183 171.324,131.183C171.649,131.183 171.83,131.131 171.781,131.052ZM184.091,131.036C184.073,130.955 184.14,130.859 184.24,130.823C184.351,130.783 184.386,130.814 184.33,130.905C184.182,131.144 184.456,131.073 184.694,130.81C184.968,130.507 184.843,130.137 184.469,130.14C184.267,130.141 184.237,130.173 184.362,130.251C184.591,130.397 184.247,130.754 183.755,130.881L183.405,130.971L183.731,131.064C183.911,131.115 184.073,131.163 184.091,131.17C184.109,131.177 184.109,131.117 184.091,131.036ZM184.385,130.742C184.385,130.715 184.487,130.612 184.613,130.513C184.82,130.351 184.825,130.355 184.662,130.562C184.492,130.78 184.385,130.849 184.385,130.742ZM197.445,130.856C197.445,130.546 196.955,130.138 196.582,130.138C196.326,130.138 196.261,130.189 196.321,130.344C196.365,130.458 196.401,130.664 196.401,130.802C196.401,131.007 196.495,131.052 196.923,131.052C197.3,131.052 197.445,130.998 197.445,130.856ZM173.373,130.776C173.212,130.683 172.981,130.68 172.654,130.766C172.175,130.894 172.176,130.894 172.891,130.904C173.454,130.912 173.558,130.883 173.373,130.775L173.373,130.776ZM188.042,130.791C188.042,130.719 188.13,130.66 188.238,130.66C188.345,130.66 188.433,130.602 188.433,130.53C188.433,130.458 188.262,130.399 188.052,130.399C187.843,130.399 187.571,130.361 187.449,130.314C187.289,130.252 187.314,130.322 187.536,130.561C187.87,130.92 188.042,130.998 188.042,130.791ZM196.16,130.595C196.113,130.32 195.774,129.877 195.611,129.877C195.427,129.877 195.343,130.553 195.502,130.744C195.736,131.027 196.215,130.918 196.16,130.595ZM198.302,130.827C198.09,130.773 198.119,130.733 198.475,130.583C199.078,130.329 198.987,129.956 198.309,129.9C198.03,129.878 197.74,129.922 197.663,129.998C197.449,130.213 197.261,130.164 197.445,129.942C197.576,129.784 197.573,129.746 197.429,129.748C197.33,129.749 197.166,129.803 197.063,129.868C196.766,130.056 197.845,130.913 198.36,130.897C198.467,130.894 198.441,130.862 198.302,130.827ZM145.564,130.554C145.593,130.468 145.496,130.399 145.344,130.399C145.072,130.399 144.991,130.536 145.161,130.707C145.282,130.828 145.501,130.745 145.564,130.554ZM174.582,130.662C174.71,130.661 174.729,130.617 174.64,130.528C174.476,130.364 173.649,130.514 173.757,130.688C173.8,130.757 173.96,130.78 174.114,130.739C174.267,130.698 174.478,130.663 174.582,130.662ZM142.959,130.356C142.987,130.209 142.913,130.138 142.73,130.138C142.581,130.138 142.46,130.216 142.46,130.312C142.46,130.712 142.883,130.749 142.959,130.356ZM144.386,130.432C144.418,130.336 144.328,130.268 144.168,130.268C144.008,130.268 143.896,130.353 143.896,130.474C143.896,130.714 144.304,130.679 144.386,130.432ZM166.062,130.475C165.883,130.339 164.942,130.28 162.078,130.222C160.016,130.181 157.829,130.117 157.218,130.08C152.896,129.816 151.456,129.723 150.884,129.67C150.525,129.638 149.525,129.553 148.663,129.482C147.801,129.411 146.597,129.299 145.986,129.235C145.375,129.17 144.229,129.054 143.439,128.977C142.649,128.9 141.797,128.808 141.545,128.771C141.294,128.734 140.677,128.669 140.174,128.626C139.671,128.584 139.171,128.516 139.064,128.477C138.542,128.285 129.296,128.258 75.262,128.292C35.909,128.316 16.545,128.284 15.574,128.192C14.784,128.118 13.814,127.965 13.419,127.852C13.024,127.738 12.501,127.594 12.257,127.53L11.814,127.414L12.486,128.094C12.856,128.469 13.158,128.846 13.158,128.934C13.158,129.038 13.383,129.093 13.802,129.093C14.157,129.093 14.594,129.149 14.773,129.217C14.976,129.294 15.115,129.295 15.141,129.218C15.197,129.051 139.832,129.062 141.153,129.23C141.692,129.298 142.427,129.384 142.786,129.42C143.145,129.457 143.821,129.544 144.288,129.614C144.755,129.685 145.901,129.806 146.835,129.885C147.769,129.963 149.091,130.078 149.774,130.14C150.456,130.202 152.102,130.317 153.431,130.396C154.759,130.474 155.964,130.558 156.108,130.581C156.252,130.605 158.603,130.63 161.332,130.638C165.539,130.65 166.26,130.625 166.062,130.474L166.062,130.475ZM189.347,130.334C189.516,130.155 189.619,129.974 189.577,129.932C189.474,129.828 188.865,130.238 188.775,130.472C188.659,130.775 189.014,130.689 189.347,130.334ZM200.712,130.105C200.973,129.677 201.062,129.093 200.866,129.093C200.724,129.093 200.125,129.742 199.947,130.088C199.641,130.685 200.349,130.701 200.712,130.105ZM141.806,130.203C141.806,130.095 141.691,130.007 141.549,130.007C141.374,130.007 141.316,130.07 141.367,130.203C141.409,130.311 141.524,130.399 141.625,130.399C141.725,130.399 141.806,130.311 141.806,130.203ZM139.39,130.138C139.278,129.957 14.464,129.957 14.464,130.138C14.464,130.225 35.386,130.269 76.967,130.269C118.603,130.269 139.444,130.225 139.39,130.138ZM186.997,130.138C186.997,130.066 186.876,130.007 186.728,130.007C186.58,130.007 186.495,130.066 186.54,130.138C186.584,130.21 186.705,130.269 186.809,130.269C186.912,130.269 186.997,130.21 186.997,130.138ZM194.906,130.127C194.954,130.048 194.929,129.921 194.851,129.842C194.75,129.742 194.749,129.651 194.847,129.533C195.01,129.336 194.894,129.093 194.637,129.093C194.374,129.093 194.265,129.338 194.436,129.544C194.538,129.667 194.541,129.749 194.447,129.807C194.372,129.854 194.31,129.977 194.31,130.08C194.31,130.299 194.776,130.336 194.905,130.126L194.906,130.127ZM140.827,130.007C140.871,129.935 140.783,129.877 140.631,129.877C140.479,129.877 140.391,129.935 140.435,130.007C140.479,130.079 140.568,130.138 140.631,130.138C140.694,130.138 140.783,130.079 140.827,130.007ZM185.495,130.006C185.54,129.934 185.48,129.838 185.361,129.792C185.243,129.747 185.096,129.586 185.035,129.434C184.94,129.199 184.922,129.193 184.915,129.396C184.898,129.899 185.3,130.323 185.495,130.006ZM181.772,129.635C182.306,129.284 182.823,129.093 183.235,129.093C183.8,129.093 183.626,128.776 183.033,128.726C182.767,128.703 182.36,128.779 182.129,128.895C181.727,129.094 181.718,129.093 181.935,128.876C182.091,128.718 182.374,128.645 182.843,128.641C183.441,128.636 183.544,128.676 183.688,128.962C183.935,129.452 184.562,129.447 184.915,128.951C185.064,128.742 185.263,128.571 185.357,128.571C185.451,128.571 185.599,128.485 185.686,128.38C185.856,128.176 185.702,128.109 184.842,128.009C184.482,127.968 184.495,127.955 185.008,127.858C185.315,127.8 185.603,127.692 185.648,127.619C185.699,127.537 185.665,127.526 185.56,127.591C185.444,127.663 185.42,127.646 185.488,127.537C185.542,127.449 185.659,127.405 185.747,127.439C185.836,127.473 185.911,127.433 185.913,127.35C185.916,127.267 185.941,127.111 185.968,127.003C186.007,126.848 185.875,126.806 185.335,126.802C184.96,126.799 184.725,126.842 184.813,126.898C184.93,126.973 184.92,127.004 184.776,127.017C184.669,127.027 184.544,127.03 184.5,127.025C184.456,127.02 184.42,127.115 184.42,127.238C184.421,127.74 184.383,127.804 184.13,127.724C183.802,127.62 182.94,127.852 182.54,128.152C182.197,128.41 181.511,128.731 181.511,128.634C181.511,128.6 181.727,128.469 181.992,128.343C182.256,128.217 182.498,128.034 182.529,127.937C182.572,127.806 182.505,127.815 182.263,127.973C182.084,128.09 181.83,128.149 181.693,128.104C181.513,128.046 181.494,128.058 181.62,128.148C181.739,128.233 181.593,128.264 181.163,128.244C180.81,128.227 180.741,128.239 181.007,128.269C181.408,128.314 181.472,128.364 181.415,128.585C181.375,128.738 181.273,128.818 181.169,128.779C180.851,128.657 181.045,129.022 181.381,129.177C181.688,129.319 181.677,129.327 181.185,129.313C179.977,129.278 179.291,129.355 179.291,129.525C179.291,129.973 181.134,130.054 181.772,129.635ZM179.797,129.648C179.631,129.437 179.637,129.434 179.879,129.611C180.022,129.716 180.164,129.819 180.194,129.84C180.224,129.86 180.187,129.877 180.112,129.877C180.037,129.877 179.895,129.774 179.797,129.648ZM184.178,128.718C184.387,128.673 184.583,128.562 184.613,128.473C184.668,128.309 184.429,128.271 183.47,128.294C183.096,128.303 183.06,128.283 183.274,128.185C183.917,127.893 184.641,128.089 184.819,128.603C184.887,128.799 184.819,128.83 184.348,128.816C183.863,128.803 183.843,128.791 184.178,128.718ZM182.662,128.351C182.756,128.313 182.869,128.318 182.913,128.361C182.956,128.404 182.879,128.435 182.741,128.43C182.589,128.424 182.558,128.392 182.662,128.351ZM199.568,129.825C199.834,129.624 199.869,129.361 199.633,129.339C198.994,129.28 198.529,129.543 198.766,129.829C198.951,130.052 199.271,130.051 199.568,129.826L199.568,129.825ZM187.051,129.574C187.261,129.421 187.209,129.384 186.565,129.23C186.168,129.134 185.744,129.095 185.623,129.141C185.429,129.216 185.439,129.256 185.71,129.481C186.066,129.778 186.712,129.822 187.051,129.574ZM189.416,129.404C189.681,129.669 189.87,129.675 189.87,129.419C189.87,129.312 189.776,129.224 189.662,129.224C189.547,129.224 189.423,129.106 189.386,128.962C189.311,128.679 188.957,128.598 188.954,128.864C188.953,128.954 188.919,129.175 188.879,129.354C188.81,129.664 188.816,129.668 189.005,129.436C189.188,129.211 189.22,129.208 189.416,129.404ZM192.941,129.483C192.986,129.41 193.092,129.39 193.177,129.438C193.262,129.487 193.29,129.481 193.239,129.424C193.188,129.368 193.264,129.092 193.407,128.811C193.55,128.53 193.63,128.239 193.584,128.164C193.456,127.958 193.998,127.514 194.256,127.613C194.411,127.673 194.457,127.643 194.41,127.514C194.374,127.413 194.277,127.344 194.197,127.362C194.116,127.38 194.05,127.338 194.05,127.267C194.05,127.19 193.916,127.2 193.714,127.292C193.494,127.393 193.399,127.522 193.438,127.67C193.471,127.795 193.326,128.102 193.112,128.362C192.9,128.619 192.759,128.882 192.799,128.946C192.839,129.011 192.784,129.136 192.677,129.225C192.57,129.313 192.482,129.438 192.482,129.501C192.482,129.659 192.84,129.645 192.941,129.483ZM200.426,128.994C200.457,128.777 200.402,128.701 200.213,128.701C199.855,128.701 199.626,129.001 199.829,129.204C200.063,129.438 200.378,129.327 200.426,128.994ZM179.909,129.145C179.865,129.101 179.753,129.097 179.658,129.134C179.554,129.176 179.585,129.207 179.737,129.213C179.875,129.219 179.952,129.188 179.909,129.145ZM194.05,129.028C194.05,128.92 193.961,128.832 193.854,128.832C193.746,128.832 193.658,128.92 193.658,129.028C193.658,129.135 193.746,129.224 193.854,129.224C193.961,129.224 194.05,129.135 194.05,129.028ZM180.569,128.747C180.922,128.59 180.992,128.516 180.826,128.476C180.7,128.446 180.442,128.543 180.253,128.692C179.837,129.019 179.923,129.034 180.569,128.747ZM187.976,128.741C188.271,128.6 188.416,128.453 188.372,128.338C188.334,128.239 188.303,128.104 188.303,128.038C188.303,127.972 188.171,127.915 188.009,127.912C187.847,127.909 187.482,127.823 187.197,127.722C186.736,127.558 186.652,127.561 186.446,127.748C186.104,128.057 186.161,128.313 186.607,128.481C186.838,128.568 186.975,128.699 186.938,128.797C186.846,129.038 187.418,129.007 187.976,128.741ZM194.899,128.243C194.899,127.752 194.85,127.591 194.703,127.591C194.559,127.591 194.5,127.771 194.477,128.286C194.45,128.885 194.477,128.975 194.672,128.938C194.851,128.903 194.899,128.757 194.899,128.243ZM198.686,128.697C198.686,128.592 198.602,128.524 198.499,128.546C198.396,128.569 198.175,128.553 198.009,128.511C197.779,128.454 197.707,128.344 197.707,128.054C197.707,127.844 197.65,127.637 197.582,127.595C197.513,127.552 197.49,127.432 197.53,127.326C197.608,127.123 197.469,127.083 197.13,127.214C196.863,127.316 196.863,127.642 197.13,127.744C197.286,127.804 197.317,127.93 197.256,128.254C197.158,128.776 197.326,128.899 198.122,128.893C198.528,128.89 198.686,128.835 198.686,128.697ZM201.07,128.625C200.945,128.501 200.696,128.703 200.788,128.853C200.844,128.942 200.917,128.94 201.01,128.846C201.087,128.769 201.114,128.67 201.07,128.625ZM186.148,128.702C186.046,128.537 185.685,128.537 185.429,128.702C185.284,128.796 185.362,128.829 185.731,128.83C186.03,128.831 186.196,128.78 186.148,128.702ZM199.219,128.449C199.345,128.554 199.404,128.558 199.404,128.461C199.404,128.283 198.998,128.066 198.799,128.137C198.689,128.177 198.689,128.272 198.799,128.51C198.938,128.81 198.95,128.813 198.99,128.562C199.024,128.347 199.069,128.325 199.219,128.449ZM194.18,128.506C194.18,128.398 194.092,128.31 193.984,128.31C193.877,128.31 193.788,128.398 193.788,128.506C193.788,128.613 193.877,128.702 193.984,128.702C194.092,128.702 194.18,128.613 194.18,128.506ZM199.862,128.105C199.862,127.702 199.503,127.506 199.242,127.767C199.078,127.931 199.464,128.369 199.665,128.245C199.737,128.2 199.796,128.221 199.796,128.291C199.796,128.361 199.736,128.448 199.662,128.485C199.589,128.521 199.604,128.536 199.695,128.518C199.787,128.499 199.862,128.313 199.862,128.105ZM191.568,128.305C191.738,128.192 191.73,128.148 191.51,127.981C191.371,127.874 191.092,127.787 190.89,127.787C190.651,127.787 190.523,127.719 190.523,127.591C190.523,127.365 190.55,127.362 191.219,127.518C191.494,127.582 191.69,127.605 191.655,127.569C191.619,127.534 191.732,127.296 191.906,127.04C192.213,126.588 192.325,126.089 192.119,126.089C191.959,126.089 191.046,127.017 191.044,127.182C191.043,127.263 190.986,127.243 190.918,127.135C190.747,126.865 190.51,127.119 190.315,127.783L190.163,128.296L190.572,128.347C191.31,128.44 191.37,128.438 191.568,128.305ZM192.701,128.179C192.813,128.179 193.135,127.726 193.135,127.568C193.135,127.406 193.039,127.384 192.648,127.458C191.907,127.597 191.725,127.733 191.794,128.096C191.849,128.386 191.892,128.404 192.266,128.297C192.492,128.232 192.687,128.179 192.701,128.179ZM201.242,128.198L201.542,127.955L201.056,127.985C200.789,128.001 200.529,128.061 200.477,128.118C200.426,128.175 200.467,128.173 200.569,128.114C200.708,128.033 200.734,128.061 200.672,128.223C200.558,128.518 200.864,128.505 201.242,128.198ZM194.311,127.972C194.311,127.742 194.03,127.782 193.949,128.024C193.92,128.109 193.99,128.179 194.104,128.179C194.218,128.179 194.311,128.086 194.311,127.972ZM181.791,127.792C182.094,127.539 182.095,127.535 181.821,127.53C181.533,127.526 180.597,127.873 180.597,127.985C180.597,128.165 181.522,128.015 181.791,127.792ZM189.478,127.994C189.478,127.964 189.514,127.846 189.558,127.733C189.602,127.617 189.57,127.526 189.485,127.526C189.401,127.526 189.369,127.585 189.413,127.657C189.457,127.729 189.376,127.787 189.232,127.787C189.089,127.787 188.935,127.846 188.891,127.918C188.845,127.992 188.955,128.049 189.144,128.049C189.328,128.049 189.478,128.024 189.478,127.994ZM200.58,126.861C200.58,126.57 200.507,126.468 200.253,126.404C200.028,126.348 199.927,126.233 199.927,126.032C199.927,125.717 199.814,125.541 199.669,125.63C199.455,125.763 199.705,126.434 200.04,126.626C200.444,126.858 200.518,127.356 200.164,127.469C199.974,127.529 199.961,127.584 200.089,127.789C200.233,128.019 200.254,128.009 200.412,127.635C200.504,127.415 200.58,127.066 200.58,126.861ZM183.634,127.573C184.417,127.443 184.228,127.199 183.348,127.202C182.543,127.205 182.339,127.28 182.485,127.517C182.583,127.675 182.919,127.691 183.634,127.573ZM192.827,127.182C193.276,126.969 193.813,126.22 193.518,126.22C193.164,126.22 192.455,126.678 192.277,127.021C192.05,127.46 192.169,127.494 192.827,127.182ZM195.094,127.134C195.094,126.943 195.007,126.873 194.768,126.873C194.461,126.873 194.33,127.11 194.528,127.308C194.723,127.503 195.094,127.389 195.094,127.134ZM188.952,127.074C189.08,126.92 189.008,126.662 188.581,125.735C188.064,124.612 187.717,123.409 187.803,123.034C187.835,122.894 188.133,123.005 188.98,123.475C189.604,123.82 190.148,124.07 190.188,124.03C190.229,123.989 190.262,124.058 190.262,124.182C190.262,124.306 190.203,124.371 190.131,124.326C190.06,124.282 190.001,124.339 190.001,124.454C190.001,124.619 190.053,124.634 190.253,124.527C190.707,124.284 190.73,124.386 190.284,124.658C190.045,124.804 189.692,125.071 189.5,125.251C189.16,125.572 189.158,125.584 189.405,125.769C189.756,126.032 190.033,126.007 190.473,125.673L190.85,125.387L190.556,125.714C190.227,126.08 190.175,126.351 190.433,126.351C190.754,126.351 191.176,125.828 191.176,125.431C191.176,124.987 191.31,124.954 191.84,125.268C192.111,125.427 192.259,125.451 192.359,125.35C192.46,125.25 192.162,124.996 191.316,124.462C190.664,124.051 190.131,123.686 190.131,123.651C190.131,123.585 190.542,123.822 191.89,124.667C192.318,124.936 192.716,125.127 192.774,125.091C192.935,124.991 192.769,124.803 192.311,124.568C192.082,124.45 191.127,123.863 190.188,123.262C189.249,122.662 188.412,122.171 188.327,122.171C187.989,122.171 188.214,122.398 189.087,122.936C189.589,123.247 190.001,123.53 190.001,123.565C190.001,123.632 189.349,123.254 188.566,122.735C187.99,122.351 187.805,122.354 187.707,122.747C187.663,122.919 187.513,123.091 187.372,123.128C187.168,123.181 187.133,123.268 187.198,123.564C187.328,124.151 188.065,126.003 188.261,126.234C188.359,126.349 188.403,126.54 188.357,126.658C188.311,126.778 188.339,126.873 188.42,126.873C188.499,126.873 188.564,126.961 188.564,127.069C188.564,127.318 188.747,127.32 188.952,127.074ZM189.622,125.649C189.467,125.462 189.675,125.213 190.221,124.931C190.648,124.71 190.775,124.763 190.36,124.989C190.162,125.096 190.001,125.271 190.001,125.378C190.001,125.542 190.058,125.536 190.355,125.341C190.55,125.214 190.663,125.184 190.608,125.274C190.552,125.364 190.34,125.524 190.136,125.63C189.83,125.788 189.741,125.791 189.622,125.649ZM198.229,126.807C198.229,126.704 198.303,126.647 198.392,126.68C198.624,126.765 198.933,126.539 198.824,126.363C198.759,126.257 198.636,126.268 198.383,126.404C198.191,126.507 197.924,126.626 197.79,126.669C197.604,126.727 197.581,126.787 197.691,126.919C197.77,127.015 197.791,127.14 197.738,127.197C197.685,127.254 197.774,127.232 197.935,127.147C198.097,127.063 198.229,126.91 198.229,126.807ZM182.673,126.927C182.937,126.874 183.085,126.887 183.04,126.96C182.999,127.027 183.166,127.082 183.412,127.082C183.678,127.082 183.793,127.041 183.697,126.98C183.591,126.912 183.633,126.876 183.822,126.875C184.185,126.873 184.323,126.656 184.119,126.41C183.917,126.167 183.506,126.169 183.031,126.417C182.825,126.525 182.483,126.612 182.271,126.612C181.828,126.612 181.381,126.818 181.381,127.023C181.381,127.159 181.602,127.143 182.673,126.928L182.673,126.927ZM194.228,126.809C194.186,126.701 194.099,126.646 194.034,126.687C193.897,126.772 194.007,127.004 194.184,127.004C194.249,127.004 194.269,126.916 194.228,126.809ZM194.964,126.481C194.964,126.307 194.877,126.22 194.703,126.22C194.451,126.22 194.349,126.476 194.528,126.655C194.708,126.835 194.964,126.733 194.964,126.481ZM195.643,126.514C195.868,126.254 196.046,125.659 195.866,125.77C195.801,125.811 195.747,125.914 195.747,126C195.747,126.087 195.63,126.231 195.486,126.32C195.223,126.485 195.131,126.743 195.335,126.743C195.396,126.743 195.535,126.64 195.643,126.514ZM186.031,126.405C185.988,126.292 185.952,126.147 185.952,126.085C185.952,125.894 185.011,125.781 184.629,125.925C184.35,126.031 184.255,126.02 184.201,125.879C184.092,125.595 183.246,125.646 183.085,125.946C182.963,126.175 182.993,126.189 183.469,126.125C183.81,126.08 184.144,126.131 184.454,126.279C184.786,126.436 185.084,126.477 185.47,126.418C185.869,126.358 185.964,126.372 185.821,126.472C185.654,126.588 185.661,126.608 185.868,126.61C186.036,126.611 186.086,126.548 186.031,126.405ZM198.105,125.143C200.074,123.831 200.596,123.318 198.849,124.411C196.405,125.939 196.139,126.118 196.139,126.232C196.139,126.297 196.173,126.351 196.215,126.351C196.256,126.351 197.107,125.807 198.105,125.143ZM199.387,125.873C199.314,125.785 199.168,125.746 199.063,125.787C198.899,125.85 198.904,125.897 199.095,126.109C199.264,126.295 199.345,126.316 199.42,126.195C199.475,126.106 199.46,125.961 199.387,125.873ZM195.33,125.763C195.33,125.512 195.265,125.306 195.187,125.306C195.109,125.306 195.159,125.222 195.298,125.119C195.612,124.887 195.389,124.583 194.996,124.708C194.806,124.768 194.756,124.873 194.802,125.115C194.836,125.294 194.916,125.472 194.979,125.511C195.043,125.55 195.094,125.65 195.094,125.731C195.094,125.839 195.051,125.837 194.938,125.723C194.729,125.515 194.311,125.523 194.311,125.736C194.311,125.872 194.761,126.097 195.245,126.201C195.291,126.212 195.33,126.014 195.33,125.763ZM193.051,125.91C193.496,125.724 194.311,124.85 194.311,124.558C194.311,124.298 194.033,124.363 193.96,124.641C193.92,124.795 193.736,124.919 193.476,124.968C192.958,125.065 192.14,125.722 192.272,125.936C192.394,126.134 192.526,126.129 193.051,125.91ZM186.783,124.447C186.411,123.322 186.122,122.849 186.261,123.592C186.348,124.056 187.003,125.604 187.08,125.527C187.105,125.503 186.971,125.017 186.783,124.447ZM196.371,125.364C196.531,125.252 196.662,125.088 196.662,124.999C196.662,124.91 196.849,124.781 197.078,124.712C197.628,124.547 197.77,124.185 197.234,124.315C197.027,124.365 196.795,124.487 196.719,124.586C196.643,124.685 196.333,124.865 196.03,124.986C195.587,125.163 195.509,125.241 195.63,125.387C195.824,125.62 196.013,125.614 196.371,125.364ZM194.703,125.096C194.703,124.887 194.366,124.849 194.245,125.045C194.201,125.116 194.199,125.231 194.241,125.3C194.349,125.474 194.702,125.317 194.702,125.096L194.703,125.096ZM193.903,124.439L194.06,124.095L194.35,124.367C194.598,124.6 194.735,124.626 195.281,124.548C196.122,124.428 196.293,124.076 195.469,124.159C195.155,124.191 194.781,124.26 194.637,124.313C194.474,124.373 194.498,124.335 194.703,124.209C194.882,124.099 195.25,124.007 195.519,124.004C195.865,124.001 196.009,123.942 196.009,123.804C196.009,123.555 195.466,123.545 194.99,123.786C194.796,123.885 194.421,124.004 194.156,124.052C193.892,124.1 193.65,124.21 193.62,124.298C193.59,124.385 193.58,124.354 193.599,124.228C193.638,123.971 193.454,123.8 193.339,123.987C193.244,124.14 193.482,124.783 193.634,124.783C193.696,124.783 193.817,124.628 193.903,124.439ZM196.982,124.264C197.432,124.035 197.965,123.45 197.967,123.183C197.967,123.13 197.872,123.086 197.754,123.086C197.51,123.086 196.243,124.321 196.364,124.442C196.465,124.543 196.396,124.563 196.982,124.264ZM203.876,122.981C204.253,122.695 204.55,122.344 204.637,122.081C204.9,121.283 204.701,121.236 204.29,121.999C203.893,122.735 203.86,122.76 202.601,123.306C201.637,123.723 201.273,123.826 201.144,123.719C200.936,123.546 200.932,123.586 201.111,124.098L201.249,124.496L202.253,123.973C202.806,123.685 203.536,123.238 203.876,122.981ZM12.07,110.71C12.039,101.457 11.973,96.458 11.866,95.266C11.75,93.962 11.746,93.243 11.851,92.505C11.994,91.5 12.574,89.318 12.922,88.475C13.086,88.079 13.086,87.936 12.924,87.383C12.795,86.941 12.776,86.661 12.865,86.467C13.024,86.117 12.925,85.395 12.691,85.2C12.593,85.119 12.443,84.696 12.357,84.259C12.22,83.563 12.186,83.504 12.082,83.782C12.016,83.956 11.992,84.286 12.028,84.515C12.079,84.834 12.051,84.916 11.913,84.863C11.794,84.817 11.704,84.92 11.65,85.164C11.604,85.368 11.518,85.712 11.459,85.927C11.25,86.684 11.036,90.12 11.118,91.413C11.163,92.131 11.235,99.766 11.278,108.378C11.335,119.896 11.395,124.084 11.506,124.21C11.588,124.304 11.759,124.383 11.886,124.386C12.104,124.391 12.113,123.698 12.07,110.71ZM193.552,123.76C193.859,123.569 194.009,123.391 193.963,123.272C193.812,122.88 193.445,123.107 193.027,123.85C192.834,124.193 192.865,124.188 193.552,123.76ZM192.16,123.679C192.409,123.575 192.613,123.421 192.613,123.337C192.613,123.221 192.567,123.221 192.425,123.339C192.291,123.45 192.165,123.456 191.985,123.359C191.788,123.254 191.684,123.276 191.519,123.459C191.145,123.871 191.449,123.976 192.16,123.679ZM198.529,123.168C198.536,122.911 198.5,122.659 198.449,122.608C198.252,122.411 198.117,122.783 198.19,123.321C198.279,123.984 198.508,123.88 198.529,123.168ZM196.722,123.4C196.994,122.985 196.928,122.904 196.411,123.017C195.9,123.13 195.788,123.315 196.094,123.547C196.424,123.797 196.469,123.787 196.722,123.4ZM191.361,123.397C191.475,123.354 191.568,123.265 191.568,123.201C191.568,123.014 191.223,123.067 191.046,123.281C190.873,123.488 191.001,123.536 191.361,123.397ZM201.49,123.224C201.564,123.085 201.686,122.809 201.762,122.61C201.899,122.25 201.898,122.249 201.628,122.494C201.479,122.629 201.38,122.802 201.409,122.879C201.437,122.956 201.37,123.122 201.261,123.248C201.141,123.385 201.12,123.476 201.208,123.476C201.289,123.476 201.415,123.363 201.489,123.224L201.49,123.224ZM194.964,123.085L195.29,122.829L194.85,122.826C194.496,122.824 194.438,122.789 194.555,122.648C194.635,122.552 194.67,122.442 194.633,122.405C194.596,122.368 194.655,122.264 194.765,122.173C194.975,121.999 195.037,121.648 194.858,121.648C194.8,121.648 194.638,121.734 194.499,121.84C194.17,122.089 193.919,122.09 193.919,121.844C193.919,121.731 193.801,121.648 193.642,121.648C193.409,121.648 193.391,121.679 193.529,121.846C193.664,122.009 193.65,122.092 193.453,122.31C193.216,122.572 193.218,122.574 193.549,122.448C193.902,122.314 194.18,122.458 194.18,122.775C194.18,122.864 194.305,122.976 194.459,123.025C194.677,123.094 194.698,123.137 194.557,123.227C194.457,123.29 194.435,123.341 194.507,123.341C194.579,123.34 194.784,123.225 194.964,123.084L194.964,123.085ZM190.889,123.059C191.089,122.858 191.092,122.562 190.893,122.562C190.711,122.562 190.262,122.948 190.262,123.105C190.262,123.271 190.71,123.238 190.889,123.059ZM192.791,123.019C192.706,122.798 192.535,122.763 192.423,122.944C192.382,123.011 192.452,123.092 192.579,123.125C192.705,123.158 192.822,123.192 192.837,123.2C192.853,123.208 192.832,123.127 192.791,123.019ZM199.668,123.016C199.921,122.712 199.741,122.655 199.471,122.953C199.34,123.097 199.294,123.215 199.368,123.215C199.442,123.215 199.577,123.126 199.668,123.016ZM196.136,122.959C196.241,122.892 196.29,122.8 196.243,122.753C196.129,122.639 195.617,122.811 195.617,122.963C195.617,123.118 195.887,123.116 196.136,122.959ZM197.315,122.751C197.315,122.546 197.192,122.517 196.864,122.643C196.675,122.716 196.677,122.741 196.885,122.893C197.146,123.084 197.315,123.028 197.315,122.751ZM193.919,122.824C193.919,122.752 193.86,122.693 193.788,122.693C193.717,122.693 193.658,122.752 193.658,122.824C193.658,122.895 193.717,122.954 193.788,122.954C193.86,122.954 193.919,122.895 193.919,122.824ZM189.922,122.671C189.858,122.567 189.899,122.546 190.051,122.604C190.185,122.655 190.243,122.638 190.196,122.561C190.152,122.489 190.271,122.372 190.461,122.3C190.844,122.154 190.836,121.863 190.448,121.809C190.159,121.769 189.348,122.23 189.348,122.434C189.348,122.509 189.48,122.624 189.642,122.689C190.032,122.846 190.03,122.846 189.922,122.671ZM191.829,122.562C191.829,122.491 191.803,122.432 191.772,122.432C191.74,122.432 191.678,122.491 191.633,122.562C191.589,122.634 191.615,122.693 191.691,122.693C191.767,122.693 191.829,122.634 191.829,122.562ZM195.65,122.606C195.56,122.57 195.413,122.57 195.323,122.606C195.233,122.643 195.307,122.672 195.486,122.672C195.666,122.672 195.739,122.643 195.65,122.606ZM199.307,122.511C199.432,122.416 199.535,122.271 199.535,122.189C199.535,121.964 199.26,122.01 199.064,122.268C198.744,122.69 198.885,122.831 199.307,122.511ZM192.146,122.2C192.776,121.974 193.097,121.648 192.689,121.648C192.575,121.648 192.48,121.751 192.478,121.877C192.474,122.086 192.464,122.087 192.348,121.889C192.265,121.747 192.121,121.697 191.928,121.744C191.555,121.835 191.161,122.17 191.252,122.319C191.347,122.473 191.408,122.465 192.146,122.2ZM196.111,121.776C196.275,121.534 196.377,121.244 196.339,121.133C196.295,121.003 196.34,121.022 196.465,121.183C196.573,121.323 196.662,121.492 196.662,121.558C196.662,121.625 196.75,121.607 196.858,121.518C196.999,121.4 197.054,121.397 197.054,121.506C197.054,121.589 196.965,121.69 196.858,121.732C196.75,121.773 196.662,121.857 196.662,121.919C196.662,121.981 196.749,121.998 196.855,121.958C197.062,121.878 197.351,121.029 197.236,120.842C197.198,120.78 197.235,120.401 197.318,120C197.428,119.471 197.43,119.23 197.327,119.126C197.249,119.048 197.184,118.852 197.184,118.691C197.184,118.53 197.124,118.361 197.051,118.316C196.888,118.215 195.995,118.486 195.81,118.691C195.561,118.968 194.793,119.313 194.713,119.184C194.667,119.108 194.54,119.128 194.395,119.234C194.263,119.331 194.19,119.468 194.233,119.537C194.278,119.611 194.201,119.636 194.05,119.596C193.904,119.558 193.789,119.592 193.789,119.674C193.789,119.754 193.862,119.824 193.952,119.828C194.042,119.833 193.983,119.901 193.821,119.979C193.66,120.057 193.527,120.215 193.526,120.329C193.525,120.444 193.486,120.679 193.44,120.852C193.381,121.073 193.401,121.139 193.507,121.073C193.595,121.019 193.658,121.06 193.658,121.172C193.658,121.278 193.584,121.395 193.495,121.431C193.405,121.467 193.449,121.502 193.593,121.507C193.775,121.514 193.95,121.337 194.169,120.924C194.586,120.138 195.366,119.525 195.972,119.507C196.254,119.499 196.453,119.559 196.475,119.66C196.495,119.751 196.482,119.766 196.445,119.692C196.409,119.619 196.316,119.558 196.239,119.558C196.162,119.558 196.208,119.679 196.341,119.826C196.556,120.063 196.564,120.142 196.413,120.512C196.319,120.742 196.245,121.034 196.248,121.161C196.252,121.296 196.195,121.356 196.111,121.304C196.022,121.249 196.006,121.277 196.068,121.377C196.129,121.476 196.021,121.695 195.795,121.937C195.589,122.156 195.509,122.309 195.617,122.276C195.725,122.243 195.947,122.018 196.111,121.776ZM196.667,121.298C196.67,121.239 196.753,120.868 196.852,120.473L197.031,119.754L197.042,120.384C197.049,120.782 196.982,121.086 196.858,121.21C196.75,121.317 196.664,121.357 196.667,121.298ZM193.788,120.611C193.788,120.543 193.846,120.452 193.917,120.408C193.991,120.362 194.013,120.415 193.969,120.531C193.882,120.757 193.788,120.799 193.788,120.611ZM194.356,119.988C194.489,119.832 194.561,119.647 194.517,119.576C194.41,119.402 194.589,119.31 194.84,119.411C195,119.476 194.944,119.576 194.579,119.881C194.318,120.1 194.22,120.146 194.356,119.988ZM196.73,119.307C196.667,119.109 196.532,119.035 196.228,119.032C195.912,119.029 195.862,118.999 196.019,118.908C196.312,118.736 196.769,118.889 196.865,119.19C196.91,119.332 196.917,119.477 196.881,119.513C196.846,119.549 196.777,119.456 196.73,119.307ZM195.29,119.167C195.335,119.095 195.426,119.036 195.494,119.036C195.562,119.036 195.617,119.095 195.617,119.167C195.617,119.238 195.525,119.297 195.413,119.297C195.301,119.297 195.246,119.238 195.29,119.167ZM196.531,122.032C196.531,121.965 196.472,121.909 196.401,121.909C196.329,121.909 196.27,122.001 196.27,122.113C196.27,122.225 196.329,122.28 196.401,122.236C196.472,122.191 196.531,122.1 196.531,122.032ZM197.704,121.981C197.771,121.805 198.01,121.565 198.236,121.449C198.709,121.204 198.683,121.059 198.199,121.243C197.877,121.365 197.315,121.966 197.315,122.188C197.315,122.43 197.589,122.284 197.704,121.981ZM198.684,121.906C198.648,121.848 198.693,121.775 198.783,121.742C198.873,121.71 198.908,121.642 198.86,121.59C198.737,121.456 198.202,122.022 198.301,122.182C198.355,122.268 198.446,122.262 198.566,122.162C198.666,122.079 198.719,121.963 198.684,121.906ZM199.927,121.902C199.927,121.834 199.868,121.779 199.796,121.779C199.725,121.779 199.666,121.87 199.666,121.982C199.666,122.094 199.725,122.15 199.796,122.105C199.868,122.061 199.927,121.969 199.927,121.902ZM202.664,120.718C203.627,119.388 203.905,118.903 203.597,119.093C203.532,119.133 203.072,119.769 202.574,120.505C201.53,122.049 201.455,122.171 201.546,122.171C201.583,122.171 202.086,121.517 202.664,120.718ZM200.449,121.779C200.449,121.707 200.358,121.648 200.246,121.648C200.134,121.648 200.078,121.707 200.123,121.779C200.167,121.851 200.259,121.909 200.326,121.909C200.394,121.909 200.449,121.851 200.449,121.779ZM195.042,121.596C195.367,121.592 195.434,121.544 195.385,121.354C195.296,121.013 194.889,120.826 194.587,120.987C194.176,121.207 194.008,121.884 194.409,121.704C194.534,121.648 194.819,121.599 195.042,121.596ZM199.543,121.457C199.611,121.499 199.666,121.464 199.666,121.381C199.666,121.296 199.575,121.263 199.459,121.308C199.345,121.351 199.2,121.387 199.137,121.387C199.073,121.387 199.057,121.482 199.101,121.597C199.175,121.79 199.192,121.789 199.301,121.594C199.367,121.477 199.476,121.415 199.543,121.457ZM200.711,121.583C200.711,121.475 200.654,121.387 200.584,121.387C200.514,121.387 200.491,121.475 200.533,121.583C200.574,121.691 200.631,121.779 200.659,121.779C200.687,121.779 200.711,121.691 200.711,121.583ZM192.763,121.322C192.763,121.253 192.7,121.177 192.623,121.151C192.545,121.125 192.482,121.202 192.482,121.322C192.482,121.441 192.545,121.518 192.623,121.493C192.7,121.467 192.763,121.39 192.763,121.322ZM195.911,120.853C196.228,120.296 196.201,120.211 195.715,120.213C194.999,120.216 194.873,120.384 195.237,120.845C195.41,121.063 195.581,121.245 195.617,121.248C195.653,121.251 195.785,121.074 195.911,120.853ZM200.841,121.126C200.841,121.054 200.782,120.995 200.711,120.995C200.639,120.995 200.58,121.054 200.58,121.126C200.58,121.198 200.639,121.256 200.711,121.256C200.782,121.256 200.841,121.198 200.841,121.126ZM192.902,119.944C192.987,119.714 192.967,119.7 192.733,119.825C192.587,119.903 192.435,120.052 192.396,120.155C192.356,120.258 192.261,120.342 192.185,120.342C192.015,120.342 191.568,120.733 191.568,120.882C191.568,121.078 192.804,120.209 192.902,119.944ZM200.841,120.734C200.841,120.662 200.782,120.603 200.711,120.603C200.639,120.603 200.58,120.662 200.58,120.734C200.58,120.806 200.639,120.865 200.711,120.865C200.782,120.865 200.841,120.806 200.841,120.734ZM192.743,120.603C192.743,120.532 192.718,120.473 192.686,120.473C192.654,120.473 192.592,120.532 192.548,120.603C192.503,120.675 192.529,120.734 192.605,120.734C192.681,120.734 192.744,120.675 192.744,120.603L192.743,120.603ZM199.339,120.603C199.384,120.532 199.358,120.473 199.282,120.473C199.205,120.473 199.143,120.532 199.143,120.603C199.143,120.675 199.169,120.734 199.201,120.734C199.233,120.734 199.295,120.675 199.339,120.603ZM200.678,120.135C200.553,120.011 200.304,120.212 200.397,120.363C200.452,120.452 200.525,120.45 200.619,120.355C200.696,120.279 200.722,120.179 200.678,120.135ZM193.592,119.95C193.637,119.878 193.582,119.82 193.47,119.82C193.358,119.82 193.266,119.878 193.266,119.95C193.266,120.022 193.321,120.081 193.389,120.081C193.456,120.081 193.548,120.022 193.592,119.95ZM200.449,119.885C200.449,119.777 200.391,119.689 200.319,119.689C200.247,119.689 200.188,119.777 200.188,119.885C200.188,119.993 200.247,120.081 200.319,120.081C200.391,120.081 200.449,119.993 200.449,119.885ZM200.188,119.428C200.188,119.356 200.162,119.297 200.131,119.297C200.099,119.297 200.037,119.356 199.992,119.428C199.948,119.5 199.974,119.558 200.05,119.558C200.126,119.558 200.188,119.5 200.188,119.428ZM194.05,119.167C194.05,119.095 193.987,119.036 193.911,119.036C193.835,119.036 193.809,119.095 193.854,119.167C193.898,119.238 193.96,119.297 193.992,119.297C194.024,119.297 194.05,119.238 194.05,119.167ZM205.28,118.873C205.281,118.819 205.199,118.775 205.098,118.775C204.976,118.775 204.938,118.866 204.986,119.047C205.04,119.254 205.083,119.278 205.167,119.145C205.228,119.049 205.279,118.927 205.28,118.873ZM194.441,119.036C194.441,118.964 194.415,118.905 194.384,118.905C194.352,118.905 194.29,118.964 194.245,119.036C194.201,119.108 194.227,119.167 194.303,119.167C194.379,119.167 194.441,119.108 194.441,119.036ZM198.229,119.036C198.229,118.964 198.203,118.905 198.171,118.905C198.14,118.905 198.078,118.964 198.033,119.036C197.989,119.108 198.015,119.167 198.091,119.167C198.167,119.167 198.229,119.108 198.229,119.036ZM194.833,118.775C194.833,118.703 194.774,118.644 194.703,118.644C194.631,118.644 194.572,118.569 194.572,118.476C194.572,118.267 194.087,118.217 193.965,118.414C193.91,118.504 193.95,118.53 194.073,118.482C194.185,118.439 194.348,118.514 194.45,118.656C194.644,118.926 194.833,118.984 194.833,118.775ZM204.065,118.359C204.023,118.254 203.992,118.285 203.986,118.437C203.98,118.575 204.011,118.652 204.055,118.609C204.098,118.565 204.103,118.453 204.065,118.359ZM198.751,118.383C198.751,118.311 198.689,118.252 198.613,118.252C198.537,118.252 198.511,118.311 198.556,118.383C198.6,118.455 198.662,118.514 198.694,118.514C198.726,118.514 198.751,118.455 198.751,118.383ZM195.07,117.041C195.357,116.518 195.832,115.857 196.127,115.571C196.421,115.286 196.662,114.956 196.662,114.838C196.662,114.721 196.77,114.491 196.902,114.328L197.142,114.031L199.873,115.443C201.375,116.219 203.009,117.083 203.504,117.361C203.999,117.64 204.433,117.838 204.47,117.802C204.55,117.721 204.245,117.338 204.1,117.338C203.805,117.338 197.306,114.006 197.159,113.779C197.09,113.672 197.02,113.661 196.956,113.749C196.48,114.399 194.696,117.101 194.526,117.43C194.279,117.909 194.265,117.991 194.43,117.991C194.495,117.991 194.783,117.563 195.07,117.041ZM14.072,90.879C14.072,90.766 14.002,90.696 13.917,90.724C13.675,90.805 13.635,91.086 13.865,91.086C13.979,91.086 14.072,90.993 14.072,90.879ZM21.843,90.953C22.027,90.872 21.864,90.842 21.298,90.851C20.711,90.86 20.433,90.805 20.277,90.648C20.015,90.387 19.819,90.371 19.819,90.61C19.819,90.962 21.265,91.207 21.843,90.953ZM21.256,90.466C21.257,90.412 21.405,90.191 21.585,89.976L21.914,89.584L21.335,90.606L21.953,90.522C22.699,90.419 22.836,90.279 24.269,88.152L25.321,86.589L25.231,85.932C25.145,85.305 24.772,84.609 24.609,84.772C24.435,84.946 23.851,84.66 23.73,84.342C23.563,83.901 23.321,84.089 23.082,84.848C22.986,85.154 22.836,85.493 22.749,85.601C22.661,85.708 22.317,86.343 21.984,87.011C21.65,87.679 21.115,88.7 20.794,89.28C20.181,90.389 20.136,90.495 20.332,90.373C20.399,90.332 20.491,90.358 20.536,90.431C20.63,90.583 21.255,90.614 21.256,90.466ZM22.558,88.481C22.722,88.175 22.953,88.013 22.953,88.205C22.953,88.281 22.895,88.343 22.823,88.343C22.751,88.343 22.692,88.432 22.692,88.539C22.692,88.647 22.631,88.735 22.557,88.735C22.464,88.735 22.464,88.656 22.558,88.481ZM23.088,87.617C23.091,87.55 23.179,87.38 23.284,87.241C23.39,87.101 23.474,87.043 23.472,87.11C23.469,87.178 23.381,87.347 23.276,87.487C23.17,87.626 23.086,87.685 23.088,87.617ZM23.903,85.99C23.892,85.844 23.939,85.76 24.006,85.801C24.074,85.843 24.129,85.821 24.129,85.753C24.129,85.685 24.218,85.595 24.326,85.553C24.463,85.5 24.435,85.596 24.236,85.865C24.078,86.079 23.943,86.254 23.936,86.254C23.929,86.254 23.914,86.135 23.903,85.99ZM19.166,88.543C20.776,88.227 21.069,88.113 21.241,87.735C21.351,87.494 21.357,87.348 21.262,87.253C20.938,86.929 21.302,86.318 21.727,86.472C22.039,86.585 22.185,85.792 22.108,84.415C22.017,82.768 21.892,82.562 21.188,82.898C20.932,83.02 20.413,83.119 20.027,83.119C19.644,83.119 18.955,83.241 18.497,83.39C17.451,83.731 16.58,83.661 15.96,83.189C15.721,83.007 15.446,82.858 15.347,82.858C15.248,82.858 14.892,83.115 14.555,83.429C13.955,83.987 13.942,84.017 13.942,84.789C13.942,85.305 13.998,85.598 14.105,85.634C14.224,85.674 14.19,85.846 13.974,86.279C13.666,86.899 13.609,87.168 13.787,87.168C13.845,87.168 13.988,87.367 14.104,87.61C14.363,88.154 15.128,88.464 16.554,88.601C18.075,88.748 18.126,88.747 19.166,88.543ZM17.072,87.683C16.949,87.453 16.96,87.358 17.131,87.188C17.408,86.911 17.794,87.136 17.794,87.574C17.794,88.001 17.284,88.079 17.072,87.683ZM15.453,87.615C15.207,87.37 15.192,87.146 15.404,86.933C15.611,86.726 15.71,86.735 15.957,86.981C16.233,87.258 16.215,87.522 15.91,87.685C15.719,87.787 15.607,87.77 15.453,87.615ZM19.253,87.734C19.205,87.686 19.166,87.51 19.166,87.342C19.166,87.131 19.241,87.037 19.411,87.037C19.724,87.037 20.001,87.367 19.903,87.623C19.826,87.823 19.413,87.894 19.253,87.734ZM14.072,87.168C13.929,86.9 14.091,86.384 14.318,86.384C14.556,86.384 14.843,86.863 14.77,87.14C14.675,87.503 14.26,87.519 14.072,87.168ZM34.853,85.253C35.04,85.078 35.272,84.696 35.368,84.405C35.517,83.953 35.515,83.825 35.353,83.537C35.154,83.183 33.873,82.074 33.662,82.074C33.595,82.074 33.334,82.397 33.081,82.793C32.828,83.188 32.575,83.511 32.518,83.511C32.46,83.511 32.309,83.687 32.182,83.903C31.951,84.295 31.951,84.295 32.293,84.425C32.481,84.497 32.713,84.556 32.807,84.556C32.902,84.556 33.197,84.822 33.464,85.148C34.006,85.81 34.238,85.827 34.853,85.253ZM32.618,83.903C32.618,83.831 32.681,83.772 32.757,83.772C32.833,83.772 32.859,83.831 32.814,83.903C32.77,83.975 32.708,84.033 32.676,84.033C32.644,84.033 32.618,83.975 32.618,83.903ZM33.337,82.858C33.292,82.786 33.318,82.727 33.394,82.727C33.47,82.727 33.533,82.786 33.533,82.858C33.533,82.93 33.507,82.988 33.475,82.988C33.443,82.988 33.381,82.93 33.337,82.858ZM33.955,82.593C33.72,82.379 33.577,82.205 33.637,82.205C33.696,82.205 33.914,82.381 34.12,82.597C34.6,83.098 34.508,83.096 33.955,82.593ZM27.035,84.042C27.453,83.451 27.506,82.75 27.19,81.962C26.999,81.484 26.952,81.452 26.439,81.447C26.138,81.445 25.817,81.438 25.726,81.432C25.635,81.426 25.493,81.274 25.411,81.095C25.329,80.915 25.18,80.768 25.08,80.768C24.979,80.768 24.931,80.822 24.971,80.888C25.012,80.954 24.96,81.094 24.855,81.199C24.75,81.304 24.701,81.427 24.746,81.473C24.792,81.518 24.701,81.728 24.545,81.939C24.178,82.435 24.334,82.988 24.842,82.988C25.091,82.988 25.189,83.074 25.255,83.348C25.345,83.722 25.541,83.955 26.084,84.332C26.537,84.645 26.628,84.617 27.035,84.042ZM25.575,83.446C25.575,83.374 25.659,83.168 25.762,82.988C25.864,82.809 25.948,82.721 25.948,82.793C25.948,82.864 25.864,83.07 25.762,83.25C25.659,83.429 25.575,83.517 25.575,83.446ZM26.053,82.45C26.142,82.361 26.247,82.32 26.287,82.361C26.328,82.401 26.255,82.474 26.126,82.523C25.94,82.594 25.925,82.579 26.053,82.45ZM26.292,82.036C26.341,81.907 26.414,81.835 26.455,81.875C26.495,81.915 26.455,82.02 26.365,82.109C26.236,82.237 26.221,82.222 26.292,82.036ZM24.223,83.804C24.243,83.37 24.214,83.243 24.127,83.38C23.94,83.675 23.981,84.441 24.183,84.424C24.189,84.424 24.207,84.145 24.223,83.804ZM31.485,84.124C31.57,84.029 31.841,83.736 32.089,83.47C32.756,82.756 32.514,82.886 31.769,83.642C31.416,84.001 31.172,84.295 31.229,84.295C31.285,84.295 31.4,84.218 31.485,84.124ZM30.442,83.693C31.034,83.144 32.247,81.43 32.153,81.277C32.105,81.199 31.883,81.456 31.656,81.854C31.198,82.657 30.797,83.145 30.158,83.674C29.92,83.872 29.804,84.033 29.9,84.033C29.996,84.033 30.24,83.88 30.442,83.693ZM31.448,83.544C32.183,82.734 32.383,82.466 32.249,82.466C32.179,82.466 31.816,82.819 31.443,83.25C30.71,84.096 30.714,84.351 31.448,83.544ZM23.737,83.772C23.737,83.7 23.678,83.642 23.606,83.642C23.535,83.642 23.476,83.7 23.476,83.772C23.476,83.844 23.535,83.903 23.606,83.903C23.678,83.903 23.737,83.844 23.737,83.772ZM25.129,83.321C25.086,83.21 24.976,83.124 24.884,83.129C24.753,83.137 24.752,83.154 24.88,83.206C24.97,83.242 25.043,83.365 25.043,83.478C25.043,83.592 25.08,83.648 25.125,83.604C25.169,83.559 25.171,83.431 25.129,83.321ZM30.181,83.218L30.448,82.859L30.072,82.466C29.818,82.202 29.665,82.123 29.602,82.225C29.55,82.309 29.535,82.448 29.569,82.535C29.602,82.622 29.54,82.728 29.431,82.77C29.268,82.832 29.258,82.919 29.373,83.25C29.542,83.734 29.803,83.724 30.181,83.218ZM17.532,83.251C17.578,83.177 17.526,83.155 17.409,83.2C17.183,83.287 17.142,83.38 17.33,83.38C17.397,83.38 17.488,83.322 17.532,83.251ZM18.447,82.597C19.094,82.526 19.968,82.468 20.39,82.467C21.057,82.466 21.136,82.44 20.994,82.27C20.905,82.162 20.751,82.074 20.652,82.074C20.553,82.074 20.472,82.013 20.472,81.938C20.472,81.863 20.328,81.647 20.152,81.457C19.977,81.268 19.58,80.8 19.271,80.417C18.647,79.645 18.729,79.661 17.022,79.981C16.459,80.086 16.225,80.086 16.16,79.982C16.111,79.902 15.93,79.851 15.757,79.866C15.135,79.922 14.861,79.849 14.567,79.546C14.282,79.252 13.811,79.003 13.811,79.146C13.811,79.183 13.904,79.394 14.018,79.614C14.131,79.833 14.167,79.978 14.097,79.934C13.883,79.802 13.816,80.199 13.9,81.1C13.972,81.868 14.018,81.977 14.345,82.145C14.882,82.423 15.05,82.291 15.064,81.578C15.079,80.746 15.355,80.189 15.771,80.149C16.085,80.119 16.086,80.122 15.811,80.24C15.438,80.399 15.248,80.772 15.248,81.342C15.248,81.699 15.363,81.923 15.762,82.343C16.235,82.84 16.317,82.877 16.774,82.805C17.048,82.762 17.801,82.668 18.447,82.597ZM16.39,82.242C16.05,82.19 16.031,82.15 16.031,81.492L16.031,80.797L16.652,80.836C17.166,80.867 17.279,80.921 17.314,81.148C17.343,81.339 17.451,81.421 17.673,81.421C17.848,81.421 17.99,81.48 17.99,81.552C17.99,81.624 17.843,81.682 17.664,81.682C17.403,81.682 17.337,81.748 17.337,82.009C17.337,82.351 17.25,82.372 16.39,82.242ZM17.207,81.625C17.207,81.097 17.132,81.03 16.651,81.122C16.344,81.181 16.292,81.254 16.292,81.632C16.292,82.05 16.317,82.074 16.75,82.074C17.183,82.074 17.207,82.051 17.207,81.625ZM32.945,82.466C33.075,82.322 33.152,82.205 33.116,82.205C33.08,82.205 32.944,82.322 32.814,82.466C32.684,82.61 32.607,82.727 32.643,82.727C32.679,82.727 32.815,82.61 32.945,82.466ZM31.107,82.058C31.067,81.994 31.122,81.908 31.229,81.867C31.588,81.73 31.564,81.435 31.156,80.974L30.75,80.517L30.387,80.934C30.012,81.363 29.976,81.586 30.33,81.293C30.546,81.113 30.608,81.289 30.401,81.496C30.318,81.579 30.366,81.775 30.537,82.057C30.753,82.411 30.835,82.461 30.99,82.332C31.094,82.246 31.146,82.123 31.107,82.058ZM22.308,81.809C22.446,81.735 22.651,81.497 22.763,81.28C22.956,80.906 22.949,80.85 22.626,80.206C22.438,79.833 22.323,79.674 22.369,79.854C22.579,80.677 22.586,80.806 22.429,81.098C22.338,81.269 22.093,81.446 21.884,81.492C21.563,81.562 21.413,81.489 20.891,81.009C20.119,80.299 17.965,77.614 17.159,76.355C16.823,75.832 16.461,75.37 16.354,75.329C15.826,75.126 15.262,76.029 15.666,76.432C15.852,76.619 16.246,76.638 16.353,76.466C16.395,76.398 16.268,76.354 16.072,76.368C15.669,76.396 15.509,76.054 15.775,75.733C16.045,75.409 16.255,75.52 16.706,76.227C16.945,76.603 17.259,77.095 17.403,77.319C17.833,77.992 18.753,79.291 18.933,79.481C19.026,79.578 19.443,80.05 19.859,80.529C20.546,81.32 21.439,81.943 21.885,81.944C21.979,81.944 22.169,81.883 22.308,81.809ZM28.999,81.564C29.122,81.355 29.187,81.089 29.143,80.974C29.099,80.859 29.129,80.685 29.21,80.587C29.326,80.447 29.277,80.377 28.979,80.253C28.771,80.167 28.437,79.926 28.238,79.718C28.039,79.511 27.839,79.364 27.794,79.392C27.748,79.42 27.486,79.075 27.211,78.626C26.936,78.176 26.6,77.739 26.465,77.655C26.238,77.513 26.225,77.537 26.292,77.992C26.404,78.752 26.459,78.856 26.899,79.136C27.125,79.279 27.335,79.474 27.366,79.567C27.396,79.661 27.271,79.588 27.087,79.404C26.749,79.066 26.423,78.976 26.294,79.185C26.255,79.248 26.386,79.332 26.586,79.372C26.794,79.414 27.026,79.589 27.13,79.782C27.24,79.989 27.345,80.064 27.399,79.976C27.448,79.897 27.522,80.005 27.564,80.215C27.657,80.681 28.212,81.072 28.758,81.057C29.088,81.048 29.117,81.069 28.926,81.176C28.799,81.248 28.579,81.27 28.438,81.225C28.187,81.145 28.186,81.154 28.408,81.543C28.533,81.762 28.666,81.942 28.705,81.943C28.743,81.943 28.876,81.773 28.999,81.564ZM33.271,81.087C33.271,80.983 33.183,80.899 33.076,80.899C32.856,80.899 32.847,80.923 32.959,81.214C33.05,81.453 33.271,81.363 33.271,81.087ZM24.584,81.164C24.627,81.094 24.445,80.947 24.18,80.836C23.915,80.725 23.621,80.533 23.526,80.408C23.386,80.223 23.353,80.218 23.351,80.376C23.349,80.631 23.468,80.789 23.868,81.057C24.244,81.31 24.472,81.344 24.584,81.164ZM22.148,80.787C22.172,80.619 22.155,80.336 22.111,80.16C22.049,79.913 21.971,79.858 21.774,79.921C21.622,79.969 21.517,79.942 21.517,79.855C21.517,79.774 21.569,79.74 21.633,79.779C21.696,79.819 21.826,79.757 21.921,79.643C22.078,79.454 21.997,79.443 21.054,79.53C20.483,79.582 19.995,79.642 19.97,79.664C19.945,79.686 20.247,80.036 20.64,80.442C21.232,81.053 21.42,81.173 21.73,81.137C22.008,81.106 22.116,81.016 22.148,80.788L22.148,80.787ZM25.982,80.894C25.664,80.598 25.62,80.241 25.847,79.816C25.995,79.54 26.001,79.539 26.099,79.791C26.165,79.959 26.203,79.981 26.207,79.854C26.211,79.746 26.165,79.58 26.105,79.485C25.914,79.184 25.566,79.677 25.566,80.248C25.566,80.622 25.641,80.806 25.856,80.957C26.261,81.24 26.322,81.21 25.982,80.894ZM24.913,80.401C24.913,80.289 24.817,79.816 24.7,79.35C24.502,78.56 24.503,78.492 24.708,78.342C24.878,78.218 24.909,78.072 24.841,77.711C24.783,77.401 24.802,77.242 24.898,77.242C24.978,77.242 25.044,77.315 25.045,77.405C25.046,77.495 25.096,77.645 25.155,77.738C25.311,77.984 25.948,77.671 26.014,77.317C26.042,77.168 26.158,76.574 26.272,75.998C26.536,74.668 26.543,74.721 26.121,74.939C25.923,75.04 25.451,75.215 25.073,75.328C24.427,75.519 24.347,75.516 23.812,75.287L23.241,75.042L23.178,75.456C23.144,75.684 23.17,75.975 23.238,76.104C23.305,76.232 23.317,76.467 23.264,76.626C23.211,76.785 23.183,77.385 23.201,77.96C23.239,79.177 23.749,80.484 24.28,80.727C24.625,80.884 24.913,80.736 24.913,80.401ZM27.525,80.638C27.525,80.566 27.499,80.507 27.467,80.507C27.435,80.507 27.373,80.566 27.329,80.638C27.284,80.709 27.31,80.768 27.386,80.768C27.462,80.768 27.525,80.709 27.525,80.638ZM31.815,79.665C31.843,79.516 31.796,79.453 31.684,79.49C31.587,79.523 31.488,79.654 31.463,79.782C31.434,79.931 31.481,79.993 31.594,79.956C31.69,79.924 31.79,79.793 31.815,79.665ZM25.225,79.647C25.355,79.31 25.315,78.611 25.158,78.454C24.943,78.239 24.649,78.402 24.667,78.725C24.678,78.946 24.694,78.957 24.741,78.776C24.774,78.651 24.9,78.552 25.02,78.558C25.156,78.565 25.177,78.593 25.076,78.634C24.98,78.673 24.913,78.938 24.913,79.277C24.913,79.851 25.074,80.042 25.225,79.647ZM31.157,79.428C31.218,79.112 30.96,79.143 30.784,79.474C30.659,79.707 30.672,79.74 30.876,79.701C31.006,79.676 31.133,79.553 31.157,79.428ZM17.841,79.476C17.987,79.384 17.98,79.307 17.801,79.033C17.625,78.765 17.44,78.686 16.824,78.614C16.17,78.538 15.977,78.571 15.436,78.845L14.808,79.165L15.256,79.306C16.135,79.583 17.528,79.675 17.841,79.476ZM21.516,79.083C21.811,79.025 21.989,78.908 22.019,78.754C22.06,78.539 22.012,78.526 21.562,78.629C21.286,78.692 20.663,78.742 20.178,78.74C19.693,78.737 19.296,78.753 19.296,78.774C19.296,78.795 19.363,78.919 19.444,79.049C19.565,79.243 19.72,79.275 20.326,79.229C20.729,79.198 21.265,79.133 21.516,79.083ZM33.248,78.907C33.221,78.715 33.116,78.613 32.947,78.613C32.614,78.613 32.525,79.028 32.84,79.109C33.262,79.219 33.29,79.205 33.248,78.907ZM33.925,78.929C33.925,78.61 33.619,78.655 33.556,78.983C33.531,79.112 33.597,79.201 33.719,79.201C33.84,79.201 33.925,79.089 33.925,78.929ZM31.664,78.363C31.475,78.189 31.201,78.008 31.055,77.961C30.909,77.915 30.79,77.832 30.79,77.777C30.79,77.722 30.716,77.674 30.627,77.671C30.537,77.667 30.346,77.617 30.202,77.559C29.97,77.466 29.961,77.479 30.119,77.673C30.217,77.793 30.342,77.864 30.398,77.83C30.453,77.796 30.652,77.889 30.84,78.037C31.028,78.185 31.182,78.275 31.182,78.237C31.182,78.199 31.338,78.313 31.529,78.49C31.72,78.667 31.905,78.782 31.941,78.746C31.977,78.71 31.852,78.538 31.664,78.363ZM28.961,78.293C28.961,78.23 29.211,78.204 29.516,78.236C29.928,78.279 30.021,78.258 29.876,78.157C29.451,77.862 28.167,78.214 28.385,78.566C28.466,78.697 28.961,78.464 28.961,78.293ZM35.059,78.393C35.017,78.289 34.986,78.319 34.98,78.472C34.974,78.609 35.005,78.686 35.048,78.643C35.092,78.6 35.096,78.487 35.059,78.393ZM34.316,78.352C34.406,78.244 34.564,78.156 34.668,78.156C34.946,78.156 34.825,77.581 34.535,77.525C34.09,77.441 33.584,78.164 33.881,78.461C34.016,78.596 34.139,78.565 34.316,78.352ZM33.475,77.963C33.707,77.408 34.204,77.059 34.643,77.143C35.06,77.223 35.066,77.019 34.652,76.831C34.391,76.711 34.254,76.737 33.871,76.973C33.162,77.411 32.854,77.857 33.047,78.167C33.133,78.304 33.222,78.417 33.244,78.417C33.267,78.417 33.37,78.213 33.475,77.963ZM28.831,77.65C29.01,77.578 29.069,77.516 28.961,77.512C28.685,77.501 27.917,77.99 27.917,78.177C27.917,78.262 28.049,78.208 28.21,78.056C28.372,77.904 28.651,77.721 28.831,77.65ZM17.599,78.065C17.599,77.899 16.912,76.98 16.789,76.98C16.722,76.98 16.548,77.044 16.402,77.122C16.257,77.2 15.997,77.229 15.825,77.185C15.449,77.091 15.002,76.479 15.213,76.349C15.291,76.301 15.375,76.086 15.399,75.871C15.454,75.386 16.034,75.051 16.471,75.252C16.624,75.322 17.19,76.009 17.729,76.777L18.709,78.175L20.015,78.125C20.941,78.09 21.486,78.002 21.889,77.822C22.417,77.586 22.46,77.528 22.499,77.013C22.539,76.469 22.402,76.267 22.253,76.654C22.132,76.97 21.783,76.879 21.636,76.494C21.543,76.249 21.543,76.047 21.637,75.841C21.777,75.534 22.094,75.445 22.235,75.674C22.436,75.999 22.562,75.741 22.562,75.004L22.562,74.204L22.137,74.282C21.904,74.325 21.241,74.446 20.664,74.552C19.824,74.706 19.099,74.723 17.007,74.638C15.573,74.579 14.296,74.488 14.17,74.436C13.97,74.352 13.942,74.422 13.942,74.995C13.942,75.573 13.971,75.642 14.188,75.586C14.497,75.505 14.66,75.748 14.66,76.292C14.66,76.645 14.602,76.726 14.301,76.792C13.899,76.88 13.836,77.123 14.148,77.381C14.262,77.476 15.041,77.683 15.879,77.842C17.723,78.192 17.599,78.176 17.599,78.065ZM18.136,76.904C17.984,76.711 17.86,76.507 17.86,76.45C17.86,76.311 18.241,75.936 18.382,75.936C18.636,75.936 18.881,76.351 18.861,76.748C18.833,77.299 18.502,77.37 18.136,76.904ZM19.969,76.715C19.772,76.272 19.929,75.936 20.331,75.936C20.681,75.936 20.815,76.162 20.758,76.654C20.687,77.263 20.227,77.299 19.969,76.715ZM25.631,78.025C25.675,77.954 25.649,77.895 25.573,77.895C25.497,77.895 25.435,77.954 25.435,78.025C25.435,78.097 25.461,78.156 25.493,78.156C25.524,78.156 25.587,78.097 25.631,78.025ZM33.414,76.601L33.801,76.365L33.243,75.908C32.53,75.326 31.937,75.021 31.515,75.021C31.306,75.021 31.182,74.948 31.182,74.825C31.182,74.675 31.022,74.631 30.496,74.637C29.716,74.645 28.617,75.026 28.671,75.27C28.691,75.359 28.646,75.395 28.573,75.35C28.499,75.304 28.439,75.328 28.439,75.403C28.439,75.478 28.298,75.574 28.127,75.617C27.955,75.66 27.646,75.876 27.441,76.097C27.236,76.318 27.145,76.454 27.24,76.399C27.383,76.318 27.384,76.348 27.245,76.57C27.141,76.736 27.043,76.786 26.99,76.7C26.942,76.622 26.872,76.613 26.831,76.679C26.713,76.87 26.955,77.156 27.138,77.042C27.248,76.974 27.271,76.993 27.207,77.097C27.099,77.272 27.346,77.634 27.575,77.634C27.656,77.634 27.87,77.498 28.048,77.333C28.342,77.061 28.475,77.037 29.419,77.078C30.601,77.129 31.418,77.386 31.847,77.842L32.139,78.154L32.583,77.495C32.827,77.133 33.201,76.73 33.414,76.601ZM29.198,76.891C29.292,76.854 29.405,76.858 29.448,76.902C29.492,76.945 29.415,76.976 29.277,76.97C29.125,76.964 29.094,76.933 29.198,76.891ZM28.735,76.498C28.862,76.465 29.039,76.467 29.127,76.503C29.216,76.539 29.112,76.566 28.896,76.563C28.681,76.56 28.608,76.531 28.735,76.498ZM28.676,76.238C28.77,76.201 28.883,76.205 28.926,76.249C28.969,76.292 28.892,76.323 28.755,76.317C28.602,76.311 28.572,76.28 28.676,76.238ZM31.018,75.457C31.108,75.421 31.255,75.421 31.345,75.457C31.435,75.494 31.361,75.523 31.182,75.523C31.002,75.523 30.929,75.494 31.018,75.457ZM29.335,75.162C29.515,75.004 29.814,74.894 30.053,74.9C30.453,74.908 30.45,74.913 29.927,75.076C29.632,75.168 29.309,75.287 29.209,75.339C29.109,75.391 29.165,75.311 29.335,75.162ZM30.635,74.802C30.729,74.764 30.842,74.768 30.885,74.812C30.929,74.855 30.851,74.886 30.714,74.88C30.562,74.874 30.531,74.843 30.635,74.802ZM75.772,76.915L75.558,76.589L35.125,76.589L35.426,77.24L75.986,77.242L75.772,76.915ZM26.7,75.519C26.658,75.415 26.627,75.446 26.621,75.598C26.615,75.736 26.646,75.813 26.689,75.77C26.733,75.726 26.737,75.614 26.7,75.519ZM27.59,75.544C27.634,75.472 27.609,75.413 27.532,75.413C27.456,75.413 27.394,75.472 27.394,75.544C27.394,75.616 27.42,75.674 27.452,75.674C27.483,75.674 27.546,75.616 27.59,75.544ZM20.798,74.175C21.683,73.918 21.998,73.715 21.51,73.715C21.334,73.715 20.749,73.621 20.211,73.507C18.944,73.238 16.753,73.239 15.574,73.51C15.071,73.625 14.514,73.753 14.335,73.793C14.023,73.864 14.021,73.872 14.27,74.014C15.147,74.515 19.274,74.616 20.798,74.175ZM186.213,132.493C186.213,132.423 186.301,132.4 186.409,132.442C186.517,132.483 186.605,132.54 186.605,132.568C186.605,132.596 186.517,132.619 186.409,132.619C186.301,132.619 186.213,132.562 186.213,132.493ZM179.639,126.655C179.591,126.606 179.644,126.426 179.757,126.253C179.87,126.081 180.044,125.707 180.145,125.421C180.306,124.965 180.304,124.893 180.129,124.826C180.019,124.784 179.798,124.874 179.634,125.029C179.314,125.329 179.131,125.283 179.254,124.933C179.398,124.526 179.724,124.26 180.079,124.26C180.523,124.26 180.67,124.443 180.773,125.121C180.846,125.6 180.807,125.71 180.389,126.198C179.922,126.744 179.801,126.817 179.639,126.655ZM194.525,84.092C194.032,83.994 193.483,83.818 193.305,83.701C193.125,83.583 192.853,83.521 192.694,83.56C192.499,83.61 192.358,83.551 192.248,83.376C192.16,83.235 192.015,83.119 191.926,83.119C191.475,83.119 190.294,81.012 190.173,79.99L190.095,79.331L190.574,79.331C190.88,79.331 191.081,79.402 191.129,79.527C191.242,79.821 192.98,79.808 193.094,79.512C193.236,79.141 192.954,78.622 192.481,78.385C191.877,78.082 189.53,78.056 189.144,78.348C188.75,78.646 188.418,78.584 187.944,78.125L187.508,77.702L179.775,77.731C175.522,77.747 170.896,77.714 169.495,77.658C167.766,77.589 166.907,77.6 166.818,77.693C166.733,77.782 165.81,77.815 164.187,77.787L161.687,77.744L160.313,78.478C159.557,78.881 158.868,79.297 158.781,79.402C158.533,79.702 158.295,79.64 156.762,78.88L155.324,78.167L79.441,78.089L78.788,77.784C78.429,77.615 77.93,77.381 77.678,77.262C77.427,77.143 77.179,76.987 77.129,76.915C77.078,76.843 76.933,76.647 76.807,76.478C76.681,76.31 76.559,76.03 76.536,75.858L76.494,75.544L78.188,75.544C79.19,75.544 79.916,75.598 79.965,75.676C80.086,75.872 156.19,75.774 156.892,75.577C157.221,75.484 157.589,75.234 157.889,74.899C158.15,74.607 158.43,74.368 158.51,74.368C158.591,74.368 158.901,74.545 159.198,74.76C159.496,74.976 159.895,75.152 160.085,75.152C160.275,75.152 160.489,75.21 160.561,75.282C160.699,75.42 166.393,75.463 180.237,75.433C188.13,75.415 188.172,75.413 188.447,75.138C188.688,74.898 188.763,74.883 189.033,75.028C189.268,75.154 190.052,75.176 192.316,75.123C193.952,75.084 196.323,75.093 197.586,75.143L199.882,75.234L200.501,75.651C201.028,76.007 201.307,76.09 202.384,76.21C204.778,76.476 204.82,76.487 204.863,76.856C204.895,77.125 204.813,77.23 204.435,77.411C204.177,77.533 203.815,77.634 203.629,77.634C203.337,77.634 203.314,77.606 203.46,77.429C203.607,77.252 203.588,77.234 203.313,77.292C203.139,77.329 202.38,77.485 201.627,77.639C200.875,77.793 200.101,78.032 199.908,78.169C199.715,78.307 199.288,78.456 198.958,78.501C198.629,78.546 198.36,78.636 198.36,78.701C198.36,78.766 198.604,79.052 198.903,79.337C199.355,79.767 199.537,79.854 199.982,79.854C200.376,79.854 200.56,79.785 200.68,79.593C200.868,79.292 201.336,79.252 201.683,79.506C201.898,79.663 201.907,79.746 201.767,80.33C201.569,81.153 200.969,82.208 200.34,82.837C199.795,83.382 198.732,83.937 198.445,83.827C198.343,83.788 198.033,83.877 197.756,84.025C197.159,84.345 195.928,84.371 194.525,84.092ZM197.65,83.844C197.82,83.733 198.168,83.642 198.425,83.642C198.681,83.642 199.051,83.543 199.246,83.422C199.774,83.096 200.711,82.175 200.711,81.982C200.711,81.889 200.776,81.813 200.856,81.813C200.938,81.813 200.972,81.698 200.934,81.552C200.896,81.408 200.913,81.319 200.97,81.355C201.195,81.494 201.229,80.989 201.007,80.81C200.794,80.639 200.802,80.63 201.102,80.695C201.282,80.734 201.349,80.73 201.251,80.686C201.117,80.626 201.112,80.582 201.229,80.509C201.342,80.44 201.326,80.39 201.172,80.331C201.051,80.284 200.992,80.303 201.036,80.374C201.324,80.84 198.522,80.477 196.939,79.842C195.866,79.413 195.565,79.403 196.431,79.826C197.158,80.182 198.151,80.459 199.586,80.706C200.225,80.816 200.842,80.966 200.958,81.04C201.125,81.146 201.108,81.156 200.874,81.092C200.712,81.048 200.58,81.064 200.58,81.128C200.58,81.397 199.589,82.37 199.021,82.658C198.314,83.016 197.18,83.319 196.129,83.431C195.325,83.516 194.244,83.29 193.402,82.861C192.817,82.562 191.635,81.408 191.35,80.856C191.244,80.651 191.123,80.517 191.081,80.559C191.039,80.601 190.923,80.568 190.824,80.485C190.428,80.157 190.4,80.587 190.767,81.36C191.122,82.108 192.152,83.232 192.512,83.265C192.868,83.297 192.953,83.326 193.369,83.551C194.416,84.119 196.964,84.294 197.65,83.844ZM194.279,82.348C193.758,81.852 193.126,81.12 192.874,80.722C192.623,80.323 192.344,79.994 192.254,79.991C192.026,79.982 192.043,80.045 192.437,80.673C192.904,81.417 193.692,82.309 194.338,82.825C195.289,83.585 195.25,83.273 194.279,82.348ZM196.923,83.06C196.923,83.027 196.663,82.886 196.345,82.745C195.496,82.369 194.46,81.542 193.724,80.652C193.062,79.851 192.755,79.659 193.252,80.357C193.745,81.049 195.359,82.448 196.052,82.783C196.726,83.109 196.923,83.172 196.923,83.06ZM198.042,82.742C198.003,82.678 197.808,82.586 197.61,82.537C196.739,82.322 194.403,80.729 193.702,79.872C193.547,79.683 193.385,79.562 193.343,79.604C193.224,79.721 193.988,80.558 194.75,81.146C195.833,81.981 198.316,83.185 198.042,82.742ZM199.333,81.835C199.264,81.775 198.902,81.659 198.528,81.577C197.688,81.393 195.798,80.385 194.859,79.62C194.473,79.306 194.125,79.082 194.085,79.122C193.972,79.235 194.278,79.546 195.144,80.197C196.235,81.017 197.321,81.543 198.347,81.747C199.44,81.965 199.486,81.969 199.333,81.835ZM196.198,81.316C196.13,81.259 195.732,80.954 195.313,80.64C194.894,80.325 194.324,79.801 194.046,79.476C193.767,79.15 193.496,78.927 193.443,78.981C193.297,79.127 195.079,80.864 195.68,81.161C196.24,81.438 196.399,81.486 196.198,81.316ZM200.188,81.314C200.188,81.255 199.733,81.136 199.176,81.051C197.486,80.79 196.509,80.348 194.843,79.094C194.622,78.928 194.441,78.852 194.441,78.927C194.441,79.11 195.672,80.007 196.471,80.407C197.861,81.103 200.188,81.671 200.188,81.314ZM191.96,80.768C191.96,80.696 191.934,80.638 191.902,80.638C191.871,80.638 191.808,80.696 191.764,80.768C191.72,80.84 191.745,80.899 191.822,80.899C191.898,80.899 191.96,80.84 191.96,80.768ZM191.829,80.458C191.829,80.43 191.74,80.334 191.63,80.243C191.464,80.105 191.445,80.113 191.514,80.293C191.584,80.476 191.829,80.604 191.829,80.458ZM200.711,80.246C200.711,80.174 200.48,80.115 200.199,80.115C199.917,80.115 199.579,80.077 199.448,80.031C199.281,79.972 199.248,79.988 199.339,80.086C199.457,80.212 199.835,80.301 200.482,80.357C200.608,80.367 200.711,80.318 200.711,80.246ZM190.749,80.167C190.706,80.123 190.593,80.119 190.499,80.156C190.394,80.198 190.425,80.229 190.578,80.235C190.715,80.241 190.792,80.21 190.749,80.167ZM201.625,79.723C201.625,79.651 201.493,79.594 201.331,79.595C201.093,79.596 201.075,79.621 201.233,79.723C201.486,79.887 201.625,79.887 201.625,79.723ZM190.98,79.593C190.936,79.521 190.756,79.462 190.581,79.462C190.405,79.462 190.262,79.521 190.262,79.593C190.262,79.664 190.442,79.723 190.661,79.723C190.895,79.723 191.027,79.669 190.98,79.593ZM198.033,79.593C197.989,79.521 197.853,79.462 197.732,79.462C197.61,79.462 197.138,79.286 196.683,79.07C195.763,78.635 195.336,78.548 195.945,78.92C196.389,79.19 197.682,79.706 197.943,79.716C198.037,79.72 198.078,79.664 198.033,79.593ZM158.728,78.949C158.804,78.944 159.007,78.807 159.179,78.646C159.351,78.484 159.876,78.158 160.347,77.921L161.202,77.491L160.046,77.557C159.411,77.593 158.806,77.693 158.701,77.78C158.551,77.904 158.278,77.862 157.375,77.575C156.75,77.375 156.165,77.192 156.075,77.166C155.774,77.08 155.896,76.719 156.226,76.719C156.399,76.719 156.943,76.536 157.435,76.313C158.282,75.928 158.366,75.914 159.055,76.052C159.454,76.131 159.948,76.197 160.152,76.197C160.51,76.197 160.516,76.188 160.297,75.947C160.173,75.809 159.755,75.568 159.369,75.412L158.668,75.127L157.91,75.471C157.494,75.66 157.045,75.876 156.912,75.949C156.78,76.023 156.222,76.085 155.672,76.087C155.122,76.088 137.656,76.131 116.86,76.182C84.201,76.261 79.009,76.299 78.756,76.463C78.365,76.714 78.384,76.792 78.886,77C79.237,77.146 85.744,77.19 116.534,77.254C141.966,77.307 154.077,77.376 154.767,77.472C155.788,77.613 156.659,78.007 157.545,78.727C157.788,78.924 158.061,79.029 158.263,79.002C158.443,78.977 158.652,78.954 158.728,78.949ZM193.923,78.164C193.849,78.025 193.838,77.879 193.9,77.841C194.06,77.742 196.22,77.718 196.374,77.813C196.445,77.857 197.131,77.83 197.897,77.753C199.465,77.595 199.798,77.642 199.517,77.983C199.365,78.167 199.368,78.189 199.535,78.134C199.643,78.099 199.8,77.932 199.885,77.764C199.969,77.596 200.204,77.385 200.407,77.295C200.769,77.135 200.764,77.132 200.155,77.122C199.814,77.116 199.535,77.057 199.535,76.991C199.535,76.803 199.823,76.754 200.319,76.859C201.163,77.037 203.144,77.136 202.931,76.989C202.823,76.915 202.559,76.851 202.343,76.847C202.128,76.844 201.489,76.758 200.925,76.658C200.171,76.524 199.848,76.403 199.709,76.205C199.54,75.964 199.386,75.936 198.222,75.936C197.271,75.936 196.922,75.979 196.921,76.099C196.919,76.229 196.898,76.229 196.815,76.098C196.736,75.974 196.005,75.939 193.78,75.953C190.744,75.971 189.141,75.87 188.855,75.64C188.656,75.481 188.678,75.458 188.324,76.205C187.971,76.952 187.969,77.245 188.317,77.687C188.584,78.027 188.602,78.03 188.927,77.817C189.297,77.575 190.941,77.518 192.458,77.695C193.164,77.778 193.3,77.837 193.402,78.104C193.474,78.295 193.626,78.417 193.79,78.417C194.016,78.417 194.037,78.376 193.923,78.164ZM188.684,77.149C188.535,76.757 188.624,76.197 188.835,76.197C188.91,76.197 188.935,76.256 188.891,76.327C188.809,76.459 190.238,76.515 194.115,76.531C196.654,76.542 197.707,76.599 197.707,76.725C197.707,76.901 197.322,76.951 195.878,76.96C195.124,76.965 194.362,77 194.186,77.038C194.009,77.076 193.629,77.043 193.341,76.966C192.955,76.862 192.804,76.864 192.768,76.973C192.731,77.082 192.671,77.083 192.545,76.978C192.434,76.887 192.19,76.871 191.872,76.936C191.597,76.992 191.284,77.027 191.176,77.014C191.068,77.001 190.775,76.966 190.523,76.937C189.932,76.869 188.881,77.136 188.923,77.344C188.984,77.639 188.82,77.506 188.684,77.149ZM198.164,76.938C198.588,76.646 199.143,76.551 199.143,76.771C199.143,76.874 199.217,76.983 199.307,77.013C199.396,77.044 199.117,77.079 198.686,77.093C197.985,77.116 197.93,77.099 198.164,76.938ZM159.866,77.027L161.071,76.871L159.928,76.893C159.213,76.907 158.802,76.866 158.831,76.785C158.856,76.713 159.077,76.667 159.321,76.683L159.765,76.711L159.373,76.525C158.836,76.27 158.534,76.283 157.902,76.589C157.605,76.732 157.303,76.85 157.232,76.85C157.161,76.85 157.076,76.894 157.042,76.948C156.952,77.094 158.302,76.975 158.492,76.82C158.671,76.674 158.694,76.727 158.581,77.022C158.526,77.165 158.365,77.198 157.96,77.15L157.414,77.086L157.871,77.349C158.292,77.59 158.342,77.594 158.495,77.397C158.608,77.251 159.047,77.133 159.866,77.027ZM167.6,76.981C167.828,76.894 167.916,76.894 167.862,76.981C167.815,77.058 167.969,77.111 168.239,77.111C168.491,77.111 168.733,77.052 168.777,76.981C168.821,76.909 168.928,76.851 169.013,76.852C169.107,76.853 169.091,76.904 168.973,76.981C168.702,77.155 169.753,77.156 170.213,76.981C170.44,76.894 170.528,76.894 170.475,76.981C170.299,77.264 171.367,77.093 172.107,76.719C173.07,76.233 173.324,76.212 172.434,76.692C171.789,77.04 171.786,77.045 172.174,77.084C172.39,77.105 172.965,76.973 173.45,76.791C173.936,76.608 174.582,76.457 174.886,76.456C175.189,76.455 175.702,76.368 176.026,76.262L176.613,76.071L175.764,76.119C175.298,76.146 174.739,76.204 174.524,76.249C174.221,76.312 174.192,76.303 174.393,76.209C174.573,76.125 174.28,76.094 173.446,76.109C172.781,76.121 172.238,76.087 172.238,76.034C172.238,75.887 171.736,75.916 171.429,76.08C171.228,76.188 171.135,76.184 171.062,76.066C170.993,75.954 170.794,75.937 170.393,76.008C170.079,76.064 169.451,76.097 168.998,76.083C168.252,76.059 168.124,76.096 167.659,76.464C167.376,76.688 167.144,76.926 167.144,76.991C167.144,77.142 167.18,77.141 167.6,76.981ZM170.801,76.799C170.801,76.77 170.893,76.712 171.004,76.669C171.12,76.625 171.173,76.647 171.127,76.721C171.05,76.845 170.801,76.904 170.801,76.799ZM174.001,76.981C174.103,76.815 173.931,76.815 173.675,76.981C173.506,77.09 173.509,77.107 173.7,77.109C173.821,77.11 173.957,77.052 174.001,76.981ZM177.985,76.926C178.896,76.808 179.597,76.635 180.075,76.409L180.793,76.069L179.804,76.068C178.554,76.066 176.356,76.385 175.209,76.734C174.725,76.881 174.328,77.027 174.328,77.057C174.328,77.177 176.697,77.092 177.985,76.926ZM181.059,76.859C181.454,76.72 181.743,76.662 181.701,76.728C181.66,76.795 181.545,76.85 181.446,76.85C181.347,76.85 181.225,76.915 181.176,76.995C181.074,77.16 182.058,77.1 182.48,76.915C182.658,76.837 182.702,76.85 182.635,76.958C182.568,77.068 182.739,77.111 183.24,77.111C183.815,77.111 184.067,77.03 184.652,76.657C185.044,76.408 185.423,76.203 185.495,76.201C185.567,76.2 185.376,76.349 185.07,76.532C184.765,76.715 184.515,76.926 184.515,77.001C184.515,77.076 184.736,77.007 185.005,76.848C185.487,76.565 185.491,76.564 185.246,76.835C184.933,77.182 185.106,77.188 185.661,76.849C186.206,76.517 186.33,76.515 185.934,76.846C185.533,77.179 185.6,77.173 186.54,76.791C186.971,76.616 187.342,76.381 187.365,76.27C187.412,76.045 187.189,75.991 187.062,76.197C187.018,76.269 186.911,76.327 186.826,76.325C186.722,76.324 186.729,76.286 186.847,76.211C187.092,76.056 181.695,76.035 181.411,76.19C181.286,76.258 180.789,76.439 180.305,76.592C179.82,76.745 179.391,76.924 179.35,76.991C179.218,77.204 180.32,77.119 181.059,76.859ZM186.67,76.981C186.715,76.909 186.692,76.85 186.62,76.85C186.549,76.85 186.453,76.909 186.409,76.981C186.365,77.052 186.387,77.111 186.459,77.111C186.531,77.111 186.626,77.052 186.67,76.981ZM166.44,76.774C166.396,76.66 166.361,76.513 166.361,76.447C166.361,76.281 162.611,76.292 162.508,76.458C162.463,76.53 162.563,76.596 162.729,76.604C162.995,76.617 163,76.626 162.769,76.682C161.933,76.883 162.463,76.981 164.389,76.981C166.278,76.981 166.51,76.957 166.44,76.774ZM167.412,76.389C167.624,76.28 167.797,76.162 167.797,76.128C167.797,75.966 167.27,76.094 166.996,76.323C166.626,76.631 166.87,76.67 167.412,76.389Z" style="fill-rule:nonzero;"/>
    </g>
</svg>
