<?xml version="1.0" encoding="UTF-8" standalone="no"?>
<!DOCTYPE svg PUBLIC "-//W3C//DTD SVG 1.1//EN" "http://www.w3.org/Graphics/SVG/1.1/DTD/svg11.dtd">
<svg width="100%" height="100%" viewBox="0 0 270 85" version="1.1" xmlns="http://www.w3.org/2000/svg" xmlns:xlink="http://www.w3.org/1999/xlink" xml:space="preserve" xmlns:serif="http://www.serif.com/" style="fill-rule:evenodd;clip-rule:evenodd;stroke-linejoin:round;stroke-miterlimit:2;">
    <g id="g1" transform="matrix(1.42136,0,0,1.42136,-12.7343,-10.4304)">
        <path id="path3" d="M12.318,59.806C12.072,59.595 10.769,58.448 10.769,58.448C10.256,58.042 9.774,57.106 9.658,56.293C9.611,55.956 9.604,55.669 9.643,55.655C9.683,55.641 9.702,50.021 9.686,43.166L9.657,30.703L10.028,29.988C10.232,29.595 10.563,29.07 10.763,28.822L11.126,28.372L11.196,24.69C11.274,20.591 11.357,19.552 11.669,18.741C11.786,18.436 11.882,18.18 11.882,18.173C11.882,18.165 11.789,18.135 11.675,18.105C11.497,18.058 11.477,17.999 11.534,17.693C11.592,17.384 11.556,17.283 11.263,16.941C10.789,16.387 10.181,15.341 10.046,14.847C9.946,14.484 9.871,14.406 9.446,14.226C9.178,14.113 8.959,13.957 8.959,13.88C8.959,13.803 9.226,13.567 9.553,13.356C10.111,12.994 10.15,12.943 10.21,12.492C10.245,12.228 10.409,11.74 10.576,11.407C10.827,10.904 10.861,10.756 10.775,10.531C10.573,9.998 10.632,9.871 11.083,9.871C11.414,9.871 11.585,9.794 11.965,9.473C12.491,9.03 13.141,8.713 13.747,8.606C14.278,8.512 14.361,8.434 14.556,7.847C14.791,7.138 15.034,7.168 15.372,7.949C15.617,8.513 15.655,8.55 16.05,8.615C16.535,8.694 17.358,9.019 17.744,9.284C18.07,9.508 18.297,9.515 18.778,9.313C19.269,9.108 19.378,9.194 19.305,9.729C19.271,9.973 19.288,10.191 19.343,10.225C19.397,10.259 19.441,10.239 19.441,10.181C19.441,9.996 19.916,10.28 20.032,10.535C20.138,10.768 20.163,10.772 21.126,10.718C23.129,10.605 25.436,10.606 25.512,10.719C25.556,10.783 25.587,10.787 25.588,10.728C25.59,10.625 31.376,10.616 31.72,10.718C31.813,10.746 40.142,10.797 50.229,10.831C60.316,10.865 69.069,10.82 69.178,10.804C69.286,10.787 85.167,10.763 104.469,10.75C137.643,10.729 139.573,10.718 139.756,10.552C139.927,10.398 140.098,10.385 141.221,10.442C142.184,10.491 142.782,10.464 143.684,10.33C145.136,10.116 145.819,9.89 146.965,9.244C147.862,8.74 148.314,8.651 148.288,8.986C148.28,9.091 148.397,9.21 148.585,9.288C149.126,9.513 150.801,10.36 151.348,10.684C151.965,11.05 152.443,11.111 153.139,10.913C154.231,10.603 154.421,10.57 154.54,10.669C154.615,10.731 155.195,10.737 156.117,10.686C158.528,10.552 160.967,10.888 163.898,11.757C166.079,12.403 165.984,12.402 167.539,11.81C168.33,11.509 169.329,11.218 170.022,11.086C171.251,10.853 172.021,10.684 173.247,10.377C173.861,10.223 176.582,9.854 176.936,9.877C177.131,9.889 175.948,10.366 174.956,10.674C174.381,10.853 173.547,11.181 173.103,11.405C172.659,11.628 172.136,11.867 171.94,11.937C171.285,12.169 169.636,13.011 169.464,13.201C169.303,13.379 169.306,13.392 169.532,13.443C170.486,13.661 170.941,13.721 172.291,13.802C174.396,13.929 175.854,13.764 177.286,13.239C177.531,13.148 177.827,13.062 177.943,13.046C178.31,12.995 179.572,12.4 181.079,11.566C182.773,10.629 183.536,10.3 184.788,9.965C185.591,9.75 185.909,9.722 187.56,9.721C189.505,9.721 189.583,9.734 190.986,10.311C191.07,10.345 191.206,10.33 191.289,10.277C191.488,10.15 191.349,10.011 190.533,9.518C189.858,9.11 189.936,9.115 191.44,9.569C191.939,9.72 192.596,9.901 192.901,9.972C193.744,10.167 195.184,10.959 195.788,11.559C195.966,11.736 196.132,11.786 196.537,11.786C196.957,11.786 197.122,11.84 197.39,12.063C197.573,12.216 197.842,12.424 197.988,12.525C198.213,12.682 198.249,12.774 198.223,13.121C198.196,13.493 198.159,13.543 197.821,13.659C197.617,13.729 197.283,13.972 197.079,14.197C196.589,14.74 196.465,14.726 196.473,14.129L196.479,13.651L195.37,13.656C194.494,13.661 194.137,13.708 193.668,13.881C193.342,14.001 193.053,14.121 193.026,14.147C192.907,14.266 193.137,14.727 193.536,15.168C193.981,15.659 194.254,15.744 194.816,15.566C195.146,15.461 195.049,15.716 194.715,15.833C194.527,15.898 194.352,16.067 194.252,16.278C194.067,16.668 193.7,16.784 192.932,16.698C192.547,16.654 192.408,16.574 192.08,16.206C191.637,15.71 190.484,14.141 190.478,14.027C190.472,13.901 189.841,13.241 189.575,13.081C189.02,12.749 187.872,12.462 187.329,12.521C186.584,12.601 185.357,13.037 184.182,13.638C181.397,15.064 180.023,15.5 176.523,16.067C175.185,16.284 174.575,16.328 172.945,16.329C169.332,16.33 167.468,15.98 164.264,14.697C162.297,13.91 161.432,13.61 160.799,13.495C160.522,13.445 159.958,13.312 159.546,13.199C159.134,13.087 158.645,12.995 158.459,12.995C158.161,12.995 158.133,13.018 158.221,13.182C158.33,13.385 159.303,13.923 160.346,14.357C160.706,14.507 161.459,14.85 162.02,15.118C162.58,15.387 163.373,15.7 163.783,15.813C164.534,16.021 165.82,16.525 165.757,16.588C165.683,16.662 162.967,16.302 162.21,16.118C160.817,15.78 158.126,15.213 157.912,15.213C157.799,15.213 157.132,14.993 156.431,14.724C154.368,13.934 154.532,13.963 154.002,14.295C153.507,14.605 153.064,14.776 151.879,15.115C151.464,15.234 150.869,15.418 150.559,15.524C149.925,15.74 149.604,15.767 149.508,15.612C149.472,15.554 149.496,15.442 149.561,15.364C149.657,15.249 149.606,15.191 149.292,15.055C149.08,14.963 148.77,14.852 148.604,14.809C148.437,14.765 147.58,14.541 146.698,14.311C145.816,14.081 144.592,13.729 143.977,13.528C142.775,13.136 142.301,13.086 138.424,12.948C137.317,12.909 53.949,12.76 51.392,12.793C51.308,12.794 46.75,12.823 41.262,12.856L31.284,12.917L30.866,13.162C30.618,13.307 30.422,13.507 30.385,13.653C30.348,13.8 30.171,13.981 29.947,14.101C29.74,14.211 29.483,14.37 29.376,14.454C29.185,14.604 29.186,14.612 29.42,14.861C29.552,15.001 29.832,15.167 30.043,15.23C30.864,15.476 30.286,15.718 28.955,15.685L27.935,15.661L26.407,14.882C25.566,14.454 24.813,14.104 24.733,14.104C24.653,14.104 24.235,13.988 23.803,13.846C23.251,13.664 22.707,13.571 21.961,13.533C20.819,13.474 20.349,13.573 20.347,13.875C20.347,13.973 20.235,14.281 20.098,14.558C19.919,14.923 19.85,15.232 19.847,15.679C19.845,16.106 19.797,16.336 19.691,16.424C19.553,16.538 19.553,16.576 19.691,16.786C19.775,16.915 19.844,17.068 19.844,17.128C19.844,17.301 19.417,17.409 19.095,17.317C18.874,17.253 18.73,17.275 18.539,17.401C18.398,17.495 18.055,17.687 17.778,17.828C16.635,18.411 14.876,21.238 14.07,23.786C13.417,25.85 13.392,26.092 13.388,30.307L13.385,34.111L14.301,34.928L14.301,37.953L13.394,39.016L13.394,41.376L14.301,42.134L14.301,45.213L13.394,46.201L13.394,48.762L14.301,49.506L14.301,52.543L13.902,53.015C13.544,53.44 13.495,53.567 13.411,54.281C13.36,54.718 13.324,55.694 13.331,56.451C13.345,57.981 13.364,57.955 12.688,57.343C12.494,57.167 12.2,56.952 12.034,56.866C11.868,56.779 11.582,56.59 11.399,56.446L11.066,56.184L11.203,53.517L10.471,52.706L10.471,49.505L11.176,48.967L11.176,46.075L10.471,45.369L10.471,42.134L11.176,41.596L11.176,38.837L10.471,38.153L10.471,34.939L11.185,34.313L11.126,29.475L10.759,30.231C10.395,30.982 10.392,30.997 10.331,32.65C10.297,33.564 10.259,39.235 10.245,45.252L10.221,56.191L10.419,56.868C10.629,57.268 11.02,57.645 11.062,57.645C11.104,57.645 11.686,58.191 12.356,58.858C13.45,59.947 12.875,59.511 12.934,59.904C12.992,60.289 13.545,60.571 13.364,60.618C13.166,60.67 12.598,60.047 12.598,60.047L12.318,59.806ZM12.639,55.827C12.675,55.714 12.674,55.289 12.636,54.883C12.567,54.153 12.563,54.144 12.224,54.04C11.834,53.92 11.859,53.852 11.88,54.975C11.891,55.572 11.928,55.707 12.115,55.854C12.408,56.085 12.56,56.077 12.639,55.827ZM13.037,51.905C13.183,51.743 13.217,51.554 13.203,50.978C13.185,50.291 13.166,50.236 12.832,49.921L12.48,49.589L12.08,50.001C11.695,50.398 11.681,50.437 11.681,51.094C11.681,51.578 11.725,51.811 11.833,51.901C11.916,51.971 12.084,52.205 12.206,52.421L12.427,52.815L12.641,52.461C12.758,52.267 12.937,52.016 13.037,51.905ZM11.318,51.104C11.4,50.63 11.387,50.554 11.192,50.359L10.975,50.142L10.975,50.929C10.975,51.857 11.171,51.958 11.318,51.104ZM13.896,50.867C13.895,50.293 13.865,50.083 13.797,50.187C13.667,50.388 13.667,51.699 13.797,51.699C13.856,51.699 13.897,51.356 13.896,50.867ZM11.976,49.61C12.146,49.403 12.285,49.133 12.285,49.009C12.285,48.812 12.227,48.841 11.801,49.259C11.341,49.709 11.239,49.985 11.533,49.985C11.606,49.985 11.805,49.816 11.976,49.61ZM13.528,49.818C13.565,49.781 13.459,49.668 13.293,49.567C13.127,49.466 12.991,49.338 12.991,49.281C12.991,49.225 12.945,49.179 12.89,49.179C12.721,49.179 12.777,49.405 13.008,49.651C13.229,49.886 13.404,49.942 13.528,49.818ZM11.328,49.28C11.362,49.225 11.297,49.179 11.183,49.179C11.068,49.179 10.975,49.225 10.975,49.28C10.975,49.335 11.04,49.381 11.12,49.381C11.2,49.381 11.294,49.335 11.328,49.28ZM13.696,49.28C13.696,49.225 13.651,49.179 13.596,49.179C13.54,49.179 13.495,49.225 13.495,49.28C13.495,49.335 13.54,49.381 13.596,49.381C13.651,49.381 13.696,49.335 13.696,49.28ZM11.999,48.373C12.091,48.166 12.205,48.07 12.36,48.07C12.573,48.07 12.588,48.028 12.588,47.425C12.588,46.792 12.582,46.778 12.27,46.669C12.096,46.608 11.937,46.559 11.918,46.559C11.898,46.559 11.882,46.98 11.882,47.496C11.882,48.091 11.838,48.478 11.761,48.554C11.677,48.638 11.675,48.675 11.753,48.675C11.815,48.675 11.926,48.539 11.999,48.373ZM13.002,44.61C13.187,44.37 13.219,44.209 13.202,43.616C13.183,42.958 13.157,42.883 12.833,42.55L12.485,42.191L12.084,42.586C11.691,42.973 11.684,42.994 11.682,43.711C11.681,44.113 11.715,44.442 11.756,44.442C11.798,44.442 11.965,44.653 12.127,44.91L12.422,45.377L12.601,45.136C12.7,45.004 12.88,44.767 13.002,44.61ZM11.319,43.734C11.381,43.263 11.253,42.829 11.052,42.829C11.009,42.829 10.975,43.168 10.975,43.582C10.975,44.181 11.004,44.324 11.114,44.282C11.192,44.252 11.282,44.01 11.319,43.734ZM13.906,44.213C13.901,44.173 13.897,43.811 13.896,43.409C13.895,42.9 13.865,42.724 13.797,42.829C13.66,43.042 13.666,44.368 13.805,44.322C13.864,44.302 13.91,44.253 13.906,44.213ZM11.976,42.252C12.171,42.016 12.285,41.763 12.285,41.572L12.285,41.267L12.089,41.587C11.982,41.763 11.759,42.007 11.594,42.129C11.424,42.255 11.317,42.411 11.347,42.49C11.437,42.725 11.653,42.644 11.976,42.252ZM13.532,42.447C13.559,42.404 13.449,42.279 13.286,42.17C13.124,42.062 12.991,41.939 12.991,41.897C12.991,41.855 12.945,41.821 12.89,41.821C12.696,41.821 12.792,42.111 13.055,42.318C13.34,42.542 13.454,42.573 13.532,42.447ZM11.277,41.922C11.4,41.843 11.385,41.824 11.202,41.823C11.077,41.822 10.975,41.867 10.975,41.922C10.975,42.049 11.082,42.049 11.277,41.922ZM13.77,41.861C13.736,41.828 13.649,41.824 13.577,41.853C13.496,41.886 13.52,41.909 13.638,41.914C13.744,41.919 13.803,41.895 13.77,41.861ZM12.084,40.848C12.084,40.771 12.192,40.713 12.336,40.713C12.575,40.713 12.588,40.684 12.588,40.133C12.588,39.558 12.584,39.552 12.235,39.442L11.882,39.332L11.882,40.204C11.882,40.758 11.836,41.128 11.756,41.219C11.687,41.298 11.732,41.277 11.857,41.173C11.982,41.069 12.084,40.923 12.084,40.848ZM12.679,37.808C12.787,37.597 12.947,37.364 13.034,37.292C13.154,37.192 13.191,36.974 13.185,36.392C13.178,35.64 13.17,35.616 12.827,35.331L12.476,35.039L12.078,35.427C11.694,35.802 11.681,35.837 11.681,36.488C11.681,36.965 11.725,37.197 11.833,37.287C11.916,37.356 12.083,37.588 12.204,37.803C12.325,38.017 12.437,38.193 12.453,38.193C12.469,38.193 12.571,38.02 12.679,37.808ZM11.232,36.976C11.269,36.916 11.319,36.674 11.344,36.439C11.378,36.112 11.34,35.953 11.185,35.766L10.982,35.522L10.978,36.303C10.975,37.021 11.062,37.251 11.232,36.976ZM13.898,36.322C13.898,35.84 13.861,35.583 13.797,35.623C13.742,35.657 13.696,36 13.696,36.385C13.696,36.784 13.74,37.084 13.797,37.084C13.855,37.084 13.898,36.763 13.898,36.322ZM11.794,35.245C12.042,35.04 12.286,34.589 12.282,34.341C12.279,34.114 12.277,34.114 12.129,34.313C11.851,34.687 11.711,34.834 11.483,34.994C11.358,35.082 11.286,35.202 11.323,35.262C11.412,35.407 11.607,35.4 11.794,35.245ZM13.545,35.169C13.579,35.114 13.551,35.069 13.481,35.069C13.412,35.069 13.227,34.947 13.072,34.798C12.759,34.498 12.69,34.642 12.966,35.021C13.148,35.272 13.436,35.346 13.545,35.169ZM11.378,34.665C11.378,34.61 11.287,34.565 11.177,34.565C11.066,34.565 10.975,34.61 10.975,34.665C10.975,34.721 11.066,34.766 11.177,34.766C11.287,34.766 11.378,34.721 11.378,34.665ZM13.696,34.665C13.696,34.61 13.651,34.565 13.596,34.565C13.54,34.565 13.495,34.61 13.495,34.665C13.495,34.721 13.54,34.766 13.596,34.766C13.651,34.766 13.696,34.721 13.696,34.665ZM12.381,33.557L12.605,33.557L12.56,31.919C12.535,31.018 12.46,29.588 12.392,28.741C12.246,26.92 12.354,25.985 12.939,24.023C13.349,22.651 13.768,21.759 14.572,20.547C15.175,19.638 15.218,19.438 14.942,18.816C14.819,18.538 14.713,18.438 14.544,18.438C14.417,18.438 14.288,18.478 14.258,18.527C14.227,18.577 14.041,18.647 13.844,18.684C13.549,18.739 13.432,18.706 13.18,18.494C13.012,18.352 12.834,18.237 12.785,18.237C12.664,18.237 12.478,18.597 12.558,18.677C12.593,18.712 12.574,18.741 12.515,18.741C12.457,18.741 12.386,18.865 12.359,19.018C12.331,19.17 12.216,19.658 12.103,20.101C11.785,21.349 11.654,23.493 11.735,26.145C11.774,27.422 11.816,29.215 11.829,30.13C11.882,34.007 11.878,33.924 12.022,33.733C12.096,33.636 12.257,33.557 12.381,33.557ZM15.475,17.727C15.638,17.182 15.593,17.027 15.27,17.027C14.775,17.027 14.712,17.102 14.859,17.512C14.932,17.717 15.018,17.967 15.05,18.069C15.142,18.363 15.329,18.213 15.475,17.727ZM12.586,17.229C12.696,17.173 12.855,17.128 12.939,17.128C13.035,17.128 13.092,17.033 13.092,16.873C13.092,16.608 13.045,16.576 12.531,16.488C12.238,16.438 12.217,16.457 12.103,16.884C11.938,17.501 11.945,17.552 12.185,17.431C12.295,17.375 12.476,17.284 12.586,17.229ZM19.139,16.689C19.139,16.252 18.531,15.213 18.275,15.213C18.215,15.213 18.064,15.322 17.938,15.456C17.691,15.719 17.556,16.441 17.761,16.409C17.826,16.399 18.015,16.447 18.182,16.517C18.348,16.587 18.575,16.682 18.685,16.728C18.987,16.855 19.139,16.841 19.139,16.689ZM193.103,15.641C192.817,15.322 192.512,14.926 192.426,14.759C192.34,14.593 192.207,14.421 192.132,14.376C192.056,14.332 191.994,14.212 191.994,14.11C191.994,13.882 192.835,13.527 194.161,13.194C195.023,12.978 195.127,12.973 196.258,13.093C196.913,13.162 197.474,13.194 197.505,13.162C197.609,13.058 197.446,12.794 197.279,12.794C197.189,12.794 196.983,12.653 196.822,12.481C196.642,12.288 196.472,12.191 196.379,12.229C196.295,12.262 196.167,12.314 196.094,12.344C196.02,12.374 195.737,12.242 195.464,12.05C194.7,11.512 193.422,10.823 192.729,10.575L192.103,10.351L191.789,10.615C191.369,10.968 191.038,10.953 189.747,10.526C188.818,10.219 188.554,10.173 187.685,10.173C186.445,10.173 185.034,10.408 183.986,10.79C183.545,10.95 182.389,11.509 181.416,12.032C179.276,13.182 178.985,13.311 177.38,13.822L176.12,14.222L173.499,14.175C170.02,14.111 168.87,13.914 165.436,12.791C162.102,11.701 160.275,11.336 157.921,11.291L156.554,11.265L155.199,11.715C154.455,11.963 153.482,12.263 153.039,12.383C152.595,12.503 152.074,12.669 151.88,12.752C151.686,12.834 151.096,13.009 150.569,13.14C149.542,13.396 149.543,13.405 150.64,13.644C151.667,13.867 152.994,13.851 153.744,13.606C154.077,13.498 154.588,13.337 154.88,13.25C155.172,13.163 155.739,12.937 156.14,12.749C157.525,12.1 159.307,11.797 160.574,11.998C161.252,12.105 163.812,12.812 165.253,13.289C167.471,14.025 169.591,14.454 171.823,14.619C172.69,14.684 173.427,14.781 173.462,14.835C173.497,14.889 173.463,15.053 173.387,15.199C173.311,15.345 173.248,15.544 173.248,15.641C173.247,15.922 174.122,15.875 176.542,15.462L176.864,15.408L176.7,14.965C176.569,14.614 176.561,14.492 176.659,14.375C176.803,14.201 177.625,14.056 177.808,14.172C177.877,14.216 177.976,14.253 178.026,14.254C178.276,14.258 178.147,14.481 177.829,14.596C177.547,14.698 177.475,14.774 177.5,14.944C177.535,15.193 177.942,15.273 178.637,15.168C179.304,15.067 179.348,15.006 179.142,14.466C179.044,14.209 178.981,13.982 179.003,13.962C179.097,13.875 181.516,12.752 182.066,12.539C182.399,12.411 182.966,12.171 183.326,12.007C183.687,11.843 184.571,11.515 185.292,11.277C186.524,10.871 186.668,10.846 187.713,10.851C188.848,10.856 188.928,10.874 190.669,11.529C191.256,11.75 191.355,12.203 190.936,12.752C190.632,13.151 190.627,13.215 190.883,13.447C190.992,13.546 191.112,13.723 191.15,13.84C191.244,14.139 192.249,15.499 192.667,15.893C192.9,16.114 193.113,16.221 193.318,16.221L193.623,16.221L193.103,15.641ZM174.072,15.083C173.891,14.866 174.078,14.733 174.664,14.66C175.099,14.605 175.251,14.623 175.347,14.739C175.447,14.86 175.44,14.921 175.31,15.051C175.111,15.249 174.229,15.272 174.072,15.083ZM153.546,13.135C153.331,12.92 153.397,12.751 153.71,12.713C154.042,12.673 154.274,12.933 154.097,13.147C153.935,13.342 153.749,13.338 153.546,13.135ZM154.612,12.702C154.534,12.653 154.499,12.54 154.533,12.451C154.616,12.235 155.191,12.235 155.274,12.451C155.34,12.622 155.156,12.791 154.903,12.791C154.82,12.791 154.689,12.751 154.612,12.702ZM193.371,12.307C193.166,12.082 193.155,11.75 193.346,11.592C193.458,11.499 193.584,11.543 193.95,11.801C194.467,12.165 194.5,12.237 194.218,12.387C193.921,12.546 193.556,12.512 193.371,12.307ZM172.484,15.561C172.571,15.214 172.487,15.112 172.113,15.112C171.939,15.112 171.42,15.058 170.96,14.991C170.042,14.858 169.981,14.881 169.875,15.384L169.807,15.707L170.443,15.743C172.314,15.848 172.414,15.84 172.484,15.561ZM159.741,14.782C158.511,14.165 157.852,13.778 156.976,13.156C156.852,13.068 155.71,13.463 155.71,13.594C155.71,13.775 160.463,15.462 161.102,15.508C161.157,15.512 160.545,15.185 159.741,14.782ZM169.132,15.162C169.246,14.744 169.171,14.608 168.825,14.608C168.661,14.608 168.174,14.54 167.742,14.458C167.31,14.375 166.924,14.341 166.884,14.382C166.844,14.423 166.781,14.579 166.744,14.727C166.67,15.027 166.7,15.041 168.107,15.354C168.95,15.541 169.033,15.526 169.132,15.162ZM150.267,15.068C150.267,15.043 150.222,14.995 150.166,14.961C150.111,14.927 150.066,14.947 150.066,15.005C150.066,15.064 150.111,15.112 150.166,15.112C150.222,15.112 150.267,15.092 150.267,15.068ZM166.02,14.432C166.049,14.279 166.066,14.153 166.057,14.151C165.998,14.138 164.771,13.691 164.499,13.583C164.216,13.471 164.153,13.474 164.071,13.602C164.018,13.684 163.986,13.812 164,13.886C164.022,14.006 165.565,14.686 165.853,14.702C165.915,14.706 165.991,14.584 166.02,14.432ZM180.907,14.454C181.046,14.382 181.443,14.223 181.789,14.101C182.136,13.978 182.419,13.836 182.419,13.784C182.419,13.63 182.118,13.096 182.031,13.096C181.91,13.096 180.064,13.904 179.965,14.001C179.918,14.047 179.911,14.227 179.949,14.403C180.014,14.698 180.042,14.716 180.337,14.653C180.512,14.615 180.769,14.526 180.907,14.454ZM11.257,14.185C11.458,13.984 11.395,13.635 11.128,13.459C10.894,13.306 10.848,13.308 10.447,13.487C10.211,13.593 9.927,13.711 9.816,13.751C9.626,13.818 9.629,13.828 9.866,13.924C10.087,14.014 10.928,14.272 11.081,14.297C11.111,14.302 11.191,14.251 11.257,14.185ZM27.938,13.997C28.116,13.827 28.555,13.537 28.916,13.353C29.634,12.986 30.006,12.655 29.827,12.544C29.766,12.507 27.632,12.509 25.083,12.55C21.477,12.606 20.449,12.651 20.449,12.749C20.449,12.844 20.895,12.886 22.238,12.917C24.209,12.964 23.888,12.887 26.547,13.94C27.046,14.137 27.491,14.301 27.535,14.302C27.58,14.304 27.761,14.167 27.938,13.997ZM15.404,13.658C15.47,13.578 15.509,13.34 15.492,13.128C15.465,12.801 15.422,12.739 15.203,12.714C14.752,12.661 14.354,13.337 14.658,13.64C14.858,13.841 15.245,13.85 15.404,13.658ZM18.761,13.436L19.078,13.272L18.731,13.094C18.539,12.996 18.27,12.9 18.131,12.88C17.915,12.849 17.883,12.88 17.906,13.096C17.964,13.655 18.175,13.739 18.761,13.436ZM163.345,13.362C163.449,13.133 163.429,13.116 162.883,12.962C162.345,12.811 161.247,12.58 160.439,12.447C160.161,12.402 160.077,12.422 160.077,12.536C160.077,12.722 160.417,12.843 161.37,12.996C161.779,13.062 162.317,13.219 162.565,13.345C163.156,13.643 163.217,13.644 163.345,13.362ZM184.308,12.945C184.872,12.668 185.333,12.396 185.333,12.34C185.333,12.285 185.278,12.117 185.212,11.968L185.09,11.696L184.032,12.15C183.45,12.4 182.932,12.646 182.881,12.696C182.787,12.789 183.116,13.527 183.227,13.475C183.258,13.461 183.744,13.222 184.308,12.945ZM169.198,12.626C169.623,12.367 170.516,11.889 171.181,11.564C172.324,11.004 172.35,10.959 171.383,11.202C170.057,11.535 167.135,12.671 167.27,12.801C167.366,12.893 167.979,13.074 168.24,13.087C168.341,13.092 168.772,12.885 169.198,12.626ZM145.56,12.879C145.773,12.765 145.773,12.76 145.578,12.684C145.469,12.642 145.234,12.603 145.057,12.599C144.88,12.595 144.708,12.547 144.673,12.492C144.639,12.436 144.478,12.391 144.316,12.391C144.029,12.391 143.741,12.333 142.431,12.011C141.49,11.781 141.58,11.68 142.96,11.419C143.403,11.335 143.948,11.229 144.169,11.185C144.391,11.14 144.928,11.032 145.363,10.944C145.799,10.856 146.441,10.669 146.792,10.529C147.142,10.389 147.528,10.274 147.648,10.274C147.94,10.274 149.682,11.126 149.914,11.382C150.113,11.603 150.565,11.648 150.881,11.479C151.069,11.378 151.065,11.363 150.787,11.129C150.343,10.755 148.222,9.77 147.861,9.77C147.686,9.77 147.169,9.92 146.713,10.104C145.344,10.653 144.547,10.851 143.01,11.021C141.694,11.168 138.037,11.184 106.259,11.182C106.259,11.182 61.628,11.562 51.165,11.57L32.141,11.584L32.141,12.193L86.391,12.166C116.229,12.151 140.927,12.169 141.276,12.205C141.625,12.242 142.124,12.318 142.385,12.374C142.646,12.43 143.29,12.553 143.817,12.646C144.343,12.74 144.865,12.853 144.976,12.899C145.255,13.014 145.311,13.012 145.56,12.879ZM148.478,12.929C148.409,12.901 148.295,12.901 148.226,12.929C148.157,12.957 148.214,12.98 148.352,12.98C148.491,12.98 148.547,12.957 148.478,12.929ZM150.376,12.59C151.351,12.341 151.678,12.198 151.678,12.022C151.678,11.846 151.703,11.842 150.427,12.218C149.822,12.396 149.307,12.599 149.284,12.668C149.226,12.842 149.451,12.826 150.376,12.59ZM146.907,12.29C147.853,11.956 148.345,11.893 147.672,12.192C147.436,12.297 147.243,12.435 147.243,12.498C147.243,12.562 147.3,12.593 147.369,12.568C147.439,12.542 147.892,12.396 148.377,12.243C148.862,12.089 149.259,11.935 149.259,11.9C149.259,11.83 147.825,11.132 147.476,11.033C147.343,10.995 146.869,11.1 146.292,11.296C145.487,11.568 145.329,11.656 145.332,11.83C145.336,12.074 145.5,12.309 145.782,12.471C146.04,12.618 145.923,12.637 146.907,12.29ZM21.497,12.03C21.592,11.781 21.569,11.3 21.457,11.232C21.397,11.195 21.356,11.312 21.356,11.52C21.356,11.713 21.329,11.942 21.295,12.03C21.262,12.117 21.279,12.189 21.335,12.189C21.39,12.189 21.463,12.117 21.497,12.03ZM22.949,12.068C23.118,11.899 23.1,11.432 22.919,11.282C22.791,11.176 22.767,11.197 22.767,11.414C22.767,11.556 22.723,11.788 22.669,11.931C22.561,12.215 22.723,12.294 22.949,12.068ZM24.532,11.985C24.611,11.737 24.5,11.181 24.372,11.181C24.321,11.181 24.279,11.336 24.279,11.526C24.279,11.715 24.252,11.942 24.218,12.03C24.179,12.133 24.212,12.189 24.312,12.189C24.398,12.189 24.496,12.097 24.532,11.985ZM25.53,12.104C25.559,12.057 25.61,11.842 25.645,11.625C25.707,11.232 25.707,11.232 25.346,11.206L24.985,11.181L24.985,11.685C24.985,12.152 25.003,12.189 25.231,12.189C25.366,12.189 25.501,12.151 25.53,12.104ZM187.131,12.011C187.478,11.985 187.761,11.93 187.761,11.888C187.761,11.846 187.789,11.669 187.824,11.496L187.887,11.181L187.295,11.182C186.459,11.183 185.947,11.34 185.947,11.596C185.947,11.94 186.144,12.213 186.333,12.132C186.425,12.092 186.785,12.037 187.131,12.011ZM190.18,12.113C190.18,11.99 189.271,11.456 188.901,11.361C188.718,11.314 188.668,11.356 188.614,11.603C188.578,11.767 188.564,11.913 188.583,11.927C188.65,11.978 189.629,12.162 189.903,12.175C190.055,12.183 190.18,12.155 190.18,12.113ZM22.288,11.637C22.33,11.419 22.214,11.181 22.067,11.182C22.037,11.182 22.01,11.383 22.009,11.629C22.007,11.957 22.038,12.05 22.124,11.978C22.188,11.924 22.262,11.771 22.288,11.637ZM27.587,11.639C27.605,11.428 27.575,11.212 27.522,11.158C27.459,11.096 27.412,11.245 27.389,11.575C27.367,11.887 27.393,12.076 27.454,12.055C27.51,12.037 27.569,11.85 27.587,11.639ZM28.958,12.027C29.159,11.95 29.172,11.352 28.977,11.19C28.863,11.095 28.838,11.117 28.846,11.304C28.852,11.43 28.824,11.659 28.784,11.811C28.705,12.109 28.714,12.121 28.958,12.027ZM30.612,11.8C30.659,11.47 30.542,11.06 30.423,11.134C30.368,11.168 30.344,11.229 30.369,11.269C30.395,11.31 30.377,11.514 30.33,11.722C30.257,12.046 30.268,12.095 30.412,12.068C30.504,12.05 30.594,11.93 30.612,11.8ZM31.672,11.708C31.654,11.312 31.484,11.08 31.211,11.08C31.07,11.08 31.029,11.128 31.072,11.24C31.106,11.328 31.133,11.557 31.133,11.751C31.133,12.074 31.155,12.099 31.41,12.07C31.654,12.042 31.686,11.998 31.672,11.708ZM28.412,11.434C28.412,11.364 28.348,11.254 28.271,11.19C28.155,11.093 28.124,11.153 28.093,11.537C28.057,11.994 28.059,11.998 28.234,11.781C28.332,11.661 28.412,11.505 28.412,11.434ZM153.452,11.669C153.863,11.55 154.185,11.437 154.167,11.419C154.149,11.401 153.751,11.453 153.284,11.535C152.817,11.618 152.423,11.685 152.409,11.685C152.395,11.685 152.384,11.731 152.384,11.786C152.384,11.936 152.623,11.91 153.452,11.669ZM12.336,11.181C12.419,11.02 12.487,10.824 12.487,10.745C12.487,10.518 11.861,10.324 11.258,10.364C11.102,10.374 11.104,10.413 11.288,10.83C11.399,11.08 11.468,11.32 11.441,11.363C11.414,11.406 11.571,11.448 11.789,11.457C12.131,11.471 12.205,11.433 12.336,11.181ZM18.451,10.712C18.552,10.62 18.635,10.448 18.635,10.329C18.635,10.21 18.689,10.059 18.754,9.994C18.82,9.928 18.845,9.845 18.809,9.81C18.701,9.702 18.297,9.859 17.996,10.127C17.721,10.371 17.716,10.392 17.872,10.63C18.063,10.922 18.198,10.941 18.451,10.712ZM15.346,9.742C15.488,9.638 15.503,9.561 15.422,9.349C15.367,9.203 15.273,9.054 15.213,9.017C15.153,8.98 15.127,8.913 15.155,8.868C15.183,8.822 15.155,8.64 15.093,8.463C14.998,8.19 14.96,8.161 14.843,8.278C14.686,8.435 14.462,9.518 14.543,9.73C14.611,9.906 15.111,9.914 15.346,9.742ZM99.368,66.414C99.246,66.335 99.26,66.316 99.444,66.315C99.568,66.314 99.67,66.359 99.67,66.414C99.67,66.541 99.563,66.541 99.368,66.414ZM153.543,66.206C151.003,66.094 111.156,65.937 64.343,65.855C41.739,65.815 24.692,65.747 24.637,65.697C24.584,65.648 24.463,65.608 24.367,65.608C24.272,65.608 24.109,65.501 24.006,65.37C23.903,65.239 23.684,65.062 23.52,64.978C23.075,64.749 21.722,64.342 20.759,64.147C19.94,63.981 19.542,63.826 19.542,63.672C19.542,63.632 20.007,63.586 20.575,63.57L21.608,63.542L20.601,63.1C20.046,62.857 19.311,62.528 18.967,62.369C18.623,62.21 18.207,62.08 18.043,62.08C17.664,62.08 17.411,61.984 17.483,61.868C17.605,61.67 20.03,61.893 21.531,62.241C21.906,62.327 22.621,62.48 23.12,62.58C23.619,62.68 24.186,62.829 24.38,62.912C24.691,63.044 31.774,63.07 83.418,63.129C123.669,63.175 142.103,63.164 142.103,63.093C142.103,62.989 144.632,63.018 145.35,63.129C145.532,63.157 146.225,63.208 146.891,63.241C147.556,63.275 148.191,63.321 148.302,63.344C148.413,63.368 149.388,63.435 150.469,63.493C151.55,63.552 152.706,63.623 153.039,63.652C154.051,63.738 157.391,63.881 160.951,63.99C162.808,64.047 165.643,64.14 167.25,64.196C171.263,64.338 174.187,64.324 176.926,64.149C179.125,64.009 179.551,63.957 181.109,63.646C181.469,63.574 182.059,63.537 182.419,63.563C182.78,63.59 183.31,63.568 183.599,63.516C184.011,63.44 184.13,63.448 184.153,63.552C184.176,63.655 184.279,63.642 184.611,63.492C184.847,63.386 185.04,63.336 185.04,63.38C185.04,63.59 184.581,63.829 183.961,63.943C183.584,64.012 182.845,64.184 182.318,64.324C181.792,64.465 181.157,64.613 180.907,64.652C180.192,64.766 180.077,64.792 180.02,64.849C179.935,64.934 180.584,64.911 181.252,64.805C181.589,64.752 182.341,64.636 182.923,64.549C183.505,64.461 184.276,64.306 184.637,64.204C184.997,64.102 185.517,63.966 185.792,63.901C186.774,63.669 189.606,62.39 191.399,61.368C192.815,60.56 193.72,59.626 194.408,58.261C194.778,57.527 195.155,56.2 195.09,55.859C195.064,55.722 195.14,55.503 195.281,55.312C195.873,54.51 195.941,53.828 195.761,50.518C195.706,49.496 195.552,48.914 195.382,49.084C195.351,49.115 195.276,49.588 195.215,50.134C195.122,50.967 195.13,51.262 195.267,51.95C195.395,52.596 195.407,52.875 195.322,53.252C195.173,53.917 194.875,54.466 194.528,54.713C194.245,54.914 194.236,54.944 194.286,55.566C194.369,56.593 194.02,57.84 193.382,58.802C192.934,59.478 192.714,59.692 191.865,60.279C191.544,60.5 191.056,60.882 190.781,61.126C190.477,61.396 190.222,61.547 190.13,61.512C189.959,61.446 189.929,61.308 190.076,61.257C190.13,61.239 190.138,61.166 190.094,61.096C190.038,61.005 189.914,61.093 189.67,61.398C189.48,61.634 189.181,61.953 189.006,62.107C188.665,62.406 187.005,63.29 186.783,63.29C186.71,63.29 186.562,63.345 186.454,63.412C186.127,63.616 186.112,63.426 186.427,63.071C186.591,62.886 186.866,62.577 187.039,62.383C187.371,62.008 187.49,62.149 187.196,62.568C186.916,62.968 187.124,62.928 187.93,62.425C188.841,61.857 189.785,60.923 190.139,60.237C190.428,59.678 190.636,59.695 190.544,60.27C190.51,60.48 190.456,60.735 190.424,60.837C190.388,60.951 190.451,60.913 190.588,60.738C190.711,60.582 191.108,60.23 191.47,59.956C193.713,58.258 194.505,56.092 193.564,54.233C193.229,53.573 193.235,53.411 193.582,53.733C193.993,54.114 194.459,54.247 194.643,54.034C194.969,53.656 195.153,52.371 194.932,52.022C194.832,51.865 194.763,51.939 194.41,52.581C194.28,52.816 194.142,53.009 194.103,53.009C194.017,53.009 193.928,52.203 194.009,52.153C194.039,52.134 194.061,51.607 194.057,50.982C194.05,49.865 194.058,49.826 194.481,48.802L194.912,47.759L194.916,35.391L194.619,35.074C194.314,34.747 193.909,33.814 193.909,33.437C193.909,33.249 193.953,33.269 194.272,33.597C194.885,34.228 194.953,34.119 194.928,32.549C194.905,31.129 194.822,30.635 194.503,30.008C194.244,29.502 194.257,29.41 194.663,28.879L195.015,28.418L194.669,27.787C194.035,26.631 194.047,26.08 194.752,24.133C194.892,23.745 195.08,23.042 195.168,22.571C195.497,20.824 195.538,20.654 195.618,20.703C195.662,20.731 195.731,21.06 195.769,21.435C195.866,22.37 196.175,23.752 196.529,24.838C197.037,26.395 197.053,26.551 196.774,27.183C196.485,27.836 196.479,27.931 196.69,28.551L196.851,29.023L196.388,29.767C196.133,30.175 195.925,30.547 195.925,30.592C195.925,30.637 196.036,30.835 196.171,31.032C196.307,31.229 196.474,31.602 196.543,31.861C196.652,32.274 196.644,32.404 196.473,32.909C196.365,33.226 196.198,33.535 196.101,33.596C195.907,33.717 195.87,33.914 196.023,34.008C196.128,34.073 196.538,33.847 196.907,33.521C197.032,33.41 197.134,33.359 197.134,33.407C197.134,33.552 196.332,34.832 196.122,35.022C195.94,35.187 195.926,35.34 195.932,37.101C195.937,38.535 195.968,38.985 196.057,38.932C196.123,38.893 196.301,38.771 196.452,38.66C196.604,38.55 196.759,38.49 196.796,38.527C196.892,38.623 196.349,39.856 196.119,40.065C195.934,40.232 195.925,40.416 195.925,43.907C195.925,47.439 195.933,47.59 196.138,47.999C196.255,48.232 196.446,48.527 196.562,48.654C196.724,48.831 196.75,48.926 196.67,49.057C196.609,49.159 196.571,49.938 196.577,50.968C196.587,52.686 196.548,52.887 196.26,52.599C196.183,52.521 196.138,52.746 196.106,53.38C196.071,54.056 195.993,54.426 195.781,54.924C195.612,55.318 195.483,55.832 195.456,56.213C195.432,56.561 195.262,57.276 195.079,57.8L194.747,58.754L195.094,58.849C195.477,58.955 196.529,59.642 196.529,59.786C196.529,59.836 196.427,59.869 196.303,59.859C196.178,59.849 196.043,59.846 196.003,59.852C195.964,59.858 196.297,60.224 196.744,60.664C197.192,61.105 197.537,61.524 197.512,61.597C197.481,61.684 197.323,61.716 197.033,61.694C196.581,61.659 195.453,61.835 195.224,61.977C195.117,62.043 195.123,62.104 195.256,62.293C195.591,62.772 195.443,62.867 194.75,62.62C194.606,62.568 194.623,62.619 194.829,62.846C195.253,63.314 195.379,63.615 195.201,63.728C195.074,63.807 195.095,63.901 195.339,64.351C195.685,64.991 196.011,65.913 195.951,66.087C195.893,66.255 195.675,66.247 195.53,66.072C195.411,65.928 194.471,65.658 193.783,65.569C193.463,65.527 193.405,65.549 193.405,65.709C193.405,65.813 193.361,65.925 193.308,65.958C193.143,66.06 192.529,65.742 192.064,65.313C191.819,65.087 191.525,64.902 191.411,64.902C191.298,64.902 191.076,64.766 190.919,64.6C190.687,64.354 190.552,64.298 190.194,64.298L189.754,64.298L189.816,64.63C189.856,64.839 189.829,65.031 189.744,65.147C189.614,65.324 189.594,65.324 189.164,65.133C188.919,65.024 188.656,64.86 188.58,64.768C188.318,64.451 188.075,64.562 187.952,65.054C187.889,65.303 187.805,65.507 187.765,65.507C187.725,65.507 187.619,65.242 187.529,64.919C187.439,64.595 187.284,64.231 187.185,64.109L187.005,63.889L186.45,64.106C186.145,64.225 185.817,64.363 185.721,64.411C185.625,64.46 185.371,64.499 185.156,64.499C184.739,64.499 184.132,64.674 184.132,64.793C184.132,64.897 182.76,65.105 181.483,65.195C180.885,65.237 180.343,65.325 180.279,65.39C180.214,65.454 179.909,65.509 179.602,65.512C179.294,65.514 178.702,65.559 178.286,65.611C177.871,65.664 176.896,65.752 176.121,65.809C175.346,65.865 174.529,65.934 174.307,65.962C172.73,66.161 156.76,66.349 153.542,66.206L153.543,66.206ZM195.196,65.283C194.826,64.799 192.795,62.766 192.467,62.55C192.243,62.403 192.209,62.337 192.302,62.225C192.428,62.074 192.374,62.034 193.729,63.285C194.046,63.577 194.494,64.061 194.724,64.359C195.183,64.954 195.431,65.087 195.147,64.587C194.56,63.555 194.538,63.491 194.766,63.491C195.123,63.491 194.928,63.239 193.925,62.402C193.331,61.906 193.239,61.687 193.753,61.99C193.965,62.115 194.23,62.182 194.433,62.163L194.766,62.131L194.111,61.609C193.247,60.921 192.954,60.868 192.356,61.289C191.941,61.582 191.91,61.63 192.046,61.779C192.193,61.941 192.25,62.181 192.141,62.181C192.111,62.181 191.956,62.085 191.797,61.967L191.507,61.752L191.221,61.955C191.064,62.067 190.732,62.217 190.482,62.289C189.788,62.49 188.981,62.978 188.816,63.296C188.628,63.66 188.63,63.729 188.827,63.654C188.939,63.611 188.975,63.644 188.952,63.769C188.908,63.997 188.467,64.072 188.467,63.851C188.467,63.764 188.399,63.693 188.315,63.693C188.232,63.693 188.164,63.621 188.164,63.533C188.164,63.446 188.108,63.394 188.038,63.418C187.969,63.443 187.927,63.548 187.945,63.653C188.067,64.373 188.081,64.398 188.372,64.398C188.529,64.398 188.694,64.46 188.739,64.536C188.812,64.66 189.385,65.003 189.52,65.003C189.55,65.003 189.581,64.72 189.587,64.373C189.593,64.027 189.619,63.823 189.645,63.92C189.679,64.05 189.794,64.096 190.087,64.096C190.304,64.096 190.482,64.079 190.482,64.058C190.482,64.038 190.416,63.834 190.336,63.605C190.131,63.026 190.317,63.084 190.601,63.687C190.803,64.117 191.043,64.375 191.146,64.272C191.174,64.244 191.052,63.618 190.926,63.139C190.829,62.773 191.069,63.194 191.291,63.781C191.552,64.468 192.094,65.131 192.618,65.404L193.026,65.617L192.956,65.337C192.917,65.183 192.73,64.719 192.539,64.306C192.045,63.238 192.163,63.214 192.745,64.264C193.017,64.754 193.251,65.171 193.266,65.191C193.327,65.272 195.336,65.694 195.41,65.641C195.432,65.626 195.335,65.465 195.196,65.283ZM176.953,65.234C176.802,65.211 176.53,65.21 176.348,65.233C176.167,65.255 176.291,65.274 176.624,65.274C176.956,65.275 177.105,65.257 176.953,65.234ZM178.69,65.104C178.69,64.987 178.049,64.987 177.682,65.104C177.495,65.164 177.592,65.187 178.06,65.195C178.419,65.2 178.69,65.162 178.69,65.104ZM151.048,64.928C151.073,64.855 151.005,64.802 150.886,64.802C150.666,64.802 150.533,64.933 150.643,65.043C150.744,65.144 151,65.072 151.048,64.928ZM148.529,64.827C148.555,64.748 148.474,64.701 148.31,64.701C148.056,64.701 147.979,64.798 148.12,64.94C148.224,65.043 148.48,64.973 148.529,64.827ZM149.914,64.902C149.951,64.843 149.846,64.802 149.662,64.802C149.479,64.802 149.374,64.843 149.41,64.902C149.445,64.958 149.558,65.003 149.662,65.003C149.767,65.003 149.88,64.958 149.914,64.902ZM171.433,64.902C171.35,64.849 170.511,64.804 169.568,64.803C168.626,64.802 166.517,64.757 164.882,64.704C163.246,64.65 161.115,64.582 160.145,64.552C158.388,64.498 155.077,64.344 153.543,64.246C149.139,63.963 147.747,63.866 146.185,63.73C144.571,63.59 137.865,63.568 85.409,63.533C43.657,63.506 26.108,63.462 25.287,63.384C23.725,63.235 23.221,63.135 21.224,62.581C20.417,62.357 20.027,62.363 20.72,62.589C21.353,62.795 22.678,63.433 23.292,63.827C23.883,64.207 24.035,64.272 23.927,64.096C23.852,63.976 24.71,63.97 25.413,64.086C25.711,64.135 25.892,64.128 25.892,64.067C25.892,64.003 44.885,63.982 79.84,64.005C109.511,64.026 136.419,64.031 139.634,64.018C143.114,64.003 145.949,64.036 146.639,64.099C149.815,64.388 155.863,64.759 159.59,64.893C162.862,65.011 171.611,65.018 171.433,64.902ZM179.673,64.931C179.52,64.908 179.271,64.908 179.118,64.931C178.966,64.954 179.091,64.973 179.395,64.973C179.7,64.973 179.825,64.954 179.673,64.931ZM144.901,64.657C144.933,64.626 118.033,64.6 85.123,64.6C41.733,64.6 25.287,64.63 25.287,64.711C25.287,64.791 41.685,64.807 85.066,64.768C117.944,64.739 144.87,64.689 144.901,64.657ZM147.395,64.701C147.43,64.644 147.345,64.6 147.199,64.6C147.057,64.6 146.941,64.645 146.941,64.701C146.941,64.756 147.029,64.802 147.137,64.802C147.244,64.802 147.36,64.756 147.395,64.701ZM146.387,64.6C146.421,64.545 146.353,64.499 146.236,64.499C146.118,64.499 146.05,64.545 146.084,64.6C146.119,64.655 146.187,64.701 146.236,64.701C146.284,64.701 146.352,64.655 146.387,64.6ZM187.823,64.277C187.762,63.974 187.617,63.799 187.425,63.795C187.379,63.794 187.359,63.828 187.381,63.869C187.403,63.911 187.48,64.092 187.551,64.272C187.719,64.7 187.908,64.703 187.823,64.277ZM22.767,64.197C22.629,64.088 22.396,63.999 22.251,63.998C22.105,63.996 21.833,63.972 21.646,63.944C21.398,63.907 22.608,64.309 22.969,64.384C22.997,64.389 22.906,64.305 22.767,64.197ZM188.618,63.29C188.583,63.234 188.513,63.189 188.461,63.189C188.408,63.189 188.366,63.234 188.366,63.29C188.366,63.345 188.437,63.391 188.523,63.391C188.609,63.391 188.652,63.345 188.618,63.29ZM196.05,61.554C196.48,61.486 196.832,61.401 196.832,61.365C196.832,61.278 195.45,60.6 195.098,60.514C194.948,60.478 194.774,60.387 194.712,60.312C194.649,60.237 194.444,60.125 194.255,60.062C193.956,59.963 193.872,59.977 193.608,60.165C193.441,60.283 193.305,60.425 193.305,60.479C193.305,60.599 193.721,61 194.252,61.389C194.695,61.714 194.911,61.733 196.05,61.554ZM196.279,60.57C196.12,60.404 195.919,60.246 195.831,60.218C195.581,60.139 195.389,59.771 195.517,59.616C195.651,59.456 195.517,59.336 195.002,59.153C194.649,59.028 194.623,59.035 194.376,59.317C194.049,59.689 194.049,59.743 194.383,59.826C194.532,59.864 195.065,60.112 195.567,60.377C196.069,60.642 196.499,60.862 196.524,60.865C196.548,60.868 196.438,60.735 196.279,60.57ZM194.312,54.521C194.312,54.466 194.293,54.42 194.27,54.42C194.247,54.42 194.156,54.393 194.068,54.359C193.95,54.314 193.924,54.341 193.969,54.459C194.037,54.636 194.312,54.685 194.312,54.521ZM194.663,51.644C194.81,51.392 194.913,51.131 194.89,51.064C194.845,50.929 194.217,51.874 194.214,52.083C194.211,52.296 194.375,52.135 194.663,51.644ZM196.406,52.083C196.384,52.017 196.312,51.946 196.246,51.924C196.173,51.899 196.15,51.945 196.188,52.043C196.258,52.226 196.466,52.265 196.406,52.083ZM196.186,50.908C195.991,50.714 195.976,50.873 196.152,51.263C196.276,51.538 196.278,51.538 196.312,51.305C196.33,51.175 196.274,50.996 196.186,50.908ZM194.613,50.796C194.725,50.576 194.815,50.293 194.813,50.166C194.81,49.944 194.799,49.947 194.561,50.237C194.347,50.498 194.202,51.195 194.361,51.195C194.387,51.195 194.501,51.015 194.613,50.796ZM196.125,50.151L195.898,49.935L196.087,50.266C196.19,50.449 196.293,50.546 196.314,50.483C196.335,50.419 196.25,50.27 196.125,50.151ZM194.664,49.584C194.803,49.364 194.914,49.058 194.909,48.904C194.903,48.669 194.856,48.721 194.615,49.23C194.457,49.562 194.324,49.868 194.32,49.91C194.303,50.079 194.424,49.964 194.664,49.584ZM196.429,49.166C196.429,49 196.013,48.352 195.948,48.417C195.874,48.491 196.236,49.28 196.344,49.28C196.391,49.28 196.429,49.229 196.429,49.166ZM195.572,48.675C195.538,48.62 195.467,48.574 195.415,48.574C195.363,48.574 195.32,48.62 195.32,48.675C195.32,48.731 195.391,48.776 195.478,48.776C195.564,48.776 195.607,48.731 195.572,48.675ZM195.522,48.07C195.522,48.015 195.477,47.97 195.421,47.97C195.366,47.97 195.32,48.015 195.32,48.07C195.32,48.126 195.366,48.171 195.421,48.171C195.477,48.171 195.522,48.126 195.522,48.07ZM195.522,47.365C195.522,47.254 195.477,47.163 195.421,47.163C195.366,47.163 195.32,47.254 195.32,47.365C195.32,47.476 195.366,47.567 195.421,47.567C195.477,47.567 195.522,47.476 195.522,47.365ZM195.522,46.609C195.522,46.47 195.477,46.357 195.421,46.357C195.366,46.357 195.32,46.47 195.32,46.609C195.32,46.748 195.366,46.861 195.421,46.861C195.477,46.861 195.522,46.748 195.522,46.609ZM195.522,45.853C195.522,45.741 195.455,45.651 195.371,45.651C195.217,45.651 195.164,45.865 195.287,45.987C195.415,46.115 195.522,46.054 195.522,45.853ZM195.623,45.148C195.623,44.916 195.37,44.874 195.286,45.091C195.236,45.221 195.339,45.319 195.547,45.341C195.589,45.346 195.623,45.258 195.623,45.148ZM195.623,44.392C195.623,44.207 195.569,44.14 195.421,44.14C195.197,44.14 195.155,44.337 195.341,44.523C195.528,44.711 195.623,44.667 195.623,44.392ZM195.6,43.655C195.622,43.588 195.548,43.535 195.433,43.535C195.288,43.535 195.244,43.581 195.286,43.69C195.352,43.862 195.537,43.841 195.6,43.655ZM195.623,43.043C195.623,42.938 195.533,42.829 195.421,42.8C195.261,42.758 195.22,42.797 195.22,42.99C195.22,43.165 195.275,43.233 195.421,43.233C195.551,43.233 195.623,43.165 195.623,43.043ZM195.588,42.271C195.621,42.185 195.626,42.093 195.599,42.067C195.509,41.977 195.22,42.144 195.22,42.286C195.22,42.477 195.514,42.464 195.588,42.271ZM195.463,41.659C195.688,41.573 195.661,41.418 195.421,41.418C195.309,41.418 195.22,41.485 195.22,41.569C195.22,41.739 195.238,41.746 195.463,41.66L195.463,41.659ZM195.623,39.554C195.623,38.694 195.604,37.991 195.58,37.991C195.557,37.991 195.467,37.964 195.379,37.93C195.238,37.876 195.219,38.048 195.219,39.425C195.219,40.281 195.25,41.012 195.287,41.049C195.324,41.086 195.414,41.116 195.488,41.116C195.594,41.116 195.623,40.788 195.623,39.554ZM196.219,39.478C196.609,38.848 196.624,38.779 196.29,39.151C196.091,39.372 195.927,39.588 195.927,39.629C195.924,39.781 196.082,39.699 196.219,39.478ZM195.623,37.538C195.623,37.447 195.532,37.388 195.396,37.39C195.175,37.393 195.174,37.397 195.365,37.541C195.608,37.725 195.623,37.725 195.623,37.538ZM195.572,36.984C195.607,36.928 195.541,36.883 195.427,36.883C195.313,36.883 195.22,36.928 195.22,36.984C195.22,37.039 195.285,37.084 195.365,37.084C195.445,37.084 195.538,37.039 195.572,36.984ZM195.565,36.491C195.596,36.442 195.53,36.378 195.42,36.349C195.223,36.298 195.155,36.381 195.287,36.513C195.38,36.607 195.5,36.597 195.565,36.491ZM195.623,35.887C195.623,35.838 195.535,35.775 195.429,35.747C195.293,35.711 195.251,35.738 195.288,35.836C195.347,35.989 195.623,36.03 195.623,35.887ZM195.576,32.692C195.545,32.522 195.453,32.295 195.373,32.188C195.242,32.016 195.226,32.182 195.223,33.675C195.22,35.197 195.236,35.359 195.396,35.39C195.555,35.421 195.575,35.304 195.602,34.213C195.619,33.547 195.607,32.863 195.576,32.692ZM194.917,34.581C194.917,34.373 194.848,34.263 194.665,34.18C194.36,34.041 194.338,34.154 194.586,34.574C194.805,34.944 194.917,34.947 194.917,34.581ZM196.328,34.24C196.328,34.185 196.257,34.167 196.169,34.201C196.081,34.235 195.991,34.262 195.967,34.262C195.944,34.262 195.927,34.387 195.929,34.539L195.932,34.817L196.13,34.579C196.239,34.448 196.328,34.295 196.328,34.24ZM196.267,32.893C196.478,32.344 196.235,31.597 195.485,30.493C195.035,29.829 194.967,29.553 195.158,29.153C195.392,28.664 195.262,28.594 194.907,29.017C194.578,29.41 194.554,29.577 194.757,30.051C194.835,30.233 195.023,30.677 195.175,31.037C195.327,31.397 195.558,31.85 195.689,32.043C195.819,32.236 195.925,32.512 195.925,32.656C195.925,33.05 196.148,33.205 196.267,32.893ZM196.386,29.033C196.539,28.651 196.534,28.624 196.166,27.723C195.959,27.218 195.752,26.804 195.706,26.804C195.582,26.804 195.6,26.902 195.867,27.688L196.111,28.405L195.297,29.567L195.65,30.223L195.94,29.823C196.099,29.603 196.3,29.248 196.386,29.033ZM195.658,28.026C195.648,27.817 195.521,27.572 195.288,27.314C195.04,27.04 194.911,26.783 194.864,26.469C194.79,25.977 194.816,25.849 195.178,24.922C195.421,24.3 195.53,23.231 195.312,23.604C195.255,23.702 195.234,23.823 195.265,23.873C195.296,23.923 195.286,23.98 195.243,23.998C195.199,24.017 195.018,24.508 194.84,25.09C194.481,26.265 194.482,26.732 194.844,27.459C195.32,28.414 195.689,28.671 195.658,28.026ZM196.588,26.249C196.557,26.028 196.376,25.37 196.187,24.788L195.842,23.73L195.833,24.307C195.828,24.625 195.893,25.056 195.976,25.265C196.06,25.474 196.144,25.962 196.163,26.35C196.183,26.738 196.236,27.143 196.281,27.25C196.411,27.558 196.658,26.752 196.588,26.249ZM195.581,25.883C195.636,25.794 195.679,25.814 195.734,25.954C195.8,26.123 195.811,26.116 195.813,25.897C195.814,25.758 195.756,25.509 195.683,25.342L195.551,25.04L195.418,25.493C195.345,25.743 195.244,26.002 195.193,26.069C195.136,26.145 195.15,26.336 195.231,26.573L195.361,26.955L195.432,26.481C195.472,26.221 195.538,25.952 195.581,25.883ZM193.158,52.613C193.089,52.502 193.248,52.381 193.341,52.474C193.437,52.57 193.419,52.707 193.31,52.707C193.258,52.707 193.19,52.665 193.158,52.613Z" style="fill-rule:nonzero;"/>
    </g>
</svg>
