<?xml version="1.0" encoding="UTF-8" standalone="no"?>
<!DOCTYPE svg PUBLIC "-//W3C//DTD SVG 1.1//EN" "http://www.w3.org/Graphics/SVG/1.1/DTD/svg11.dtd">
<svg width="100%" height="100%" viewBox="0 0 135 85" version="1.1" xmlns="http://www.w3.org/2000/svg" xmlns:xlink="http://www.w3.org/1999/xlink" xml:space="preserve" xmlns:serif="http://www.serif.com/" style="fill-rule:evenodd;clip-rule:evenodd;stroke-linejoin:round;stroke-miterlimit:2;">
    <g id="path1" transform="matrix(0.979545,0,0,0.979545,-69.7037,-45.0451)">
        <path d="M187.334,55.807C186.813,55.482 186.529,55.106 186.644,54.889C186.692,54.797 186.857,54.71 187.012,54.696C187.529,54.647 187.647,54.578 187.822,54.226C187.956,53.955 187.995,53.712 187.995,53.146L187.995,52.415L187.541,52.415C187.216,52.415 187.087,52.378 187.087,52.283C187.087,52.211 187.019,52.078 186.936,51.989C186.8,51.843 186.41,51.826 183.058,51.826L179.331,51.826L178.563,52.155C178.14,52.335 177.544,52.562 177.237,52.66C176.665,52.842 176.571,52.931 176.824,53.053C176.957,53.118 176.955,53.13 176.803,53.204C176.533,53.336 175.52,53.306 174.96,53.15C174.002,52.881 172.963,52.138 172.963,51.721C172.963,51.54 172.883,51.532 171.035,51.532C169.179,51.532 168.296,51.536 168.296,51.536L167.763,47.961C168.225,47.961 170.155,47.863 170.155,47.818C170.155,47.773 170.907,47.735 171.827,47.734C172.747,47.732 174.392,47.703 175.482,47.669C177.673,47.601 185.11,47.486 186.114,47.505C186.773,47.518 187.087,47.408 187.087,47.162C187.087,46.938 187.403,46.896 188.797,46.94L190.102,46.98L190.536,47.351C190.774,47.556 191.003,47.794 191.044,47.882C191.111,48.023 191.496,48.043 194.616,48.065C196.907,48.081 198.189,48.054 198.333,47.987C198.488,47.914 198.602,47.915 198.72,47.99C198.841,48.067 198.904,48.067 198.943,47.991C198.976,47.928 199.089,47.912 199.217,47.951C199.478,48.031 201.055,48.035 202.358,47.959C203.371,47.9 203.548,47.825 203.867,47.311C204.102,46.933 204.508,46.917 205.142,47.262C205.39,47.397 205.629,47.507 205.673,47.507C205.718,47.507 205.754,47.566 205.754,47.638C205.754,47.71 205.837,47.824 205.939,47.89C206.135,48.018 206.662,48.805 206.662,48.969C206.662,49.021 206.724,49.138 206.8,49.228C206.947,49.402 206.987,49.936 206.862,50.044C206.82,50.079 206.656,50.332 206.497,50.605C206.338,50.877 206.059,51.257 205.877,51.449C205.554,51.791 204.749,52.219 204.43,52.219C204.341,52.219 204.068,52.003 203.823,51.739L203.377,51.259L201.901,51.185C201.09,51.145 198.335,51.14 195.779,51.176L191.132,51.24L190.689,51.779C190.347,52.195 190.191,52.317 189.998,52.317C189.862,52.317 189.713,52.372 189.667,52.44C189.621,52.507 189.568,52.938 189.549,53.397C189.501,54.533 189.285,55.04 188.605,55.617C188.029,56.106 187.857,56.132 187.334,55.807ZM188.312,55.354C188.671,54.957 188.904,54.402 188.904,53.945C188.904,53.402 188.743,53.232 188.729,53.759C188.724,53.965 188.726,54.193 188.735,54.266C188.752,54.414 188.2,55.036 187.975,55.122C187.737,55.212 187.811,55.503 188.083,55.549C188.109,55.553 188.212,55.465 188.313,55.354L188.312,55.354ZM189.001,53.052C189.077,53.017 189.102,52.865 189.082,52.561C189.057,52.196 189.024,52.121 188.885,52.121C188.737,52.121 188.723,52.165 188.768,52.489C188.796,52.691 188.82,52.912 188.82,52.98C188.821,53.117 188.842,53.125 189.001,53.052ZM176.357,52.57C176.487,52.439 176.809,52.24 177.071,52.126C177.333,52.013 177.621,51.88 177.712,51.831C177.818,51.774 177.225,51.739 176.06,51.734C175.061,51.73 174.094,51.701 173.913,51.671L173.582,51.616L173.788,51.83C174.095,52.148 174.723,52.502 175.257,52.655C175.932,52.85 176.089,52.838 176.357,52.57ZM167.763,47.961C167.825,47.928 167.763,47.961 167.763,47.961L168.296,51.536C168.126,51.535 167.677,51.566 167.677,51.608C167.677,51.649 167.324,51.659 167.07,51.886C166.68,51.795 166.872,51.873 166.364,51.575C165.619,51.138 163.972,50.453 163.665,50.452C163.577,50.451 163.399,50.385 163.269,50.304C163.139,50.224 162.935,50.158 162.816,50.158C162.587,50.158 161.73,49.771 161.73,49.668C161.73,49.567 162.307,49.319 162.969,49.135C163.726,48.924 164.441,48.689 164.662,48.578C164.753,48.532 165.069,48.398 165.364,48.28C165.659,48.163 166.118,47.936 166.383,47.776L166.864,47.486L167.103,47.758C167.297,47.978 167.619,48.037 167.763,47.961ZM189.565,51.342C189.565,51.235 188.136,51.136 188.048,51.237C188.009,51.282 187.996,51.355 188.019,51.401C188.072,51.504 189.565,51.448 189.565,51.342ZM205.43,51.141C205.631,50.926 205.82,50.749 205.85,50.748C205.959,50.745 206.264,50.051 206.218,49.91C206.187,49.814 206.053,49.765 205.818,49.764C205.624,49.763 205.412,49.723 205.348,49.675C205.184,49.551 204.849,49.754 204.806,50.003C204.787,50.115 204.749,50.361 204.722,50.55C204.694,50.739 204.651,51.037 204.626,51.213C204.582,51.513 204.594,51.532 204.822,51.532C204.989,51.532 205.179,51.41 205.43,51.141ZM204.434,50.988C204.594,50.595 204.612,50.421 204.582,49.54C204.563,48.989 204.506,48.45 204.455,48.342C204.404,48.234 204.341,48.068 204.317,47.974C204.253,47.73 204.175,47.757 203.807,48.145C203.628,48.334 203.426,48.489 203.358,48.489C203.255,48.489 203.234,48.676 203.234,49.582C203.234,50.638 203.241,50.678 203.428,50.76C203.534,50.807 203.756,50.977 203.921,51.139C204.087,51.301 204.229,51.434 204.237,51.434C204.245,51.434 204.334,51.233 204.434,50.988ZM186.242,51.155C186.375,51.055 186.194,50.852 185.724,50.574C185.411,50.389 185.162,50.376 180.933,50.318C169.134,50.157 165.446,50.133 165.446,50.217C165.446,50.398 166.092,50.572 167.057,50.652C168.639,50.782 169.949,50.827 175.565,50.944C179.965,51.036 182.802,51.113 185.724,51.219C185.951,51.228 186.184,51.199 186.242,51.155ZM190.556,51.09C190.556,51.009 190.519,50.943 190.473,50.943C190.428,50.943 190.391,51.009 190.391,51.09C190.391,51.171 190.428,51.237 190.473,51.237C190.519,51.237 190.556,51.171 190.556,51.09ZM190.06,50.913C190.06,50.842 190.173,50.647 190.311,50.479C190.616,50.109 190.518,49.986 190.158,50.285C189.886,50.51 189.765,50.772 189.853,50.942C189.927,51.084 190.06,51.065 190.06,50.913ZM202.924,50.604C202.936,50.593 202.966,50.322 202.992,50.003C203.046,49.332 202.886,48.556 202.684,48.509C202.529,48.474 202.45,48.758 202.539,49.03C202.625,49.291 202.629,49.882 202.545,50.037C202.509,50.106 202.495,50.295 202.515,50.457C202.546,50.706 202.579,50.742 202.727,50.688C202.824,50.653 202.913,50.615 202.924,50.604ZM189.723,50.231C189.907,50.002 190.059,49.782 190.059,49.742C190.06,49.702 189.893,49.476 189.688,49.24C189.327,48.823 189.295,48.808 188.692,48.762C188.056,48.713 187.944,48.758 187.527,49.232C187.474,49.292 187.315,49.399 187.173,49.469C187.031,49.539 186.927,49.639 186.942,49.692C186.957,49.745 187.135,49.898 187.338,50.031C187.54,50.164 187.779,50.357 187.869,50.461C188.003,50.615 188.154,50.649 188.709,50.649L189.387,50.649L189.723,50.231ZM192.294,50.45C192.473,50.341 192.621,50.234 192.621,50.213C192.621,50.191 192.643,50.104 192.671,50.019C192.711,49.893 192.657,49.863 192.386,49.863C191.884,49.863 191.299,50.231 191.299,50.546C191.299,50.721 191.95,50.658 192.294,50.45ZM193.957,50.388C194.161,50.167 194.142,49.947 193.9,49.737C193.705,49.569 193.688,49.569 193.469,49.737C193.084,50.032 192.786,50.379 192.786,50.531C192.786,50.733 193.745,50.615 193.957,50.388ZM195.568,50.383C195.738,50.25 195.743,50.22 195.632,50.018C195.565,49.897 195.42,49.74 195.31,49.67C195.128,49.554 195.077,49.572 194.773,49.858C194.456,50.157 194.337,50.494 194.522,50.567C194.706,50.64 195.393,50.519 195.568,50.383ZM197.201,50.436C197.436,50.309 197.475,50.049 197.287,49.863C197.219,49.796 197.163,49.695 197.163,49.64C197.163,49.584 197.235,49.615 197.322,49.709C197.44,49.836 197.518,49.854 197.632,49.78C198.026,49.523 198.221,48.873 197.941,48.745C197.87,48.712 197.535,48.685 197.198,48.685C196.527,48.685 196.416,48.806 196.775,49.144C197.068,49.421 197.105,49.547 196.878,49.496C196.743,49.465 196.633,49.519 196.53,49.669C196.447,49.789 196.307,49.97 196.22,50.071C196.132,50.171 196.076,50.27 196.096,50.289C196.362,50.559 196.854,50.624 197.201,50.436ZM198.504,50.427C198.765,50.374 198.981,50.187 198.981,50.014C198.981,49.8 198.671,49.553 198.335,49.5C198.04,49.453 197.99,49.477 197.855,49.729C197.772,49.884 197.657,50.046 197.599,50.089C197.541,50.132 197.494,50.258 197.494,50.368C197.494,50.549 197.533,50.565 197.886,50.521C198.102,50.495 198.38,50.453 198.504,50.427ZM200.586,50.356C200.702,50.304 200.798,50.199 200.798,50.124C200.798,50.003 200.089,49.078 199.996,49.078C199.861,49.078 199.128,50.241 199.19,50.359C199.253,50.481 200.313,50.479 200.586,50.356ZM201.957,50.362C202.081,50.34 202.284,49.735 202.284,49.39C202.284,48.856 202.217,48.685 202.007,48.686C201.803,48.688 201.233,49.61 201.157,50.062C201.117,50.296 201.139,50.342 201.305,50.37C201.468,50.398 201.781,50.394 201.957,50.362ZM190.721,49.961C190.721,49.907 190.705,49.863 190.685,49.863C190.665,49.863 190.625,49.907 190.597,49.961C190.569,50.015 190.585,50.059 190.633,50.059C190.682,50.059 190.721,50.015 190.721,49.961ZM184.465,49.805C184.693,49.534 184.296,49.52 176.906,49.549C172.761,49.565 169.314,49.61 169.246,49.647C169.178,49.685 171.018,49.739 173.334,49.766C180.511,49.852 184.414,49.866 184.465,49.805ZM165.116,49.667C165.116,49.613 165.081,49.569 165.038,49.569C164.996,49.569 164.938,49.613 164.91,49.667C164.881,49.721 164.917,49.765 164.987,49.765C165.058,49.765 165.116,49.721 165.116,49.667ZM186.096,49.667C186.096,49.613 186.058,49.569 186.013,49.569C185.968,49.569 185.93,49.613 185.93,49.667C185.93,49.721 185.968,49.765 186.013,49.765C186.058,49.765 186.096,49.721 186.096,49.667ZM193.233,49.616C193.364,49.499 193.376,49.433 193.303,49.242C193.147,48.836 192.31,48.508 192.161,48.794C192.099,48.913 192.82,49.767 192.979,49.762C193.032,49.76 193.146,49.695 193.233,49.616ZM194.647,49.607C194.928,49.388 194.902,49.131 194.573,48.89C194.266,48.664 193.579,48.608 193.479,48.8C193.419,48.916 193.686,49.226 194.149,49.577C194.447,49.802 194.399,49.799 194.647,49.607ZM196.245,49.593C196.43,49.379 196.527,49.078 196.41,49.078C196.362,49.078 196.228,48.99 196.112,48.882C195.891,48.675 195.072,48.597 194.98,48.774C194.954,48.823 195.107,49.066 195.319,49.314C195.736,49.802 195.997,49.881 196.245,49.593ZM199.509,49.298C199.68,49.008 199.73,48.849 199.67,48.778C199.56,48.647 198.467,48.7 198.428,48.837C198.383,49 198.986,49.778 199.131,49.745C199.203,49.728 199.373,49.527 199.509,49.298ZM201.209,49.544C201.447,49.108 201.539,48.86 201.494,48.773C201.469,48.725 201.154,48.685 200.793,48.685C200.008,48.685 199.959,48.792 200.474,49.38C200.859,49.819 201.037,49.859 201.209,49.544ZM190.928,49.47C190.956,49.416 190.891,49.332 190.783,49.284C190.582,49.193 190.109,48.613 190.042,48.376C190.011,48.265 189.982,48.266 189.867,48.378C189.675,48.567 189.695,48.707 189.957,49.004C190.356,49.457 190.819,49.679 190.928,49.47ZM205.588,49.3C206.232,49.249 206.276,49.223 206.161,48.967C206.01,48.633 205.41,47.895 205.308,47.92C205.258,47.933 205.112,47.861 204.985,47.76C204.684,47.521 204.57,47.65 204.686,48.1C204.734,48.287 204.772,48.634 204.77,48.872C204.767,49.39 204.817,49.508 204.998,49.41C205.073,49.37 205.338,49.32 205.588,49.3ZM176.39,49.122C179.525,49.086 182.857,49.05 183.795,49.043C185.293,49.031 185.52,49.008 185.66,48.857C185.748,48.763 185.854,48.684 185.896,48.682C185.988,48.678 186.343,48.335 186.343,48.25C186.343,48.149 174.41,48.366 170.691,48.535C170.055,48.564 168.754,48.614 167.8,48.647C166.277,48.699 166.023,48.731 165.715,48.909C165.522,49.021 165.364,49.151 165.364,49.198C165.364,49.244 166.555,49.261 168.028,49.235C169.493,49.209 173.256,49.158 176.39,49.122ZM191.834,49.213C191.94,49.164 191.901,49.101 191.655,48.921C191.306,48.666 191.051,48.619 191.051,48.81C191.051,48.942 191.439,49.267 191.602,49.272C191.655,49.273 191.759,49.246 191.834,49.213ZM187.252,48.882C187.252,48.828 187.213,48.783 187.164,48.783C187.116,48.783 187.1,48.828 187.128,48.882C187.156,48.936 187.195,48.98 187.216,48.98C187.236,48.98 187.252,48.936 187.252,48.882ZM187.5,48.587C187.5,48.533 187.462,48.489 187.417,48.489C187.372,48.489 187.334,48.533 187.334,48.587C187.334,48.641 187.372,48.685 187.417,48.685C187.462,48.685 187.5,48.641 187.5,48.587ZM187.747,48.293C187.747,48.239 187.71,48.195 187.665,48.195C187.619,48.195 187.582,48.239 187.582,48.293C187.582,48.347 187.619,48.391 187.665,48.391C187.71,48.391 187.747,48.347 187.747,48.293ZM189.399,48.195C189.49,48.087 189.555,47.997 189.544,47.995C189.141,47.934 187.995,47.937 187.995,47.999C187.995,48.391 189.104,48.545 189.399,48.195ZM190.556,48.2C190.556,48.005 190.448,47.864 190.37,47.957C190.305,48.034 190.398,48.391 190.483,48.391C190.523,48.391 190.556,48.305 190.556,48.2Z" style="fill-rule:nonzero;"/>
    </g>
    <g id="path11" serif:id="path1" transform="matrix(-0.937448,-1.14804e-16,1.19589e-16,-0.976522,705.692,568.648)">
        <path d="M609.97,528.948C609.912,528.991 610.015,527.001 610.015,527.001L610.081,520.585C610.127,516.06 610.189,514.051 610.29,513.769C610.369,513.549 610.434,512.931 610.434,512.396C610.434,511.737 610.526,511.11 610.72,510.45C611.708,507.089 611.9,506.499 612.17,505.992C612.334,505.683 612.468,505.396 612.468,505.354C612.468,504.858 616.337,500.05 617.246,499.416C618.736,498.378 620.005,497.741 621.802,497.133C622.164,497.01 622.675,496.835 622.939,496.744C623.836,496.434 625.448,496.29 627.904,496.301C629.254,496.307 642.204,496.369 656.683,496.44C671.161,496.511 685.585,496.581 688.735,496.596C691.885,496.611 694.492,496.588 694.528,496.544C694.565,496.501 695.372,496.465 696.323,496.465C698.017,496.465 698.055,496.472 698.283,496.816C698.41,497.009 698.641,497.249 698.796,497.349C698.95,497.45 699.409,497.868 699.816,498.28C700.222,498.692 700.605,498.992 700.666,498.947C700.727,498.902 700.777,498.95 700.777,499.053C700.777,499.157 700.939,499.4 701.136,499.593C701.334,499.787 701.495,499.993 701.495,500.051C701.495,500.108 701.212,500.129 700.867,500.096C699.55,499.97 667.892,499.954 653.93,500.073L639.332,500.196L638.704,500.616C638.319,500.873 638.076,501.133 638.076,501.286C638.076,501.572 637.698,502.018 637.178,502.347C636.632,502.692 636.217,503.155 636.354,503.265C636.42,503.318 636.66,503.532 636.886,503.741C637.112,503.949 637.503,504.165 637.754,504.221L638.209,504.321L637.948,504.652C637.695,504.971 637.629,504.981 636.056,504.943C634.7,504.909 634.345,504.854 633.947,504.614C633.684,504.455 632.742,503.875 631.853,503.323C630.867,502.711 629.963,502.255 629.531,502.151C629.142,502.058 628.598,501.866 628.322,501.726C627.029,501.067 624.664,500.975 623.181,501.524C622.262,501.865 622.084,502 620.651,503.446C619.803,504.302 618.904,505.273 618.653,505.604C618.162,506.251 617.135,507.894 617.135,508.033C617.135,508.079 617.553,508.078 618.065,508.032C618.836,507.961 619.022,507.986 619.156,508.177C619.352,508.458 619.276,508.612 618.03,510.472C616.774,512.348 616.472,512.923 615.577,515.146C614.69,517.347 613.947,519.932 613.555,522.183C613.302,523.63 613.302,523.714 613.323,547.129C613.334,560.051 613.324,567.628 613.299,568.214C613.274,568.801 613.252,570.481 613.25,571.947C613.248,573.413 613.224,574.613 613.198,574.613C613.133,574.614 612.414,573.96 612.204,573.71C612.113,573.602 611.675,573.218 611.231,572.856C609.726,571.632 609.844,571.812 609.84,570.738C609.837,570.19 609.887,569.779 609.956,569.779C610.035,569.779 610.075,565.762 610.075,551.063C610.075,538.295 610.03,528.903 609.97,528.948ZM612.119,571.307C612.124,571.21 612.12,564.759 612.11,552.723C612.098,538.918 612.049,530.707 611.975,530.477C611.911,530.276 611.827,528.733 611.788,527.047C611.725,524.27 611.743,523.837 611.977,522.448C612.754,517.841 614.045,514.533 616.504,510.846C617.049,510.029 617.472,509.331 617.443,509.297C617.349,509.186 616.201,509.699 616.046,509.921C615.93,510.087 615.757,510.114 615.289,510.041C614.955,509.988 614.637,509.895 614.583,509.834C614.444,509.68 614.72,509.198 615.099,508.932C615.273,508.81 615.689,508.179 616.024,507.529C617.061,505.517 618.494,503.815 621.055,501.549C622.041,500.677 622.394,500.445 622.85,500.368C623.162,500.316 623.644,500.157 623.922,500.014C624.293,499.824 624.53,499.787 624.819,499.874C625.035,499.939 625.912,500.028 626.768,500.071C628.479,500.158 629.769,500.517 631.229,501.313C631.671,501.554 632.475,501.938 633.015,502.167L633.997,502.583L634.57,501.945C634.886,501.594 635.475,501.118 635.88,500.887C637.208,500.128 637.042,500.077 634.507,500.457C632.71,500.727 632.234,500.657 631.222,499.971C629.825,499.026 628.913,498.713 627.312,498.631C626.148,498.571 625.915,498.519 625.756,498.286C625.478,497.878 624.934,497.93 623.97,498.458C623.315,498.817 623.076,498.89 622.97,498.764C622.761,498.515 622.179,498.564 621.82,498.86C621.646,499.004 620.91,499.458 620.186,499.869C617.284,501.518 616.38,502.168 615.449,503.276C614.569,504.323 613.242,506.583 612.684,507.983C612.318,508.903 612.109,509.518 612.109,509.678C612.109,509.765 612.062,509.947 612.005,510.083C611.877,510.383 611.578,511.592 611.345,512.747C611.25,513.217 611.078,514.816 610.963,516.302C610.774,518.733 610.768,519.497 610.896,523.91C610.987,527.074 611.039,536.866 611.041,551.479L611.043,570.666L611.388,571.076C611.746,571.501 612.103,571.614 612.119,571.307ZM698.623,498.801C698.623,498.757 698.49,498.514 698.328,498.261L698.032,497.8L663.575,497.77C642.917,497.751 629.091,497.791 629.051,497.868C629.014,497.94 629.183,498.043 629.427,498.097C629.671,498.151 630.023,498.289 630.209,498.404C630.398,498.52 631.035,498.644 631.649,498.684C634.923,498.899 698.623,499.01 698.623,498.801Z"/>
    </g>
    <g id="path12" serif:id="path1" transform="matrix(0.937448,2.29608e-16,-2.39179e-16,0.976522,-570.692,-483.729)">
        <path d="M609.97,528.948C609.912,528.991 610.015,527.001 610.015,527.001L610.081,520.585C610.127,516.06 610.189,514.051 610.29,513.769C610.369,513.549 610.434,512.931 610.434,512.396C610.434,511.737 610.526,511.11 610.72,510.45C611.708,507.089 611.9,506.499 612.17,505.992C612.334,505.683 612.468,505.396 612.468,505.354C612.468,504.858 616.337,500.05 617.246,499.416C618.736,498.378 620.005,497.741 621.802,497.133C622.164,497.01 622.675,496.835 622.939,496.744C623.836,496.434 625.448,496.29 627.904,496.301C629.254,496.307 642.204,496.369 656.683,496.44C671.161,496.511 685.585,496.581 688.735,496.596C691.885,496.611 694.492,496.588 694.528,496.544C694.565,496.501 695.372,496.465 696.323,496.465C698.017,496.465 698.055,496.472 698.283,496.816C698.41,497.009 698.641,497.249 698.796,497.349C698.95,497.45 699.409,497.868 699.816,498.28C700.222,498.692 700.605,498.992 700.666,498.947C700.727,498.902 700.777,498.95 700.777,499.053C700.777,499.157 700.939,499.4 701.136,499.593C701.334,499.787 701.495,499.993 701.495,500.051C701.495,500.108 701.212,500.129 700.867,500.096C699.55,499.97 667.892,499.954 653.93,500.073L639.332,500.196L638.704,500.616C638.319,500.873 638.076,501.133 638.076,501.286C638.076,501.572 637.698,502.018 637.178,502.347C636.632,502.692 636.217,503.155 636.354,503.265C636.42,503.318 636.66,503.532 636.886,503.741C637.112,503.949 637.503,504.165 637.754,504.221L638.209,504.321L637.948,504.652C637.695,504.971 637.629,504.981 636.056,504.943C634.7,504.909 634.345,504.854 633.947,504.614C633.684,504.455 632.742,503.875 631.853,503.323C630.867,502.711 629.963,502.255 629.531,502.151C629.142,502.058 628.598,501.866 628.322,501.726C627.029,501.067 624.664,500.975 623.181,501.524C622.262,501.865 622.084,502 620.651,503.446C619.803,504.302 618.904,505.273 618.653,505.604C618.162,506.251 617.135,507.894 617.135,508.033C617.135,508.079 617.553,508.078 618.065,508.032C618.836,507.961 619.022,507.986 619.156,508.177C619.352,508.458 619.276,508.612 618.03,510.472C616.774,512.348 616.472,512.923 615.577,515.146C614.69,517.347 613.947,519.932 613.555,522.183C613.302,523.63 613.302,523.714 613.323,547.129C613.334,560.051 613.324,567.628 613.299,568.214C613.274,568.801 613.252,570.481 613.25,571.947C613.248,573.413 613.224,574.613 613.198,574.613C613.133,574.614 612.414,573.96 612.204,573.71C612.113,573.602 611.675,573.218 611.231,572.856C609.726,571.632 609.844,571.812 609.84,570.738C609.837,570.19 609.887,569.779 609.956,569.779C610.035,569.779 610.075,565.762 610.075,551.063C610.075,538.295 610.03,528.903 609.97,528.948ZM612.119,571.307C612.124,571.21 612.12,564.759 612.11,552.723C612.098,538.918 612.049,530.707 611.975,530.477C611.911,530.276 611.827,528.733 611.788,527.047C611.725,524.27 611.743,523.837 611.977,522.448C612.754,517.841 614.045,514.533 616.504,510.846C617.049,510.029 617.472,509.331 617.443,509.297C617.349,509.186 616.201,509.699 616.046,509.921C615.93,510.087 615.757,510.114 615.289,510.041C614.955,509.988 614.637,509.895 614.583,509.834C614.444,509.68 614.72,509.198 615.099,508.932C615.273,508.81 615.689,508.179 616.024,507.529C617.061,505.517 618.494,503.815 621.055,501.549C622.041,500.677 622.394,500.445 622.85,500.368C623.162,500.316 623.644,500.157 623.922,500.014C624.293,499.824 624.53,499.787 624.819,499.874C625.035,499.939 625.912,500.028 626.768,500.071C628.479,500.158 629.769,500.517 631.229,501.313C631.671,501.554 632.475,501.938 633.015,502.167L633.997,502.583L634.57,501.945C634.886,501.594 635.475,501.118 635.88,500.887C637.208,500.128 637.042,500.077 634.507,500.457C632.71,500.727 632.234,500.657 631.222,499.971C629.825,499.026 628.913,498.713 627.312,498.631C626.148,498.571 625.915,498.519 625.756,498.286C625.478,497.878 624.934,497.93 623.97,498.458C623.315,498.817 623.076,498.89 622.97,498.764C622.761,498.515 622.179,498.564 621.82,498.86C621.646,499.004 620.91,499.458 620.186,499.869C617.284,501.518 616.38,502.168 615.449,503.276C614.569,504.323 613.242,506.583 612.684,507.983C612.318,508.903 612.109,509.518 612.109,509.678C612.109,509.765 612.062,509.947 612.005,510.083C611.877,510.383 611.578,511.592 611.345,512.747C611.25,513.217 611.078,514.816 610.963,516.302C610.774,518.733 610.768,519.497 610.896,523.91C610.987,527.074 611.039,536.866 611.041,551.479L611.043,570.666L611.388,571.076C611.746,571.501 612.103,571.614 612.119,571.307ZM698.623,498.801C698.623,498.757 698.49,498.514 698.328,498.261L698.032,497.8L663.575,497.77C642.917,497.751 629.091,497.791 629.051,497.868C629.014,497.94 629.183,498.043 629.427,498.097C629.671,498.151 630.023,498.289 630.209,498.404C630.398,498.52 631.035,498.644 631.649,498.684C634.923,498.899 698.623,499.01 698.623,498.801Z"/>
    </g>
    <g id="path13" serif:id="path1" transform="matrix(-0.979545,-1.1996e-16,1.1996e-16,-0.979545,203.588,129.965)">
        <path d="M187.334,55.807C186.813,55.482 186.529,55.106 186.644,54.889C186.692,54.797 186.857,54.71 187.012,54.696C187.529,54.647 187.647,54.578 187.822,54.226C187.956,53.955 187.995,53.712 187.995,53.146L187.995,52.415L187.541,52.415C187.216,52.415 187.087,52.378 187.087,52.283C187.087,52.211 187.019,52.078 186.936,51.989C186.8,51.843 186.41,51.826 183.058,51.826L179.331,51.826L178.563,52.155C178.14,52.335 177.544,52.562 177.237,52.66C176.665,52.842 176.571,52.931 176.824,53.053C176.957,53.118 176.955,53.13 176.803,53.204C176.533,53.336 175.52,53.306 174.96,53.15C174.002,52.881 172.963,52.138 172.963,51.721C172.963,51.54 172.883,51.532 171.035,51.532C169.179,51.532 168.296,51.536 168.296,51.536L167.763,47.961C168.225,47.961 170.155,47.863 170.155,47.818C170.155,47.773 170.907,47.735 171.827,47.734C172.747,47.732 174.392,47.703 175.482,47.669C177.673,47.601 185.11,47.486 186.114,47.505C186.773,47.518 187.087,47.408 187.087,47.162C187.087,46.938 187.403,46.896 188.797,46.94L190.102,46.98L190.536,47.351C190.774,47.556 191.003,47.794 191.044,47.882C191.111,48.023 191.496,48.043 194.616,48.065C196.907,48.081 198.189,48.054 198.333,47.987C198.488,47.914 198.602,47.915 198.72,47.99C198.841,48.067 198.904,48.067 198.943,47.991C198.976,47.928 199.089,47.912 199.217,47.951C199.478,48.031 201.055,48.035 202.358,47.959C203.371,47.9 203.548,47.825 203.867,47.311C204.102,46.933 204.508,46.917 205.142,47.262C205.39,47.397 205.629,47.507 205.673,47.507C205.718,47.507 205.754,47.566 205.754,47.638C205.754,47.71 205.837,47.824 205.939,47.89C206.135,48.018 206.662,48.805 206.662,48.969C206.662,49.021 206.724,49.138 206.8,49.228C206.947,49.402 206.987,49.936 206.862,50.044C206.82,50.079 206.656,50.332 206.497,50.605C206.338,50.877 206.059,51.257 205.877,51.449C205.554,51.791 204.749,52.219 204.43,52.219C204.341,52.219 204.068,52.003 203.823,51.739L203.377,51.259L201.901,51.185C201.09,51.145 198.335,51.14 195.779,51.176L191.132,51.24L190.689,51.779C190.347,52.195 190.191,52.317 189.998,52.317C189.862,52.317 189.713,52.372 189.667,52.44C189.621,52.507 189.568,52.938 189.549,53.397C189.501,54.533 189.285,55.04 188.605,55.617C188.029,56.106 187.857,56.132 187.334,55.807ZM188.312,55.354C188.671,54.957 188.904,54.402 188.904,53.945C188.904,53.402 188.743,53.232 188.729,53.759C188.724,53.965 188.726,54.193 188.735,54.266C188.752,54.414 188.2,55.036 187.975,55.122C187.737,55.212 187.811,55.503 188.083,55.549C188.109,55.553 188.212,55.465 188.313,55.354L188.312,55.354ZM189.001,53.052C189.077,53.017 189.102,52.865 189.082,52.561C189.057,52.196 189.024,52.121 188.885,52.121C188.737,52.121 188.723,52.165 188.768,52.489C188.796,52.691 188.82,52.912 188.82,52.98C188.821,53.117 188.842,53.125 189.001,53.052ZM176.357,52.57C176.487,52.439 176.809,52.24 177.071,52.126C177.333,52.013 177.621,51.88 177.712,51.831C177.818,51.774 177.225,51.739 176.06,51.734C175.061,51.73 174.094,51.701 173.913,51.671L173.582,51.616L173.788,51.83C174.095,52.148 174.723,52.502 175.257,52.655C175.932,52.85 176.089,52.838 176.357,52.57ZM167.763,47.961C167.825,47.928 167.763,47.961 167.763,47.961L168.296,51.536C168.126,51.535 167.677,51.566 167.677,51.608C167.677,51.649 167.324,51.659 167.07,51.886C166.68,51.795 166.872,51.873 166.364,51.575C165.619,51.138 163.972,50.453 163.665,50.452C163.577,50.451 163.399,50.385 163.269,50.304C163.139,50.224 162.935,50.158 162.816,50.158C162.587,50.158 161.73,49.771 161.73,49.668C161.73,49.567 162.307,49.319 162.969,49.135C163.726,48.924 164.441,48.689 164.662,48.578C164.753,48.532 165.069,48.398 165.364,48.28C165.659,48.163 166.118,47.936 166.383,47.776L166.864,47.486L167.103,47.758C167.297,47.978 167.619,48.037 167.763,47.961ZM189.565,51.342C189.565,51.235 188.136,51.136 188.048,51.237C188.009,51.282 187.996,51.355 188.019,51.401C188.072,51.504 189.565,51.448 189.565,51.342ZM205.43,51.141C205.631,50.926 205.82,50.749 205.85,50.748C205.959,50.745 206.264,50.051 206.218,49.91C206.187,49.814 206.053,49.765 205.818,49.764C205.624,49.763 205.412,49.723 205.348,49.675C205.184,49.551 204.849,49.754 204.806,50.003C204.787,50.115 204.749,50.361 204.722,50.55C204.694,50.739 204.651,51.037 204.626,51.213C204.582,51.513 204.594,51.532 204.822,51.532C204.989,51.532 205.179,51.41 205.43,51.141ZM204.434,50.988C204.594,50.595 204.612,50.421 204.582,49.54C204.563,48.989 204.506,48.45 204.455,48.342C204.404,48.234 204.341,48.068 204.317,47.974C204.253,47.73 204.175,47.757 203.807,48.145C203.628,48.334 203.426,48.489 203.358,48.489C203.255,48.489 203.234,48.676 203.234,49.582C203.234,50.638 203.241,50.678 203.428,50.76C203.534,50.807 203.756,50.977 203.921,51.139C204.087,51.301 204.229,51.434 204.237,51.434C204.245,51.434 204.334,51.233 204.434,50.988ZM186.242,51.155C186.375,51.055 186.194,50.852 185.724,50.574C185.411,50.389 185.162,50.376 180.933,50.318C169.134,50.157 165.446,50.133 165.446,50.217C165.446,50.398 166.092,50.572 167.057,50.652C168.639,50.782 169.949,50.827 175.565,50.944C179.965,51.036 182.802,51.113 185.724,51.219C185.951,51.228 186.184,51.199 186.242,51.155ZM190.556,51.09C190.556,51.009 190.519,50.943 190.473,50.943C190.428,50.943 190.391,51.009 190.391,51.09C190.391,51.171 190.428,51.237 190.473,51.237C190.519,51.237 190.556,51.171 190.556,51.09ZM190.06,50.913C190.06,50.842 190.173,50.647 190.311,50.479C190.616,50.109 190.518,49.986 190.158,50.285C189.886,50.51 189.765,50.772 189.853,50.942C189.927,51.084 190.06,51.065 190.06,50.913ZM202.924,50.604C202.936,50.593 202.966,50.322 202.992,50.003C203.046,49.332 202.886,48.556 202.684,48.509C202.529,48.474 202.45,48.758 202.539,49.03C202.625,49.291 202.629,49.882 202.545,50.037C202.509,50.106 202.495,50.295 202.515,50.457C202.546,50.706 202.579,50.742 202.727,50.688C202.824,50.653 202.913,50.615 202.924,50.604ZM189.723,50.231C189.907,50.002 190.059,49.782 190.059,49.742C190.06,49.702 189.893,49.476 189.688,49.24C189.327,48.823 189.295,48.808 188.692,48.762C188.056,48.713 187.944,48.758 187.527,49.232C187.474,49.292 187.315,49.399 187.173,49.469C187.031,49.539 186.927,49.639 186.942,49.692C186.957,49.745 187.135,49.898 187.338,50.031C187.54,50.164 187.779,50.357 187.869,50.461C188.003,50.615 188.154,50.649 188.709,50.649L189.387,50.649L189.723,50.231ZM192.294,50.45C192.473,50.341 192.621,50.234 192.621,50.213C192.621,50.191 192.643,50.104 192.671,50.019C192.711,49.893 192.657,49.863 192.386,49.863C191.884,49.863 191.299,50.231 191.299,50.546C191.299,50.721 191.95,50.658 192.294,50.45ZM193.957,50.388C194.161,50.167 194.142,49.947 193.9,49.737C193.705,49.569 193.688,49.569 193.469,49.737C193.084,50.032 192.786,50.379 192.786,50.531C192.786,50.733 193.745,50.615 193.957,50.388ZM195.568,50.383C195.738,50.25 195.743,50.22 195.632,50.018C195.565,49.897 195.42,49.74 195.31,49.67C195.128,49.554 195.077,49.572 194.773,49.858C194.456,50.157 194.337,50.494 194.522,50.567C194.706,50.64 195.393,50.519 195.568,50.383ZM197.201,50.436C197.436,50.309 197.475,50.049 197.287,49.863C197.219,49.796 197.163,49.695 197.163,49.64C197.163,49.584 197.235,49.615 197.322,49.709C197.44,49.836 197.518,49.854 197.632,49.78C198.026,49.523 198.221,48.873 197.941,48.745C197.87,48.712 197.535,48.685 197.198,48.685C196.527,48.685 196.416,48.806 196.775,49.144C197.068,49.421 197.105,49.547 196.878,49.496C196.743,49.465 196.633,49.519 196.53,49.669C196.447,49.789 196.307,49.97 196.22,50.071C196.132,50.171 196.076,50.27 196.096,50.289C196.362,50.559 196.854,50.624 197.201,50.436ZM198.504,50.427C198.765,50.374 198.981,50.187 198.981,50.014C198.981,49.8 198.671,49.553 198.335,49.5C198.04,49.453 197.99,49.477 197.855,49.729C197.772,49.884 197.657,50.046 197.599,50.089C197.541,50.132 197.494,50.258 197.494,50.368C197.494,50.549 197.533,50.565 197.886,50.521C198.102,50.495 198.38,50.453 198.504,50.427ZM200.586,50.356C200.702,50.304 200.798,50.199 200.798,50.124C200.798,50.003 200.089,49.078 199.996,49.078C199.861,49.078 199.128,50.241 199.19,50.359C199.253,50.481 200.313,50.479 200.586,50.356ZM201.957,50.362C202.081,50.34 202.284,49.735 202.284,49.39C202.284,48.856 202.217,48.685 202.007,48.686C201.803,48.688 201.233,49.61 201.157,50.062C201.117,50.296 201.139,50.342 201.305,50.37C201.468,50.398 201.781,50.394 201.957,50.362ZM190.721,49.961C190.721,49.907 190.705,49.863 190.685,49.863C190.665,49.863 190.625,49.907 190.597,49.961C190.569,50.015 190.585,50.059 190.633,50.059C190.682,50.059 190.721,50.015 190.721,49.961ZM184.465,49.805C184.693,49.534 184.296,49.52 176.906,49.549C172.761,49.565 169.314,49.61 169.246,49.647C169.178,49.685 171.018,49.739 173.334,49.766C180.511,49.852 184.414,49.866 184.465,49.805ZM165.116,49.667C165.116,49.613 165.081,49.569 165.038,49.569C164.996,49.569 164.938,49.613 164.91,49.667C164.881,49.721 164.917,49.765 164.987,49.765C165.058,49.765 165.116,49.721 165.116,49.667ZM186.096,49.667C186.096,49.613 186.058,49.569 186.013,49.569C185.968,49.569 185.93,49.613 185.93,49.667C185.93,49.721 185.968,49.765 186.013,49.765C186.058,49.765 186.096,49.721 186.096,49.667ZM193.233,49.616C193.364,49.499 193.376,49.433 193.303,49.242C193.147,48.836 192.31,48.508 192.161,48.794C192.099,48.913 192.82,49.767 192.979,49.762C193.032,49.76 193.146,49.695 193.233,49.616ZM194.647,49.607C194.928,49.388 194.902,49.131 194.573,48.89C194.266,48.664 193.579,48.608 193.479,48.8C193.419,48.916 193.686,49.226 194.149,49.577C194.447,49.802 194.399,49.799 194.647,49.607ZM196.245,49.593C196.43,49.379 196.527,49.078 196.41,49.078C196.362,49.078 196.228,48.99 196.112,48.882C195.891,48.675 195.072,48.597 194.98,48.774C194.954,48.823 195.107,49.066 195.319,49.314C195.736,49.802 195.997,49.881 196.245,49.593ZM199.509,49.298C199.68,49.008 199.73,48.849 199.67,48.778C199.56,48.647 198.467,48.7 198.428,48.837C198.383,49 198.986,49.778 199.131,49.745C199.203,49.728 199.373,49.527 199.509,49.298ZM201.209,49.544C201.447,49.108 201.539,48.86 201.494,48.773C201.469,48.725 201.154,48.685 200.793,48.685C200.008,48.685 199.959,48.792 200.474,49.38C200.859,49.819 201.037,49.859 201.209,49.544ZM190.928,49.47C190.956,49.416 190.891,49.332 190.783,49.284C190.582,49.193 190.109,48.613 190.042,48.376C190.011,48.265 189.982,48.266 189.867,48.378C189.675,48.567 189.695,48.707 189.957,49.004C190.356,49.457 190.819,49.679 190.928,49.47ZM205.588,49.3C206.232,49.249 206.276,49.223 206.161,48.967C206.01,48.633 205.41,47.895 205.308,47.92C205.258,47.933 205.112,47.861 204.985,47.76C204.684,47.521 204.57,47.65 204.686,48.1C204.734,48.287 204.772,48.634 204.77,48.872C204.767,49.39 204.817,49.508 204.998,49.41C205.073,49.37 205.338,49.32 205.588,49.3ZM176.39,49.122C179.525,49.086 182.857,49.05 183.795,49.043C185.293,49.031 185.52,49.008 185.66,48.857C185.748,48.763 185.854,48.684 185.896,48.682C185.988,48.678 186.343,48.335 186.343,48.25C186.343,48.149 174.41,48.366 170.691,48.535C170.055,48.564 168.754,48.614 167.8,48.647C166.277,48.699 166.023,48.731 165.715,48.909C165.522,49.021 165.364,49.151 165.364,49.198C165.364,49.244 166.555,49.261 168.028,49.235C169.493,49.209 173.256,49.158 176.39,49.122ZM191.834,49.213C191.94,49.164 191.901,49.101 191.655,48.921C191.306,48.666 191.051,48.619 191.051,48.81C191.051,48.942 191.439,49.267 191.602,49.272C191.655,49.273 191.759,49.246 191.834,49.213ZM187.252,48.882C187.252,48.828 187.213,48.783 187.164,48.783C187.116,48.783 187.1,48.828 187.128,48.882C187.156,48.936 187.195,48.98 187.216,48.98C187.236,48.98 187.252,48.936 187.252,48.882ZM187.5,48.587C187.5,48.533 187.462,48.489 187.417,48.489C187.372,48.489 187.334,48.533 187.334,48.587C187.334,48.641 187.372,48.685 187.417,48.685C187.462,48.685 187.5,48.641 187.5,48.587ZM187.747,48.293C187.747,48.239 187.71,48.195 187.665,48.195C187.619,48.195 187.582,48.239 187.582,48.293C187.582,48.347 187.619,48.391 187.665,48.391C187.71,48.391 187.747,48.347 187.747,48.293ZM189.399,48.195C189.49,48.087 189.555,47.997 189.544,47.995C189.141,47.934 187.995,47.937 187.995,47.999C187.995,48.391 189.104,48.545 189.399,48.195ZM190.556,48.2C190.556,48.005 190.448,47.864 190.37,47.957C190.305,48.034 190.398,48.391 190.483,48.391C190.523,48.391 190.556,48.305 190.556,48.2Z" style="fill-rule:nonzero;"/>
    </g>
</svg>
