<?xml version="1.0" encoding="UTF-8" standalone="no"?>
<!DOCTYPE svg PUBLIC "-//W3C//DTD SVG 1.1//EN" "http://www.w3.org/Graphics/SVG/1.1/DTD/svg11.dtd">
<svg width="100%" height="100%" viewBox="0 0 270 85" version="1.1" xmlns="http://www.w3.org/2000/svg" xmlns:xlink="http://www.w3.org/1999/xlink" xml:space="preserve" xmlns:serif="http://www.serif.com/" style="fill-rule:evenodd;clip-rule:evenodd;stroke-linejoin:round;stroke-miterlimit:2;">
    <g id="path3" transform="matrix(-1.31727,0,0,1.31727,273.407,-95.0904)">
        <g id="g1">
            <path id="path31" serif:id="path3" d="M10.83,135.675C10.522,135.625 10.036,135.405 9.749,135.187C7.838,133.73 4.813,130.835 4.32,129.991C4.124,129.657 3.77,129.086 3.532,128.724C2.98,127.884 2.936,127.084 3.435,126.959C3.68,126.898 3.757,126.786 3.757,126.496C3.757,126.053 3.553,125.352 3.272,124.831C3.114,124.539 3.109,124.44 3.248,124.324C3.541,124.079 4.742,123.3 5.345,122.965L5.919,122.645L5.919,109.294C5.919,101.951 5.888,95.943 5.85,95.943C5.813,95.943 5.589,96.323 5.353,96.788L4.924,97.632L4.869,110.301C4.817,122.183 4.799,122.977 4.578,123.095C4.354,123.215 4.337,122.535 4.256,110.27L4.17,97.318L4.715,96.327C5.015,95.782 5.373,95.214 5.512,95.065C5.669,94.897 5.799,94.487 5.856,93.981L5.947,93.167L5.325,92.475C4.983,92.094 4.703,91.735 4.703,91.676C4.703,91.618 4.832,91.433 4.989,91.265L5.275,90.96L6.337,92.081C8.086,93.929 10.334,95.303 11.993,95.537C13.755,95.786 14.546,96.921 13.951,98.346C13.488,99.455 12.556,99.986 11.548,99.714C10.515,99.436 9.993,98.473 10.251,97.322C10.326,96.991 10.476,96.592 10.585,96.437C10.86,96.043 10.839,95.988 10.375,95.896C10.151,95.851 9.644,95.661 9.248,95.474C8.852,95.286 8.488,95.133 8.439,95.133C8.391,95.133 8.351,97.14 8.351,99.593L8.351,104.053L9.116,103.545C9.827,103.073 9.949,103.038 10.816,103.053C11.706,103.068 11.747,103.055 11.674,102.783C11.632,102.625 11.596,102.15 11.595,101.727L11.594,100.958L11.019,100.916C10.545,100.882 10.438,100.823 10.403,100.576C10.371,100.351 10.445,100.255 10.702,100.191C11.253,100.052 13.454,100.182 13.635,100.363C13.89,100.618 13.533,100.942 12.996,100.942L12.539,100.942L12.539,102.636C12.539,104.554 12.44,104.736 11.72,104.131C10.783,103.343 9.152,104.014 8.56,105.432C8.38,105.864 8.351,106.98 8.351,113.55C8.351,121.003 8.345,121.172 8.08,121.412C7.931,121.547 7.838,121.687 7.874,121.722C7.971,121.82 8.884,121.1 9.524,120.423C10.128,119.784 10.012,119.806 11.313,120.074C11.589,120.131 11.76,120.283 11.883,120.58C12.102,121.108 13.938,123.849 15.227,125.571C16.418,127.163 18.678,129.561 19.082,129.663C19.366,129.734 19.378,129.794 19.332,130.912C19.254,132.815 19.218,132.935 18.647,133.176C18.372,133.292 17.979,133.363 17.775,133.334C17.57,133.304 17.403,133.307 17.403,133.341C17.403,133.373 17.616,133.69 17.876,134.045C18.573,134.994 18.506,135.173 17.597,134.793L17.125,134.595L16.832,135.198C16.518,135.844 16.191,135.994 16.181,135.497C16.178,135.33 16.039,134.934 15.873,134.616L15.571,134.04L14.765,134.536C12.59,135.873 12.39,135.931 10.83,135.675ZM12.613,133.792C13.009,133.43 13.61,132.959 13.949,132.745C14.564,132.356 14.699,132.044 14.214,132.132C13.342,132.291 11.323,133.674 11.323,134.112C11.323,134.281 11.509,134.414 11.777,134.439C11.841,134.445 12.217,134.154 12.613,133.792ZM11.436,133.256C12.196,132.477 13.643,131.735 15.166,131.346C16.462,131.015 16.998,130.994 16.998,131.275C16.998,131.41 16.863,131.477 16.593,131.477C16.37,131.477 16.187,131.542 16.187,131.621C16.187,131.717 16.498,131.733 17.133,131.671C17.76,131.609 18.079,131.625 18.079,131.719C18.079,131.797 18.003,131.888 17.91,131.922C17.609,132.033 18.02,132.325 18.335,132.225C18.537,132.161 18.619,132.022 18.619,131.747C18.619,131.41 18.562,131.353 18.18,131.311L17.741,131.262L18.113,131.103C18.317,131.015 18.484,130.885 18.484,130.813C18.484,130.552 18.212,130.525 17.788,130.745C17.467,130.911 17.042,130.964 16.16,130.948C15.215,130.931 14.836,130.984 14.337,131.205C13.62,131.522 12.065,132.471 11.66,132.838C10.746,133.667 7.743,131.311 5.381,127.914C4.826,127.115 4.352,126.518 4.329,126.588C4.267,126.773 5.2,128.333 5.822,129.085C6.117,129.441 6.329,129.761 6.294,129.797C6.176,129.914 5.132,128.678 4.697,127.908C4.322,127.244 4.027,127.037 4.027,127.439C4.027,127.804 5.254,129.298 6.56,130.523C7.719,131.611 10.553,133.895 10.758,133.907C10.781,133.908 11.087,133.615 11.436,133.256ZM14.69,132.878C14.875,132.715 14.435,132.866 14.22,133.039C13.973,133.237 13.977,133.239 14.296,133.088C14.481,132.999 14.659,132.905 14.69,132.878ZM12.857,131.426C14.094,130.658 14.9,130.396 16.035,130.396C16.543,130.396 16.746,130.327 16.988,130.07C17.157,129.89 17.459,129.675 17.66,129.591L18.025,129.44L17.022,128.398C15.458,126.776 12.11,122.186 11.611,120.981C11.496,120.703 11.317,120.539 11.077,120.49C10.878,120.45 10.612,120.377 10.485,120.328C10.232,120.23 9.563,120.797 9.572,121.102C9.575,121.198 9.672,121.102 9.788,120.889C9.982,120.53 10.043,120.506 10.61,120.57C11.199,120.637 11.452,120.817 11.456,121.175C11.458,121.269 11.294,121.345 11.087,121.347C10.882,121.349 10.451,121.47 10.127,121.617C9.804,121.764 9.492,121.854 9.433,121.818C9.375,121.782 9.252,121.843 9.16,121.954C9.068,122.064 9.043,122.155 9.104,122.155C9.165,122.155 9.026,122.352 8.795,122.594C8.564,122.835 8.197,123.337 7.979,123.709L7.584,124.384L6.506,124.338C5.913,124.313 5.22,124.246 4.964,124.189L4.5,124.085L4.891,123.927C5.105,123.84 5.249,123.737 5.21,123.698C5.171,123.659 4.803,123.799 4.392,124.01L3.644,124.393L3.9,124.726C4.041,124.91 4.158,124.987 4.159,124.899C4.161,124.81 4.102,124.7 4.027,124.654C3.817,124.524 3.868,124.317 4.11,124.317C4.278,124.317 4.314,124.415 4.265,124.744C4.213,125.104 4.363,125.408 5.217,126.669C7.133,129.499 8.36,130.852 10.175,132.138L11.121,132.807L11.391,132.488C11.539,132.312 12.199,131.834 12.857,131.426ZM10.189,131.992C9.752,131.689 8.945,131.014 8.396,130.493C7.474,129.616 7.413,129.525 7.582,129.269C7.867,128.84 8.009,128.865 8.258,129.388C8.768,130.457 10.535,131.883 11.35,131.883C11.484,131.883 11.593,131.934 11.593,131.997C11.593,132.113 11.146,132.564 11.042,132.551C11.011,132.547 10.627,132.296 10.189,131.992ZM10.545,131.337C8.684,130.407 7.552,128.17 7.698,125.711C7.822,123.63 9.233,121.886 11.053,121.564C11.393,121.504 11.318,121.557 10.786,121.752C9.512,122.22 8.658,123.285 8.146,125.048C7.836,126.114 7.917,127.414 8.349,128.302C9.008,129.66 10.709,130.905 12.284,131.185L12.877,131.29L12.445,131.519C11.837,131.84 11.485,131.807 10.545,131.337ZM12.183,130.932C10.729,130.644 9.18,129.459 8.536,128.144C8.218,127.493 8.188,127.305 8.24,126.241C8.334,124.304 9.263,122.627 10.538,122.096L11.037,121.888L10.64,122.643C9.637,124.549 10.573,127.146 12.676,128.29C13.577,128.78 14.802,128.906 15.566,128.587C15.856,128.465 16.121,128.393 16.154,128.427C16.243,128.516 15.954,129.322 15.66,129.803C15.469,130.117 15.243,130.263 14.764,130.383C14.412,130.472 13.892,130.663 13.607,130.808C13.048,131.094 13.015,131.096 12.183,130.932ZM12.475,129.58C12.602,129.375 12.259,129.002 12.095,129.166C11.943,129.317 12.061,129.721 12.257,129.721C12.329,129.721 12.427,129.657 12.475,129.58ZM11.039,128.995C11.248,128.743 11.084,128.37 10.764,128.37C10.474,128.37 10.308,128.669 10.426,128.978C10.524,129.231 10.836,129.24 11.039,128.995ZM9.922,127.63C10.031,127.347 9.671,126.6 9.446,126.644C9.105,126.711 8.959,127.101 9.132,127.481C9.307,127.865 9.796,127.957 9.922,127.63ZM9.39,127.607C9.204,127.421 9.3,127.135 9.533,127.18C9.663,127.205 9.77,127.31 9.77,127.415C9.77,127.628 9.531,127.749 9.39,127.607ZM9.678,125.082C9.703,124.952 9.636,124.857 9.517,124.857C9.266,124.857 9.115,125.077 9.233,125.269C9.356,125.467 9.625,125.354 9.678,125.082ZM15.86,129.926C15.981,129.742 16.184,129.255 16.311,128.845L16.541,128.099L16.892,128.471L17.242,128.843L16.925,129.552C16.628,130.217 16.577,130.261 16.124,130.261L15.641,130.261L15.86,129.926ZM17.208,129.418C17.339,128.99 17.382,128.967 17.614,129.198C17.797,129.381 17.781,129.42 17.466,129.563C17.135,129.714 17.119,129.706 17.208,129.418ZM7.054,129.023C6.959,128.87 7.446,128.37 7.69,128.37C7.898,128.37 7.821,128.723 7.563,128.957C7.271,129.222 7.183,129.233 7.054,129.023ZM6.26,127.951C5.988,127.572 5.785,127.247 5.808,127.229C5.879,127.174 7.448,126.881 7.476,126.917C7.491,126.936 7.542,127.205 7.589,127.516C7.668,128.031 7.641,128.106 7.283,128.361C7.067,128.514 6.86,128.64 6.823,128.64C6.785,128.64 6.532,128.33 6.26,127.951ZM13.08,128.272L12.607,128.049L13.008,127.995C13.229,127.965 13.432,128.007 13.459,128.088C13.55,128.363 13.755,128.086 13.755,127.689C13.755,127.472 13.918,126.963 14.117,126.556C14.429,125.92 14.502,125.848 14.641,126.038C14.77,126.215 14.739,126.376 14.481,126.861C14.301,127.2 14.166,127.677 14.173,127.951L14.185,128.437L14.313,127.964C14.518,127.209 14.724,126.748 14.857,126.748C15.107,126.748 15.125,127.162 14.905,127.824C14.681,128.498 14.674,128.505 14.116,128.5C13.806,128.497 13.34,128.394 13.08,128.271L13.08,128.272ZM14.971,128.39C14.971,128.199 15.263,127.424 15.335,127.424C15.489,127.424 16.187,127.896 16.187,128C16.187,128.117 15.359,128.505 15.111,128.505C15.034,128.505 14.971,128.453 14.971,128.39ZM12.211,127.71C12.125,127.571 12.577,127.429 13.113,127.426C13.619,127.423 13.584,127.641 13.063,127.745C12.491,127.859 12.299,127.851 12.211,127.71ZM11.413,126.993C10.772,126.152 10.519,125.405 10.516,124.345C10.513,123.635 10.585,123.22 10.771,122.859C11.045,122.327 11.534,121.749 11.71,121.749C11.768,121.749 12.402,122.595 13.119,123.628L14.423,125.506L14.123,126.059C13.829,126.6 13.808,126.611 13.08,126.618C12.671,126.622 12.154,126.707 11.931,126.807C11.561,126.972 11.618,126.982 12.573,126.916C13.735,126.837 14.055,127.06 12.978,127.199C12.625,127.245 12.207,127.319 12.048,127.365C11.828,127.428 11.679,127.341 11.413,126.993ZM12.945,125.803C12.945,125.728 12.853,125.668 12.742,125.668C12.63,125.668 12.539,125.728 12.539,125.803C12.539,125.877 12.63,125.938 12.742,125.938C12.853,125.938 12.945,125.877 12.945,125.803ZM12.19,124.91C12.452,124.81 12.46,124.469 12.207,124.136C11.959,123.808 11.538,123.9 11.481,124.294C11.394,124.906 11.641,125.121 12.19,124.91ZM11.661,124.587C11.515,124.35 11.732,124.151 11.943,124.326C12.048,124.413 12.134,124.538 12.134,124.603C12.134,124.766 11.764,124.753 11.661,124.587ZM15.574,127.28C15.428,127.045 15.594,126.995 15.779,127.218C15.886,127.347 15.896,127.424 15.806,127.424C15.727,127.424 15.623,127.359 15.574,127.28ZM5.392,126.697C5.264,126.543 5.374,126.494 6.017,126.417C6.446,126.365 6.934,126.291 7.101,126.251C7.314,126.2 7.405,126.24 7.405,126.383C7.405,126.81 5.706,127.075 5.392,126.697ZM15.109,126.684C15.002,126.556 14.992,126.478 15.082,126.478C15.245,126.478 15.435,126.735 15.342,126.828C15.308,126.862 15.203,126.798 15.109,126.684ZM4.87,125.94C4.778,125.792 4.703,125.64 4.703,125.602C4.703,125.564 5.155,125.532 5.707,125.532C6.26,125.532 6.868,125.473 7.059,125.401C7.371,125.282 7.405,125.301 7.405,125.592C7.405,125.871 7.312,125.935 6.723,126.062C5.657,126.29 5.065,126.251 4.87,125.94ZM4.658,125.172C4.608,125.123 4.568,124.932 4.568,124.749C4.568,124.429 4.595,124.419 5.195,124.501C5.539,124.548 6.213,124.587 6.691,124.587C7.437,124.587 7.554,124.619 7.516,124.817C7.491,124.944 7.32,125.09 7.134,125.142C6.693,125.264 4.774,125.288 4.658,125.172ZM17.302,132.063C17.209,132.026 17.057,132.026 16.964,132.063C16.871,132.101 16.947,132.132 17.133,132.132C17.319,132.132 17.395,132.101 17.302,132.063ZM7.13,123.714C7.22,123.606 7.254,123.454 7.206,123.377C7.011,123.06 6.371,123.35 6.503,123.695C6.606,123.965 6.914,123.974 7.13,123.714ZM7.173,122.121C7.38,121.966 7.398,120.964 7.402,109.59C7.406,96.696 7.329,94.296 6.899,93.97C6.769,93.871 6.632,93.788 6.594,93.786C6.509,93.781 6.572,121.892 6.658,122.121C6.693,122.214 6.772,122.29 6.835,122.29C6.897,122.29 7.049,122.214 7.173,122.121ZM12.539,98.24C12.839,97.94 12.897,97.301 12.647,97.051C12.318,96.722 11.861,96.862 11.655,97.355C11.282,98.249 11.905,98.874 12.539,98.24ZM45.641,135.045C45.307,135.019 42.753,134.935 39.967,134.858C35.52,134.737 29.641,134.327 29.299,134.116C29.237,134.077 28.942,134.133 28.643,134.238C27.393,134.679 23.245,134.815 20.75,134.497C19.661,134.358 19.688,134.441 19.802,131.664L19.903,129.216L19.057,128.777C18.061,128.261 17.095,127.252 16.629,126.24C16.154,125.211 16.317,125.097 16.903,126.046C17.57,127.128 18.563,127.996 19.803,128.585L20.818,129.067L20.68,131.991L21.372,132.193C21.753,132.305 22.855,132.529 23.821,132.692C24.787,132.855 26.003,133.07 26.523,133.17C27.043,133.269 27.986,133.382 28.617,133.42C29.669,133.484 29.697,133.48 28.955,133.367C28.509,133.3 27.445,133.06 26.591,132.834C25.736,132.608 24.554,132.297 23.964,132.143C22.706,131.815 22.319,131.631 21.866,131.146C21.577,130.836 21.529,130.649 21.505,129.718C21.489,129.128 21.434,128.578 21.383,128.495C21.324,128.399 21.382,128.362 21.542,128.392C21.759,128.434 21.8,128.591 21.835,129.52C21.865,130.321 21.935,130.66 22.108,130.835C22.564,131.296 23.883,131.639 25.645,131.754C26.574,131.815 28.063,131.995 28.955,132.154C30.341,132.402 31.272,132.454 35.373,132.514C41.505,132.603 54.309,132.198 59.49,131.75C60.382,131.673 62.054,131.548 63.205,131.471C64.357,131.394 65.388,131.3 65.496,131.263C65.604,131.225 95.594,131.199 132.14,131.204C194.534,131.213 198.614,131.199 199.025,130.983C199.444,130.762 200.215,130.558 202.774,129.988C204.147,129.682 206.017,129.497 206.016,129.668C206.016,129.734 205.135,130.211 204.057,130.727C202.98,131.244 202.098,131.7 202.098,131.741C202.098,131.782 202.615,131.795 203.246,131.771C204.964,131.706 204.727,132.042 202.706,132.537C201.108,132.929 200.049,133.365 199.646,133.796C199.449,134.007 199.203,134.179 199.099,134.179C198.995,134.179 198.838,134.251 198.75,134.339C198.628,134.461 183.22,134.524 133.296,134.606C90.622,134.676 66.13,134.766 62.597,134.866C57.081,135.022 46.738,135.131 45.641,135.045ZM26.782,133.928C26.822,133.864 26.567,133.774 26.216,133.728C25.865,133.682 25.077,133.554 24.467,133.443C23.378,133.245 23.346,133.247 22.885,133.541C22.626,133.707 22.411,133.887 22.408,133.943C22.4,134.085 26.694,134.07 26.782,133.928ZM32.571,133.814C32.405,133.782 32.101,133.781 31.896,133.812C31.69,133.843 31.826,133.869 32.198,133.871C32.569,133.872 32.737,133.846 32.571,133.814ZM31.184,133.639C31.184,133.565 30.865,133.505 30.475,133.506C29.967,133.508 29.823,133.545 29.968,133.639C30.236,133.812 31.184,133.812 31.184,133.639ZM60.571,133.503C60.618,133.428 60.558,133.329 60.438,133.284C60.18,133.184 60.036,133.294 60.16,133.495C60.272,133.677 60.462,133.68 60.571,133.503ZM22.202,133.316C22.437,133.144 22.381,133.105 21.525,132.848C21.011,132.694 20.58,132.581 20.568,132.597C20.555,132.613 20.504,132.758 20.454,132.921C20.374,133.181 20.431,133.231 20.944,133.345C21.771,133.53 21.914,133.527 22.202,133.316ZM52.667,133.306C52.927,133.277 54.812,133.157 56.855,133.039C58.899,132.922 61.027,132.768 61.584,132.697C63.191,132.491 66.587,132.224 67.326,132.245C67.698,132.256 97.596,132.267 133.767,132.27C183.701,132.274 199.531,132.313 199.531,132.433C199.531,132.519 199.758,132.416 200.035,132.203C200.312,131.989 201.209,131.461 202.028,131.029C202.847,130.596 203.426,130.268 203.314,130.3C203.001,130.388 201.677,130.793 201.174,130.954C200.925,131.033 200.591,131.118 200.431,131.142C200.27,131.165 199.622,131.296 198.991,131.432C197.887,131.67 195.339,131.68 132.922,131.684C63.83,131.689 68.158,131.656 62.53,132.221C62.195,132.255 60.949,132.343 59.76,132.417C58.571,132.492 56.656,132.613 55.504,132.688C52.402,132.888 46.38,133.121 41.835,133.217C39.631,133.263 37.776,133.355 37.714,133.42C37.609,133.533 51.615,133.425 52.667,133.306ZM61.922,133.369C61.969,133.292 61.853,133.234 61.652,133.234C61.45,133.234 61.334,133.292 61.381,133.369C61.427,133.443 61.549,133.504 61.652,133.504C61.754,133.504 61.876,133.443 61.922,133.369ZM63.442,133.267C63.477,133.161 63.368,133.098 63.149,133.098C62.808,133.098 62.705,133.228 62.895,133.418C63.034,133.557 63.377,133.463 63.442,133.267ZM64.499,132.985C64.211,132.929 64.094,133.031 64.217,133.231C64.284,133.339 64.37,133.332 64.522,133.206C64.713,133.048 64.711,133.026 64.499,132.985ZM198.045,133.098C198.045,133.009 176.092,132.963 132.457,132.963C88.878,132.963 66.841,133.009 66.786,133.098C66.73,133.188 88.627,133.234 132.374,133.234C176.065,133.234 198.045,133.188 198.045,133.098ZM65.637,132.964C65.637,132.889 65.546,132.828 65.435,132.828C65.323,132.828 65.232,132.889 65.232,132.964C65.232,133.038 65.323,133.099 65.435,133.099C65.546,133.099 65.637,133.038 65.637,132.964ZM201.871,132.337L202.436,132.15L201.765,132.232C201.396,132.277 200.971,132.402 200.82,132.511C200.558,132.699 200.563,132.704 200.925,132.616C201.134,132.566 201.56,132.44 201.871,132.337ZM202.083,123.212C202.075,123.113 202.08,122.395 202.094,121.614C202.111,120.715 202.044,119.863 201.91,119.287C201.606,117.979 201.852,117.597 202.55,118.295C203.042,118.788 203.895,118.979 204.422,118.716C205.034,118.411 205.322,118.45 205.422,118.852C205.486,119.105 205.428,119.283 205.207,119.519C204.943,119.8 204.903,119.997 204.887,121.087C204.876,121.813 204.925,122.353 205.003,122.381C205.431,122.533 205.527,122.673 205.35,122.888C205.095,123.194 204.58,123.15 204.335,122.8C204.18,122.578 204.125,122.156 204.125,121.179C204.125,119.977 204.102,119.858 203.872,119.858C203.732,119.858 203.428,119.82 203.196,119.774L202.774,119.689L202.758,121.091C202.739,122.79 202.645,123.285 202.334,123.345C202.204,123.37 202.092,123.31 202.083,123.212ZM202.909,117.877C202.51,117.719 202.098,117.238 202.098,116.929C202.098,116.572 202.316,116.533 202.698,116.822C203.034,117.076 203.599,117.075 204.213,116.818C204.927,116.52 205.096,116.553 205.046,116.98C205.018,117.217 204.86,117.428 204.597,117.582C204.151,117.841 203.227,118.003 202.909,117.877ZM202.673,115.808C202.102,115.549 201.996,115.364 202.219,115.013C202.298,114.888 202.465,114.859 202.75,114.921L203.166,115.012L203.206,114.168C203.243,113.4 203.213,113.29 202.875,112.953C202.636,112.715 202.504,112.439 202.504,112.181C202.504,111.96 202.352,111.514 202.168,111.191C201.697,110.368 201.716,109.681 202.223,109.174C202.654,108.743 203.303,108.643 203.571,108.966C203.697,109.117 203.637,109.17 203.256,109.241C202.623,109.36 202.201,109.892 202.376,110.351C202.682,111.158 202.753,111.217 203.302,111.13C203.742,111.059 203.852,111.094 204.04,111.362C204.161,111.535 204.26,111.842 204.26,112.045C204.26,112.465 204.003,113.102 203.833,113.102C203.771,113.102 203.72,113.558 203.72,114.116C203.72,115.017 203.748,115.129 203.973,115.129C204.113,115.129 204.315,114.997 204.422,114.836C204.682,114.445 204.936,114.623 204.936,115.197C204.936,116.053 203.856,116.345 202.673,115.808ZM203.628,112.237C203.668,112.133 203.665,112.012 203.621,111.968C203.506,111.853 203.168,112.165 203.256,112.307C203.366,112.486 203.546,112.452 203.628,112.237ZM204.4,110.95C204.08,110.352 204.291,109.86 204.866,109.86C205.093,109.86 205.343,110.564 205.247,110.931C205.153,111.293 204.59,111.305 204.4,110.95ZM203.64,108.61C203.355,108.386 203.083,108.309 202.608,108.316C202.023,108.325 201.963,108.297 201.963,108.017C201.963,107.467 202.746,107.289 203.63,107.638C203.835,107.719 203.871,107.679 203.833,107.413C203.794,107.14 203.693,107.079 203.179,107.019C202.419,106.93 202.318,106.866 202.047,106.295C201.753,105.676 201.771,105.24 202.108,104.811C202.597,104.19 203.461,104.393 203.439,105.124C203.433,105.314 203.397,105.393 203.36,105.3C203.267,105.07 202.709,105.086 202.511,105.325C202.34,105.53 202.514,106.034 202.828,106.243C203.063,106.401 203.649,106.363 203.833,106.179C204.098,105.915 204.219,106.243 204.325,107.508C204.449,108.997 204.345,109.165 203.64,108.61ZM202.267,104.046C201.924,103.908 201.858,103.444 202.164,103.326C202.549,103.179 204.145,103.404 204.227,103.617C204.407,104.086 203.086,104.375 202.267,104.046ZM202.073,102.789C201.812,102.528 201.951,100.875 202.233,100.875C202.379,100.875 202.448,101.055 202.477,101.517L202.518,102.158L203.716,102.158L203.694,101.349C203.67,100.476 203.729,100.325 204.052,100.449C204.482,100.614 204.275,102.508 203.787,102.866C203.553,103.038 202.264,102.98 202.073,102.789ZM202.803,101.517C202.646,101.134 202.691,99.485 202.863,99.313C203.168,99.008 203.314,99.337 203.314,100.331C203.314,101.369 203.236,101.753 203.025,101.753C202.957,101.753 202.857,101.647 202.803,101.517ZM201.918,100.042C201.869,99.992 201.828,99.475 201.828,98.893C201.828,97.856 201.835,97.835 202.164,97.835C202.349,97.835 202.775,97.761 203.11,97.672C203.953,97.446 204.138,97.649 204.228,98.901C204.286,99.71 204.261,99.87 204.07,99.943C203.745,100.068 203.682,99.953 203.612,99.107C203.555,98.418 203.525,98.36 203.263,98.43C203.105,98.472 202.84,98.508 202.672,98.509C202.403,98.51 202.369,98.579 202.369,99.107C202.369,99.96 202.195,100.319 201.918,100.042ZM14.571,98.249C14.347,97.832 14.393,96.143 14.633,95.943C15.024,95.619 15.241,96.014 15.241,97.05C15.241,97.964 15.09,98.511 14.836,98.511C14.767,98.511 14.648,98.393 14.571,98.249ZM15.87,98.263C15.38,97.722 15.755,95.799 16.267,96.224C16.525,96.438 16.531,98.146 16.275,98.358C16.137,98.473 16.04,98.45 15.87,98.263ZM202.12,97.025C201.445,96.866 201.348,96.714 201.544,96.116C201.636,95.836 201.692,95.271 201.669,94.863C201.629,94.173 201.601,94.119 201.29,94.119C201.058,94.119 200.94,94.204 200.91,94.39C200.814,94.985 200.751,95.053 200.545,94.782C200.266,94.414 200.298,93.874 200.622,93.462C201.135,92.81 202.094,93.111 202.316,93.995C202.365,94.191 202.369,94.739 202.325,95.215L202.244,96.079L203.45,96.079L203.45,94.588C203.45,93.346 203.486,93.084 203.666,93.015C204.028,92.876 204.134,93.251 204.103,94.558C204.077,95.631 204.108,95.833 204.318,95.987C204.674,96.247 204.482,96.707 203.95,96.869C203.249,97.084 202.603,97.138 202.12,97.025ZM11.729,92.897C10.467,92.561 8.783,91.636 7.856,90.768C7.385,90.328 7,89.894 7,89.804C7,89.714 6.842,89.493 6.648,89.313C6.183,88.879 5.446,87.402 5.199,86.407C5.07,85.887 5.007,85.015 5.021,83.909C5.038,82.463 5.077,82.174 5.287,81.964C5.438,81.813 5.505,81.607 5.461,81.429C5.386,81.132 5.955,79.729 6.149,79.732C6.208,79.733 6.431,80.188 6.645,80.744C7.41,82.736 8.97,84.912 10.582,86.234C11.499,86.987 11.571,87.081 11.357,87.244C11.227,87.342 11.023,87.425 10.904,87.427C10.348,87.438 8.271,85.488 6.898,83.665C6.175,82.706 6.119,82.661 6.079,83.005C6.048,83.278 6.202,83.591 6.665,84.193C7.593,85.399 8.654,86.509 9.508,87.168L10.264,87.751L9.814,87.991C9.21,88.313 9.023,88.301 8.488,87.906C8.237,87.721 8.008,87.595 7.977,87.625C7.917,87.685 8.385,88.39 8.811,88.884C9.08,89.195 9.879,89.313 10.032,89.065C10.074,88.997 10.553,88.698 11.096,88.4C12.294,87.742 13.259,87.007 14.451,85.843L15.35,84.966L15.506,85.692C15.592,86.091 15.705,86.687 15.758,87.016C15.81,87.344 15.938,87.641 16.041,87.675C16.302,87.763 16.163,85.813 15.852,85.043C15.63,84.491 15.632,84.468 15.933,84.061C16.103,83.832 16.305,83.665 16.383,83.691C16.569,83.752 16.941,85.141 17.065,86.232C17.119,86.706 17.226,87.171 17.302,87.266C17.474,87.478 17.507,87.449 16.525,87.939C15.267,88.568 12.813,89.306 11.384,89.487C10.235,89.632 10.116,89.672 10.334,89.837C10.692,90.109 12.339,89.963 13.815,89.529C15.538,89.023 16.826,88.459 18.125,87.644C19.078,87.045 19.276,86.966 19.385,87.139C19.586,87.458 19.97,87.231 19.971,86.794C19.972,86.518 20.204,86.171 20.843,85.492C21.321,84.983 21.939,84.238 22.215,83.837C22.491,83.436 22.777,83.108 22.849,83.108C23.028,83.108 22.885,85.818 22.688,86.187C22.425,86.678 18.814,88.783 18.234,88.783C18.093,88.783 17.903,88.871 17.813,88.98C17.613,89.221 15.346,90.116 13.66,90.618C12.41,90.991 12.166,91.215 13.009,91.215C13.43,91.215 15.842,90.459 17.048,89.949C17.768,89.645 17.821,89.665 17.615,90.168C17.241,91.082 17.229,91.215 17.52,91.215C17.723,91.215 17.858,91.03 18.069,90.466C18.223,90.055 18.349,89.639 18.349,89.542C18.349,89.37 18.891,89.053 19.186,89.053C19.371,89.053 19.236,90.899 19.016,91.382C18.824,91.804 18.262,92.14 17.004,92.585C16.296,92.836 15.906,92.909 15.696,92.829C15.488,92.75 15.348,92.775 15.235,92.911C15.094,93.082 14.296,93.2 14.296,93.05C14.296,93.019 14.417,92.71 14.566,92.363C15.163,90.97 14.667,90.763 13.999,92.127C13.565,93.013 13.537,93.039 13.012,93.067C12.715,93.082 12.137,93.006 11.729,92.897ZM16.354,91.427C16.505,91.206 16.476,90.539 16.315,90.539C16.178,90.539 15.782,91.336 15.782,91.611C15.782,91.772 16.213,91.634 16.354,91.427ZM14.818,88.169C14.898,87.754 14.558,86.474 14.346,86.393C14.03,86.272 13.987,86.428 14.143,87.12C14.223,87.477 14.323,87.941 14.365,88.15C14.448,88.567 14.738,88.579 14.818,88.169ZM201.797,91.76C201.112,91.221 201.034,89.985 201.654,89.515C202.047,89.217 202.766,89.285 203.268,89.668C203.64,89.952 203.72,90.102 203.72,90.526C203.72,91.287 203.23,91.947 202.627,91.998C202.304,92.025 202.037,91.949 201.797,91.76ZM19.75,90.64C19.795,90.473 19.832,89.964 19.833,89.509L19.835,88.682L21.085,87.934C21.772,87.523 22.355,87.206 22.381,87.231C22.505,87.352 21.236,89.485 20.634,90.168C19.909,90.988 19.615,91.146 19.75,90.64ZM24.41,88.254C24.151,88.044 24.094,87.875 24.105,87.353C24.116,86.825 24.186,86.651 24.495,86.385C24.752,86.164 24.97,86.085 25.179,86.138C25.447,86.205 25.555,86.09 26.026,85.236C26.322,84.697 26.716,84.036 26.9,83.767C27.122,83.442 27.196,83.214 27.118,83.091C26.94,82.81 26.973,81.699 27.165,81.505C27.3,81.367 27.246,81.255 26.891,80.936C26.457,80.546 26.42,80.539 25.121,80.571L23.794,80.603L23.297,80.076C23.024,79.786 22.687,79.293 22.548,78.981C22.299,78.417 20.973,76.987 19.309,75.488C18.453,74.716 18.448,74.708 18.709,74.446C18.97,74.185 18.977,74.186 19.518,74.578C20.012,74.935 20.196,74.98 21.469,75.053C23.65,75.178 70.289,75.218 71.571,75.096C72.605,74.997 72.734,75.012 72.99,75.256C73.692,75.924 74.658,76.758 74.731,76.758C74.775,76.758 74.964,76.9 75.151,77.073L75.491,77.388L28.542,77.418L27.483,78.446C26.901,79.011 26.447,79.489 26.474,79.506C26.501,79.524 26.736,79.695 26.996,79.886C27.341,80.139 27.584,80.217 27.891,80.172C28.437,80.092 29.098,80.438 29.358,80.942C29.936,82.06 29.221,83.716 28.172,83.691C27.76,83.682 27.698,83.753 26.897,85.148C26.128,86.487 26.062,86.666 26.133,87.193C26.196,87.657 26.154,87.842 25.918,88.141C25.563,88.592 24.89,88.642 24.41,88.254ZM28.455,82.668C28.532,82.575 28.637,82.332 28.689,82.128C28.766,81.82 28.738,81.757 28.524,81.757C28.184,81.757 27.942,82.012 27.942,82.369C27.942,82.832 28.196,82.98 28.455,82.668ZM24.536,78.708C24.737,78.517 25.197,78.209 25.557,78.023C25.917,77.837 26.185,77.658 26.152,77.625C26.017,77.49 22.943,77.749 22.943,77.896C22.943,78.14 23.755,79.055 23.972,79.055C24.081,79.055 24.335,78.899 24.536,78.708ZM73.339,76.631C73.339,76.575 73.213,76.416 73.059,76.277C72.789,76.032 71.99,76.022 48.165,75.977C34.627,75.951 23.046,75.97 22.43,76.019C21.488,76.093 21.334,76.138 21.467,76.298C21.558,76.408 21.888,76.492 22.25,76.497C22.594,76.502 22.997,76.56 23.145,76.625C23.474,76.768 73.339,76.774 73.339,76.631ZM17.537,86.384C17.535,85.433 17.301,84.342 16.915,83.481C16.695,82.992 16.698,82.958 17,82.388L17.312,81.8L17.919,82.415C19.026,83.539 19.749,85.639 19.226,86.216C18.977,86.492 17.786,87.296 17.628,87.296C17.579,87.296 17.538,86.886 17.537,86.384ZM10.749,85.735C10.099,85.177 9.567,84.693 9.567,84.659C9.567,84.626 9.764,84.514 10.006,84.411C10.247,84.309 10.739,83.963 11.099,83.644C11.78,83.039 11.774,83.039 12.135,83.667C12.286,83.929 11.71,84.804 11.14,85.177C10.71,85.459 10.679,85.675 11.069,85.675C11.36,85.675 12.308,84.828 12.429,84.459C12.485,84.288 12.596,84.307 13.136,84.575C13.592,84.802 13.898,84.87 14.196,84.81L14.616,84.726L14.287,85.078C13.862,85.534 12.242,86.754 12.066,86.751C11.992,86.75 11.399,86.293 10.749,85.735ZM19.784,84.705C19.655,84.228 19.403,83.58 19.224,83.265C18.761,82.449 17.916,81.496 17.651,81.491C17.442,81.487 17.441,81.446 17.637,80.946C17.754,80.649 17.896,80.406 17.952,80.406C18.009,80.406 18.516,80.901 19.078,81.507C20.106,82.613 20.646,83.482 20.646,84.029C20.646,84.191 20.707,84.324 20.781,84.324C21.02,84.324 20.925,83.249 20.635,82.681C20.48,82.378 19.834,81.591 19.199,80.933L18.045,79.735L18.197,78.714C18.281,78.152 18.349,77.388 18.349,77.015L18.349,76.337L18.776,76.581C20.155,77.37 21.859,79.517 22.402,81.149L22.694,82.025L22.26,82.782C21.946,83.332 21.795,83.49 21.711,83.358C21.648,83.258 21.595,83.089 21.594,82.983C21.59,82.618 20.531,80.608 20.046,80.044C19.44,79.339 18.653,78.832 18.463,79.022C18.371,79.114 18.511,79.307 18.894,79.613C19.206,79.863 19.696,80.395 19.983,80.795C20.519,81.543 21.321,83.418 21.321,83.924C21.321,84.081 21.028,84.516 20.67,84.891L20.02,85.574L19.784,84.705ZM13.388,84.193C12.846,83.862 12.134,82.898 12.134,82.494C12.134,82.328 12.043,82.156 11.931,82.113C11.602,81.987 11.697,81.823 12.204,81.639C12.465,81.545 12.945,81.265 13.27,81.016L13.861,80.565L14.313,81.032C14.562,81.288 15.1,81.659 15.51,81.855C15.92,82.051 16.276,82.226 16.302,82.245C16.414,82.326 15.715,83.378 15.549,83.378C14.904,83.378 13.485,82.142 13.485,81.58C13.485,81.247 13.159,81.363 13.107,81.714C13.04,82.16 13.88,83.138 14.655,83.516C15.281,83.821 15.334,83.88 15.175,84.097C15.053,84.264 14.981,84.287 14.943,84.171C14.901,84.046 14.803,84.062 14.561,84.231C14.141,84.525 13.921,84.518 13.388,84.193ZM8.97,83.829C8.785,83.556 8.655,83.298 8.682,83.254C8.709,83.211 9.041,83.056 9.419,82.909C9.911,82.719 10.107,82.57 10.107,82.387C10.107,82.104 10.047,82.111 8.993,82.515C8.429,82.731 8.327,82.737 8.156,82.563C7.855,82.258 7.049,80.551 6.799,79.688L6.574,78.914L7.137,78.241C7.447,77.871 7.752,77.569 7.814,77.569C7.957,77.569 8.037,77.851 8.155,78.782C8.409,80.771 9.351,81.892 10.768,81.892C11.407,81.892 11.599,82.227 11.258,82.748C11.057,83.054 9.545,84.324 9.38,84.324C9.34,84.324 9.155,84.101 8.97,83.829ZM185.397,83.674C185.434,83.613 185.347,83.385 185.203,83.167C185.059,82.949 184.941,82.573 184.94,82.331C184.939,81.918 184.967,81.892 185.421,81.892C185.916,81.892 186.417,82.088 186.592,82.351C186.738,82.569 186.717,83.221 186.556,83.522C186.453,83.714 186.272,83.784 185.872,83.784C185.573,83.784 185.359,83.734 185.397,83.674ZM187.056,83.48C187.385,82.554 186.947,81.736 185.984,81.477C184.884,81.181 184.185,81.761 184.512,82.699C184.591,82.924 184.636,83.108 184.612,83.108C184.439,83.108 183.282,82.36 183.225,82.212C183.088,81.855 183.329,81.341 183.761,81.069C184.608,80.534 186.26,80.932 187.169,81.889C187.511,82.249 187.572,82.419 187.564,82.982C187.554,83.644 187.672,83.845 187.83,83.435C187.875,83.317 187.912,82.974 187.912,82.672C187.912,82.198 187.825,82.037 187.27,81.482C186.58,80.792 185.633,80.406 184.636,80.406C183.814,80.406 182.84,81.046 182.982,81.492C183.022,81.617 182.965,81.793 182.856,81.883C182.697,82.015 182.428,81.978 181.516,81.7C180.888,81.508 180.182,81.352 179.947,81.352C179.713,81.352 179.095,81.255 178.574,81.136C177.615,80.918 176.58,80.982 177.171,81.222C177.414,81.322 177.416,81.334 177.194,81.342C177.058,81.347 176.765,81.534 176.542,81.757C176.256,82.042 176.005,82.162 175.694,82.162C175.45,82.162 174.832,82.316 174.319,82.503C173.807,82.69 173.043,82.857 172.622,82.874C171.956,82.901 171.78,82.851 171.254,82.481C170.922,82.247 170.506,82.01 170.33,81.954C170.154,81.899 169.625,81.649 169.154,81.4C168.683,81.15 168.184,80.946 168.044,80.946C167.51,80.946 166.329,81.506 165.882,81.971C165.256,82.622 164.801,82.853 164.489,82.678C164.287,82.565 164.26,82.435 164.333,81.905C164.481,80.83 164.571,80.878 159.23,79.168C158.648,78.981 158.376,78.835 158.484,78.768C158.601,78.696 158.495,78.595 158.152,78.453C157.874,78.338 157.427,78.153 157.158,78.041C156.879,77.926 156.254,77.839 155.704,77.839C155.174,77.839 154.528,77.777 154.269,77.702C153.958,77.612 145.011,77.567 128.101,77.568C110.981,77.57 102.376,77.525 102.32,77.434C102.27,77.352 101.396,77.299 100.116,77.299L97.996,77.3L96.915,76.811C95.806,76.309 95.023,75.608 95.163,75.242C95.227,75.076 99.143,75.058 123.614,75.111C144.643,75.157 152.03,75.133 152.144,75.019C152.333,74.831 153.459,74.815 153.459,75.001C153.459,75.204 154.349,75.164 154.523,74.954C154.623,74.834 155.162,74.74 156.091,74.679C157.856,74.565 158.981,74.362 159.231,74.113C159.336,74.007 159.531,73.921 159.664,73.921C159.797,73.921 160.192,73.701 160.543,73.433L161.181,72.946L161.465,73.251C161.739,73.545 165.602,75.469 165.707,75.364C165.735,75.335 165.353,75.05 164.858,74.73C163.854,74.08 163.052,73.415 163.052,73.231C163.052,73.039 163.702,73.09 164.14,73.317C164.36,73.43 165.428,74.07 166.515,74.738L168.489,75.952L169.317,75.479C169.795,75.205 170.344,74.746 170.618,74.391C171.166,73.678 171.426,73.579 172.712,73.593C174.26,73.609 175.511,74.332 176.167,75.591L176.446,76.126L176.17,76.499C175.531,77.364 174.511,79.241 174.438,79.686C174.362,80.159 174.366,80.165 174.761,80.078C175.052,80.014 175.254,80.062 175.499,80.255C175.699,80.413 175.906,80.478 176.008,80.414C176.132,80.338 176.101,80.288 175.898,80.235C175.121,80.031 175.959,79.398 177.575,78.968C178.235,78.792 178.995,78.725 178.995,78.843C178.995,79.198 178.684,79.595 178.406,79.595C178.121,79.595 177.103,79.943 177.103,80.041C177.103,80.061 177.544,80.059 178.083,80.038C179.169,79.995 178.943,80.151 180.455,78.399C180.882,77.904 181.28,77.568 181.439,77.568C181.586,77.568 182.015,77.725 182.392,77.916L183.079,78.264L182.318,78.942C181.498,79.674 181.227,80.057 181.369,80.287C181.422,80.373 181.763,80.121 182.209,79.664C183.451,78.392 183.367,78.41 184.722,79.118C185.977,79.775 186.677,79.891 187.196,79.527C187.47,79.335 187.517,79.361 188.102,80.03C188.441,80.418 189.007,81.153 189.36,81.664C189.984,82.57 189.993,82.599 189.733,82.794C189.122,83.253 187.888,83.784 187.434,83.784C186.988,83.784 186.957,83.758 187.056,83.48ZM172.995,81.419C173.269,81.233 173.651,81.077 173.845,81.072C174.039,81.067 174.32,81.01 174.468,80.946C174.635,80.875 173.962,80.83 172.712,80.829C171.3,80.829 170.782,80.867 171.006,80.956C171.182,81.027 171.506,81.236 171.725,81.421C172.224,81.84 172.375,81.84 172.995,81.419ZM173.667,79.662C173.802,78.941 173.621,78.075 173.193,77.401C172.471,76.262 171.075,76.111 170,77.055C169.471,77.519 169.001,78.334 168.987,78.813L168.978,79.122L168.834,78.823C168.734,78.616 168.73,78.312 168.823,77.843C168.897,77.469 168.921,77.164 168.876,77.165C168.616,77.172 168.427,77.462 168.361,77.954C168.299,78.411 168.233,78.514 167.999,78.514C167.842,78.514 167.328,78.697 166.856,78.92C166.385,79.143 165.869,79.329 165.708,79.334C165.426,79.342 165.427,79.346 165.734,79.469C165.938,79.551 166.024,79.67 165.975,79.799C165.922,79.937 165.984,80 166.171,80C166.322,80 166.41,79.943 166.367,79.873C166.323,79.803 166.558,79.587 166.889,79.393C167.539,79.012 168.456,78.795 168.456,79.022C168.456,79.212 169.281,79.318 169.335,79.134C169.36,79.053 169.416,78.821 169.46,78.618C169.559,78.167 170.253,77.354 170.766,77.089C172.025,76.438 173.185,77.471 173.185,79.242C173.185,79.934 173.229,80.136 173.381,80.136C173.499,80.136 173.614,79.946 173.667,79.662ZM171.892,79.653C172.198,79.347 172.168,78.558 171.844,78.384C171.569,78.238 171.158,78.328 170.991,78.572C170.798,78.854 170.882,79.578 171.124,79.72C171.458,79.914 171.647,79.897 171.892,79.653ZM164.401,78.905C164.402,78.785 164.556,78.462 164.743,78.186C165.062,77.716 165.085,77.433 164.806,77.433C164.739,77.433 164.53,77.697 164.341,78.02C164.009,78.585 163.898,79.181 164.089,79.372C164.204,79.487 164.398,79.196 164.401,78.905ZM166.461,78.254C167.451,77.742 167.607,77.569 167.078,77.569C166.645,77.569 165.523,78.215 165.446,78.508C165.406,78.66 165.388,78.785 165.405,78.785C165.422,78.785 165.897,78.546 166.461,78.254ZM163.727,78.041C163.727,77.93 163.643,77.839 163.541,77.839C163.439,77.839 163.279,77.93 163.187,78.041C163.044,78.213 163.073,78.244 163.373,78.244C163.598,78.244 163.727,78.17 163.727,78.041ZM160.947,77.991C161.022,77.869 159.607,77.298 159.229,77.298C159.111,77.298 158.977,77.238 158.931,77.163C158.885,77.089 158.702,77.028 158.524,77.028C158.346,77.028 158.061,76.973 157.89,76.907C157.719,76.84 157.321,76.716 157.005,76.631C156.493,76.494 156.205,76.217 156.573,76.217C156.651,76.217 156.964,76.097 157.269,75.949C157.574,75.802 158.179,75.617 158.614,75.538C159.048,75.459 159.639,75.312 159.927,75.21C160.629,74.962 161.119,75.031 162.692,75.6C163.883,76.03 164.051,76.06 164.298,75.887C164.564,75.701 164.551,75.679 163.921,75.28C163.563,75.053 163.184,74.866 163.079,74.866C162.975,74.866 162.504,74.654 162.032,74.395C161.225,73.951 161.163,73.938 160.998,74.165C160.548,74.783 159.547,75.129 156.972,75.558C156.536,75.63 144.108,75.673 126.91,75.662C110.784,75.651 97.484,75.687 97.354,75.742C96.994,75.893 97.07,76.076 97.58,76.289C98.269,76.577 102.032,76.631 130.355,76.758C144.214,76.82 155.865,76.902 156.246,76.939C157.009,77.014 159.507,77.644 160.147,77.922C160.629,78.132 160.848,78.151 160.947,77.991ZM174.672,77.873C174.672,77.743 174.788,77.446 174.93,77.213C175.177,76.808 175.178,76.774 174.951,76.403C174.629,75.874 174.31,75.631 174.062,75.726C173.948,75.77 173.534,75.664 173.143,75.491C172.612,75.257 172.349,75.208 172.104,75.298C171.789,75.415 171.801,75.433 172.447,75.804C173.085,76.17 173.563,76.697 174.137,77.67C174.421,78.15 174.671,78.245 174.672,77.873ZM162.572,77.142C162.909,76.988 163.06,76.488 162.77,76.488C162.69,76.488 162.177,76.309 161.631,76.09C160.6,75.677 160.618,75.678 159.484,76.076C159.291,76.143 159.477,76.258 160.227,76.535C160.777,76.738 161.38,76.991 161.565,77.097C161.982,77.334 162.135,77.341 162.572,77.141L162.572,77.142ZM171.023,76.087C171.023,76.015 170.932,75.991 170.82,76.033C170.709,76.076 170.618,76.135 170.618,76.164C170.618,76.194 170.709,76.217 170.82,76.217C170.932,76.217 171.023,76.159 171.023,76.087ZM201.647,82.74C201.308,82.689 201.273,82.64 201.35,82.321C201.397,82.122 201.692,81.534 202.004,81.014C202.494,80.199 202.632,80.062 202.997,80.027C203.815,79.947 204.267,78.927 203.725,78.385C203.287,77.947 202.973,78.076 202.992,78.688C203.004,79.093 202.959,79.19 202.756,79.19C202.377,79.19 201.963,78.701 201.963,78.254C201.963,77.714 202.542,77.059 203.113,76.951C203.464,76.886 203.747,76.955 204.326,77.248C205.267,77.724 205.564,78.036 205.802,78.795L205.99,79.393L206.003,78.473C206.01,77.967 206.066,77.583 206.127,77.621C206.187,77.658 206.381,77.97 206.558,78.314C206.823,78.828 206.851,78.985 206.718,79.198C206.63,79.34 206.556,79.564 206.554,79.695C206.542,80.636 204.992,82.419 203.959,82.679C203.125,82.889 202.774,82.879 202.774,82.646C202.774,82.095 204.824,80.406 205.491,80.406C205.748,80.406 205.881,80.337 205.881,80.203C205.881,79.9 205.091,79.948 204.538,80.285C203.701,80.795 202.754,81.675 202.41,82.262C202.225,82.579 202.063,82.829 202.052,82.818C202.04,82.806 201.858,82.771 201.647,82.74ZM194.723,82.23C194.428,81.78 194.564,80.997 194.959,80.872C195.134,80.816 195.286,80.852 195.358,80.966C195.55,81.269 195.493,82.128 195.266,82.355C194.991,82.63 194.983,82.628 194.723,82.23ZM200.403,82.377C200.152,82.194 200.173,82.14 200.93,81.026C201.364,80.388 201.77,79.865 201.833,79.865C202.097,79.865 202.065,80.122 201.742,80.598C201.552,80.877 201.246,81.434 201.062,81.836C200.878,82.238 200.713,82.568 200.696,82.568C200.678,82.568 200.546,82.482 200.403,82.377ZM193.244,82.23C193.21,82.118 193.151,81.931 193.114,81.814C192.998,81.448 193.194,80.946 193.451,80.946C193.716,80.946 193.857,81.203 193.857,81.689C193.857,82.148 193.72,82.432 193.5,82.432C193.394,82.432 193.279,82.341 193.244,82.23ZM195.964,82.215C195.918,82.096 195.944,81.762 196.022,81.472C196.126,81.088 196.235,80.946 196.429,80.946C196.643,80.946 196.694,81.039 196.694,81.428C196.694,82.244 196.185,82.792 195.964,82.215ZM189.889,81.555C189.618,81.147 189.062,80.419 188.654,79.938C188.246,79.457 187.912,79.037 187.912,79.005C187.912,78.973 188.126,78.966 188.389,78.991C188.72,79.022 189.276,79.328 190.205,79.991C190.942,80.517 191.58,81.004 191.623,81.074C191.71,81.214 190.733,82.297 190.519,82.297C190.444,82.297 190.16,81.963 189.889,81.555ZM199.616,81.588C199.455,80.986 199.54,80.726 200.11,80.078C200.634,79.483 200.718,79.435 200.988,79.579C201.284,79.738 201.28,79.748 200.578,80.806C200.188,81.393 199.831,81.877 199.783,81.882C199.736,81.888 199.661,81.755 199.616,81.588ZM15.782,81.475C15.141,81.185 14.628,80.77 14.411,80.367C14.31,80.18 14.385,79.981 14.743,79.489C15.484,78.47 15.678,77.981 15.771,76.898L15.857,75.88L16.294,76.551C16.862,77.423 16.996,77.941 16.997,79.267C16.998,80.295 16.697,81.76 16.486,81.754C16.433,81.752 16.116,81.627 15.782,81.475ZM10.015,81.232C9.555,81.016 9.026,80.41 9.026,80.096C9.026,80.066 9.376,80.221 9.803,80.439C10.534,80.813 10.652,80.833 11.794,80.771L13.008,80.706L12.369,81.032C11.461,81.493 10.71,81.556 10.015,81.232ZM198.41,80.975C198.209,80.765 198.044,80.536 198.044,80.466C198.043,80.396 197.8,80.236 197.503,80.112C197.007,79.903 196.964,79.844 196.964,79.363C196.964,78.866 197.285,77.409 197.455,77.133C197.6,76.899 198.585,77.996 198.585,78.392C198.585,78.591 198.679,79.249 198.794,79.852C199.051,81.208 198.941,81.529 198.41,80.975ZM191.748,80.489L188.729,78.355L188.933,77.867C189.045,77.599 189.159,77.357 189.187,77.329C189.323,77.193 191.824,78.796 192.305,79.327C192.53,79.576 192.524,79.606 192.144,80.038L191.748,80.489ZM10.14,80.183C9.087,79.664 8.481,78.463 8.7,77.329C8.879,76.405 9.205,76.462 9.309,77.436C9.457,78.809 10.021,79.587 11.073,79.871C11.757,80.055 12.413,79.923 13.1,79.462C14.509,78.515 15.096,76.365 14.211,75.388C13.995,75.149 14,75.137 14.316,75.137C14.961,75.137 15.157,75.425 15.154,76.369C15.15,77.699 14.786,78.746 14.097,79.408C13.775,79.718 13.232,80.061 12.87,80.185C12.041,80.467 10.715,80.466 10.14,80.183ZM199.14,79.415C199.058,78.945 198.991,78.515 198.991,78.461C198.991,78.407 199.264,78.559 199.599,78.799C199.933,79.039 200.205,79.271 200.203,79.314C200.198,79.408 199.424,80.271 199.344,80.271C199.314,80.271 199.222,79.886 199.14,79.415ZM11.053,79.365C10.785,79.267 10.249,78.776 10.092,78.484C9.883,78.096 9.704,76.918 9.789,76.491C9.857,76.152 9.986,76.046 10.627,75.806C11.043,75.65 11.568,75.488 11.793,75.444C12.198,75.366 12.199,75.368 11.952,75.647C11.337,76.344 11.162,77.598 11.603,78.158C11.828,78.444 11.998,78.514 12.461,78.514C13.069,78.514 13.375,78.296 13.544,77.744C13.668,77.337 13.409,76.448 13.08,76.15C12.684,75.792 12.739,75.542 13.215,75.542C14.396,75.542 14.49,77.309 13.375,78.545C12.673,79.322 11.79,79.634 11.053,79.365ZM175.414,79.054C175.316,78.607 175.566,78.099 176.413,77.028C177.089,76.173 177.223,76.091 177.952,76.087C178.705,76.082 179.455,76.361 179.86,76.799L180.146,77.107L179.536,77.131C178.344,77.176 177.565,77.329 176.799,77.667C176.372,77.856 176.022,78.063 176.022,78.127C176.022,78.287 176.023,78.287 177.158,77.906C178.064,77.602 179.805,77.428 179.805,77.641C179.805,77.681 179.707,77.863 179.587,78.046C179.413,78.312 179.255,78.379 178.805,78.379C178.031,78.379 176.745,78.731 176.067,79.129L175.503,79.459L175.414,79.054ZM195.546,79.226C195.011,79.063 194.688,79.048 193.992,79.153C193.134,79.284 193.103,79.278 192.67,78.9C192.362,78.633 192.294,78.514 192.448,78.514C192.582,78.514 192.641,78.44 192.597,78.326C192.449,77.941 193.568,77.213 195.096,76.7C197.033,76.051 197.369,76.226 196.888,77.636C196.711,78.156 196.564,78.779 196.562,79.021C196.558,79.515 196.519,79.523 195.546,79.226ZM17.491,78.243C17.378,77.519 16.824,76.271 16.425,75.846C16.176,75.581 16.169,75.542 16.371,75.542C16.696,75.542 17.576,75.926 17.7,76.121C17.829,76.324 17.817,78.054 17.684,78.514C17.598,78.811 17.575,78.777 17.491,78.243ZM185.355,77.888C184.967,77.395 184.994,76.739 185.424,76.228C185.822,75.755 186.219,75.701 186.871,76.031C187.936,76.57 188.073,77.145 187.299,77.825C186.652,78.393 185.774,78.421 185.355,77.888ZM186.805,77.134C186.835,76.978 186.732,76.873 186.492,76.813C186.08,76.71 185.811,76.911 185.934,77.231C186.048,77.527 186.745,77.45 186.805,77.134ZM191.624,78.103C191.499,77.901 191.789,77.514 192.996,76.271C194.037,75.2 194.079,75.173 194.982,75.005C195.993,74.816 196.091,74.854 196.278,75.505C196.394,75.908 196.381,75.925 195.904,76.013C194.68,76.239 192.209,77.533 192.01,78.052C191.923,78.278 191.746,78.302 191.624,78.103ZM12.1,77.963C11.681,77.719 11.881,76.277 12.355,76.12C12.579,76.047 13.08,76.924 13.08,77.389C13.08,78.031 12.65,78.283 12.1,77.963ZM4.848,77.348C4.303,76.655 4.592,75.694 5.402,75.502C5.784,75.412 5.975,75.437 6.245,75.614C6.539,75.807 6.594,75.944 6.594,76.478C6.594,77.279 6.245,77.704 5.586,77.704C5.252,77.704 5.052,77.607 4.848,77.348ZM190.312,77.243C189.886,77.013 189.536,76.792 189.535,76.751C189.534,76.71 189.844,76.328 190.223,75.903C191.275,74.722 191.837,74.52 192.893,74.943L193.422,75.154L192.823,75.787C192.494,76.135 192.099,76.602 191.946,76.825C191.792,77.048 191.536,77.328 191.377,77.446C191.105,77.648 191.038,77.635 190.312,77.243ZM79.284,77.437C76.753,77.369 76.45,77.335 75.771,77.04C74.847,76.638 73.928,75.739 73.991,75.298C74.035,74.988 74.041,74.987 75.815,75.04C78.916,75.133 89.948,75.139 91.929,75.049C94.049,74.953 94.013,74.942 95.218,76.054C95.483,76.299 95.897,76.633 96.138,76.797C96.379,76.961 96.576,77.148 96.577,77.212C96.577,77.276 94.225,77.289 91.306,77.241C86.643,77.165 86.025,77.178 85.954,77.362C85.868,77.587 85.146,77.595 79.284,77.437ZM87.525,76.566C94.611,76.509 94.559,76.513 94.125,75.99C94.025,75.87 92.319,75.825 87.414,75.813C83.797,75.805 79.913,75.767 78.783,75.73C77.084,75.675 76.658,75.7 76.317,75.876C76.091,75.993 75.906,76.121 75.906,76.159C75.906,76.197 76.164,76.341 76.48,76.478C76.969,76.69 77.325,76.719 78.878,76.674C79.881,76.645 83.773,76.597 87.525,76.566ZM8.993,74.678C8.678,74.439 8.689,74.056 9.01,74.056C9.334,74.056 9.62,74.397 9.519,74.662C9.423,74.91 9.303,74.914 8.993,74.678Z" style="fill-rule:nonzero;"/>
        </g>
    </g>
</svg>
