<?xml version="1.0" encoding="UTF-8" standalone="no"?>
<!DOCTYPE svg PUBLIC "-//W3C//DTD SVG 1.1//EN" "http://www.w3.org/Graphics/SVG/1.1/DTD/svg11.dtd">
<svg width="100%" height="100%" viewBox="0 0 270 85" version="1.1" xmlns="http://www.w3.org/2000/svg" xmlns:xlink="http://www.w3.org/1999/xlink" xml:space="preserve" xmlns:serif="http://www.serif.com/" style="fill-rule:evenodd;clip-rule:evenodd;stroke-linejoin:round;stroke-miterlimit:2;">
    <g id="path3" transform="matrix(-1.31727,0,0,1.31727,273.407,-95.0904)">
        <g id="g1" transform="matrix(1,0,0,1.02175,0,-2.61616)">
            <path id="path31" serif:id="path3" d="M10.83,135.675C10.522,135.625 10.036,135.405 9.749,135.187C7.838,133.73 4.813,130.835 4.32,129.991C4.124,129.657 3.77,129.086 3.532,128.724C2.98,127.884 2.936,127.084 3.435,126.959C3.68,126.898 3.757,126.786 3.757,126.496C3.757,126.053 3.553,125.352 3.272,124.831C3.114,124.539 3.109,124.44 3.248,124.324C3.541,124.079 4.742,123.3 5.345,122.965L5.919,122.645L5.919,109.294C5.919,101.951 5.888,95.943 5.85,95.943C5.813,95.943 5.589,96.323 5.353,96.788L4.924,97.632L4.869,110.301C4.817,122.183 4.799,122.977 4.578,123.095C4.354,123.215 4.337,122.535 4.256,110.27L4.17,97.318L4.715,96.327C5.015,95.782 5.373,95.214 5.512,95.065C5.669,94.897 5.799,94.487 5.856,93.981L5.947,93.167L5.325,92.475C4.983,92.094 4.703,91.735 4.703,91.676C4.703,91.618 4.832,91.433 4.989,91.265L5.275,90.96L6.337,92.081C8.086,93.929 10.334,95.303 11.993,95.537C13.755,95.786 14.546,96.921 13.951,98.346C13.488,99.455 12.556,99.986 11.548,99.714C10.515,99.436 9.993,98.473 10.251,97.322C10.326,96.991 10.476,96.592 10.585,96.437C10.86,96.043 10.839,95.988 10.375,95.896C10.151,95.851 9.644,95.661 9.248,95.474C8.852,95.286 8.488,95.133 8.439,95.133C8.391,95.133 8.351,97.14 8.351,99.593L8.351,104.053L9.116,103.545C9.827,103.073 9.949,103.038 10.816,103.053C11.706,103.068 11.747,103.055 11.674,102.783C11.632,102.625 11.596,102.15 11.595,101.727L11.594,100.958L11.019,100.916C10.545,100.882 10.438,100.823 10.403,100.576C10.371,100.351 10.445,100.255 10.702,100.191C11.253,100.052 13.454,100.182 13.635,100.363C13.89,100.618 13.533,100.942 12.996,100.942L12.539,100.942L12.539,102.636C12.539,104.554 12.44,104.736 11.72,104.131C10.783,103.343 9.152,104.014 8.56,105.432C8.38,105.864 8.351,106.98 8.351,113.55C8.351,121.003 8.345,121.172 8.08,121.412C7.931,121.547 7.838,121.687 7.874,121.722C7.971,121.82 8.884,121.1 9.524,120.423C10.128,119.784 10.012,119.806 11.313,120.074C11.589,120.131 11.76,120.283 11.883,120.58C12.102,121.108 13.938,123.849 15.227,125.571C16.418,127.163 18.678,129.561 19.082,129.663C19.366,129.734 19.378,129.794 19.332,130.912C19.254,132.815 19.218,132.935 18.647,133.176C18.372,133.292 17.979,133.363 17.775,133.334C17.57,133.304 17.403,133.307 17.403,133.341C17.403,133.373 17.616,133.69 17.876,134.045C18.573,134.994 18.506,135.173 17.597,134.793L17.125,134.595L16.832,135.198C16.518,135.844 16.191,135.994 16.181,135.497C16.178,135.33 16.039,134.934 15.873,134.616L15.571,134.04L14.765,134.536C12.59,135.873 12.39,135.931 10.83,135.675ZM12.613,133.792C13.009,133.43 13.61,132.959 13.949,132.745C14.564,132.356 14.699,132.044 14.214,132.132C13.342,132.291 11.323,133.674 11.323,134.112C11.323,134.281 11.509,134.414 11.777,134.439C11.841,134.445 12.217,134.154 12.613,133.792ZM11.436,133.256C12.196,132.477 13.643,131.735 15.166,131.346C16.462,131.015 16.998,130.994 16.998,131.275C16.998,131.41 16.863,131.477 16.593,131.477C16.37,131.477 16.187,131.542 16.187,131.621C16.187,131.717 16.498,131.733 17.133,131.671C17.76,131.609 18.079,131.625 18.079,131.719C18.079,131.797 18.003,131.888 17.91,131.922C17.609,132.033 18.02,132.325 18.335,132.225C18.537,132.161 18.619,132.022 18.619,131.747C18.619,131.41 18.562,131.353 18.18,131.311L17.741,131.262L18.113,131.103C18.317,131.015 18.484,130.885 18.484,130.813C18.484,130.552 18.212,130.525 17.788,130.745C17.467,130.911 17.042,130.964 16.16,130.948C15.215,130.931 14.836,130.984 14.337,131.205C13.62,131.522 12.065,132.471 11.66,132.838C10.746,133.667 7.743,131.311 5.381,127.914C4.826,127.115 4.352,126.518 4.329,126.588C4.267,126.773 5.2,128.333 5.822,129.085C6.117,129.441 6.329,129.761 6.294,129.797C6.176,129.914 5.132,128.678 4.697,127.908C4.322,127.244 4.027,127.037 4.027,127.439C4.027,127.804 5.254,129.298 6.56,130.523C7.719,131.611 10.553,133.895 10.758,133.907C10.781,133.908 11.087,133.615 11.436,133.256ZM14.69,132.878C14.875,132.715 14.435,132.866 14.22,133.039C13.973,133.237 13.977,133.239 14.296,133.088C14.481,132.999 14.659,132.905 14.69,132.878ZM12.857,131.426C14.094,130.658 14.9,130.396 16.035,130.396C16.543,130.396 16.746,130.327 16.988,130.07C17.157,129.89 17.459,129.675 17.66,129.591L18.025,129.44L17.022,128.398C15.458,126.776 12.11,122.186 11.611,120.981C11.496,120.703 11.317,120.539 11.077,120.49C10.878,120.45 10.612,120.377 10.485,120.328C10.232,120.23 9.563,120.797 9.572,121.102C9.575,121.198 9.672,121.102 9.788,120.889C9.982,120.53 10.043,120.506 10.61,120.57C11.199,120.637 11.452,120.817 11.456,121.175C11.458,121.269 11.294,121.345 11.087,121.347C10.882,121.349 10.451,121.47 10.127,121.617C9.804,121.764 9.492,121.854 9.433,121.818C9.375,121.782 9.252,121.843 9.16,121.954C9.068,122.064 9.043,122.155 9.104,122.155C9.165,122.155 9.026,122.352 8.795,122.594C8.564,122.835 8.197,123.337 7.979,123.709L7.584,124.384L6.506,124.338C5.913,124.313 5.22,124.246 4.964,124.189L4.5,124.085L4.891,123.927C5.105,123.84 5.249,123.737 5.21,123.698C5.171,123.659 4.803,123.799 4.392,124.01L3.644,124.393L3.9,124.726C4.041,124.91 4.158,124.987 4.159,124.899C4.161,124.81 4.102,124.7 4.027,124.654C3.817,124.524 3.868,124.317 4.11,124.317C4.278,124.317 4.314,124.415 4.265,124.744C4.213,125.104 4.363,125.408 5.217,126.669C7.133,129.499 8.36,130.852 10.175,132.138L11.121,132.807L11.391,132.488C11.539,132.312 12.199,131.834 12.857,131.426ZM10.189,131.992C9.752,131.689 8.945,131.014 8.396,130.493C7.474,129.616 7.413,129.525 7.582,129.269C7.867,128.84 8.009,128.865 8.258,129.388C8.768,130.457 10.535,131.883 11.35,131.883C11.484,131.883 11.593,131.934 11.593,131.997C11.593,132.113 11.146,132.564 11.042,132.551C11.011,132.547 10.627,132.296 10.189,131.992ZM10.545,131.337C8.684,130.407 7.552,128.17 7.698,125.711C7.822,123.63 9.233,121.886 11.053,121.564C11.393,121.504 11.318,121.557 10.786,121.752C9.512,122.22 8.658,123.285 8.146,125.048C7.836,126.114 7.917,127.414 8.349,128.302C9.008,129.66 10.709,130.905 12.284,131.185L12.877,131.29L12.445,131.519C11.837,131.84 11.485,131.807 10.545,131.337ZM12.183,130.932C10.729,130.644 9.18,129.459 8.536,128.144C8.218,127.493 8.188,127.305 8.24,126.241C8.334,124.304 9.263,122.627 10.538,122.096L11.037,121.888L10.64,122.643C9.637,124.549 10.573,127.146 12.676,128.29C13.577,128.78 14.802,128.906 15.566,128.587C15.856,128.465 16.121,128.393 16.154,128.427C16.243,128.516 15.954,129.322 15.66,129.803C15.469,130.117 15.243,130.263 14.764,130.383C14.412,130.472 13.892,130.663 13.607,130.808C13.048,131.094 13.015,131.096 12.183,130.932ZM12.475,129.58C12.602,129.375 12.259,129.002 12.095,129.166C11.943,129.317 12.061,129.721 12.257,129.721C12.329,129.721 12.427,129.657 12.475,129.58ZM11.039,128.995C11.248,128.743 11.084,128.37 10.764,128.37C10.474,128.37 10.308,128.669 10.426,128.978C10.524,129.231 10.836,129.24 11.039,128.995ZM9.922,127.63C10.031,127.347 9.671,126.6 9.446,126.644C9.105,126.711 8.959,127.101 9.132,127.481C9.307,127.865 9.796,127.957 9.922,127.63ZM9.39,127.607C9.204,127.421 9.3,127.135 9.533,127.18C9.663,127.205 9.77,127.31 9.77,127.415C9.77,127.628 9.531,127.749 9.39,127.607ZM9.678,125.082C9.703,124.952 9.636,124.857 9.517,124.857C9.266,124.857 9.115,125.077 9.233,125.269C9.356,125.467 9.625,125.354 9.678,125.082ZM15.86,129.926C15.981,129.742 16.184,129.255 16.311,128.845L16.541,128.099L16.892,128.471L17.242,128.843L16.925,129.552C16.628,130.217 16.577,130.261 16.124,130.261L15.641,130.261L15.86,129.926ZM17.208,129.418C17.339,128.99 17.382,128.967 17.614,129.198C17.797,129.381 17.781,129.42 17.466,129.563C17.135,129.714 17.119,129.706 17.208,129.418ZM7.054,129.023C6.959,128.87 7.446,128.37 7.69,128.37C7.898,128.37 7.821,128.723 7.563,128.957C7.271,129.222 7.183,129.233 7.054,129.023ZM6.26,127.951C5.988,127.572 5.785,127.247 5.808,127.229C5.879,127.174 7.448,126.881 7.476,126.917C7.491,126.936 7.542,127.205 7.589,127.516C7.668,128.031 7.641,128.106 7.283,128.361C7.067,128.514 6.86,128.64 6.823,128.64C6.785,128.64 6.532,128.33 6.26,127.951ZM13.08,128.272L12.607,128.049L13.008,127.995C13.229,127.965 13.432,128.007 13.459,128.088C13.55,128.363 13.755,128.086 13.755,127.689C13.755,127.472 13.918,126.963 14.117,126.556C14.429,125.92 14.502,125.848 14.641,126.038C14.77,126.215 14.739,126.376 14.481,126.861C14.301,127.2 14.166,127.677 14.173,127.951L14.185,128.437L14.313,127.964C14.518,127.209 14.724,126.748 14.857,126.748C15.107,126.748 15.125,127.162 14.905,127.824C14.681,128.498 14.674,128.505 14.116,128.5C13.806,128.497 13.34,128.394 13.08,128.271L13.08,128.272ZM14.971,128.39C14.971,128.199 15.263,127.424 15.335,127.424C15.489,127.424 16.187,127.896 16.187,128C16.187,128.117 15.359,128.505 15.111,128.505C15.034,128.505 14.971,128.453 14.971,128.39ZM12.211,127.71C12.125,127.571 12.577,127.429 13.113,127.426C13.619,127.423 13.584,127.641 13.063,127.745C12.491,127.859 12.299,127.851 12.211,127.71ZM11.413,126.993C10.772,126.152 10.519,125.405 10.516,124.345C10.513,123.635 10.585,123.22 10.771,122.859C11.045,122.327 11.534,121.749 11.71,121.749C11.768,121.749 12.402,122.595 13.119,123.628L14.423,125.506L14.123,126.059C13.829,126.6 13.808,126.611 13.08,126.618C12.671,126.622 12.154,126.707 11.931,126.807C11.561,126.972 11.618,126.982 12.573,126.916C13.735,126.837 14.055,127.06 12.978,127.199C12.625,127.245 12.207,127.319 12.048,127.365C11.828,127.428 11.679,127.341 11.413,126.993ZM12.945,125.803C12.945,125.728 12.853,125.668 12.742,125.668C12.63,125.668 12.539,125.728 12.539,125.803C12.539,125.877 12.63,125.938 12.742,125.938C12.853,125.938 12.945,125.877 12.945,125.803ZM12.19,124.91C12.452,124.81 12.46,124.469 12.207,124.136C11.959,123.808 11.538,123.9 11.481,124.294C11.394,124.906 11.641,125.121 12.19,124.91ZM11.661,124.587C11.515,124.35 11.732,124.151 11.943,124.326C12.048,124.413 12.134,124.538 12.134,124.603C12.134,124.766 11.764,124.753 11.661,124.587ZM15.574,127.28C15.428,127.045 15.594,126.995 15.779,127.218C15.886,127.347 15.896,127.424 15.806,127.424C15.727,127.424 15.623,127.359 15.574,127.28ZM5.392,126.697C5.264,126.543 5.374,126.494 6.017,126.417C6.446,126.365 6.934,126.291 7.101,126.251C7.314,126.2 7.405,126.24 7.405,126.383C7.405,126.81 5.706,127.075 5.392,126.697ZM15.109,126.684C15.002,126.556 14.992,126.478 15.082,126.478C15.245,126.478 15.435,126.735 15.342,126.828C15.308,126.862 15.203,126.798 15.109,126.684ZM4.87,125.94C4.778,125.792 4.703,125.64 4.703,125.602C4.703,125.564 5.155,125.532 5.707,125.532C6.26,125.532 6.868,125.473 7.059,125.401C7.371,125.282 7.405,125.301 7.405,125.592C7.405,125.871 7.312,125.935 6.723,126.062C5.657,126.29 5.065,126.251 4.87,125.94ZM4.658,125.172C4.608,125.123 4.568,124.932 4.568,124.749C4.568,124.429 4.595,124.419 5.195,124.501C5.539,124.548 6.213,124.587 6.691,124.587C7.437,124.587 7.554,124.619 7.516,124.817C7.491,124.944 7.32,125.09 7.134,125.142C6.693,125.264 4.774,125.288 4.658,125.172ZM17.302,132.063C17.209,132.026 17.057,132.026 16.964,132.063C16.871,132.101 16.947,132.132 17.133,132.132C17.319,132.132 17.395,132.101 17.302,132.063ZM7.13,123.714C7.22,123.606 7.254,123.454 7.206,123.377C7.011,123.06 6.371,123.35 6.503,123.695C6.606,123.965 6.914,123.974 7.13,123.714ZM7.173,122.121C7.38,121.966 7.398,120.964 7.402,109.59C7.406,96.696 7.329,94.296 6.899,93.97C6.769,93.871 6.632,93.788 6.594,93.786C6.509,93.781 6.572,121.892 6.658,122.121C6.693,122.214 6.772,122.29 6.835,122.29C6.897,122.29 7.049,122.214 7.173,122.121ZM12.539,98.24C12.839,97.94 12.897,97.301 12.647,97.051C12.318,96.722 11.861,96.862 11.655,97.355C11.282,98.249 11.905,98.874 12.539,98.24ZM45.641,135.045C45.307,135.019 42.753,134.935 39.967,134.858C35.52,134.737 29.641,134.327 29.299,134.116C29.237,134.077 28.942,134.133 28.643,134.238C27.393,134.679 23.245,134.815 20.75,134.497C19.661,134.358 19.688,134.441 19.802,131.664L19.903,129.216L19.057,128.777C18.061,128.261 17.095,127.252 16.629,126.24C16.154,125.211 16.317,125.097 16.903,126.046C17.57,127.128 18.563,127.996 19.803,128.585L20.818,129.067L20.68,131.991L21.372,132.193C21.753,132.305 22.855,132.529 23.821,132.692C24.787,132.855 26.003,133.07 26.523,133.17C27.043,133.269 27.986,133.382 28.617,133.42C29.669,133.484 29.697,133.48 28.955,133.367C28.509,133.3 27.445,133.06 26.591,132.834C25.736,132.608 24.554,132.297 23.964,132.143C22.706,131.815 22.319,131.631 21.866,131.146C21.577,130.836 21.529,130.649 21.505,129.718C21.489,129.128 21.434,128.578 21.383,128.495C21.324,128.399 21.382,128.362 21.542,128.392C21.759,128.434 21.8,128.591 21.835,129.52C21.865,130.321 21.935,130.66 22.108,130.835C22.564,131.296 23.883,131.639 25.645,131.754C26.574,131.815 28.063,131.995 28.955,132.154C30.341,132.402 31.272,132.454 35.373,132.514C41.505,132.603 54.309,132.198 59.49,131.75C60.382,131.673 62.054,131.548 63.205,131.471C64.357,131.394 65.388,131.3 65.496,131.263C65.604,131.225 95.594,131.199 132.14,131.204C194.534,131.213 198.614,131.199 199.025,130.983C199.444,130.762 200.215,130.558 202.774,129.988C204.147,129.682 206.017,129.497 206.016,129.668C206.016,129.734 205.135,130.211 204.057,130.727C202.98,131.244 202.098,131.7 202.098,131.741C202.098,131.782 202.615,131.795 203.246,131.771C204.964,131.706 204.727,132.042 202.706,132.537C201.108,132.929 200.049,133.365 199.646,133.796C199.449,134.007 199.203,134.179 199.099,134.179C198.995,134.179 198.838,134.251 198.75,134.339C198.628,134.461 183.22,134.524 133.296,134.606C90.622,134.676 66.13,134.766 62.597,134.866C57.081,135.022 46.738,135.131 45.641,135.045ZM26.782,133.928C26.822,133.864 26.567,133.774 26.216,133.728C25.865,133.682 25.077,133.554 24.467,133.443C23.378,133.245 23.346,133.247 22.885,133.541C22.626,133.707 22.411,133.887 22.408,133.943C22.4,134.085 26.694,134.07 26.782,133.928ZM32.571,133.814C32.405,133.782 32.101,133.781 31.896,133.812C31.69,133.843 31.826,133.869 32.198,133.871C32.569,133.872 32.737,133.846 32.571,133.814ZM31.184,133.639C31.184,133.565 30.865,133.505 30.475,133.506C29.967,133.508 29.823,133.545 29.968,133.639C30.236,133.812 31.184,133.812 31.184,133.639ZM60.571,133.503C60.618,133.428 60.558,133.329 60.438,133.284C60.18,133.184 60.036,133.294 60.16,133.495C60.272,133.677 60.462,133.68 60.571,133.503ZM22.202,133.316C22.437,133.144 22.381,133.105 21.525,132.848C21.011,132.694 20.58,132.581 20.568,132.597C20.555,132.613 20.504,132.758 20.454,132.921C20.374,133.181 20.431,133.231 20.944,133.345C21.771,133.53 21.914,133.527 22.202,133.316ZM52.667,133.306C52.927,133.277 54.812,133.157 56.855,133.039C58.899,132.922 61.027,132.768 61.584,132.697C63.191,132.491 66.587,132.224 67.326,132.245C67.698,132.256 97.596,132.267 133.767,132.27C183.701,132.274 199.531,132.313 199.531,132.433C199.531,132.519 199.758,132.416 200.035,132.203C200.312,131.989 201.209,131.461 202.028,131.029C202.847,130.596 203.426,130.268 203.314,130.3C203.001,130.388 201.677,130.793 201.174,130.954C200.925,131.033 200.591,131.118 200.431,131.142C200.27,131.165 199.622,131.296 198.991,131.432C197.887,131.67 195.339,131.68 132.922,131.684C63.83,131.689 68.158,131.656 62.53,132.221C62.195,132.255 60.949,132.343 59.76,132.417C58.571,132.492 56.656,132.613 55.504,132.688C52.402,132.888 46.38,133.121 41.835,133.217C39.631,133.263 37.776,133.355 37.714,133.42C37.609,133.533 51.615,133.425 52.667,133.306ZM61.922,133.369C61.969,133.292 61.853,133.234 61.652,133.234C61.45,133.234 61.334,133.292 61.381,133.369C61.427,133.443 61.549,133.504 61.652,133.504C61.754,133.504 61.876,133.443 61.922,133.369ZM63.442,133.267C63.477,133.161 63.368,133.098 63.149,133.098C62.808,133.098 62.705,133.228 62.895,133.418C63.034,133.557 63.377,133.463 63.442,133.267ZM64.499,132.985C64.211,132.929 64.094,133.031 64.217,133.231C64.284,133.339 64.37,133.332 64.522,133.206C64.713,133.048 64.711,133.026 64.499,132.985ZM198.045,133.098C198.045,133.009 176.092,132.963 132.457,132.963C88.878,132.963 66.841,133.009 66.786,133.098C66.73,133.188 88.627,133.234 132.374,133.234C176.065,133.234 198.045,133.188 198.045,133.098ZM65.637,132.964C65.637,132.889 65.546,132.828 65.435,132.828C65.323,132.828 65.232,132.889 65.232,132.964C65.232,133.038 65.323,133.099 65.435,133.099C65.546,133.099 65.637,133.038 65.637,132.964ZM201.871,132.337L202.436,132.15L201.765,132.232C201.396,132.277 200.971,132.402 200.82,132.511C200.558,132.699 200.563,132.704 200.925,132.616C201.134,132.566 201.56,132.44 201.871,132.337ZM14.571,98.249C14.347,97.832 14.393,96.143 14.633,95.943C15.024,95.619 15.241,96.014 15.241,97.05C15.241,97.964 15.09,98.511 14.836,98.511C14.767,98.511 14.648,98.393 14.571,98.249ZM15.87,98.263C15.38,97.722 15.755,95.799 16.267,96.224C16.525,96.438 16.531,98.146 16.275,98.358C16.137,98.473 16.04,98.45 15.87,98.263ZM11.729,92.897C10.467,92.561 8.783,91.636 7.856,90.768C7.385,90.328 7,89.894 7,89.804C7,89.714 6.842,89.493 6.648,89.313C6.183,88.879 5.446,87.402 5.199,86.407C5.07,85.887 5.007,85.015 5.021,83.909C5.038,82.463 5.077,82.174 5.287,81.964C5.438,81.813 5.505,81.607 5.461,81.429C5.386,81.132 5.955,79.729 6.149,79.732C6.208,79.733 6.431,80.188 6.645,80.744C7.41,82.736 8.97,84.912 10.582,86.234C11.499,86.987 11.571,87.081 11.357,87.244C11.227,87.342 11.023,87.425 10.904,87.427C10.348,87.438 8.271,85.488 6.898,83.665C6.175,82.706 6.119,82.661 6.079,83.005C6.048,83.278 6.202,83.591 6.665,84.193C7.593,85.399 8.654,86.509 9.508,87.168L10.264,87.751L9.814,87.991C9.21,88.313 9.023,88.301 8.488,87.906C8.237,87.721 8.008,87.595 7.977,87.625C7.917,87.685 8.385,88.39 8.811,88.884C9.08,89.195 9.879,89.313 10.032,89.065C10.074,88.997 10.553,88.698 11.096,88.4C12.294,87.742 13.259,87.007 14.451,85.843L15.35,84.966L15.506,85.692C15.592,86.091 15.705,86.687 15.758,87.016C15.81,87.344 15.938,87.641 16.041,87.675C16.302,87.763 16.163,85.813 15.852,85.043C15.63,84.491 15.632,84.468 15.933,84.061C16.103,83.832 16.305,83.665 16.383,83.691C16.569,83.752 16.941,85.141 17.065,86.232C17.119,86.706 17.226,87.171 17.302,87.266C17.474,87.478 17.507,87.449 16.525,87.939C15.267,88.568 12.813,89.306 11.384,89.487C10.235,89.632 10.116,89.672 10.334,89.837C10.692,90.109 12.339,89.963 13.815,89.529C15.538,89.023 16.826,88.459 18.125,87.644C19.078,87.045 19.276,86.966 19.385,87.139C19.586,87.458 19.97,87.231 19.971,86.794C19.972,86.518 20.204,86.171 20.843,85.492C21.321,84.983 21.939,84.238 22.215,83.837C22.491,83.436 22.777,83.108 22.849,83.108C23.028,83.108 22.885,85.818 22.688,86.187C22.425,86.678 18.814,88.783 18.234,88.783C18.093,88.783 17.903,88.871 17.813,88.98C17.613,89.221 15.346,90.116 13.66,90.618C12.41,90.991 12.166,91.215 13.009,91.215C13.43,91.215 15.842,90.459 17.048,89.949C17.768,89.645 17.821,89.665 17.615,90.168C17.241,91.082 17.229,91.215 17.52,91.215C17.723,91.215 17.858,91.03 18.069,90.466C18.223,90.055 18.349,89.639 18.349,89.542C18.349,89.37 18.891,89.053 19.186,89.053C19.371,89.053 19.236,90.899 19.016,91.382C18.824,91.804 18.262,92.14 17.004,92.585C16.296,92.836 15.906,92.909 15.696,92.829C15.488,92.75 15.348,92.775 15.235,92.911C15.094,93.082 14.296,93.2 14.296,93.05C14.296,93.019 14.417,92.71 14.566,92.363C15.163,90.97 14.667,90.763 13.999,92.127C13.565,93.013 13.537,93.039 13.012,93.067C12.715,93.082 12.137,93.006 11.729,92.897ZM16.354,91.427C16.505,91.206 16.476,90.539 16.315,90.539C16.178,90.539 15.782,91.336 15.782,91.611C15.782,91.772 16.213,91.634 16.354,91.427ZM14.818,88.169C14.898,87.754 14.558,86.474 14.346,86.393C14.03,86.272 13.987,86.428 14.143,87.12C14.223,87.477 14.323,87.941 14.365,88.15C14.448,88.567 14.738,88.579 14.818,88.169ZM19.75,90.64C19.795,90.473 19.832,89.964 19.833,89.509L19.835,88.682L21.085,87.934C21.772,87.523 22.355,87.206 22.381,87.231C22.505,87.352 21.236,89.485 20.634,90.168C19.909,90.988 19.615,91.146 19.75,90.64ZM24.41,88.254C24.151,88.044 24.094,87.875 24.105,87.353C24.116,86.825 24.186,86.651 24.495,86.385C24.752,86.164 24.97,86.085 25.179,86.138C25.447,86.205 25.555,86.09 26.026,85.236C26.322,84.697 26.716,84.036 26.9,83.767C27.122,83.442 27.196,83.214 27.118,83.091C26.94,82.81 26.973,81.699 27.165,81.505C27.3,81.367 27.246,81.255 26.891,80.936C26.457,80.546 26.42,80.539 25.121,80.571L23.794,80.603L23.297,80.076C23.024,79.786 22.687,79.293 22.548,78.981C22.299,78.417 20.973,76.987 19.309,75.488C18.453,74.716 18.448,74.708 18.709,74.446C18.97,74.185 18.977,74.186 19.518,74.578C20.012,74.935 20.196,74.98 21.469,75.053C23.65,75.178 70.289,75.218 71.571,75.096C72.605,74.997 72.734,75.012 72.99,75.256C73.692,75.924 74.658,76.758 74.731,76.758C74.775,76.758 74.964,76.9 75.151,77.073L75.491,77.388L28.542,77.418L27.483,78.446C26.901,79.011 26.447,79.489 26.474,79.506C26.501,79.524 26.736,79.695 26.996,79.886C27.341,80.139 27.584,80.217 27.891,80.172C28.437,80.092 29.098,80.438 29.358,80.942C29.936,82.06 29.221,83.716 28.172,83.691C27.76,83.682 27.698,83.753 26.897,85.148C26.128,86.487 26.062,86.666 26.133,87.193C26.196,87.657 26.154,87.842 25.918,88.141C25.563,88.592 24.89,88.642 24.41,88.254ZM28.455,82.668C28.532,82.575 28.637,82.332 28.689,82.128C28.766,81.82 28.738,81.757 28.524,81.757C28.184,81.757 27.942,82.012 27.942,82.369C27.942,82.832 28.196,82.98 28.455,82.668ZM24.536,78.708C24.737,78.517 25.197,78.209 25.557,78.023C25.917,77.837 26.185,77.658 26.152,77.625C26.017,77.49 22.943,77.749 22.943,77.896C22.943,78.14 23.755,79.055 23.972,79.055C24.081,79.055 24.335,78.899 24.536,78.708ZM73.339,76.631C73.339,76.575 73.213,76.416 73.059,76.277C72.789,76.032 71.99,76.022 48.165,75.977C34.627,75.951 23.046,75.97 22.43,76.019C21.488,76.093 21.334,76.138 21.467,76.298C21.558,76.408 21.888,76.492 22.25,76.497C22.594,76.502 22.997,76.56 23.145,76.625C23.474,76.768 73.339,76.774 73.339,76.631ZM17.537,86.384C17.535,85.433 17.301,84.342 16.915,83.481C16.695,82.992 16.698,82.958 17,82.388L17.312,81.8L17.919,82.415C19.026,83.539 19.749,85.639 19.226,86.216C18.977,86.492 17.786,87.296 17.628,87.296C17.579,87.296 17.538,86.886 17.537,86.384ZM10.749,85.735C10.099,85.177 9.567,84.693 9.567,84.659C9.567,84.626 9.764,84.514 10.006,84.411C10.247,84.309 10.739,83.963 11.099,83.644C11.78,83.039 11.774,83.039 12.135,83.667C12.286,83.929 11.71,84.804 11.14,85.177C10.71,85.459 10.679,85.675 11.069,85.675C11.36,85.675 12.308,84.828 12.429,84.459C12.485,84.288 12.596,84.307 13.136,84.575C13.592,84.802 13.898,84.87 14.196,84.81L14.616,84.726L14.287,85.078C13.862,85.534 12.242,86.754 12.066,86.751C11.992,86.75 11.399,86.293 10.749,85.735ZM19.784,84.705C19.655,84.228 19.403,83.58 19.224,83.265C18.761,82.449 17.916,81.496 17.651,81.491C17.442,81.487 17.441,81.446 17.637,80.946C17.754,80.649 17.896,80.406 17.952,80.406C18.009,80.406 18.516,80.901 19.078,81.507C20.106,82.613 20.646,83.482 20.646,84.029C20.646,84.191 20.707,84.324 20.781,84.324C21.02,84.324 20.925,83.249 20.635,82.681C20.48,82.378 19.834,81.591 19.199,80.933L18.045,79.735L18.197,78.714C18.281,78.152 18.349,77.388 18.349,77.015L18.349,76.337L18.776,76.581C20.155,77.37 21.859,79.517 22.402,81.149L22.694,82.025L22.26,82.782C21.946,83.332 21.795,83.49 21.711,83.358C21.648,83.258 21.595,83.089 21.594,82.983C21.59,82.618 20.531,80.608 20.046,80.044C19.44,79.339 18.653,78.832 18.463,79.022C18.371,79.114 18.511,79.307 18.894,79.613C19.206,79.863 19.696,80.395 19.983,80.795C20.519,81.543 21.321,83.418 21.321,83.924C21.321,84.081 21.028,84.516 20.67,84.891L20.02,85.574L19.784,84.705ZM13.388,84.193C12.846,83.862 12.134,82.898 12.134,82.494C12.134,82.328 12.043,82.156 11.931,82.113C11.602,81.987 11.697,81.823 12.204,81.639C12.465,81.545 12.945,81.265 13.27,81.016L13.861,80.565L14.313,81.032C14.562,81.288 15.1,81.659 15.51,81.855C15.92,82.051 16.276,82.226 16.302,82.245C16.414,82.326 15.715,83.378 15.549,83.378C14.904,83.378 13.485,82.142 13.485,81.58C13.485,81.247 13.159,81.363 13.107,81.714C13.04,82.16 13.88,83.138 14.655,83.516C15.281,83.821 15.334,83.88 15.175,84.097C15.053,84.264 14.981,84.287 14.943,84.171C14.901,84.046 14.803,84.062 14.561,84.231C14.141,84.525 13.921,84.518 13.388,84.193ZM8.97,83.829C8.785,83.556 8.655,83.298 8.682,83.254C8.709,83.211 9.041,83.056 9.419,82.909C9.911,82.719 10.107,82.57 10.107,82.387C10.107,82.104 10.047,82.111 8.993,82.515C8.429,82.731 8.327,82.737 8.156,82.563C7.855,82.258 7.049,80.551 6.799,79.688L6.574,78.914L7.137,78.241C7.447,77.871 7.752,77.569 7.814,77.569C7.957,77.569 8.037,77.851 8.155,78.782C8.409,80.771 9.351,81.892 10.768,81.892C11.407,81.892 11.599,82.227 11.258,82.748C11.057,83.054 9.545,84.324 9.38,84.324C9.34,84.324 9.155,84.101 8.97,83.829ZM15.782,81.475C15.141,81.185 14.628,80.77 14.411,80.367C14.31,80.18 14.385,79.981 14.743,79.489C15.484,78.47 15.678,77.981 15.771,76.898L15.857,75.88L16.294,76.551C16.862,77.423 16.996,77.941 16.997,79.267C16.998,80.295 16.697,81.76 16.486,81.754C16.433,81.752 16.116,81.627 15.782,81.475ZM10.015,81.232C9.555,81.016 9.026,80.41 9.026,80.096C9.026,80.066 9.376,80.221 9.803,80.439C10.534,80.813 10.652,80.833 11.794,80.771L13.008,80.706L12.369,81.032C11.461,81.493 10.71,81.556 10.015,81.232ZM10.14,80.183C9.087,79.664 8.481,78.463 8.7,77.329C8.879,76.405 9.205,76.462 9.309,77.436C9.457,78.809 10.021,79.587 11.073,79.871C11.757,80.055 12.413,79.923 13.1,79.462C14.509,78.515 15.096,76.365 14.211,75.388C13.995,75.149 14,75.137 14.316,75.137C14.961,75.137 15.157,75.425 15.154,76.369C15.15,77.699 14.786,78.746 14.097,79.408C13.775,79.718 13.232,80.061 12.87,80.185C12.041,80.467 10.715,80.466 10.14,80.183ZM11.053,79.365C10.785,79.267 10.249,78.776 10.092,78.484C9.883,78.096 9.704,76.918 9.789,76.491C9.857,76.152 9.986,76.046 10.627,75.806C11.043,75.65 11.568,75.488 11.793,75.444C12.198,75.366 12.199,75.368 11.952,75.647C11.337,76.344 11.162,77.598 11.603,78.158C11.828,78.444 11.998,78.514 12.461,78.514C13.069,78.514 13.375,78.296 13.544,77.744C13.668,77.337 13.409,76.448 13.08,76.15C12.684,75.792 12.739,75.542 13.215,75.542C14.396,75.542 14.49,77.309 13.375,78.545C12.673,79.322 11.79,79.634 11.053,79.365ZM17.491,78.243C17.378,77.519 16.824,76.271 16.425,75.846C16.176,75.581 16.169,75.542 16.371,75.542C16.696,75.542 17.576,75.926 17.7,76.121C17.829,76.324 17.817,78.054 17.684,78.514C17.598,78.811 17.575,78.777 17.491,78.243ZM12.1,77.963C11.681,77.719 11.881,76.277 12.355,76.12C12.579,76.047 13.08,76.924 13.08,77.389C13.08,78.031 12.65,78.283 12.1,77.963ZM4.848,77.348C4.303,76.655 4.592,75.694 5.402,75.502C5.784,75.412 5.975,75.437 6.245,75.614C6.539,75.807 6.594,75.944 6.594,76.478C6.594,77.279 6.245,77.704 5.586,77.704C5.252,77.704 5.052,77.607 4.848,77.348ZM79.284,77.437C76.753,77.369 76.45,77.335 75.771,77.04C74.847,76.638 73.928,75.739 73.991,75.298C74.035,74.988 74.041,74.987 75.815,75.04C78.916,75.133 89.948,75.139 91.929,75.049C94.049,74.953 94.013,74.942 95.218,76.054C95.483,76.299 95.897,76.633 96.138,76.797C96.379,76.961 96.576,77.148 96.577,77.212C96.577,77.276 94.225,77.289 91.306,77.241C86.643,77.165 86.025,77.178 85.954,77.362C85.868,77.587 85.146,77.595 79.284,77.437ZM87.525,76.566C94.611,76.509 94.559,76.513 94.125,75.99C94.025,75.87 92.319,75.825 87.414,75.813C83.797,75.805 79.913,75.767 78.783,75.73C77.084,75.675 76.658,75.7 76.317,75.876C76.091,75.993 75.906,76.121 75.906,76.159C75.906,76.197 76.164,76.341 76.48,76.478C76.969,76.69 77.325,76.719 78.878,76.674C79.881,76.645 83.773,76.597 87.525,76.566ZM8.993,74.678C8.678,74.439 8.689,74.056 9.01,74.056C9.334,74.056 9.62,74.397 9.519,74.662C9.423,74.91 9.303,74.914 8.993,74.678Z" style="fill-rule:nonzero;"/>
        </g>
        <g id="path32" serif:id="path3" transform="matrix(-0.829,0,0,1.03898,208.517,57.2206)">
            <path d="M7.209,67.213C7.22,67.083 7.213,66.137 7.195,65.108C7.172,63.924 7.261,62.802 7.437,62.043C7.837,60.32 7.513,59.817 6.594,60.736C5.946,61.385 4.822,61.637 4.128,61.291C3.322,60.889 2.942,60.94 2.811,61.47C2.726,61.803 2.803,62.038 3.094,62.348C3.442,62.719 3.494,62.978 3.516,64.414C3.53,65.37 3.465,66.082 3.363,66.118C2.799,66.319 2.672,66.503 2.906,66.786C3.242,67.189 3.92,67.131 4.243,66.67C4.447,66.378 4.519,65.822 4.519,64.535C4.519,62.952 4.55,62.795 4.853,62.795C5.037,62.795 5.437,62.745 5.743,62.684L6.299,62.572L6.32,64.419C6.345,66.657 6.469,67.309 6.878,67.388C7.05,67.421 7.197,67.342 7.209,67.213Z" style="fill-rule:nonzero;"/>
        </g>
        <g id="path33" serif:id="path3" transform="matrix(-0.829,0,0,1.03898,208.517,57.2206)">
            <path d="M6.121,60.185C6.647,59.977 7.189,59.344 7.189,58.937C7.189,58.466 6.902,58.415 6.399,58.796C5.956,59.13 5.212,59.129 4.403,58.79C3.463,58.398 3.24,58.441 3.306,59.004C3.343,59.316 3.551,59.594 3.898,59.797C4.485,60.138 5.702,60.351 6.121,60.185Z" style="fill-rule:nonzero;"/>
        </g>
        <g id="path34" serif:id="path3" transform="matrix(-0.829,0,0,1.03898,208.517,57.2206)">
            <path d="M6.432,57.46C7.184,57.119 7.324,56.875 7.03,56.413C6.926,56.248 6.706,56.21 6.331,56.292L5.783,56.411L5.73,55.3C5.681,54.288 5.721,54.143 6.166,53.699C6.481,53.386 6.655,53.022 6.655,52.682C6.655,52.391 6.855,51.804 7.097,51.378C7.718,50.294 7.693,49.389 7.025,48.721C6.457,48.153 5.602,48.022 5.249,48.447C5.083,48.646 5.162,48.716 5.664,48.809C6.498,48.966 7.054,49.667 6.823,50.272C6.42,51.335 6.327,51.412 5.603,51.298C5.024,51.204 4.879,51.25 4.631,51.603C4.472,51.831 4.341,52.236 4.341,52.503C4.341,53.056 4.68,53.895 4.904,53.895C4.986,53.895 5.053,54.496 5.053,55.231C5.053,56.418 5.016,56.566 4.719,56.566C4.535,56.566 4.269,56.392 4.128,56.18C3.786,55.665 3.451,55.899 3.451,56.655C3.451,57.783 4.874,58.167 6.432,57.46Z" style="fill-rule:nonzero;"/>
        </g>
        <g id="path35" serif:id="path3" transform="matrix(-0.829,0,0,1.03898,208.517,57.2206)">
            <path d="M5.174,52.756C5.121,52.619 5.125,52.46 5.183,52.402C5.335,52.25 5.78,52.661 5.664,52.848C5.519,53.084 5.282,53.039 5.174,52.756Z" style="fill-rule:nonzero;"/>
        </g>
        <g id="path36" serif:id="path3" transform="matrix(-0.829,0,0,1.03898,208.517,57.2206)">
            <path d="M4.157,51.061C4.579,50.273 4.301,49.625 3.543,49.625C3.244,49.625 2.915,50.552 3.041,51.036C3.165,51.513 3.907,51.528 4.157,51.061Z" style="fill-rule:nonzero;"/>
        </g>
        <g id="path37" serif:id="path3" transform="matrix(-0.829,0,0,1.03898,208.517,57.2206)">
            <path d="M5.158,47.978C5.534,47.683 5.892,47.582 6.518,47.591C7.288,47.603 7.367,47.566 7.367,47.197C7.367,46.473 6.336,46.238 5.171,46.698C4.901,46.805 4.854,46.752 4.904,46.402C4.955,46.042 5.088,45.962 5.765,45.883C6.767,45.765 6.9,45.681 7.257,44.929C7.644,44.113 7.62,43.539 7.176,42.974C6.532,42.156 5.394,42.423 5.423,43.386C5.431,43.637 5.478,43.741 5.527,43.618C5.649,43.315 6.385,43.336 6.645,43.651C6.871,43.921 6.641,44.585 6.228,44.86C5.918,45.068 5.146,45.018 4.904,44.776C4.555,44.428 4.395,44.86 4.256,46.527C4.092,48.488 4.229,48.709 5.158,47.978Z" style="fill-rule:nonzero;"/>
        </g>
        <g id="path38" serif:id="path3" transform="matrix(-0.829,0,0,1.03898,208.517,57.2206)">
            <path d="M6.967,41.966C7.419,41.784 7.506,41.173 7.102,41.018C6.595,40.824 4.493,41.121 4.385,41.401C4.148,42.019 5.888,42.4 6.967,41.966Z" style="fill-rule:nonzero;"/>
        </g>
        <g id="path39" serif:id="path3" transform="matrix(-0.829,0,0,1.03898,208.517,57.2206)">
            <path d="M7.222,40.31C7.566,39.967 7.383,37.789 7.012,37.789C6.819,37.789 6.728,38.026 6.69,38.635L6.636,39.479L5.058,39.479L5.087,38.414C5.119,37.264 5.041,37.065 4.615,37.228C4.049,37.445 4.322,39.94 4.964,40.412C5.273,40.638 6.971,40.562 7.222,40.31Z" style="fill-rule:nonzero;"/>
        </g>
        <g id="path310" serif:id="path3" transform="matrix(-0.829,0,0,1.03898,208.517,57.2206)">
            <path d="M6.261,38.635C6.468,38.13 6.408,35.958 6.182,35.732C5.78,35.33 5.588,35.763 5.588,37.073C5.588,38.44 5.69,38.946 5.968,38.946C6.058,38.946 6.19,38.806 6.261,38.635Z" style="fill-rule:nonzero;"/>
        </g>
        <g id="path311" serif:id="path3" transform="matrix(-0.829,0,0,1.03898,208.517,57.2206)">
            <path d="M7.426,36.692C7.491,36.626 7.545,35.945 7.545,35.178C7.545,33.812 7.536,33.785 7.102,33.785C6.859,33.785 6.298,33.687 5.856,33.57C4.746,33.272 4.502,33.54 4.384,35.189C4.307,36.255 4.34,36.465 4.592,36.562C5.02,36.726 5.103,36.575 5.195,35.46C5.27,34.553 5.31,34.476 5.655,34.568C5.863,34.624 6.212,34.671 6.433,34.673C6.788,34.674 6.832,34.765 6.832,35.46C6.832,36.584 7.062,37.057 7.426,36.692Z" style="fill-rule:nonzero;"/>
        </g>
        <g id="path312" serif:id="path3" transform="matrix(-0.829,0,0,1.03898,208.517,57.2206)">
            <path d="M7.16,32.718C8.05,32.508 8.177,32.308 7.919,31.52C7.798,31.151 7.724,30.407 7.754,29.87C7.807,28.961 7.844,28.89 8.254,28.89C8.559,28.89 8.715,29.002 8.754,29.247C8.881,30.03 8.964,30.12 9.235,29.763C9.603,29.278 9.56,28.567 9.134,28.024C8.458,27.165 7.195,27.562 6.902,28.726C6.838,28.985 6.832,29.706 6.89,30.333L6.997,31.472L5.408,31.472L5.408,29.508C5.408,27.871 5.361,27.526 5.124,27.435C4.647,27.252 4.507,27.746 4.548,29.468C4.582,30.881 4.542,31.148 4.265,31.35C3.796,31.693 4.049,32.299 4.75,32.512C5.673,32.795 6.524,32.867 7.16,32.718Z" style="fill-rule:nonzero;"/>
        </g>
        <g id="path313" serif:id="path3" transform="matrix(-0.829,0,0,1.03898,208.517,57.2206)">
            <path d="M7.586,25.782C8.488,25.072 8.591,23.444 7.774,22.825C7.257,22.432 6.309,22.522 5.648,23.027C5.158,23.401 5.053,23.598 5.053,24.157C5.053,25.159 5.698,26.029 6.493,26.096C6.918,26.131 7.27,26.031 7.586,25.782Z" style="fill-rule:nonzero;"/>
        </g>
        <g id="path314" serif:id="path3" transform="matrix(-0.759146,0,0,0.442187,207.529,72.3078)">
            <path d="M29.189,15.131C29.14,15.05 29.255,14.75 29.445,14.463C29.634,14.176 29.79,13.681 29.791,13.362C29.792,12.818 29.756,12.783 29.157,12.783C28.505,12.783 27.845,13.042 27.615,13.388C27.423,13.675 27.45,14.534 27.662,14.931C27.798,15.184 28.036,15.276 28.563,15.276C28.957,15.276 29.239,15.21 29.189,15.131Z" style="fill-rule:nonzero;"/>
        </g>
        <g id="path315" serif:id="path3" transform="matrix(-0.759146,0,0,0.442187,207.529,72.3078)">
            <path d="M7.783,13.901C8.23,13.833 8.276,13.769 8.175,13.349C8.113,13.086 7.724,12.312 7.313,11.627C6.668,10.553 6.486,10.373 6.005,10.327C4.928,10.221 4.332,8.878 5.046,8.164C5.623,7.587 6.037,7.757 6.012,8.563C5.996,9.096 6.055,9.224 6.323,9.224C6.822,9.224 7.367,8.58 7.367,7.991C7.367,7.28 6.604,6.417 5.852,6.275C5.39,6.189 5.017,6.28 4.254,6.666C3.015,7.293 2.624,7.704 2.31,8.704L2.063,9.492L2.045,8.28C2.036,7.613 1.962,7.107 1.882,7.157C1.803,7.206 1.548,7.617 1.314,8.07C0.965,8.747 0.928,8.954 1.104,9.235C1.219,9.422 1.317,9.717 1.32,9.889C1.335,11.129 3.377,13.478 4.738,13.82C5.837,14.097 6.299,14.084 6.299,13.777C6.299,13.051 3.598,10.826 2.72,10.826C2.381,10.826 2.206,10.735 2.206,10.559C2.206,10.159 3.247,10.223 3.975,10.667C5.078,11.338 6.325,12.498 6.778,13.271C7.022,13.688 7.235,14.018 7.25,14.003C7.266,13.987 7.506,13.941 7.783,13.901Z" style="fill-rule:nonzero;"/>
        </g>
        <g id="path316" serif:id="path3" transform="matrix(-0.759146,0,0,0.442187,207.529,72.3078)">
            <path d="M16.904,13.229C17.293,12.636 17.114,11.605 16.593,11.44C16.363,11.366 16.163,11.414 16.068,11.564C15.815,11.963 15.89,13.094 16.189,13.393C16.551,13.756 16.562,13.753 16.904,13.229Z" style="fill-rule:nonzero;"/>
        </g>
        <g id="path317" serif:id="path3" transform="matrix(-0.759146,0,0,0.442187,207.529,72.3078)">
            <path d="M9.422,13.422C9.753,13.181 9.725,13.11 8.728,11.643C8.156,10.802 7.621,10.113 7.538,10.113C7.191,10.113 7.233,10.452 7.658,11.079C7.909,11.446 8.312,12.18 8.554,12.71C8.796,13.239 9.014,13.674 9.036,13.674C9.06,13.674 9.234,13.561 9.422,13.422Z" style="fill-rule:nonzero;"/>
        </g>
        <g id="path318" serif:id="path3" transform="matrix(-0.759146,0,0,0.442187,207.529,72.3078)">
            <path d="M18.852,13.229C18.897,13.081 18.975,12.835 19.024,12.681C19.177,12.199 18.918,11.537 18.58,11.537C18.231,11.537 18.045,11.876 18.045,12.516C18.045,13.121 18.225,13.495 18.515,13.495C18.655,13.495 18.806,13.375 18.852,13.229Z" style="fill-rule:nonzero;"/>
        </g>
        <g id="path319" serif:id="path3" transform="matrix(-0.759146,0,0,0.442187,207.529,72.3078)">
            <path d="M15.27,13.209C15.33,13.052 15.296,12.612 15.193,12.23C15.056,11.724 14.913,11.537 14.657,11.537C14.375,11.537 14.308,11.66 14.308,12.172C14.308,13.247 14.978,13.969 15.27,13.209Z" style="fill-rule:nonzero;"/>
        </g>
        <g id="path320" serif:id="path3" transform="matrix(-0.759146,0,0,0.442187,207.529,72.3078)">
            <path d="M23.272,12.34C23.629,11.802 24.361,10.843 24.899,10.21C25.436,9.576 25.876,9.023 25.876,8.981C25.876,8.938 25.594,8.929 25.248,8.962C24.812,9.003 24.079,9.406 22.856,10.279C21.885,10.972 21.044,11.614 20.988,11.706C20.873,11.89 22.16,13.317 22.442,13.317C22.541,13.317 22.915,12.877 23.272,12.34Z" style="fill-rule:nonzero;"/>
        </g>
        <g id="path321" serif:id="path3" transform="matrix(-0.759146,0,0,0.442187,207.529,72.3078)">
            <path d="M10.459,12.383C10.671,11.59 10.559,11.248 9.808,10.394C9.118,9.61 9.007,9.547 8.652,9.737C8.262,9.946 8.267,9.959 9.192,11.353C9.705,12.126 10.176,12.764 10.239,12.77C10.301,12.778 10.4,12.603 10.459,12.383Z" style="fill-rule:nonzero;"/>
        </g>
        <g id="path322" serif:id="path3" transform="matrix(-0.759146,0,0,0.442187,207.529,72.3078)">
            <path d="M12.047,11.576C12.312,11.299 12.53,10.997 12.53,10.905C12.531,10.813 12.851,10.602 13.242,10.439C13.896,10.163 13.952,10.086 13.952,9.452C13.952,8.797 13.529,6.878 13.305,6.515C13.114,6.206 11.817,7.651 11.817,8.173C11.817,8.435 11.693,9.302 11.542,10.096C11.203,11.882 11.348,12.305 12.047,11.576Z" style="fill-rule:nonzero;"/>
        </g>
        <g id="path323" serif:id="path3" transform="matrix(-0.759146,0,0,0.442187,207.529,72.3078)">
            <path d="M20.823,10.935L24.8,8.124L24.531,7.481C24.384,7.128 24.234,6.81 24.197,6.773C24.017,6.594 20.723,8.705 20.089,9.405C19.793,9.733 19.801,9.772 20.301,10.341L20.823,10.935Z" style="fill-rule:nonzero;"/>
        </g>
        <g id="path324" serif:id="path3" transform="matrix(-0.759146,0,0,0.442187,207.529,72.3078)">
            <path d="M11.086,9.521C11.194,8.901 11.282,8.335 11.282,8.264C11.282,8.193 10.923,8.393 10.481,8.709C10.041,9.025 9.683,9.331 9.686,9.388C9.692,9.511 10.712,10.648 10.817,10.648C10.857,10.648 10.978,10.141 11.086,9.521Z" style="fill-rule:nonzero;"/>
        </g>
        <g id="path325" serif:id="path3" transform="matrix(-0.759146,0,0,0.442187,207.529,72.3078)">
            <path d="M42.339,9.045C42.468,8.456 42.139,7.787 41.023,6.376C40.133,5.25 39.956,5.142 38.996,5.137C38.004,5.13 37.016,5.498 36.483,6.075L36.106,6.48L36.91,6.512C38.48,6.571 39.506,6.773 40.515,7.218C41.077,7.467 41.539,7.74 41.539,7.824C41.539,8.035 41.537,8.035 40.042,7.533C38.849,7.132 36.555,6.903 36.555,7.184C36.555,7.236 36.684,7.476 36.842,7.717C37.072,8.068 37.28,8.156 37.873,8.156C38.892,8.156 40.586,8.62 41.479,9.144L42.222,9.579L42.339,9.045Z" style="fill-rule:nonzero;"/>
        </g>
        <g id="path326" serif:id="path3" transform="matrix(-0.759146,0,0,0.442187,207.529,72.3078)">
            <path d="M15.82,9.272C16.525,9.057 16.95,9.037 17.867,9.175C18.997,9.348 19.038,9.34 19.609,8.842C20.014,8.49 20.104,8.334 19.901,8.334C19.725,8.334 19.647,8.236 19.705,8.086C19.9,7.579 18.426,6.62 16.413,5.944C13.861,5.089 13.419,5.32 14.052,7.177C14.286,7.862 14.479,8.683 14.482,9.002C14.487,9.652 14.538,9.663 15.82,9.272Z" style="fill-rule:nonzero;"/>
        </g>
        <g id="path327" serif:id="path3" transform="matrix(-0.759146,0,0,0.442187,207.529,72.3078)">
            <path d="M29.244,7.509C29.756,6.86 29.72,5.996 29.154,5.322C28.629,4.699 28.106,4.628 27.247,5.063C25.845,5.773 25.664,6.53 26.684,7.426C27.536,8.174 28.692,8.211 29.244,7.509Z" style="fill-rule:nonzero;"/>
        </g>
        <g id="path328" serif:id="path3" transform="matrix(-0.759146,0,0,0.442187,207.529,72.3078)">
            <path d="M27.334,6.516C27.295,6.31 27.431,6.172 27.747,6.093C28.289,5.957 28.644,6.222 28.482,6.644C28.332,7.034 27.413,6.932 27.334,6.516Z" style="fill-rule:nonzero;"/>
        </g>
        <g id="path329" serif:id="path3" transform="matrix(-0.759146,0,0,0.442187,207.529,72.3078)">
            <path d="M20.986,7.792C21.151,7.526 20.769,7.016 19.179,5.379C17.808,3.968 17.753,3.933 16.563,3.711C15.231,3.462 15.102,3.513 14.856,4.37C14.703,4.901 14.72,4.923 15.349,5.039C16.961,5.337 20.216,7.041 20.478,7.725C20.593,8.023 20.826,8.054 20.986,7.792Z" style="fill-rule:nonzero;"/>
        </g>
        <g id="path330" serif:id="path3" transform="matrix(-0.759146,0,0,0.442187,207.529,72.3078)">
            <path d="M22.715,6.659C23.276,6.357 23.737,6.065 23.738,6.011C23.74,5.957 23.331,5.454 22.832,4.894C21.446,3.339 20.706,3.073 19.315,3.63L18.618,3.908L19.407,4.742C19.84,5.2 20.361,5.815 20.562,6.109C20.765,6.403 21.102,6.771 21.312,6.927C21.67,7.193 21.758,7.176 22.715,6.659Z" style="fill-rule:nonzero;"/>
        </g>
        <g id="path331" serif:id="path3" transform="matrix(-0.759146,0,0,0.442187,207.529,72.3078)">
            <path d="M68.535,3.145C68.591,3.434 68.593,4.673 68.607,5.139C67.412,5.124 66.742,4.458 66.632,4.44C63.241,3.875 61.922,3.419 61.329,2.605C61.112,2.306 61.03,2.323 59.967,2.908C59.345,3.249 58.725,3.528 58.588,3.528C58.45,3.528 57.95,3.775 57.479,4.074C56.649,4.599 56.632,4.628 56.982,4.873C57.308,5.101 57.529,5.062 59.098,4.495C61.17,3.746 61.815,3.655 62.74,3.981C63.119,4.116 63.898,4.309 64.47,4.414C65.043,4.518 65.839,4.761 66.241,4.955C66.643,5.15 67.055,5.308 67.158,5.308C67.643,5.308 67.263,5.673 66.589,5.853C66.173,5.965 65.648,6.129 65.423,6.217C65.198,6.304 64.823,6.376 64.588,6.376C64.354,6.376 64.113,6.457 64.052,6.554C63.991,6.653 63.815,6.732 63.659,6.732C63.161,6.732 61.298,7.484 61.396,7.645C61.527,7.856 61.815,7.831 62.45,7.554C63.293,7.188 66.584,6.358 67.589,6.259C67.658,6.252 68.039,6.519 68.644,6.511C68.634,6.902 68.611,7.988 68.595,8.396C68.502,8.399 66.908,8.737 66.54,8.889C66.186,9.036 65.444,8.102 65.078,8.253C64.626,8.44 64.487,8.573 64.641,8.668C64.783,8.757 64.425,8.949 63.658,9.195C56.623,11.448 56.741,11.385 56.936,12.801C57.032,13.499 56.997,13.67 56.731,13.819C56.32,14.049 55.72,13.745 54.896,12.888C54.307,12.275 52.751,11.537 52.048,11.537C51.863,11.537 51.206,11.806 50.586,12.135C49.965,12.463 49.268,12.793 49.036,12.865C48.805,12.939 48.257,13.251 47.819,13.559C47.126,14.047 46.895,14.113 46.017,14.077C45.463,14.055 44.456,13.835 43.782,13.588C43.106,13.342 42.292,13.139 41.971,13.139C41.561,13.139 41.23,12.981 40.854,12.606C40.56,12.312 40.174,12.066 39.995,12.059C39.702,12.048 39.705,12.033 40.025,11.901C40.803,11.585 39.44,11.5 38.177,11.788C37.491,11.944 36.676,12.072 36.368,12.072C36.059,12.072 35.129,12.278 34.301,12.531C33.1,12.897 32.746,12.945 32.536,12.772C32.393,12.653 32.318,12.421 32.37,12.257C32.557,11.669 31.274,10.826 30.192,10.826C28.878,10.826 27.631,11.334 26.722,12.243C25.991,12.974 25.876,13.187 25.876,13.811C25.876,14.209 25.925,14.661 25.984,14.816C26.192,15.356 26.348,15.091 26.335,14.219C26.324,13.478 26.404,13.254 26.855,12.78C28.052,11.519 30.228,10.995 31.344,11.699C31.913,12.058 32.231,12.735 32.05,13.205C31.975,13.4 30.451,14.385 30.223,14.385C30.192,14.385 30.251,14.143 30.355,13.847C30.786,12.611 29.865,11.847 28.416,12.237C27.147,12.578 26.57,13.656 27.004,14.875C27.134,15.242 27.093,15.276 26.506,15.276C25.908,15.276 24.282,14.576 23.477,13.972C23.135,13.715 23.147,13.677 23.969,12.483C24.434,11.81 25.179,10.842 25.626,10.331C26.396,9.449 26.458,9.415 26.819,9.668C27.503,10.148 28.425,9.995 30.078,9.129C31.863,8.197 31.753,8.173 33.389,9.849C33.976,10.451 34.425,10.783 34.495,10.669C34.682,10.366 34.325,9.862 33.245,8.898L32.243,8.004L33.147,7.546C33.644,7.294 34.209,7.088 34.403,7.088C34.612,7.088 35.137,7.53 35.699,8.182C37.691,10.49 37.393,10.285 38.824,10.341C39.534,10.369 40.115,10.372 40.115,10.345C40.115,10.216 38.774,9.758 38.398,9.758C38.032,9.758 37.622,9.235 37.622,8.767C37.622,8.612 38.623,8.7 39.493,8.932C41.621,9.498 42.725,10.332 41.702,10.601C41.434,10.671 41.394,10.736 41.557,10.837C41.691,10.921 41.964,10.835 42.227,10.627C42.55,10.373 42.816,10.31 43.2,10.394C43.72,10.509 43.725,10.501 43.625,9.878C43.529,9.291 42.185,6.819 41.344,5.679L40.98,5.188L41.347,4.483C42.212,2.825 43.86,1.873 45.899,1.851C47.593,1.833 47.935,1.963 48.657,2.903C49.018,3.37 49.741,3.975 50.371,4.336L51.461,4.959L54.062,3.36C55.494,2.48 56.901,1.637 57.19,1.488C57.767,1.189 58.623,1.122 58.623,1.375C58.623,1.617 57.567,2.493 56.245,3.349C55.592,3.771 55.089,4.146 55.126,4.184C55.264,4.323 60.353,1.788 60.714,1.401L61.088,0.999L61.929,1.641C62.391,1.994 62.911,2.284 63.086,2.284C63.262,2.284 63.518,2.397 63.657,2.536C63.986,2.864 65.468,3.132 67.793,3.282C68.06,3.3 68.317,3.124 68.535,3.145ZM56.846,8.849C56.85,9.232 57.106,9.615 57.257,9.464C57.509,9.212 57.363,8.427 56.926,7.683C56.677,7.258 56.401,6.91 56.313,6.91C55.945,6.91 55.976,7.283 56.396,7.902C56.642,8.265 56.845,8.691 56.846,8.849ZM48.124,5.137C48.124,5.232 48.243,5.308 48.391,5.308C48.537,5.308 48.657,5.278 48.657,5.238C48.657,5.2 48.537,5.122 48.391,5.066C48.243,5.01 48.124,5.042 48.124,5.137ZM54.133,7.991C54.876,8.376 55.502,8.691 55.524,8.691C55.546,8.691 55.523,8.526 55.47,8.326C55.369,7.94 53.891,7.089 53.32,7.089C52.623,7.089 52.829,7.317 54.133,7.991ZM44.641,9.846C44.71,10.22 44.862,10.47 45.017,10.47C45.218,10.47 45.276,10.204 45.276,9.293C45.276,6.96 46.804,5.599 48.462,6.457C49.138,6.806 50.052,7.877 50.182,8.471C50.24,8.738 50.314,9.044 50.347,9.15C50.418,9.393 51.505,9.253 51.505,9.003C51.505,8.704 52.713,8.99 53.569,9.492C54.005,9.747 54.315,10.032 54.257,10.124C54.2,10.216 54.316,10.291 54.515,10.291C54.761,10.291 54.843,10.208 54.773,10.026C54.709,9.857 54.822,9.7 55.091,9.592C55.495,9.43 55.496,9.424 55.125,9.414C54.913,9.407 54.233,9.162 53.613,8.869C52.991,8.575 52.314,8.334 52.107,8.334C51.799,8.334 51.712,8.198 51.63,7.596C51.543,6.948 51.294,6.566 50.952,6.557C50.892,6.555 50.924,6.957 51.022,7.45C51.144,8.068 51.139,8.468 51.007,8.741L50.817,9.135L50.805,8.728C50.787,8.097 50.168,7.023 49.471,6.412C48.055,5.168 46.216,5.367 45.265,6.868C44.701,7.755 44.463,8.896 44.641,9.846ZM46.979,9.834C47.302,10.156 47.551,10.178 47.99,9.922C48.309,9.735 48.42,8.782 48.166,8.41C47.946,8.089 47.404,7.97 47.042,8.162C46.615,8.392 46.576,9.431 46.979,9.834ZM57.734,7.711C57.734,7.881 57.904,7.978 58.201,7.978C58.596,7.978 58.634,7.937 58.446,7.711C58.324,7.564 58.114,7.445 57.979,7.445C57.845,7.445 57.734,7.564 57.734,7.711ZM45.526,12.16C46.343,12.715 46.541,12.715 47.199,12.163C47.487,11.919 47.914,11.644 48.146,11.551C48.441,11.433 47.759,11.383 45.899,11.383C44.252,11.385 43.366,11.444 43.586,11.537C43.78,11.622 44.151,11.697 44.406,11.703C44.662,11.71 45.165,11.915 45.526,12.16ZM43.317,7.489C43.318,7.979 43.647,7.854 44.022,7.222C44.778,5.94 45.407,5.246 46.248,4.764C47.099,4.275 47.115,4.252 46.7,4.097C46.377,3.979 46.03,4.043 45.331,4.352C44.816,4.58 44.271,4.719 44.12,4.661C43.794,4.536 43.373,4.856 42.949,5.553C42.65,6.042 42.652,6.086 42.977,6.62C43.164,6.927 43.317,7.318 43.317,7.489ZM59.256,6.526C59.831,6.789 60.033,6.779 60.582,6.467C60.826,6.328 61.62,5.994 62.345,5.727C63.333,5.362 63.578,5.21 63.324,5.122C61.83,4.598 61.853,4.597 60.495,5.141C59.776,5.429 59.1,5.665 58.995,5.665C58.613,5.665 58.812,6.323 59.256,6.526Z"/>
        </g>
        <g id="path332" serif:id="path3" transform="matrix(-0.759146,0,0,0.775657,207.564,71.1073)">
            <path d="M68.618,6.335C68.634,5.927 68.644,5.649 68.653,5.258C72.426,5.203 143.96,5.782 144.868,5.403C145.54,5.122 145.64,4.881 145.165,4.682C144.994,4.61 127.475,4.562 106.232,4.577C87.902,4.589 73.685,4.554 68.622,4.49C68.608,4.024 68.576,3.629 68.52,3.341C69.299,3.418 69.755,3.521 69.858,3.644C70.088,3.921 71.26,3.974 71.26,3.706C71.26,3.461 72.743,3.482 72.992,3.73C73.142,3.88 82.873,3.912 110.574,3.851C142.809,3.781 147.967,3.805 148.052,4.024C148.236,4.506 147.205,5.429 145.744,6.09L144.32,6.735L141.527,6.733C139.841,6.733 138.69,6.803 138.624,6.911C138.55,7.031 70.64,6.168 70.23,6.286C69.933,6.372 69.252,6.318 68.618,6.335Z"/>
        </g>
    </g>
</svg>
