<?xml version="1.0" encoding="UTF-8" standalone="no"?>
<!DOCTYPE svg PUBLIC "-//W3C//DTD SVG 1.1//EN" "http://www.w3.org/Graphics/SVG/1.1/DTD/svg11.dtd">
<svg width="100%" height="100%" viewBox="0 0 101 35" version="1.1" xmlns="http://www.w3.org/2000/svg" xmlns:xlink="http://www.w3.org/1999/xlink" xml:space="preserve" xmlns:serif="http://www.serif.com/" style="fill-rule:evenodd;clip-rule:evenodd;stroke-linejoin:round;stroke-miterlimit:2;">
    <g id="path1" transform="matrix(1,0,0,1,-0.211566,-0.159439)">
        <path d="M0.272,17.502C0.273,17.5 0.274,17.498 0.275,17.496C0.331,17.382 0.334,17.264 0.318,15.482C0.308,14.441 0.287,11.573 0.27,9.108C0.253,6.643 0.229,4.434 0.218,4.199C0.206,3.935 0.211,3.747 0.231,3.705C0.25,3.668 0.271,3.563 0.28,3.473C0.316,3.07 0.436,2.702 0.726,2.112C0.874,1.81 1.846,0.952 2.039,0.952C2.062,0.952 2.08,0.937 2.08,0.919C2.08,0.901 2.11,0.886 2.147,0.886C2.183,0.886 2.239,0.873 2.27,0.857C2.338,0.824 2.511,0.762 2.674,0.714C2.902,0.647 3.367,0.616 4.369,0.602L5.389,0.587L5.505,0.498C5.687,0.358 5.901,0.227 5.947,0.227C5.97,0.227 6.004,0.212 6.022,0.194C6.067,0.148 13.614,0.148 13.66,0.193C13.678,0.212 13.72,0.227 13.753,0.227C13.836,0.227 13.935,0.288 14.091,0.434C14.186,0.522 14.243,0.552 14.29,0.539C14.326,0.528 14.408,0.506 14.471,0.49C14.539,0.472 18.903,0.469 25.025,0.481L35.463,0.502L35.463,0.82L24.967,0.82C18.275,0.82 14.471,0.832 14.471,0.852C14.471,0.869 14.503,0.913 14.542,0.95C14.612,1.015 14.656,1.016 17.84,1.017L21.067,1.018L21.166,1.117C21.298,1.249 21.282,1.341 21.117,1.397C20.937,1.459 20.838,1.61 20.745,1.967C20.682,2.211 20.626,2.293 20.503,2.319C20.448,2.331 20.39,2.364 20.375,2.393C20.349,2.439 20.209,2.442 19.097,2.423C18.411,2.411 17.585,2.392 17.262,2.381C16.626,2.359 16.514,2.381 16.707,2.491C16.764,2.524 16.811,2.567 16.811,2.588C16.811,2.649 18.025,2.675 19.638,2.649C20.541,2.634 21.127,2.612 21.153,2.592C21.176,2.573 21.194,2.485 21.194,2.388C21.194,2.228 21.224,2.143 21.372,1.882C21.443,1.758 21.565,1.642 21.696,1.574C21.816,1.513 21.92,1.511 24.646,1.512C26.2,1.513 28.124,1.528 28.922,1.545C29.719,1.561 31.517,1.586 32.917,1.598L35.463,1.622L35.463,1.765L31.355,1.787C24.399,1.824 22.033,1.817 21.985,1.76C21.95,1.718 21.933,1.718 21.848,1.762C21.722,1.827 21.49,2.073 21.49,2.142C21.49,2.172 21.468,2.249 21.441,2.314C21.414,2.38 21.391,2.526 21.391,2.64C21.391,2.754 21.38,2.862 21.366,2.88C21.353,2.898 21.209,2.915 21.046,2.917C20.096,2.93 19.667,2.957 19.639,3.007C19.602,3.072 19.312,3.211 19.085,3.272C18.985,3.299 18.844,3.34 18.772,3.363C18.68,3.392 18.402,3.405 17.865,3.404C17.125,3.404 17.075,3.4 16.712,3.31C16.504,3.258 16.326,3.207 16.317,3.196C16.282,3.154 16.15,3.094 16.094,3.094C16.061,3.094 15.916,3.044 15.772,2.984C15.615,2.918 15.416,2.863 15.279,2.848C14.892,2.806 12.195,2.81 11.703,2.854C10.929,2.923 10.575,2.967 10.275,3.031C10.115,3.066 9.942,3.094 9.89,3.094C9.838,3.094 9.786,3.109 9.775,3.127C9.764,3.145 9.71,3.16 9.656,3.16C9.601,3.16 9.524,3.177 9.485,3.199C9.445,3.22 9.339,3.256 9.248,3.279C9.031,3.335 8.754,3.435 8.582,3.52C8.506,3.557 8.427,3.588 8.406,3.588C8.385,3.588 8.327,3.618 8.276,3.654C8.167,3.731 8.13,3.702 8.102,3.518C8.075,3.341 7.922,3.027 7.803,2.905C7.702,2.801 7.691,2.798 7.423,2.798C7.174,2.797 7.129,2.808 6.962,2.901C6.772,3.008 6.562,3.183 6.562,3.235C6.562,3.252 6.533,3.306 6.498,3.356C6.417,3.469 6.37,3.757 6.402,3.942C6.431,4.104 6.562,4.285 6.727,4.387C6.818,4.444 6.893,4.459 7.081,4.459C7.337,4.459 7.358,4.476 7.263,4.611C7.099,4.842 6.892,5.274 6.892,5.383C6.892,5.427 6.879,5.471 6.863,5.481C6.847,5.491 6.826,5.532 6.816,5.573C6.806,5.614 6.781,5.707 6.761,5.78C6.688,6.043 6.564,6.915 6.563,7.172L6.562,7.312L6.35,7.312C6.233,7.312 6.129,7.327 6.117,7.345C6.106,7.363 6.035,7.378 5.959,7.378C5.883,7.378 5.724,7.417 5.607,7.464C5.489,7.512 5.355,7.565 5.31,7.583C5.265,7.602 5.202,7.629 5.17,7.645C5.139,7.662 5.092,7.675 5.066,7.675C5.041,7.675 4.94,7.713 4.843,7.761C4.747,7.808 4.63,7.864 4.585,7.884C4.54,7.905 4.495,7.929 4.486,7.939C4.477,7.949 4.408,7.984 4.334,8.017L4.197,8.076L4.014,7.893C3.787,7.667 3.654,7.609 3.36,7.609C3.094,7.609 2.996,7.65 2.83,7.835C2.669,8.013 2.619,8.119 2.571,8.378C2.503,8.748 2.62,9.168 2.899,9.553C3.019,9.72 3.737,10.443 3.781,10.443C3.814,10.443 3.858,10.54 3.86,10.615C3.86,10.628 3.797,10.713 3.72,10.804C3.497,11.067 3.399,11.192 3.399,11.21C3.399,11.219 3.34,11.321 3.268,11.436C3.196,11.551 3.101,11.72 3.056,11.81C2.891,12.145 2.702,12.644 2.676,12.7C2.398,13.307 1.881,15.817 1.603,17.502L1.402,17.502C1.421,17.346 1.445,17.214 1.459,17.187C1.477,17.154 1.506,16.947 1.524,16.726C1.541,16.505 1.571,16.28 1.59,16.226C1.631,16.108 1.675,15.861 1.719,15.501C1.776,15.034 1.79,14.957 1.82,14.939C1.837,14.929 1.85,14.856 1.85,14.778C1.85,14.699 1.887,14.492 1.932,14.318C1.977,14.143 2.015,13.971 2.015,13.934C2.015,13.897 2.043,13.808 2.078,13.736C2.112,13.664 2.151,13.543 2.164,13.467C2.177,13.391 2.215,13.264 2.249,13.185C2.283,13.105 2.311,13.012 2.311,12.977C2.311,12.942 2.324,12.887 2.34,12.856C2.37,12.798 2.426,12.667 2.484,12.519C2.502,12.473 2.537,12.397 2.562,12.349C2.587,12.301 2.608,12.233 2.608,12.197C2.608,12.162 2.637,12.107 2.674,12.074C2.71,12.041 2.74,11.997 2.74,11.975C2.74,11.915 3.035,11.349 3.235,11.026C3.559,10.504 3.54,10.556 3.441,10.469C3.248,10.3 2.988,10.022 2.803,9.786C2.695,9.649 2.588,9.514 2.565,9.487C2.542,9.46 2.488,9.363 2.446,9.273C2.404,9.182 2.357,9.082 2.341,9.051C2.3,8.971 2.303,8.178 2.344,8.152C2.362,8.141 2.377,8.096 2.377,8.051C2.377,8.007 2.392,7.971 2.41,7.971C2.428,7.971 2.443,7.949 2.443,7.922C2.443,7.762 2.919,7.378 3.118,7.378C3.161,7.378 3.206,7.363 3.217,7.345C3.229,7.327 3.325,7.312 3.432,7.312C3.538,7.312 3.635,7.327 3.646,7.345C3.657,7.363 3.703,7.378 3.747,7.378C3.849,7.378 4.056,7.513 4.152,7.642C4.192,7.696 4.248,7.74 4.276,7.74C4.305,7.74 4.451,7.681 4.601,7.608C4.752,7.536 4.895,7.476 4.92,7.476C4.944,7.475 4.993,7.453 5.028,7.426C5.063,7.4 5.117,7.378 5.148,7.378C5.179,7.378 5.262,7.349 5.332,7.315C5.53,7.216 5.934,7.102 6.15,7.082L6.348,7.065L6.355,6.9C6.373,6.504 6.498,5.826 6.567,5.748C6.583,5.731 6.595,5.667 6.595,5.607C6.595,5.433 6.805,4.842 6.867,4.841C6.881,4.84 6.892,4.822 6.891,4.799C6.891,4.776 6.815,4.721 6.722,4.676C6.542,4.587 6.336,4.402 6.278,4.275C6.16,4.021 6.134,3.933 6.134,3.795C6.134,3.59 6.244,3.277 6.383,3.086C6.518,2.9 6.848,2.632 6.943,2.632C6.98,2.632 7.027,2.616 7.047,2.595C7.104,2.539 7.643,2.549 7.783,2.61C7.956,2.685 8.218,2.96 8.279,3.129C8.342,3.307 8.42,3.326 8.656,3.225C8.746,3.187 8.901,3.135 9.001,3.11C9.1,3.085 9.301,3.033 9.446,2.993C9.846,2.885 9.954,2.861 10.187,2.828C10.305,2.811 10.49,2.782 10.599,2.763C11.053,2.685 11.547,2.663 13.244,2.645C14.227,2.635 15.031,2.614 15.031,2.599C15.031,2.584 14.957,2.517 14.866,2.451L14.7,2.329L13.473,2.332C12.799,2.334 12.054,2.352 11.818,2.37C11.583,2.389 11.249,2.413 11.077,2.423C10.905,2.433 10.75,2.455 10.733,2.471C10.715,2.487 10.594,2.501 10.463,2.501C10.331,2.501 10.215,2.515 10.204,2.534C10.192,2.552 10.111,2.566 10.022,2.566C9.934,2.566 9.852,2.581 9.841,2.599C9.83,2.618 9.767,2.632 9.701,2.632C9.636,2.632 9.537,2.646 9.481,2.662C9.214,2.742 8.926,2.797 8.78,2.797C8.684,2.797 8.589,2.819 8.542,2.852C8.466,2.905 8.461,2.904 8.378,2.802C8.161,2.536 8.014,2.402 7.837,2.307C7.673,2.219 7.611,2.204 7.407,2.204C7.276,2.204 7.154,2.217 7.137,2.233C7.12,2.249 7.03,2.286 6.938,2.316C6.608,2.423 6.255,2.712 6.137,2.971C5.951,3.38 5.936,3.445 5.936,3.853C5.936,4.094 5.923,4.247 5.903,4.247C5.885,4.247 5.87,4.232 5.87,4.214C5.87,4.196 5.859,4.181 5.845,4.181C5.817,4.181 5.672,4.483 5.672,4.541C5.672,4.579 5.666,4.592 5.538,4.84C5.306,5.289 4.963,5.687 4.497,6.049C4.334,6.175 4.24,6.228 3.926,6.368C3.527,6.546 2.622,6.542 2.246,6.36C2.166,6.322 2.09,6.29 2.076,6.29C2.052,6.29 1.949,6.227 1.688,6.052C1.531,5.946 1.095,5.53 1.075,5.465C1.056,5.405 0.913,5.327 0.881,5.359C0.843,5.397 0.859,12.085 0.897,12.108C0.923,12.124 0.923,12.141 0.897,12.166C0.85,12.213 0.85,12.673 0.897,12.702C0.923,12.718 0.923,12.734 0.897,12.76C0.848,12.809 0.848,13.923 0.897,13.954C0.923,13.97 0.923,13.986 0.897,14.012C0.849,14.06 0.849,14.715 0.897,14.745C0.923,14.761 0.923,14.777 0.897,14.803C0.849,14.851 0.851,15.165 0.901,15.214C0.931,15.245 0.931,15.263 0.901,15.293C0.854,15.34 0.848,15.742 0.893,15.813C0.912,15.843 0.911,15.876 0.89,15.901C0.854,15.944 0.869,16.755 0.906,16.792C0.917,16.804 0.927,16.766 0.927,16.707C0.927,16.649 0.941,16.539 0.957,16.463C0.974,16.387 1.005,16.221 1.026,16.094C1.14,15.423 1.414,14.124 1.536,13.672C1.583,13.5 1.63,13.311 1.641,13.252C1.652,13.193 1.677,13.145 1.698,13.145C1.745,13.144 1.85,12.961 1.85,12.877C1.85,12.842 1.878,12.758 1.912,12.69C1.946,12.623 1.985,12.501 1.998,12.42C2.012,12.338 2.05,12.232 2.084,12.184C2.119,12.136 2.146,12.071 2.146,12.041C2.146,12.01 2.17,11.931 2.199,11.864C2.228,11.798 2.264,11.715 2.278,11.678C2.308,11.602 2.437,11.316 2.538,11.099C2.576,11.017 2.608,10.934 2.608,10.915C2.608,10.896 2.637,10.855 2.672,10.823C2.708,10.79 2.754,10.712 2.775,10.649C2.808,10.55 2.804,10.523 2.752,10.458C2.718,10.416 2.608,10.281 2.508,10.157C2.328,9.934 2.146,9.63 2.146,9.553C2.146,9.531 2.119,9.474 2.085,9.426C2.051,9.378 2.013,9.268 2.001,9.183C1.988,9.097 1.964,9.018 1.947,9.008C1.93,8.997 1.916,8.834 1.916,8.644C1.916,8.26 1.981,7.959 2.103,7.774C2.145,7.711 2.179,7.643 2.179,7.622C2.179,7.602 2.209,7.559 2.245,7.526C2.281,7.493 2.311,7.454 2.311,7.44C2.311,7.417 2.395,7.33 2.61,7.13C2.639,7.103 2.674,7.081 2.688,7.081C2.702,7.081 2.753,7.052 2.803,7.017C3.132,6.783 3.708,6.713 4.044,6.867C4.143,6.912 4.239,6.949 4.256,6.949C4.274,6.949 4.288,6.966 4.288,6.986C4.288,7.047 4.666,6.957 4.894,6.843C4.929,6.825 5.032,6.79 5.125,6.763C5.218,6.736 5.345,6.69 5.409,6.661C5.472,6.631 5.583,6.599 5.656,6.589L5.788,6.57L5.808,6.373C5.827,6.18 5.984,5.615 6.037,5.548C6.103,5.464 6.266,5.124 6.266,5.07C6.266,5.037 6.232,4.983 6.191,4.949C6.042,4.827 5.862,4.374 5.934,4.302C5.959,4.277 5.969,4.301 5.969,4.386C5.969,4.452 5.983,4.51 5.999,4.516C6.016,4.522 6.064,4.593 6.106,4.673C6.16,4.776 6.227,4.842 6.332,4.897C6.413,4.94 6.48,4.986 6.48,4.998C6.48,5.051 6.322,5.401 6.298,5.401C6.284,5.401 6.264,5.451 6.252,5.513C6.24,5.574 6.21,5.667 6.184,5.719C6.115,5.858 6.056,6.206 6.05,6.503C6.045,6.764 6.045,6.764 5.944,6.799C5.888,6.818 5.831,6.845 5.818,6.859C5.804,6.872 5.737,6.883 5.669,6.883C5.6,6.883 5.535,6.898 5.524,6.916C5.513,6.935 5.46,6.949 5.407,6.949C5.354,6.949 5.31,6.964 5.31,6.982C5.31,7 5.266,7.015 5.213,7.015C5.16,7.015 5.107,7.03 5.096,7.048C5.085,7.066 5.043,7.082 5.003,7.082C4.963,7.083 4.857,7.12 4.766,7.164C4.676,7.209 4.581,7.245 4.557,7.246C4.533,7.246 4.471,7.275 4.421,7.311L4.329,7.377L4.208,7.295C4.001,7.154 3.834,7.081 3.72,7.081C3.659,7.081 3.593,7.065 3.573,7.045C3.552,7.023 3.477,7.015 3.393,7.025C2.976,7.075 2.732,7.189 2.456,7.465C2.302,7.619 2.242,7.718 2.079,8.086C2.006,8.252 1.98,8.564 2.015,8.851C2.035,9.01 2.065,9.155 2.082,9.172C2.099,9.189 2.113,9.223 2.113,9.247C2.113,9.32 2.339,9.756 2.474,9.943C2.626,10.155 2.955,10.508 3,10.508C3.093,10.508 3.064,10.658 2.906,10.989C2.815,11.181 2.74,11.359 2.74,11.385C2.74,11.41 2.726,11.431 2.71,11.431C2.681,11.431 2.662,11.467 2.444,11.942C2.196,12.482 1.982,13.037 1.982,13.138C1.982,13.172 1.971,13.21 1.959,13.222C1.909,13.272 1.786,13.675 1.714,14.026C1.698,14.103 1.672,14.229 1.656,14.306C1.563,14.75 1.459,15.339 1.388,15.814C1.368,15.95 1.338,16.128 1.322,16.209C1.285,16.388 1.229,16.791 1.208,17.017C1.2,17.107 1.176,17.285 1.156,17.412C1.151,17.44 1.147,17.47 1.142,17.502L0.681,17.502C0.69,16.404 0.696,14.13 0.696,11.522C0.696,4.908 0.694,4.769 0.593,4.569C0.578,4.537 0.565,4.482 0.565,4.445C0.565,4.409 0.55,4.379 0.532,4.379C0.51,4.379 0.499,6.682 0.499,11.223L0.499,17.502L0.272,17.502ZM17.454,3.128C17.444,3.111 17.413,3.105 17.387,3.115C17.318,3.141 17.326,3.16 17.406,3.16C17.443,3.16 17.465,3.145 17.454,3.128ZM17.207,3.077C17.207,3.059 17.121,3.014 17.017,2.978C16.913,2.941 16.777,2.886 16.715,2.854C16.654,2.823 16.585,2.797 16.562,2.797C16.54,2.797 16.513,2.775 16.502,2.748C16.492,2.721 16.461,2.698 16.433,2.698C16.373,2.698 16.265,2.64 16.172,2.558C16.136,2.527 16.093,2.501 16.076,2.501C16.059,2.501 15.95,2.434 15.834,2.352C15.717,2.271 15.607,2.204 15.59,2.204C15.573,2.204 15.559,2.181 15.559,2.154C15.559,2.126 15.525,2.09 15.485,2.075C15.444,2.059 15.358,1.991 15.295,1.924C15.232,1.857 15.12,1.761 15.048,1.71C14.975,1.659 14.82,1.518 14.702,1.396C14.067,0.738 13.801,0.486 13.673,0.42L13.532,0.348L6.16,0.364L6.01,0.444C5.928,0.487 5.84,0.523 5.816,0.523C5.791,0.523 5.771,0.538 5.771,0.556C5.771,0.604 13.094,0.602 13.142,0.554C13.161,0.535 13.242,0.524 13.322,0.529C13.459,0.539 13.474,0.551 13.614,0.756C13.794,1.018 13.85,1.084 14.285,1.558C14.337,1.614 14.412,1.697 14.451,1.743C14.553,1.862 14.951,2.204 14.987,2.204C15.004,2.204 15.084,2.264 15.165,2.338C15.3,2.462 15.858,2.76 16.053,2.812C16.135,2.834 16.16,2.844 16.383,2.938C16.446,2.965 16.572,2.998 16.663,3.011C16.753,3.023 16.842,3.046 16.86,3.061C16.936,3.122 17.209,3.135 17.207,3.077ZM20.231,2.078L20.405,2.066L20.517,1.843C20.649,1.581 20.77,1.429 20.901,1.362C20.953,1.335 20.996,1.298 20.996,1.28C20.996,1.26 19.917,1.248 17.981,1.249C16.322,1.249 14.966,1.262 14.966,1.277C14.966,1.335 15.169,1.558 15.332,1.68C15.425,1.749 15.525,1.829 15.555,1.856C15.584,1.884 15.66,1.952 15.723,2.008L15.839,2.11L17.948,2.1C19.108,2.095 20.135,2.085 20.231,2.078ZM2.861,5.863C2.124,5.669 1.927,5.579 1.668,5.316C1.305,4.948 1.099,4.546 1.009,4.035C0.938,3.627 0.957,3.425 1.105,3.023C1.167,2.853 1.227,2.682 1.239,2.642C1.283,2.491 1.583,2.081 1.79,1.891C2.055,1.646 2.658,1.296 3.09,1.135L3.415,1.014L8.409,1.017C11.156,1.019 13.413,1.011 13.424,0.999C13.436,0.988 13.429,0.943 13.409,0.899L13.373,0.82L9.327,0.82C6.665,0.82 5.274,0.809 5.261,0.787C5.248,0.767 4.98,0.754 4.567,0.754C4.155,0.754 3.838,0.739 3.749,0.715C3.622,0.681 3.576,0.686 3.385,0.748C3.265,0.788 3.138,0.82 3.103,0.82C3.069,0.82 3.031,0.835 3.02,0.853C3.008,0.871 2.957,0.886 2.904,0.886C2.852,0.886 2.8,0.901 2.789,0.919C2.778,0.937 2.733,0.952 2.69,0.952C2.613,0.952 2.226,1.102 2.165,1.155C2.147,1.17 2.113,1.182 2.089,1.182C2.065,1.182 2.027,1.198 2.005,1.216C1.912,1.294 1.655,1.479 1.639,1.479C1.602,1.479 1.299,1.8 1.202,1.94C1.071,2.132 0.927,2.418 0.927,2.486C0.927,2.516 0.899,2.579 0.865,2.627C0.797,2.724 0.696,3.174 0.696,3.383C0.696,3.457 0.683,3.552 0.668,3.594C0.625,3.706 0.685,4.326 0.762,4.577C0.887,4.981 1.241,5.419 1.685,5.719C1.871,5.845 2.149,5.934 2.641,6.025C2.74,6.044 2.852,6.065 2.888,6.072C3.006,6.095 3.039,6.093 3.103,6.059C3.117,6.052 3.505,6.01 3.515,6.007C4.672,5.707 4.922,5.305 5.52,4.451L5.508,4.444C5.508,4.413 5.54,4.293 5.58,4.177C5.649,3.977 5.653,3.903 5.665,2.676C5.673,1.773 5.666,1.364 5.641,1.316C5.6,1.241 5.424,1.22 5.401,1.288C5.394,1.31 5.416,1.448 5.451,1.593C5.506,1.822 5.515,1.983 5.516,2.764C5.516,3.534 5.508,3.703 5.458,3.885C5.425,4.002 5.392,4.217 5.384,4.362C5.211,4.635 5.018,4.88 4.799,5.089C4.748,5.113 4.674,5.17 4.566,5.266C4.455,5.365 4.282,5.486 4.165,5.55C4.155,5.555 4.146,5.56 4.136,5.565C4.127,5.569 4.118,5.574 4.11,5.578C3.751,5.756 3.339,5.857 2.861,5.863ZM3.432,6.257C3.432,6.238 3.329,6.224 3.19,6.224C3.029,6.224 2.882,6.201 2.753,6.156C2.646,6.118 2.484,6.075 2.394,6.061C2.325,6.05 2.234,6.027 2.163,6.004C2.14,5.996 2.119,5.988 2.101,5.981C1.956,5.921 1.916,5.915 1.916,5.957C1.916,6.002 2.24,6.144 2.453,6.192C2.558,6.216 2.651,6.248 2.661,6.263C2.685,6.303 3.432,6.297 3.432,6.257ZM8.375,2.54C8.375,2.501 8.246,2.369 8.209,2.369C8.157,2.369 8.172,2.411 8.251,2.489C8.329,2.566 8.375,2.585 8.375,2.54ZM6.1,2.849C6.284,2.491 6.762,2.114 7.139,2.031C7.605,1.928 8.06,2.064 8.421,2.415L8.587,2.577L8.771,2.539C8.873,2.518 9.002,2.501 9.059,2.501C9.115,2.501 9.171,2.486 9.182,2.468C9.193,2.449 9.25,2.435 9.308,2.435C9.366,2.435 9.462,2.421 9.521,2.404C9.581,2.387 9.84,2.356 10.098,2.335C10.355,2.315 10.64,2.279 10.731,2.255C11.343,2.095 11.351,2.094 12.263,2.067C13.798,2.021 14.306,2 14.306,1.983C14.306,1.974 14.249,1.905 14.179,1.83C14.109,1.755 13.97,1.597 13.872,1.479L13.692,1.265L9.826,1.256C6.998,1.25 5.948,1.258 5.915,1.285C5.879,1.315 5.874,1.461 5.888,2.051C5.909,2.873 5.921,2.995 5.982,2.995C6.005,2.995 6.058,2.929 6.1,2.849ZM18.902,2.96C18.922,2.94 18.729,2.929 18.376,2.929C18.03,2.929 17.831,2.941 17.851,2.96C17.868,2.977 17.949,2.997 18.03,3.006C18.253,3.028 18.866,2.996 18.902,2.96Z"/>
    </g>
    <g id="path11" serif:id="path1" transform="matrix(1,0,0,-1,-0.211566,34.8422)">
        <path d="M0.272,17.502C0.273,17.5 0.274,17.498 0.275,17.496C0.331,17.382 0.334,17.264 0.318,15.482C0.308,14.441 0.287,11.573 0.27,9.108C0.253,6.643 0.229,4.434 0.218,4.199C0.206,3.935 0.211,3.747 0.231,3.705C0.25,3.668 0.271,3.563 0.28,3.473C0.316,3.07 0.436,2.702 0.726,2.112C0.874,1.81 1.846,0.952 2.039,0.952C2.062,0.952 2.08,0.937 2.08,0.919C2.08,0.901 2.11,0.886 2.147,0.886C2.183,0.886 2.239,0.873 2.27,0.857C2.338,0.824 2.511,0.762 2.674,0.714C2.902,0.647 3.367,0.616 4.369,0.602L5.389,0.587L5.505,0.498C5.687,0.358 5.901,0.227 5.947,0.227C5.97,0.227 6.004,0.212 6.022,0.194C6.067,0.148 13.614,0.148 13.66,0.193C13.678,0.212 13.72,0.227 13.753,0.227C13.836,0.227 13.935,0.288 14.091,0.434C14.186,0.522 14.243,0.552 14.29,0.539C14.326,0.528 14.408,0.506 14.471,0.49C14.539,0.472 18.903,0.469 25.025,0.481L35.463,0.502L35.463,0.82L24.967,0.82C18.275,0.82 14.471,0.832 14.471,0.852C14.471,0.869 14.503,0.913 14.542,0.95C14.612,1.015 14.656,1.016 17.84,1.017L21.067,1.018L21.166,1.117C21.298,1.249 21.282,1.341 21.117,1.397C20.937,1.459 20.838,1.61 20.745,1.967C20.682,2.211 20.626,2.293 20.503,2.319C20.448,2.331 20.39,2.364 20.375,2.393C20.349,2.439 20.209,2.442 19.097,2.423C18.411,2.411 17.585,2.392 17.262,2.381C16.626,2.359 16.514,2.381 16.707,2.491C16.764,2.524 16.811,2.567 16.811,2.588C16.811,2.649 18.025,2.675 19.638,2.649C20.541,2.634 21.127,2.612 21.153,2.592C21.176,2.573 21.194,2.485 21.194,2.388C21.194,2.228 21.224,2.143 21.372,1.882C21.443,1.758 21.565,1.642 21.696,1.574C21.816,1.513 21.92,1.511 24.646,1.512C26.2,1.513 28.124,1.528 28.922,1.545C29.719,1.561 31.517,1.586 32.917,1.598L35.463,1.622L35.463,1.765L31.355,1.787C24.399,1.824 22.033,1.817 21.985,1.76C21.95,1.718 21.933,1.718 21.848,1.762C21.722,1.827 21.49,2.073 21.49,2.142C21.49,2.172 21.468,2.249 21.441,2.314C21.414,2.38 21.391,2.526 21.391,2.64C21.391,2.754 21.38,2.862 21.366,2.88C21.353,2.898 21.209,2.915 21.046,2.917C20.096,2.93 19.667,2.957 19.639,3.007C19.602,3.072 19.312,3.211 19.085,3.272C18.985,3.299 18.844,3.34 18.772,3.363C18.68,3.392 18.402,3.405 17.865,3.404C17.125,3.404 17.075,3.4 16.712,3.31C16.504,3.258 16.326,3.207 16.317,3.196C16.282,3.154 16.15,3.094 16.094,3.094C16.061,3.094 15.916,3.044 15.772,2.984C15.615,2.918 15.416,2.863 15.279,2.848C14.892,2.806 12.195,2.81 11.703,2.854C10.929,2.923 10.575,2.967 10.275,3.031C10.115,3.066 9.942,3.094 9.89,3.094C9.838,3.094 9.786,3.109 9.775,3.127C9.764,3.145 9.71,3.16 9.656,3.16C9.601,3.16 9.524,3.177 9.485,3.199C9.445,3.22 9.339,3.256 9.248,3.279C9.031,3.335 8.754,3.435 8.582,3.52C8.506,3.557 8.427,3.588 8.406,3.588C8.385,3.588 8.327,3.618 8.276,3.654C8.167,3.731 8.13,3.702 8.102,3.518C8.075,3.341 7.922,3.027 7.803,2.905C7.702,2.801 7.691,2.798 7.423,2.798C7.174,2.797 7.129,2.808 6.962,2.901C6.772,3.008 6.562,3.183 6.562,3.235C6.562,3.252 6.533,3.306 6.498,3.356C6.417,3.469 6.37,3.757 6.402,3.942C6.431,4.104 6.562,4.285 6.727,4.387C6.818,4.444 6.893,4.459 7.081,4.459C7.337,4.459 7.358,4.476 7.263,4.611C7.099,4.842 6.892,5.274 6.892,5.383C6.892,5.427 6.879,5.471 6.863,5.481C6.847,5.491 6.826,5.532 6.816,5.573C6.806,5.614 6.781,5.707 6.761,5.78C6.688,6.043 6.564,6.915 6.563,7.172L6.562,7.312L6.35,7.312C6.233,7.312 6.129,7.327 6.117,7.345C6.106,7.363 6.035,7.378 5.959,7.378C5.883,7.378 5.724,7.417 5.607,7.464C5.489,7.512 5.355,7.565 5.31,7.583C5.265,7.602 5.202,7.629 5.17,7.645C5.139,7.662 5.092,7.675 5.066,7.675C5.041,7.675 4.94,7.713 4.843,7.761C4.747,7.808 4.63,7.864 4.585,7.884C4.54,7.905 4.495,7.929 4.486,7.939C4.477,7.949 4.408,7.984 4.334,8.017L4.197,8.076L4.014,7.893C3.787,7.667 3.654,7.609 3.36,7.609C3.094,7.609 2.996,7.65 2.83,7.835C2.669,8.013 2.619,8.119 2.571,8.378C2.503,8.748 2.62,9.168 2.899,9.553C3.019,9.72 3.737,10.443 3.781,10.443C3.814,10.443 3.858,10.54 3.86,10.615C3.86,10.628 3.797,10.713 3.72,10.804C3.497,11.067 3.399,11.192 3.399,11.21C3.399,11.219 3.34,11.321 3.268,11.436C3.196,11.551 3.101,11.72 3.056,11.81C2.891,12.145 2.702,12.644 2.676,12.7C2.398,13.307 1.881,15.817 1.603,17.502L1.402,17.502C1.421,17.346 1.445,17.214 1.459,17.187C1.477,17.154 1.506,16.947 1.524,16.726C1.541,16.505 1.571,16.28 1.59,16.226C1.631,16.108 1.675,15.861 1.719,15.501C1.776,15.034 1.79,14.957 1.82,14.939C1.837,14.929 1.85,14.856 1.85,14.778C1.85,14.699 1.887,14.492 1.932,14.318C1.977,14.143 2.015,13.971 2.015,13.934C2.015,13.897 2.043,13.808 2.078,13.736C2.112,13.664 2.151,13.543 2.164,13.467C2.177,13.391 2.215,13.264 2.249,13.185C2.283,13.105 2.311,13.012 2.311,12.977C2.311,12.942 2.324,12.887 2.34,12.856C2.37,12.798 2.426,12.667 2.484,12.519C2.502,12.473 2.537,12.397 2.562,12.349C2.587,12.301 2.608,12.233 2.608,12.197C2.608,12.162 2.637,12.107 2.674,12.074C2.71,12.041 2.74,11.997 2.74,11.975C2.74,11.915 3.035,11.349 3.235,11.026C3.559,10.504 3.54,10.556 3.441,10.469C3.248,10.3 2.988,10.022 2.803,9.786C2.695,9.649 2.588,9.514 2.565,9.487C2.542,9.46 2.488,9.363 2.446,9.273C2.404,9.182 2.357,9.082 2.341,9.051C2.3,8.971 2.303,8.178 2.344,8.152C2.362,8.141 2.377,8.096 2.377,8.051C2.377,8.007 2.392,7.971 2.41,7.971C2.428,7.971 2.443,7.949 2.443,7.922C2.443,7.762 2.919,7.378 3.118,7.378C3.161,7.378 3.206,7.363 3.217,7.345C3.229,7.327 3.325,7.312 3.432,7.312C3.538,7.312 3.635,7.327 3.646,7.345C3.657,7.363 3.703,7.378 3.747,7.378C3.849,7.378 4.056,7.513 4.152,7.642C4.192,7.696 4.248,7.74 4.276,7.74C4.305,7.74 4.451,7.681 4.601,7.608C4.752,7.536 4.895,7.476 4.92,7.476C4.944,7.475 4.993,7.453 5.028,7.426C5.063,7.4 5.117,7.378 5.148,7.378C5.179,7.378 5.262,7.349 5.332,7.315C5.53,7.216 5.934,7.102 6.15,7.082L6.348,7.065L6.355,6.9C6.373,6.504 6.498,5.826 6.567,5.748C6.583,5.731 6.595,5.667 6.595,5.607C6.595,5.433 6.805,4.842 6.867,4.841C6.881,4.84 6.892,4.822 6.891,4.799C6.891,4.776 6.815,4.721 6.722,4.676C6.542,4.587 6.336,4.402 6.278,4.275C6.16,4.021 6.134,3.933 6.134,3.795C6.134,3.59 6.244,3.277 6.383,3.086C6.518,2.9 6.848,2.632 6.943,2.632C6.98,2.632 7.027,2.616 7.047,2.595C7.104,2.539 7.643,2.549 7.783,2.61C7.956,2.685 8.218,2.96 8.279,3.129C8.342,3.307 8.42,3.326 8.656,3.225C8.746,3.187 8.901,3.135 9.001,3.11C9.1,3.085 9.301,3.033 9.446,2.993C9.846,2.885 9.954,2.861 10.187,2.828C10.305,2.811 10.49,2.782 10.599,2.763C11.053,2.685 11.547,2.663 13.244,2.645C14.227,2.635 15.031,2.614 15.031,2.599C15.031,2.584 14.957,2.517 14.866,2.451L14.7,2.329L13.473,2.332C12.799,2.334 12.054,2.352 11.818,2.37C11.583,2.389 11.249,2.413 11.077,2.423C10.905,2.433 10.75,2.455 10.733,2.471C10.715,2.487 10.594,2.501 10.463,2.501C10.331,2.501 10.215,2.515 10.204,2.534C10.192,2.552 10.111,2.566 10.022,2.566C9.934,2.566 9.852,2.581 9.841,2.599C9.83,2.618 9.767,2.632 9.701,2.632C9.636,2.632 9.537,2.646 9.481,2.662C9.214,2.742 8.926,2.797 8.78,2.797C8.684,2.797 8.589,2.819 8.542,2.852C8.466,2.905 8.461,2.904 8.378,2.802C8.161,2.536 8.014,2.402 7.837,2.307C7.673,2.219 7.611,2.204 7.407,2.204C7.276,2.204 7.154,2.217 7.137,2.233C7.12,2.249 7.03,2.286 6.938,2.316C6.608,2.423 6.255,2.712 6.137,2.971C5.951,3.38 5.936,3.445 5.936,3.853C5.936,4.094 5.923,4.247 5.903,4.247C5.885,4.247 5.87,4.232 5.87,4.214C5.87,4.196 5.859,4.181 5.845,4.181C5.817,4.181 5.672,4.483 5.672,4.541C5.672,4.579 5.666,4.592 5.538,4.84C5.306,5.289 4.963,5.687 4.497,6.049C4.334,6.175 4.24,6.228 3.926,6.368C3.527,6.546 2.622,6.542 2.246,6.36C2.166,6.322 2.09,6.29 2.076,6.29C2.052,6.29 1.949,6.227 1.688,6.052C1.531,5.946 1.095,5.53 1.075,5.465C1.056,5.405 0.913,5.327 0.881,5.359C0.843,5.397 0.859,12.085 0.897,12.108C0.923,12.124 0.923,12.141 0.897,12.166C0.85,12.213 0.85,12.673 0.897,12.702C0.923,12.718 0.923,12.734 0.897,12.76C0.848,12.809 0.848,13.923 0.897,13.954C0.923,13.97 0.923,13.986 0.897,14.012C0.849,14.06 0.849,14.715 0.897,14.745C0.923,14.761 0.923,14.777 0.897,14.803C0.849,14.851 0.851,15.165 0.901,15.214C0.931,15.245 0.931,15.263 0.901,15.293C0.854,15.34 0.848,15.742 0.893,15.813C0.912,15.843 0.911,15.876 0.89,15.901C0.854,15.944 0.869,16.755 0.906,16.792C0.917,16.804 0.927,16.766 0.927,16.707C0.927,16.649 0.941,16.539 0.957,16.463C0.974,16.387 1.005,16.221 1.026,16.094C1.14,15.423 1.414,14.124 1.536,13.672C1.583,13.5 1.63,13.311 1.641,13.252C1.652,13.193 1.677,13.145 1.698,13.145C1.745,13.144 1.85,12.961 1.85,12.877C1.85,12.842 1.878,12.758 1.912,12.69C1.946,12.623 1.985,12.501 1.998,12.42C2.012,12.338 2.05,12.232 2.084,12.184C2.119,12.136 2.146,12.071 2.146,12.041C2.146,12.01 2.17,11.931 2.199,11.864C2.228,11.798 2.264,11.715 2.278,11.678C2.308,11.602 2.437,11.316 2.538,11.099C2.576,11.017 2.608,10.934 2.608,10.915C2.608,10.896 2.637,10.855 2.672,10.823C2.708,10.79 2.754,10.712 2.775,10.649C2.808,10.55 2.804,10.523 2.752,10.458C2.718,10.416 2.608,10.281 2.508,10.157C2.328,9.934 2.146,9.63 2.146,9.553C2.146,9.531 2.119,9.474 2.085,9.426C2.051,9.378 2.013,9.268 2.001,9.183C1.988,9.097 1.964,9.018 1.947,9.008C1.93,8.997 1.916,8.834 1.916,8.644C1.916,8.26 1.981,7.959 2.103,7.774C2.145,7.711 2.179,7.643 2.179,7.622C2.179,7.602 2.209,7.559 2.245,7.526C2.281,7.493 2.311,7.454 2.311,7.44C2.311,7.417 2.395,7.33 2.61,7.13C2.639,7.103 2.674,7.081 2.688,7.081C2.702,7.081 2.753,7.052 2.803,7.017C3.132,6.783 3.708,6.713 4.044,6.867C4.143,6.912 4.239,6.949 4.256,6.949C4.274,6.949 4.288,6.966 4.288,6.986C4.288,7.047 4.666,6.957 4.894,6.843C4.929,6.825 5.032,6.79 5.125,6.763C5.218,6.736 5.345,6.69 5.409,6.661C5.472,6.631 5.583,6.599 5.656,6.589L5.788,6.57L5.808,6.373C5.827,6.18 5.984,5.615 6.037,5.548C6.103,5.464 6.266,5.124 6.266,5.07C6.266,5.037 6.232,4.983 6.191,4.949C6.042,4.827 5.862,4.374 5.934,4.302C5.959,4.277 5.969,4.301 5.969,4.386C5.969,4.452 5.983,4.51 5.999,4.516C6.016,4.522 6.064,4.593 6.106,4.673C6.16,4.776 6.227,4.842 6.332,4.897C6.413,4.94 6.48,4.986 6.48,4.998C6.48,5.051 6.322,5.401 6.298,5.401C6.284,5.401 6.264,5.451 6.252,5.513C6.24,5.574 6.21,5.667 6.184,5.719C6.115,5.858 6.056,6.206 6.05,6.503C6.045,6.764 6.045,6.764 5.944,6.799C5.888,6.818 5.831,6.845 5.818,6.859C5.804,6.872 5.737,6.883 5.669,6.883C5.6,6.883 5.535,6.898 5.524,6.916C5.513,6.935 5.46,6.949 5.407,6.949C5.354,6.949 5.31,6.964 5.31,6.982C5.31,7 5.266,7.015 5.213,7.015C5.16,7.015 5.107,7.03 5.096,7.048C5.085,7.066 5.043,7.082 5.003,7.082C4.963,7.083 4.857,7.12 4.766,7.164C4.676,7.209 4.581,7.245 4.557,7.246C4.533,7.246 4.471,7.275 4.421,7.311L4.329,7.377L4.208,7.295C4.001,7.154 3.834,7.081 3.72,7.081C3.659,7.081 3.593,7.065 3.573,7.045C3.552,7.023 3.477,7.015 3.393,7.025C2.976,7.075 2.732,7.189 2.456,7.465C2.302,7.619 2.242,7.718 2.079,8.086C2.006,8.252 1.98,8.564 2.015,8.851C2.035,9.01 2.065,9.155 2.082,9.172C2.099,9.189 2.113,9.223 2.113,9.247C2.113,9.32 2.339,9.756 2.474,9.943C2.626,10.155 2.955,10.508 3,10.508C3.093,10.508 3.064,10.658 2.906,10.989C2.815,11.181 2.74,11.359 2.74,11.385C2.74,11.41 2.726,11.431 2.71,11.431C2.681,11.431 2.662,11.467 2.444,11.942C2.196,12.482 1.982,13.037 1.982,13.138C1.982,13.172 1.971,13.21 1.959,13.222C1.909,13.272 1.786,13.675 1.714,14.026C1.698,14.103 1.672,14.229 1.656,14.306C1.563,14.75 1.459,15.339 1.388,15.814C1.368,15.95 1.338,16.128 1.322,16.209C1.285,16.388 1.229,16.791 1.208,17.017C1.2,17.107 1.176,17.285 1.156,17.412C1.151,17.44 1.147,17.47 1.142,17.502L0.681,17.502C0.69,16.404 0.696,14.13 0.696,11.522C0.696,4.908 0.694,4.769 0.593,4.569C0.578,4.537 0.565,4.482 0.565,4.445C0.565,4.409 0.55,4.379 0.532,4.379C0.51,4.379 0.499,6.682 0.499,11.223L0.499,17.502L0.272,17.502ZM17.454,3.128C17.444,3.111 17.413,3.105 17.387,3.115C17.318,3.141 17.326,3.16 17.406,3.16C17.443,3.16 17.465,3.145 17.454,3.128ZM17.207,3.077C17.207,3.059 17.121,3.014 17.017,2.978C16.913,2.941 16.777,2.886 16.715,2.854C16.654,2.823 16.585,2.797 16.562,2.797C16.54,2.797 16.513,2.775 16.502,2.748C16.492,2.721 16.461,2.698 16.433,2.698C16.373,2.698 16.265,2.64 16.172,2.558C16.136,2.527 16.093,2.501 16.076,2.501C16.059,2.501 15.95,2.434 15.834,2.352C15.717,2.271 15.607,2.204 15.59,2.204C15.573,2.204 15.559,2.181 15.559,2.154C15.559,2.126 15.525,2.09 15.485,2.075C15.444,2.059 15.358,1.991 15.295,1.924C15.232,1.857 15.12,1.761 15.048,1.71C14.975,1.659 14.82,1.518 14.702,1.396C14.067,0.738 13.801,0.486 13.673,0.42L13.532,0.348L6.16,0.364L6.01,0.444C5.928,0.487 5.84,0.523 5.816,0.523C5.791,0.523 5.771,0.538 5.771,0.556C5.771,0.604 13.094,0.602 13.142,0.554C13.161,0.535 13.242,0.524 13.322,0.529C13.459,0.539 13.474,0.551 13.614,0.756C13.794,1.018 13.85,1.084 14.285,1.558C14.337,1.614 14.412,1.697 14.451,1.743C14.553,1.862 14.951,2.204 14.987,2.204C15.004,2.204 15.084,2.264 15.165,2.338C15.3,2.462 15.858,2.76 16.053,2.812C16.135,2.834 16.16,2.844 16.383,2.938C16.446,2.965 16.572,2.998 16.663,3.011C16.753,3.023 16.842,3.046 16.86,3.061C16.936,3.122 17.209,3.135 17.207,3.077ZM20.231,2.078L20.405,2.066L20.517,1.843C20.649,1.581 20.77,1.429 20.901,1.362C20.953,1.335 20.996,1.298 20.996,1.28C20.996,1.26 19.917,1.248 17.981,1.249C16.322,1.249 14.966,1.262 14.966,1.277C14.966,1.335 15.169,1.558 15.332,1.68C15.425,1.749 15.525,1.829 15.555,1.856C15.584,1.884 15.66,1.952 15.723,2.008L15.839,2.11L17.948,2.1C19.108,2.095 20.135,2.085 20.231,2.078ZM2.861,5.863C2.124,5.669 1.927,5.579 1.668,5.316C1.305,4.948 1.099,4.546 1.009,4.035C0.938,3.627 0.957,3.425 1.105,3.023C1.167,2.853 1.227,2.682 1.239,2.642C1.283,2.491 1.583,2.081 1.79,1.891C2.055,1.646 2.658,1.296 3.09,1.135L3.415,1.014L8.409,1.017C11.156,1.019 13.413,1.011 13.424,0.999C13.436,0.988 13.429,0.943 13.409,0.899L13.373,0.82L9.327,0.82C6.665,0.82 5.274,0.809 5.261,0.787C5.248,0.767 4.98,0.754 4.567,0.754C4.155,0.754 3.838,0.739 3.749,0.715C3.622,0.681 3.576,0.686 3.385,0.748C3.265,0.788 3.138,0.82 3.103,0.82C3.069,0.82 3.031,0.835 3.02,0.853C3.008,0.871 2.957,0.886 2.904,0.886C2.852,0.886 2.8,0.901 2.789,0.919C2.778,0.937 2.733,0.952 2.69,0.952C2.613,0.952 2.226,1.102 2.165,1.155C2.147,1.17 2.113,1.182 2.089,1.182C2.065,1.182 2.027,1.198 2.005,1.216C1.912,1.294 1.655,1.479 1.639,1.479C1.602,1.479 1.299,1.8 1.202,1.94C1.071,2.132 0.927,2.418 0.927,2.486C0.927,2.516 0.899,2.579 0.865,2.627C0.797,2.724 0.696,3.174 0.696,3.383C0.696,3.457 0.683,3.552 0.668,3.594C0.625,3.706 0.685,4.326 0.762,4.577C0.887,4.981 1.241,5.419 1.685,5.719C1.871,5.845 2.149,5.934 2.641,6.025C2.74,6.044 2.852,6.065 2.888,6.072C3.006,6.095 3.039,6.093 3.103,6.059C3.117,6.052 3.505,6.01 3.515,6.007C4.672,5.707 4.922,5.305 5.52,4.451L5.508,4.444C5.508,4.413 5.54,4.293 5.58,4.177C5.649,3.977 5.653,3.903 5.665,2.676C5.673,1.773 5.666,1.364 5.641,1.316C5.6,1.241 5.424,1.22 5.401,1.288C5.394,1.31 5.416,1.448 5.451,1.593C5.506,1.822 5.515,1.983 5.516,2.764C5.516,3.534 5.508,3.703 5.458,3.885C5.425,4.002 5.392,4.217 5.384,4.362C5.211,4.635 5.018,4.88 4.799,5.089C4.748,5.113 4.674,5.17 4.566,5.266C4.455,5.365 4.282,5.486 4.165,5.55C4.155,5.555 4.146,5.56 4.136,5.565C4.127,5.569 4.118,5.574 4.11,5.578C3.751,5.756 3.339,5.857 2.861,5.863ZM3.432,6.257C3.432,6.238 3.329,6.224 3.19,6.224C3.029,6.224 2.882,6.201 2.753,6.156C2.646,6.118 2.484,6.075 2.394,6.061C2.325,6.05 2.234,6.027 2.163,6.004C2.14,5.996 2.119,5.988 2.101,5.981C1.956,5.921 1.916,5.915 1.916,5.957C1.916,6.002 2.24,6.144 2.453,6.192C2.558,6.216 2.651,6.248 2.661,6.263C2.685,6.303 3.432,6.297 3.432,6.257ZM8.375,2.54C8.375,2.501 8.246,2.369 8.209,2.369C8.157,2.369 8.172,2.411 8.251,2.489C8.329,2.566 8.375,2.585 8.375,2.54ZM6.1,2.849C6.284,2.491 6.762,2.114 7.139,2.031C7.605,1.928 8.06,2.064 8.421,2.415L8.587,2.577L8.771,2.539C8.873,2.518 9.002,2.501 9.059,2.501C9.115,2.501 9.171,2.486 9.182,2.468C9.193,2.449 9.25,2.435 9.308,2.435C9.366,2.435 9.462,2.421 9.521,2.404C9.581,2.387 9.84,2.356 10.098,2.335C10.355,2.315 10.64,2.279 10.731,2.255C11.343,2.095 11.351,2.094 12.263,2.067C13.798,2.021 14.306,2 14.306,1.983C14.306,1.974 14.249,1.905 14.179,1.83C14.109,1.755 13.97,1.597 13.872,1.479L13.692,1.265L9.826,1.256C6.998,1.25 5.948,1.258 5.915,1.285C5.879,1.315 5.874,1.461 5.888,2.051C5.909,2.873 5.921,2.995 5.982,2.995C6.005,2.995 6.058,2.929 6.1,2.849ZM18.902,2.96C18.922,2.94 18.729,2.929 18.376,2.929C18.03,2.929 17.831,2.941 17.851,2.96C17.868,2.977 17.949,2.997 18.03,3.006C18.253,3.028 18.866,2.996 18.902,2.96Z"/>
    </g>
    <g id="path12" serif:id="path1" transform="matrix(-1,0,0,1,101.178,-0.159439)">
        <path d="M0.272,17.502C0.273,17.5 0.274,17.498 0.275,17.496C0.331,17.382 0.334,17.264 0.318,15.482C0.308,14.441 0.287,11.573 0.27,9.108C0.253,6.643 0.229,4.434 0.218,4.199C0.206,3.935 0.211,3.747 0.231,3.705C0.25,3.668 0.271,3.563 0.28,3.473C0.316,3.07 0.436,2.702 0.726,2.112C0.874,1.81 1.846,0.952 2.039,0.952C2.062,0.952 2.08,0.937 2.08,0.919C2.08,0.901 2.11,0.886 2.147,0.886C2.183,0.886 2.239,0.873 2.27,0.857C2.338,0.824 2.511,0.762 2.674,0.714C2.902,0.647 3.367,0.616 4.369,0.602L5.389,0.587L5.505,0.498C5.687,0.358 5.901,0.227 5.947,0.227C5.97,0.227 6.004,0.212 6.022,0.194C6.067,0.148 13.614,0.148 13.66,0.193C13.678,0.212 13.72,0.227 13.753,0.227C13.836,0.227 13.935,0.288 14.091,0.434C14.186,0.522 14.243,0.552 14.29,0.539C14.326,0.528 14.408,0.506 14.471,0.49C14.539,0.472 18.903,0.469 25.025,0.481L65.927,0.502L65.927,0.82L24.967,0.82C18.275,0.82 14.471,0.832 14.471,0.852C14.471,0.869 14.503,0.913 14.542,0.95C14.612,1.015 14.656,1.016 17.84,1.017L21.067,1.018L21.166,1.117C21.298,1.249 21.282,1.341 21.117,1.397C20.937,1.459 20.838,1.61 20.745,1.967C20.682,2.211 20.626,2.293 20.503,2.319C20.448,2.331 20.39,2.364 20.375,2.393C20.349,2.439 20.209,2.442 19.097,2.423C18.411,2.411 17.585,2.392 17.262,2.381C16.626,2.359 16.514,2.381 16.707,2.491C16.764,2.524 16.811,2.567 16.811,2.588C16.811,2.649 18.025,2.675 19.638,2.649C20.541,2.634 21.127,2.612 21.153,2.592C21.176,2.573 21.194,2.485 21.194,2.388C21.194,2.228 21.224,2.143 21.372,1.882C21.443,1.758 21.565,1.642 21.696,1.574C21.816,1.513 21.92,1.511 24.646,1.512C26.2,1.513 28.124,1.528 28.922,1.545C29.719,1.561 31.517,1.586 32.917,1.598L65.927,1.622L65.927,1.765L31.355,1.787C24.399,1.824 22.033,1.817 21.985,1.76C21.95,1.718 21.933,1.718 21.848,1.762C21.722,1.827 21.49,2.073 21.49,2.142C21.49,2.172 21.468,2.249 21.441,2.314C21.414,2.38 21.391,2.526 21.391,2.64C21.391,2.754 21.38,2.862 21.366,2.88C21.353,2.898 21.209,2.915 21.046,2.917C20.096,2.93 19.667,2.957 19.639,3.007C19.602,3.072 19.312,3.211 19.085,3.272C18.985,3.299 18.844,3.34 18.772,3.363C18.68,3.392 18.402,3.405 17.865,3.404C17.125,3.404 17.075,3.4 16.712,3.31C16.504,3.258 16.326,3.207 16.317,3.196C16.282,3.154 16.15,3.094 16.094,3.094C16.061,3.094 15.916,3.044 15.772,2.984C15.615,2.918 15.416,2.863 15.279,2.848C14.892,2.806 12.195,2.81 11.703,2.854C10.929,2.923 10.575,2.967 10.275,3.031C10.115,3.066 9.942,3.094 9.89,3.094C9.838,3.094 9.786,3.109 9.775,3.127C9.764,3.145 9.71,3.16 9.656,3.16C9.601,3.16 9.524,3.177 9.485,3.199C9.445,3.22 9.339,3.256 9.248,3.279C9.031,3.335 8.754,3.435 8.582,3.52C8.506,3.557 8.427,3.588 8.406,3.588C8.385,3.588 8.327,3.618 8.276,3.654C8.167,3.731 8.13,3.702 8.102,3.518C8.075,3.341 7.922,3.027 7.803,2.905C7.702,2.801 7.691,2.798 7.423,2.798C7.174,2.797 7.129,2.808 6.962,2.901C6.772,3.008 6.562,3.183 6.562,3.235C6.562,3.252 6.533,3.306 6.498,3.356C6.417,3.469 6.37,3.757 6.402,3.942C6.431,4.104 6.562,4.285 6.727,4.387C6.818,4.444 6.893,4.459 7.081,4.459C7.337,4.459 7.358,4.476 7.263,4.611C7.099,4.842 6.892,5.274 6.892,5.383C6.892,5.427 6.879,5.471 6.863,5.481C6.847,5.491 6.826,5.532 6.816,5.573C6.806,5.614 6.781,5.707 6.761,5.78C6.688,6.043 6.564,6.915 6.563,7.172L6.562,7.312L6.35,7.312C6.233,7.312 6.129,7.327 6.117,7.345C6.106,7.363 6.035,7.378 5.959,7.378C5.883,7.378 5.724,7.417 5.607,7.464C5.489,7.512 5.355,7.565 5.31,7.583C5.265,7.602 5.202,7.629 5.17,7.645C5.139,7.662 5.092,7.675 5.066,7.675C5.041,7.675 4.94,7.713 4.843,7.761C4.747,7.808 4.63,7.864 4.585,7.884C4.54,7.905 4.495,7.929 4.486,7.939C4.477,7.949 4.408,7.984 4.334,8.017L4.197,8.076L4.014,7.893C3.787,7.667 3.654,7.609 3.36,7.609C3.094,7.609 2.996,7.65 2.83,7.835C2.669,8.013 2.619,8.119 2.571,8.378C2.503,8.748 2.62,9.168 2.899,9.553C3.019,9.72 3.737,10.443 3.781,10.443C3.814,10.443 3.858,10.54 3.86,10.615C3.86,10.628 3.797,10.713 3.72,10.804C3.497,11.067 3.399,11.192 3.399,11.21C3.399,11.219 3.34,11.321 3.268,11.436C3.196,11.551 3.101,11.72 3.056,11.81C2.891,12.145 2.702,12.644 2.676,12.7C2.398,13.307 1.881,15.817 1.603,17.502L1.402,17.502C1.421,17.346 1.445,17.214 1.459,17.187C1.477,17.154 1.506,16.947 1.524,16.726C1.541,16.505 1.571,16.28 1.59,16.226C1.631,16.108 1.675,15.861 1.719,15.501C1.776,15.034 1.79,14.957 1.82,14.939C1.837,14.929 1.85,14.856 1.85,14.778C1.85,14.699 1.887,14.492 1.932,14.318C1.977,14.143 2.015,13.971 2.015,13.934C2.015,13.897 2.043,13.808 2.078,13.736C2.112,13.664 2.151,13.543 2.164,13.467C2.177,13.391 2.215,13.264 2.249,13.185C2.283,13.105 2.311,13.012 2.311,12.977C2.311,12.942 2.324,12.887 2.34,12.856C2.37,12.798 2.426,12.667 2.484,12.519C2.502,12.473 2.537,12.397 2.562,12.349C2.587,12.301 2.608,12.233 2.608,12.197C2.608,12.162 2.637,12.107 2.674,12.074C2.71,12.041 2.74,11.997 2.74,11.975C2.74,11.915 3.035,11.349 3.235,11.026C3.559,10.504 3.54,10.556 3.441,10.469C3.248,10.3 2.988,10.022 2.803,9.786C2.695,9.649 2.588,9.514 2.565,9.487C2.542,9.46 2.488,9.363 2.446,9.273C2.404,9.182 2.357,9.082 2.341,9.051C2.3,8.971 2.303,8.178 2.344,8.152C2.362,8.141 2.377,8.096 2.377,8.051C2.377,8.007 2.392,7.971 2.41,7.971C2.428,7.971 2.443,7.949 2.443,7.922C2.443,7.762 2.919,7.378 3.118,7.378C3.161,7.378 3.206,7.363 3.217,7.345C3.229,7.327 3.325,7.312 3.432,7.312C3.538,7.312 3.635,7.327 3.646,7.345C3.657,7.363 3.703,7.378 3.747,7.378C3.849,7.378 4.056,7.513 4.152,7.642C4.192,7.696 4.248,7.74 4.276,7.74C4.305,7.74 4.451,7.681 4.601,7.608C4.752,7.536 4.895,7.476 4.92,7.476C4.944,7.475 4.993,7.453 5.028,7.426C5.063,7.4 5.117,7.378 5.148,7.378C5.179,7.378 5.262,7.349 5.332,7.315C5.53,7.216 5.934,7.102 6.15,7.082L6.348,7.065L6.355,6.9C6.373,6.504 6.498,5.826 6.567,5.748C6.583,5.731 6.595,5.667 6.595,5.607C6.595,5.433 6.805,4.842 6.867,4.841C6.881,4.84 6.892,4.822 6.891,4.799C6.891,4.776 6.815,4.721 6.722,4.676C6.542,4.587 6.336,4.402 6.278,4.275C6.16,4.021 6.134,3.933 6.134,3.795C6.134,3.59 6.244,3.277 6.383,3.086C6.518,2.9 6.848,2.632 6.943,2.632C6.98,2.632 7.027,2.616 7.047,2.595C7.104,2.539 7.643,2.549 7.783,2.61C7.956,2.685 8.218,2.96 8.279,3.129C8.342,3.307 8.42,3.326 8.656,3.225C8.746,3.187 8.901,3.135 9.001,3.11C9.1,3.085 9.301,3.033 9.446,2.993C9.846,2.885 9.954,2.861 10.187,2.828C10.305,2.811 10.49,2.782 10.599,2.763C11.053,2.685 11.547,2.663 13.244,2.645C14.227,2.635 15.031,2.614 15.031,2.599C15.031,2.584 14.957,2.517 14.866,2.451L14.7,2.329L13.473,2.332C12.799,2.334 12.054,2.352 11.818,2.37C11.583,2.389 11.249,2.413 11.077,2.423C10.905,2.433 10.75,2.455 10.733,2.471C10.715,2.487 10.594,2.501 10.463,2.501C10.331,2.501 10.215,2.515 10.204,2.534C10.192,2.552 10.111,2.566 10.022,2.566C9.934,2.566 9.852,2.581 9.841,2.599C9.83,2.618 9.767,2.632 9.701,2.632C9.636,2.632 9.537,2.646 9.481,2.662C9.214,2.742 8.926,2.797 8.78,2.797C8.684,2.797 8.589,2.819 8.542,2.852C8.466,2.905 8.461,2.904 8.378,2.802C8.161,2.536 8.014,2.402 7.837,2.307C7.673,2.219 7.611,2.204 7.407,2.204C7.276,2.204 7.154,2.217 7.137,2.233C7.12,2.249 7.03,2.286 6.938,2.316C6.608,2.423 6.255,2.712 6.137,2.971C5.951,3.38 5.936,3.445 5.936,3.853C5.936,4.094 5.923,4.247 5.903,4.247C5.885,4.247 5.87,4.232 5.87,4.214C5.87,4.196 5.859,4.181 5.845,4.181C5.817,4.181 5.672,4.483 5.672,4.541C5.672,4.579 5.666,4.592 5.538,4.84C5.306,5.289 4.963,5.687 4.497,6.049C4.334,6.175 4.24,6.228 3.926,6.368C3.527,6.546 2.622,6.542 2.246,6.36C2.166,6.322 2.09,6.29 2.076,6.29C2.052,6.29 1.949,6.227 1.688,6.052C1.531,5.946 1.095,5.53 1.075,5.465C1.056,5.405 0.913,5.327 0.881,5.359C0.843,5.397 0.859,12.085 0.897,12.108C0.923,12.124 0.923,12.141 0.897,12.166C0.85,12.213 0.85,12.673 0.897,12.702C0.923,12.718 0.923,12.734 0.897,12.76C0.848,12.809 0.848,13.923 0.897,13.954C0.923,13.97 0.923,13.986 0.897,14.012C0.849,14.06 0.849,14.715 0.897,14.745C0.923,14.761 0.923,14.777 0.897,14.803C0.849,14.851 0.851,15.165 0.901,15.214C0.931,15.245 0.931,15.263 0.901,15.293C0.854,15.34 0.848,15.742 0.893,15.813C0.912,15.843 0.911,15.876 0.89,15.901C0.854,15.944 0.869,16.755 0.906,16.792C0.917,16.804 0.927,16.766 0.927,16.707C0.927,16.649 0.941,16.539 0.957,16.463C0.974,16.387 1.005,16.221 1.026,16.094C1.14,15.423 1.414,14.124 1.536,13.672C1.583,13.5 1.63,13.311 1.641,13.252C1.652,13.193 1.677,13.145 1.698,13.145C1.745,13.144 1.85,12.961 1.85,12.877C1.85,12.842 1.878,12.758 1.912,12.69C1.946,12.623 1.985,12.501 1.998,12.42C2.012,12.338 2.05,12.232 2.084,12.184C2.119,12.136 2.146,12.071 2.146,12.041C2.146,12.01 2.17,11.931 2.199,11.864C2.228,11.798 2.264,11.715 2.278,11.678C2.308,11.602 2.437,11.316 2.538,11.099C2.576,11.017 2.608,10.934 2.608,10.915C2.608,10.896 2.637,10.855 2.672,10.823C2.708,10.79 2.754,10.712 2.775,10.649C2.808,10.55 2.804,10.523 2.752,10.458C2.718,10.416 2.608,10.281 2.508,10.157C2.328,9.934 2.146,9.63 2.146,9.553C2.146,9.531 2.119,9.474 2.085,9.426C2.051,9.378 2.013,9.268 2.001,9.183C1.988,9.097 1.964,9.018 1.947,9.008C1.93,8.997 1.916,8.834 1.916,8.644C1.916,8.26 1.981,7.959 2.103,7.774C2.145,7.711 2.179,7.643 2.179,7.622C2.179,7.602 2.209,7.559 2.245,7.526C2.281,7.493 2.311,7.454 2.311,7.44C2.311,7.417 2.395,7.33 2.61,7.13C2.639,7.103 2.674,7.081 2.688,7.081C2.702,7.081 2.753,7.052 2.803,7.017C3.132,6.783 3.708,6.713 4.044,6.867C4.143,6.912 4.239,6.949 4.256,6.949C4.274,6.949 4.288,6.966 4.288,6.986C4.288,7.047 4.666,6.957 4.894,6.843C4.929,6.825 5.032,6.79 5.125,6.763C5.218,6.736 5.345,6.69 5.409,6.661C5.472,6.631 5.583,6.599 5.656,6.589L5.788,6.57L5.808,6.373C5.827,6.18 5.984,5.615 6.037,5.548C6.103,5.464 6.266,5.124 6.266,5.07C6.266,5.037 6.232,4.983 6.191,4.949C6.042,4.827 5.862,4.374 5.934,4.302C5.959,4.277 5.969,4.301 5.969,4.386C5.969,4.452 5.983,4.51 5.999,4.516C6.016,4.522 6.064,4.593 6.106,4.673C6.16,4.776 6.227,4.842 6.332,4.897C6.413,4.94 6.48,4.986 6.48,4.998C6.48,5.051 6.322,5.401 6.298,5.401C6.284,5.401 6.264,5.451 6.252,5.513C6.24,5.574 6.21,5.667 6.184,5.719C6.115,5.858 6.056,6.206 6.05,6.503C6.045,6.764 6.045,6.764 5.944,6.799C5.888,6.818 5.831,6.845 5.818,6.859C5.804,6.872 5.737,6.883 5.669,6.883C5.6,6.883 5.535,6.898 5.524,6.916C5.513,6.935 5.46,6.949 5.407,6.949C5.354,6.949 5.31,6.964 5.31,6.982C5.31,7 5.266,7.015 5.213,7.015C5.16,7.015 5.107,7.03 5.096,7.048C5.085,7.066 5.043,7.082 5.003,7.082C4.963,7.083 4.857,7.12 4.766,7.164C4.676,7.209 4.581,7.245 4.557,7.246C4.533,7.246 4.471,7.275 4.421,7.311L4.329,7.377L4.208,7.295C4.001,7.154 3.834,7.081 3.72,7.081C3.659,7.081 3.593,7.065 3.573,7.045C3.552,7.023 3.477,7.015 3.393,7.025C2.976,7.075 2.732,7.189 2.456,7.465C2.302,7.619 2.242,7.718 2.079,8.086C2.006,8.252 1.98,8.564 2.015,8.851C2.035,9.01 2.065,9.155 2.082,9.172C2.099,9.189 2.113,9.223 2.113,9.247C2.113,9.32 2.339,9.756 2.474,9.943C2.626,10.155 2.955,10.508 3,10.508C3.093,10.508 3.064,10.658 2.906,10.989C2.815,11.181 2.74,11.359 2.74,11.385C2.74,11.41 2.726,11.431 2.71,11.431C2.681,11.431 2.662,11.467 2.444,11.942C2.196,12.482 1.982,13.037 1.982,13.138C1.982,13.172 1.971,13.21 1.959,13.222C1.909,13.272 1.786,13.675 1.714,14.026C1.698,14.103 1.672,14.229 1.656,14.306C1.563,14.75 1.459,15.339 1.388,15.814C1.368,15.95 1.338,16.128 1.322,16.209C1.285,16.388 1.229,16.791 1.208,17.017C1.2,17.107 1.176,17.285 1.156,17.412C1.151,17.44 1.147,17.47 1.142,17.502L0.681,17.502C0.69,16.404 0.696,14.13 0.696,11.522C0.696,4.908 0.694,4.769 0.593,4.569C0.578,4.537 0.565,4.482 0.565,4.445C0.565,4.409 0.55,4.379 0.532,4.379C0.51,4.379 0.499,6.682 0.499,11.223L0.499,17.502L0.272,17.502ZM17.454,3.128C17.444,3.111 17.413,3.105 17.387,3.115C17.318,3.141 17.326,3.16 17.406,3.16C17.443,3.16 17.465,3.145 17.454,3.128ZM17.207,3.077C17.207,3.059 17.121,3.014 17.017,2.978C16.913,2.941 16.777,2.886 16.715,2.854C16.654,2.823 16.585,2.797 16.562,2.797C16.54,2.797 16.513,2.775 16.502,2.748C16.492,2.721 16.461,2.698 16.433,2.698C16.373,2.698 16.265,2.64 16.172,2.558C16.136,2.527 16.093,2.501 16.076,2.501C16.059,2.501 15.95,2.434 15.834,2.352C15.717,2.271 15.607,2.204 15.59,2.204C15.573,2.204 15.559,2.181 15.559,2.154C15.559,2.126 15.525,2.09 15.485,2.075C15.444,2.059 15.358,1.991 15.295,1.924C15.232,1.857 15.12,1.761 15.048,1.71C14.975,1.659 14.82,1.518 14.702,1.396C14.067,0.738 13.801,0.486 13.673,0.42L13.532,0.348L6.16,0.364L6.01,0.444C5.928,0.487 5.84,0.523 5.816,0.523C5.791,0.523 5.771,0.538 5.771,0.556C5.771,0.604 13.094,0.602 13.142,0.554C13.161,0.535 13.242,0.524 13.322,0.529C13.459,0.539 13.474,0.551 13.614,0.756C13.794,1.018 13.85,1.084 14.285,1.558C14.337,1.614 14.412,1.697 14.451,1.743C14.553,1.862 14.951,2.204 14.987,2.204C15.004,2.204 15.084,2.264 15.165,2.338C15.3,2.462 15.858,2.76 16.053,2.812C16.135,2.834 16.16,2.844 16.383,2.938C16.446,2.965 16.572,2.998 16.663,3.011C16.753,3.023 16.842,3.046 16.86,3.061C16.936,3.122 17.209,3.135 17.207,3.077ZM20.231,2.078L20.405,2.066L20.517,1.843C20.649,1.581 20.77,1.429 20.901,1.362C20.953,1.335 20.996,1.298 20.996,1.28C20.996,1.26 19.917,1.248 17.981,1.249C16.322,1.249 14.966,1.262 14.966,1.277C14.966,1.335 15.169,1.558 15.332,1.68C15.425,1.749 15.525,1.829 15.555,1.856C15.584,1.884 15.66,1.952 15.723,2.008L15.839,2.11L17.948,2.1C19.108,2.095 20.135,2.085 20.231,2.078ZM2.861,5.863C2.124,5.669 1.927,5.579 1.668,5.316C1.305,4.948 1.099,4.546 1.009,4.035C0.938,3.627 0.957,3.425 1.105,3.023C1.167,2.853 1.227,2.682 1.239,2.642C1.283,2.491 1.583,2.081 1.79,1.891C2.055,1.646 2.658,1.296 3.09,1.135L3.415,1.014L8.409,1.017C11.156,1.019 13.413,1.011 13.424,0.999C13.436,0.988 13.429,0.943 13.409,0.899L13.373,0.82L9.327,0.82C6.665,0.82 5.274,0.809 5.261,0.787C5.248,0.767 4.98,0.754 4.567,0.754C4.155,0.754 3.838,0.739 3.749,0.715C3.622,0.681 3.576,0.686 3.385,0.748C3.265,0.788 3.138,0.82 3.103,0.82C3.069,0.82 3.031,0.835 3.02,0.853C3.008,0.871 2.957,0.886 2.904,0.886C2.852,0.886 2.8,0.901 2.789,0.919C2.778,0.937 2.733,0.952 2.69,0.952C2.613,0.952 2.226,1.102 2.165,1.155C2.147,1.17 2.113,1.182 2.089,1.182C2.065,1.182 2.027,1.198 2.005,1.216C1.912,1.294 1.655,1.479 1.639,1.479C1.602,1.479 1.299,1.8 1.202,1.94C1.071,2.132 0.927,2.418 0.927,2.486C0.927,2.516 0.899,2.579 0.865,2.627C0.797,2.724 0.696,3.174 0.696,3.383C0.696,3.457 0.683,3.552 0.668,3.594C0.625,3.706 0.685,4.326 0.762,4.577C0.887,4.981 1.241,5.419 1.685,5.719C1.871,5.845 2.149,5.934 2.641,6.025C2.74,6.044 2.852,6.065 2.888,6.072C3.006,6.095 3.039,6.093 3.103,6.059C3.117,6.052 3.505,6.01 3.515,6.007C4.672,5.707 4.922,5.305 5.52,4.451L5.508,4.444C5.508,4.413 5.54,4.293 5.58,4.177C5.649,3.977 5.653,3.903 5.665,2.676C5.673,1.773 5.666,1.364 5.641,1.316C5.6,1.241 5.424,1.22 5.401,1.288C5.394,1.31 5.416,1.448 5.451,1.593C5.506,1.822 5.515,1.983 5.516,2.764C5.516,3.534 5.508,3.703 5.458,3.885C5.425,4.002 5.392,4.217 5.384,4.362C5.211,4.635 5.018,4.88 4.799,5.089C4.748,5.113 4.674,5.17 4.566,5.266C4.455,5.365 4.282,5.486 4.165,5.55C4.155,5.555 4.146,5.56 4.136,5.565C4.127,5.569 4.118,5.574 4.11,5.578C3.751,5.756 3.339,5.857 2.861,5.863ZM3.432,6.257C3.432,6.238 3.329,6.224 3.19,6.224C3.029,6.224 2.882,6.201 2.753,6.156C2.646,6.118 2.484,6.075 2.394,6.061C2.325,6.05 2.234,6.027 2.163,6.004C2.14,5.996 2.119,5.988 2.101,5.981C1.956,5.921 1.916,5.915 1.916,5.957C1.916,6.002 2.24,6.144 2.453,6.192C2.558,6.216 2.651,6.248 2.661,6.263C2.685,6.303 3.432,6.297 3.432,6.257ZM8.375,2.54C8.375,2.501 8.246,2.369 8.209,2.369C8.157,2.369 8.172,2.411 8.251,2.489C8.329,2.566 8.375,2.585 8.375,2.54ZM6.1,2.849C6.284,2.491 6.762,2.114 7.139,2.031C7.605,1.928 8.06,2.064 8.421,2.415L8.587,2.577L8.771,2.539C8.873,2.518 9.002,2.501 9.059,2.501C9.115,2.501 9.171,2.486 9.182,2.468C9.193,2.449 9.25,2.435 9.308,2.435C9.366,2.435 9.462,2.421 9.521,2.404C9.581,2.387 9.84,2.356 10.098,2.335C10.355,2.315 10.64,2.279 10.731,2.255C11.343,2.095 11.351,2.094 12.263,2.067C13.798,2.021 14.306,2 14.306,1.983C14.306,1.974 14.249,1.905 14.179,1.83C14.109,1.755 13.97,1.597 13.872,1.479L13.692,1.265L9.826,1.256C6.998,1.25 5.948,1.258 5.915,1.285C5.879,1.315 5.874,1.461 5.888,2.051C5.909,2.873 5.921,2.995 5.982,2.995C6.005,2.995 6.058,2.929 6.1,2.849ZM18.902,2.96C18.922,2.94 18.729,2.929 18.376,2.929C18.03,2.929 17.831,2.941 17.851,2.96C17.868,2.977 17.949,2.997 18.03,3.006C18.253,3.028 18.866,2.996 18.902,2.96Z"/>
    </g>
    <g id="path13" serif:id="path1" transform="matrix(-1,0,0,-1,101.178,34.8422)">
        <path d="M0.272,17.502C0.273,17.5 0.274,17.498 0.275,17.496C0.331,17.382 0.334,17.264 0.318,15.482C0.308,14.441 0.287,11.573 0.27,9.108C0.253,6.643 0.229,4.434 0.218,4.199C0.206,3.935 0.211,3.747 0.231,3.705C0.25,3.668 0.271,3.563 0.28,3.473C0.316,3.07 0.436,2.702 0.726,2.112C0.874,1.81 1.846,0.952 2.039,0.952C2.062,0.952 2.08,0.937 2.08,0.919C2.08,0.901 2.11,0.886 2.147,0.886C2.183,0.886 2.239,0.873 2.27,0.857C2.338,0.824 2.511,0.762 2.674,0.714C2.902,0.647 3.367,0.616 4.369,0.602L5.389,0.587L5.505,0.498C5.687,0.358 5.901,0.227 5.947,0.227C5.97,0.227 6.004,0.212 6.022,0.194C6.067,0.148 13.614,0.148 13.66,0.193C13.678,0.212 13.72,0.227 13.753,0.227C13.836,0.227 13.935,0.288 14.091,0.434C14.186,0.522 14.243,0.552 14.29,0.539C14.326,0.528 14.408,0.506 14.471,0.49C14.539,0.472 18.903,0.469 25.025,0.481L65.927,0.502L65.927,0.82L24.967,0.82C18.275,0.82 14.471,0.832 14.471,0.852C14.471,0.869 14.503,0.913 14.542,0.95C14.612,1.015 14.656,1.016 17.84,1.017L21.067,1.018L21.166,1.117C21.298,1.249 21.282,1.341 21.117,1.397C20.937,1.459 20.838,1.61 20.745,1.967C20.682,2.211 20.626,2.293 20.503,2.319C20.448,2.331 20.39,2.364 20.375,2.393C20.349,2.439 20.209,2.442 19.097,2.423C18.411,2.411 17.585,2.392 17.262,2.381C16.626,2.359 16.514,2.381 16.707,2.491C16.764,2.524 16.811,2.567 16.811,2.588C16.811,2.649 18.025,2.675 19.638,2.649C20.541,2.634 21.127,2.612 21.153,2.592C21.176,2.573 21.194,2.485 21.194,2.388C21.194,2.228 21.224,2.143 21.372,1.882C21.443,1.758 21.565,1.642 21.696,1.574C21.816,1.513 21.92,1.511 24.646,1.512C26.2,1.513 28.124,1.528 28.922,1.545C29.719,1.561 31.517,1.586 32.917,1.598L65.927,1.622L65.927,1.765L31.355,1.787C24.399,1.824 22.033,1.817 21.985,1.76C21.95,1.718 21.933,1.718 21.848,1.762C21.722,1.827 21.49,2.073 21.49,2.142C21.49,2.172 21.468,2.249 21.441,2.314C21.414,2.38 21.391,2.526 21.391,2.64C21.391,2.754 21.38,2.862 21.366,2.88C21.353,2.898 21.209,2.915 21.046,2.917C20.096,2.93 19.667,2.957 19.639,3.007C19.602,3.072 19.312,3.211 19.085,3.272C18.985,3.299 18.844,3.34 18.772,3.363C18.68,3.392 18.402,3.405 17.865,3.404C17.125,3.404 17.075,3.4 16.712,3.31C16.504,3.258 16.326,3.207 16.317,3.196C16.282,3.154 16.15,3.094 16.094,3.094C16.061,3.094 15.916,3.044 15.772,2.984C15.615,2.918 15.416,2.863 15.279,2.848C14.892,2.806 12.195,2.81 11.703,2.854C10.929,2.923 10.575,2.967 10.275,3.031C10.115,3.066 9.942,3.094 9.89,3.094C9.838,3.094 9.786,3.109 9.775,3.127C9.764,3.145 9.71,3.16 9.656,3.16C9.601,3.16 9.524,3.177 9.485,3.199C9.445,3.22 9.339,3.256 9.248,3.279C9.031,3.335 8.754,3.435 8.582,3.52C8.506,3.557 8.427,3.588 8.406,3.588C8.385,3.588 8.327,3.618 8.276,3.654C8.167,3.731 8.13,3.702 8.102,3.518C8.075,3.341 7.922,3.027 7.803,2.905C7.702,2.801 7.691,2.798 7.423,2.798C7.174,2.797 7.129,2.808 6.962,2.901C6.772,3.008 6.562,3.183 6.562,3.235C6.562,3.252 6.533,3.306 6.498,3.356C6.417,3.469 6.37,3.757 6.402,3.942C6.431,4.104 6.562,4.285 6.727,4.387C6.818,4.444 6.893,4.459 7.081,4.459C7.337,4.459 7.358,4.476 7.263,4.611C7.099,4.842 6.892,5.274 6.892,5.383C6.892,5.427 6.879,5.471 6.863,5.481C6.847,5.491 6.826,5.532 6.816,5.573C6.806,5.614 6.781,5.707 6.761,5.78C6.688,6.043 6.564,6.915 6.563,7.172L6.562,7.312L6.35,7.312C6.233,7.312 6.129,7.327 6.117,7.345C6.106,7.363 6.035,7.378 5.959,7.378C5.883,7.378 5.724,7.417 5.607,7.464C5.489,7.512 5.355,7.565 5.31,7.583C5.265,7.602 5.202,7.629 5.17,7.645C5.139,7.662 5.092,7.675 5.066,7.675C5.041,7.675 4.94,7.713 4.843,7.761C4.747,7.808 4.63,7.864 4.585,7.884C4.54,7.905 4.495,7.929 4.486,7.939C4.477,7.949 4.408,7.984 4.334,8.017L4.197,8.076L4.014,7.893C3.787,7.667 3.654,7.609 3.36,7.609C3.094,7.609 2.996,7.65 2.83,7.835C2.669,8.013 2.619,8.119 2.571,8.378C2.503,8.748 2.62,9.168 2.899,9.553C3.019,9.72 3.737,10.443 3.781,10.443C3.814,10.443 3.858,10.54 3.86,10.615C3.86,10.628 3.797,10.713 3.72,10.804C3.497,11.067 3.399,11.192 3.399,11.21C3.399,11.219 3.34,11.321 3.268,11.436C3.196,11.551 3.101,11.72 3.056,11.81C2.891,12.145 2.702,12.644 2.676,12.7C2.398,13.307 1.881,15.817 1.603,17.502L1.402,17.502C1.421,17.346 1.445,17.214 1.459,17.187C1.477,17.154 1.506,16.947 1.524,16.726C1.541,16.505 1.571,16.28 1.59,16.226C1.631,16.108 1.675,15.861 1.719,15.501C1.776,15.034 1.79,14.957 1.82,14.939C1.837,14.929 1.85,14.856 1.85,14.778C1.85,14.699 1.887,14.492 1.932,14.318C1.977,14.143 2.015,13.971 2.015,13.934C2.015,13.897 2.043,13.808 2.078,13.736C2.112,13.664 2.151,13.543 2.164,13.467C2.177,13.391 2.215,13.264 2.249,13.185C2.283,13.105 2.311,13.012 2.311,12.977C2.311,12.942 2.324,12.887 2.34,12.856C2.37,12.798 2.426,12.667 2.484,12.519C2.502,12.473 2.537,12.397 2.562,12.349C2.587,12.301 2.608,12.233 2.608,12.197C2.608,12.162 2.637,12.107 2.674,12.074C2.71,12.041 2.74,11.997 2.74,11.975C2.74,11.915 3.035,11.349 3.235,11.026C3.559,10.504 3.54,10.556 3.441,10.469C3.248,10.3 2.988,10.022 2.803,9.786C2.695,9.649 2.588,9.514 2.565,9.487C2.542,9.46 2.488,9.363 2.446,9.273C2.404,9.182 2.357,9.082 2.341,9.051C2.3,8.971 2.303,8.178 2.344,8.152C2.362,8.141 2.377,8.096 2.377,8.051C2.377,8.007 2.392,7.971 2.41,7.971C2.428,7.971 2.443,7.949 2.443,7.922C2.443,7.762 2.919,7.378 3.118,7.378C3.161,7.378 3.206,7.363 3.217,7.345C3.229,7.327 3.325,7.312 3.432,7.312C3.538,7.312 3.635,7.327 3.646,7.345C3.657,7.363 3.703,7.378 3.747,7.378C3.849,7.378 4.056,7.513 4.152,7.642C4.192,7.696 4.248,7.74 4.276,7.74C4.305,7.74 4.451,7.681 4.601,7.608C4.752,7.536 4.895,7.476 4.92,7.476C4.944,7.475 4.993,7.453 5.028,7.426C5.063,7.4 5.117,7.378 5.148,7.378C5.179,7.378 5.262,7.349 5.332,7.315C5.53,7.216 5.934,7.102 6.15,7.082L6.348,7.065L6.355,6.9C6.373,6.504 6.498,5.826 6.567,5.748C6.583,5.731 6.595,5.667 6.595,5.607C6.595,5.433 6.805,4.842 6.867,4.841C6.881,4.84 6.892,4.822 6.891,4.799C6.891,4.776 6.815,4.721 6.722,4.676C6.542,4.587 6.336,4.402 6.278,4.275C6.16,4.021 6.134,3.933 6.134,3.795C6.134,3.59 6.244,3.277 6.383,3.086C6.518,2.9 6.848,2.632 6.943,2.632C6.98,2.632 7.027,2.616 7.047,2.595C7.104,2.539 7.643,2.549 7.783,2.61C7.956,2.685 8.218,2.96 8.279,3.129C8.342,3.307 8.42,3.326 8.656,3.225C8.746,3.187 8.901,3.135 9.001,3.11C9.1,3.085 9.301,3.033 9.446,2.993C9.846,2.885 9.954,2.861 10.187,2.828C10.305,2.811 10.49,2.782 10.599,2.763C11.053,2.685 11.547,2.663 13.244,2.645C14.227,2.635 15.031,2.614 15.031,2.599C15.031,2.584 14.957,2.517 14.866,2.451L14.7,2.329L13.473,2.332C12.799,2.334 12.054,2.352 11.818,2.37C11.583,2.389 11.249,2.413 11.077,2.423C10.905,2.433 10.75,2.455 10.733,2.471C10.715,2.487 10.594,2.501 10.463,2.501C10.331,2.501 10.215,2.515 10.204,2.534C10.192,2.552 10.111,2.566 10.022,2.566C9.934,2.566 9.852,2.581 9.841,2.599C9.83,2.618 9.767,2.632 9.701,2.632C9.636,2.632 9.537,2.646 9.481,2.662C9.214,2.742 8.926,2.797 8.78,2.797C8.684,2.797 8.589,2.819 8.542,2.852C8.466,2.905 8.461,2.904 8.378,2.802C8.161,2.536 8.014,2.402 7.837,2.307C7.673,2.219 7.611,2.204 7.407,2.204C7.276,2.204 7.154,2.217 7.137,2.233C7.12,2.249 7.03,2.286 6.938,2.316C6.608,2.423 6.255,2.712 6.137,2.971C5.951,3.38 5.936,3.445 5.936,3.853C5.936,4.094 5.923,4.247 5.903,4.247C5.885,4.247 5.87,4.232 5.87,4.214C5.87,4.196 5.859,4.181 5.845,4.181C5.817,4.181 5.672,4.483 5.672,4.541C5.672,4.579 5.666,4.592 5.538,4.84C5.306,5.289 4.963,5.687 4.497,6.049C4.334,6.175 4.24,6.228 3.926,6.368C3.527,6.546 2.622,6.542 2.246,6.36C2.166,6.322 2.09,6.29 2.076,6.29C2.052,6.29 1.949,6.227 1.688,6.052C1.531,5.946 1.095,5.53 1.075,5.465C1.056,5.405 0.913,5.327 0.881,5.359C0.843,5.397 0.859,12.085 0.897,12.108C0.923,12.124 0.923,12.141 0.897,12.166C0.85,12.213 0.85,12.673 0.897,12.702C0.923,12.718 0.923,12.734 0.897,12.76C0.848,12.809 0.848,13.923 0.897,13.954C0.923,13.97 0.923,13.986 0.897,14.012C0.849,14.06 0.849,14.715 0.897,14.745C0.923,14.761 0.923,14.777 0.897,14.803C0.849,14.851 0.851,15.165 0.901,15.214C0.931,15.245 0.931,15.263 0.901,15.293C0.854,15.34 0.848,15.742 0.893,15.813C0.912,15.843 0.911,15.876 0.89,15.901C0.854,15.944 0.869,16.755 0.906,16.792C0.917,16.804 0.927,16.766 0.927,16.707C0.927,16.649 0.941,16.539 0.957,16.463C0.974,16.387 1.005,16.221 1.026,16.094C1.14,15.423 1.414,14.124 1.536,13.672C1.583,13.5 1.63,13.311 1.641,13.252C1.652,13.193 1.677,13.145 1.698,13.145C1.745,13.144 1.85,12.961 1.85,12.877C1.85,12.842 1.878,12.758 1.912,12.69C1.946,12.623 1.985,12.501 1.998,12.42C2.012,12.338 2.05,12.232 2.084,12.184C2.119,12.136 2.146,12.071 2.146,12.041C2.146,12.01 2.17,11.931 2.199,11.864C2.228,11.798 2.264,11.715 2.278,11.678C2.308,11.602 2.437,11.316 2.538,11.099C2.576,11.017 2.608,10.934 2.608,10.915C2.608,10.896 2.637,10.855 2.672,10.823C2.708,10.79 2.754,10.712 2.775,10.649C2.808,10.55 2.804,10.523 2.752,10.458C2.718,10.416 2.608,10.281 2.508,10.157C2.328,9.934 2.146,9.63 2.146,9.553C2.146,9.531 2.119,9.474 2.085,9.426C2.051,9.378 2.013,9.268 2.001,9.183C1.988,9.097 1.964,9.018 1.947,9.008C1.93,8.997 1.916,8.834 1.916,8.644C1.916,8.26 1.981,7.959 2.103,7.774C2.145,7.711 2.179,7.643 2.179,7.622C2.179,7.602 2.209,7.559 2.245,7.526C2.281,7.493 2.311,7.454 2.311,7.44C2.311,7.417 2.395,7.33 2.61,7.13C2.639,7.103 2.674,7.081 2.688,7.081C2.702,7.081 2.753,7.052 2.803,7.017C3.132,6.783 3.708,6.713 4.044,6.867C4.143,6.912 4.239,6.949 4.256,6.949C4.274,6.949 4.288,6.966 4.288,6.986C4.288,7.047 4.666,6.957 4.894,6.843C4.929,6.825 5.032,6.79 5.125,6.763C5.218,6.736 5.345,6.69 5.409,6.661C5.472,6.631 5.583,6.599 5.656,6.589L5.788,6.57L5.808,6.373C5.827,6.18 5.984,5.615 6.037,5.548C6.103,5.464 6.266,5.124 6.266,5.07C6.266,5.037 6.232,4.983 6.191,4.949C6.042,4.827 5.862,4.374 5.934,4.302C5.959,4.277 5.969,4.301 5.969,4.386C5.969,4.452 5.983,4.51 5.999,4.516C6.016,4.522 6.064,4.593 6.106,4.673C6.16,4.776 6.227,4.842 6.332,4.897C6.413,4.94 6.48,4.986 6.48,4.998C6.48,5.051 6.322,5.401 6.298,5.401C6.284,5.401 6.264,5.451 6.252,5.513C6.24,5.574 6.21,5.667 6.184,5.719C6.115,5.858 6.056,6.206 6.05,6.503C6.045,6.764 6.045,6.764 5.944,6.799C5.888,6.818 5.831,6.845 5.818,6.859C5.804,6.872 5.737,6.883 5.669,6.883C5.6,6.883 5.535,6.898 5.524,6.916C5.513,6.935 5.46,6.949 5.407,6.949C5.354,6.949 5.31,6.964 5.31,6.982C5.31,7 5.266,7.015 5.213,7.015C5.16,7.015 5.107,7.03 5.096,7.048C5.085,7.066 5.043,7.082 5.003,7.082C4.963,7.083 4.857,7.12 4.766,7.164C4.676,7.209 4.581,7.245 4.557,7.246C4.533,7.246 4.471,7.275 4.421,7.311L4.329,7.377L4.208,7.295C4.001,7.154 3.834,7.081 3.72,7.081C3.659,7.081 3.593,7.065 3.573,7.045C3.552,7.023 3.477,7.015 3.393,7.025C2.976,7.075 2.732,7.189 2.456,7.465C2.302,7.619 2.242,7.718 2.079,8.086C2.006,8.252 1.98,8.564 2.015,8.851C2.035,9.01 2.065,9.155 2.082,9.172C2.099,9.189 2.113,9.223 2.113,9.247C2.113,9.32 2.339,9.756 2.474,9.943C2.626,10.155 2.955,10.508 3,10.508C3.093,10.508 3.064,10.658 2.906,10.989C2.815,11.181 2.74,11.359 2.74,11.385C2.74,11.41 2.726,11.431 2.71,11.431C2.681,11.431 2.662,11.467 2.444,11.942C2.196,12.482 1.982,13.037 1.982,13.138C1.982,13.172 1.971,13.21 1.959,13.222C1.909,13.272 1.786,13.675 1.714,14.026C1.698,14.103 1.672,14.229 1.656,14.306C1.563,14.75 1.459,15.339 1.388,15.814C1.368,15.95 1.338,16.128 1.322,16.209C1.285,16.388 1.229,16.791 1.208,17.017C1.2,17.107 1.176,17.285 1.156,17.412C1.151,17.44 1.147,17.47 1.142,17.502L0.681,17.502C0.69,16.404 0.696,14.13 0.696,11.522C0.696,4.908 0.694,4.769 0.593,4.569C0.578,4.537 0.565,4.482 0.565,4.445C0.565,4.409 0.55,4.379 0.532,4.379C0.51,4.379 0.499,6.682 0.499,11.223L0.499,17.502L0.272,17.502ZM17.454,3.128C17.444,3.111 17.413,3.105 17.387,3.115C17.318,3.141 17.326,3.16 17.406,3.16C17.443,3.16 17.465,3.145 17.454,3.128ZM17.207,3.077C17.207,3.059 17.121,3.014 17.017,2.978C16.913,2.941 16.777,2.886 16.715,2.854C16.654,2.823 16.585,2.797 16.562,2.797C16.54,2.797 16.513,2.775 16.502,2.748C16.492,2.721 16.461,2.698 16.433,2.698C16.373,2.698 16.265,2.64 16.172,2.558C16.136,2.527 16.093,2.501 16.076,2.501C16.059,2.501 15.95,2.434 15.834,2.352C15.717,2.271 15.607,2.204 15.59,2.204C15.573,2.204 15.559,2.181 15.559,2.154C15.559,2.126 15.525,2.09 15.485,2.075C15.444,2.059 15.358,1.991 15.295,1.924C15.232,1.857 15.12,1.761 15.048,1.71C14.975,1.659 14.82,1.518 14.702,1.396C14.067,0.738 13.801,0.486 13.673,0.42L13.532,0.348L6.16,0.364L6.01,0.444C5.928,0.487 5.84,0.523 5.816,0.523C5.791,0.523 5.771,0.538 5.771,0.556C5.771,0.604 13.094,0.602 13.142,0.554C13.161,0.535 13.242,0.524 13.322,0.529C13.459,0.539 13.474,0.551 13.614,0.756C13.794,1.018 13.85,1.084 14.285,1.558C14.337,1.614 14.412,1.697 14.451,1.743C14.553,1.862 14.951,2.204 14.987,2.204C15.004,2.204 15.084,2.264 15.165,2.338C15.3,2.462 15.858,2.76 16.053,2.812C16.135,2.834 16.16,2.844 16.383,2.938C16.446,2.965 16.572,2.998 16.663,3.011C16.753,3.023 16.842,3.046 16.86,3.061C16.936,3.122 17.209,3.135 17.207,3.077ZM20.231,2.078L20.405,2.066L20.517,1.843C20.649,1.581 20.77,1.429 20.901,1.362C20.953,1.335 20.996,1.298 20.996,1.28C20.996,1.26 19.917,1.248 17.981,1.249C16.322,1.249 14.966,1.262 14.966,1.277C14.966,1.335 15.169,1.558 15.332,1.68C15.425,1.749 15.525,1.829 15.555,1.856C15.584,1.884 15.66,1.952 15.723,2.008L15.839,2.11L17.948,2.1C19.108,2.095 20.135,2.085 20.231,2.078ZM2.861,5.863C2.124,5.669 1.927,5.579 1.668,5.316C1.305,4.948 1.099,4.546 1.009,4.035C0.938,3.627 0.957,3.425 1.105,3.023C1.167,2.853 1.227,2.682 1.239,2.642C1.283,2.491 1.583,2.081 1.79,1.891C2.055,1.646 2.658,1.296 3.09,1.135L3.415,1.014L8.409,1.017C11.156,1.019 13.413,1.011 13.424,0.999C13.436,0.988 13.429,0.943 13.409,0.899L13.373,0.82L9.327,0.82C6.665,0.82 5.274,0.809 5.261,0.787C5.248,0.767 4.98,0.754 4.567,0.754C4.155,0.754 3.838,0.739 3.749,0.715C3.622,0.681 3.576,0.686 3.385,0.748C3.265,0.788 3.138,0.82 3.103,0.82C3.069,0.82 3.031,0.835 3.02,0.853C3.008,0.871 2.957,0.886 2.904,0.886C2.852,0.886 2.8,0.901 2.789,0.919C2.778,0.937 2.733,0.952 2.69,0.952C2.613,0.952 2.226,1.102 2.165,1.155C2.147,1.17 2.113,1.182 2.089,1.182C2.065,1.182 2.027,1.198 2.005,1.216C1.912,1.294 1.655,1.479 1.639,1.479C1.602,1.479 1.299,1.8 1.202,1.94C1.071,2.132 0.927,2.418 0.927,2.486C0.927,2.516 0.899,2.579 0.865,2.627C0.797,2.724 0.696,3.174 0.696,3.383C0.696,3.457 0.683,3.552 0.668,3.594C0.625,3.706 0.685,4.326 0.762,4.577C0.887,4.981 1.241,5.419 1.685,5.719C1.871,5.845 2.149,5.934 2.641,6.025C2.74,6.044 2.852,6.065 2.888,6.072C3.006,6.095 3.039,6.093 3.103,6.059C3.117,6.052 3.505,6.01 3.515,6.007C4.672,5.707 4.922,5.305 5.52,4.451L5.508,4.444C5.508,4.413 5.54,4.293 5.58,4.177C5.649,3.977 5.653,3.903 5.665,2.676C5.673,1.773 5.666,1.364 5.641,1.316C5.6,1.241 5.424,1.22 5.401,1.288C5.394,1.31 5.416,1.448 5.451,1.593C5.506,1.822 5.515,1.983 5.516,2.764C5.516,3.534 5.508,3.703 5.458,3.885C5.425,4.002 5.392,4.217 5.384,4.362C5.211,4.635 5.018,4.88 4.799,5.089C4.748,5.113 4.674,5.17 4.566,5.266C4.455,5.365 4.282,5.486 4.165,5.55C4.155,5.555 4.146,5.56 4.136,5.565C4.127,5.569 4.118,5.574 4.11,5.578C3.751,5.756 3.339,5.857 2.861,5.863ZM3.432,6.257C3.432,6.238 3.329,6.224 3.19,6.224C3.029,6.224 2.882,6.201 2.753,6.156C2.646,6.118 2.484,6.075 2.394,6.061C2.325,6.05 2.234,6.027 2.163,6.004C2.14,5.996 2.119,5.988 2.101,5.981C1.956,5.921 1.916,5.915 1.916,5.957C1.916,6.002 2.24,6.144 2.453,6.192C2.558,6.216 2.651,6.248 2.661,6.263C2.685,6.303 3.432,6.297 3.432,6.257ZM8.375,2.54C8.375,2.501 8.246,2.369 8.209,2.369C8.157,2.369 8.172,2.411 8.251,2.489C8.329,2.566 8.375,2.585 8.375,2.54ZM6.1,2.849C6.284,2.491 6.762,2.114 7.139,2.031C7.605,1.928 8.06,2.064 8.421,2.415L8.587,2.577L8.771,2.539C8.873,2.518 9.002,2.501 9.059,2.501C9.115,2.501 9.171,2.486 9.182,2.468C9.193,2.449 9.25,2.435 9.308,2.435C9.366,2.435 9.462,2.421 9.521,2.404C9.581,2.387 9.84,2.356 10.098,2.335C10.355,2.315 10.64,2.279 10.731,2.255C11.343,2.095 11.351,2.094 12.263,2.067C13.798,2.021 14.306,2 14.306,1.983C14.306,1.974 14.249,1.905 14.179,1.83C14.109,1.755 13.97,1.597 13.872,1.479L13.692,1.265L9.826,1.256C6.998,1.25 5.948,1.258 5.915,1.285C5.879,1.315 5.874,1.461 5.888,2.051C5.909,2.873 5.921,2.995 5.982,2.995C6.005,2.995 6.058,2.929 6.1,2.849ZM18.902,2.96C18.922,2.94 18.729,2.929 18.376,2.929C18.03,2.929 17.831,2.941 17.851,2.96C17.868,2.977 17.949,2.997 18.03,3.006C18.253,3.028 18.866,2.996 18.902,2.96Z"/>
    </g>
</svg>
