<?xml version="1.0" encoding="UTF-8" standalone="no"?>
<!DOCTYPE svg PUBLIC "-//W3C//DTD SVG 1.1//EN" "http://www.w3.org/Graphics/SVG/1.1/DTD/svg11.dtd">
<svg width="100%" height="100%" viewBox="0 0 554 170" version="1.1" xmlns="http://www.w3.org/2000/svg" xmlns:xlink="http://www.w3.org/1999/xlink" xml:space="preserve" xmlns:serif="http://www.serif.com/" style="fill-rule:evenodd;clip-rule:evenodd;stroke-linejoin:round;stroke-miterlimit:2;">
    <g id="g1" transform="matrix(3.77953,0,0,3.77953,-124.685,-240.297)">
        <path id="path5" d="M44.101,108.328C44.019,108.296 43.83,108.266 43.681,108.263C43.445,108.258 43.267,108.091 43.498,108.091C43.571,108.091 43.827,107.608 43.827,107.471C43.827,107.447 43.719,107.373 43.588,107.305L43.348,107.181L42.4,107.181C41.879,107.181 41.382,107.181 41.296,107.182C41.21,107.182 40.809,107.315 40.405,107.477L39.671,107.77L39.375,107.63C39.196,107.545 38.995,107.51 38.868,107.542L38.658,107.595L38.581,107.394C38.539,107.283 38.413,107.101 38.301,106.989L38.096,106.784L37.592,106.677C37.315,106.618 36.982,106.591 36.853,106.617C36.086,106.769 35.789,106.852 35.677,106.945C35.603,107.006 35.315,107.049 34.98,107.049L34.408,107.049L34.365,106.914C34.342,106.84 34.249,106.712 34.158,106.631C34.067,106.548 33.994,106.375 33.994,106.241C33.994,106.004 33.621,105.519 33.518,105.622C33.491,105.649 33.536,105.843 33.616,106.054L33.763,106.438L33.684,106.517C33.445,106.757 33.077,106.096 33.077,105.427L33.077,105.059L33.473,104.701C33.69,104.503 33.897,104.341 33.931,104.341C34.062,104.34 33.99,103.78 33.841,103.645C33.642,103.466 33.583,103.471 33.634,103.665C33.691,103.883 33.517,103.965 33.275,103.835L33.072,103.727L33.096,102.179L33.211,102.083C33.275,102.03 33.327,101.942 33.327,101.887C33.327,101.832 33.42,101.7 33.533,101.593L33.739,101.4L33.994,101.612L34.324,101.247L34.653,100.883L34.657,100.653C34.659,100.527 34.698,100.424 34.744,100.424C34.789,100.424 34.827,100.385 34.827,100.336C34.827,100.288 34.789,100.271 34.743,100.299C34.698,100.328 34.626,100.263 34.585,100.155C34.544,100.047 34.451,99.909 34.377,99.848L34.244,99.737L33.981,99.955L34.033,100.231C34.09,100.54 34.006,100.584 33.798,100.355L33.66,100.203L33.66,99.802C33.66,99.582 33.703,99.26 33.755,99.087L33.849,98.771L33.664,98.473C33.563,98.308 33.389,98.151 33.278,98.123L33.077,98.073L33.077,97.557C33.077,97.273 33.111,97.005 33.152,96.962C33.193,96.918 33.246,96.733 33.27,96.549C33.294,96.366 33.339,96.118 33.369,95.998L33.425,95.781L33.077,95.69L33.077,95.326C33.077,95.125 33.137,94.876 33.209,94.772C33.282,94.668 33.321,94.529 33.295,94.462C33.27,94.395 33.285,94.341 33.33,94.341C33.441,94.341 33.43,94.094 33.296,93.574C33.162,93.058 33.196,92.695 33.426,92.17L33.592,91.79L34.327,91.299L34.515,90.692L34.379,90.42C34.216,90.093 34.229,90.069 34.496,90.201L34.702,90.303L34.727,90.693C34.76,91.195 34.592,91.516 34.129,91.834C33.72,92.115 33.66,92.216 33.718,92.52L33.758,92.73L34.224,92.702L34.496,92.98C34.821,93.313 34.86,93.317 35.092,93.049L35.274,92.841L35.3,91.82C35.315,91.259 35.37,90.493 35.423,90.118C35.55,89.213 35.467,87.998 35.208,86.966C35.092,86.508 34.997,85.958 34.996,85.744L34.994,85.354L34.744,85.299C34.606,85.269 34.278,85.086 34.015,84.891L33.535,84.538L33.306,84.115C32.663,82.932 32.974,82.183 34.474,81.297C34.526,81.266 34.151,79.645 33.989,79.203C33.593,78.12 33.556,77.948 33.546,77.175L33.535,76.383L33.646,76.188C33.793,75.931 33.833,75.988 33.753,76.344C33.717,76.503 33.719,76.925 33.757,77.282L33.827,77.931L34.083,78.449C34.225,78.733 34.467,79.191 34.622,79.466C34.776,79.741 34.981,80.294 35.076,80.696L35.249,81.425L34.942,81.696C34.773,81.844 34.561,82.018 34.472,82.081C34.236,82.248 33.998,82.827 33.995,83.237L33.994,83.591L34.106,83.591C34.167,83.591 34.371,83.76 34.559,83.966L34.899,84.34L35.051,84.286C35.335,84.184 35.4,84.079 35.53,83.506C35.867,82.025 35.638,80.255 34.912,78.716C34.535,77.919 34.41,77.38 34.41,76.55L34.41,75.789L34.671,75.544C35.259,74.992 35.809,73.884 36.033,72.796L36.158,72.191L36.08,71.572C35.944,70.499 35.654,69.83 34.597,68.141C33.41,66.245 33.197,65.352 33.801,64.793L34.018,64.591L34.808,64.591L35.202,64.91L35.202,65.688L34.941,65.921C34.798,66.049 34.629,66.172 34.566,66.194L34.452,66.233L34.757,66.857C34.925,67.2 35.222,67.665 35.417,67.89C35.796,68.329 36.371,69.191 36.656,69.75C36.931,70.289 37.487,72.6 37.265,72.28L37.194,72.177L36.974,72.626C36.853,72.872 36.58,73.27 36.368,73.508C36.156,73.747 36.005,73.964 36.032,73.99C36.122,74.081 36.707,73.427 36.951,72.961C37.24,72.408 37.368,72.298 37.285,72.674C37.219,72.976 37.074,73.172 36.403,73.862C36.147,74.126 35.951,74.341 35.969,74.341C36.211,74.341 36.778,73.824 37.068,73.341L37.243,73.05L37.243,73.243C37.244,73.952 36.176,76.104 35.306,77.144C34.913,77.614 34.915,77.767 35.325,78.568C35.919,79.73 36.235,81.594 36.123,83.28C36.092,83.749 36.065,84.278 36.064,84.455L36.061,84.777L36.398,85.122C37.108,85.848 37.227,86.477 36.786,87.174C36.627,87.426 36.452,87.718 36.397,87.823L36.297,88.014L36.521,88.786C36.643,89.21 36.744,89.651 36.744,89.764C36.744,89.878 36.802,90.054 36.873,90.156L37.003,90.341L36.883,90.341C36.818,90.341 36.718,90.285 36.661,90.217C36.404,89.907 36.359,90.598 36.484,92.924L36.535,93.883L36.827,93.834L36.827,94.004C36.827,94.098 36.789,94.174 36.744,94.174C36.698,94.174 36.66,94.137 36.66,94.091C36.66,94.045 36.627,94.008 36.586,94.008C36.545,94.008 36.517,94.101 36.523,94.216C36.53,94.33 36.582,94.424 36.639,94.424C36.785,94.424 36.769,94.591 36.606,94.772L36.468,94.924L36.585,94.924C36.959,94.924 37.266,95.562 36.931,95.642C36.805,95.673 36.657,95.733 36.601,95.776C36.546,95.82 36.462,95.831 36.414,95.802C36.366,95.772 36.327,95.806 36.327,95.878L36.327,96.008L36.761,96.008L36.665,95.758L37.038,95.758C37.457,95.758 37.458,95.758 37.283,96.095L37.156,96.341L37.283,96.587C37.353,96.722 37.41,96.988 37.41,97.178L37.41,97.523L37.244,97.567C37.047,97.618 37.041,97.662 37.205,97.878C37.38,98.109 37.356,98.395 37.149,98.54L36.971,98.664L37.668,99.457L37.643,99.705C37.63,99.841 37.578,99.966 37.528,99.983C37.473,100.001 37.452,99.92 37.474,99.77C37.52,99.458 37.395,99.384 37.154,99.58L36.963,99.734L36.928,100.412L37.202,100.31L37.088,100.449C37.026,100.526 36.998,100.648 37.025,100.721L37.076,100.852L37.4,100.75L37.49,100.918C37.54,101.011 37.674,101.18 37.787,101.294C37.901,101.407 37.994,101.574 37.994,101.665C37.994,101.763 38.07,101.854 38.181,101.889C38.284,101.921 38.418,102.018 38.477,102.103C38.537,102.188 38.657,102.258 38.743,102.258C38.83,102.258 38.922,102.292 38.948,102.334C39.039,102.481 40.422,103.091 40.665,103.091L40.91,103.091L40.91,103.252C40.91,103.34 40.97,103.472 41.044,103.546L41.178,103.68L41.29,103.587C41.46,103.446 41.598,103.578 41.537,103.821C41.473,104.078 41.612,104.188 41.876,104.088L42.064,104.016L42.533,104.15L43.001,104.283L43.244,104.104C43.686,103.777 44.281,103.964 44.84,104.604L45.062,104.859L45.674,104.974C46.01,105.037 46.379,105.107 46.493,105.129C46.608,105.151 46.788,105.182 46.893,105.198C46.997,105.214 47.165,105.308 47.264,105.408L47.445,105.589L47.354,105.68L47.263,105.772L46.982,105.625C46.828,105.544 46.603,105.485 46.483,105.493C46.363,105.501 46.218,105.452 46.16,105.383C46.05,105.25 45.743,105.209 45.743,105.328C45.743,105.367 45.43,105.395 45.047,105.39L44.35,105.382L43.755,105.669C43.026,106.021 42.996,106.145 43.557,106.484L43.83,106.649L44.618,106.263L45.562,106.257L45.728,106.611C45.819,106.805 45.919,107.175 45.948,107.432L46.002,107.9L45.711,108.038C45.551,108.114 45.389,108.171 45.352,108.165C45.315,108.159 45.229,108.159 45.16,108.166L45.035,108.178L45.308,108.386L44.779,108.386C44.488,108.386 44.183,108.36 44.101,108.327L44.101,108.328ZM45.473,107.849L45.577,107.841L45.576,107.404C45.574,106.819 45.513,106.625 45.302,106.531L45.124,106.452L44.711,106.603C44.119,106.819 43.969,107.259 44.372,107.594L44.497,107.697L44.648,107.561C44.731,107.486 44.824,107.449 44.854,107.48C44.954,107.579 44.914,107.654 44.735,107.701C44.435,107.779 44.65,107.923 45.018,107.889C45.211,107.872 45.415,107.854 45.473,107.849ZM44.94,107.299C44.859,107.088 44.978,106.91 45.181,106.939L45.368,106.966L45.421,107.424L45.205,107.424C45.086,107.424 44.967,107.368 44.94,107.299ZM44.352,107.204C44.32,107.12 44.36,107.023 44.456,106.953C44.735,106.749 44.942,106.964 44.7,107.206C44.528,107.378 44.419,107.377 44.352,107.204ZM40.435,106.882C40.407,106.741 40.184,106.742 40.129,106.884L40.078,107.019L40.265,106.993C40.368,106.978 40.444,106.929 40.435,106.883L40.435,106.882ZM40.775,106.628C40.633,106.412 40.494,106.359 40.494,106.521C40.494,106.646 40.766,106.914 40.847,106.867C40.881,106.848 40.848,106.74 40.775,106.628ZM39.327,106.799C39.327,106.776 39.308,106.757 39.285,106.757C39.262,106.757 39.244,106.776 39.244,106.799C39.244,106.822 39.262,106.841 39.285,106.841C39.308,106.841 39.327,106.822 39.327,106.799ZM42.019,106.583C42.129,106.693 42.41,106.704 42.41,106.599C42.41,106.557 42.491,106.544 42.59,106.57L42.77,106.617L42.628,106.382L42.91,106.611L42.91,106.486C42.91,106.418 42.854,106.315 42.785,106.257C42.716,106.2 42.66,106.046 42.66,105.914C42.66,105.644 42.618,105.621 42.443,105.796C42.292,105.947 42.101,105.881 42.028,105.652L41.973,105.479L42.253,105.274L42.16,105.216C42.074,105.162 41.651,105.209 41.313,105.307C40.976,105.406 41.054,106.27 41.41,106.382C41.628,106.451 41.628,106.589 41.41,106.532C41.319,106.508 41.244,106.528 41.244,106.575C41.244,106.719 41.522,106.739 41.732,106.612L41.928,106.492L42.019,106.583ZM42.077,106.171L42.077,106.002L42.246,106.092C42.426,106.189 42.396,106.341 42.197,106.341C42.131,106.341 42.077,106.264 42.077,106.171ZM41.427,106.157C41.372,106.102 41.327,105.971 41.327,105.866L41.327,105.674L41.526,105.674C41.761,105.674 41.861,105.871 41.74,106.097C41.641,106.283 41.566,106.297 41.427,106.157ZM41.138,106.624C41.11,106.596 41.038,106.593 40.978,106.617C40.911,106.643 40.931,106.663 41.028,106.667C41.116,106.671 41.165,106.651 41.138,106.623L41.138,106.624ZM43.049,106.535C43.018,106.505 42.993,106.529 42.993,106.591C42.993,106.652 43.018,106.677 43.049,106.646C43.08,106.616 43.08,106.566 43.049,106.535ZM35.032,106.513C35.093,106.414 34.937,106.315 34.826,106.383C34.732,106.441 34.794,106.591 34.91,106.591C34.951,106.591 35.005,106.556 35.032,106.513ZM40.409,106.208C40.41,106.022 40.141,105.721 40.052,105.81C40.023,105.839 40.039,105.937 40.088,106.029L40.177,106.194L40.085,106.138C40.035,106.107 39.994,106.119 39.994,106.165C39.994,106.211 40.059,106.288 40.139,106.334C40.22,106.381 40.255,106.42 40.218,106.422C40.181,106.423 40.176,106.466 40.207,106.517L40.264,106.609L40.336,106.496C40.375,106.433 40.408,106.304 40.409,106.208ZM38.624,106.125C38.594,106.006 38.608,105.863 38.654,105.807L38.738,105.705L38.323,105.556L37.908,105.406L37.327,105.682L37.327,105.845C37.327,105.941 37.384,106.007 37.466,106.007C37.542,106.007 37.581,106.032 37.551,106.061C37.522,106.09 37.235,106.05 36.913,105.972C36.36,105.838 36.16,105.846 36.16,106.003C36.16,106.105 36.459,106.164 36.586,106.085C36.647,106.047 36.742,106.055 36.8,106.103C36.857,106.151 37.215,106.202 37.595,106.218L38.285,106.247L37.619,106.114L38.327,106.091L38.327,106.216C38.327,106.287 38.402,106.341 38.503,106.341L38.678,106.341L38.624,106.125ZM39.387,106.004L39.387,105.668L39.295,105.698C39.161,105.742 39.13,106.079 39.247,106.22C39.385,106.387 39.387,106.383 39.387,106.004ZM39.744,106.024C39.744,105.85 39.789,105.662 39.844,105.607L39.944,105.507L39.849,105.507C39.592,105.507 39.423,105.894 39.544,106.209C39.635,106.447 39.744,106.347 39.744,106.024ZM40.547,105.858C40.358,105.669 40.305,105.772 40.469,106.007L40.608,106.205L40.644,106.098C40.663,106.039 40.62,105.931 40.547,105.858ZM35.869,105.924C35.897,105.878 35.865,105.841 35.797,105.841C35.729,105.841 35.605,105.819 35.521,105.792L35.369,105.744L35.53,105.876C35.718,106.029 35.797,106.04 35.869,105.924ZM35.114,105.764C34.971,105.626 34.533,105.62 34.619,105.757C34.647,105.803 34.788,105.841 34.932,105.841C35.092,105.841 35.163,105.811 35.114,105.764ZM40.766,105.43C40.821,105.218 40.543,104.924 40.287,104.924C39.974,104.924 39.517,104.611 39.419,104.329C39.37,104.19 39.255,104.056 39.162,104.032C39.069,104.008 38.989,103.955 38.983,103.914C38.977,103.874 38.968,103.794 38.962,103.737C38.957,103.679 38.872,103.621 38.775,103.607L38.598,103.582L38.68,104.008L38.369,104.006L38.619,103.844L38.517,103.843C38.461,103.842 38.437,103.786 38.463,103.718L38.511,103.594L38.253,103.447C38.111,103.366 37.994,103.253 37.994,103.196C37.992,102.853 37.223,102.536 36.919,102.752L36.693,102.913L36.593,102.752C36.471,102.558 36.197,102.541 36.127,102.724C36.035,102.964 36.075,103.092 36.242,103.092L36.406,103.092L36.244,103.519L36.33,103.68C36.377,103.769 36.499,103.84 36.601,103.839L36.785,103.836L36.591,103.674C36.482,103.583 36.424,103.471 36.457,103.416L36.517,103.32L36.593,103.456C36.705,103.658 36.809,103.62 36.766,103.393C36.745,103.284 36.769,103.169 36.819,103.138C36.876,103.103 36.91,103.16 36.91,103.289C36.91,103.404 36.944,103.585 36.985,103.693L37.059,103.889L37.665,103.93L37.609,103.698C37.577,103.564 37.585,103.496 37.628,103.536C37.668,103.574 37.702,103.649 37.702,103.703C37.702,103.756 37.824,103.836 37.973,103.879C38.226,103.954 38.347,104.091 38.16,104.091C38.114,104.091 38.077,104.181 38.077,104.291L38.077,104.49L38.264,104.535C38.367,104.559 38.632,104.605 38.852,104.637L39.253,104.695L39.38,104.889C39.527,105.113 39.961,105.386 40.349,105.498C40.727,105.608 40.719,105.609 40.766,105.43ZM38.014,103.633C37.866,103.464 37.883,103.442 38.122,103.488C38.239,103.51 38.321,103.568 38.304,103.617C38.258,103.755 38.129,103.762 38.014,103.633ZM37.16,103.549C37.104,103.482 37.082,103.365 37.11,103.291L37.162,103.155L37.286,103.258C37.424,103.373 37.449,103.557 37.336,103.627C37.296,103.652 37.216,103.617 37.16,103.549ZM39.577,105.466C39.577,105.443 39.558,105.424 39.535,105.424C39.512,105.424 39.494,105.443 39.494,105.466C39.494,105.489 39.512,105.507 39.535,105.507C39.558,105.507 39.577,105.489 39.577,105.466ZM43.41,105.06L43.41,104.587L43.181,104.497C43.055,104.448 42.805,104.387 42.627,104.361L42.301,104.315L42.085,104.611L41.769,104.542C41.594,104.504 41.405,104.477 41.349,104.481C41.292,104.485 41.263,104.46 41.285,104.425C41.306,104.39 41.184,104.268 41.013,104.154C40.842,104.039 40.608,103.789 40.494,103.598L40.285,103.249L39.966,103.288C39.547,103.339 39.525,103.373 39.736,103.643L39.915,103.87L39.716,103.993L40,104.167C40.157,104.262 40.352,104.34 40.434,104.341C40.515,104.341 40.602,104.394 40.627,104.458C40.652,104.523 40.773,104.601 40.895,104.632C41.018,104.662 41.179,104.742 41.253,104.808L41.387,104.929L41.612,104.843C41.736,104.796 41.962,104.758 42.114,104.758L42.39,104.758L42.832,105.336L43.41,105.06ZM34.223,105.013C34.598,104.741 34.696,104.623 34.596,104.561C34.483,104.491 33.706,104.957 33.676,105.112C33.635,105.328 33.84,105.291 34.223,105.013ZM37.66,105.019C37.66,104.905 37.016,104.508 36.742,104.453C36.356,104.376 36.45,104.524 36.974,104.817C37.461,105.09 37.66,105.148 37.66,105.019ZM43.627,104.78C43.542,104.696 43.473,104.823 43.542,104.936L43.607,105.041L43.642,104.936C43.662,104.878 43.655,104.808 43.627,104.78ZM44.66,104.928C44.66,104.793 44.298,104.501 44.163,104.527C44.094,104.541 43.965,104.48 43.878,104.392L43.718,104.233L43.606,104.386C43.447,104.603 43.466,104.695 43.649,104.597C43.848,104.49 43.92,104.564 43.858,104.812L43.809,105.008L44.234,105.008C44.469,105.008 44.66,104.972 44.66,104.928ZM36.494,104.758C36.494,104.712 36.477,104.675 36.457,104.675C36.437,104.675 36.397,104.712 36.369,104.758C36.34,104.804 36.357,104.841 36.405,104.841C36.454,104.841 36.494,104.804 36.494,104.758ZM34.882,104.536C34.852,104.505 34.802,104.505 34.771,104.536C34.741,104.566 34.766,104.591 34.827,104.591C34.888,104.591 34.913,104.566 34.882,104.536ZM35.529,104.294C35.762,104.06 35.429,103.79 34.989,103.855C34.526,103.924 34.571,104.251 35.055,104.345C35.228,104.378 35.375,104.41 35.383,104.415C35.392,104.42 35.457,104.366 35.529,104.294ZM35.16,104.175C35.16,104.129 35.198,104.091 35.244,104.091C35.289,104.091 35.327,104.129 35.327,104.175C35.327,104.22 35.289,104.258 35.244,104.258C35.198,104.258 35.16,104.22 35.16,104.175ZM35.494,103.208C35.494,103.141 35.547,103.002 35.612,102.901L35.731,102.716L35.685,102.32C35.659,102.103 35.609,101.925 35.572,101.925C35.535,101.925 35.439,101.859 35.358,101.779L35.211,101.633L35.267,101.78C35.297,101.86 35.278,102.023 35.224,102.142L35.126,102.357L35.47,102.633L35.059,103.216L35.093,102.904C35.136,102.506 35.019,102.494 34.945,102.889C34.885,103.208 34.938,103.305 35.202,103.36C35.414,103.405 35.494,103.363 35.494,103.208ZM34.744,103.3C34.744,103.277 34.725,103.258 34.702,103.258C34.679,103.258 34.66,103.277 34.66,103.3C34.66,103.322 34.679,103.341 34.702,103.341C34.725,103.341 34.744,103.322 34.744,103.3ZM33.744,103.178C33.744,103.135 33.698,103 33.643,102.879L33.543,102.659L33.489,102.813C33.459,102.897 33.476,103.032 33.526,103.112C33.625,103.27 33.744,103.306 33.744,103.178ZM34.633,102.979C34.614,102.926 34.67,102.763 34.758,102.616L34.919,102.349L34.535,102.425L34.319,102.162C34.107,101.904 33.847,101.89 33.944,102.141C33.968,102.205 33.952,102.258 33.908,102.258C33.863,102.258 33.827,102.202 33.827,102.133C33.827,102.064 33.766,102.008 33.692,102.008L33.558,102.008L33.603,102.154C33.694,102.442 33.871,102.885 33.937,102.987C34.056,103.174 34.159,103.097 34.065,102.891L33.974,102.691L34.119,102.255L34.488,102.513L34.302,102.92L34.407,103.046C34.522,103.184 34.691,103.135 34.633,102.979ZM39.123,102.94C39.095,102.85 38.963,102.731 38.83,102.676C38.697,102.621 38.524,102.504 38.445,102.417C38.3,102.257 37.91,102.195 37.91,102.331C37.91,102.437 38.46,102.841 38.604,102.841C38.67,102.841 38.814,102.913 38.922,103.001C39.149,103.185 39.196,103.17 39.123,102.94ZM38.577,102.716C38.577,102.693 38.596,102.675 38.619,102.675C38.641,102.675 38.66,102.693 38.66,102.716C38.66,102.739 38.641,102.758 38.619,102.758C38.596,102.758 38.577,102.739 38.577,102.716ZM35.967,102.576C35.941,102.509 35.921,102.529 35.917,102.626C35.913,102.714 35.933,102.763 35.961,102.735C35.988,102.708 35.991,102.636 35.967,102.576ZM36.244,102.25C36.244,102.086 36.032,101.941 35.935,102.039C35.906,102.067 35.927,102.187 35.98,102.304C36.088,102.539 36.244,102.508 36.244,102.25ZM35.91,102.383C35.91,102.36 35.891,102.341 35.869,102.341C35.846,102.341 35.827,102.36 35.827,102.383C35.827,102.406 35.846,102.425 35.869,102.425C35.891,102.425 35.91,102.406 35.91,102.383ZM35.087,102.258L35.035,101.716L34.538,101.716L34.481,102.007L34.602,101.961C34.676,101.933 34.739,101.98 34.767,102.087C34.791,102.181 34.873,102.258 34.949,102.258L35.087,102.258ZM37.994,102.094C37.994,102.049 37.937,102.035 37.869,102.061C37.8,102.087 37.744,102.124 37.744,102.142C37.744,102.16 37.8,102.175 37.869,102.175C37.937,102.175 37.994,102.138 37.994,102.094ZM37.73,101.892C37.745,101.813 37.734,101.688 37.706,101.614L37.654,101.479L37.525,101.664C37.384,101.865 37.431,102.126 37.598,102.07C37.655,102.051 37.714,101.971 37.73,101.892ZM34.714,101.442C34.629,101.424 34.523,101.446 34.478,101.49L34.398,101.571L34.869,101.475L34.714,101.442ZM36.299,101.536C36.269,101.505 36.219,101.505 36.188,101.536C36.157,101.566 36.182,101.591 36.244,101.591C36.305,101.591 36.33,101.566 36.299,101.536ZM37.103,101.442L37.239,101.292L37.054,101.302C36.64,101.326 36.381,101.591 36.772,101.591C36.88,101.591 37.029,101.524 37.103,101.442ZM35.613,101.361C36.017,101.244 35.946,100.998 35.535,101.09C35.489,101.1 35.414,101.116 35.369,101.126C35.138,101.174 34.91,101.276 34.91,101.333C34.91,101.517 35.057,101.523 35.613,101.361ZM35.202,100.675C35.174,100.629 35.068,100.594 34.968,100.597L34.785,100.603L34.952,100.675C35.181,100.773 35.263,100.773 35.202,100.675ZM36.031,100.585C36.001,100.536 36.054,100.545 36.15,100.604L36.324,100.713L36.445,100.59C36.512,100.522 36.589,100.354 36.617,100.216L36.669,99.966L36.383,100.466L36.345,100.355C36.325,100.293 36.35,100.202 36.401,100.151C36.517,100.034 36.526,99.478 36.41,99.55C36.364,99.578 36.327,99.711 36.327,99.846C36.327,99.981 36.285,100.091 36.235,100.091C36.184,100.091 36.164,100.146 36.189,100.214C36.215,100.281 36.194,100.362 36.143,100.394C36.016,100.472 35.744,100.118 35.744,99.874C35.744,99.764 35.706,99.675 35.66,99.675C35.614,99.675 35.577,99.804 35.577,99.961C35.577,100.119 35.614,100.271 35.66,100.3C35.706,100.328 35.744,100.424 35.744,100.513L35.744,100.675L35.915,100.675C36.016,100.675 36.064,100.638 36.031,100.585ZM35.41,100.378C35.41,100.307 35.373,100.271 35.327,100.3C35.281,100.328 35.244,100.386 35.244,100.43C35.244,100.473 35.281,100.508 35.327,100.508C35.373,100.508 35.41,100.449 35.41,100.378ZM35.365,100.097C35.391,100.054 35.369,99.992 35.315,99.959C35.256,99.923 35.24,99.935 35.274,99.99L35.33,100.081L34.702,100.147L35.01,100.161C35.179,100.169 35.339,100.14 35.365,100.097ZM36.159,99.612L36.158,99.216L36.077,99.341C35.944,99.547 35.983,100.008 36.132,100.008C36.148,100.008 36.16,99.83 36.159,99.612ZM34.632,99.202C34.602,99.171 34.577,99.196 34.577,99.258C34.577,99.319 34.602,99.344 34.632,99.313C34.663,99.283 34.663,99.233 34.632,99.202ZM35.132,99.202C35.102,99.171 35.077,99.196 35.077,99.258C35.077,99.319 35.102,99.344 35.132,99.313C35.163,99.283 35.163,99.233 35.132,99.202ZM36.952,99.091C36.924,99.045 36.863,99.008 36.817,99.008C36.771,99.008 36.757,99.045 36.785,99.091C36.814,99.137 36.874,99.174 36.92,99.174C36.966,99.174 36.98,99.137 36.952,99.091ZM34.678,98.612C34.753,98.532 34.874,98.418 34.946,98.358C35.096,98.235 35.119,98.091 34.989,98.091C34.94,98.091 34.925,98.131 34.955,98.18C34.986,98.229 34.96,98.26 34.898,98.248C34.754,98.222 34.16,98.515 34.16,98.611C34.16,98.651 34.195,98.662 34.238,98.636C34.281,98.61 34.339,98.626 34.368,98.673C34.442,98.794 34.52,98.778 34.678,98.612ZM34.494,98.633C34.494,98.61 34.512,98.591 34.535,98.591C34.558,98.591 34.577,98.61 34.577,98.633C34.577,98.655 34.558,98.674 34.535,98.674C34.512,98.674 34.494,98.655 34.494,98.633ZM36.192,98.303C36.128,98.138 35.91,98.241 35.91,98.436L35.91,98.597L36.074,98.509C36.166,98.46 36.217,98.37 36.192,98.303ZM35.518,98.134C35.497,97.848 35.456,97.805 35.27,97.877L35.123,97.933L35.236,98.003C35.298,98.041 35.323,98.114 35.291,98.165C35.216,98.286 35.315,98.443 35.439,98.399C35.492,98.38 35.528,98.261 35.518,98.134ZM37.132,98.285C37.102,98.255 37.052,98.255 37.021,98.285C36.991,98.316 37.016,98.341 37.077,98.341C37.138,98.341 37.163,98.316 37.132,98.285ZM36.498,98.07C36.589,97.961 36.656,97.928 36.657,97.992C36.659,98.052 36.7,98.076 36.748,98.047C36.796,98.017 36.824,97.927 36.81,97.846C36.78,97.672 36.967,97.424 37.129,97.424C37.192,97.424 37.244,97.349 37.244,97.258C37.244,97.013 37.138,97.05 36.704,97.445L36.315,97.799L36.291,98.028C36.261,98.306 36.295,98.313 36.498,98.07ZM37.16,98.054C37.16,98.034 37.117,97.991 37.064,97.958C37.004,97.921 36.99,97.935 37.027,97.995C37.087,98.091 37.16,98.124 37.16,98.054ZM33.994,97.935C33.994,97.842 33.505,97.741 33.393,97.81C33.27,97.886 33.494,98.005 33.764,98.006C33.89,98.007 33.994,97.975 33.994,97.935ZM34.244,97.466C34.244,97.443 34.225,97.424 34.202,97.424C34.179,97.424 34.16,97.443 34.16,97.466C34.16,97.489 34.179,97.508 34.202,97.508C34.225,97.508 34.244,97.489 34.244,97.466ZM33.701,97.342C33.731,97.295 33.697,97.281 33.623,97.309C33.479,97.365 33.452,97.424 33.572,97.424C33.615,97.424 33.673,97.387 33.701,97.342ZM34.66,97.174C34.66,97.128 34.7,97.091 34.749,97.091C34.797,97.091 34.814,97.128 34.785,97.174C34.757,97.22 34.788,97.258 34.855,97.258C35.001,97.258 35.09,97.056 35.022,96.878L34.973,96.749L35.429,96.864L35.374,96.693C35.345,96.599 35.358,96.499 35.403,96.47C35.524,96.396 35.425,96.197 35.244,96.15C35.039,96.096 34.733,96.383 34.802,96.564L34.855,96.702L34.759,96.642C34.601,96.545 34.327,96.747 34.327,96.962C34.327,97.14 34.413,97.232 34.598,97.251C34.632,97.255 34.66,97.22 34.66,97.174ZM34.452,97.008C34.424,96.962 34.44,96.924 34.489,96.924C34.537,96.924 34.577,96.962 34.577,97.008C34.577,97.053 34.56,97.091 34.54,97.091C34.52,97.091 34.48,97.053 34.452,97.008ZM34.744,96.924C34.744,96.863 34.769,96.838 34.799,96.869C34.83,96.899 34.83,96.949 34.799,96.98C34.769,97.01 34.744,96.985 34.744,96.924ZM34.91,96.466C34.91,96.443 34.929,96.424 34.952,96.424C34.975,96.424 34.994,96.443 34.994,96.466C34.994,96.489 34.975,96.508 34.952,96.508C34.929,96.508 34.91,96.489 34.91,96.466ZM33.996,96.96C34.103,96.678 34.105,96.683 33.886,96.706C33.371,96.761 33.345,97.089 33.85,97.165C33.885,97.17 33.951,97.078 33.996,96.96ZM33.91,96.799C33.91,96.776 33.929,96.758 33.952,96.758C33.975,96.758 33.994,96.776 33.994,96.799C33.994,96.822 33.975,96.841 33.952,96.841C33.929,96.841 33.91,96.822 33.91,96.799ZM35.91,96.883C35.91,96.86 35.891,96.841 35.869,96.841C35.846,96.841 35.827,96.86 35.827,96.883C35.827,96.906 35.846,96.924 35.869,96.924C35.891,96.924 35.91,96.906 35.91,96.883ZM36.609,96.606C36.633,96.568 36.579,96.475 36.489,96.398L36.327,96.259L36.327,96.467C36.327,96.666 36.515,96.759 36.609,96.606ZM34.035,96.508C34.065,96.459 33.989,96.427 33.853,96.43L33.619,96.436L33.785,96.508C33.877,96.547 33.959,96.582 33.968,96.585C33.977,96.588 34.007,96.553 34.035,96.508ZM36.827,96.466C36.827,96.443 36.808,96.424 36.785,96.424C36.762,96.424 36.744,96.443 36.744,96.466C36.744,96.489 36.762,96.508 36.785,96.508C36.808,96.508 36.827,96.489 36.827,96.466ZM34.861,96.048C34.891,95.931 34.882,95.775 34.841,95.702L34.766,95.569L34.709,95.876C34.677,96.045 34.597,96.204 34.531,96.229C34.465,96.254 34.432,96.309 34.457,96.35C34.536,96.477 34.804,96.276 34.861,96.048ZM34.16,96.299C34.16,96.276 34.142,96.258 34.119,96.258C34.096,96.258 34.077,96.276 34.077,96.299C34.077,96.322 34.096,96.341 34.119,96.341C34.142,96.341 34.16,96.322 34.16,96.299ZM33.91,96.216C33.91,96.193 33.892,96.174 33.869,96.174C33.846,96.174 33.827,96.193 33.827,96.216C33.827,96.239 33.846,96.258 33.869,96.258C33.892,96.258 33.91,96.239 33.91,96.216ZM36.632,96.202C36.602,96.171 36.552,96.171 36.521,96.202C36.491,96.233 36.516,96.258 36.577,96.258C36.638,96.258 36.663,96.233 36.632,96.202ZM34.483,95.721L34.572,95.394L34.238,95.076C33.835,94.693 33.753,94.67 33.994,95.008C34.092,95.146 34.204,95.371 34.244,95.508L34.315,95.758L34.119,95.771L34.223,95.813C34.28,95.836 34.327,95.91 34.327,95.978C34.327,96.05 34.287,96.076 34.231,96.041L34.135,95.982L34.198,96.085C34.286,96.227 34.378,96.11 34.483,95.722L34.483,95.721ZM35.494,96.013C35.494,95.97 35.419,95.912 35.327,95.883C35.234,95.853 35.16,95.757 35.16,95.665L35.16,95.5L35.435,95.549L35.45,95.362C35.459,95.259 35.434,95.174 35.396,95.174C35.358,95.174 35.327,95.097 35.327,95.003C35.327,94.908 35.364,94.854 35.41,94.883C35.456,94.911 35.494,94.873 35.494,94.799C35.494,94.725 35.456,94.688 35.41,94.716C35.364,94.744 35.327,94.732 35.327,94.688C35.327,94.565 35.067,94.495 34.956,94.588L34.856,94.671L34.571,94.589C34.414,94.544 34.277,94.508 34.265,94.508C34.253,94.508 34.244,94.574 34.244,94.656C34.244,94.877 34.494,95.192 34.628,95.141C34.805,95.073 35.16,95.236 35.16,95.385C35.16,95.458 35.121,95.493 35.074,95.464L34.987,95.41L35.039,95.646C35.067,95.776 35.105,95.929 35.123,95.987C35.16,96.107 35.494,96.13 35.494,96.013ZM34.892,95.044C34.805,94.958 34.929,94.674 35.054,94.674L35.178,94.674L35.128,94.806C35.1,94.879 35.077,94.972 35.077,95.014C35.077,95.099 34.964,95.117 34.892,95.044ZM34.619,94.841C34.647,94.795 34.687,94.758 34.707,94.758C34.727,94.758 34.744,94.795 34.744,94.841C34.744,94.887 34.704,94.924 34.655,94.924C34.607,94.924 34.59,94.887 34.619,94.841ZM34.091,95.319L33.833,95.061L33.78,95.201C33.75,95.277 33.699,95.323 33.667,95.303C33.634,95.283 33.625,95.386 33.646,95.533L33.685,95.799L33.815,95.466L33.821,95.681C33.831,96.046 33.948,96.04 34.022,95.67L34.091,95.319ZM36.16,95.72C36.16,95.664 36.134,95.593 36.103,95.561C36.071,95.53 36.05,95.308 36.055,95.068L36.064,94.633L35.954,95.049C35.893,95.278 35.839,95.566 35.835,95.687L35.827,95.909L35.994,95.865C36.085,95.841 36.16,95.776 36.16,95.72ZM36.466,95.619C36.435,95.588 36.385,95.588 36.355,95.619C36.324,95.649 36.349,95.674 36.41,95.674C36.471,95.674 36.496,95.649 36.466,95.619ZM33.744,95.008C33.744,94.962 33.727,94.924 33.707,94.924C33.687,94.924 33.647,94.962 33.619,95.008C33.59,95.053 33.607,95.091 33.655,95.091C33.704,95.091 33.744,95.053 33.744,95.008ZM36.598,95.036C36.54,95.013 36.447,95.013 36.389,95.036C36.332,95.059 36.379,95.078 36.494,95.078C36.608,95.078 36.655,95.059 36.598,95.036ZM34.114,94.547C34.203,94.479 34.4,94.424 34.551,94.424L34.827,94.424L34.822,94.278C34.817,94.141 34.141,93.508 33.999,93.508C33.963,93.508 33.938,93.573 33.943,93.653C33.958,93.862 34.137,94.142 34.209,94.07C34.277,94.002 34.494,94.153 34.494,94.268C34.494,94.308 34.4,94.341 34.285,94.341C34.171,94.341 34.077,94.303 34.077,94.258C34.077,94.212 33.997,94.174 33.9,94.174L33.723,94.174L33.918,94.409L33.831,94.463C33.71,94.538 33.721,94.675 33.848,94.672C33.905,94.67 34.025,94.614 34.114,94.547ZM35.16,94.304C35.16,94.179 35.011,94.046 34.944,94.112C34.886,94.17 35.001,94.424 35.086,94.424C35.127,94.424 35.16,94.37 35.16,94.304ZM35.572,93.978L35.469,93.883L35.523,94.035C35.553,94.119 35.581,94.232 35.587,94.285C35.592,94.339 35.614,94.313 35.636,94.228C35.658,94.143 35.629,94.03 35.572,93.978ZM35.494,94.174C35.494,94.128 35.456,94.091 35.41,94.091C35.364,94.091 35.327,94.128 35.327,94.174C35.327,94.22 35.364,94.258 35.41,94.258C35.456,94.258 35.494,94.22 35.494,94.174ZM35.994,94.133L35.89,94.008L35.989,94.008C36.115,94.008 36.069,93.657 35.937,93.614C35.884,93.596 35.826,93.668 35.81,93.774C35.778,93.978 35.902,94.258 36.024,94.258C36.064,94.258 36.051,94.201 35.994,94.133ZM34.994,93.934C34.994,93.894 34.903,93.843 34.793,93.822L34.592,93.784L34.635,93.896C34.682,94.019 34.994,94.052 34.994,93.934ZM35.66,93.799C35.66,93.776 35.641,93.758 35.619,93.758C35.596,93.758 35.577,93.776 35.577,93.799C35.577,93.822 35.596,93.841 35.619,93.841C35.641,93.841 35.66,93.822 35.66,93.799ZM34.452,93.508C34.424,93.462 34.344,93.424 34.275,93.424C34.207,93.424 34.174,93.387 34.202,93.341C34.23,93.295 34.217,93.258 34.172,93.258C34.127,93.258 34.031,93.235 33.959,93.207C33.733,93.121 33.814,93.325 34.056,93.453C34.329,93.597 34.524,93.624 34.452,93.508ZM35.744,93.383C35.744,93.36 35.725,93.341 35.702,93.341C35.679,93.341 35.66,93.36 35.66,93.383C35.66,93.406 35.679,93.424 35.702,93.424C35.725,93.424 35.744,93.406 35.744,93.383ZM36.154,91.78C36.145,91.013 36.104,90.272 36.063,90.134C36.022,89.996 35.966,89.468 35.938,88.961L35.886,88.039L36.08,87.461C36.297,86.815 36.303,86.614 36.117,86.255C35.919,85.872 35.779,85.947 35.662,86.499L35.558,86.99L35.615,88.228C35.647,88.909 35.707,89.766 35.749,90.133C35.791,90.499 35.826,91.334 35.826,91.987L35.827,93.174L36.17,93.174L36.154,91.78ZM36.455,89.464C36.205,88.851 36.149,88.814 36.212,89.306C36.258,89.669 36.411,89.924 36.584,89.924C36.615,89.924 36.557,89.717 36.455,89.464ZM36.793,86.706L36.844,86.433L36.542,85.633L35.632,84.752L35.546,84.838C35.499,84.886 35.374,84.924 35.269,84.924C35.163,84.924 35.077,84.962 35.077,85.008C35.077,85.054 35.187,85.091 35.321,85.091C35.629,85.091 36.012,85.41 36.306,85.911L36.532,86.297L36.532,87.265L36.637,87.122C36.694,87.043 36.764,86.856 36.793,86.706ZM35.569,85.814L35.577,85.412L35.285,85.472L35.297,85.905C35.303,86.143 35.336,86.404 35.371,86.485L35.433,86.633L35.497,86.424C35.532,86.31 35.564,86.035 35.569,85.814ZM35.445,84.612C35.479,84.578 35.551,84.549 35.603,84.549C35.698,84.549 35.789,84.206 35.869,83.549L35.909,83.216L35.757,83.677C35.575,84.228 35.365,84.568 35.175,84.618L35.035,84.655L35.209,84.665C35.304,84.67 35.411,84.646 35.445,84.612ZM33.977,84.124L33.788,83.803L33.785,82.772L33.967,82.577C34.067,82.47 34.191,82.274 34.241,82.14L34.333,81.897L34.167,81.732L34.025,81.849C33.946,81.913 33.776,82.133 33.646,82.337L33.41,82.707L33.41,83.144C33.41,83.679 33.488,83.885 33.824,84.247C34.153,84.6 34.225,84.543 33.977,84.124ZM35.304,76.708C35.277,76.68 35.205,76.677 35.145,76.701C35.078,76.728 35.098,76.747 35.195,76.751C35.283,76.755 35.332,76.735 35.304,76.708ZM34.985,76.412C35.096,76.095 35.1,76.008 35.004,76.008C34.963,76.008 34.892,76.158 34.846,76.341C34.746,76.736 34.854,76.79 34.985,76.412ZM35.244,76.466C35.244,76.443 35.225,76.425 35.202,76.425C35.179,76.425 35.16,76.443 35.16,76.466C35.16,76.489 35.179,76.508 35.202,76.508C35.225,76.508 35.244,76.489 35.244,76.466ZM35.549,76.286C35.519,76.255 35.469,76.255 35.438,76.286C35.407,76.316 35.432,76.341 35.494,76.341C35.555,76.341 35.58,76.316 35.549,76.286ZM35.91,75.976C35.91,75.958 35.835,75.924 35.743,75.9C35.652,75.876 35.598,75.891 35.623,75.932C35.668,76.005 35.91,76.042 35.91,75.976ZM35.132,75.702C35.102,75.672 35.077,75.697 35.077,75.758C35.077,75.819 35.102,75.844 35.132,75.813C35.163,75.783 35.163,75.733 35.132,75.702ZM35.244,75.466C35.244,75.443 35.225,75.425 35.202,75.425C35.179,75.425 35.16,75.443 35.16,75.466C35.16,75.489 35.179,75.508 35.202,75.508C35.225,75.508 35.244,75.489 35.244,75.466ZM36.29,75.293L36.452,75.161L36.285,75.22C36.194,75.252 36.006,75.308 35.869,75.343L35.619,75.408L35.873,75.416C36.014,75.421 36.201,75.365 36.29,75.293ZM35.403,74.925L35.399,74.8L35.327,74.966C35.228,75.195 35.228,75.327 35.327,75.175C35.371,75.106 35.406,74.993 35.403,74.925ZM36.33,75.006C36.842,74.745 36.719,74.657 36.181,74.9C35.601,75.161 35.584,75.175 35.816,75.175C35.917,75.175 36.149,75.099 36.33,75.006ZM36.377,74.603C36.753,74.328 37.056,74.008 36.939,74.008C36.896,74.008 36.731,74.141 36.574,74.303C36.412,74.47 36.125,74.648 35.912,74.714L35.535,74.83L35.794,74.835C35.953,74.839 36.176,74.75 36.377,74.603ZM36.871,72.563C37.03,72.245 37.16,71.895 37.16,71.784C37.16,71.521 37.021,71.609 36.954,71.914C36.926,72.044 36.735,72.444 36.531,72.802C36.327,73.16 36.16,73.472 36.16,73.495C36.16,73.658 36.635,73.036 36.871,72.563ZM36.448,72.695C36.711,72.299 36.996,71.476 36.987,71.141L36.98,70.883L36.787,71.491C36.681,71.826 36.503,72.238 36.392,72.408C36.281,72.577 36.166,72.782 36.136,72.862C36.04,73.121 36.235,73.017 36.448,72.695ZM36.575,71.621C36.675,71.294 36.74,70.867 36.734,70.562L36.724,70.05L36.612,70.868C36.551,71.317 36.443,71.801 36.372,71.943C36.222,72.244 36.215,72.286 36.325,72.218C36.369,72.19 36.482,71.921 36.575,71.621ZM36.403,71.421C36.579,70.603 36.466,69.447 36.183,69.164L36.086,69.067L36.032,69.283C36.002,69.402 36.019,69.69 36.069,69.924C36.119,70.158 36.16,70.46 36.16,70.595C36.16,70.731 36.198,70.841 36.244,70.841C36.353,70.841 36.351,71.474 36.241,71.68C36.189,71.777 36.186,71.841 36.234,71.841C36.277,71.841 36.354,71.652 36.403,71.421ZM36.249,70.128C36.196,69.822 36.168,69.555 36.188,69.535C36.208,69.515 36.268,69.749 36.322,70.055C36.375,70.361 36.402,70.627 36.382,70.647C36.362,70.667 36.302,70.434 36.249,70.128ZM36.077,69.341C36.077,69.28 36.102,69.255 36.132,69.286C36.163,69.316 36.163,69.366 36.132,69.397C36.102,69.427 36.077,69.403 36.077,69.341ZM36.215,71.154C36.192,71.097 36.173,71.143 36.173,71.258C36.173,71.373 36.192,71.419 36.215,71.362C36.239,71.305 36.239,71.211 36.215,71.154ZM35.903,69.956C35.785,69.472 35.634,69.257 35.707,69.677C35.768,70.024 35.919,70.444 35.967,70.396C35.986,70.377 35.957,70.179 35.903,69.956ZM35.551,69.114C35.53,69.033 35.512,69.079 35.51,69.216C35.508,69.354 35.525,69.42 35.548,69.364C35.571,69.307 35.572,69.195 35.551,69.114ZM35.716,69.036C35.685,69.005 35.66,69.03 35.66,69.091C35.66,69.152 35.685,69.177 35.716,69.147C35.746,69.116 35.746,69.066 35.716,69.036ZM35.379,68.05C35.341,67.939 35.159,68.587 35.168,68.8C35.172,68.891 35.227,68.779 35.291,68.55C35.355,68.321 35.394,68.096 35.379,68.05ZM35.799,68.619C35.769,68.589 35.744,68.614 35.744,68.675C35.744,68.736 35.769,68.761 35.799,68.73C35.83,68.7 35.83,68.65 35.799,68.619ZM35.12,67.857C35.061,67.798 34.909,68.246 34.918,68.451C34.924,68.563 34.971,68.492 35.043,68.264C35.106,68.061 35.141,67.878 35.12,67.857ZM34.938,67.508C34.868,67.437 34.66,67.781 34.664,67.961L34.667,68.133L34.823,67.841C34.908,67.681 34.96,67.531 34.938,67.508ZM34.299,67.203C34.269,67.172 34.244,67.197 34.244,67.258C34.244,67.319 34.269,67.344 34.299,67.314C34.33,67.283 34.33,67.233 34.299,67.203ZM34.195,66.758L34.335,66.466L34.164,66.663C34.07,66.771 33.994,66.918 33.994,66.99C33.994,67.153 34.022,67.12 34.195,66.758ZM34.66,67.05C34.66,67.027 34.642,67.008 34.619,67.008C34.596,67.008 34.577,67.027 34.577,67.05C34.577,67.073 34.596,67.091 34.619,67.091C34.642,67.091 34.66,67.073 34.66,67.05ZM34.535,66.758C34.564,66.712 34.547,66.675 34.499,66.675C34.45,66.675 34.41,66.712 34.41,66.758C34.41,66.804 34.427,66.841 34.447,66.841C34.467,66.841 34.507,66.804 34.535,66.758ZM34.146,66.503C34.252,66.368 34.305,66.258 34.263,66.258C34.185,66.258 33.985,66.463 33.876,66.654C33.763,66.853 33.953,66.747 34.146,66.503ZM34.124,66.111C34.064,66.051 33.917,66.173 33.816,66.367L33.721,66.55L33.94,66.348C34.061,66.237 34.144,66.13 34.124,66.111ZM33.775,65.879C33.804,65.805 33.79,65.771 33.743,65.8C33.697,65.828 33.66,65.887 33.66,65.93C33.66,66.05 33.72,66.023 33.775,65.879ZM34.223,65.836L34.119,65.664L34.306,65.51C34.546,65.314 34.542,65.258 34.292,65.258C34.181,65.258 34.078,65.22 34.063,65.173C34.046,65.124 33.958,65.143 33.847,65.22C33.59,65.4 33.61,65.545 33.869,65.375C34.094,65.228 34.125,65.262 33.992,65.512L33.906,65.671L34.075,65.839C34.292,66.056 34.357,66.055 34.223,65.836ZM34.827,65.736C34.992,65.732 35.075,65.597 35.07,65.341L35.065,65.133L34.922,65.466L34.895,65.05L34.818,65.316C34.73,65.622 34.588,65.743 34.495,65.593L34.431,65.49L34.374,65.583C34.287,65.723 34.41,65.86 34.565,65.795C34.64,65.764 34.758,65.737 34.827,65.736ZM34.827,65.591C34.827,65.53 34.852,65.505 34.882,65.536C34.913,65.566 34.913,65.616 34.882,65.647C34.852,65.678 34.827,65.653 34.827,65.591ZM34.744,65.271C34.744,65.186 34.667,65.048 34.574,64.964L34.405,64.811L34.125,65.091L34.509,65.091L34.553,65.258C34.608,65.467 34.744,65.477 34.744,65.271ZM34.081,64.881C34.349,64.742 34.392,64.675 34.211,64.675C34.089,64.675 33.653,65.001 33.769,65.005C33.805,65.007 33.946,64.951 34.081,64.881ZM45.793,108.245C45.817,108.206 45.892,108.174 45.961,108.174C46.029,108.174 46.257,108.004 46.469,107.795L46.853,107.417L47.368,107.466L47.346,107.132C47.333,106.949 47.343,106.716 47.368,106.614L47.412,106.428L47.952,106.289L47.976,106.086C48.043,105.523 48.387,105.323 48.34,105.874L48.313,106.185L48.507,106.471C48.614,106.628 48.73,106.757 48.764,106.757C48.875,106.758 48.831,106.566 48.681,106.401L48.535,106.24L48.875,106.297L49.515,105.658L49.775,105.698C49.918,105.72 50.1,105.704 50.179,105.662C50.368,105.563 50.743,105.66 50.743,105.808C50.743,105.872 50.781,105.924 50.827,105.924C50.872,105.924 50.91,105.887 50.91,105.841C50.91,105.795 50.971,105.757 51.045,105.757L51.179,105.757L50.905,106.176L51.119,106.391C51.246,106.518 51.386,106.586 51.462,106.557C51.533,106.53 51.647,106.507 51.717,106.507L51.844,106.507L51.786,106.362C51.646,106.013 51.656,105.983 51.827,106.237L52.01,106.507L52.474,106.507L52.524,106.32C52.62,105.963 52.58,105.858 52.312,105.765L52.047,105.672L52.427,105.318L52.969,105.576L53.023,105.97C53.052,106.187 53.037,106.511 52.989,106.69L52.902,107.015L52.368,107.34L51.784,107.34C51.463,107.341 51.07,107.379 50.909,107.426C50.576,107.523 49.414,107.441 49.59,107.333L49.701,107.264L49.374,107.025L49.172,107.102C49.061,107.144 48.774,107.358 48.535,107.577C48.291,107.799 47.948,108.019 47.755,108.077L47.411,108.18L47.257,108.098C47.161,108.047 46.994,108.043 46.819,108.089C46.236,108.24 45.75,108.314 45.793,108.245ZM48.075,107.175L48.229,107.093L48.132,106.884C48.079,106.769 48.005,106.675 47.968,106.675C47.931,106.674 47.923,106.637 47.952,106.591C47.98,106.545 47.926,106.507 47.832,106.507C47.737,106.507 47.66,106.545 47.66,106.591C47.66,106.637 47.707,106.675 47.764,106.675L47.868,106.676L47.625,106.83L47.768,106.988C47.846,107.075 47.885,107.171 47.855,107.201C47.772,107.284 47.899,107.269 48.075,107.175ZM50.91,106.966C50.91,106.943 50.891,106.924 50.868,106.924C50.845,106.924 50.827,106.943 50.827,106.966C50.827,106.989 50.845,107.007 50.868,107.007C50.891,107.007 50.91,106.989 50.91,106.966ZM51.104,106.646C51.135,106.677 51.16,106.664 51.16,106.619C51.16,106.468 51.063,106.433 50.86,106.511L50.66,106.587L50.66,106.477C50.66,106.416 50.59,106.304 50.505,106.227L50.351,106.086L50.249,106.209C50.193,106.276 50.159,106.418 50.174,106.524L50.202,106.716L50.428,106.72C50.552,106.722 50.68,106.75 50.713,106.782C50.745,106.815 50.834,106.784 50.91,106.716C50.986,106.647 51.074,106.616 51.104,106.646ZM49.758,106.174C49.775,105.991 49.763,105.841 49.731,105.841C49.646,105.841 49.326,106.263 49.328,106.373C49.329,106.424 49.364,106.411 49.407,106.343L49.484,106.22L49.539,106.364C49.632,106.605 49.724,106.525 49.758,106.174ZM49.882,106.369C49.852,106.338 49.827,106.363 49.827,106.424C49.827,106.485 49.852,106.51 49.882,106.48C49.913,106.449 49.913,106.399 49.882,106.368L49.882,106.369ZM50.746,106.095C50.695,106.001 50.597,105.924 50.527,105.924C50.392,105.924 50.426,106.025 50.65,106.285C50.807,106.468 50.874,106.336 50.746,106.095ZM50.189,106.041C50.362,105.803 50.309,105.675 50.094,105.811C49.947,105.902 49.845,106.259 49.967,106.255C50.004,106.254 50.104,106.157 50.189,106.041ZM41.438,108.202C41.468,108.171 41.518,108.171 41.549,108.202C41.58,108.232 41.555,108.257 41.493,108.257C41.432,108.257 41.407,108.232 41.438,108.202ZM52.535,107.982C52.939,107.687 53.352,107.198 53.447,106.905L53.535,106.632L54.368,106.576C54.827,106.545 55.839,106.478 56.618,106.427C57.397,106.375 58.897,106.235 59.952,106.115C61.006,105.995 61.962,105.907 62.076,105.921C62.191,105.934 73.403,105.936 86.993,105.926L175.381,105.906L175.547,105.803C175.639,105.747 175.827,105.673 175.964,105.64C176.102,105.606 176.327,105.527 176.464,105.464C176.869,105.279 177.71,105.091 178.101,105.098L178.464,105.104L178.21,105.201C178.071,105.255 177.827,105.396 177.669,105.514C177.51,105.632 177.214,105.848 177.01,105.993L176.64,106.257L177.52,106.257L177.485,106.362C177.467,106.419 177.221,106.549 176.939,106.65C176.298,106.88 176.043,107.039 175.667,107.44L175.371,107.757L162.459,107.765C140.341,107.779 53.187,107.947 53.041,108.093C52.996,108.138 52.808,108.172 52.623,108.169L52.285,108.164L52.535,107.982ZM59.16,107.174C59.16,107.128 59.101,107.091 59.03,107.091C58.959,107.091 58.923,107.128 58.952,107.174C58.98,107.22 59.038,107.257 59.081,107.257C59.125,107.257 59.16,107.22 59.16,107.174ZM56.493,107.049C57.387,106.981 58.456,106.883 58.868,106.831C59.281,106.779 59.768,106.724 59.952,106.708C60.135,106.692 60.51,106.65 60.785,106.614C61.248,106.554 167.034,106.519 173.075,106.574L175.769,106.598L176.103,106.296C176.287,106.13 176.61,105.885 176.821,105.751C177.319,105.435 177.227,105.444 176.344,105.797L175.621,106.087L173.984,106.269L62.118,106.216L60.54,106.406C59.672,106.51 58.885,106.613 58.79,106.635C58.534,106.695 55.122,106.923 54.475,106.923L53.915,106.924L54.011,107.174L54.44,107.173C54.675,107.173 55.6,107.117 56.493,107.049ZM59.66,107.091C59.66,107.045 59.622,107.007 59.577,107.007C59.531,107.007 59.493,107.045 59.493,107.091C59.493,107.136 59.531,107.174 59.577,107.174C59.622,107.174 59.66,107.136 59.66,107.091ZM60.243,107.091C60.243,107.045 60.187,107.007 60.118,107.007C60.049,107.007 59.993,107.045 59.993,107.091C59.993,107.136 60.049,107.174 60.118,107.174C60.187,107.174 60.243,107.136 60.243,107.091ZM60.702,107.007C60.73,106.962 60.695,106.924 60.623,106.924C60.552,106.924 60.493,106.962 60.493,107.007C60.493,107.053 60.528,107.091 60.572,107.091C60.615,107.091 60.673,107.053 60.702,107.007ZM61.077,106.924C61.077,106.878 61.037,106.841 60.988,106.841C60.94,106.841 60.923,106.878 60.952,106.924C60.98,106.97 61.02,107.007 61.04,107.007C61.06,107.007 61.077,106.97 61.077,106.924ZM162.693,106.945C155.807,106.933 80.858,106.933 73.972,106.945C67.086,106.957 72.72,106.966 86.493,106.966C100.265,106.966 169.58,106.956 162.693,106.945ZM176.506,106.632L176.714,106.513L176.537,106.51C176.439,106.508 176.313,106.564 176.256,106.632C176.126,106.788 176.233,106.788 176.506,106.632ZM48.91,107.549C48.91,107.526 48.929,107.507 48.952,107.507C48.975,107.507 48.993,107.526 48.993,107.549C48.993,107.572 48.975,107.591 48.952,107.591C48.929,107.591 48.91,107.572 48.91,107.549ZM46.743,105.716C46.743,105.693 46.762,105.674 46.785,105.674C46.808,105.674 46.827,105.693 46.827,105.716C46.827,105.739 46.808,105.757 46.785,105.757C46.762,105.757 46.743,105.739 46.743,105.716ZM37.917,100.876C37.921,100.778 37.941,100.759 37.967,100.825C37.991,100.885 37.988,100.957 37.961,100.985C37.933,101.013 37.913,100.963 37.917,100.876ZM177.8,98.619L177.748,89.135L177.661,89.106C177.614,89.09 177.575,88.989 177.575,88.88L177.575,88.684L178.247,88.033C178.617,87.675 178.992,87.244 179.08,87.074L179.241,86.764L179.24,80.699L179.24,74.633L179.036,74.195C178.924,73.955 178.81,73.758 178.783,73.758C178.756,73.758 178.739,76.69 178.745,80.274L178.757,86.79L178.249,87.147L177.741,87.503L177.737,86.86C177.735,86.506 177.713,85.675 177.687,85.014L177.64,83.812L177.283,83.499L177.658,83.602L177.658,83.006L177.495,83.108C177.235,83.27 177.176,83.095 177.429,82.911C177.677,82.73 177.726,82.591 177.542,82.591L177.427,82.591L177.546,82.247C177.611,82.058 177.644,81.883 177.619,81.858C177.595,81.834 177.574,81.857 177.574,81.911C177.574,81.964 177.515,82.008 177.443,82.008L177.311,82.008L177.484,81.727C177.58,81.573 177.658,81.353 177.658,81.239L177.658,81.031L177.219,81.115L177.257,81.001C177.278,80.939 177.386,80.862 177.497,80.831L177.699,80.774L177.47,80.766C177.213,80.757 177.15,80.591 177.403,80.591C177.634,80.591 177.696,80.442 177.478,80.41C177.378,80.395 177.28,80.336 177.262,80.279L177.227,80.175L177.443,80.175C177.561,80.175 177.658,80.133 177.658,80.081C177.658,80.029 177.584,80.008 177.491,80.032L177.324,80.076L177.324,79.958C177.324,79.894 177.399,79.841 177.491,79.841C177.696,79.841 177.716,79.592 177.512,79.589L177.366,79.586L177.512,79.475C177.71,79.325 177.695,79.265 177.47,79.314L177.283,79.354L177.47,79.188C177.573,79.097 177.658,78.98 177.658,78.927L177.658,78.832L177.305,79.079L177.086,78.982C176.782,78.849 176.74,78.766 176.786,78.383L176.826,78.049L176.704,78.299C176.637,78.437 176.58,78.604 176.578,78.67L176.574,78.791L176.379,78.596L176.475,78.385C176.587,78.138 176.529,78.117 176.292,78.32L176.122,78.466L176.265,78.24C176.431,77.977 176.44,77.924 176.32,77.924C176.272,77.924 176.18,78.046 176.115,78.195C176.05,78.344 175.996,78.417 175.994,78.357C175.992,78.297 175.953,78.271 175.908,78.299C175.758,78.392 175.82,78.245 176.042,77.981L176.26,77.722L176.146,77.685C176.084,77.664 175.992,77.592 175.941,77.524L175.85,77.4L175.404,77.512L175.509,77.343C175.567,77.25 175.645,77.175 175.683,77.175C175.72,77.175 175.728,77.212 175.699,77.258C175.634,77.363 175.744,77.363 175.908,77.258L176.033,77.177L175.908,77.173C175.839,77.17 175.914,77.107 176.074,77.032L176.366,76.896L176.178,76.863C175.987,76.829 175.913,76.675 176.088,76.675C176.142,76.675 176.161,76.65 176.131,76.621C176.102,76.591 176.153,76.5 176.247,76.42L176.416,76.273L176.319,76.213C176.266,76.18 176.197,76.194 176.167,76.243L176.111,76.332L175.866,76.177L176.116,76.172L175.866,76.008L176.254,75.901L176.215,75.75C176.193,75.667 176.218,75.582 176.271,75.56C176.323,75.539 176.263,75.518 176.137,75.514C175.997,75.51 175.908,75.461 175.908,75.389C175.908,75.323 175.782,75.137 175.629,74.974L175.35,74.678L175.524,74.56C175.747,74.41 175.648,74.296 175.408,74.424C175.308,74.478 175.206,74.501 175.181,74.475C175.155,74.45 175.236,74.391 175.359,74.344C175.483,74.297 175.561,74.22 175.533,74.174L175.481,74.091L175.158,74.264L175.155,74.157C175.148,73.931 174.658,74.632 174.658,74.868L174.658,75.11L174.346,75.051C174.174,75.019 173.986,74.954 173.928,74.906C173.743,74.753 173.35,74.721 172.675,74.802L172.233,74.856L172.283,74.411L171.701,74.094L171.118,73.777L170.84,73.413C170.399,72.835 170.135,72.579 169.861,72.461L169.606,72.352L169.324,70.05L169.115,69.896C169.001,69.812 168.696,69.389 168.438,68.957C168.179,68.524 167.936,68.15 167.896,68.126C167.857,68.101 167.825,68.011 167.825,67.926C167.825,67.841 167.727,67.655 167.608,67.513L167.391,67.255L167.536,66.948C167.69,66.625 167.761,65.925 167.658,65.757L167.596,65.658L157.919,65.645C152.597,65.639 148.242,65.627 148.242,65.62C148.242,65.613 148.485,65.411 148.782,65.169L149.322,64.731L152.636,64.713C154.459,64.703 160.056,64.687 165.075,64.677L174.2,64.66L174.825,64.839C175.168,64.937 175.68,65.129 175.962,65.266L176.474,65.514L177.125,66.178C177.917,66.987 178.015,67.139 178.383,68.114L178.674,68.883L178.783,73.161L178.959,73.399C179.056,73.531 179.221,73.805 179.325,74.009L179.514,74.38L179.487,87.023L179.374,87.286C179.312,87.431 179.145,87.659 179.002,87.794L178.741,88.039L178.741,103.472L178.408,103.472L178.408,98.263C178.408,95.331 178.376,88.424 178.335,88.424C178.295,88.424 178.216,88.479 178.16,88.547L178.059,88.669L178.077,90.442C178.088,91.418 178.091,98.337 178.085,100.159L178.075,103.472L177.852,103.472L177.8,98.619ZM178.402,86.518L178.486,86.362L178.51,79.206C178.542,69.217 178.546,69.303 178.061,68.203C177.422,66.753 175.507,65.177 174.469,65.246C174.342,65.254 174.124,65.202 173.984,65.129L173.729,64.998L173.631,65.077C173.577,65.12 173.289,65.182 172.991,65.214C172.673,65.248 172.217,65.378 171.887,65.528L171.325,65.783L170.614,65.733C169.843,65.678 169.789,65.726 170.342,65.971C170.539,66.058 170.738,66.179 170.784,66.239L170.869,66.348L171.201,66.228C171.384,66.161 171.739,66.015 171.991,65.903L172.45,65.699L173.072,65.681C173.414,65.671 173.725,65.643 173.762,65.62C174.191,65.355 175.952,66.553 176.653,67.585C176.83,67.844 177.034,68.106 177.108,68.167C177.394,68.405 177.027,68.539 176.648,68.336C176.306,68.153 176.334,68.317 176.733,68.847C177.327,69.637 177.701,70.362 177.953,71.216L178.175,71.966L178.17,72.716C178.167,73.129 178.143,76.438 178.115,80.07L178.066,86.674L178.192,86.674C178.262,86.674 178.357,86.604 178.403,86.518L178.402,86.518ZM177.741,68.466C177.741,68.443 177.76,68.425 177.783,68.425C177.806,68.425 177.825,68.443 177.825,68.466C177.825,68.489 177.806,68.508 177.783,68.508C177.76,68.508 177.741,68.489 177.741,68.466ZM177.658,68.3C177.658,68.277 177.677,68.258 177.7,68.258C177.723,68.258 177.741,68.277 177.741,68.3C177.741,68.323 177.723,68.341 177.7,68.341C177.677,68.341 177.658,68.323 177.658,68.3ZM177.408,78.668C177.408,78.566 177.365,78.508 177.304,78.529C177.247,78.548 177.155,78.505 177.101,78.432L177.003,78.3L176.845,78.716L177.023,78.77C177.333,78.865 177.408,78.845 177.408,78.668ZM177.214,78.036C177.183,78.005 177.158,78.03 177.158,78.091C177.158,78.152 177.183,78.177 177.214,78.147C177.244,78.116 177.244,78.066 177.214,78.036ZM177.491,77.925C177.491,77.879 177.454,77.841 177.408,77.841C177.362,77.841 177.325,77.879 177.325,77.925C177.325,77.97 177.362,78.008 177.408,78.008C177.454,78.008 177.491,77.97 177.491,77.925ZM177.625,77.708C177.595,77.631 177.552,77.586 177.529,77.609C177.506,77.632 177.512,77.714 177.541,77.791C177.571,77.869 177.614,77.913 177.637,77.89C177.66,77.867 177.654,77.785 177.625,77.708ZM176.2,77.425C176.228,77.379 176.193,77.341 176.121,77.341C176.05,77.341 175.991,77.379 175.991,77.425C175.991,77.47 176.027,77.508 176.07,77.508C176.113,77.508 176.171,77.47 176.2,77.425ZM176.575,75.721C176.575,75.701 176.537,75.661 176.491,75.633C176.446,75.605 176.408,75.621 176.408,75.67C176.408,75.718 176.446,75.758 176.491,75.758C176.537,75.758 176.575,75.741 176.575,75.721ZM176.257,75.231C176.062,75.143 175.942,75.193 176.025,75.328C176.052,75.372 176.157,75.387 176.258,75.361L176.442,75.313L176.257,75.231ZM174.325,74.657L174.325,74.269L174.952,73.722C175.298,73.421 175.628,73.175 175.687,73.175C175.745,73.175 175.878,73.06 175.981,72.92C176.085,72.781 176.354,72.552 176.58,72.413L176.991,72.16L176.993,71.772C176.994,71.558 177.03,71.234 177.072,71.052L177.149,70.721L176.98,70.448C176.686,69.973 176.159,70.402 176.158,71.118C176.157,71.218 176.063,71.485 175.948,71.712L175.739,72.124L175.481,72.233C175.113,72.387 175.113,72.377 175.488,72.021L175.824,71.7L175.824,71.479C175.824,71.253 175.638,71.172 175.527,71.35L175.47,71.442L175.359,71.263L175.128,71.477C175.001,71.595 174.875,71.669 174.848,71.642C174.82,71.615 174.745,71.637 174.68,71.691L174.562,71.789L174.417,71.555L174.245,72.008L174.076,72.008C173.976,72.008 173.908,71.953 173.908,71.873L173.908,71.738L173.786,71.838C173.72,71.894 173.626,71.915 173.578,71.885C173.528,71.855 173.491,71.905 173.491,72.003C173.491,72.097 173.454,72.175 173.408,72.175C173.362,72.175 173.324,72.097 173.324,72.003C173.324,71.909 173.287,71.855 173.241,71.883C173.195,71.911 173.111,71.905 173.054,71.869C172.996,71.834 172.88,71.794 172.794,71.78L172.639,71.756L172.688,71.882C172.717,71.959 172.688,72.008 172.614,72.008C172.546,72.008 172.491,71.935 172.491,71.846C172.491,71.757 172.454,71.661 172.408,71.633C172.362,71.605 172.325,71.645 172.325,71.722L172.325,71.862L172.188,71.749C172.113,71.686 171.991,71.635 171.917,71.634C171.843,71.634 171.746,71.549 171.701,71.446C171.656,71.344 171.581,71.265 171.534,71.272C171.488,71.279 171.382,71.255 171.3,71.219C171.105,71.134 171.086,71.164 171.135,71.486L171.177,71.756L171.463,71.933C171.621,72.031 171.733,72.127 171.713,72.147C171.628,72.232 171.092,71.928 170.878,71.673L170.647,71.399L170.825,71.289L170.692,70.899C170.619,70.684 170.525,70.487 170.483,70.462C170.442,70.436 170.408,70.322 170.408,70.209C170.408,70.089 170.347,69.98 170.262,69.949C170.06,69.874 169.986,69.74 170.082,69.624L170.164,69.526L169.877,68.925L169.601,68.925C169.301,68.925 169.285,68.964 169.404,69.415C169.448,69.581 169.587,70.27 169.713,70.948L169.943,72.179L170.206,72.334C170.351,72.42 170.577,72.63 170.709,72.801C171.238,73.487 171.427,73.664 171.874,73.89C172.13,74.02 172.403,74.206 172.479,74.303L172.618,74.479L173.565,74.375L173.736,74.504C173.83,74.575 174.001,74.638 174.116,74.645L174.325,74.657ZM172.957,72.038L172.904,71.901L173.031,72.006C173.176,72.126 173.191,72.175 173.084,72.175C173.043,72.175 172.986,72.113 172.957,72.038ZM173.7,72.091C173.728,72.045 173.768,72.008 173.788,72.008C173.808,72.008 173.825,72.045 173.825,72.091C173.825,72.137 173.785,72.175 173.736,72.175C173.688,72.175 173.671,72.137 173.7,72.091ZM177.616,73.925C177.645,73.879 177.628,73.841 177.58,73.841C177.531,73.841 177.491,73.879 177.491,73.925C177.491,73.97 177.508,74.008 177.528,74.008C177.548,74.008 177.588,73.97 177.616,73.925ZM174.047,71.786C174.016,71.755 173.991,71.78 173.991,71.841C173.991,71.902 174.016,71.927 174.047,71.897C174.078,71.866 174.078,71.816 174.047,71.786ZM173.13,71.536C173.1,71.505 173.075,71.53 173.075,71.591C173.075,71.652 173.1,71.677 173.13,71.647C173.161,71.616 173.161,71.566 173.13,71.536ZM172.575,71.555C172.575,71.534 172.531,71.491 172.479,71.458C172.419,71.422 172.405,71.435 172.442,71.495C172.501,71.591 172.575,71.624 172.575,71.555ZM173.772,71.404C173.851,71.109 173.834,71.008 173.705,71.008C173.534,71.008 173.467,71.151 173.527,71.388C173.591,71.642 173.706,71.65 173.772,71.404ZM174.174,71.381L174.27,71.17L174.174,71.074C174.051,70.951 174.006,70.999 173.94,71.327L173.887,71.591L173.983,71.591C174.035,71.591 174.121,71.497 174.174,71.381ZM174.486,71.232L174.48,71.05L174.408,71.216C174.309,71.446 174.309,71.527 174.408,71.466C174.454,71.438 174.489,71.333 174.485,71.232L174.486,71.232ZM173.308,71.047C173.284,71.023 173.166,71.041 173.045,71.087L172.825,71.171L172.825,70.975L172.625,71.175L172.832,71.382L173,71.133L173.2,71.427L173.275,71.258C173.317,71.166 173.332,71.07 173.308,71.047ZM174.893,71.189L174.92,71.008L174.658,71.008L174.658,71.439L174.762,71.404C174.819,71.385 174.878,71.288 174.893,71.189ZM172.158,71.175C172.158,71.082 172.102,71.008 172.033,71.008C171.906,71.008 171.862,71.184 171.964,71.286C172.069,71.391 172.158,71.341 172.158,71.175ZM172.382,71.159C172.355,71.093 172.335,71.112 172.331,71.209C172.327,71.297 172.347,71.346 172.375,71.319C172.403,71.291 172.406,71.219 172.382,71.159ZM175.2,71.091C175.228,71.045 175.232,71.008 175.21,71.008C175.187,71.008 175.145,71.045 175.116,71.091C175.088,71.137 175.084,71.175 175.106,71.175C175.129,71.175 175.171,71.137 175.2,71.091ZM171.491,71.055C171.491,71.034 171.448,70.991 171.395,70.958C171.336,70.922 171.322,70.935 171.359,70.995C171.418,71.091 171.491,71.124 171.491,71.055ZM171.714,70.869C171.683,70.839 171.658,70.863 171.658,70.925C171.658,70.986 171.683,71.011 171.714,70.98C171.744,70.95 171.744,70.9 171.714,70.869ZM172.381,70.353C172.342,70.336 172.269,70.363 172.22,70.413L172.129,70.503L172.242,70.735L172.356,70.966L172.403,70.675C172.43,70.514 172.419,70.369 172.381,70.353ZM172.809,70.66C172.795,70.515 172.736,70.38 172.679,70.362L172.575,70.327L172.575,70.57C172.575,70.704 172.6,70.839 172.63,70.869C172.758,70.997 172.834,70.908 172.809,70.66ZM173.283,70.881L173.283,70.3L173.164,70.3C173.039,70.3 172.882,70.732 172.961,70.86C172.986,70.9 173.069,70.922 173.145,70.907L173.283,70.881ZM173.795,70.799C173.867,70.61 173.754,70.258 173.62,70.258C173.474,70.258 173.379,70.536 173.45,70.758C173.512,70.954 173.726,70.979 173.795,70.799ZM174.228,70.58C174.212,70.472 174.162,70.39 174.116,70.399C174.009,70.42 173.962,70.646 174.029,70.818L174.08,70.953L174.168,70.865C174.216,70.817 174.243,70.688 174.228,70.58ZM174.641,70.671C174.759,70.482 174.711,70.341 174.528,70.341L174.408,70.341L174.408,70.591C174.408,70.883 174.491,70.911 174.641,70.671ZM171.629,70.562L171.641,70.421L171.558,70.699L171.411,70.466L171.41,70.619C171.408,70.809 171.612,70.756 171.629,70.562ZM171.965,70.576C171.938,70.509 171.919,70.529 171.915,70.626C171.911,70.714 171.931,70.763 171.958,70.735C171.986,70.708 171.989,70.636 171.965,70.576ZM174.88,70.404C174.857,70.347 174.838,70.393 174.838,70.508C174.838,70.623 174.857,70.669 174.88,70.612C174.903,70.555 174.903,70.461 174.88,70.404ZM175.241,70.425C175.241,70.379 175.204,70.341 175.158,70.341C175.112,70.341 175.075,70.379 175.075,70.425C175.075,70.47 175.112,70.508 175.158,70.508C175.204,70.508 175.241,70.47 175.241,70.425ZM175.491,70.306C175.491,70.139 175.401,69.925 175.33,69.925C175.297,69.925 175.287,70.037 175.307,70.175C175.344,70.424 175.491,70.53 175.491,70.306ZM171.157,70.279C171.156,70.244 171.119,70.16 171.075,70.091L170.994,69.966L170.993,70.154C170.992,70.257 171.029,70.341 171.075,70.341C171.121,70.341 171.158,70.313 171.157,70.279ZM174.338,70.214C174.445,70.239 174.646,70.225 174.783,70.183C174.921,70.14 174.986,70.102 174.929,70.098C174.79,70.089 174.797,69.941 174.944,69.794L175.063,69.674L175.099,69.82C175.119,69.901 175.123,69.798 175.107,69.591C175.092,69.385 175.1,69.263 175.125,69.32C175.151,69.378 175.225,69.425 175.29,69.425C175.413,69.425 175.437,69.345 175.41,69.019L175.393,68.823L175.484,68.879C175.534,68.909 175.574,68.898 175.574,68.854C175.574,68.81 175.654,68.794 175.751,68.82L175.927,68.866L175.8,68.468L175.939,68.583C176.179,68.782 176.198,68.601 175.964,68.357C175.61,67.987 175.66,67.888 176.179,67.922C176.305,67.93 176.408,67.897 176.408,67.848C176.408,67.798 176.282,67.758 176.129,67.758L175.85,67.758L175.858,67.39C175.867,66.967 175.798,66.857 175.619,67.006C175.549,67.064 175.409,67.089 175.308,67.063C174.959,66.972 174.782,67.314 175.035,67.594L175.162,67.734L175.033,67.841C174.962,67.9 174.878,67.922 174.846,67.89C174.814,67.858 174.843,67.797 174.91,67.755C175.022,67.684 174.965,67.638 174.8,67.666C174.763,67.672 174.757,67.549 174.786,67.393C174.885,66.868 174.579,66.555 174.43,67.029L174.346,67.3L174.366,66.359L174.218,66.195C174.136,66.105 173.921,65.964 173.739,65.882L173.408,65.733L173.068,65.886C172.882,65.97 172.655,66.133 172.565,66.248L172.4,66.457L172.503,67.383L172.415,67.258C172.367,67.189 172.327,67.049 172.326,66.946C172.324,66.722 172.202,66.701 172.073,66.904L171.981,67.05L172.077,66.55L171.951,66.711C171.807,66.896 171.785,67.091 171.908,67.091C171.956,67.091 171.991,67.346 171.991,67.689C171.991,68.017 171.964,68.259 171.931,68.226C171.898,68.193 171.882,68.037 171.896,67.879L171.921,67.591L171.45,67.578L171.679,67.494C171.805,67.448 171.908,67.374 171.908,67.329C171.908,67.285 171.866,67.274 171.815,67.306L171.722,67.363L171.787,66.675L171.602,66.675C171.5,66.675 171.382,66.614 171.341,66.54L171.266,66.406L170.87,66.618L171.168,66.722L170.869,66.865C170.54,67.022 170.197,67.042 169.725,66.932L169.417,66.861L169.246,66.981C169.152,67.047 169.075,67.063 169.075,67.017C169.075,66.972 169.156,66.877 169.256,66.807L169.438,66.679L169.63,66.839L169.95,66.603L169.797,66.544C169.714,66.512 169.615,66.405 169.577,66.306L169.509,66.127L168.854,66.101L168.632,66.555C168.51,66.804 168.375,67.008 168.332,67.008C168.187,67.008 167.913,67.552 167.963,67.741C167.989,67.842 168.037,67.925 168.07,67.925C168.103,67.925 168.217,68.112 168.325,68.341C168.432,68.57 168.542,68.761 168.568,68.765C168.926,68.816 169.081,68.792 169.344,68.643C169.524,68.541 169.691,68.365 169.739,68.228L169.823,67.989L169.657,68.032C169.566,68.056 169.51,68.046 169.532,68.009C169.555,67.973 169.676,67.917 169.802,67.886C169.928,67.854 170.05,67.802 170.074,67.769C170.097,67.737 170.27,67.651 170.458,67.579L170.801,67.448L170.996,67.552C171.103,67.61 171.249,67.638 171.32,67.616L171.45,67.576L171.325,67.666C171.154,67.788 170.908,67.781 170.907,67.654L170.906,67.55L170.833,67.665C170.793,67.728 170.727,67.759 170.687,67.734C170.549,67.649 169.986,68.068 169.831,68.371L169.676,68.675L169.792,68.675C169.856,68.675 169.908,68.635 169.908,68.588L169.908,68.5L170.492,68.61L170.492,68.517C170.492,68.466 170.529,68.425 170.575,68.425C170.621,68.425 170.658,68.481 170.658,68.55C170.658,68.618 170.691,68.675 170.731,68.675C170.771,68.675 170.827,68.787 170.854,68.925C170.903,69.17 171.068,69.276 171.082,69.07C171.086,69.013 171.159,69.116 171.246,69.3C171.333,69.483 171.405,69.586 171.406,69.529C171.412,69.227 172.04,69.677 172.089,70.019L172.117,70.211L172.617,70.2C172.892,70.194 173.117,70.183 173.117,70.175C173.117,70.102 173.654,70.145 173.777,70.228L173.938,70.337L174.04,70.252C174.096,70.205 174.23,70.188 174.338,70.214ZM172.408,70.023C172.408,69.979 172.522,69.927 172.661,69.906C172.937,69.866 172.895,69.955 172.596,70.046C172.492,70.077 172.408,70.067 172.408,70.023ZM174.116,70.008L173.95,69.936L174.137,69.93C174.24,69.927 174.325,69.962 174.325,70.008C174.325,70.054 174.316,70.089 174.304,70.085C174.292,70.082 174.208,70.047 174.116,70.008ZM172.241,69.925C172.241,69.864 172.266,69.839 172.297,69.869C172.327,69.9 172.327,69.95 172.297,69.98C172.266,70.011 172.241,69.986 172.241,69.925ZM173.325,69.966C173.325,69.943 173.344,69.925 173.366,69.925C173.389,69.925 173.408,69.943 173.408,69.966C173.408,69.989 173.389,70.008 173.366,70.008C173.344,70.008 173.325,69.989 173.325,69.966ZM174.491,69.925C174.491,69.864 174.516,69.839 174.547,69.869C174.578,69.9 174.578,69.95 174.547,69.98C174.516,70.011 174.491,69.986 174.491,69.925ZM171.991,69.518C171.991,69.472 172.029,69.411 172.075,69.383C172.121,69.355 172.158,69.369 172.158,69.415C172.158,69.461 172.121,69.521 172.075,69.55C172.029,69.578 171.991,69.564 171.991,69.518ZM173.825,69.193C173.825,68.704 173.483,68.583 173.13,68.947C172.692,69.398 172.412,69.193 172.587,68.55C172.637,68.366 172.684,67.935 172.691,67.591L172.703,66.965L172.845,66.763C172.969,66.587 173.288,66.427 173.216,66.578C173.201,66.608 173.273,66.714 173.377,66.812L173.564,66.991L173.648,66.75L173.733,66.508L173.901,66.508C174.115,66.508 174.238,66.737 174.182,67.03C174.158,67.156 174.182,67.312 174.236,67.376C174.289,67.44 174.349,67.704 174.369,67.961C174.388,68.218 174.444,68.503 174.493,68.593L174.581,68.758L174.494,68.92C174.305,69.272 173.825,69.468 173.825,69.193ZM174.116,69.175C174.145,69.129 174.149,69.091 174.126,69.091C174.103,69.091 174.062,69.129 174.033,69.175C174.005,69.221 174,69.258 174.023,69.258C174.046,69.258 174.088,69.221 174.116,69.175ZM170.741,68.383C170.741,68.36 170.76,68.341 170.783,68.341C170.806,68.341 170.825,68.36 170.825,68.383C170.825,68.406 170.806,68.425 170.783,68.425C170.76,68.425 170.741,68.406 170.741,68.383ZM168.908,67.133C168.908,67.11 168.927,67.091 168.95,67.091C168.973,67.091 168.992,67.11 168.992,67.133C168.992,67.156 168.973,67.175 168.95,67.175C168.927,67.175 168.908,67.156 168.908,67.133ZM173.421,66.091C173.421,65.977 173.44,65.93 173.463,65.987C173.486,66.045 173.486,66.138 173.463,66.196C173.44,66.253 173.421,66.206 173.421,66.091ZM171.927,69.981C171.805,69.492 171.561,69.413 171.633,69.887L171.672,70.14L171.973,70.163L171.927,69.981ZM171.464,69.952C171.433,69.922 171.408,69.947 171.408,70.008C171.408,70.069 171.433,70.094 171.464,70.064C171.494,70.033 171.494,69.983 171.464,69.952ZM170.908,69.8C170.908,69.777 170.889,69.758 170.866,69.758C170.843,69.758 170.825,69.777 170.825,69.8C170.825,69.823 170.843,69.841 170.866,69.841C170.889,69.841 170.908,69.823 170.908,69.8ZM171.13,69.536C171.1,69.505 171.075,69.53 171.075,69.591C171.075,69.652 171.1,69.677 171.13,69.647C171.161,69.616 171.161,69.566 171.13,69.536ZM169.408,68.8C169.408,68.777 169.389,68.758 169.366,68.758C169.344,68.758 169.325,68.777 169.325,68.8C169.325,68.823 169.343,68.841 169.366,68.841C169.389,68.841 169.408,68.823 169.408,68.8ZM170.325,68.8C170.325,68.777 170.306,68.758 170.283,68.758C170.26,68.758 170.241,68.777 170.241,68.8C170.241,68.823 170.26,68.841 170.283,68.841C170.306,68.841 170.325,68.823 170.325,68.8ZM170.616,68.758C170.588,68.712 170.53,68.675 170.487,68.675C170.443,68.675 170.408,68.712 170.408,68.758C170.408,68.804 170.467,68.841 170.538,68.841C170.61,68.841 170.645,68.804 170.616,68.758ZM168.09,68.073C168.03,68.014 167.991,68.009 167.991,68.061C167.991,68.172 168.09,68.271 168.146,68.215C168.169,68.191 168.145,68.128 168.09,68.073ZM175.991,67.633C175.991,67.61 175.973,67.591 175.95,67.591C175.927,67.591 175.908,67.61 175.908,67.633C175.908,67.656 175.927,67.675 175.95,67.675C175.973,67.675 175.991,67.656 175.991,67.633ZM176.264,67.366L176.117,67.141L176.088,67.294C176.071,67.378 176.109,67.478 176.171,67.518C176.378,67.649 176.413,67.593 176.264,67.366ZM167.825,67.211C167.825,67.14 167.862,67.104 167.907,67.132C167.954,67.162 167.968,67.128 167.94,67.054C167.913,66.983 167.866,66.925 167.836,66.925C167.749,66.925 167.579,67.235 167.635,67.291C167.728,67.383 167.825,67.343 167.825,67.211ZM170.526,66.791C170.742,66.708 170.676,66.591 170.413,66.591C170.153,66.591 170.003,66.715 170.178,66.786C170.329,66.847 170.379,66.847 170.526,66.791ZM168.437,65.881C168.36,65.679 168.26,65.74 168.157,66.053L168.06,66.348L168.275,66.607L168.38,66.305C168.437,66.139 168.463,65.948 168.437,65.881ZM169.658,65.841C169.658,65.796 169.618,65.758 169.57,65.758C169.521,65.758 169.505,65.796 169.533,65.841C169.561,65.887 169.601,65.925 169.621,65.925C169.642,65.925 169.658,65.887 169.658,65.841ZM171.558,65.257C171.893,65.214 172.23,65.141 172.308,65.096L172.45,65.013L149.331,65.008L149.153,65.341L160.051,65.339C166.419,65.337 171.203,65.303 171.558,65.257ZM34.631,83.635C34.558,83.446 34.698,83.416 34.811,83.597L34.912,83.758L34.795,83.758C34.731,83.758 34.657,83.703 34.631,83.635ZM37.827,83.549C37.827,83.527 37.846,83.508 37.869,83.508C37.891,83.508 37.91,83.527 37.91,83.549C37.91,83.572 37.891,83.591 37.869,83.591C37.846,83.591 37.827,83.572 37.827,83.549ZM34.978,82.534C35.038,82.51 35.11,82.513 35.138,82.541C35.165,82.569 35.116,82.588 35.028,82.585C34.931,82.581 34.911,82.561 34.978,82.534ZM36.327,80.258L36.203,80.181L36.287,80.098C36.338,80.046 36.417,80.044 36.494,80.091L36.617,80.168L36.534,80.251C36.482,80.303 36.404,80.305 36.327,80.258ZM176.783,80.258C176.811,80.212 176.87,80.175 176.913,80.175C176.956,80.175 176.991,80.212 176.991,80.258C176.991,80.304 176.933,80.341 176.861,80.341C176.79,80.341 176.755,80.304 176.783,80.258ZM176.741,79.877C176.741,79.788 176.999,79.571 177.047,79.619C177.131,79.703 177.002,79.925 176.869,79.925C176.799,79.925 176.741,79.903 176.741,79.877ZM176.845,79.202C176.788,79.179 176.741,79.124 176.741,79.078C176.741,78.972 177.08,79.024 177.084,79.131C177.088,79.229 176.987,79.259 176.845,79.202ZM175.491,78.226C175.491,78.163 175.547,78.065 175.616,78.008C175.749,77.898 175.779,77.979 175.691,78.209C175.628,78.372 175.491,78.383 175.491,78.226ZM174.908,77.758C174.908,77.712 174.962,77.675 175.028,77.675C175.094,77.675 175.171,77.712 175.2,77.758C175.228,77.804 175.174,77.841 175.08,77.841C174.985,77.841 174.908,77.804 174.908,77.758ZM33,77.126C33.004,77.029 33.024,77.009 33.051,77.076C33.075,77.136 33.072,77.208 33.044,77.235C33.016,77.263 32.997,77.214 33,77.126ZM175.408,76.675C175.408,76.629 175.464,76.591 175.533,76.591C175.602,76.591 175.658,76.629 175.658,76.675C175.658,76.72 175.602,76.758 175.533,76.758C175.464,76.758 175.408,76.72 175.408,76.675ZM175.205,75.714L175.043,75.591L175.225,75.591C175.332,75.591 175.408,75.643 175.408,75.716C175.408,75.867 175.407,75.867 175.205,75.714ZM33.805,75.166C33.827,75.081 34.064,74.764 34.331,74.462L34.816,73.913L34.905,73.498C34.954,73.27 34.994,72.972 34.994,72.837C34.994,72.507 35.129,72.524 35.191,72.862C35.269,73.285 35.049,74.061 34.753,74.41C34.61,74.578 34.411,74.852 34.31,75.018L34.127,75.32L33.765,75.32L33.805,75.166ZM174.844,75.242C174.885,75.118 175.075,75.049 175.075,75.159C175.075,75.203 175.015,75.263 174.943,75.291C174.862,75.322 174.823,75.303 174.844,75.242ZM33.871,73.095C33.813,73.001 33.907,72.758 34.003,72.758C34.043,72.758 34.077,72.774 34.077,72.793C34.077,72.812 34.098,72.882 34.123,72.949C34.174,73.08 33.944,73.213 33.871,73.095ZM34.843,71.253C34.863,71.193 34.928,71.127 34.988,71.107C35.051,71.086 35.082,71.117 35.061,71.18C35.041,71.24 34.976,71.306 34.915,71.326C34.853,71.347 34.822,71.315 34.843,71.253ZM35.077,70.341C35.077,70.296 35.117,70.258 35.165,70.258C35.214,70.258 35.23,70.296 35.202,70.341C35.174,70.387 35.134,70.425 35.114,70.425C35.093,70.425 35.077,70.387 35.077,70.341ZM39.85,70.157C39.515,69.979 39.13,69.538 38.888,69.054L38.639,68.555L38.892,68.042C39.183,67.449 39.189,67.396 39.012,66.875L38.88,66.485L39.057,66.245C39.26,65.971 39.234,65.878 38.939,65.822L38.731,65.782L38.461,66.194L38.461,67.185L38.753,67.508L38.632,67.508C38.454,67.508 37.922,66.93 37.774,66.576L37.646,66.269L37.729,65.834C37.837,65.266 37.912,65.189 38.36,65.196C38.566,65.199 38.772,65.163 38.819,65.117L38.903,65.032L38.429,64.836L38.127,64.961C37.843,65.08 37.311,65.621 37.311,65.791C37.311,65.835 37.248,65.939 37.172,66.023L37.033,66.176L37.056,66.883L36.811,66.56L36.814,64.633L37.041,64.344C37.62,63.61 38.05,63.403 38.32,63.728C38.477,63.917 39.106,64.175 39.412,64.175L39.666,64.175L40.216,63.591L40.982,63.591L41.225,63.868C41.511,64.193 41.917,64.34 42.269,64.245C42.412,64.206 42.745,64.217 43.047,64.269C43.338,64.32 43.75,64.338 43.964,64.311C44.73,64.211 45.189,64.116 45.406,64.012L45.625,63.906L45.783,64.061C45.869,64.147 46.078,64.29 46.247,64.38L46.555,64.543L46.954,64.399C47.174,64.321 47.577,64.22 47.85,64.175L48.348,64.094L49.459,64.659L49.668,64.466L49.534,64.701L49.926,64.647C50.141,64.618 50.4,64.548 50.501,64.492C50.603,64.437 50.802,64.386 50.945,64.38C51.088,64.374 51.257,64.326 51.32,64.273C52.05,63.667 52.03,63.672 52.352,64.008C52.493,64.156 52.679,64.259 52.805,64.261C52.923,64.262 53.092,64.318 53.181,64.386C53.275,64.457 53.524,64.508 53.78,64.508L54.218,64.508L54.667,64.122L55.135,64.276C55.656,64.449 55.897,64.422 56.159,64.159L56.338,63.981L56.678,64.083C56.865,64.139 57.187,64.217 57.394,64.256C57.6,64.295 57.877,64.384 58.01,64.454L58.252,64.581L58.66,64.532C58.903,64.503 59.142,64.523 59.252,64.581L59.435,64.677L148.7,64.716L148.367,65.034C148.183,65.208 147.895,65.424 147.725,65.513L147.417,65.674L130.85,65.685C114.425,65.696 58.743,65.73 57.717,65.957C56.969,66.122 56.164,66.43 55.745,66.711L55.389,66.95L55.287,66.824C55.231,66.754 54.97,66.61 54.706,66.504L54.227,66.311L53.665,66.578L52.903,66.304L52.628,66.404C52.476,66.459 52.098,66.539 51.787,66.583L51.221,66.663L50.449,67.175L50.134,67.175C49.962,67.175 49.797,67.137 49.769,67.091C49.739,67.042 49.831,67.008 49.993,67.007C50.342,67.005 50.444,66.939 50.558,66.641C50.675,66.333 50.636,66.304 50.27,66.425L49.967,66.524L48.921,66.316L48.178,66.411C47.758,66.464 47.073,66.483 46.601,66.454L45.767,66.402L45.54,66.675L44.823,66.675L44.571,66.887C44.433,67.003 44.295,67.175 44.266,67.268L44.212,67.437L44.074,67.379C43.769,67.25 43.282,67.199 42.993,67.264L42.687,67.333L42.62,67.212C42.44,66.891 41.811,67.313 41.811,67.755C41.811,67.85 41.756,67.925 41.686,67.925C41.617,67.925 41.561,67.877 41.561,67.82C41.561,67.762 41.483,67.666 41.388,67.607L41.216,67.499L40.727,67.715L40.727,68.11L41.352,67.993L40.936,68.441L40.061,68.34L40.061,68.537C40.061,68.854 40.234,69.283 40.463,69.529L40.676,69.759L40.76,69.675C40.859,69.576 40.977,69.565 40.977,69.655C40.977,69.799 40.536,70.183 40.421,70.139C40.354,70.113 40.235,70.126 40.157,70.168L40.015,70.244L39.85,70.157ZM39.857,69.646C39.642,69.365 39.581,69.209 39.719,69.294C39.807,69.349 39.894,69.151 39.893,68.897L39.893,68.716L39.562,69.216L39.551,69.008C39.546,68.893 39.545,68.772 39.551,68.737C39.584,68.527 39.611,68.46 39.686,68.407L39.769,68.347L39.644,68.228C39.575,68.163 39.444,68.087 39.352,68.06L39.186,68.011L38.897,68.516L38.999,68.679C39.055,68.768 39.131,68.841 39.169,68.841C39.206,68.841 39.215,68.878 39.187,68.922C39.111,69.045 39.356,69.461 39.647,69.706C40.007,70.009 40.111,69.979 39.857,69.646ZM39.295,68.368C39.355,68.344 39.427,68.347 39.455,68.374C39.482,68.402 39.433,68.422 39.345,68.418C39.248,68.414 39.229,68.394 39.295,68.368ZM40.159,69.657C40.099,69.597 40.061,69.592 40.061,69.644C40.061,69.755 40.159,69.854 40.215,69.798C40.239,69.775 40.214,69.711 40.159,69.657ZM40.059,69.279C40.06,69.222 40.023,69.175 39.977,69.175C39.931,69.175 39.895,69.278 39.895,69.404L39.897,69.633L39.977,69.508C40.022,69.439 40.059,69.336 40.059,69.279ZM39.879,67.946L39.851,67.8L39.581,67.774C39.269,67.743 39.225,67.858 39.498,67.99C39.778,68.125 39.91,68.109 39.879,67.946ZM40.111,67.639L40.057,67.425L39.851,67.425C39.737,67.425 39.644,67.462 39.644,67.508C39.644,67.554 39.682,67.591 39.729,67.591C39.776,67.591 39.857,67.686 39.91,67.802L40.006,68.013L40.086,67.933C40.129,67.889 40.141,67.757 40.111,67.639ZM40.477,67.401C40.477,67.307 40.502,67.255 40.532,67.285C40.562,67.315 40.636,67.299 40.697,67.249L40.806,67.158L40.556,66.675L40.156,66.675L40.243,65.8L40.077,65.625C39.902,65.44 39.672,65.046 39.497,64.633L39.392,64.383L39.431,64.708C39.453,64.886 39.543,65.111 39.63,65.208C39.982,65.594 40.082,66.848 39.785,67.145C39.677,67.253 39.727,67.341 39.896,67.341C39.994,67.341 40.103,67.427 40.159,67.549L40.253,67.757L40.365,67.664C40.427,67.613 40.477,67.494 40.477,67.401ZM41.311,67.05C41.311,67.027 41.292,67.008 41.269,67.008C41.246,67.008 41.227,67.027 41.227,67.05C41.227,67.073 41.246,67.091 41.269,67.091C41.292,67.091 41.311,67.073 41.311,67.05ZM38.268,66.442L38.209,66.3L38.072,66.633L38.061,66.308L37.886,66.483L38.087,66.924L38.206,66.754C38.273,66.659 38.3,66.521 38.267,66.442L38.268,66.442ZM41.144,66.846C41.144,66.803 41.103,66.743 41.053,66.712L40.963,66.656L41.127,66.491L41.727,66.708L41.925,66.51L41.661,66.457C41.343,66.394 41.248,66.291 41.205,65.964L41.173,65.716L40.727,65.664L40.644,65.883C40.537,66.165 40.537,66.508 40.644,66.508C40.69,66.508 40.727,66.557 40.727,66.616C40.727,66.676 40.772,66.77 40.827,66.825C40.946,66.944 41.144,66.957 41.144,66.846ZM43.644,66.826C43.644,66.789 43.606,66.758 43.561,66.758C43.515,66.758 43.4,66.681 43.306,66.587L43.135,66.416L42.973,66.468C42.771,66.532 42.763,66.648 42.956,66.707C43.037,66.732 42.99,66.732 42.852,66.707C41.995,66.551 41.616,66.621 42.248,66.818C42.569,66.918 43.644,66.925 43.644,66.826ZM44.32,66.526L44.33,66.3L44.368,66.446C44.389,66.526 44.452,66.591 44.508,66.591C44.669,66.591 44.802,66.417 44.748,66.276L44.699,66.148L45.269,66.258L44.727,65.908L44.738,65.55L44.811,65.732C44.908,65.973 45.135,66.086 45.416,66.032C45.673,65.983 45.701,65.909 45.519,65.758C45.45,65.701 45.394,65.619 45.394,65.576C45.394,65.533 45.502,65.616 45.634,65.761L45.874,66.024L45.934,65.927C45.967,65.874 45.934,65.765 45.86,65.684C45.596,65.392 45.734,65.445 46.04,65.753C46.212,65.926 46.455,66.087 46.581,66.11L46.811,66.152L46.811,66.038C46.811,65.976 46.733,65.925 46.639,65.925C46.545,65.925 46.488,65.892 46.513,65.851C46.538,65.81 46.488,65.758 46.401,65.736C46.315,65.713 46.197,65.607 46.14,65.5L46.036,65.305L46.304,65.532C46.452,65.656 46.624,65.758 46.685,65.758C46.746,65.758 46.81,65.796 46.825,65.843C46.86,65.949 47.394,65.854 47.394,65.742C47.394,65.699 47.325,65.685 47.241,65.712C47.147,65.742 47.031,65.697 46.937,65.593C46.851,65.498 46.827,65.425 46.881,65.425C46.934,65.425 46.977,65.465 46.977,65.514C46.977,65.564 47.099,65.598 47.248,65.589C47.397,65.581 47.573,65.578 47.639,65.583L47.759,65.591L47.436,65.836L47.577,65.839C47.655,65.84 47.753,65.903 47.796,65.978L47.872,66.115L48.091,66.06C48.212,66.03 48.311,65.968 48.311,65.923C48.311,65.802 48.145,65.824 48.139,65.946C48.136,66.003 48.099,65.965 48.058,65.862C48.017,65.759 47.944,65.675 47.897,65.675C47.849,65.675 47.811,65.635 47.811,65.587C47.811,65.538 47.848,65.521 47.894,65.55C47.94,65.578 47.977,65.559 47.977,65.508C47.977,65.457 48.019,65.441 48.069,65.472L48.162,65.529L47.959,65.654L48.068,65.721C48.131,65.76 48.189,65.747 48.208,65.69C48.226,65.636 48.294,65.591 48.359,65.591C48.424,65.591 48.477,65.516 48.477,65.425C48.477,65.333 48.519,65.258 48.569,65.258C48.62,65.258 48.641,65.204 48.615,65.137L48.569,65.017L48.711,65.07C48.788,65.1 48.92,65.211 49.004,65.316C49.169,65.524 49.355,65.577 49.285,65.396C49.262,65.335 49.28,65.232 49.326,65.167L49.41,65.05L49.367,65.185C49.343,65.26 49.366,65.363 49.417,65.415C49.557,65.555 49.645,65.527 49.587,65.362L49.536,65.216L49.649,65.321C49.711,65.379 49.763,65.525 49.765,65.647C49.767,65.769 49.816,65.884 49.873,65.903C50.002,65.947 50.012,65.706 49.885,65.628L49.793,65.571L50.008,65.437L49.9,65.307C49.84,65.236 49.812,65.123 49.838,65.057L49.883,64.938L49.284,64.882C48.955,64.852 48.648,64.834 48.602,64.844C48.556,64.853 48.43,64.857 48.321,64.851L48.123,64.841L48.224,64.72C48.359,64.557 48.258,64.403 48.076,64.497C47.999,64.536 47.892,64.553 47.839,64.534C47.786,64.515 47.714,64.545 47.679,64.601L47.616,64.703L47.894,64.597L47.894,64.848L47.248,64.858C44.359,64.902 42.899,64.839 42.362,64.647C41.893,64.48 41.861,64.496 41.861,64.886C41.861,65.059 41.819,65.175 41.758,65.175L41.656,65.175L41.733,64.904C41.84,64.531 41.842,64.535 41.546,64.476L41.281,64.423L41.094,64.599C40.886,64.795 40.727,64.752 40.727,64.501C40.727,64.301 40.381,64.126 40.17,64.22L40.019,64.287L40.202,64.32C40.303,64.337 40.408,64.421 40.435,64.506C40.462,64.59 40.538,64.68 40.605,64.706C40.748,64.761 40.767,64.973 40.638,65.054C40.532,65.119 40.144,64.778 40.144,64.619C40.144,64.558 40.107,64.508 40.061,64.508C40.016,64.508 39.984,64.649 39.991,64.821L40.004,65.133L40.572,65.409L40.669,65.156L40.745,65.292C40.849,65.478 40.97,65.384 40.923,65.154C40.9,65.039 40.934,65.072 41.01,65.237C41.079,65.386 41.174,65.508 41.221,65.508L41.306,65.508L41.225,65.294C41.181,65.177 41.146,65.017 41.147,64.94L41.151,64.8L41.411,65.281L41.542,65.069L41.696,65.31C41.781,65.442 41.907,65.595 41.976,65.651L42.102,65.753L41.915,65.755C41.683,65.759 41.674,65.878 41.893,66.032C41.985,66.096 42.036,66.172 42.007,66.201C41.905,66.303 42.146,66.483 42.394,66.49C42.708,66.499 42.708,66.462 42.394,66.3C42.158,66.177 42.035,65.841 42.227,65.841C42.273,65.841 42.311,65.893 42.311,65.956C42.311,66.094 42.543,66.303 42.616,66.23C42.645,66.202 42.617,66.118 42.555,66.043C42.371,65.821 42.263,64.925 42.421,64.925C42.467,64.925 42.48,64.949 42.45,64.98C42.42,65.01 42.442,65.091 42.499,65.16L42.602,65.285L42.498,65.32C42.342,65.373 42.373,65.574 42.552,65.67L42.711,65.755L42.755,65.64C42.779,65.576 42.78,65.436 42.758,65.329L42.716,65.133L42.907,65.434L43.028,65.334C43.094,65.279 43.174,65.26 43.206,65.292C43.238,65.324 43.219,65.378 43.164,65.412L43.063,65.475L43.192,65.658C43.4,65.956 43.749,65.848 43.576,65.538C43.534,65.463 43.516,65.335 43.538,65.254L43.576,65.107L43.934,65.464L43.991,65.166L44.109,65.264C44.174,65.318 44.227,65.42 44.227,65.492C44.227,65.564 44.307,65.707 44.405,65.812L44.583,66.001L44.343,65.984C44.21,65.974 44.053,65.901 43.993,65.82C43.859,65.641 43.76,65.635 43.696,65.802C43.669,65.872 43.723,66.004 43.817,66.098C43.922,66.203 43.991,66.39 43.999,66.59L44.012,66.912L44.161,66.832C44.243,66.788 44.315,66.65 44.32,66.526ZM44.977,65.716C44.977,65.693 44.996,65.675 45.019,65.675C45.042,65.675 45.061,65.693 45.061,65.716C45.061,65.739 45.042,65.758 45.019,65.758C44.996,65.758 44.977,65.739 44.977,65.716ZM44.932,65.419C44.842,65.274 44.945,65.243 45.059,65.381L45.164,65.508L45.076,65.508C45.027,65.508 44.962,65.468 44.932,65.419ZM41.953,65.275C41.937,65.243 41.95,65.104 41.982,64.966L42.041,64.716L42.051,64.887C42.056,64.981 42.101,65.098 42.15,65.147L42.239,65.236L42.111,65.285C42.04,65.312 41.969,65.308 41.953,65.275ZM48.199,65.203C48.169,65.172 48.144,65.108 48.144,65.061C48.144,65.009 48.183,65.014 48.242,65.073C48.297,65.128 48.322,65.191 48.298,65.215C48.274,65.239 48.23,65.233 48.199,65.203ZM41.401,64.876C41.405,64.779 41.424,64.759 41.451,64.826C41.475,64.886 41.472,64.958 41.444,64.986C41.417,65.013 41.397,64.964 41.401,64.876ZM43.83,66.404C43.768,66.164 43.574,66.02 43.38,66.071C43.209,66.116 43.196,66.163 43.306,66.336L43.381,66.456L43.644,66.238L43.644,66.401C43.644,66.49 43.668,66.588 43.697,66.617C43.799,66.718 43.878,66.591 43.83,66.404ZM52.205,66.291C52.177,66.263 52.105,66.26 52.045,66.284C51.978,66.311 51.998,66.331 52.095,66.335C52.183,66.338 52.232,66.319 52.205,66.291ZM41.811,66.18C41.811,66.137 41.773,66.078 41.727,66.05C41.681,66.021 41.644,65.928 41.644,65.841C41.644,65.583 41.483,65.565 41.389,65.813L41.301,66.045L41.447,66.151C41.618,66.277 41.811,66.291 41.811,66.18ZM47.263,66.177C47.499,66.087 47.552,65.925 47.346,65.925C47.22,65.925 46.977,66.113 46.977,66.21C46.977,66.275 47.016,66.271 47.263,66.177ZM56.023,66.182C56.165,66.047 57.333,65.687 58.198,65.512L59.045,65.341L147.292,65.341L147.516,65.237C147.758,65.125 147.804,65.024 147.638,64.967C147.58,64.947 139.359,64.917 129.367,64.9L58.019,64.869L57.468,64.698C57.165,64.604 56.833,64.481 56.73,64.426L56.542,64.326L56.366,64.502L56.606,64.593C56.738,64.643 57.129,64.762 57.474,64.856C57.819,64.951 58.196,65.066 58.31,65.112L58.519,65.195L58.352,65.259C58.26,65.295 58.035,65.363 57.852,65.411C57.158,65.592 56.591,65.78 56.274,65.933C56.093,66.02 55.894,66.091 55.831,66.091C55.769,66.091 55.74,66.129 55.769,66.175C55.833,66.278 55.92,66.281 56.023,66.182ZM38.311,66.133C38.311,66.11 38.292,66.091 38.269,66.091C38.246,66.091 38.227,66.11 38.227,66.133C38.227,66.156 38.246,66.175 38.269,66.175C38.292,66.175 38.311,66.156 38.311,66.133ZM47.727,66.045C47.727,65.973 47.69,65.938 47.644,65.966C47.598,65.995 47.561,66.053 47.561,66.096C47.561,66.139 47.598,66.175 47.644,66.175C47.69,66.175 47.727,66.116 47.727,66.045ZM46.116,66.036C46.086,66.005 46.036,66.005 46.005,66.036C45.974,66.066 45.999,66.091 46.061,66.091C46.122,66.091 46.147,66.066 46.116,66.036ZM49.178,65.883C49.103,65.768 49.018,65.674 48.988,65.674C48.959,65.673 48.845,65.648 48.735,65.619L48.534,65.565L48.644,65.743L48.308,65.655L48.356,65.779C48.421,65.949 48.713,66.079 49.042,66.086L49.314,66.091L49.178,65.883ZM48.727,65.8C48.727,65.777 48.746,65.758 48.769,65.758C48.792,65.758 48.811,65.777 48.811,65.8C48.811,65.823 48.792,65.841 48.769,65.841C48.746,65.841 48.727,65.823 48.727,65.8ZM49.652,65.818C49.61,65.703 49.501,65.623 49.364,65.607C49.084,65.573 49.083,65.698 49.362,65.918C49.62,66.12 49.747,66.077 49.652,65.818ZM54.644,65.951C54.758,65.924 54.938,65.891 55.043,65.877C55.624,65.801 56.505,65.13 56.261,64.949L56.102,64.832L55.576,64.929L54.972,64.642L54.733,64.783C54.601,64.861 54.349,64.925 54.173,64.925C53.996,64.925 53.709,64.965 53.534,65.014L53.215,65.103L52.792,64.825L52.117,64.786C51.746,64.764 51.422,64.745 51.397,64.742C51.372,64.74 51.135,64.743 50.87,64.748L50.389,64.758L50.335,64.899C50.305,64.976 50.323,65.054 50.374,65.071C50.426,65.088 50.449,65.152 50.425,65.213C50.402,65.275 50.421,65.348 50.468,65.377C50.515,65.406 50.532,65.485 50.506,65.552L50.459,65.675L50.635,65.675C50.815,65.675 50.878,65.476 50.727,65.383C50.681,65.355 50.644,65.29 50.644,65.24C50.644,65.19 50.716,65.215 50.805,65.295C50.894,65.375 50.947,65.489 50.925,65.547C50.868,65.697 51.215,65.768 51.686,65.703L52.077,65.65L52.225,65.883L52.227,65.675L52.591,65.675C52.814,65.675 52.997,65.723 53.06,65.8L53.164,65.925L53.049,65.931C52.98,65.934 52.994,65.96 53.085,65.996C53.249,66.06 54.311,66.03 54.643,65.951L54.644,65.951ZM54.727,65.716C54.727,65.693 54.746,65.675 54.769,65.675C54.792,65.675 54.81,65.693 54.81,65.716C54.81,65.739 54.792,65.758 54.769,65.758C54.746,65.758 54.727,65.739 54.727,65.716ZM54.935,65.341C54.907,65.296 54.924,65.258 54.972,65.258C55.021,65.258 55.06,65.296 55.06,65.341C55.06,65.387 55.044,65.425 55.024,65.425C55.003,65.425 54.964,65.387 54.935,65.341ZM43.095,65.812C43.042,65.672 42.894,65.62 42.894,65.741C42.894,65.822 43.08,66.017 43.119,65.977C43.135,65.961 43.124,65.887 43.095,65.812ZM50.727,65.966C50.727,65.943 50.708,65.925 50.685,65.925C50.663,65.925 50.644,65.943 50.644,65.966C50.644,65.989 50.662,66.008 50.685,66.008C50.708,66.008 50.727,65.989 50.727,65.966ZM51.616,65.869C51.585,65.839 51.535,65.839 51.505,65.869C51.474,65.9 51.499,65.925 51.56,65.925C51.622,65.925 51.647,65.9 51.616,65.869ZM38.394,65.761C38.394,65.716 38.46,65.703 38.54,65.731L38.686,65.783L38.595,65.684C38.546,65.63 38.443,65.61 38.366,65.639C38.215,65.697 38.176,65.841 38.311,65.841C38.357,65.841 38.394,65.805 38.394,65.761ZM44.12,65.615C44.044,65.539 43.96,65.498 43.934,65.524C43.907,65.55 43.948,65.634 44.025,65.71C44.101,65.787 44.185,65.828 44.211,65.802C44.238,65.776 44.196,65.692 44.12,65.615ZM50.284,65.693L50.382,65.631L50.298,65.236C50.208,64.814 50.117,64.746 49.982,64.999L49.897,65.157L50.142,65.36L50.092,65.559C50.042,65.761 50.106,65.806 50.284,65.693ZM37.305,65.389C37.409,65.278 37.468,65.144 37.436,65.092L37.377,64.997L37.227,65.133C37.069,65.276 36.95,65.591 37.054,65.591C37.088,65.591 37.2,65.5 37.305,65.389ZM43.772,65.43C43.742,65.381 43.678,65.341 43.629,65.341L43.54,65.341L43.646,65.468C43.76,65.606 43.862,65.575 43.772,65.43ZM49.042,65.493C48.993,65.348 48.745,65.212 48.669,65.289C48.632,65.325 48.675,65.408 48.764,65.473C48.961,65.617 49.086,65.626 49.042,65.493ZM36.951,65.242C36.924,65.176 36.905,65.196 36.901,65.293C36.897,65.381 36.917,65.43 36.944,65.402C36.972,65.374 36.975,65.303 36.951,65.242ZM37.251,64.821C37.32,64.717 37.446,64.558 37.531,64.466C37.616,64.375 37.739,64.196 37.805,64.069C37.87,63.942 37.945,63.87 37.971,63.908C37.998,63.947 38.094,64.006 38.186,64.039L38.352,64.1L37.998,63.741L37.842,63.826C37.581,63.967 37.243,64.366 37.106,64.696C36.962,65.039 37.052,65.117 37.251,64.821ZM39.876,64.77C39.872,64.639 39.896,64.489 39.928,64.437C39.963,64.381 39.934,64.341 39.86,64.341C39.79,64.341 39.696,64.411 39.651,64.495L39.569,64.649L39.694,64.829C39.859,65.064 39.884,65.055 39.876,64.77ZM37.727,64.8C37.727,64.777 37.709,64.758 37.686,64.758C37.663,64.758 37.644,64.777 37.644,64.8C37.644,64.823 37.663,64.841 37.686,64.841C37.709,64.841 37.727,64.823 37.727,64.8ZM39.225,64.612L39.222,64.383L39.102,64.541C38.982,64.7 39.004,64.841 39.149,64.841C39.192,64.841 39.226,64.738 39.225,64.612ZM38.414,64.464L38.373,64.248L38.258,64.292C38.193,64.317 38.144,64.283 38.144,64.214C38.144,64.147 38.069,64.091 37.977,64.091L37.811,64.091L37.811,64.248C37.811,64.334 37.864,64.448 37.928,64.502L38.046,64.6L38.171,64.396L38.24,64.583C38.332,64.83 38.466,64.737 38.414,64.464ZM38.894,64.758L38.894,64.328L38.79,64.362C38.733,64.381 38.674,64.478 38.659,64.577L38.632,64.758L38.894,64.758ZM44.644,64.633C44.644,64.564 44.583,64.508 44.509,64.508L44.374,64.508L44.477,64.633C44.534,64.702 44.595,64.758 44.612,64.758C44.63,64.758 44.644,64.702 44.644,64.633ZM48.616,64.703C48.585,64.672 48.535,64.672 48.505,64.703C48.474,64.733 48.499,64.758 48.56,64.758C48.622,64.758 48.647,64.733 48.616,64.703ZM45.066,64.589L45.227,64.502L45.227,64.59C45.227,64.642 45.334,64.658 45.496,64.63C45.799,64.576 45.911,64.508 45.695,64.508C45.615,64.508 45.572,64.473 45.599,64.431C45.672,64.312 45.475,64.227 45.37,64.332C45.319,64.383 45.195,64.425 45.094,64.425C44.994,64.425 44.89,64.481 44.864,64.55C44.807,64.697 44.848,64.705 45.066,64.589ZM41.006,64.408C41.061,64.197 41.027,64.134 40.9,64.213C40.793,64.279 40.78,64.591 40.884,64.591C40.925,64.591 40.98,64.509 41.006,64.408ZM52.019,64.424C52.102,64.332 52.147,64.233 52.118,64.205C52.052,64.138 51.644,64.401 51.644,64.51C51.644,64.649 51.861,64.6 52.019,64.424ZM52.56,64.55C52.56,64.527 52.542,64.508 52.519,64.508C52.496,64.508 52.477,64.527 52.477,64.55C52.477,64.573 52.496,64.591 52.519,64.591C52.542,64.591 52.56,64.573 52.56,64.55ZM42.558,64.428C42.626,64.385 42.659,64.329 42.633,64.302C42.567,64.237 42.311,64.341 42.311,64.434C42.311,64.529 42.402,64.527 42.558,64.428ZM43.199,64.453C43.169,64.422 43.119,64.422 43.088,64.453C43.058,64.483 43.083,64.508 43.144,64.508C43.205,64.508 43.23,64.483 43.199,64.453ZM40.394,63.966C40.451,63.898 40.549,63.841 40.613,63.841C40.676,63.841 40.727,63.804 40.727,63.758C40.727,63.592 40.41,63.68 40.277,63.883C40.13,64.107 40.223,64.173 40.394,63.966ZM178.991,67.133C178.991,67.11 179.01,67.091 179.033,67.091C179.056,67.091 179.075,67.11 179.075,67.133C179.075,67.156 179.056,67.175 179.033,67.175C179.01,67.175 178.991,67.156 178.991,67.133ZM60.406,66.932L60.293,66.862L60.39,66.802C60.505,66.731 60.591,66.794 60.548,66.917C60.531,66.967 60.472,66.974 60.406,66.932ZM146.158,66.639C146.158,66.562 146.23,66.508 146.332,66.508C146.535,66.508 146.506,66.703 146.297,66.743C146.215,66.759 146.158,66.717 146.158,66.639ZM165.575,66.55C165.575,66.527 165.594,66.508 165.617,66.508C165.639,66.508 165.658,66.527 165.658,66.55C165.658,66.573 165.64,66.591 165.617,66.591C165.594,66.591 165.575,66.573 165.575,66.55ZM166.616,66.508C166.588,66.462 166.621,66.425 166.69,66.425C166.759,66.425 166.838,66.462 166.866,66.508C166.895,66.554 166.861,66.591 166.793,66.591C166.724,66.591 166.645,66.554 166.616,66.508ZM166.075,66.272C166.075,66.117 166.175,65.925 166.256,65.925C166.372,65.925 166.303,66.28 166.179,66.321C166.122,66.34 166.075,66.318 166.075,66.272ZM167.214,66.119C167.183,66.089 167.158,66.012 167.158,65.95L167.158,65.836L167.327,65.926C167.42,65.976 167.474,66.052 167.447,66.096C167.39,66.188 167.292,66.198 167.214,66.119ZM148.492,65.216C148.492,65.193 148.51,65.175 148.533,65.175C148.556,65.175 148.575,65.193 148.575,65.216C148.575,65.239 148.556,65.258 148.533,65.258C148.511,65.258 148.492,65.239 148.492,65.216Z" style="fill:white;fill-rule:nonzero;"/>
    </g>
</svg>
