<?xml version="1.0" encoding="UTF-8" standalone="no"?>
<!DOCTYPE svg PUBLIC "-//W3C//DTD SVG 1.1//EN" "http://www.w3.org/Graphics/SVG/1.1/DTD/svg11.dtd">
<svg width="100%" height="100%" viewBox="0 0 202 203" version="1.1" xmlns="http://www.w3.org/2000/svg" xmlns:xlink="http://www.w3.org/1999/xlink" xml:space="preserve" xmlns:serif="http://www.serif.com/" style="fill-rule:evenodd;clip-rule:evenodd;stroke-linejoin:round;stroke-miterlimit:2;">
    <g id="path4" transform="matrix(3.65174,0,0,3.65174,-411.138,-256.557)">
        <g id="g1">
            <path id="path41" serif:id="path4" d="M136.572,124.387C136.008,124.231 135.346,123.98 135.1,123.828C134.854,123.676 134.4,123.528 134.091,123.499C133.135,123.409 132.609,123.279 132.456,123.095C132.376,122.998 132.16,122.917 131.977,122.915C131.794,122.913 131.534,122.827 131.398,122.725C131.263,122.623 131.029,122.539 130.877,122.539C130.726,122.539 130.462,122.428 130.29,122.293C130.118,122.158 129.823,122.009 129.633,121.961C129.08,121.823 127.196,120.821 126.611,120.354C126.314,120.118 125.573,119.594 124.964,119.19C124.355,118.786 123.856,118.377 123.856,118.281C123.856,118.185 123.785,118.106 123.698,118.106C123.611,118.106 123.374,117.964 123.171,117.79C122.969,117.616 122.761,117.473 122.71,117.473C122.659,117.473 122.581,117.329 122.536,117.152C122.492,116.976 122.32,116.78 122.155,116.717C121.796,116.58 120.564,115.326 120.563,115.096C120.563,115.007 120.427,114.873 120.261,114.797C120.094,114.721 119.896,114.523 119.82,114.357C119.744,114.19 119.63,114.054 119.567,114.054C119.474,114.054 118.476,112.624 118.304,112.243C118.279,112.188 118.103,111.972 117.912,111.763C117.524,111.338 117.017,110.447 117.017,110.189C117.017,110.097 116.877,109.854 116.705,109.65C116.191,109.039 115.498,107.621 115.498,107.181C115.498,106.907 115.413,106.717 115.244,106.612C115.105,106.525 114.991,106.366 114.991,106.26C114.991,106.154 114.901,105.929 114.79,105.76C114.68,105.592 114.628,105.392 114.675,105.316C114.721,105.24 114.699,105.105 114.625,105.015C114.55,104.926 114.472,104.743 114.45,104.609C114.429,104.476 114.35,104.258 114.274,104.126C114.199,103.995 114.163,103.79 114.194,103.672C114.225,103.554 114.164,103.129 114.059,102.728C113.955,102.327 113.9,101.918 113.937,101.821C113.975,101.723 113.952,101.643 113.886,101.643C113.821,101.643 113.767,101.344 113.767,100.978C113.767,99.813 113.637,97.63 113.561,97.507C113.482,97.378 113.514,96.841 113.657,95.928C113.71,95.593 113.698,95.31 113.631,95.268C113.469,95.168 113.591,93.804 113.799,93.396C113.892,93.213 113.932,93.028 113.889,92.985C113.732,92.828 113.739,92.212 113.899,92.022C114.193,91.675 114.391,91.012 114.315,90.632C114.262,90.368 114.333,90.095 114.562,89.686C114.738,89.37 114.853,89.063 114.816,89.003C114.779,88.943 114.845,88.756 114.963,88.588C115.08,88.42 115.159,88.177 115.137,88.047C115.115,87.918 115.237,87.661 115.408,87.477C115.913,86.933 116.157,86.475 116.076,86.22C116.026,86.063 116.144,85.79 116.42,85.423C116.651,85.115 116.819,84.764 116.793,84.643C116.763,84.504 116.862,84.37 117.063,84.279C117.262,84.188 117.484,83.892 117.657,83.486C117.809,83.129 118.018,82.752 118.121,82.647C118.224,82.543 118.762,81.802 119.317,81.001C119.872,80.2 120.579,79.3 120.888,79.002C121.197,78.704 121.45,78.409 121.45,78.348C121.45,78.287 121.635,78.092 121.861,77.913C122.088,77.735 122.501,77.391 122.779,77.15C123.058,76.908 123.568,76.473 123.913,76.181C124.258,75.89 124.647,75.516 124.777,75.35C124.907,75.184 125.092,75.049 125.188,75.049C125.284,75.049 125.503,74.919 125.674,74.76C125.845,74.601 126.461,74.278 127.042,74.043C127.623,73.807 128.173,73.556 128.265,73.486C128.532,73.281 129.691,72.919 130.378,72.827C130.726,72.78 131.096,72.67 131.201,72.581C131.305,72.492 131.704,72.387 132.087,72.346C132.471,72.306 132.955,72.242 133.164,72.205C133.373,72.168 134,72.102 134.557,72.059C135.198,72.009 135.726,71.891 135.996,71.737C136.23,71.604 136.519,71.526 136.637,71.563C136.756,71.601 137.163,71.529 137.541,71.402C138.224,71.175 140.87,71.117 142.092,71.303C142.336,71.34 142.755,71.395 143.024,71.425C143.293,71.456 143.571,71.538 143.641,71.609C143.712,71.679 143.851,71.705 143.952,71.666C144.218,71.564 147.238,72.339 147.363,72.542C147.4,72.602 147.619,72.615 147.849,72.572C148.358,72.477 152.069,74.235 155.073,75.994C156.907,77.069 160.835,80.527 160.835,81.068C160.835,81.17 160.883,81.254 160.942,81.254C161.056,81.254 162.861,83.825 162.861,83.988C162.861,84.041 162.939,84.174 163.034,84.284C163.28,84.566 163.874,85.667 163.874,85.84C163.874,85.919 163.958,86.076 164.061,86.19C164.164,86.304 164.268,86.507 164.293,86.643C164.318,86.779 164.412,87.061 164.502,87.27C164.807,87.979 164.874,88.156 165.08,88.789C165.194,89.138 165.301,89.537 165.318,89.676C165.336,89.815 165.384,90.015 165.425,90.119C165.466,90.224 165.527,90.452 165.561,90.626C165.594,90.8 165.708,91.255 165.814,91.637C165.919,92.019 165.977,92.377 165.942,92.434C165.907,92.49 165.934,92.605 166.002,92.689C166.07,92.773 166.125,93.005 166.124,93.205C166.123,93.404 166.177,93.603 166.245,93.648C166.598,93.878 166.988,102.517 166.655,102.723C166.588,102.764 166.568,103.016 166.61,103.281C166.658,103.579 166.633,103.798 166.547,103.851C166.47,103.899 166.407,104.193 166.407,104.504C166.407,104.816 166.321,105.275 166.217,105.525C166.112,105.775 166.027,106.076 166.027,106.193C166.027,106.457 165.741,107.086 165.621,107.088C165.572,107.088 165.497,107.303 165.455,107.564C165.385,107.991 165.074,108.803 164.75,109.401C164.684,109.524 164.539,109.895 164.429,110.225C164.318,110.555 164.148,110.915 164.051,111.025C163.953,111.135 163.874,111.322 163.874,111.441C163.874,111.634 163.552,112.244 163.364,112.408C163.324,112.442 163.193,112.682 163.072,112.941C162.952,113.199 162.794,113.447 162.72,113.493C162.647,113.538 162.486,113.741 162.362,113.945C161.061,116.084 155.024,121.483 154.379,121.084C154.169,120.955 154.231,120.512 154.471,120.42C154.707,120.33 155.904,119.398 156.361,118.947C156.512,118.798 156.868,118.509 157.152,118.304C157.662,117.936 157.841,117.668 157.485,117.805C157.272,117.887 156.665,117.482 156.659,117.254C156.652,116.993 156.007,116.898 155.873,117.139C155.809,117.253 155.675,117.347 155.576,117.347C155.476,117.347 155.302,117.489 155.187,117.663C155.073,117.837 154.91,117.98 154.824,117.98C154.738,117.98 154.451,118.191 154.185,118.449C153.715,118.905 152.917,119.499 152.774,119.499C152.735,119.499 152.45,119.67 152.14,119.879C151.83,120.088 151.48,120.262 151.362,120.264C151.243,120.267 150.949,120.438 150.708,120.644C150.467,120.851 150.154,121.02 150.012,121.02C149.778,121.021 148.775,121.46 148.297,121.77C147.768,122.114 146.331,122.591 146.154,122.482C146.088,122.44 145.846,122.52 145.618,122.659C145.39,122.798 144.944,122.944 144.629,122.984C144.064,123.055 142.904,123.359 142.408,123.567C142.269,123.625 142.07,123.665 141.965,123.656C141.519,123.616 141.196,123.687 141.271,123.809C141.316,123.881 141.533,123.911 141.753,123.876C141.974,123.841 142.754,123.779 143.485,123.739C144.781,123.667 145.248,123.621 146.132,123.477C146.369,123.438 146.797,123.381 147.082,123.349C148.659,123.176 151.035,122.46 152.01,121.865C152.769,121.403 153.087,121.563 152.458,122.091C151.413,122.971 149.322,123.676 146.461,124.112C146.182,124.155 145.783,124.217 145.574,124.251C142.898,124.68 138.336,124.627 138.618,124.17C138.752,123.955 138.554,124.062 138.241,124.375C137.867,124.749 137.885,124.748 136.572,124.387ZM140.657,123.847C140.61,123.801 140.534,123.801 140.488,123.847C140.442,123.894 140.48,123.932 140.572,123.932C140.665,123.932 140.703,123.894 140.657,123.847ZM141.079,123.869C141.079,123.834 141.05,123.805 141.016,123.805C140.981,123.805 140.952,123.834 140.952,123.869C140.952,123.903 140.981,123.932 141.016,123.932C141.05,123.932 141.079,123.903 141.079,123.869ZM139.686,122.598C140.278,122.553 140.962,122.52 141.206,122.525C141.449,122.53 141.791,122.484 141.965,122.422C142.14,122.361 142.704,122.238 143.221,122.148C143.737,122.057 144.362,121.881 144.609,121.755C144.856,121.629 145.164,121.526 145.293,121.526C145.422,121.526 145.839,121.383 146.22,121.209C146.6,121.035 147.046,120.893 147.209,120.893C147.373,120.893 147.577,120.807 147.664,120.703C147.751,120.598 147.943,120.512 148.091,120.511C148.529,120.508 149.342,120.18 149.521,119.936C149.691,119.704 150.466,119.378 150.857,119.375C150.977,119.374 151.136,119.259 151.21,119.12C151.285,118.98 151.423,118.866 151.518,118.866C151.613,118.866 152.127,118.553 152.661,118.17C153.195,117.787 153.711,117.473 153.807,117.473C153.904,117.473 154.135,117.274 154.321,117.03C154.507,116.786 154.73,116.587 154.816,116.587C155.025,116.587 156.379,115.053 156.94,114.181C157.186,113.798 157.53,113.352 157.704,113.19C157.878,113.029 158.093,112.639 158.181,112.324C158.269,112.009 158.415,111.723 158.506,111.688C158.727,111.603 159.188,110.806 159.188,110.508C159.188,110.377 159.245,110.235 159.315,110.191C159.385,110.148 159.442,110.011 159.442,109.887C159.442,109.763 159.556,109.557 159.696,109.431C160.02,109.137 160.347,108.488 160.249,108.33C160.208,108.264 160.295,108.097 160.442,107.96C160.736,107.686 161.141,106.862 161.103,106.617C161.089,106.531 161.179,106.307 161.303,106.119C161.426,105.931 161.531,105.716 161.536,105.641C161.554,105.365 161.766,104.738 161.925,104.493C162.2,104.066 162.472,102.207 162.49,100.635C162.493,100.393 162.554,100.125 162.625,100.039C162.697,99.953 162.716,99.759 162.668,99.608C162.62,99.458 162.57,98.813 162.557,98.176C162.544,97.539 162.502,96.962 162.464,96.893C162.426,96.824 162.405,96.552 162.418,96.288C162.43,96.024 162.389,95.776 162.326,95.737C162.264,95.698 162.224,95.218 162.239,94.67C162.254,94.071 162.207,93.603 162.121,93.499C162.041,93.403 162.006,93.296 162.042,93.26C162.163,93.138 162.144,92.25 162.018,92.166C161.95,92.12 161.819,91.655 161.729,91.132C161.638,90.61 161.532,90.128 161.493,90.061C161.453,89.995 161.402,89.768 161.379,89.557C161.33,89.107 160.855,87.703 160.693,87.529C160.632,87.463 160.581,87.281 160.581,87.125C160.581,86.969 160.523,86.806 160.453,86.762C160.382,86.718 160.354,86.633 160.391,86.573C160.428,86.513 160.398,86.427 160.325,86.381C160.251,86.336 160.224,86.194 160.265,86.067C160.312,85.917 160.224,85.721 160.017,85.513C159.84,85.336 159.695,85.074 159.695,84.931C159.695,84.693 159.479,84.196 159.309,84.04C159.271,84.006 159.169,83.735 159.082,83.439C158.996,83.143 158.867,82.901 158.797,82.901C158.727,82.901 158.6,82.744 158.515,82.552C158.35,82.18 157.343,80.637 156.926,80.118C156.788,79.946 156.703,79.761 156.736,79.707C156.77,79.652 156.751,79.608 156.694,79.608C156.638,79.608 156.087,79.124 155.471,78.532C154.854,77.94 154.334,77.455 154.314,77.455C154.217,77.455 152.74,76.417 152.603,76.252C152.516,76.147 152.338,76.062 152.208,76.062C152.077,76.062 151.97,76.011 151.97,75.949C151.97,75.887 151.747,75.747 151.474,75.638C151.201,75.529 150.942,75.38 150.897,75.308C150.852,75.235 150.703,75.176 150.565,75.176C150.428,75.176 150.283,75.09 150.243,74.986C150.203,74.881 150.089,74.796 149.99,74.796C149.891,74.796 149.389,74.596 148.876,74.352C148.362,74.109 147.911,73.909 147.874,73.909C147.837,73.909 147.647,73.843 147.451,73.762C147.079,73.609 146.154,73.338 144.751,72.97C144.299,72.852 143.843,72.721 143.738,72.679C143.634,72.637 143.512,72.61 143.467,72.618C143.422,72.627 143.063,72.582 142.67,72.517C140.616,72.183 139.474,72.123 138.91,72.32C138.581,72.434 137.909,72.513 137.255,72.514C136.62,72.515 136.12,72.573 136.072,72.65C136.025,72.727 135.833,72.75 135.623,72.704C135.223,72.616 133.978,72.926 133.501,73.233C133.339,73.337 132.957,73.443 132.654,73.468C132.35,73.492 131.989,73.573 131.85,73.648C131.711,73.722 131.401,73.783 131.161,73.783C130.696,73.783 129.877,74.074 129.746,74.287C129.702,74.358 129.538,74.416 129.381,74.416C129.225,74.416 128.986,74.499 128.851,74.602C128.715,74.704 128.49,74.789 128.349,74.792C128.209,74.794 127.884,74.938 127.628,75.112C127.372,75.286 127.111,75.429 127.048,75.429C126.986,75.429 126.836,75.538 126.716,75.671C126.595,75.804 126.316,75.986 126.095,76.076C125.873,76.166 125.618,76.342 125.527,76.467C125.436,76.593 125.285,76.695 125.191,76.695C124.98,76.695 122.81,78.662 122.699,78.953C122.655,79.069 122.285,79.51 121.876,79.932C120.814,81.029 120.162,81.826 119.84,82.423C119.686,82.708 119.395,83.118 119.193,83.333C118.787,83.767 118.612,84.123 118.65,84.441C118.664,84.556 118.565,84.729 118.429,84.824C118.293,84.919 118.118,85.236 118.039,85.529C117.96,85.822 117.783,86.122 117.646,86.196C117.333,86.363 117.017,87.103 117.017,87.669C117.017,87.936 116.945,88.129 116.827,88.174C116.723,88.214 116.637,88.322 116.637,88.414C116.637,88.506 116.564,88.657 116.475,88.749C116.265,88.966 116.003,89.841 116.084,90.054C116.119,90.145 116.016,90.312 115.854,90.425C115.602,90.602 115.559,90.744 115.549,91.446C115.542,91.901 115.465,92.348 115.376,92.456C115.274,92.579 115.218,93.034 115.221,93.719C115.225,94.494 115.177,94.829 115.047,94.937C114.948,95.02 114.904,95.146 114.949,95.219C115.155,95.552 115.242,97.068 115.086,97.618C114.992,97.954 114.993,98.137 115.091,98.256C115.177,98.359 115.213,98.867 115.187,99.582C115.156,100.423 115.188,100.757 115.303,100.801C115.396,100.837 115.461,101.09 115.461,101.418C115.461,102.24 115.629,103.214 115.788,103.313C115.865,103.36 115.93,103.645 115.934,103.946C115.938,104.247 116.009,104.55 116.093,104.619C116.177,104.689 116.275,104.888 116.311,105.063C116.491,105.944 116.633,106.368 116.816,106.57C116.926,106.692 117.017,106.887 117.017,107.004C117.017,107.12 117.071,107.215 117.137,107.215C117.284,107.215 117.777,108.296 117.777,108.617C117.777,108.743 117.948,109.033 118.157,109.262C118.365,109.491 118.536,109.799 118.536,109.946C118.536,110.103 118.657,110.269 118.829,110.347C119.011,110.43 119.18,110.675 119.275,110.994C119.36,111.277 119.648,111.724 119.917,111.989C120.185,112.254 120.7,112.864 121.063,113.345C121.425,113.826 121.916,114.392 122.155,114.603C122.394,114.814 122.589,115.027 122.589,115.076C122.589,115.157 123.588,116.207 123.665,116.207C123.697,116.207 124.223,116.68 125.248,117.63C125.492,117.856 125.784,118.098 125.897,118.168C126.01,118.239 126.432,118.515 126.834,118.781C127.235,119.048 127.684,119.313 127.831,119.37C127.978,119.427 128.314,119.622 128.578,119.803C128.843,119.985 129.106,120.133 129.164,120.133C129.222,120.133 129.341,120.218 129.427,120.323C129.514,120.427 129.694,120.513 129.827,120.513C129.96,120.513 130.101,120.598 130.141,120.703C130.182,120.807 130.323,120.893 130.456,120.893C130.589,120.893 130.796,120.945 130.917,121.009C131.328,121.225 132.15,121.577 132.277,121.59C132.437,121.607 132.843,121.762 133.13,121.915C133.251,121.979 133.462,122.032 133.599,122.032C133.736,122.032 133.979,122.085 134.139,122.149C134.905,122.455 134.958,122.466 136.313,122.587C136.722,122.624 137.073,122.671 137.094,122.691C137.144,122.742 138.379,122.698 139.685,122.598L139.686,122.598ZM137.28,118.91C135.9,118.701 135.609,118.292 136.931,118.421C137.436,118.47 138.313,118.526 138.879,118.545C139.974,118.581 140.349,118.689 140.048,118.88C139.881,118.986 137.918,119.007 137.28,118.91ZM135.507,118.486C135.507,118.417 135.596,118.36 135.704,118.36C135.813,118.36 135.866,118.417 135.823,118.486C135.78,118.556 135.691,118.613 135.626,118.613C135.56,118.613 135.507,118.556 135.507,118.486ZM136.248,117.914C134.61,117.69 133.527,117.378 132.888,116.945C132.597,116.748 132.283,116.584 132.191,116.581C132.099,116.578 131.796,116.438 131.518,116.269C131.239,116.1 130.718,115.816 130.36,115.638C130.001,115.46 129.574,115.213 129.41,115.088C129.246,114.963 128.9,114.763 128.642,114.644C128.384,114.525 128.138,114.372 128.096,114.304C128.054,114.236 127.883,114.181 127.715,114.181C127.54,114.181 127.353,114.073 127.275,113.927C127.201,113.788 127.087,113.674 127.022,113.674C126.862,113.674 125.934,113.076 125.244,112.529C124.933,112.282 124.532,112.007 124.352,111.918C124.173,111.828 123.931,111.595 123.816,111.4C123.588,111.013 123.106,110.417 122.558,109.841C122.366,109.64 122.21,109.425 122.21,109.363C122.21,109.301 122.039,108.981 121.83,108.651C121.621,108.322 121.45,108.001 121.45,107.938C121.45,107.875 121.369,107.644 121.271,107.425C121.108,107.059 121.009,106.685 120.898,106.012C120.875,105.873 120.816,105.635 120.767,105.484C120.708,105.298 120.741,105.173 120.87,105.101C121.036,105.008 121.013,104.843 120.697,103.857C119.959,101.558 119.783,100.216 119.798,97.021C119.812,94.178 120.055,92.405 120.628,90.974C120.69,90.821 120.657,90.752 120.522,90.752C120.326,90.752 120.294,90.865 119.904,92.968C119.742,93.845 119.611,94.009 119.374,93.632C119.287,93.495 119.314,93.377 119.464,93.226C119.581,93.109 119.686,92.861 119.697,92.674C119.781,91.236 120.031,90.476 120.713,89.594C120.909,89.34 121.07,89.013 121.07,88.866C121.07,88.719 121.127,88.599 121.196,88.599C121.266,88.599 121.323,88.49 121.323,88.356C121.323,88.222 121.565,87.742 121.861,87.288C122.157,86.835 122.542,86.226 122.716,85.936C123.005,85.455 123.233,85.162 123.979,84.321C124.12,84.162 124.239,83.962 124.243,83.878C124.251,83.71 125.648,82.647 125.861,82.647C125.933,82.647 126.032,82.52 126.082,82.364C126.288,81.714 129.188,79.612 131.045,78.765C133.049,77.852 135.031,77.334 137.532,77.07C139.009,76.913 139.473,76.655 138.384,76.596C137.813,76.564 137.227,76.633 134.62,77.039C134.183,77.107 134.18,77.104 134.406,76.852C134.559,76.681 134.873,76.567 135.356,76.509C135.752,76.461 136.205,76.339 136.362,76.239C136.518,76.138 136.647,76.113 136.647,76.183C136.647,76.264 137.139,76.281 138.028,76.23C139.37,76.154 139.427,76.161 139.995,76.494C140.378,76.719 140.669,76.808 140.84,76.754C141.018,76.697 141.198,76.763 141.409,76.961C141.695,77.23 141.841,77.253 143.456,77.282C144.412,77.3 145.262,77.317 145.344,77.321C145.426,77.325 145.569,77.402 145.661,77.492C145.753,77.581 146.042,77.785 146.303,77.945C147.118,78.444 146.47,78.445 145.485,77.946C144.87,77.635 144.807,77.646 145.158,78.005C145.317,78.168 145.761,78.43 146.145,78.587C148.789,79.671 152.011,82.312 153.997,85.022C154.418,85.596 154.847,86.067 154.949,86.067C155.764,86.067 152.514,82.33 150.253,80.668C149.63,80.21 149.263,79.878 149.437,79.93C149.611,79.982 149.925,80.152 150.134,80.308C150.343,80.464 150.77,80.719 151.083,80.873C152.467,81.555 156.022,85.907 156.022,86.919C156.022,87.009 156.076,87.182 156.142,87.303C156.208,87.424 156.383,87.865 156.531,88.283C156.678,88.701 156.873,89.157 156.963,89.296C157.053,89.436 157.158,89.749 157.196,89.993C157.234,90.236 157.322,90.635 157.392,90.879C157.462,91.123 157.64,91.767 157.788,92.311C157.935,92.855 158.106,93.397 158.167,93.514C158.4,93.963 158.563,94.832 158.628,95.968C158.665,96.617 158.714,97.448 158.737,97.814C158.76,98.181 158.728,98.512 158.667,98.55C158.605,98.588 158.555,98.786 158.555,98.991C158.555,99.196 158.506,99.364 158.445,99.364C158.385,99.364 158.365,98.701 158.4,97.891C158.472,96.262 158.227,93.879 157.996,93.958C157.92,93.984 157.867,94.256 157.877,94.563C158.058,99.998 157.73,102.545 156.54,104.936C156.211,105.598 155.87,106.423 155.782,106.77C155.695,107.118 155.568,107.469 155.5,107.551C155.429,107.637 155.425,107.729 155.49,107.77C155.553,107.808 155.748,107.579 155.923,107.26C156.259,106.65 156.522,106.66 156.205,107.271C156.105,107.465 156.022,107.729 156.022,107.857C156.022,108.189 154.805,109.921 154.392,110.176C154.07,110.376 153.546,110.938 153.119,111.543C152.879,111.882 152.563,112.168 152.378,112.215C152.2,112.26 151.663,112.688 151.185,113.166C150.617,113.734 150.174,114.066 149.908,114.124C149.683,114.173 149.244,114.46 148.93,114.762C147.722,115.925 145.415,117.02 142.725,117.708C141.3,118.073 138.148,118.173 136.248,117.914ZM140.889,115.64C142.747,115.372 145.315,114.527 146.412,113.823C150.057,111.482 150.086,111.525 144.875,111.523C141.643,111.522 141.643,111.522 140.443,112.656C139.783,113.28 139.143,113.825 139.021,113.867C138.899,113.91 138.799,113.998 138.799,114.063C138.799,114.382 138.393,114.071 137.287,112.902C135.964,111.506 136.626,111.611 129.428,111.648C128.085,111.655 128.122,111.905 129.616,112.913C131.455,114.154 133.56,115.038 135.758,115.493C136.923,115.734 136.889,115.87 136.073,114.242C135.327,112.754 135.266,112.49 135.59,112.133C135.823,111.875 136.14,111.824 136.14,112.043C136.14,112.209 138.122,114.272 138.453,114.45C138.713,114.591 139.129,114.312 140.501,113.077C141.573,112.112 141.631,112.136 140.919,113.249C140.108,114.519 139.395,115.827 139.517,115.825C139.575,115.824 140.192,115.74 140.889,115.64ZM140.319,114.936C140.319,114.865 140.39,114.785 140.477,114.759C144.612,113.525 146.4,112.852 147.238,112.213C147.688,111.87 148.044,111.807 148.044,112.071C148.044,112.333 147.665,112.619 146.837,112.982C146.421,113.164 145.796,113.444 145.448,113.606C143.787,114.376 140.319,115.275 140.319,114.936ZM135.253,114.855C133.428,114.671 129.555,112.746 129.555,112.023C129.555,111.757 129.987,111.941 131.484,112.843C132.748,113.605 133.288,113.85 134.309,114.123C135.002,114.308 135.652,114.501 135.753,114.551C135.995,114.672 136.079,114.946 135.866,114.92C135.773,114.909 135.497,114.88 135.253,114.855ZM139.295,112.213C139.44,111.904 139.559,111.626 139.559,111.597C139.559,111.567 139.132,111.552 138.609,111.564C138.087,111.575 137.66,111.608 137.66,111.636C137.66,111.665 137.892,111.996 138.176,112.372C138.763,113.149 138.861,113.135 139.295,112.213ZM127.558,110.439C127.429,110.348 127.157,110.035 126.955,109.744C126.588,109.214 126.588,109.214 126.481,109.536C126.325,110.003 126.665,110.605 127.116,110.662C127.65,110.729 127.838,110.635 127.558,110.439ZM134.366,110.719C134.33,110.683 133.504,110.302 132.53,109.873C131.555,109.444 130.045,108.778 129.175,108.394C128.304,108.01 127.35,107.59 127.054,107.46C126.515,107.224 126.515,107.224 126.515,108.102C126.515,108.785 126.553,108.966 126.685,108.915C126.784,108.877 127.061,109.104 127.348,109.457C127.619,109.792 127.884,110.084 127.938,110.107C127.991,110.13 128.035,110.255 128.035,110.383C128.035,110.529 128.142,110.632 128.32,110.658C128.827,110.73 134.432,110.786 134.366,110.719ZM135.811,110.479C135.679,110.324 135.304,109.911 134.978,109.561C134.653,109.211 134.17,108.64 133.905,108.292C133.641,107.944 133.092,107.262 132.686,106.777C132.28,106.291 131.696,105.512 131.388,105.045C130.686,103.98 130.696,103.984 130.194,104.442C129.699,104.894 129.701,104.897 131.391,106.337C132.564,107.337 134.119,108.836 135.158,109.97C135.833,110.706 136.35,111.109 135.811,110.479ZM141.192,109.851C141.652,109.35 142.566,108.382 143.223,107.699C143.879,107.017 144.392,106.439 144.362,106.416C144.225,106.307 142.209,105.916 142.141,105.985C142.098,106.027 141.988,106.393 141.897,106.797C141.23,109.736 140.772,110.475 139.598,110.496C138.744,110.512 138.737,110.488 139.164,109.097C139.364,108.445 139.568,107.713 139.618,107.469C139.667,107.225 139.818,106.661 139.952,106.215C140.086,105.769 140.181,105.393 140.163,105.38C140.144,105.367 139.844,105.282 139.496,105.192C139.148,105.102 138.179,104.842 137.343,104.614C136.507,104.386 135.567,104.157 135.253,104.106C133.826,103.871 133.669,103.947 134.144,104.642C134.565,105.258 136.9,109.876 136.9,110.092C136.9,110.467 136.611,110.17 135.494,108.647C134.845,107.763 133.883,106.581 133.356,106.02C132.829,105.458 132.268,104.814 132.108,104.588C131.948,104.361 131.761,104.176 131.693,104.176C131.489,104.176 132.462,105.467 135.051,108.631C136.958,110.961 136.622,110.761 138.642,110.761C140.355,110.761 140.355,110.761 141.192,109.851ZM143.571,108.767C144.984,107.314 145.451,106.76 145.292,106.726C145.079,106.68 144.083,107.666 142.116,109.867C140.643,111.514 141.61,110.784 143.571,108.767ZM149.591,110.637C149.641,110.636 149.649,110.548 149.608,110.441C149.565,110.329 149.66,110.127 149.834,109.96C149.999,109.801 150.256,109.504 150.406,109.298C150.617,109.008 150.712,108.958 150.834,109.075C151.012,109.245 150.453,110.34 150.124,110.466C150.026,110.504 149.979,110.589 150.02,110.656C150.148,110.862 150.597,110.355 150.912,109.65C151.311,108.756 151.294,108.657 150.697,108.352C149.971,107.981 149.937,107.771 150.526,107.275C151.165,106.737 150.999,106.554 150.343,107.074C149.925,107.404 148.462,108.205 147.155,108.819C142.766,110.881 142.673,110.811 149.591,110.637ZM123.223,110.065C123.223,110.03 123.194,110.002 123.159,110.002C123.125,110.002 123.096,110.03 123.096,110.065C123.096,110.1 123.125,110.128 123.159,110.128C123.194,110.128 123.223,110.1 123.223,110.065ZM145.575,108.792C148.147,107.354 148.086,107.42 147.084,107.173C146.221,106.96 146.074,107.071 143.275,110.051C143.216,110.114 143.311,110.079 143.485,109.974C143.659,109.869 144.599,109.337 145.575,108.792ZM122.966,109.681C122.877,109.574 122.81,109.307 122.816,109.088C122.825,108.765 122.299,107.595 122.145,107.595C121.789,107.595 121.718,107.764 121.914,108.146C122.236,108.772 122.958,109.875 123.047,109.875C123.091,109.875 123.055,109.787 122.966,109.681ZM133.668,109.319C133.559,109.152 133.309,108.882 133.112,108.717C132.915,108.553 132.134,107.842 131.376,107.138C128.866,104.805 129.08,104.904 128.271,105.713C128.149,105.835 127.86,106.033 127.63,106.153C127.34,106.303 127.27,106.389 127.402,106.431C127.506,106.464 127.734,106.59 127.908,106.711C128.406,107.056 132.78,109.241 132.982,109.246C133.082,109.248 133.306,109.332 133.481,109.432C133.897,109.67 133.898,109.67 133.668,109.319ZM151.928,108.904C151.881,108.858 151.843,108.896 151.843,108.988C151.843,109.081 151.881,109.119 151.928,109.073C151.974,109.026 151.974,108.95 151.928,108.904ZM125.613,108.068C125.593,107.841 125.616,107.592 125.664,107.515C125.711,107.438 125.723,107.097 125.691,106.757C125.658,106.417 125.608,105.158 125.579,103.958C125.512,101.138 125.475,101.08 123.245,100.266C121.907,99.778 121.865,101.15 123.115,104.538C123.799,106.392 125.7,109.079 125.613,108.068ZM124.625,106.613C124.345,106.142 124.001,105.415 123.859,104.998C123.717,104.581 123.522,104.068 123.425,103.86C122.794,102.495 122.409,101.049 122.596,100.747C122.768,100.469 123.096,100.727 123.096,101.141C123.096,101.891 124.381,105.266 125.132,106.489C125.54,107.154 125.6,107.469 125.318,107.469C125.217,107.469 124.905,107.084 124.625,106.613ZM152.421,107.12C152.028,106.395 151.974,106.363 151.972,106.858C151.97,107.302 152.045,107.384 152.511,107.454C152.565,107.462 152.525,107.312 152.421,107.12ZM150.254,106.339C150.372,106.148 148.579,104.952 148.288,105.028C147.666,105.191 147.773,105.517 148.526,105.753C148.923,105.877 149.447,106.084 149.69,106.212C150.226,106.493 150.167,106.48 150.254,106.339ZM150.766,104.12C150.311,103.122 150.311,103.122 149.685,103.739C149.058,104.356 149.058,104.356 150.102,105.021C151.38,105.835 151.484,105.694 150.766,104.12ZM127.519,105.111C128.457,104.553 128.461,104.656 127.465,103.67C126.642,102.854 126.642,102.854 126.642,104.211C126.642,104.958 126.666,105.569 126.696,105.569C126.726,105.569 127.096,105.363 127.519,105.111ZM154.45,104.403C156.094,100.085 155.999,94.277 154.219,90.144C154.068,89.793 154.014,89.755 153.886,89.909C153.765,90.055 153.801,90.243 154.062,90.834C154.568,91.976 154.599,92.052 154.752,92.525C155.92,96.133 155.239,103.042 153.549,104.732C153.352,104.928 153.352,104.964 153.549,105.264C153.858,105.736 153.991,105.609 154.45,104.403ZM147.349,104.808C147.698,104.444 147.704,104.416 147.492,104.206C147.281,103.997 147.248,104.009 146.834,104.459C146.116,105.238 146.614,105.575 147.349,104.808ZM145.884,104.473C146.225,104.04 146.292,104.064 144.684,104.045C142.255,104.016 142.222,104.038 144.008,104.485C145.544,104.869 145.572,104.869 145.884,104.473ZM153.682,103.628C155.097,100.605 155.277,95.629 154.098,92.083C153.6,90.584 153.601,90.584 153.022,91.661C152.284,93.033 152.097,92.982 152.097,91.411C152.097,90.296 152.134,90.084 152.419,89.574C152.742,88.996 152.742,88.996 152.356,88.232C151.896,87.32 151.894,87.304 152.244,87.356C152.404,87.379 152.602,87.567 152.719,87.805C152.924,88.222 153.112,88.346 153.107,88.061C153.095,87.372 152.032,86.294 151.952,86.89C151.264,91.947 151.969,96.805 153.538,97.834C154.268,98.313 154.534,98.89 154.125,99.109C153.987,99.183 153.735,99.449 153.564,99.7C153.393,99.952 153.005,100.42 152.701,100.742C152.029,101.454 151.739,102.221 151.973,102.67C152.184,103.074 153.152,104.556 153.205,104.556C153.228,104.556 153.443,104.138 153.682,103.628ZM129.53,103.662C130.203,103.049 129.929,102.483 128.799,102.151C126.071,101.351 126.13,101.315 127.659,102.85C129.003,104.199 128.959,104.181 129.53,103.662ZM149.566,101.605C148.884,100.101 148.721,99.11 149.08,98.649C149.287,98.383 149.694,98.628 150.032,99.221C151.045,100.999 150.954,100.949 150.956,99.727C150.957,98.635 150.957,98.635 150.153,98.433C149.711,98.322 149.265,98.199 149.162,98.159C148.953,98.079 148.804,98.463 148.478,99.921C148.371,100.402 148.167,101.022 148.025,101.3C146.985,103.34 147.74,104.635 149.156,103.24C149.952,102.456 149.952,102.456 149.566,101.605ZM140.935,103.068C141.001,102.946 141.06,102.789 141.068,102.72C141.126,102.192 141.208,102.15 142.168,102.15C143.224,102.15 143.353,102.253 143.125,102.908C142.992,103.29 142.992,103.29 144.489,103.29C146.557,103.29 146.56,103.285 145.607,101.327C145.403,100.909 145.149,100.31 145.042,99.997C144.699,98.994 144.54,98.865 144.38,99.46C144.114,100.446 143.978,100.379 143.075,98.826C141.32,95.806 140.544,93.603 141.783,95.154C142.046,95.484 142.304,95.803 142.355,95.863C142.407,95.923 142.515,95.848 142.596,95.697C142.699,95.504 142.703,95.374 142.61,95.262C142.537,95.173 142.333,94.718 142.156,94.249C141.98,93.781 141.569,92.93 141.243,92.36C140.916,91.789 140.33,90.711 139.939,89.964C139.229,88.606 139.229,88.606 138.768,88.919C138.132,89.351 137.517,89.165 137.996,88.685C138.241,88.44 138.526,87.586 138.362,87.586C138.268,87.586 138.132,87.743 138.061,87.935C137.989,88.126 137.703,88.796 137.426,89.423C136.921,90.562 136.921,90.562 137.492,91.148C138.063,91.734 138.063,91.734 137.617,92.541C137.034,93.598 136.904,93.671 136.391,93.239C136.166,93.05 135.965,92.911 135.945,92.932C135.286,93.596 135.039,94.594 135.447,94.951C136.25,95.657 135.513,97.278 134.676,96.645C134.338,96.389 134.145,96.406 134.051,96.701C134.008,96.838 133.79,97.223 133.567,97.556C132.71,98.837 131.277,102.006 131.256,102.668C131.235,103.335 140.585,103.722 140.935,103.068ZM131.59,102.918C131.241,102.697 131.637,101.77 132.079,101.77C133.17,101.77 134.585,102.514 134.209,102.89C134.034,103.065 131.858,103.088 131.59,102.918ZM133.655,101.876C133.279,101.694 133.422,101.144 134.185,99.828C134.939,98.529 134.847,98.704 135.767,96.831C137.639,93.019 139.053,90.887 139.053,91.876C139.053,91.923 139.309,92.301 139.621,92.718C139.934,93.134 140.19,93.514 140.191,93.561C140.194,93.728 142.763,99.161 143.115,99.744C143.926,101.086 144.124,101.713 143.77,101.819C143.315,101.956 133.928,102.008 133.655,101.876ZM141.928,101.156C142.356,101.029 142.102,100.768 139.526,98.679C138.869,98.147 138.84,98.158 136.82,99.689C135.154,100.952 135.063,101.067 135.657,101.149C136.402,101.253 141.581,101.258 141.928,101.155L141.928,101.156ZM136.332,99.217C137.162,98.551 137.162,98.551 136.683,98.103C136.203,97.654 136.203,97.654 135.928,98.124C135.777,98.383 135.512,98.782 135.339,99.011C134.223,100.489 134.637,100.575 136.332,99.217ZM142.682,100.282C142.65,100.23 142.162,99.247 141.598,98.097C139.201,93.217 139.022,93.008 139.103,95.185C139.193,97.632 139.251,97.8 140.272,98.627C140.73,98.997 141.341,99.492 141.63,99.726C141.919,99.96 142.269,100.198 142.409,100.256C142.739,100.393 142.751,100.394 142.682,100.282ZM136.393,97.401C136.393,97.366 136.365,97.338 136.33,97.338C136.295,97.338 136.267,97.366 136.267,97.401C136.267,97.436 136.295,97.464 136.33,97.464C136.365,97.464 136.393,97.436 136.393,97.401ZM136.734,96.831C136.955,96.247 137.212,96.234 137.812,96.776C138.103,97.039 138.355,97.202 138.371,97.138C138.387,97.073 138.425,96.143 138.454,95.07C138.517,92.799 138.521,92.8 137.504,94.931C137.156,95.663 136.759,96.475 136.624,96.736C136.488,96.997 136.425,97.211 136.484,97.211C136.543,97.211 136.655,97.04 136.734,96.831ZM130.694,101.769C130.694,101.63 130.892,101.131 131.134,100.661C132.76,97.5 132.78,97.44 132.188,97.524C131.889,97.567 131.217,97.621 130.694,97.644C129.888,97.681 129.301,97.788 129.301,97.9C129.301,97.916 129.464,98.437 129.662,99.058C129.86,99.679 130.123,100.6 130.246,101.105C130.456,101.973 130.694,102.326 130.694,101.769ZM147.407,101.232C147.563,100.866 147.818,100.082 147.973,99.49C148.129,98.898 148.296,98.324 148.345,98.215C148.419,98.048 148.217,97.971 147.131,97.749C145.175,97.35 144.708,97.298 144.791,97.492C144.83,97.581 145.032,98.082 145.242,98.604C146.394,101.475 146.993,102.203 147.407,101.232ZM125.801,100.082C125.828,99.684 125.801,99.329 125.74,99.291C125.679,99.253 125.629,99.083 125.629,98.913C125.629,98.56 125.375,98.517 124.584,98.737C123.937,98.917 123.927,98.885 125.053,100.162C125.787,100.994 125.737,100.999 125.801,100.082ZM152.632,99.773C153.162,99.109 153.142,99.044 152.381,98.949C151.782,98.874 151.762,98.917 151.925,99.902C152.023,100.499 152.057,100.493 152.632,99.773ZM128.59,98.801C128.42,98.259 128.319,98.107 128.17,98.164C128.063,98.205 127.623,98.272 127.192,98.312C126.048,98.419 126.22,98.758 127.662,99.234C128.934,99.655 128.869,99.685 128.59,98.801ZM125.629,97.512C125.629,96.972 125.624,96.973 125.077,97.64C124.622,98.195 124.622,98.195 125.126,98.068C125.588,97.95 125.629,97.905 125.629,97.512ZM152.257,97.693C151.907,97.162 151.907,97.162 151.865,97.514C151.805,98.028 151.921,98.224 152.284,98.224C152.607,98.224 152.607,98.224 152.257,97.693ZM124.752,96.989C125.129,96.519 125.516,96.074 125.611,95.999C126.013,95.685 125.862,90.764 125.44,90.453C123.887,89.305 123.647,89.293 123.245,90.339C122.511,92.255 122.083,94.017 122.083,95.128C122.083,95.967 121.93,95.974 123.813,95.058C125.682,94.149 125.502,94.165 125.502,94.912C125.502,95.55 125.516,95.523 124.27,97.243C123.612,98.152 123.969,97.963 124.752,96.989ZM122.653,94.931C122.485,94.659 122.812,92.178 123.129,91.322C123.597,90.061 123.997,90.178 123.613,91.464C123.39,92.207 123.101,94.102 123.097,94.836C123.096,95.074 122.782,95.141 122.653,94.931ZM150.957,96.94C150.957,96.054 150.217,94.57 149.939,94.9C149.83,95.031 149.143,97.341 149.201,97.386C149.269,97.439 150.614,97.812 150.799,97.829C150.912,97.84 150.957,97.587 150.957,96.94ZM127.393,97.507C127.899,97.343 128.027,97.25 127.964,97.095C127.919,96.985 127.794,96.638 127.687,96.324C127.579,96.011 127.476,95.735 127.456,95.711C127.277,95.493 126.515,96.664 126.515,97.158C126.515,97.794 126.51,97.792 127.393,97.507ZM148.527,96.923C148.564,96.73 148.529,96.72 148.253,96.845C147.77,97.065 147.36,96.891 146.955,96.295C146.753,95.998 146.558,95.726 146.52,95.691C145.921,95.134 145.804,94.157 146.263,93.549C146.499,93.236 147.262,94.191 148.234,96.02C148.408,96.348 148.551,96.579 148.551,96.535C148.551,96.491 148.694,95.904 148.868,95.232C149.186,94.01 149.186,94.01 148.765,93.489C148.533,93.203 148.169,92.712 147.955,92.399C146.84,90.763 144.944,89.159 143.768,88.856C143.16,88.699 142.065,88.381 141.335,88.15C139.82,87.669 139.848,87.667 140.161,88.236C140.29,88.471 140.528,88.976 140.69,89.359C140.996,90.085 142.835,93.828 143.654,95.392C144.127,96.295 144.127,96.295 145.041,96.436C145.543,96.513 146.439,96.716 147.031,96.886C148.243,97.235 148.466,97.24 148.527,96.923ZM144.456,95.786C143.492,94.211 143.452,94.073 143.672,93.111C143.786,92.615 143.964,91.838 144.067,91.385C144.544,89.299 144.799,89.258 146.15,91.051C146.412,91.398 146.487,91.6 146.41,91.748C146.351,91.862 146.114,92.639 145.884,93.475C145.205,95.946 144.878,96.476 144.456,95.786ZM143.434,90.765C143.323,90.643 143.232,90.466 143.232,90.373C143.232,90.281 143.053,89.927 142.836,89.587C142.348,88.827 142.403,88.762 143.315,89.021C144.059,89.233 144.275,89.41 144.19,89.739C144.163,89.844 144.105,90.137 144.063,90.392C143.972,90.931 143.72,91.081 143.434,90.765ZM129.972,96.904C131.428,96.57 133.036,96.271 133.198,96.304C133.356,96.336 134.62,93.842 134.62,93.498C134.62,93.404 134.654,93.294 134.695,93.253C134.806,93.142 135.87,90.752 135.809,90.752C135.779,90.752 135.372,90.987 134.903,91.275C134.434,91.562 133.666,92.029 133.196,92.313C132.155,92.942 132.156,92.887 133.164,93.606C133.617,93.929 133.987,94.213 133.987,94.235C133.987,94.39 133.476,95.426 133.366,95.494C133.291,95.54 132.746,95.205 132.155,94.748C130.803,93.705 131.04,93.677 129.365,95.08C129.225,95.197 128.975,95.4 128.809,95.532C128.506,95.773 128.506,95.773 128.724,96.429C128.97,97.168 128.913,97.147 129.972,96.904ZM127.2,93.86C126.83,92.168 126.665,92.046 126.657,93.462C126.649,94.842 126.649,94.842 126.967,94.544C127.223,94.303 127.268,94.172 127.2,93.86ZM150.957,93.513C150.957,92.118 150.895,92.077 150.458,93.183C150.173,93.904 150.173,93.904 150.517,94.354C150.974,94.953 150.957,94.985 150.957,93.513ZM128.98,92.211C129.343,91.722 129.939,90.994 130.306,90.594C130.964,89.876 130.986,89.754 130.415,89.982C130.255,90.046 129.811,90.191 129.428,90.305C128.335,90.628 128.356,90.617 128.514,90.775C128.798,91.059 128.206,91.927 127.773,91.864C127.346,91.801 127.311,91.928 127.583,92.553C127.682,92.781 127.797,93.075 127.837,93.204C127.937,93.523 128.135,93.351 128.98,92.211ZM149.814,92.031C150.1,90.911 150.107,90.946 149.54,90.621C149.342,90.507 147.68,90.119 147.391,90.119C147.32,90.119 147.411,90.297 147.594,90.514C147.777,90.731 148.018,91.088 148.13,91.306C148.36,91.753 149.443,93.195 149.503,93.135C149.525,93.113 149.665,92.616 149.814,92.031ZM133.056,89.522C133.931,89.054 134.588,88.652 134.516,88.628C134.306,88.558 133.354,88.851 133.354,88.986C133.354,89.185 132.561,89.612 132.191,89.612C131.959,89.612 131.766,89.732 131.581,89.992C131.219,90.501 131.23,90.497 133.056,89.522ZM128.937,89.694C129.312,89.53 130.017,89.324 130.504,89.236C131.544,89.05 132.43,88.24 133.868,86.162C135.29,84.108 134.026,84.688 130.884,87.531C130.327,88.035 129.564,88.696 129.187,88.999C128.02,89.938 127.968,89.987 128.114,89.99C128.193,89.991 128.563,89.858 128.937,89.694ZM130.737,88.528C130.691,88.407 130.808,88.172 131.037,87.926C131.244,87.704 131.522,87.403 131.656,87.256C132.414,86.42 133.247,86.442 132.807,87.286C132.312,88.233 130.94,89.056 130.737,88.528ZM149.012,89.391C148.089,88.575 147.268,87.885 145.396,86.352C143.605,84.884 142.25,84.375 143.253,85.547C146.262,89.062 146.167,88.968 146.904,89.176C147.287,89.284 148,89.507 148.487,89.672C149.734,90.094 149.78,90.069 149.012,89.391ZM150.704,85.562C150.478,85.118 145.005,84.685 145.005,85.111C145.005,85.142 145.274,85.353 145.602,85.579C145.931,85.805 146.629,86.366 147.154,86.825C150.766,89.986 150.888,90.021 150.929,87.906C150.96,86.264 150.937,86.016 150.704,85.562ZM146.904,86.367C145.809,85.453 145.816,85.433 147.217,85.433C148.566,85.433 148.552,85.417 148.097,86.542C147.879,87.081 147.735,87.06 146.904,86.367ZM128.457,88.56C129.457,87.712 129.38,87.535 127.379,86.092C126.812,85.683 126.524,86.229 126.522,87.713C126.52,89.211 126.947,89.924 127.52,89.379C127.641,89.263 128.063,88.895 128.457,88.56ZM144.985,88.378C142.49,85.397 141.512,84.603 142.592,86.435C143.141,87.366 143.01,87.652 142.128,87.454C141.582,87.33 141.578,87.325 140.673,85.586C140.229,84.733 139.112,84.806 139.135,85.687C139.159,86.613 139.361,86.897 140.175,87.146C140.568,87.267 141.573,87.583 142.409,87.849C145.011,88.678 145.284,88.734 144.985,88.378ZM134.367,87.896C134.471,87.875 134.927,87.788 135.38,87.704C136.257,87.541 137.78,86.679 138.035,86.202C139.167,84.086 135.619,84.639 134.178,86.803C133.978,87.103 133.591,87.604 133.317,87.915C132.819,88.48 132.819,88.48 133.498,88.208C133.872,88.058 134.263,87.918 134.367,87.896ZM125.519,87.329C125.515,86.492 125.438,86.26 125.292,86.65C125.243,86.782 125.085,87.052 124.941,87.25C124.679,87.609 124.679,87.609 125.054,87.909C125.522,88.283 125.524,88.281 125.519,87.329ZM132.277,85.307C132.503,85.057 132.499,85.054 131.961,85.054C131.423,85.054 131.418,85.057 131.644,85.307C131.77,85.446 131.913,85.56 131.961,85.56C132.009,85.56 132.151,85.446 132.277,85.307ZM134.24,84.341C134.24,84.161 134.966,83.496 136.615,82.164C137.329,81.587 137.913,81.057 137.913,80.986C137.913,80.761 137.142,79.726 137.028,79.797C136.967,79.835 136.475,79.87 135.934,79.875C133.876,79.896 129.154,82.071 129.441,82.865C129.737,83.685 130.851,84.411 131.868,84.447C133.733,84.513 134.24,84.49 134.24,84.341ZM129.681,82.964C129.681,82.859 129.732,82.774 129.793,82.774C129.855,82.774 130.277,82.519 130.732,82.208C131.187,81.896 131.806,81.531 132.108,81.396C133.525,80.761 134.675,80.358 134.981,80.389C135.166,80.407 135.651,80.348 136.059,80.257C136.595,80.137 136.839,80.129 136.939,80.229C137.168,80.459 136.881,80.615 136.101,80.688C135.685,80.726 134.959,80.937 134.397,81.183C133.858,81.419 133.161,81.679 132.847,81.761C132.349,81.892 131.703,82.174 131.074,82.535C130.013,83.144 129.681,83.246 129.681,82.964ZM135.878,83.906C136.098,83.632 136.248,83.407 136.21,83.407C136.09,83.407 135.127,84.318 135.127,84.431C135.127,84.645 135.485,84.395 135.878,83.906ZM138.182,84.099C138.493,82.651 138.307,82.075 137.714,82.653C136.806,83.54 136.228,84.393 136.494,84.453C137.32,84.639 138.102,84.475 138.182,84.099ZM142.765,84.29C142.483,84.027 140.952,82.92 140.952,82.978C140.952,83.237 142.388,84.512 142.613,84.453C142.754,84.416 142.822,84.343 142.765,84.29ZM149.719,83.765C148.825,82.901 148.728,82.874 148.728,83.485C148.728,84.207 148.544,84.269 146.34,84.28C143.708,84.293 142.411,83.337 143.892,82.475C145.853,81.332 145.982,81.153 145.119,80.762C143.148,79.871 138.419,79.013 138.419,79.547C138.419,79.687 139.081,80.605 139.222,80.66C139.656,80.83 141.913,82.567 142.812,83.423C144,84.554 143.602,84.475 148.155,84.493C150.482,84.503 150.482,84.503 149.719,83.765ZM149.015,84.083C148.803,83.871 148.931,83.652 149.187,83.789C149.329,83.865 149.411,83.981 149.37,84.047C149.283,84.187 149.135,84.202 149.015,84.083ZM143.548,81.102C142.692,80.673 141.631,80.425 140.097,80.296C139.076,80.21 138.708,79.985 139.25,79.777C139.7,79.605 142.152,80.002 143.232,80.423C143.824,80.654 144.408,80.876 144.53,80.918C144.806,81.012 144.819,81.328 144.551,81.431C144.441,81.473 144.341,81.502 144.33,81.495C144.318,81.488 143.966,81.311 143.548,81.102ZM139.939,84.325C139.938,84.273 139.768,83.974 139.559,83.66C139.18,83.091 139.18,83.091 139.18,83.755C139.179,84.41 139.185,84.42 139.559,84.42C139.768,84.42 139.939,84.378 139.939,84.325ZM141.459,84.364C141.459,84.334 141.393,84.268 141.313,84.218C141.222,84.162 141.201,84.184 141.257,84.274C141.347,84.42 141.459,84.47 141.459,84.364ZM125.435,115.061C125.315,114.866 125.479,114.74 125.642,114.903C125.733,114.994 125.735,115.065 125.649,115.118C125.578,115.162 125.482,115.136 125.435,115.061ZM126.009,115.13C126.009,115.096 126.037,115.067 126.072,115.067C126.107,115.067 126.135,115.096 126.135,115.13C126.135,115.165 126.107,115.194 126.072,115.194C126.037,115.194 126.009,115.165 126.009,115.13ZM157.162,104.619C157.162,104.585 157.191,104.556 157.225,104.556C157.26,104.556 157.289,104.585 157.289,104.619C157.289,104.654 157.26,104.683 157.225,104.683C157.191,104.683 157.162,104.654 157.162,104.619ZM157.415,103.694C157.415,103.637 157.499,103.481 157.601,103.346C157.791,103.095 157.857,103.235 157.718,103.596C157.639,103.803 157.415,103.875 157.415,103.694ZM157.748,102.935C157.714,102.88 157.738,102.752 157.802,102.65C157.893,102.507 157.919,102.529 157.92,102.751C157.922,103.044 157.858,103.113 157.748,102.935ZM124.236,83.231C124.236,83.203 124.407,82.998 124.616,82.774C124.825,82.55 124.996,82.295 124.996,82.206C124.996,82.004 126.394,80.826 127.297,80.266C127.668,80.037 128.2,79.682 128.478,79.479C128.757,79.276 129.028,79.108 129.08,79.106C129.302,79.096 129.14,79.312 128.722,79.583C127.872,80.133 125.624,82.037 125.088,82.658C124.644,83.174 124.236,83.448 124.236,83.231ZM133.523,77.244C133.569,77.198 133.645,77.198 133.692,77.244C133.738,77.29 133.7,77.328 133.607,77.328C133.514,77.328 133.476,77.29 133.523,77.244ZM158.429,117.283C158.429,117.248 158.4,117.22 158.365,117.22C158.33,117.22 158.302,117.248 158.302,117.283C158.302,117.318 158.33,117.347 158.365,117.347C158.4,117.347 158.429,117.318 158.429,117.283ZM163.994,108.767C164.067,108.506 164.126,108.247 164.127,108.192C164.127,108.137 164.238,107.937 164.373,107.749C164.773,107.191 164.773,106.559 164.372,106.514C163.702,106.439 163.011,106.193 162.938,106.003C162.84,105.746 162.608,105.894 162.608,106.214C162.608,106.351 162.522,106.496 162.418,106.536C162.313,106.577 162.228,106.689 162.228,106.786C162.228,106.884 162.113,107.177 161.973,107.438C161.717,107.912 161.717,107.912 162.004,107.953C162.34,108 162.617,108.31 162.529,108.54C162.491,108.64 162.616,108.73 162.862,108.78C163.078,108.823 163.342,108.945 163.448,109.05C163.74,109.342 163.85,109.285 163.994,108.767ZM161.765,84.852C161.994,84.536 161.993,84.524 161.67,84.035C161.489,83.763 161.341,83.453 161.341,83.347C161.341,83.241 161.291,83.154 161.229,83.154C161.168,83.154 160.87,82.769 160.568,82.299C160.265,81.829 159.835,81.245 159.611,81.001C159.388,80.757 159.028,80.358 158.811,80.115C158.416,79.671 158.416,79.671 158.674,80.115C158.817,80.358 159.004,80.7 159.09,80.874C159.176,81.049 159.319,81.237 159.407,81.292C159.496,81.348 159.568,81.499 159.568,81.627C159.568,81.755 159.647,81.89 159.742,81.927C159.838,81.964 159.955,82.201 160.003,82.455C160.05,82.708 160.2,83.01 160.335,83.126C160.471,83.242 160.581,83.435 160.581,83.555C160.581,83.674 160.638,83.807 160.708,83.85C160.778,83.893 160.835,84.039 160.835,84.175C160.835,84.31 160.885,84.42 160.946,84.42C161.007,84.42 161.128,84.591 161.215,84.8C161.405,85.259 161.464,85.265 161.765,84.852Z" style="fill:rgb(105,105,105);fill-rule:nonzero;"/>
        </g>
    </g>
</svg>
