<?xml version="1.0" encoding="UTF-8" standalone="no"?>
<!DOCTYPE svg PUBLIC "-//W3C//DTD SVG 1.1//EN" "http://www.w3.org/Graphics/SVG/1.1/DTD/svg11.dtd">
<svg width="100%" height="100%" viewBox="0 0 323 409" version="1.1" xmlns="http://www.w3.org/2000/svg" xmlns:xlink="http://www.w3.org/1999/xlink" xml:space="preserve" xmlns:serif="http://www.serif.com/" style="fill-rule:evenodd;clip-rule:evenodd;stroke-linejoin:round;stroke-miterlimit:2;">
    <g id="g1" transform="matrix(3.77953,0,0,3.77953,-405.875,-517.679)">
        <path id="path2" d="M145.289,241.744C136.924,235.477 130.826,230.203 124.595,223.843C116.392,215.472 112.143,209.653 109.416,203.059C107.497,198.418 107.589,199.845 107.483,172.93L107.388,148.699L114.873,146.649C118.989,145.521 123.608,144.258 125.136,143.842C126.664,143.425 129.64,142.608 131.75,142.025C133.86,141.443 138.874,140.067 142.893,138.968L150.199,136.969L153.873,138C155.894,138.567 159.393,139.527 161.648,140.134C163.904,140.741 166.761,141.522 167.998,141.871C171.491,142.856 192.644,148.611 192.771,148.611C192.834,148.611 192.851,159.654 192.81,173.151L192.735,197.691L191.999,200.072C189.064,209.557 180.477,220.472 166.368,232.65C160.499,237.716 150.796,245.189 150.098,245.181C149.975,245.18 147.811,243.633 145.289,241.744L145.289,241.744ZM153.4,240.25C173.416,225.423 186.957,210.121 190.009,198.881L190.62,196.633L190.62,150.379L188.9,149.886C186.981,149.335 180.442,147.549 176.994,146.633C175.757,146.304 169.224,144.52 162.477,142.668C151.668,139.702 150.095,139.332 149.248,139.557C148.719,139.698 146.441,140.317 144.186,140.933C141.93,141.549 139.073,142.324 137.836,142.653C136.599,142.983 130.288,144.713 123.813,146.498C117.337,148.282 111.53,149.866 110.908,150.016L109.776,150.29L109.922,197.955L110.797,200.469C113.756,208.964 122.229,219.584 134.667,230.386C140.031,235.045 149.62,242.538 150.218,242.538C150.27,242.538 151.702,241.508 153.4,240.25L153.4,240.25ZM147.203,237.698C140.162,232.409 134.008,227.101 128.443,221.515C120.745,213.788 115.759,207.059 113.457,201.293C111.872,197.321 111.915,198.074 111.91,174.097L111.906,152.091L112.766,151.817C113.239,151.666 118.21,150.294 123.813,148.768C129.415,147.242 137.511,145.025 141.804,143.84C146.097,142.656 149.848,141.688 150.139,141.688C150.602,141.689 185.258,151.077 187.511,151.811L188.371,152.091L188.369,174.097C188.367,195.076 188.343,196.205 187.846,198.278C185.806,206.788 175.969,218.961 161.119,231.353C158.267,233.733 151.237,239.197 150.381,239.701C150.223,239.793 148.792,238.892 147.202,237.698L147.203,237.698Z" style="fill-rule:nonzero;"/>
    </g>
</svg>
