<?xml version="1.0" encoding="UTF-8" standalone="no"?>
<!DOCTYPE svg PUBLIC "-//W3C//DTD SVG 1.1//EN" "http://www.w3.org/Graphics/SVG/1.1/DTD/svg11.dtd">
<svg width="100%" height="100%" viewBox="0 0 283 358" version="1.1" xmlns="http://www.w3.org/2000/svg" xmlns:xlink="http://www.w3.org/1999/xlink" xml:space="preserve" xmlns:serif="http://www.serif.com/" style="fill-rule:evenodd;clip-rule:evenodd;stroke-linejoin:round;stroke-miterlimit:2;">
    <g id="g1" transform="matrix(3.77953,0,0,3.77953,-110.648,-230.656)">
        <path id="path5" d="M67.785,155.684C67.504,155.571 65.666,154.077 65.713,154C65.792,153.873 65.457,153.517 65.307,153.568C65.119,153.633 64.079,152.843 62.532,151.462C61.823,150.828 60.626,149.983 59.683,149.449L58.886,148.998L58.849,148.736C58.828,148.592 58.863,148.422 58.926,148.359L59.041,148.244L58.643,147.896C58.425,147.704 58.056,147.371 57.825,147.155C57.593,146.94 57.084,146.486 56.693,146.147C56.301,145.808 55.867,145.42 55.727,145.285C55.586,145.15 55.402,144.999 55.318,144.949C54.79,144.64 49.42,139.403 49.42,139.197C49.42,139.138 49.367,139.09 49.303,139.09C49.238,139.09 49.061,138.956 48.91,138.792C48.758,138.628 48.598,138.53 48.554,138.574C48.51,138.618 48.525,138.689 48.586,138.732C48.782,138.868 49.42,139.733 49.42,139.862C49.42,140.208 48.835,139.712 47.883,138.559L47.492,138.085L47.348,136.969L46.926,136.525C46.458,136.033 46.508,135.917 47.145,136.01C47.638,136.082 48.111,135.88 48.17,135.572C48.217,135.326 47.863,134.478 47.659,134.351C47.58,134.302 47.516,134.183 47.516,134.088C47.516,133.993 47.416,133.775 47.295,133.604C47.173,133.433 47.019,133.174 46.954,133.027C46.888,132.88 46.685,132.508 46.502,132.2C46.319,131.892 46.108,131.514 46.033,131.36C45.958,131.206 45.832,131.039 45.754,130.99C45.675,130.941 45.611,130.82 45.611,130.721C45.611,130.622 45.485,130.376 45.331,130.174C45.177,129.972 45.051,129.727 45.051,129.631C45.051,129.534 45.013,129.455 44.967,129.454C44.921,129.454 44.682,129.063 44.435,128.586C44.189,128.109 43.961,127.694 43.93,127.663C43.899,127.632 43.773,127.405 43.65,127.159C43.527,126.912 43.398,126.686 43.363,126.655C43.328,126.624 43.111,126.221 42.88,125.759C42.649,125.296 42.415,124.843 42.359,124.75C42.172,124.441 40.682,121.27 40.682,121.182C40.682,121.062 40.141,120.678 39.702,120.486C39.502,120.398 39.338,120.295 39.338,120.256C39.338,119.849 38.162,119.912 37.972,120.328C37.902,120.481 37.778,120.605 37.696,120.605C37.613,120.605 37.546,120.654 37.546,120.714C37.546,120.773 37.395,120.987 37.211,121.19C37.028,121.392 36.791,121.655 36.686,121.775L36.495,121.992L36.444,121.839C36.416,121.754 36.527,121.571 36.689,121.431C36.852,121.291 36.985,121.128 36.985,121.068C36.985,121.009 37.031,120.943 37.086,120.923C37.287,120.849 38.091,119.782 38.161,119.497C38.251,119.133 38.869,118.477 39.123,118.477C39.468,118.477 39.142,116.563 38.725,116.147C38.669,116.09 37.903,116.699 37.89,116.811C37.885,116.85 37.579,117.2 37.209,117.59C36.84,117.98 36.537,118.333 36.537,118.376C36.537,118.418 36.411,118.484 36.257,118.523C36.103,118.562 35.977,118.645 35.977,118.708C35.977,118.771 35.675,119.117 35.305,119.476C34.935,119.836 34.633,120.187 34.633,120.256C34.633,120.325 34.556,120.381 34.462,120.381L34.292,120.381L34.475,120.101C34.576,119.947 34.703,119.821 34.758,119.821C34.812,119.821 34.857,119.746 34.857,119.653C34.857,119.561 34.907,119.485 34.969,119.485C35.031,119.485 35.081,119.44 35.081,119.386C35.081,119.331 35.308,119.056 35.585,118.775C36.161,118.191 36.214,117.89 35.807,117.513C35.652,117.369 35.494,117.096 35.456,116.906L35.387,116.561L34.725,116.707L34.88,115.258L34.675,115.019C34.563,114.888 34.381,114.78 34.272,114.78L34.073,114.78L34.073,115.023C34.073,115.156 34.041,115.233 34.001,115.194C33.918,115.11 34.138,114.213 34.372,113.684C34.462,113.482 34.519,113.179 34.5,113.012L34.465,112.708L34.297,112.751C34.204,112.775 34.003,112.819 33.849,112.85C33.695,112.88 33.485,112.977 33.384,113.066C33.27,113.165 33.033,113.211 32.767,113.187L32.336,113.147L32.953,112.838C33.291,112.669 33.644,112.489 33.737,112.439C33.829,112.389 34.103,112.253 34.345,112.136C34.587,112.019 35.049,111.661 35.37,111.339L35.955,110.755L36.032,110.195C36.074,109.887 36.073,109.253 36.03,108.786L35.95,107.937L35.827,107.978C35.759,108.001 35.673,108.142 35.637,108.291C35.6,108.44 35.537,107.89 35.497,107.068L35.423,105.574L35.252,105.231C35.158,105.042 35.081,104.718 35.081,104.511C35.081,104.083 34.746,102.793 34.635,102.793C34.595,102.793 34.126,103.247 33.593,103.802C32.72,104.71 32.168,105.059 32.168,104.702C32.168,104.6 33.128,103.359 33.298,103.242C34.068,102.711 34.63,101.494 34.352,100.96C34.08,100.439 34.144,100.151 34.633,99.699C35.069,99.296 35.153,99.078 35.013,98.714C34.927,98.489 34.745,98.483 34.745,98.704C34.745,98.797 34.691,98.872 34.624,98.872C34.558,98.872 34.344,99.024 34.148,99.209C33.953,99.395 33.713,99.621 33.615,99.713C33.518,99.805 33.407,99.881 33.368,99.881C33.33,99.881 33.178,99.994 33.03,100.133C32.882,100.271 32.52,100.586 32.226,100.833C31.931,101.079 31.523,101.445 31.317,101.645C30.964,101.989 30.712,102.107 30.712,101.929C30.712,101.829 31.409,101.226 31.524,101.225C31.57,101.225 31.608,101.148 31.608,101.053C31.608,100.959 31.696,100.849 31.804,100.809C31.912,100.769 32.183,100.544 32.407,100.308C32.631,100.073 32.859,99.881 32.915,99.881C32.97,99.881 33.091,99.793 33.185,99.685C33.278,99.577 33.551,99.337 33.79,99.153C34.029,98.968 34.317,98.728 34.429,98.62C34.541,98.513 34.709,98.424 34.801,98.424L34.969,98.424L34.969,97.192L34.773,97.193C34.665,97.194 34.356,97.37 34.085,97.585C33.814,97.8 33.542,97.976 33.48,97.976C33.417,97.976 33.193,98.178 32.983,98.424C32.772,98.671 32.526,98.873 32.437,98.873C32.348,98.873 32.227,98.999 32.168,99.153C32.11,99.307 32.001,99.433 31.926,99.433C31.851,99.433 31.499,99.735 31.143,100.105C30.786,100.474 30.452,100.777 30.399,100.777C30.346,100.777 30.185,100.903 30.04,101.057C29.895,101.211 29.723,101.333 29.656,101.328C29.59,101.323 29.599,101.294 29.676,101.263C29.753,101.232 29.816,101.167 29.816,101.12C29.816,101.033 30.929,99.881 31.012,99.881C31.037,99.881 31.271,99.667 31.534,99.405C32.245,98.695 33.314,97.752 33.407,97.752C33.452,97.752 33.569,97.551 33.667,97.305L33.846,96.857L33.729,95.708C33.572,94.171 33.504,94.143 32.201,95.088C31.88,95.321 31.583,95.512 31.541,95.512C31.499,95.512 31.156,95.705 30.78,95.941C30.087,96.377 29.592,96.572 29.592,96.41C29.592,96.266 30.412,95.512 30.569,95.512C30.648,95.512 30.712,95.465 30.712,95.407C30.712,95.349 30.914,95.189 31.16,95.05C31.407,94.912 31.608,94.757 31.608,94.707C31.608,94.657 31.671,94.615 31.748,94.614C31.902,94.611 32.792,94.051 33.074,93.779C33.172,93.684 33.301,93.607 33.361,93.607C33.55,93.607 33.855,92.831 33.781,92.538C33.706,92.238 33.513,92.161 33.513,92.431C33.513,92.524 33.439,92.599 33.348,92.599L33.184,92.599L33.258,92.403C33.299,92.295 33.398,92.081 33.478,91.927C33.558,91.773 33.624,91.593 33.624,91.528C33.624,91.462 33.723,91.205 33.844,90.955C34.357,89.894 34.56,88.897 34.297,88.734C34.235,88.696 34.185,88.718 34.185,88.784C34.185,88.849 34.071,88.901 33.933,88.899L33.681,88.896L34.409,88.233L34.409,85.425L34.157,85.323C34.018,85.267 33.35,85.165 32.672,85.097C31.071,84.936 30.712,84.869 30.712,84.731L30.712,84.617L32.028,84.695C32.752,84.737 33.571,84.781 33.849,84.793L34.353,84.813L34.387,84.032C34.427,83.09 34.38,83.124 35.702,83.096L36.769,83.074L37.465,82.838C38.398,82.522 38.958,81.806 39.338,80.444C39.423,80.136 39.559,79.758 39.639,79.604C39.719,79.45 39.785,79.245 39.785,79.149C39.786,79.053 39.909,78.725 40.06,78.421L40.334,77.868L40.335,78.26C40.336,78.476 40.268,78.904 40.185,79.212C40.102,79.52 40.073,79.814 40.121,79.865C40.21,79.961 40.682,79.725 40.682,79.585C40.682,79.542 40.928,79.255 41.228,78.947L41.773,78.387L42.008,78.622L42.549,78.419C43.151,78.193 43.939,77.722 44.077,77.505C44.126,77.427 44.217,77.364 44.28,77.364C44.343,77.364 44.555,77.25 44.751,77.111C44.947,76.973 45.208,76.799 45.331,76.726C46.438,76.072 47.016,75.638 47.712,74.94C48.159,74.492 48.524,74.072 48.524,74.008C48.524,73.944 48.596,73.891 48.684,73.891C48.772,73.891 48.867,73.803 48.895,73.695L48.946,73.499L48.959,73.751C48.966,73.889 48.928,74.003 48.873,74.003C48.819,74.003 48.744,74.091 48.707,74.199C48.67,74.307 48.541,74.555 48.421,74.75L48.203,75.105L48.349,75.161C48.61,75.261 49.928,74.781 50.484,74.383C50.669,74.251 50.999,74.06 51.218,73.959C51.436,73.858 51.78,73.625 51.981,73.441C52.182,73.257 52.415,73.107 52.498,73.107C52.58,73.107 52.892,72.984 53.191,72.834C53.734,72.561 54.567,72.193 54.94,72.062C55.049,72.023 55.237,71.824 55.357,71.62C55.637,71.145 56.185,70.74 56.695,70.631C57.029,70.559 58.455,70.07 59.054,69.822C59.147,69.783 59.424,69.704 59.671,69.646C60.77,69.388 61.815,69.043 61.995,68.88L62.191,68.703L62.191,65.401L62.368,65.333C62.696,65.207 62.762,65.262 63.066,65.909L63.367,66.553L63.442,70.551L62.923,71.048C62.348,71.599 62.191,71.596 62.191,71.035L62.191,70.657L61.983,70.591C61.733,70.512 59.902,70.814 59.259,71.041C59.008,71.13 58.655,71.202 58.476,71.202C58.296,71.202 58,71.313 57.818,71.447L57.486,71.693L57.486,72.967L57.136,73.037C56.943,73.075 56.638,73.107 56.458,73.107C56.277,73.107 55.918,73.202 55.66,73.318C55.401,73.435 54.912,73.643 54.573,73.782C54.235,73.921 53.696,74.153 53.376,74.299C53.056,74.444 52.748,74.563 52.69,74.563C52.632,74.563 52.527,74.633 52.456,74.718C52.386,74.803 52.19,74.9 52.022,74.935C51.761,74.989 51.479,75.13 50.316,75.786C50.224,75.839 49.997,75.95 49.812,76.034C49.627,76.118 49.451,76.212 49.42,76.243C49.255,76.409 48.657,76.782 48.452,76.847C48.249,76.911 47.843,77.127 46.694,77.782C46.561,77.858 46.305,77.921 46.125,77.922L45.798,77.924L44.921,78.51C44.438,78.833 44.043,79.135 44.043,79.182C44.043,79.23 43.974,79.268 43.889,79.268C43.804,79.268 43.191,79.81 42.526,80.472L41.317,81.677L41.516,81.715C41.625,81.736 41.769,81.699 41.837,81.631C41.904,81.564 42.079,81.509 42.225,81.509C42.371,81.509 42.566,81.433 42.659,81.341C42.751,81.248 42.943,81.173 43.085,81.173C43.227,81.173 43.406,81.097 43.483,81.005C43.56,80.912 43.704,80.833 43.805,80.828C43.905,80.824 44.138,80.724 44.323,80.606C44.508,80.488 44.785,80.339 44.939,80.275C45.358,80.1 45.406,80.074 45.891,79.769C46.138,79.614 46.466,79.426 46.62,79.352C46.774,79.278 46.925,79.187 46.956,79.15C46.987,79.113 47.185,78.986 47.396,78.868C47.608,78.749 47.86,78.584 47.957,78.5C49.097,77.511 50.058,76.971 49.929,77.392C49.887,77.53 49.825,77.876 49.791,78.161L49.731,78.677L50.411,78.915L51.064,78.768C51.799,78.602 53.328,78.052 54.202,77.639C54.522,77.487 54.81,77.364 54.843,77.364C55.005,77.364 59.452,75.21 60.175,74.782C60.267,74.727 60.544,74.581 60.791,74.457C61.037,74.334 61.315,74.189 61.407,74.135C61.499,74.082 61.692,73.977 61.835,73.902C62.326,73.647 62.92,73.317 63.591,72.928C63.961,72.714 64.352,72.509 64.46,72.473C64.567,72.438 64.656,72.369 64.656,72.32C64.656,72.272 64.794,72.179 64.964,72.114C65.133,72.049 65.524,71.843 65.832,71.656C66.14,71.47 66.468,71.282 66.56,71.238C66.653,71.195 66.999,70.996 67.331,70.798L67.933,70.436L68.227,70.566C68.388,70.637 68.582,70.747 68.657,70.809C68.732,70.871 68.868,70.985 68.96,71.062C69.052,71.139 69.207,71.202 69.304,71.202C69.4,71.202 69.509,71.278 69.544,71.37C69.58,71.463 69.662,71.538 69.726,71.538C69.791,71.538 70,71.656 70.19,71.799C70.381,71.942 70.613,72.095 70.705,72.139C70.797,72.183 70.974,72.281 71.097,72.356C71.22,72.432 71.699,72.713 72.161,72.981C72.623,73.249 73.19,73.589 73.419,73.736C73.649,73.883 73.911,74.003 74.002,74.003C74.093,74.003 74.208,74.078 74.26,74.169C74.311,74.26 74.515,74.367 74.713,74.407L75.074,74.479L75.074,71.114L74.917,71.054C74.746,70.988 74.648,71.083 74.01,71.93C73.778,72.238 73.49,72.559 73.369,72.644L73.149,72.798L73.003,72.644C72.923,72.56 72.828,72.39 72.792,72.267L72.727,72.043L73.066,71.65C73.253,71.435 73.662,70.968 73.976,70.613C75.161,69.271 75.354,68.878 75.753,67.001C75.985,65.908 76.171,65.968 76.186,67.141C76.194,67.689 76.311,67.882 76.474,67.618C76.512,67.556 76.663,67.506 76.808,67.506L77.073,67.506L77.148,67.847C77.189,68.035 77.319,68.248 77.437,68.322C77.554,68.395 77.651,68.519 77.651,68.597C77.651,68.674 77.701,68.738 77.763,68.738C77.928,68.738 77.899,69.026 77.719,69.175L77.564,69.304L77.297,68.987C77.15,68.812 76.936,68.633 76.823,68.59L76.616,68.51L76.405,68.753C75.938,69.292 76.186,69.711 77.315,70.29C77.961,70.622 78.659,71.206 78.659,71.415C78.659,71.483 78.708,71.538 78.767,71.538C78.827,71.538 79.091,71.771 79.355,72.055C79.619,72.338 79.976,72.723 80.148,72.908C80.551,73.343 80.476,73.405 79.902,73.112L79.443,72.878L79.443,73.555L79.247,73.553C79.139,73.552 78.925,73.479 78.771,73.39C78.617,73.301 78.377,73.177 78.239,73.114C78.1,73.051 77.987,72.955 77.987,72.899C77.987,72.843 77.84,72.737 77.66,72.662C77.48,72.588 77.169,72.38 76.968,72.201C76.767,72.021 76.51,71.874 76.398,71.874L76.194,71.874L76.194,75.209L76.47,75.39C76.622,75.49 76.819,75.571 76.907,75.571C76.995,75.571 77.096,75.647 77.131,75.739C77.166,75.832 77.257,75.907 77.332,75.907C77.508,75.907 78.927,76.608 78.976,76.719C78.997,76.766 79.08,76.803 79.161,76.803C79.242,76.803 79.578,76.929 79.908,77.082C80.238,77.236 80.646,77.362 80.815,77.362C80.985,77.363 81.123,77.417 81.123,77.481C81.123,77.546 81.312,77.677 81.544,77.773C81.775,77.869 82.175,78.043 82.434,78.159C82.692,78.276 82.985,78.372 83.085,78.372C83.185,78.372 83.377,78.432 83.511,78.507C83.646,78.581 84.033,78.698 84.372,78.768L84.988,78.894L85.716,78.67L85.706,78.204L85.083,77.812C84.536,77.468 83.679,76.7 83.127,76.06C82.775,75.653 82.674,75.338 82.749,74.891L82.823,74.452L83.426,74.023L84.155,74.892L85.075,75.14L85.218,74.992C85.296,74.91 85.413,74.515 85.476,74.115C85.699,72.72 85.85,72.04 86.007,71.725C86.093,71.551 86.165,71.324 86.166,71.221C86.167,71.118 86.221,70.959 86.286,70.866L86.404,70.698L86.333,71.482C86.294,71.914 86.164,72.686 86.045,73.199C85.926,73.713 85.828,74.452 85.828,74.843L85.828,75.553L86.575,76.206C86.985,76.565 87.387,76.935 87.469,77.028C87.55,77.12 88.047,77.646 88.573,78.196C89.099,78.746 89.693,79.41 89.892,79.671C90.23,80.114 91.353,80.836 91.704,80.836C91.784,80.836 91.913,80.912 91.99,81.004C92.067,81.097 92.22,81.172 92.331,81.172C92.441,81.172 92.7,81.257 92.905,81.359C93.568,81.692 93.665,81.733 93.792,81.733C93.86,81.733 94.075,81.801 94.269,81.884C95.148,82.261 98.012,82.909 101.65,83.553L102.292,83.667L102.35,84.016C102.382,84.208 102.447,85.399 102.493,86.662L102.576,88.958L102.828,88.994C103.105,89.033 103.179,89.238 102.916,89.238C102.573,89.238 102.091,93.819 102.336,94.756C102.367,94.872 102.325,95.203 102.243,95.492C102.162,95.78 102.058,96.797 102.013,97.752C101.893,100.275 101.887,100.368 101.811,100.553C101.688,100.854 101.51,102.613 101.596,102.685C101.719,102.788 102.821,103.017 103.194,103.017C104.085,103.017 103.528,103.237 102.564,103.265L101.48,103.297L101.337,103.858C101.258,104.166 101.159,104.796 101.118,105.258C101.077,105.72 100.976,106.35 100.894,106.658C100.725,107.294 100.557,108.463 100.591,108.762C100.629,109.092 103.095,111.419 103.406,111.419C103.474,111.419 103.528,111.491 103.528,111.579C103.528,111.667 103.617,111.762 103.725,111.79L103.921,111.841L103.707,111.854C103.59,111.861 103.338,111.749 103.147,111.605C102.956,111.46 102.743,111.322 102.673,111.297C102.477,111.226 101.622,110.522 101.072,109.976L100.576,109.485L100.4,109.595C100.303,109.656 100.21,109.852 100.194,110.03C100.177,110.209 100.08,110.725 99.979,111.177L99.794,111.999L99.944,112.409C100.027,112.635 100.107,113.164 100.123,113.586L100.152,114.352L100.535,114.632L100.352,114.702C100.137,114.785 100.098,115.344 100.308,115.332C100.385,115.328 100.599,115.228 100.784,115.111C101.101,114.911 101.826,114.556 101.918,114.556C101.941,114.556 101.96,114.606 101.96,114.668C101.96,114.73 101.885,114.78 101.792,114.78C101.7,114.78 101.624,114.832 101.624,114.895C101.624,114.958 101.498,115.057 101.344,115.116C101.19,115.175 101.064,115.263 101.064,115.313C101.064,115.363 100.9,115.5 100.7,115.617C100.216,115.901 99.805,116.32 99.42,116.92C99.057,117.484 98.842,117.746 98.192,118.413C97.938,118.674 97.693,119.051 97.65,119.25L97.57,119.613L97.736,119.745C97.906,119.881 97.941,119.991 98.157,121.053C98.226,121.392 98.35,121.947 98.433,122.286C98.7,123.388 98.824,124.088 98.813,124.451L98.803,124.806L98.696,124.414C98.636,124.198 98.515,123.863 98.426,123.669C98.336,123.475 98.263,123.242 98.263,123.151C98.263,123.06 98.166,122.614 98.047,122.16C97.927,121.705 97.804,121.233 97.772,121.109C97.741,120.986 97.684,120.646 97.646,120.353C97.608,120.061 97.538,119.821 97.49,119.821C97.407,119.821 96.695,121.189 96.695,121.348C96.695,121.39 96.566,121.706 96.408,122.051C96.25,122.396 96.041,122.854 95.943,123.07C95.846,123.285 95.726,123.538 95.678,123.63C95.213,124.513 94.791,125.406 94.791,125.505C94.791,125.573 94.748,125.645 94.696,125.665C94.644,125.686 94.4,126.081 94.153,126.543C93.906,127.005 93.25,128.139 92.695,129.063C92.139,129.987 91.601,130.895 91.498,131.08C91.395,131.264 91.159,131.668 90.975,131.976C90.79,132.284 90.59,132.637 90.53,132.76C90.469,132.883 90.243,133.287 90.027,133.656C89.811,134.026 89.588,134.437 89.531,134.57C89.474,134.702 89.374,134.844 89.308,134.884C89.243,134.925 89.189,135.158 89.189,135.402L89.189,135.846L89.497,135.964C89.667,136.029 89.991,136.053 90.219,136.017C90.971,135.899 90.936,135.968 89.385,137.675C88.712,138.414 88.354,138.797 87.103,140.111C86.458,140.789 83.965,143.208 82.993,144.099C82.643,144.421 82.356,144.733 82.356,144.792C82.356,144.851 82.261,144.93 82.144,144.967C82.028,145.004 81.811,145.146 81.662,145.282C81.513,145.419 81.016,145.833 80.557,146.202C80.098,146.571 79.547,147.032 79.331,147.226C78.851,147.658 78.306,148.131 78.154,148.246C77.523,148.723 76.819,149.336 76.308,149.851C75.968,150.194 75.464,150.622 75.187,150.803C74.91,150.984 74.155,151.549 73.509,152.058C70.531,154.407 68.232,155.863 67.785,155.684L67.785,155.684ZM73.039,147.257C73.45,147.066 73.975,146.834 74.206,146.74C74.437,146.647 74.626,146.524 74.626,146.468C74.626,146.411 74.714,146.332 74.822,146.292C74.93,146.253 75.298,146.002 75.641,145.736C75.984,145.469 76.306,145.251 76.357,145.251C76.453,145.251 78.201,143.863 78.883,143.245C80.184,142.066 80.391,141.89 80.473,141.89C80.523,141.89 80.563,141.815 80.563,141.722C80.563,141.63 80.613,141.554 80.674,141.554C80.854,141.554 84.82,137.533 84.82,137.351C84.82,137.26 84.869,137.185 84.929,137.185C84.989,137.185 85.114,137.039 85.207,136.86C85.299,136.681 85.445,136.465 85.53,136.38C85.81,136.099 86.725,134.949 86.725,134.877C86.725,134.838 86.878,134.623 87.065,134.399C87.586,133.775 87.621,133.728 87.625,133.633C87.628,133.584 87.779,133.37 87.962,133.156C88.144,132.943 88.293,132.704 88.293,132.624C88.293,132.545 88.345,132.48 88.409,132.48C88.472,132.48 88.56,132.392 88.605,132.284C88.682,132.095 89.295,131.139 89.412,131.024C89.514,130.924 90.158,129.964 90.239,129.791C90.359,129.536 90.563,129.208 90.842,128.82C90.98,128.627 91.094,128.412 91.094,128.342C91.094,128.273 91.169,128.187 91.262,128.152C91.354,128.116 91.43,128.009 91.43,127.914C91.43,127.818 91.556,127.575 91.71,127.373C91.864,127.171 91.99,126.929 91.99,126.836C91.99,126.742 92.053,126.626 92.13,126.576C92.207,126.527 92.465,126.109 92.703,125.647C92.942,125.184 93.281,124.554 93.456,124.246C93.632,123.938 93.807,123.61 93.845,123.518C93.884,123.426 94.138,122.891 94.409,122.329C94.68,121.768 94.902,121.264 94.902,121.209C94.902,121.084 95.433,119.754 95.642,119.356C95.728,119.192 95.799,118.963 95.799,118.846C95.799,118.729 95.843,118.586 95.898,118.527C96.009,118.408 96.807,116.433 96.807,116.277C96.807,116.222 96.933,115.781 97.087,115.295C97.241,114.81 97.369,114.256 97.371,114.064C97.373,113.873 97.448,113.618 97.539,113.498C97.63,113.377 97.703,113.043 97.703,112.744C97.703,112.448 97.751,111.992 97.809,111.729C98.142,110.233 98.266,109.523 98.265,109.122C98.264,108.875 98.317,108.497 98.382,108.282C98.517,107.84 98.66,106.56 98.814,104.418C98.872,103.617 98.973,102.819 99.039,102.646C99.11,102.461 99.16,101.421 99.162,100.125L99.164,97.92L98.987,96.744C98.548,93.82 98.466,93.571 97.69,92.81C96.578,91.72 93.963,91.148 92.166,91.601C91.9,91.667 91.576,91.705 91.447,91.685L91.21,91.647L91.744,91.087C92.423,90.374 92.998,89.634 92.998,89.474C92.998,89.406 93.048,89.35 93.108,89.35C93.285,89.35 93.823,88.23 93.969,87.558L94.103,86.942L93.981,86.438C93.792,85.655 92.635,84.323 91.828,83.959C91.701,83.902 91.346,83.71 91.038,83.532C89.935,82.895 88.699,82.389 87.572,82.113C87.206,82.023 86.853,81.911 86.788,81.865C86.722,81.818 86.366,81.685 85.997,81.568C85.627,81.452 85.276,81.315 85.218,81.265C85.159,81.214 85.005,81.172 84.875,81.172C84.745,81.172 84.541,81.098 84.422,81.008C84.302,80.918 84.145,80.842 84.072,80.84C83.999,80.838 83.613,80.685 83.214,80.5C82.814,80.315 82.414,80.164 82.323,80.164C82.233,80.164 82.096,80.089 82.02,79.996C81.943,79.904 81.815,79.828 81.736,79.828C81.657,79.828 81.399,79.73 81.162,79.609C80.435,79.239 79.234,78.708 79.125,78.708C79.069,78.708 78.96,78.632 78.883,78.54C78.806,78.447 78.585,78.372 78.392,78.372C78.199,78.372 77.865,78.319 77.65,78.253C77.435,78.188 76.54,78.115 75.661,78.091L74.064,78.047L73.603,78.209C73.349,78.299 73,78.372 72.826,78.372C72.653,78.372 72.482,78.419 72.447,78.476C72.411,78.533 72.196,78.641 71.968,78.716C71.484,78.876 70.59,79.436 70.033,79.929C69.182,80.681 69.025,80.836 69.025,80.922C69.025,80.971 68.936,81.09 68.829,81.188C68.721,81.285 68.544,81.474 68.435,81.608L68.237,81.851L68.015,81.732C67.893,81.666 67.792,81.568 67.792,81.513C67.792,81.169 65.587,79.243 64.712,78.823C64.527,78.734 64.306,78.609 64.22,78.546C64.039,78.411 63.291,78.188 62.415,78.007C60.741,77.661 57.083,77.963 56.59,78.487C56.539,78.541 55.326,79.134 54.91,79.308C54.817,79.347 54.666,79.424 54.573,79.479C54.481,79.534 54.128,79.703 53.789,79.854C53.45,80.006 52.941,80.238 52.657,80.371C52.373,80.504 52.105,80.612 52.062,80.612C52.018,80.612 51.721,80.731 51.402,80.876C51.082,81.021 50.644,81.204 50.429,81.281C50.213,81.359 49.709,81.547 49.308,81.7C48.908,81.853 48.328,82.045 48.02,82.128C47.337,82.313 46.024,82.772 45.947,82.854C45.917,82.887 45.753,82.974 45.584,83.049C44.556,83.5 43.069,84.708 42.522,85.535L42.195,86.03L42.229,87.838L42.508,88.353C42.757,88.814 43.059,89.249 43.853,90.289C43.988,90.467 44.239,90.741 44.411,90.899C44.583,91.057 44.709,91.258 44.691,91.345L44.659,91.502L41.384,91.469L40.613,91.66C39.244,92.001 38.04,93.035 37.826,94.055C37.781,94.271 37.69,94.514 37.625,94.595C37.56,94.676 37.456,95.608 37.395,96.667L37.284,98.592L37.414,101.361C37.486,102.883 37.595,104.345 37.658,104.609C37.721,104.874 37.844,105.518 37.932,106.042C38.093,107.001 38.317,107.977 38.611,109.011C38.699,109.319 38.804,109.873 38.846,110.243C38.887,110.613 38.981,111.041 39.055,111.195C39.128,111.349 39.251,111.778 39.327,112.147C39.403,112.517 39.537,112.962 39.626,113.137C39.714,113.311 39.786,113.598 39.786,113.774C39.786,113.951 39.832,114.123 39.888,114.158C39.945,114.193 40.025,114.422 40.066,114.668C40.108,114.914 40.188,115.143 40.244,115.178C40.3,115.213 40.346,115.386 40.346,115.563C40.346,115.74 40.422,115.96 40.514,116.052C40.607,116.145 40.683,116.312 40.683,116.424C40.683,116.537 40.805,116.869 40.954,117.163C41.104,117.457 41.261,117.859 41.304,118.056C41.348,118.252 41.421,118.491 41.467,118.585C41.544,118.744 41.74,119.189 42.531,120.997C43.055,122.195 43.116,122.326 43.702,123.518C44.02,124.165 44.427,124.946 44.606,125.254C44.785,125.563 45.011,125.989 45.108,126.203C45.205,126.416 45.322,126.618 45.369,126.651C45.416,126.684 45.588,126.969 45.751,127.284C45.913,127.6 46.175,128.048 46.333,128.28C46.491,128.512 46.62,128.771 46.62,128.855C46.62,128.939 46.668,129.007 46.726,129.007C46.785,129.007 46.916,129.181 47.017,129.394C47.118,129.607 47.271,129.84 47.358,129.912C47.445,129.984 47.516,130.096 47.516,130.16C47.516,130.224 47.594,130.357 47.69,130.454C47.786,130.552 48.127,131.021 48.447,131.496C49.324,132.8 49.936,133.66 50.811,134.819C51.248,135.397 51.802,136.153 52.043,136.499C52.284,136.846 52.516,137.154 52.559,137.185C52.601,137.216 52.877,137.544 53.171,137.913C53.465,138.283 53.764,138.636 53.834,138.697C53.904,138.759 54.136,139.035 54.351,139.311C55.02,140.17 56.348,141.463 58.321,143.178C58.746,143.548 59.213,143.964 59.359,144.103C59.505,144.241 59.67,144.355 59.726,144.355C59.782,144.355 59.868,144.422 59.917,144.503C59.966,144.585 60.41,144.931 60.903,145.272C64.302,147.623 64.477,147.705 65.235,147.314C65.896,146.972 67.12,145.358 67.12,144.829C67.12,144.7 67.184,144.528 67.261,144.447C67.4,144.302 67.636,143.603 67.759,142.974C67.793,142.799 67.91,142.473 68.019,142.249L68.217,141.841L68.397,142.272C68.496,142.508 68.577,142.729 68.577,142.763C68.577,143.119 69.816,145.617 70.144,145.923C70.177,145.954 70.403,146.244 70.645,146.567C70.888,146.89 71.177,147.183 71.288,147.219C71.399,147.254 71.489,147.326 71.489,147.379C71.489,147.48 71.74,147.569 72.087,147.591C72.201,147.598 72.629,147.447 73.04,147.257L73.039,147.257ZM63.122,145.56C62.444,145.114 61.801,144.63 61.692,144.486L61.494,144.223L61.708,144.009L61.851,144.182C61.93,144.277 62.061,144.355 62.142,144.355C62.224,144.355 62.462,144.456 62.671,144.579C63.172,144.875 64.578,145.363 64.928,145.363C65.47,145.363 65.476,146.163 64.936,146.308C64.496,146.426 64.34,146.361 63.122,145.56L63.122,145.56ZM71.567,146.188C71.45,146.07 71.599,145.923 71.835,145.923C71.963,145.923 72.097,145.813 72.155,145.659L72.256,145.394L72.829,145.318C73.143,145.276 73.455,145.276 73.521,145.316L73.642,145.391L73.49,145.487C73.406,145.54 73.23,145.584 73.098,145.585C72.966,145.586 72.828,145.662 72.793,145.755C72.758,145.847 72.657,145.923 72.569,145.923C72.481,145.923 72.38,145.998 72.345,146.091C72.281,146.257 71.708,146.328 71.567,146.187L71.567,146.188ZM74.813,144.84C74.675,144.703 74.736,144.461 74.925,144.388C75.029,144.348 75.197,144.236 75.301,144.139C75.404,144.042 75.605,143.868 75.748,143.752C75.89,143.636 76.229,143.336 76.501,143.086L76.994,142.631L77.097,142.793C77.153,142.882 77.2,143.041 77.201,143.147L77.203,143.34L76.838,143.434C76.615,143.492 76.377,143.674 76.221,143.905C76.081,144.112 75.822,144.369 75.645,144.477C75.468,144.584 75.289,144.727 75.248,144.794C75.164,144.929 74.927,144.954 74.813,144.84L74.813,144.84ZM79.047,140.938C79.019,140.846 78.971,140.694 78.942,140.601C78.913,140.508 78.941,140.296 79.004,140.131L79.118,139.829L79.336,140.16C79.456,140.341 79.554,140.629 79.554,140.798L79.555,141.106L79.327,141.106C79.202,141.106 79.076,141.03 79.047,140.938L79.047,140.938ZM81.943,138.193C81.808,138.138 81.649,138.001 81.588,137.888L81.478,137.683L81.721,137.454C81.854,137.328 82.047,137.194 82.15,137.156L82.335,137.088L82.649,137.541L82.963,137.994L82.75,138.15C82.51,138.325 82.3,138.336 81.943,138.193ZM84.062,135.891C83.765,135.684 83.749,135.536 83.992,135.268L84.171,135.069L84.763,135.617L84.643,135.806C84.475,136.073 84.348,136.092 84.062,135.891ZM84.596,134.338C84.596,134.181 84.927,133.485 85.053,133.376C85.089,133.345 85.286,132.942 85.49,132.48C85.695,132.018 85.955,131.435 86.069,131.184C86.183,130.934 86.277,130.678 86.277,130.616C86.277,130.389 87.128,129.791 87.451,129.791C87.671,129.791 87.665,129.857 87.425,130.108C86.705,130.859 86.573,131.274 87.034,131.34C87.172,131.359 87.334,131.466 87.393,131.576L87.5,131.777L87.252,131.998C87.116,132.12 86.828,132.289 86.613,132.374C86.122,132.567 85.917,132.806 85.501,133.67C85.203,134.289 85.001,134.497 84.699,134.497C84.642,134.497 84.596,134.425 84.596,134.338L84.596,134.338ZM39.517,108.15C39.493,108.069 39.385,107.599 39.278,107.106C39.17,106.613 39.045,106.135 38.998,106.042C38.92,105.884 38.788,104.855 38.549,102.513C38.43,101.358 38.4,97.544 38.507,97.266C38.607,97.005 38.682,97.035 39.012,97.472L39.303,97.855L39.371,99.519C39.409,100.434 39.49,101.314 39.551,101.476C39.612,101.637 39.697,103.202 39.74,104.953L39.818,108.138L39.689,108.217C39.618,108.261 39.541,108.231 39.517,108.15L39.517,108.15ZM39.082,96.491C38.675,96.079 38.695,95.141 39.113,95.031C39.344,94.971 39.437,95.124 39.214,95.198L39.09,95.239L39.224,95.686C39.298,95.931 39.341,96.258 39.32,96.412L39.282,96.692L39.082,96.491ZM43.607,87.79C43.593,87.483 43.771,86.865 44.001,86.42C44.086,86.257 44.155,86.04 44.155,85.938C44.155,85.836 44.205,85.783 44.267,85.822C44.407,85.908 44.415,86.403 44.277,86.488C44.221,86.522 44.14,86.752 44.099,86.998C44.057,87.245 43.987,87.446 43.943,87.446C43.898,87.446 43.807,87.585 43.74,87.754L43.619,88.062L43.607,87.79ZM90.197,86.872L90.197,86.634L90.364,86.773C90.533,86.913 90.497,87.11 90.303,87.11C90.245,87.11 90.197,87.003 90.197,86.872ZM44.491,85.653C44.491,85.571 44.525,85.538 44.566,85.579C44.607,85.62 44.607,85.687 44.566,85.728C44.525,85.769 44.491,85.736 44.491,85.654L44.491,85.653ZM48.375,138.231C48.334,138.19 48.3,138.224 48.3,138.305C48.3,138.388 48.334,138.421 48.375,138.38C48.416,138.339 48.416,138.272 48.375,138.231L48.375,138.231ZM37.882,116.206C37.882,116.128 37.756,115.879 37.602,115.652C37.233,115.11 37.247,114.96 37.71,114.511L38.098,114.134L37.99,113.758C37.93,113.551 37.882,113.242 37.882,113.072C37.882,112.462 37.113,113.056 36.923,113.814C36.882,113.977 36.807,114.136 36.756,114.167C36.705,114.199 36.735,114.399 36.824,114.611C36.913,114.823 36.985,115.099 36.985,115.223C36.985,115.347 37.124,115.65 37.294,115.895C37.597,116.333 37.882,116.484 37.882,116.206L37.882,116.206ZM57.801,71.082C57.779,71.016 57.724,70.965 57.679,70.97C57.635,70.974 57.522,70.978 57.43,70.978C57.338,70.978 57.262,71.029 57.262,71.09C57.262,71.152 57.392,71.202 57.551,71.202C57.711,71.202 57.823,71.148 57.801,71.082L57.801,71.082ZM58.893,70.814C59.013,70.723 59.287,70.647 59.503,70.645C59.718,70.643 60.039,70.565 60.215,70.473C60.392,70.381 60.81,70.306 61.144,70.306L61.752,70.306L61.986,70.088C62.388,69.714 61.994,69.251 61.483,69.498C61.349,69.563 61.091,69.649 60.91,69.688C60.73,69.728 60.387,69.854 60.149,69.969C59.912,70.084 59.565,70.212 59.378,70.253C59.192,70.294 58.904,70.398 58.739,70.484C58.574,70.57 58.319,70.641 58.173,70.641L57.907,70.642L58.046,70.81C58.224,71.024 58.613,71.026 58.893,70.814L58.893,70.814ZM35.914,122.51C35.949,122.417 36.008,122.254 36.046,122.146C36.084,122.038 36.16,121.95 36.214,121.95C36.379,121.95 36.326,122.134 36.082,122.413C35.955,122.559 35.879,122.602 35.914,122.51L35.914,122.51ZM33.231,108.147C33.195,108.006 33.181,107.466 33.2,106.947L33.233,106.004L33.513,105.911L33.513,107.09C33.513,108.2 33.374,108.719 33.231,108.147L33.231,108.147ZM30.152,102.457C30.152,102.375 30.186,102.342 30.227,102.383C30.268,102.424 30.268,102.491 30.227,102.532C30.185,102.573 30.152,102.539 30.152,102.457L30.152,102.457ZM30.525,102.159C30.566,102.117 30.634,102.117 30.675,102.159C30.716,102.2 30.682,102.233 30.6,102.233C30.518,102.233 30.484,102.2 30.525,102.159L30.525,102.159ZM29.293,101.598C29.334,101.557 29.401,101.557 29.442,101.598C29.483,101.64 29.45,101.673 29.368,101.673C29.286,101.673 29.252,101.64 29.293,101.598L29.293,101.598ZM102.446,98.126C102.487,98.085 102.554,98.085 102.595,98.126C102.636,98.167 102.602,98.2 102.52,98.2C102.438,98.2 102.404,98.167 102.446,98.126L102.446,98.126ZM103.416,88.846C103.416,88.815 103.442,88.79 103.472,88.79C103.503,88.79 103.528,88.815 103.528,88.846C103.528,88.877 103.503,88.902 103.472,88.902C103.442,88.902 103.416,88.877 103.416,88.846ZM32.982,83.109C33.152,83.083 33.404,83.083 33.542,83.11C33.68,83.137 33.541,83.158 33.233,83.157C32.925,83.156 32.812,83.134 32.982,83.109L32.982,83.109ZM92.996,81.088C92.995,81.042 92.768,80.764 92.492,80.469C91.796,79.727 91.818,79.628 92.838,78.926L93.334,78.585L93.338,75.739L93.446,75.907C93.506,76 93.556,76.294 93.556,76.562C93.557,76.83 93.629,77.183 93.715,77.346C93.801,77.51 93.931,78.097 94.003,78.652C94.075,79.206 94.16,79.845 94.193,80.072L94.252,80.484L93.877,80.825C93.536,81.135 93.001,81.295 92.996,81.088L92.996,81.088ZM90.301,78.392C89.821,78.08 89.369,77.661 89.159,77.336C89.049,77.166 88.888,77.028 88.799,77.028C88.639,77.028 87.361,75.794 87.44,75.715C87.462,75.692 87.761,75.802 88.104,75.958C88.447,76.115 88.894,76.247 89.098,76.252C89.302,76.256 89.621,76.354 89.805,76.468C89.99,76.583 90.433,76.819 90.79,76.992L91.438,77.308L91.57,77.828L91.198,78.212C90.78,78.643 90.709,78.657 90.301,78.392L90.301,78.392ZM51.342,76.755C51.378,76.577 52.044,76.185 53.061,75.742C53.308,75.634 53.586,75.508 53.681,75.461C53.775,75.414 54.014,75.34 54.212,75.297C54.409,75.253 54.6,75.171 54.635,75.114C54.67,75.058 54.904,75.011 55.155,75.011L55.611,75.011L54.84,75.408C54.416,75.626 53.666,75.986 53.173,76.209C52.68,76.431 52.252,76.651 52.221,76.698C52.19,76.745 51.97,76.819 51.734,76.864L51.303,76.945L51.342,76.755ZM55.694,74.843C55.694,74.812 55.719,74.787 55.75,74.787C55.78,74.787 55.806,74.812 55.806,74.843C55.806,74.874 55.78,74.899 55.75,74.899C55.719,74.899 55.694,74.874 55.694,74.843ZM49.165,73.359C49.261,73.105 49.483,72.883 49.64,72.883C49.708,72.883 49.651,73.034 49.515,73.219C49.241,73.589 49.049,73.666 49.165,73.359ZM49.756,72.681C49.756,72.518 50.535,71.832 50.622,71.918C50.669,71.965 50.619,72.052 50.512,72.112C50.404,72.172 50.316,72.277 50.316,72.344C50.316,72.47 49.989,72.761 49.84,72.767C49.794,72.769 49.756,72.73 49.756,72.681L49.756,72.681ZM50.843,71.486C51.06,71.189 51.213,71.124 51.213,71.33C51.213,71.463 50.887,71.753 50.731,71.759C50.682,71.761 50.733,71.638 50.843,71.486ZM71.769,71.202C70.257,69.841 68.231,69.252 66.164,69.572L65.6,69.659L65.464,68.717C65.023,65.667 65.249,64.308 66.473,62.642C67.754,60.898 67.55,60.87 68.402,62.912C69.184,64.787 69.614,65.449 70.386,65.965C70.716,66.186 71.17,66.559 71.397,66.796L71.809,67.225L72.104,69.164C72.266,70.231 72.383,71.239 72.364,71.405L72.329,71.706L71.769,71.202ZM51.325,71.09C51.325,71.029 51.378,70.978 51.443,70.978C51.509,70.978 51.531,71.029 51.493,71.09C51.455,71.152 51.401,71.202 51.374,71.202C51.347,71.202 51.325,71.152 51.325,71.09ZM51.661,70.754C51.661,70.672 51.694,70.638 51.735,70.679C51.777,70.721 51.777,70.788 51.735,70.829C51.694,70.87 51.661,70.836 51.661,70.754L51.661,70.754ZM51.941,70.418C51.979,70.356 52.032,70.306 52.059,70.306C52.087,70.306 52.109,70.356 52.109,70.418C52.109,70.48 52.055,70.53 51.99,70.53C51.925,70.53 51.903,70.48 51.941,70.418ZM55.274,67.991C55.044,67.899 55.115,67.746 55.358,67.809C55.481,67.841 55.582,67.912 55.582,67.967C55.582,68.073 55.494,68.08 55.274,67.991L55.274,67.991ZM59.771,66.965C59.641,66.856 59.2,66.356 58.79,65.853L58.046,64.939L58.046,64.666C58.046,63.991 58.462,64.224 59.512,65.489C59.845,65.889 60.144,66.242 60.176,66.273C60.264,66.356 60.511,66.939 60.511,67.063C60.511,67.24 60.023,67.175 59.771,66.965L59.771,66.965ZM54.237,65.723C54.145,65.674 53.88,65.543 53.649,65.432C53.24,65.235 53.031,64.929 53.425,65.104C53.533,65.152 53.831,65.212 54.088,65.238L54.554,65.286L55.061,65.825L54.733,65.818C54.553,65.815 54.33,65.772 54.237,65.723L54.237,65.723ZM81.852,65.377C81.89,65.315 81.943,65.265 81.97,65.265C81.997,65.265 82.02,65.315 82.02,65.377C82.02,65.439 81.966,65.489 81.901,65.489C81.836,65.489 81.813,65.439 81.852,65.377ZM82.132,65.159C82.132,65.101 82.182,65.023 82.244,64.985C82.305,64.947 82.356,64.994 82.356,65.09C82.356,65.186 82.305,65.265 82.244,65.265C82.182,65.265 82.132,65.217 82.132,65.159ZM77.684,64.966C77.609,64.77 77.812,64.361 78.578,63.164L79.026,62.464L79.555,62.464L79.555,62.717C79.555,62.857 79.429,63.107 79.275,63.273C79.121,63.439 78.995,63.646 78.995,63.734C78.995,63.822 78.919,63.956 78.827,64.033C78.734,64.109 78.659,64.238 78.659,64.318C78.659,64.726 77.808,65.291 77.684,64.966ZM82.762,64.229C82.933,63.942 83.681,62.959 83.938,62.683C84.084,62.526 84.33,62.212 84.484,61.984C84.638,61.757 84.824,61.549 84.896,61.52L85.028,61.469L84.887,61.883C84.81,62.11 84.637,62.346 84.503,62.407C84.37,62.468 84.26,62.6 84.26,62.701C84.26,62.802 84.189,62.944 84.103,63.015C84.017,63.087 83.916,63.265 83.879,63.412C83.842,63.558 83.636,63.787 83.42,63.92C83.204,64.054 83.028,64.209 83.028,64.266C83.028,64.322 82.949,64.369 82.853,64.369L82.679,64.369L82.762,64.229ZM85.268,61.12C85.268,61.038 85.302,61.004 85.343,61.045C85.384,61.086 85.384,61.154 85.343,61.195C85.302,61.236 85.268,61.202 85.268,61.12L85.268,61.12Z" style="fill:white;fill-rule:nonzero;"/>
    </g>
</svg>
