<?xml version="1.0" encoding="UTF-8" standalone="no"?>
<!DOCTYPE svg PUBLIC "-//W3C//DTD SVG 1.1//EN" "http://www.w3.org/Graphics/SVG/1.1/DTD/svg11.dtd">
<svg width="100%" height="100%" viewBox="0 0 547 25" version="1.1" xmlns="http://www.w3.org/2000/svg" xmlns:xlink="http://www.w3.org/1999/xlink" xml:space="preserve" xmlns:serif="http://www.serif.com/" style="fill-rule:evenodd;clip-rule:evenodd;stroke-linejoin:round;stroke-miterlimit:2;">
    <g id="path4" transform="matrix(3.78135,0,0,3.77953,-102.51,-153.117)">
        <g id="g1">
            <path id="path41" serif:id="path4" d="M95.181,46.267C94.476,46.151 89.322,46.106 54.887,45.916L32.463,45.791L31.123,44.437L29.974,43.985C29.341,43.736 28.761,43.456 28.683,43.362L28.541,43.192L28.704,43.177C28.794,43.169 29.161,43.171 29.52,43.182L30.173,43.201L29.817,42.89C29.02,42.194 27.664,41.292 27.413,41.292C27.266,41.292 27.145,41.231 27.145,41.156L27.145,41.021L28.066,41.088C28.585,41.126 29.373,41.29 29.876,41.465C30.366,41.635 31.018,41.848 31.325,41.937C31.632,42.026 32.044,42.213 32.24,42.353L32.597,42.607L90.135,42.583L91.026,42.709C93.529,43.063 94.255,43.136 98.09,43.422C98.809,43.475 99.984,43.474 100.703,43.419C103.283,43.221 105.95,42.958 107.233,42.776L108.539,42.591L166.084,42.607L166.472,42.367C166.686,42.235 167.523,41.905 168.334,41.634L169.807,41.141L170.757,41.083C171.719,41.024 171.839,41.108 171.141,41.351C170.777,41.477 168.561,43.028 168.561,43.156C168.561,43.189 168.89,43.197 169.292,43.174C170.574,43.101 170.407,43.302 168.526,44.092C167.605,44.479 167.23,44.735 166.696,45.344C166.618,45.434 166.477,45.57 166.383,45.648L166.213,45.788L146.598,45.915C135.809,45.984 122.646,46.045 117.345,46.05C112.045,46.054 106.773,46.111 105.63,46.176C102.773,46.338 95.978,46.397 95.181,46.267L95.181,46.267ZM104.828,44.553L104.713,44.349L104.627,44.488C104.579,44.565 104.574,44.714 104.614,44.82L104.688,45.012L104.942,44.758L104.828,44.553ZM93.282,44.55C93.282,44.456 93.201,44.379 93.103,44.379C92.925,44.379 92.859,44.63 93.001,44.772C93.112,44.882 93.282,44.749 93.282,44.55ZM94.172,44.735C94.212,44.67 94.211,44.561 94.169,44.492L94.092,44.368L93.924,44.507C93.832,44.583 93.757,44.693 93.757,44.75C93.757,44.893 94.082,44.882 94.172,44.735L94.172,44.735ZM105.749,44.617C105.749,44.366 105.576,44.297 105.452,44.498C105.365,44.638 105.478,44.854 105.637,44.854C105.699,44.854 105.749,44.747 105.749,44.617ZM92.244,44.664C92.339,44.569 92.215,44.26 92.082,44.26C92.023,44.26 91.975,44.367 91.975,44.498C91.975,44.729 92.101,44.807 92.244,44.664ZM106.795,44.527C106.747,44.277 106.536,44.293 106.482,44.551C106.46,44.658 106.525,44.735 106.639,44.735L106.835,44.735L106.795,44.527ZM77.015,44.504L89.66,44.427L32.963,44.379L32.963,44.617L48.666,44.599C57.303,44.59 70.06,44.547 77.015,44.504L77.015,44.504ZM91.382,44.32C91.382,44.156 91.328,44.023 91.263,44.023C91.198,44.023 91.144,44.156 91.144,44.32C91.144,44.483 91.198,44.617 91.263,44.617C91.328,44.617 91.382,44.483 91.382,44.32ZM101.118,44.499C101.739,44.439 103.101,44.307 104.146,44.206C105.191,44.105 106.233,43.995 106.461,43.962C106.69,43.929 107.304,43.838 107.827,43.759C108.349,43.681 109.044,43.618 109.37,43.62C117.487,43.669 166.018,43.647 166.285,43.593C166.499,43.551 166.728,43.575 166.818,43.65L166.977,43.781L167.323,43.415C167.514,43.213 167.991,42.805 168.382,42.507C169.503,41.656 169.481,41.62 168.217,42.244C167.93,42.385 167.561,42.525 167.397,42.555C167.233,42.585 167.006,42.659 166.893,42.72C166.779,42.781 166.186,42.885 165.575,42.952L164.464,43.073L109.489,43.165L108.064,43.352C107.281,43.455 106.025,43.597 105.274,43.669C104.523,43.741 103.615,43.863 103.255,43.94L102.602,44.081L99.397,44.079C97.463,44.078 95.884,44.022 95.419,43.938C94.994,43.861 93.846,43.713 92.866,43.61C91.886,43.507 90.684,43.365 90.194,43.296L89.304,43.171L64.844,43.123C51.391,43.097 38.648,43.056 36.526,43.032L32.667,42.988L31.895,42.74C30.884,42.416 30.376,42.219 29.912,41.97C29.317,41.652 29.304,41.731 29.883,42.146C30.173,42.354 30.745,42.813 31.153,43.165C31.561,43.517 31.895,43.74 31.895,43.661L31.895,43.516L32.456,43.593C32.765,43.635 45.549,43.658 60.864,43.645C76.18,43.631 89.004,43.621 89.363,43.623C89.923,43.626 90.472,43.691 92.213,43.961C92.478,44.003 94.978,44.258 97.437,44.495C98.743,44.621 99.847,44.622 101.118,44.499L101.118,44.499ZM107.589,44.339C107.589,44.03 107.357,44.049 107.312,44.363L107.272,44.643L107.431,44.59C107.518,44.561 107.589,44.448 107.589,44.339L107.589,44.339ZM165.77,44.498L165.844,44.379L109.133,44.437L120.413,44.498C126.617,44.531 139.344,44.572 148.695,44.588L165.697,44.617L165.77,44.498ZM90.669,44.26C90.669,44.195 90.616,44.142 90.551,44.142C90.485,44.142 90.432,44.195 90.432,44.26C90.432,44.326 90.485,44.379 90.551,44.379C90.616,44.379 90.669,44.326 90.669,44.26ZM108.302,44.26C108.342,44.195 108.292,44.142 108.19,44.142C108.088,44.142 108.005,44.195 108.005,44.26C108.005,44.326 108.055,44.379 108.117,44.379C108.178,44.379 108.261,44.326 108.302,44.26ZM30.945,43.845C30.864,43.747 30.71,43.669 30.604,43.671L30.411,43.675L30.707,43.845C31.089,44.063 31.126,44.063 30.945,43.845L30.945,43.845ZM168.16,43.702C168.062,43.604 167.729,43.761 167.729,43.905L167.729,44.031L167.977,43.899C168.113,43.826 168.196,43.737 168.16,43.702Z" style="fill:white;fill-rule:nonzero;"/>
        </g>
    </g>
</svg>
