<?xml version="1.0" encoding="UTF-8" standalone="no"?>
<!DOCTYPE svg PUBLIC "-//W3C//DTD SVG 1.1//EN" "http://www.w3.org/Graphics/SVG/1.1/DTD/svg11.dtd">
<svg width="100%" height="100%" viewBox="0 0 270 85" version="1.1" xmlns="http://www.w3.org/2000/svg" xmlns:xlink="http://www.w3.org/1999/xlink" xml:space="preserve" xmlns:serif="http://www.serif.com/" style="fill-rule:evenodd;clip-rule:evenodd;stroke-linejoin:round;stroke-miterlimit:2;">
    <g id="path1" transform="matrix(1.44873,0,0,1.44873,-32.0775,-65.3388)">
        <path d="M187.334,55.807C186.813,55.482 186.529,55.106 186.644,54.889C186.692,54.797 186.857,54.71 187.012,54.696C187.529,54.647 187.647,54.578 187.822,54.226C187.956,53.955 187.995,53.712 187.995,53.146L187.995,52.415L187.541,52.415C187.216,52.415 187.087,52.378 187.087,52.283C187.087,52.211 187.019,52.078 186.936,51.989C186.8,51.843 186.41,51.826 183.058,51.826L179.331,51.826L178.563,52.155C178.14,52.335 177.544,52.562 177.237,52.66C176.665,52.842 176.571,52.931 176.824,53.053C176.957,53.118 176.955,53.13 176.803,53.204C176.533,53.336 175.52,53.306 174.96,53.15C174.002,52.881 172.963,52.138 172.963,51.721C172.963,51.54 172.883,51.532 171.035,51.532C169.179,51.532 169.1,51.54 168.949,51.739C168.862,51.852 168.643,52.035 168.461,52.143C168.051,52.389 168.032,52.41 168.142,52.494C168.19,52.532 168.255,52.862 168.286,53.227C168.332,53.767 168.319,53.902 168.22,53.947C168.073,54.014 167.454,53.627 166.872,53.103C166.639,52.894 166.436,52.764 166.422,52.816C166.407,52.867 166.154,52.771 165.859,52.602C165.168,52.207 165.052,52.15 164.703,52.035C164.544,51.983 164.154,51.852 163.836,51.746C163.004,51.466 162.24,51.34 161.109,51.293C160.563,51.27 159.95,51.205 159.746,51.148C159.49,51.077 148.634,51.037 124.56,51.018L89.743,50.992L89.198,50.673C88.898,50.498 88.592,50.354 88.519,50.354C88.445,50.354 88.384,50.321 88.383,50.28C88.383,50.24 88.216,50.12 88.012,50.013C87.808,49.906 87.641,49.783 87.641,49.739C87.641,49.695 87.492,49.476 87.31,49.251C87.109,49.002 87.01,48.807 87.056,48.752C87.098,48.702 87.112,48.598 87.086,48.52C87.047,48.398 87.298,48.38 88.807,48.391C89.778,48.399 90.61,48.401 90.656,48.397C90.701,48.393 106.285,48.39 125.287,48.391L159.837,48.392L160.275,47.871L161.174,47.993C162.111,48.12 162.659,48.062 163.562,47.743C163.775,47.667 164.039,47.606 164.149,47.606C164.259,47.606 164.791,47.368 165.331,47.078C165.872,46.788 166.407,46.517 166.52,46.476C166.634,46.435 166.8,46.341 166.89,46.267C167.083,46.109 167.181,46.096 167.181,46.231C167.181,46.285 167.472,46.683 167.827,47.115L168.473,47.9L169.314,47.9C169.776,47.9 170.155,47.863 170.155,47.818C170.155,47.773 170.907,47.735 171.827,47.734C172.747,47.732 174.392,47.703 175.482,47.669C177.673,47.601 185.11,47.486 186.114,47.505C186.773,47.518 187.087,47.408 187.087,47.162C187.087,46.938 187.403,46.896 188.797,46.94L190.102,46.98L190.536,47.351C190.774,47.556 191.003,47.794 191.044,47.882C191.111,48.023 191.496,48.043 194.616,48.065C196.907,48.081 198.189,48.054 198.333,47.987C198.488,47.914 198.602,47.915 198.72,47.99C198.841,48.067 198.904,48.067 198.943,47.991C198.976,47.928 199.089,47.912 199.217,47.951C199.478,48.031 201.055,48.035 202.358,47.959C203.371,47.9 203.548,47.825 203.867,47.311C204.102,46.933 204.508,46.917 205.142,47.262C205.39,47.397 205.629,47.507 205.673,47.507C205.718,47.507 205.754,47.566 205.754,47.638C205.754,47.71 205.837,47.824 205.939,47.89C206.135,48.018 206.662,48.805 206.662,48.969C206.662,49.021 206.724,49.138 206.8,49.228C206.947,49.402 206.987,49.936 206.862,50.044C206.82,50.079 206.656,50.332 206.497,50.605C206.338,50.877 206.059,51.257 205.877,51.449C205.554,51.791 204.749,52.219 204.43,52.219C204.341,52.219 204.068,52.003 203.823,51.739L203.377,51.259L201.901,51.185C201.09,51.145 198.335,51.14 195.779,51.176L191.132,51.24L190.689,51.779C190.347,52.195 190.191,52.317 189.998,52.317C189.862,52.317 189.713,52.372 189.667,52.44C189.621,52.507 189.568,52.938 189.549,53.397C189.501,54.533 189.285,55.04 188.605,55.617C188.029,56.106 187.857,56.132 187.334,55.807L187.334,55.807ZM188.312,55.354C188.671,54.957 188.904,54.402 188.904,53.945C188.904,53.402 188.743,53.232 188.729,53.759C188.724,53.965 188.726,54.193 188.735,54.266C188.752,54.414 188.2,55.036 187.975,55.122C187.737,55.212 187.811,55.503 188.083,55.549C188.109,55.553 188.212,55.465 188.313,55.354L188.312,55.354ZM189.001,53.052C189.077,53.017 189.102,52.865 189.082,52.561C189.057,52.196 189.024,52.121 188.885,52.121C188.737,52.121 188.723,52.165 188.768,52.489C188.796,52.691 188.82,52.912 188.82,52.98C188.821,53.117 188.842,53.125 189.001,53.052L189.001,53.052ZM176.357,52.57C176.487,52.439 176.809,52.24 177.071,52.126C177.333,52.013 177.621,51.88 177.712,51.831C177.818,51.774 177.225,51.739 176.06,51.734C175.061,51.73 174.094,51.701 173.913,51.671L173.582,51.616L173.788,51.83C174.095,52.148 174.723,52.502 175.257,52.655C175.932,52.85 176.089,52.838 176.357,52.57L176.357,52.57ZM167.376,52.155C167.518,52.011 167.784,51.814 167.966,51.715L168.296,51.536L167.986,51.534C167.816,51.533 167.677,51.566 167.677,51.608C167.677,51.649 167.504,51.731 167.293,51.789C166.937,51.888 166.872,51.873 166.364,51.575C165.619,51.138 163.972,50.453 163.665,50.452C163.577,50.451 163.399,50.385 163.269,50.304C163.139,50.224 162.935,50.158 162.816,50.158C162.587,50.158 161.73,49.771 161.73,49.668C161.73,49.567 162.307,49.319 162.969,49.135C163.726,48.924 164.441,48.689 164.662,48.578C164.753,48.532 165.069,48.398 165.364,48.28C165.659,48.163 166.118,47.936 166.383,47.776L166.864,47.486L167.103,47.758C167.297,47.978 167.376,48.012 167.519,47.936C167.689,47.847 167.679,47.823 167.308,47.405C167.094,47.164 166.875,46.982 166.823,46.999C166.77,47.016 166.497,47.207 166.216,47.423C165.935,47.639 165.517,47.879 165.287,47.956C165.057,48.033 164.673,48.167 164.435,48.254C164.196,48.341 163.871,48.432 163.712,48.456C163.553,48.481 163.349,48.539 163.258,48.586C163.167,48.632 162.758,48.714 162.349,48.768C161.874,48.831 148.587,48.886 125.482,48.921L89.357,48.977L89.077,49.183C88.922,49.296 88.818,49.431 88.845,49.483C88.871,49.534 89.083,49.685 89.315,49.818L89.736,50.06L125.217,50.06C156.529,50.061 160.725,50.078 160.934,50.207C161.064,50.288 161.319,50.354 161.5,50.354C161.799,50.354 162.519,50.513 163.309,50.754C163.473,50.804 163.677,50.845 163.763,50.845C163.848,50.846 164.025,50.912 164.155,50.993C164.285,51.073 164.457,51.139 164.537,51.139C164.663,51.139 164.906,51.246 165.653,51.629C165.744,51.676 165.953,51.74 166.118,51.773C166.283,51.805 166.562,51.959 166.738,52.116C166.913,52.273 167.07,52.405 167.086,52.409C167.103,52.412 167.233,52.298 167.376,52.155L167.376,52.155ZM189.565,51.342C189.565,51.235 188.136,51.136 188.048,51.237C188.009,51.282 187.996,51.355 188.019,51.401C188.072,51.504 189.565,51.448 189.565,51.342L189.565,51.342ZM205.43,51.141C205.631,50.926 205.82,50.749 205.85,50.748C205.959,50.745 206.264,50.051 206.218,49.91C206.187,49.814 206.053,49.765 205.818,49.764C205.624,49.763 205.412,49.723 205.348,49.675C205.184,49.551 204.849,49.754 204.806,50.003C204.787,50.115 204.749,50.361 204.722,50.55C204.694,50.739 204.651,51.037 204.626,51.213C204.582,51.513 204.594,51.532 204.822,51.532C204.989,51.532 205.179,51.41 205.43,51.141L205.43,51.141ZM204.434,50.988C204.594,50.595 204.612,50.421 204.582,49.54C204.563,48.989 204.506,48.45 204.455,48.342C204.404,48.234 204.341,48.068 204.317,47.974C204.253,47.73 204.175,47.757 203.807,48.145C203.628,48.334 203.426,48.489 203.358,48.489C203.255,48.489 203.234,48.676 203.234,49.582C203.234,50.638 203.241,50.678 203.428,50.76C203.534,50.807 203.756,50.977 203.921,51.139C204.087,51.301 204.229,51.434 204.237,51.434C204.245,51.434 204.334,51.233 204.434,50.988ZM186.242,51.155C186.375,51.055 186.194,50.852 185.724,50.574C185.411,50.389 185.162,50.376 180.933,50.318C169.134,50.157 165.446,50.133 165.446,50.217C165.446,50.398 166.092,50.572 167.057,50.652C168.639,50.782 169.949,50.827 175.565,50.944C179.965,51.036 182.802,51.113 185.724,51.219C185.951,51.228 186.184,51.199 186.242,51.155L186.242,51.155ZM190.556,51.09C190.556,51.009 190.519,50.943 190.473,50.943C190.428,50.943 190.391,51.009 190.391,51.09C190.391,51.171 190.428,51.237 190.473,51.237C190.519,51.237 190.556,51.171 190.556,51.09ZM190.06,50.913C190.06,50.842 190.173,50.647 190.311,50.479C190.616,50.109 190.518,49.986 190.158,50.285C189.886,50.51 189.765,50.772 189.853,50.942C189.927,51.084 190.06,51.065 190.06,50.913L190.06,50.913ZM202.924,50.604C202.936,50.593 202.966,50.322 202.992,50.003C203.046,49.332 202.886,48.556 202.684,48.509C202.529,48.474 202.45,48.758 202.539,49.03C202.625,49.291 202.629,49.882 202.545,50.037C202.509,50.106 202.495,50.295 202.515,50.457C202.546,50.706 202.579,50.742 202.727,50.688C202.824,50.653 202.913,50.615 202.924,50.604L202.924,50.604ZM189.723,50.231C189.907,50.002 190.059,49.782 190.059,49.742C190.06,49.702 189.893,49.476 189.688,49.24C189.327,48.823 189.295,48.808 188.692,48.762C188.056,48.713 187.944,48.758 187.527,49.232C187.474,49.292 187.315,49.399 187.173,49.469C187.031,49.539 186.927,49.639 186.942,49.692C186.957,49.745 187.135,49.898 187.338,50.031C187.54,50.164 187.779,50.357 187.869,50.461C188.003,50.615 188.154,50.649 188.709,50.649L189.387,50.649L189.723,50.231ZM192.294,50.45C192.473,50.341 192.621,50.234 192.621,50.213C192.621,50.191 192.643,50.104 192.671,50.019C192.711,49.893 192.657,49.863 192.386,49.863C191.884,49.863 191.299,50.231 191.299,50.546C191.299,50.721 191.95,50.658 192.294,50.45L192.294,50.45ZM193.957,50.388C194.161,50.167 194.142,49.947 193.9,49.737C193.705,49.569 193.688,49.569 193.469,49.737C193.084,50.032 192.786,50.379 192.786,50.531C192.786,50.733 193.745,50.615 193.957,50.388L193.957,50.388ZM195.568,50.383C195.738,50.25 195.743,50.22 195.632,50.018C195.565,49.897 195.42,49.74 195.31,49.67C195.128,49.554 195.077,49.572 194.773,49.858C194.456,50.157 194.337,50.494 194.522,50.567C194.706,50.64 195.393,50.519 195.568,50.383L195.568,50.383ZM197.201,50.436C197.436,50.309 197.475,50.049 197.287,49.863C197.219,49.796 197.163,49.695 197.163,49.64C197.163,49.584 197.235,49.615 197.322,49.709C197.44,49.836 197.518,49.854 197.632,49.78C198.026,49.523 198.221,48.873 197.941,48.745C197.87,48.712 197.535,48.685 197.198,48.685C196.527,48.685 196.416,48.806 196.775,49.144C197.068,49.421 197.105,49.547 196.878,49.496C196.743,49.465 196.633,49.519 196.53,49.669C196.447,49.789 196.307,49.97 196.22,50.071C196.132,50.171 196.076,50.27 196.096,50.289C196.362,50.559 196.854,50.624 197.201,50.436L197.201,50.436ZM198.504,50.427C198.765,50.374 198.981,50.187 198.981,50.014C198.981,49.8 198.671,49.553 198.335,49.5C198.04,49.453 197.99,49.477 197.855,49.729C197.772,49.884 197.657,50.046 197.599,50.089C197.541,50.132 197.494,50.258 197.494,50.368C197.494,50.549 197.533,50.565 197.886,50.521C198.102,50.495 198.38,50.453 198.504,50.427L198.504,50.427ZM200.586,50.356C200.702,50.304 200.798,50.199 200.798,50.124C200.798,50.003 200.089,49.078 199.996,49.078C199.861,49.078 199.128,50.241 199.19,50.359C199.253,50.481 200.313,50.479 200.586,50.356L200.586,50.356ZM201.957,50.362C202.081,50.34 202.284,49.735 202.284,49.39C202.284,48.856 202.217,48.685 202.007,48.686C201.803,48.688 201.233,49.61 201.157,50.062C201.117,50.296 201.139,50.342 201.305,50.37C201.468,50.398 201.781,50.394 201.957,50.362L201.957,50.362ZM190.721,49.961C190.721,49.907 190.705,49.863 190.685,49.863C190.665,49.863 190.625,49.907 190.597,49.961C190.569,50.015 190.585,50.059 190.633,50.059C190.682,50.059 190.721,50.015 190.721,49.961ZM184.465,49.805C184.693,49.534 184.296,49.52 176.906,49.549C172.761,49.565 169.314,49.61 169.246,49.647C169.178,49.685 171.018,49.739 173.334,49.766C180.511,49.852 184.414,49.866 184.465,49.805L184.465,49.805ZM165.116,49.667C165.116,49.613 165.081,49.569 165.038,49.569C164.996,49.569 164.938,49.613 164.91,49.667C164.881,49.721 164.917,49.765 164.987,49.765C165.058,49.765 165.116,49.721 165.116,49.667ZM186.096,49.667C186.096,49.613 186.058,49.569 186.013,49.569C185.968,49.569 185.93,49.613 185.93,49.667C185.93,49.721 185.968,49.765 186.013,49.765C186.058,49.765 186.096,49.721 186.096,49.667ZM193.233,49.616C193.364,49.499 193.376,49.433 193.303,49.242C193.147,48.836 192.31,48.508 192.161,48.794C192.099,48.913 192.82,49.767 192.979,49.762C193.032,49.76 193.146,49.695 193.233,49.616L193.233,49.616ZM194.647,49.607C194.928,49.388 194.902,49.131 194.573,48.89C194.266,48.664 193.579,48.608 193.479,48.8C193.419,48.916 193.686,49.226 194.149,49.577C194.447,49.802 194.399,49.799 194.647,49.607L194.647,49.607ZM196.245,49.593C196.43,49.379 196.527,49.078 196.41,49.078C196.362,49.078 196.228,48.99 196.112,48.882C195.891,48.675 195.072,48.597 194.98,48.774C194.954,48.823 195.107,49.066 195.319,49.314C195.736,49.802 195.997,49.881 196.245,49.593ZM199.509,49.298C199.68,49.008 199.73,48.849 199.67,48.778C199.56,48.647 198.467,48.7 198.428,48.837C198.383,49 198.986,49.778 199.131,49.745C199.203,49.728 199.373,49.527 199.509,49.298L199.509,49.298ZM201.209,49.544C201.447,49.108 201.539,48.86 201.494,48.773C201.469,48.725 201.154,48.685 200.793,48.685C200.008,48.685 199.959,48.792 200.474,49.38C200.859,49.819 201.037,49.859 201.209,49.544ZM190.928,49.47C190.956,49.416 190.891,49.332 190.783,49.284C190.582,49.193 190.109,48.613 190.042,48.376C190.011,48.265 189.982,48.266 189.867,48.378C189.675,48.567 189.695,48.707 189.957,49.004C190.356,49.457 190.819,49.679 190.928,49.47L190.928,49.47ZM205.588,49.3C206.232,49.249 206.276,49.223 206.161,48.967C206.01,48.633 205.41,47.895 205.308,47.92C205.258,47.933 205.112,47.861 204.985,47.76C204.684,47.521 204.57,47.65 204.686,48.1C204.734,48.287 204.772,48.634 204.77,48.872C204.767,49.39 204.817,49.508 204.998,49.41C205.073,49.37 205.338,49.32 205.588,49.3L205.588,49.3ZM176.39,49.122C179.525,49.086 182.857,49.05 183.795,49.043C185.293,49.031 185.52,49.008 185.66,48.857C185.748,48.763 185.854,48.684 185.896,48.682C185.988,48.678 186.343,48.335 186.343,48.25C186.343,48.149 174.41,48.366 170.691,48.535C170.055,48.564 168.754,48.614 167.8,48.647C166.277,48.699 166.023,48.731 165.715,48.909C165.522,49.021 165.364,49.151 165.364,49.198C165.364,49.244 166.555,49.261 168.028,49.235C169.493,49.209 173.256,49.158 176.39,49.122L176.39,49.122ZM191.834,49.213C191.94,49.164 191.901,49.101 191.655,48.921C191.306,48.666 191.051,48.619 191.051,48.81C191.051,48.942 191.439,49.267 191.602,49.272C191.655,49.273 191.759,49.246 191.834,49.213L191.834,49.213ZM187.252,48.882C187.252,48.828 187.213,48.783 187.164,48.783C187.116,48.783 187.1,48.828 187.128,48.882C187.156,48.936 187.195,48.98 187.216,48.98C187.236,48.98 187.252,48.936 187.252,48.882ZM187.5,48.587C187.5,48.533 187.462,48.489 187.417,48.489C187.372,48.489 187.334,48.533 187.334,48.587C187.334,48.641 187.372,48.685 187.417,48.685C187.462,48.685 187.5,48.641 187.5,48.587ZM187.747,48.293C187.747,48.239 187.71,48.195 187.665,48.195C187.619,48.195 187.582,48.239 187.582,48.293C187.582,48.347 187.619,48.391 187.665,48.391C187.71,48.391 187.747,48.347 187.747,48.293ZM189.399,48.195C189.49,48.087 189.555,47.997 189.544,47.995C189.141,47.934 187.995,47.937 187.995,47.999C187.995,48.391 189.104,48.545 189.399,48.195L189.399,48.195ZM190.556,48.2C190.556,48.005 190.448,47.864 190.37,47.957C190.305,48.034 190.398,48.391 190.483,48.391C190.523,48.391 190.556,48.305 190.556,48.2L190.556,48.2Z" style="fill:white;fill-rule:nonzero;"/>
    </g>
    <g id="path11" serif:id="path1" transform="matrix(1,0,0,1,-608.474,-491.533)">
        <path d="M609.97,528.948C609.912,528.991 610.015,527.001 610.015,527.001L610.081,520.585C610.127,516.06 610.189,514.051 610.29,513.769C610.369,513.549 610.434,512.931 610.434,512.396C610.434,511.737 610.526,511.11 610.72,510.45C611.708,507.089 611.9,506.499 612.17,505.992C612.334,505.683 612.468,505.396 612.468,505.354C612.468,504.858 616.337,500.05 617.246,499.416C618.736,498.378 620.005,497.741 621.802,497.133C622.164,497.01 622.675,496.835 622.939,496.744C623.836,496.434 625.448,496.29 627.904,496.301C629.254,496.307 642.204,496.369 656.683,496.44C671.161,496.511 685.585,496.581 688.735,496.596C691.885,496.611 694.492,496.588 694.528,496.544C694.565,496.501 695.372,496.465 696.323,496.465C698.017,496.465 698.055,496.472 698.283,496.816C698.41,497.009 698.641,497.249 698.796,497.349C698.95,497.45 699.409,497.868 699.816,498.28C700.222,498.692 700.605,498.992 700.666,498.947C700.727,498.902 700.777,498.95 700.777,499.053C700.777,499.157 700.939,499.4 701.136,499.593C701.334,499.787 701.495,499.993 701.495,500.051C701.495,500.108 701.212,500.129 700.867,500.096C699.55,499.97 667.892,499.954 653.93,500.073L639.332,500.196L638.704,500.616C638.319,500.873 638.076,501.133 638.076,501.286C638.076,501.572 637.698,502.018 637.178,502.347C636.632,502.692 636.217,503.155 636.354,503.265C636.42,503.318 636.66,503.532 636.886,503.741C637.112,503.949 637.503,504.165 637.754,504.221L638.209,504.321L637.948,504.652C637.695,504.971 637.629,504.981 636.056,504.943C634.7,504.909 634.345,504.854 633.947,504.614C633.684,504.455 632.742,503.875 631.853,503.323C630.867,502.711 629.963,502.255 629.531,502.151C629.142,502.058 628.598,501.866 628.322,501.726C627.029,501.067 624.664,500.975 623.181,501.524C622.262,501.865 622.084,502 620.651,503.446C619.803,504.302 618.904,505.273 618.653,505.604C618.162,506.251 617.135,507.894 617.135,508.033C617.135,508.079 617.553,508.078 618.065,508.032C618.836,507.961 619.022,507.986 619.156,508.177C619.352,508.458 619.276,508.612 618.03,510.472C616.774,512.348 616.472,512.923 615.577,515.146C614.69,517.347 613.947,519.932 613.555,522.183C613.302,523.63 613.302,523.714 613.323,547.129C613.334,560.051 613.324,567.628 613.299,568.214C613.274,568.801 613.252,570.481 613.25,571.947C613.248,573.413 613.224,574.613 613.198,574.613C613.133,574.614 612.414,573.96 612.204,573.71C612.113,573.602 611.675,573.218 611.231,572.856C609.726,571.632 609.844,571.812 609.84,570.738C609.837,570.19 609.887,569.779 609.956,569.779C610.035,569.779 610.075,565.762 610.075,551.063C610.075,538.295 610.03,528.903 609.97,528.948ZM612.119,571.307C612.124,571.21 612.12,564.759 612.11,552.723C612.098,538.918 612.049,530.707 611.975,530.477C611.911,530.276 611.827,528.733 611.788,527.047C611.725,524.27 611.743,523.837 611.977,522.448C612.754,517.841 614.045,514.533 616.504,510.846C617.049,510.029 617.472,509.331 617.443,509.297C617.349,509.186 616.201,509.699 616.046,509.921C615.93,510.087 615.757,510.114 615.289,510.041C614.955,509.988 614.637,509.895 614.583,509.834C614.444,509.68 614.72,509.198 615.099,508.932C615.273,508.81 615.689,508.179 616.024,507.529C617.061,505.517 618.494,503.815 621.055,501.549C622.041,500.677 622.394,500.445 622.85,500.368C623.162,500.316 623.644,500.157 623.922,500.014C624.293,499.824 624.53,499.787 624.819,499.874C625.035,499.939 625.912,500.028 626.768,500.071C628.479,500.158 629.769,500.517 631.229,501.313C631.671,501.554 632.475,501.938 633.015,502.167L633.997,502.583L634.57,501.945C634.886,501.594 635.475,501.118 635.88,500.887C637.208,500.128 637.042,500.077 634.507,500.457C632.71,500.727 632.234,500.657 631.222,499.971C629.825,499.026 628.913,498.713 627.312,498.631C626.148,498.571 625.915,498.519 625.756,498.286C625.478,497.878 624.934,497.93 623.97,498.458C623.315,498.817 623.076,498.89 622.97,498.764C622.761,498.515 622.179,498.564 621.82,498.86C621.646,499.004 620.91,499.458 620.186,499.869C617.284,501.518 616.38,502.168 615.449,503.276C614.569,504.323 613.242,506.583 612.684,507.983C612.318,508.903 612.109,509.518 612.109,509.678C612.109,509.765 612.062,509.947 612.005,510.083C611.877,510.383 611.578,511.592 611.345,512.747C611.25,513.217 611.078,514.816 610.963,516.302C610.774,518.733 610.768,519.497 610.896,523.91C610.987,527.074 611.039,536.866 611.041,551.479L611.043,570.666L611.388,571.076C611.746,571.501 612.103,571.614 612.119,571.307ZM698.623,498.801C698.623,498.757 698.49,498.514 698.328,498.261L698.032,497.8L663.575,497.77C642.917,497.751 629.091,497.791 629.051,497.868C629.014,497.94 629.183,498.043 629.427,498.097C629.671,498.151 630.023,498.289 630.209,498.404C630.398,498.52 631.035,498.644 631.649,498.684C634.923,498.899 698.623,499.01 698.623,498.801Z" style="fill:white;"/>
    </g>
    <g id="path2" transform="matrix(1.5457,0,0,0.829645,-19.6135,11.5198)">
        <path d="M34.117,86.692C33.311,86.656 31.454,86.584 29.99,86.531C28.526,86.479 27.208,86.415 27.062,86.389C26.915,86.364 26.187,86.305 25.443,86.26C24.698,86.215 24.054,86.156 24.01,86.129C23.967,86.102 23.677,86.059 23.367,86.034C22.607,85.972 21.084,85.744 20.3,85.576C19.688,85.445 19.651,85.446 19.412,85.614C19.276,85.71 19.024,85.834 18.853,85.889C18.518,85.998 16.545,86.256 16.05,86.256L15.747,86.256L15.747,85.369L16.617,85.369C17.425,85.369 17.7,85.299 17.7,85.094C17.7,85.06 17.53,85.012 17.322,84.988C17.115,84.964 16.676,84.892 16.346,84.828L15.747,84.711L15.747,83.852L16.08,83.912C16.263,83.945 16.868,84.087 17.424,84.227C17.981,84.367 18.606,84.481 18.815,84.481C19.023,84.481 19.207,84.523 19.224,84.574C19.241,84.625 19.49,84.691 19.776,84.721C20.2,84.765 20.289,84.752 20.256,84.65C20.229,84.569 20.049,84.516 19.736,84.498C19.472,84.483 19.235,84.435 19.208,84.392C19.181,84.349 19.021,84.29 18.851,84.261C18.475,84.197 17.154,83.744 16.369,83.41L15.792,83.165L15.74,82.307L16.653,82.317C17.539,82.326 18.277,82.452 18.449,82.623C18.496,82.669 18.656,82.708 18.804,82.71C18.953,82.711 19.175,82.77 19.297,82.84C19.419,82.909 19.655,82.968 19.821,82.97C19.987,82.971 20.426,83.03 20.797,83.099C22.293,83.38 23.711,83.435 28.215,83.387C32.796,83.339 37.1,83.21 37.489,83.108C37.611,83.076 38.639,83.015 39.773,82.973C40.907,82.93 41.883,82.866 41.941,82.83C42,82.794 42.649,82.733 43.385,82.696C45.659,82.579 50.464,82.101 53.595,81.68C54.181,81.602 54.96,81.511 55.326,81.479C56.213,81.4 57.737,81.457 57.669,81.566C57.636,81.62 80.07,81.629 119.145,81.59L180.672,81.529L181.072,81.248C181.322,81.071 181.801,80.875 182.358,80.721C182.846,80.586 183.308,80.418 183.385,80.349C183.502,80.243 186.134,79.512 186.398,79.512C186.446,79.512 186.485,79.726 186.485,79.988L186.485,80.464L185.154,81.385C184.423,81.892 183.824,82.338 183.823,82.376C183.823,82.439 184.966,82.393 185.52,82.307C185.648,82.288 185.827,82.326 185.918,82.393C186.077,82.508 186.073,82.523 185.841,82.739C185.707,82.863 185.188,83.111 184.688,83.29C182.865,83.944 181.771,84.589 181.518,85.161C181.383,85.466 181.289,85.56 181.076,85.603C180.893,85.64 180.805,85.71 180.805,85.819C180.805,85.974 180.54,85.982 174.793,86.012C171.486,86.029 155.689,86.052 139.687,86.061C123.686,86.071 110.55,86.106 110.496,86.139C110.443,86.172 97.339,86.227 81.376,86.261C65.413,86.295 52.233,86.347 52.087,86.378C51.94,86.408 50.662,86.475 49.247,86.528C47.832,86.581 46.095,86.654 45.387,86.692C43.755,86.778 36.052,86.778 34.117,86.692L34.117,86.692ZM23.202,85.102C23.202,85.052 22.95,85.014 22.625,85.014C22.299,85.014 22.048,85.052 22.048,85.102C22.048,85.153 22.299,85.191 22.625,85.191C22.95,85.191 23.202,85.153 23.202,85.102ZM21.616,84.966C21.981,84.85 21.746,84.748 21.116,84.748C20.75,84.748 20.451,84.785 20.451,84.83C20.451,84.948 21.344,85.052 21.616,84.966L21.616,84.966ZM48.919,84.73C49.108,84.54 49.038,84.393 48.759,84.393C48.6,84.393 48.493,84.439 48.493,84.508C48.493,84.626 48.663,84.836 48.759,84.836C48.788,84.836 48.86,84.788 48.919,84.73ZM37.977,84.575C38.367,84.529 39.246,84.488 39.929,84.484C40.613,84.481 41.611,84.419 42.148,84.347C42.685,84.275 43.451,84.216 43.852,84.216C44.252,84.215 44.771,84.176 45.005,84.129C45.239,84.081 45.93,84.001 46.54,83.95C48.366,83.798 49.875,83.628 49.983,83.561C50.039,83.527 50.395,83.496 50.775,83.494C51.155,83.491 51.674,83.431 51.928,83.359C52.182,83.287 52.662,83.211 52.993,83.189C53.324,83.168 53.875,83.1 54.216,83.039C54.653,82.961 55.036,82.952 55.503,83.008C55.893,83.055 81.693,83.08 117.866,83.068C176.631,83.048 179.56,83.055 179.503,83.203C179.454,83.33 179.475,83.345 179.614,83.288C179.925,83.159 180.488,83.069 181.015,83.065C181.524,83.062 181.533,83.066 181.479,83.281C181.438,83.447 181.591,83.334 182.113,82.813C182.79,82.138 183.635,81.466 184.645,80.799C184.926,80.613 185.142,80.447 185.124,80.429C185.076,80.381 184.43,80.623 183.991,80.854C183.776,80.967 183.537,81.065 183.459,81.072C183.381,81.078 183.114,81.194 182.867,81.328C182.62,81.463 182.373,81.545 182.318,81.511C182.262,81.477 182.129,81.505 182.022,81.574C181.635,81.821 180.469,82.055 178.986,82.182C178.149,82.254 162.507,82.274 122.015,82.254C67.379,82.228 55.291,82.262 55.112,82.441C55.063,82.49 54.735,82.529 54.382,82.529C54.029,82.529 53.632,82.57 53.501,82.62C53.369,82.67 52.83,82.746 52.304,82.788C51.777,82.83 51.312,82.886 51.269,82.912C51.227,82.939 50.874,82.969 50.486,82.98C50.097,82.991 49.56,83.052 49.291,83.116C49.023,83.18 48.484,83.236 48.093,83.24C47.703,83.244 47.204,83.287 46.984,83.337C46.764,83.387 46.026,83.462 45.342,83.505C44.659,83.548 43.261,83.646 42.236,83.723C38.036,84.041 32.916,84.285 30.248,84.296C28.396,84.303 27.727,84.378 27.727,84.575C27.727,84.618 28.117,84.667 28.593,84.685C30.168,84.743 37.254,84.661 37.977,84.575ZM50.167,84.54C50.222,84.474 50.24,84.394 50.208,84.362C50.101,84.255 49.735,84.302 49.735,84.422C49.735,84.671 49.998,84.743 50.167,84.54L50.167,84.54ZM51.548,84.463C51.718,84.221 51.612,84.097 51.301,84.175C51.049,84.239 51.001,84.381 51.173,84.552C51.323,84.703 51.392,84.686 51.548,84.463L51.548,84.463ZM52.664,84.355C52.664,84.335 52.688,84.255 52.717,84.178C52.757,84.074 52.716,84.038 52.555,84.038C52.293,84.038 52.216,84.102 52.28,84.268C52.321,84.377 52.664,84.454 52.664,84.355L52.664,84.355ZM180.162,84.149C180.192,84.06 167.62,84.038 117.503,84.038C83.021,84.038 54.735,84.068 54.645,84.104C54.398,84.205 81.757,84.259 133.41,84.259C170.703,84.259 180.132,84.237 180.162,84.149L180.162,84.149ZM53.628,84.007C53.682,83.942 53.705,83.866 53.678,83.839C53.59,83.751 53.285,83.878 53.285,84.004C53.285,84.16 53.499,84.163 53.628,84.007L53.628,84.007ZM183.401,83.245C183.828,83.079 184.162,82.928 184.144,82.909C184.126,82.891 183.858,82.917 183.549,82.967C183.102,83.039 182.931,83.115 182.717,83.336C182.568,83.489 182.487,83.599 182.536,83.581C182.585,83.563 182.974,83.412 183.401,83.245ZM26.929,82.44C26.929,82.391 27.009,82.352 27.106,82.352C27.204,82.352 27.284,82.391 27.284,82.44C27.284,82.489 27.204,82.529 27.106,82.529C27.009,82.529 26.929,82.489 26.929,82.44ZM30.905,82.468C30.969,82.443 31.046,82.446 31.075,82.475C31.105,82.505 31.053,82.526 30.959,82.522C30.856,82.518 30.835,82.497 30.905,82.468L30.905,82.468ZM19.807,82.202C19.623,82.153 19.598,81.997 19.776,81.997C19.844,81.997 19.922,82.056 19.95,82.13C19.978,82.203 19.993,82.258 19.982,82.252C19.971,82.247 19.893,82.224 19.807,82.202L19.807,82.202Z" style="fill:white;fill-rule:nonzero;"/>
    </g>
</svg>
