<?xml version="1.0" encoding="UTF-8" standalone="no"?>
<!DOCTYPE svg PUBLIC "-//W3C//DTD SVG 1.1//EN" "http://www.w3.org/Graphics/SVG/1.1/DTD/svg11.dtd">
<svg width="100%" height="100%" viewBox="0 0 358 358" version="1.1" xmlns="http://www.w3.org/2000/svg" xmlns:xlink="http://www.w3.org/1999/xlink" xml:space="preserve" xmlns:serif="http://www.serif.com/" style="fill-rule:evenodd;clip-rule:evenodd;stroke-linejoin:round;stroke-miterlimit:2;">
    <g id="g1" transform="matrix(3.77953,0,0,3.77953,-109.71,-333.677)">
        <path id="path1" d="M95.717,178.894C94.679,178.414 97.31,177.731 100.213,177.727C101.391,177.726 101.423,177.696 101.631,176.393C101.778,175.469 102.808,172.131 103.04,171.824C103.098,171.748 103.225,171.436 103.323,171.13C103.422,170.825 103.701,170.075 103.944,169.464L104.386,168.353L104.321,166.557C104.257,164.763 104.13,164.217 103.636,163.602L103.389,163.295L102.834,163.425C102.475,163.509 101.604,163.499 100.378,163.399C98.975,163.283 98.275,163.283 97.704,163.398C96.665,163.606 90.802,163.34 90.206,163.057C89.587,162.763 89.535,162.956 89.772,164.658C89.891,165.512 89.989,166.668 89.989,167.228L89.989,168.246L90.282,168.618C90.467,168.854 90.546,169.102 90.497,169.296C90.455,169.465 90.344,169.899 90.251,170.261L90.082,170.919L90.313,171.174C90.595,171.485 90.605,171.788 90.353,172.283C90.247,172.489 90.116,172.869 90.06,173.127L89.959,173.596L90.772,173.517C91.22,173.473 91.753,173.396 91.958,173.346L92.331,173.254L92.185,173.811L93.413,173.909C94.088,173.963 95.016,174.083 95.474,174.176L96.307,174.344L96.27,174.681C96.19,175.398 93.334,175.577 91.45,174.985L90.759,174.767L86.585,174.851C82.309,174.938 77.392,174.84 77.589,174.673C77.828,174.469 78.948,174.236 80.064,174.158L81.238,174.075L81.656,173.424C81.885,173.065 82.076,172.622 82.078,172.437C82.085,171.934 82.792,170.241 83.351,169.386L83.845,168.631L83.917,166.314C83.973,164.484 83.95,163.983 83.807,163.928C82.87,163.568 77.999,163.742 75.616,164.221C74.852,164.374 73.704,164.447 71.936,164.454L69.367,164.465L68.453,163.944C67.763,163.551 67.383,163.423 66.902,163.423L66.264,163.423L66.013,164.881L66.232,165.062C66.353,165.161 66.431,165.366 66.407,165.519C66.359,165.815 67.504,167.242 69.293,169.117C69.84,169.69 70.517,170.431 70.799,170.764C71.764,171.905 71.68,171.86 72.999,171.961C74.459,172.073 75.829,172.269 75.943,172.383C76.13,172.57 75.629,172.674 75.02,172.574C74.073,172.418 72.769,172.426 72.769,172.588C72.769,172.665 72.817,172.727 72.875,172.727C72.933,172.727 73.063,172.859 73.163,173.02L73.346,173.312L72.524,173.217C71.903,173.145 71.57,173.178 71.16,173.351C70.569,173.601 69.063,173.537 68.59,173.242C68.411,173.13 68.249,173.134 67.982,173.256C67.782,173.347 67.496,173.422 67.347,173.422L67.076,173.422L67.076,173.967C67.076,174.47 67.344,174.949 67.625,174.949C67.687,174.949 67.771,175.074 67.811,175.227L67.883,175.505L69.042,175.504C70.598,175.503 72.198,176.059 71.207,176.256C71.035,176.29 69.881,176.384 68.642,176.464C67.403,176.544 66.122,176.668 65.796,176.74C65.469,176.812 64.848,176.946 64.417,177.039C63.985,177.132 63.47,177.169 63.271,177.12C63.073,177.072 62.754,176.994 62.564,176.947C61.906,176.784 60.737,177.024 60.325,177.406L59.941,177.762L57.915,177.697C55.804,177.63 55.111,177.462 55.021,176.996L54.974,176.754L55.94,176.754C56.595,176.754 56.956,176.692 57.065,176.561L57.226,176.368L56.818,176.226C56.593,176.148 56.369,175.953 56.318,175.794C56.267,175.635 56.168,175.505 56.097,175.505C56.025,175.505 55.837,175.374 55.677,175.215L55.388,174.925L55.018,175.066C54.621,175.217 50.016,175.388 50.241,175.244C50.315,175.196 50.419,175.017 50.473,174.845C50.526,174.673 50.628,174.533 50.7,174.533C50.771,174.533 50.829,174.383 50.829,174.2C50.829,174.017 50.923,173.832 51.037,173.788C51.152,173.744 51.246,173.581 51.246,173.426C51.246,173.271 51.308,173.144 51.385,173.144C51.461,173.144 51.523,172.986 51.523,172.792C51.523,172.599 51.617,172.405 51.732,172.361C51.846,172.317 51.94,172.131 51.94,171.949C51.94,171.766 51.995,171.616 52.061,171.616C52.128,171.616 52.222,171.366 52.271,171.061C52.32,170.755 52.422,170.505 52.497,170.505C52.573,170.505 52.634,170.292 52.634,170.031C52.634,169.77 52.712,169.531 52.808,169.499C52.931,169.458 52.995,168.932 53.028,167.682C53.053,166.715 53.131,165.923 53.201,165.923C53.271,165.923 53.329,165.673 53.329,165.367C53.329,164.966 53.387,164.812 53.537,164.812C53.667,164.812 53.745,164.681 53.745,164.465C53.745,164.274 53.808,164.118 53.884,164.118C53.961,164.118 54.023,163.961 54.023,163.771C54.023,163.554 54.102,163.423 54.231,163.423C54.382,163.423 54.44,163.269 54.44,162.868C54.44,162.562 54.491,162.312 54.553,162.312C54.759,162.312 55.024,160.329 55.087,158.317L55.148,156.336L54.933,156.12C54.814,156.002 54.717,155.753 54.717,155.568C54.717,155.382 54.655,155.23 54.578,155.23C54.502,155.23 54.44,155.137 54.44,155.022C54.44,154.907 54.381,154.814 54.31,154.814C54.141,154.814 53.793,153.155 53.597,151.412C53.511,150.648 53.42,149.99 53.396,149.95C53.371,149.909 53.281,149.368 53.196,148.747C53.048,147.671 52.577,145.691 51.93,143.427C51.766,142.854 51.575,142.042 51.506,141.622C51.088,139.107 51.02,139.019 49.372,138.861L48.359,138.765L47.789,138.249C47.475,137.965 47.164,137.733 47.099,137.733C47.033,137.733 46.491,137.327 45.894,136.831C45.297,136.334 44.726,135.928 44.625,135.928C44.524,135.928 44.316,135.803 44.164,135.65C43.835,135.322 43.5,135.298 43.106,135.573C42.556,135.958 41.474,135.994 40.591,135.657C39.353,135.184 38.192,134.638 38.192,134.529C38.192,134.474 37.989,134.22 37.741,133.964C37.493,133.708 37.227,133.339 37.151,133.145C36.794,132.236 35.137,130.413 35.137,130.929C35.137,131.005 34.983,131.068 34.794,131.068L34.45,131.068L33.591,129.783C33.118,129.077 32.451,128.14 32.109,127.7L31.486,126.902L30.666,126.902C30.203,126.902 29.669,126.994 29.437,127.114L29.027,127.326L29.027,126.778C29.027,126.477 29.096,126.208 29.18,126.18C29.267,126.151 29.365,125.609 29.408,124.919C29.449,124.253 29.53,123.708 29.587,123.708C29.644,123.708 29.728,123.286 29.775,122.771C29.821,122.255 29.897,121.54 29.943,121.182C29.99,120.815 29.955,120.315 29.864,120.037C29.673,119.459 29.872,117.83 30.274,116.695C30.409,116.314 30.564,115.634 30.619,115.186C30.673,114.738 30.837,114.176 30.983,113.936C31.427,113.208 31.243,112.043 30.684,112.043C30.258,112.043 30.629,106.336 31.175,104.475C32.181,101.048 32.106,101.163 33.109,101.546L33.749,101.79L33.749,102.148C33.749,102.534 35.688,104.549 36.654,105.167C36.927,105.341 37.338,105.648 37.568,105.848C38.038,106.258 38.158,106.271 39.431,106.058C40.567,105.867 41.803,104.892 41.803,104.186C41.803,104.15 42.065,103.669 42.385,103.117L42.966,102.115L42.951,101.178C42.943,100.663 42.862,100.017 42.771,99.742C42.654,99.388 42.649,99.199 42.754,99.094C43.116,98.733 43.581,99.67 43.737,101.072L43.821,101.837L44.061,101.482C44.337,101.071 44.661,99.334 44.799,97.532C44.852,96.845 44.972,96.131 45.067,95.945L45.239,95.608L45.414,95.935C45.533,96.158 45.565,96.61 45.514,97.349C45.43,98.571 45.533,98.679 46.032,97.889C46.221,97.589 46.558,97.136 46.78,96.883C47.065,96.558 47.214,96.204 47.285,95.688C47.416,94.73 47.849,93.552 48.154,93.327C48.501,93.071 48.522,93.277 48.271,94.489C48.15,95.072 48.052,95.729 48.052,95.95L48.052,96.352L48.382,96.352C48.821,96.352 48.924,96.199 49.366,94.894C49.814,93.571 50.347,92.602 50.627,92.602C50.919,92.602 50.882,92.859 50.397,94.199C50.159,94.857 50,95.43 50.044,95.474C50.203,95.633 50.559,95.377 50.7,95.001C51.243,93.547 51.662,93.125 52.177,93.515C52.543,93.793 52.648,93.763 53.25,93.211C54.199,92.339 55.259,92.266 55.052,93.087L54.968,93.422L55.983,93.337C56.789,93.269 57.226,93.136 58.114,92.687L59.23,92.122L59.994,92.143C60.414,92.154 61.07,92.169 61.452,92.174C61.904,92.181 62.262,92.274 62.476,92.441L62.804,92.698L62.627,93.032C62.53,93.216 62.179,93.678 61.847,94.058C60.969,95.066 60.96,95.06 63.301,95.126L65.357,95.184L66.313,95.74L66.396,96.719L67.118,97.04C70.865,98.708 71.127,98.775 72.844,98.502C73.605,98.382 75.134,98.201 76.241,98.1C77.349,97.999 78.431,97.846 78.646,97.759C79.897,97.255 81.348,97.935 82.233,99.44L82.6,100.065L83.099,100.158C83.375,100.21 83.718,100.187 83.868,100.107C84.284,99.884 85.224,99.925 85.318,100.17C85.369,100.305 85.585,100.379 85.928,100.379C86.22,100.379 86.823,100.474 87.268,100.59C87.714,100.706 88.711,100.89 89.485,101C90.258,101.11 91.516,101.364 92.28,101.566C93.044,101.768 94.2,102.048 94.849,102.189C95.498,102.331 96.217,102.506 96.446,102.58C96.675,102.653 97.425,102.882 98.112,103.088C101.294,104.041 103.558,105.07 104.583,106.029L105.245,106.648L105.164,107.892C105.081,109.177 105.1,109.284 105.778,111.349C106.406,113.262 106.623,113.654 107.196,113.913C107.556,114.075 107.791,114.309 107.945,114.658C108.069,114.939 108.398,115.543 108.678,116.001C109.218,116.887 109.746,117.817 110.096,118.501C110.213,118.73 110.424,119.066 110.564,119.248C110.704,119.431 110.819,119.786 110.819,120.039C110.819,120.291 110.887,120.54 110.97,120.592C111.149,120.702 112.593,123.735 112.714,124.254C112.76,124.45 113.034,125.048 113.323,125.583C113.613,126.117 114.019,126.867 114.227,127.249C115.505,129.601 118.595,136.231 118.595,136.621C118.595,137.134 116.875,134.811 115.346,132.233C114.726,131.188 114.762,131.716 115.446,133.74C116.35,136.412 116.462,136.801 116.996,139.148C117.262,140.318 117.542,141.493 117.618,141.76C117.864,142.627 118.638,145.95 119.268,148.843C119.343,149.186 119.448,149.608 119.502,149.78C119.563,149.975 119.541,150.092 119.444,150.092C119.359,150.092 119.289,150.025 119.289,149.942C119.289,149.859 119.08,149.435 118.825,148.999C118.383,148.246 117.815,146.814 117.262,145.059C116.776,143.517 116.718,144.202 116.763,150.956L116.806,157.36L117.458,158.331C119.083,160.756 119.372,161.37 120.042,163.82C120.423,165.215 121.29,167.021 122.028,167.96C122.278,168.278 122.483,168.567 122.483,168.603C122.483,168.638 122.698,169.024 122.961,169.46C123.526,170.398 123.686,170.991 123.451,171.274C123.359,171.385 123.314,171.632 123.35,171.824C123.393,172.05 123.354,172.172 123.238,172.172C122.966,172.172 122.501,171.508 122.402,170.979C122.333,170.612 122.013,170.23 120.957,169.257L119.6,168.006L119.093,168.006C118.814,168.006 118.425,167.901 118.229,167.772C118.033,167.644 117.541,167.494 117.135,167.439C116.685,167.378 116.074,167.149 115.57,166.854C115.116,166.588 114.595,166.324 114.413,166.269C114.231,166.213 113.988,166.086 113.874,165.987C113.652,165.794 111.873,164.812 111.746,164.812C111.705,164.812 111.674,165.109 111.678,165.472C111.682,165.834 111.623,167.006 111.547,168.075C111.438,169.614 111.447,170.135 111.593,170.575C112.035,171.906 112.377,173.741 112.448,175.157L112.525,176.685L112.859,176.997C113.043,177.169 113.326,177.31 113.488,177.31C113.65,177.31 113.888,177.405 114.016,177.522C114.186,177.675 114.772,177.765 116.154,177.85C118.324,177.983 118.632,178.114 117.626,178.476L116.934,178.724L110.471,178.624L109.988,178.363L109.505,178.103L107.734,178.188C106.42,178.251 105.845,178.336 105.509,178.52L105.056,178.768L102.209,178.786C100.643,178.796 98.581,178.842 97.626,178.889C96.672,178.936 95.812,178.939 95.717,178.894ZM105.837,177.092L106.258,176.875L110.055,177.049L110.332,176.659L110.609,176.268L110.702,173.699C110.856,169.423 110.855,167.295 110.698,166.2C110.615,165.628 110.488,164.587 110.415,163.889C110.284,162.643 109.889,161.58 109.158,160.507C108.831,160.027 108.362,158.794 108.127,157.799C107.91,156.877 107.73,156.427 106.576,153.911C106.078,152.824 105.808,152.085 105.728,151.586L105.641,151.04L106.305,151.134L106.39,150.114L105.75,150.023L105.754,148.495C105.759,146.562 106.063,139.705 106.15,139.565C106.185,139.508 106.285,138.119 106.372,136.479C106.555,133.002 106.87,131.089 107.343,130.586L107.66,130.248L107.489,128.401C107.283,126.172 106.915,124.38 105.7,119.681C105.472,118.803 105.217,117.49 105.132,116.765C104.915,114.911 104.59,113.387 104.378,113.224C104.279,113.147 103.997,112.554 103.751,111.904C103.505,111.255 102.896,109.693 102.397,108.433L101.49,106.142L100.67,105.822L99.85,105.503L99.04,105.594C98.435,105.663 97.97,105.615 97.199,105.407C96.632,105.253 95.387,105.057 94.432,104.97C92.316,104.778 90.716,104.498 89.155,104.046L87.975,103.705L87.068,103.792C86.55,103.843 85.928,103.816 85.618,103.73C84.981,103.554 84.864,103.618 85.108,104.009L85.286,104.293L85.066,104.537L84.846,104.78L85.194,105.403C85.386,105.745 85.824,106.324 86.169,106.688C87.164,107.742 87.011,107.919 84.989,108.056C83.421,108.163 83.314,108.211 83.418,108.758C83.555,109.477 84.308,110.756 85.086,111.593C85.901,112.468 85.87,112.593 84.843,112.597C84.09,112.599 82.934,112.068 82.629,111.578C82.514,111.394 82.251,110.991 82.044,110.682C81.092,109.265 80.962,108.097 81.681,107.426L82.09,107.044L82.907,107.044C83.853,107.044 83.98,106.933 83.597,106.446C83.444,106.252 83.05,105.588 82.72,104.972C82.273,104.134 81.965,103.743 81.507,103.427C79.05,101.735 78.71,101.321 79.713,101.244C80.451,101.187 80.823,101.082 80.823,100.931C80.823,100.784 80.725,100.658 79.81,99.63L79.205,98.952L78.383,99.233C77.93,99.388 77.344,99.56 77.08,99.617C76.299,99.783 75.408,100.215 75.408,100.427C75.408,101.158 70.925,100.55 68.95,99.552L67.839,98.99L66.93,98.99C65.646,98.99 65.199,99.508 66.208,99.828C66.494,99.919 66.858,100.074 67.016,100.173C67.174,100.272 67.882,100.546 68.59,100.783C69.863,101.21 70.413,101.446 70.547,101.623C70.754,101.895 72.52,103.295 72.656,103.295C74.136,103.295 75.101,104.61 73.967,105.081L73.22,105.39L72.601,105.235C71.924,105.064 71.033,105.097 71.033,105.293C71.033,105.422 71.21,105.529 71.797,105.759C73.328,106.357 73.446,106.493 72.77,106.877C72.241,107.178 72.247,107.362 72.807,108.017C73.716,109.079 75.542,113.204 75.875,114.95L76.045,115.843L76.386,115.942C76.574,115.996 77.102,116.145 77.56,116.273C79.339,116.771 80.354,117.114 80.754,117.35L81.171,117.597L80.615,117.59C79.897,117.581 78.277,117.265 77.535,116.989C77.216,116.87 76.716,116.774 76.424,116.776C76.132,116.778 75.55,116.785 75.13,116.792C74.71,116.799 73.976,116.755 73.498,116.696C72.193,116.532 72.392,117.089 73.88,117.763C75.247,118.382 76.226,119.709 76.587,121.433C77.022,123.515 76.477,123.581 75.218,121.599C74.409,120.326 74.351,120.355 74.144,122.141C73.901,124.247 73.447,127.079 73.226,127.874C72.696,129.783 72.264,130.97 71.585,132.387C71.183,133.227 70.62,134.602 70.335,135.442C69.001,139.365 68.385,140.719 67.839,140.927L67.505,141.054L67.423,143.076L67.18,143.123C66.894,143.177 66.721,142.791 66.444,141.484C66.339,140.989 66.188,140.562 66.109,140.535C65.871,140.456 65.945,139.876 66.32,138.882C66.558,138.251 66.649,137.798 66.594,137.506C66.522,137.112 67.445,134.184 68.275,132.177L68.477,131.689L68.275,130.524C68.163,129.884 68.108,129.26 68.151,129.137C68.302,128.708 68.65,128.429 69.037,128.429C70.084,128.429 69.724,126.776 67.633,121.972C66.492,119.351 66.457,118.986 67.349,118.986C67.992,118.986 68.539,119.967 69.711,123.222C70.397,125.127 70.505,125.253 70.723,124.409C70.792,124.146 70.95,123.855 71.075,123.764C71.255,123.632 71.315,123.286 71.357,122.132L71.412,120.666L71.125,120.203C70.968,119.948 70.57,119.59 70.242,119.407C68.583,118.485 64.458,113.895 64.392,112.898C64.333,111.996 64.872,112.375 66.477,114.363C67.327,115.417 68.164,116.427 68.336,116.61L68.649,116.941L68.827,116.697C68.937,116.547 69.259,116.428 69.672,116.385C70.039,116.348 70.403,116.238 70.481,116.141C70.578,116.02 71.213,115.948 72.512,115.91C73.731,115.874 74.475,115.794 74.608,115.683L74.814,115.512L74.56,114.594C74.095,112.918 72.156,109.403 71.46,108.975C71.262,108.854 70.908,108.464 70.674,108.11C69.582,106.462 68.269,105.674 66.271,105.47C65.79,105.421 65.265,105.31 65.103,105.223L64.81,105.066L65.063,104.925C65.216,104.839 65.843,104.815 66.654,104.864L67.992,104.946L68.803,104.537C69.25,104.312 69.793,104.128 70.012,104.128C70.499,104.128 70.53,103.889 70.067,103.713C69.878,103.641 69.57,103.338 69.381,103.039C68.992,102.423 68.347,101.981 67.631,101.84C66.631,101.643 64.516,100.874 63.57,100.364L63.049,100.083L61.423,100.931C59.705,101.827 59.261,101.914 59.183,101.369C59.109,100.845 59.854,100.163 61.836,98.94L62.22,98.702L62.079,98.439C61.719,97.765 62.05,97.397 63.389,96.981C64.882,96.517 63.889,96.137 61.904,96.413C58.737,96.854 57.735,96.563 58.383,95.393C58.88,94.496 58.555,94.419 57.003,95.063L55.759,95.58L54.974,95.553C54.426,95.535 54.137,95.588 54.019,95.731C53.926,95.843 53.789,95.935 53.714,95.935C53.64,95.935 53.112,96.31 52.543,96.768L51.507,97.601L50.981,97.601C50.626,97.601 50.255,97.736 49.843,98.015C49.17,98.471 48.466,98.558 48.186,98.22C48.062,98.071 47.964,98.05 47.863,98.151C47.784,98.23 47.576,98.295 47.402,98.295L47.084,98.295L46.101,100.274C45.56,101.362 44.959,102.42 44.764,102.624C44.57,102.827 44.455,103.065 44.509,103.152C44.608,103.312 44.088,104.213 43.566,104.787L43.282,105.1L43.579,105.1C43.743,105.1 44.255,104.855 44.718,104.556C45.728,103.903 46.039,103.848 48.514,103.889L50.434,103.92L50.875,103.219C52.602,100.472 55.163,98.755 56.297,99.585L56.541,99.763L56.566,104.549C56.586,108.213 56.548,109.48 56.406,109.952L56.219,110.57L56.579,110.832C56.777,110.976 56.939,111.17 56.939,111.263C56.939,111.356 57.184,111.81 57.484,112.271C57.784,112.732 58.233,113.499 58.483,113.975L58.937,114.841L58.766,115.114C58.572,115.425 58.557,115.389 59.642,117.206C60.881,119.281 61.259,120.276 62.009,123.43C62.218,124.308 62.544,125.402 62.733,125.86C62.922,126.318 63.22,127.412 63.394,128.29C63.991,131.286 64.193,132.109 64.385,132.328C64.828,132.834 64.554,135.091 63.987,135.609C63.521,136.033 62.371,136.286 61.804,136.089L61.351,135.931L60.981,136.149C60.506,136.43 60.109,137.139 59.741,138.365C59.272,139.93 59.286,140.03 60.158,141.208C61.71,143.306 62.377,144.552 62.381,145.356C62.383,145.847 62.617,146.156 64.411,148.027C65.08,148.726 65.27,149.393 64.614,148.743C64.476,148.607 64.177,148.375 63.95,148.229C63.722,148.082 63.081,147.524 62.526,146.988C61.322,145.825 61.328,145.821 61.121,147.87L60.96,149.467L61.169,150.636C61.331,151.542 61.341,151.85 61.213,152.004C61.122,152.113 61.004,152.805 60.95,153.542C60.896,154.28 60.751,155.46 60.628,156.166L60.403,157.45L60.608,157.763L60.812,158.077L60.614,159.604C60.505,160.444 60.326,161.538 60.216,162.034C60.106,162.531 59.851,163.874 59.648,165.02C59.446,166.165 59.193,167.509 59.087,168.005C58.981,168.502 58.826,169.283 58.742,169.741C58.599,170.522 58.505,170.869 58.249,171.546C58.191,171.699 58.131,171.981 58.115,172.174C58.087,172.503 57.295,173.885 56.672,174.69L56.388,175.057L56.818,175.414L57.607,174.949L59.659,174.949C60.891,174.949 61.892,174.883 62.165,174.784C62.52,174.656 62.913,174.66 63.954,174.803C65.624,175.032 65.757,174.946 65.151,174.031C64.912,173.669 64.716,173.262 64.716,173.126C64.716,172.99 64.644,172.723 64.557,172.532C64.436,172.266 64.452,171.688 64.627,170.06C64.751,168.892 64.918,167.155 64.996,166.2C65.211,163.577 65.632,161.328 66.321,159.118C66.499,158.545 66.69,157.733 66.744,157.313L66.844,156.549L68.106,155.267C68.8,154.561 69.446,153.983 69.541,153.982C69.976,153.977 69.544,154.806 68.673,155.646C67.915,156.378 67.632,156.864 67.632,157.432C67.632,157.659 67.514,158.221 67.371,158.683C67.077,159.627 67.092,159.673 67.693,159.673C68.283,159.673 68.77,160.035 68.718,160.433C68.651,160.94 69.016,161.447 69.623,161.69L70.186,161.915L71.582,161.745C73.252,161.541 74.567,161.709 75.079,162.19L75.399,162.491L80.294,162.291L80.899,161.829C81.353,161.482 81.746,161.327 82.482,161.202C83.775,160.984 83.775,160.978 82.516,159.719C81.468,158.672 80.268,157.289 80.268,157.127C80.268,157.084 80.088,156.78 79.867,156.452C78.628,154.61 76.621,149.781 76.178,147.579C75.863,146.013 75.766,145.956 75.085,146.933C74.806,147.334 74.055,148.201 73.416,148.861C72.777,149.52 72.114,150.35 71.942,150.706C71.589,151.435 70.634,152.036 69.829,152.036C69.489,152.036 69.237,152.174 68.807,152.596C68.417,152.979 68.162,153.129 68.003,153.068C67.59,152.909 67.753,152.565 68.604,151.795C69.555,150.934 69.595,150.807 69.02,150.48C68.791,150.35 68.604,150.145 68.604,150.025C68.604,149.905 68.44,149.745 68.24,149.669L67.876,149.531L67.963,149.095C68.011,148.856 68.259,148.404 68.515,148.092C69.035,147.456 69.449,146.687 69.717,145.86C69.815,145.556 70.011,145.119 70.152,144.888C70.498,144.321 70.493,144.066 70.14,144.255C69.248,144.732 69.659,144.076 71.453,142.159C72.409,141.138 73.362,140.04 73.571,139.72C73.809,139.354 74.091,139.105 74.329,139.05C74.886,138.921 75.05,139.08 74.782,139.49C74.659,139.678 74.577,139.969 74.601,140.137L74.644,140.441L76.264,140.525L76.338,140.24C76.425,139.907 76.561,139.879 76.784,140.148C77.029,140.443 80.118,141.483 80.743,141.481C80.902,141.481 81.211,141.387 81.43,141.273C81.649,141.159 81.956,141.066 82.113,141.066C82.414,141.066 83.768,140.359 84.206,139.973C84.466,139.744 85.427,139.149 87.073,138.198C87.569,137.911 88.344,137.439 88.795,137.149C89.246,136.859 89.739,136.622 89.891,136.622C90.302,136.622 91.954,134.841 91.809,134.554C91.746,134.431 91.622,134.018 91.532,133.636C91.24,132.397 91.11,132.178 90.662,132.178C90.092,132.178 90.051,131.927 90.395,130.542C90.561,129.876 90.729,129.175 90.768,128.985L90.84,128.637L90.612,128.915C90.486,129.068 90.227,129.498 90.036,129.87C89.637,130.647 89.126,131.206 88.815,131.206C88.183,131.206 88.943,128.88 89.873,127.969L90.413,127.44L90.861,127.483C91.308,127.526 91.342,127.591 91.165,128.047L91.07,128.29L91.563,128.29C92.213,128.29 92.26,128.407 92.007,129.381C91.724,130.476 91.735,130.695 92.132,131.758C92.655,133.158 93.146,134.819 93.326,135.8C93.416,136.29 93.636,137.098 93.815,137.594C94.312,138.969 94.76,141.517 94.65,142.342L94.559,143.034L95.002,143.82C95.565,144.818 96.835,146.551 97.44,147.148L97.904,147.606L97.904,149.01L98.3,149.516C98.517,149.795 98.735,150.228 98.784,150.48C98.943,151.305 100.734,155.212 101.408,156.203C101.59,156.471 101.837,156.878 101.958,157.106C102.079,157.334 102.497,158.112 102.887,158.834C103.278,159.556 103.598,160.198 103.598,160.262C103.598,160.576 105.1,163.219 105.532,163.666L106.028,164.177L106.028,167.61L106.5,167.956L105.976,169.265C105.271,171.029 105.023,172.104 104.924,173.838C104.878,174.64 104.805,175.749 104.762,176.303L104.685,177.309L105.051,177.309C105.252,177.309 105.606,177.211 105.837,177.092ZM96.168,160.575L98.668,160.501L99.082,160.198C99.366,159.991 99.76,159.877 100.332,159.839C101.244,159.777 101.501,159.648 101.275,159.367C100.919,158.924 97.62,152.255 97.201,151.134C96.945,150.446 96.561,149.679 96.348,149.428C96.135,149.177 95.959,148.864 95.958,148.733C95.955,148.405 95.736,148.053 94.845,146.948C92.805,144.416 92.145,143.031 92.702,142.449C93.116,142.017 93.266,141.294 93.055,140.745C92.867,140.254 92.665,140.369 92.546,141.036C92.42,141.744 91.402,145.045 90.327,148.227C89.669,150.177 89.433,151.074 89.431,151.629C89.429,152.044 89.366,152.79 89.289,153.286C88.717,157.016 88.709,157.72 89.243,157.728C89.631,157.733 89.719,158.115 89.606,159.295C89.45,160.916 89.287,160.801 91.633,160.719C92.753,160.681 94.794,160.616 96.168,160.575ZM40.868,134.178C40.914,134.133 40.819,133.843 40.659,133.534C39.928,132.132 40.164,130.478 41.167,129.977L41.803,129.66L43.601,129.711C44.969,129.75 45.459,129.813 45.649,129.977C45.787,130.095 45.995,130.226 46.112,130.267C46.229,130.308 46.443,130.561 46.588,130.83L46.851,131.319L46.397,132.478C46.147,133.115 45.91,133.777 45.87,133.949L45.798,134.262L46.63,134.262C47.451,134.262 47.908,134.036 47.716,133.725C47.671,133.652 48.025,133.175 48.503,132.663C48.98,132.152 49.659,131.304 50.011,130.778L50.65,129.823L51.042,128.015C51.258,127.021 51.481,126.207 51.538,126.207C51.656,126.207 51.85,127.554 51.778,127.872C51.744,128.025 51.911,128.099 52.426,128.162C52.808,128.208 53.219,128.29 53.341,128.344C53.56,128.441 54.301,127.276 54.301,126.834C54.301,126.626 54.676,126.445 54.775,126.605C54.846,126.719 54.493,128.561 54.379,128.675C54.303,128.752 54.823,129.818 54.938,129.818C54.979,129.818 55.15,129.744 55.317,129.653C55.483,129.563 55.839,129.452 56.106,129.406L56.592,129.323L56.554,127.8C56.534,126.962 56.448,125.647 56.363,124.877C56.206,123.438 56.319,122.786 56.706,122.911C57.083,123.032 57.507,124.244 57.591,125.442L57.676,126.638L57.963,126.839C58.263,127.049 59.263,127.111 59.515,126.934C59.822,126.719 60.006,125.658 59.914,124.641L59.823,123.63L60.047,123.444C60.356,123.188 60.33,122.866 59.925,121.903C59.489,120.866 59.477,120.337 59.885,120.066L60.192,119.862L59.737,118.973C59.486,118.484 59.008,117.646 58.674,117.112C57.588,115.372 56.875,113.857 57.055,113.677C57.3,113.432 57.25,113.293 56.917,113.293C56.163,113.293 54.984,111.074 55.551,110.724C55.862,110.532 55.651,99.962 55.336,99.962C54.477,99.962 51.838,102.809 51.022,104.617C50.52,105.731 49.325,106.627 49.128,106.037C49.086,105.912 48.671,105.869 47.624,105.882L46.177,105.9L45.245,106.256C44.191,106.658 42.661,106.905 41.233,106.905C40.15,106.905 39.836,107.154 40.41,107.557C41.221,108.125 39.309,108.084 38.463,107.515C38.191,107.332 37.898,107.183 37.811,107.183C37.724,107.183 37.571,107.068 37.471,106.928C37.372,106.788 37.009,106.491 36.665,106.269C36.321,106.046 35.978,105.798 35.901,105.716C35.825,105.635 35.408,105.331 34.975,105.041C34.542,104.751 34.015,104.333 33.804,104.113C33.101,103.38 33.03,103.457 32.647,105.364C32.211,107.54 32.333,109.752 32.994,111.668L33.224,112.335L33.002,112.58C32.88,112.715 32.738,113.035 32.687,113.291L32.594,113.756L32.829,113.666C33.388,113.451 33.228,114.064 32.077,116.547L31.631,117.51L31.787,117.76C31.873,117.898 31.944,118.292 31.944,118.635C31.944,119.254 31.882,119.593 31.45,121.347C30.936,123.435 30.94,123.539 31.545,123.804C32.073,124.036 32.868,124.77 33.349,125.468C33.578,125.801 33.829,126.036 33.905,125.988C33.982,125.941 34.246,125.94 34.493,125.986L34.942,126.07L35.34,126.868C35.558,127.306 35.852,127.831 35.993,128.034C36.133,128.237 36.248,128.495 36.248,128.609C36.248,128.723 36.768,129.588 37.404,130.532C39.658,133.878 39.566,133.765 40.261,134.077C40.701,134.274 40.762,134.284 40.868,134.178ZM40.276,123.5C40.199,123.299 40.137,123.026 40.137,122.893C40.137,122.516 39.848,122.319 39.296,122.319C38.582,122.319 37.974,122.088 37.012,121.449C35.438,120.405 35.031,119.778 35.726,119.471C35.953,119.37 36.08,119.134 36.2,118.588C36.291,118.178 36.417,117.796 36.48,117.74C36.728,117.52 37.897,116.958 39.199,116.433C39.793,116.194 39.833,116.049 39.442,115.553C39.069,115.078 39.089,114.892 39.603,114.093C39.886,113.651 40.063,113.173 40.105,112.737C40.153,112.239 40.219,112.084 40.361,112.138C40.671,112.257 40.59,113.283 40.209,114.057C39.778,114.933 39.778,115.061 40.216,115.467C40.715,115.93 40.6,116.22 39.741,116.655C39.332,116.862 38.926,117.088 38.838,117.158C38.75,117.227 38.428,117.362 38.123,117.458C37.379,117.692 37.081,117.977 37.081,118.456C37.081,118.894 37.059,118.881 38.74,119.419C39.869,119.78 40.496,120.28 40.959,121.187C41.106,121.476 41.325,121.794 41.444,121.893C41.708,122.112 41.606,122.319 41.235,122.319L40.961,122.319L41.039,123.777L40.727,123.822C40.496,123.854 40.378,123.77 40.276,123.5ZM44.233,123.708C44.181,123.623 44.396,123.569 44.787,123.569L45.428,123.569L45.911,123.048C46.824,122.064 47.462,120.625 46.802,121.037C45.948,121.57 46.533,120.127 47.577,119.125L48.444,118.292L48.928,118.292C50.391,118.292 50.601,116.448 49.24,115.558C48.74,115.23 48.33,114.552 48.33,114.052C48.33,113.883 48.236,113.666 48.121,113.571C47.857,113.352 47.826,112.13 48.087,112.216C48.182,112.247 48.28,112.518 48.304,112.818C48.328,113.117 48.406,113.422 48.478,113.494C48.549,113.567 48.607,113.743 48.607,113.886C48.607,114.28 49.309,115.116 49.819,115.329C50.902,115.781 51.243,117.084 50.506,117.955C50.253,118.255 50.004,118.612 49.954,118.748L49.862,118.995L50.536,118.906C50.972,118.848 51.244,118.871 51.306,118.971C51.358,119.056 51.315,119.125 51.211,119.125C51.014,119.125 50.413,119.845 50.413,120.081C50.413,120.405 48.791,121.645 48.106,121.844L47.397,122.05L47.135,122.535C46.991,122.803 46.643,123.207 46.36,123.434L45.846,123.847L45.083,123.847C44.663,123.847 44.28,123.784 44.233,123.708Z" style="fill:white;fill-rule:nonzero;"/>
    </g>
</svg>
