<?xml version="1.0" encoding="UTF-8" standalone="no"?>
<!DOCTYPE svg PUBLIC "-//W3C//DTD SVG 1.1//EN" "http://www.w3.org/Graphics/SVG/1.1/DTD/svg11.dtd">
<svg width="100%" height="100%" viewBox="0 0 243 222" version="1.1" xmlns="http://www.w3.org/2000/svg" xmlns:xlink="http://www.w3.org/1999/xlink" xml:space="preserve" xmlns:serif="http://www.serif.com/" style="fill-rule:evenodd;clip-rule:evenodd;stroke-linejoin:round;stroke-miterlimit:2;">
    <g id="g1" transform="matrix(3.69202,0,0,3.69202,-397.143,-299.708)">
        <path id="path4" d="M162.534,140.085C162.319,139.858 161.835,139.464 161.459,139.209C160.712,138.701 159.364,137.459 159.174,137.103C159.083,136.932 159.081,136.798 159.164,136.545C159.246,136.297 159.245,136.159 159.16,136C159.098,135.883 159.01,135.562 158.967,135.287C158.728,133.789 158.687,133.564 158.636,133.483C158.606,133.434 158.365,133.597 158.1,133.846C156.544,135.308 156.047,135.648 154.955,135.998C154.456,136.157 153.355,136.174 153.176,136.025C153.052,135.923 152.995,135.957 152.823,136.236C152.71,136.419 152.617,136.601 152.617,136.641C152.617,136.68 152.491,136.873 152.337,137.069C152.183,137.265 151.968,137.601 151.859,137.816C151.75,138.031 151.574,138.285 151.468,138.381C151.363,138.476 151.197,138.729 151.101,138.942C150.884,139.425 150.58,139.458 150.167,139.045C149.835,138.713 149.791,138.27 150.031,137.694C150.201,137.287 150.323,137.184 150.637,137.182C151.134,137.179 151.542,136.615 152.621,134.444C152.954,133.773 153.29,133.103 153.367,132.956C153.454,132.788 153.483,132.566 153.444,132.359C153.388,132.059 153.413,132.013 153.733,131.824C154.33,131.471 154.198,131.359 153.179,131.357C152.682,131.356 152.154,131.319 152.006,131.276C151.778,131.209 151.679,131.25 151.346,131.55C150.909,131.946 150.918,131.943 150.656,131.803C150.441,131.688 150.416,131.495 150.58,131.231C150.719,131.009 150.627,130.731 150.413,130.731C150.314,130.731 150.159,130.95 149.996,131.317C149.733,131.912 149.628,131.984 149.288,131.803C149.018,131.658 149.044,131.164 149.344,130.771C149.478,130.595 149.588,130.391 149.588,130.318C149.588,130.245 149.387,129.99 149.141,129.75C148.613,129.235 148.077,128.525 147.98,128.211C147.905,127.97 148.171,127.363 148.51,126.999C148.614,126.886 148.813,126.416 148.952,125.954C149.215,125.08 149.599,123.931 149.854,123.256C149.935,123.041 150.058,122.645 150.127,122.376C150.195,122.107 150.299,121.756 150.357,121.594C150.414,121.433 150.621,120.818 150.816,120.226C151.011,119.635 151.292,118.822 151.44,118.419C151.588,118.016 151.81,117.356 151.934,116.953C152.057,116.55 152.191,116.176 152.23,116.122C152.27,116.069 152.381,115.739 152.477,115.389C152.787,114.258 152.955,113.951 153.306,113.874C153.942,113.734 153.94,114.407 153.3,115.829C153.203,116.044 153.091,116.396 153.051,116.611C152.985,116.961 152.994,116.988 153.133,116.873C153.331,116.709 153.692,116.878 153.692,117.133C153.692,117.307 153.416,118.046 153.01,118.956C152.717,119.612 152.02,122.283 152.092,122.471C152.124,122.553 152.186,122.621 152.231,122.621C152.275,122.621 152.584,122.839 152.917,123.107C153.832,123.841 154.169,123.971 155.367,124.047L156.407,124.114L156.906,123.073C157.181,122.501 157.406,121.986 157.406,121.93C157.406,121.873 157.513,121.598 157.643,121.32C158.442,119.615 159.164,117.189 159.164,116.207C159.165,115.753 159.073,115.647 158.564,115.508C158.368,115.455 157.929,115.246 157.587,115.045C156.315,114.296 155.771,114.049 154.914,113.829C153.829,113.552 153.497,113.39 153.497,113.141C153.497,113.014 153.587,112.927 153.766,112.882C154.161,112.783 155.51,113.091 156.173,113.432C156.49,113.595 156.805,113.728 156.873,113.728C157.03,113.728 158.079,114.319 158.525,114.66C158.914,114.956 159.554,115.137 159.699,114.991C159.823,114.868 160.473,113.034 160.771,111.969C160.898,111.512 161.166,110.677 161.366,110.112C161.927,108.524 161.961,106.882 161.433,106.89C161.341,106.891 161.164,107.057 161.04,107.257C160.604,107.96 159.724,108.767 158.91,109.207C158.437,109.464 156.24,110.112 155.843,110.112C155.692,110.112 155.288,110.236 154.947,110.387C154.115,110.756 153.317,110.934 152.851,110.854C151.973,110.703 151.902,110.718 151.802,111.09C151.585,111.889 150.577,114.888 150.388,115.292C150.276,115.533 150.09,115.973 149.975,116.269C149.861,116.564 149.722,116.861 149.666,116.928C149.595,117.013 149.6,117.137 149.683,117.338C149.835,117.703 149.753,117.832 149.369,117.832C148.766,117.832 147.565,117.05 147.685,116.736C147.779,116.493 148.026,116.479 148.478,116.693C148.701,116.798 148.946,116.86 149.022,116.831C149.099,116.801 149.276,116.476 149.417,116.108C149.557,115.739 149.808,115.086 149.974,114.656C150.541,113.193 151.347,110.698 151.347,110.406C151.347,110.267 151.193,110.011 150.968,109.775C150.071,108.839 149.614,108.285 149.498,107.994C149.343,107.604 149.14,107.523 148.83,107.726C148.602,107.875 148.571,107.872 148.31,107.679L148.032,107.474L147.923,107.889C147.863,108.118 147.768,108.481 147.712,108.695C147.657,108.91 147.462,109.482 147.28,109.966C147.078,110.501 146.955,110.994 146.965,111.226C146.984,111.64 147.046,111.568 145.575,112.849C145.236,113.144 144.803,113.529 144.614,113.704C144.229,114.059 144.063,114.091 143.746,113.868C143.487,113.687 142.9,112.794 142.682,112.248C142.53,111.868 142.532,111.855 142.774,111.597C142.909,111.452 143.138,111.005 143.281,110.604C143.539,109.88 143.617,109.688 144.076,108.647C144.523,107.635 144.554,107.672 143.041,107.417C141.487,107.155 141.327,107.11 140.524,106.704C139.92,106.399 139.89,106.395 138.244,106.359L136.575,106.323L136.398,106.736C136.299,106.968 136.244,107.265 136.272,107.414C136.307,107.595 136.262,107.748 136.129,107.894C135.881,108.168 135.787,108.55 135.926,108.718C136.007,108.816 135.985,108.901 135.834,109.065C135.724,109.184 135.557,109.558 135.464,109.897C135.357,110.283 135.223,110.549 135.103,110.613C134.819,110.765 134.788,110.661 134.914,109.978C135.074,109.106 135.069,109.081 134.674,108.848C134.256,108.601 134.309,108.5 134.855,108.5C135.23,108.5 135.26,108.479 135.389,108.109C135.522,107.727 135.519,107.713 135.252,107.501C134.505,106.906 134.475,106.77 135.138,106.989C135.522,107.116 135.551,107.111 135.725,106.897C136.119,106.409 135.846,106.078 134.96,105.968C134.681,105.933 134.109,105.816 133.69,105.707C133.27,105.597 132.434,105.482 131.831,105.451L130.735,105.393L130.626,105.676C130.566,105.832 130.503,106.147 130.487,106.375C130.465,106.689 130.322,106.996 129.906,107.621C129.301,108.531 129.254,108.553 128.26,108.388C127.775,108.308 127.722,108.079 127.943,107.021C128.039,106.568 128.092,106.173 128.062,106.143C128.033,106.114 127.532,106.07 126.95,106.045C126.368,106.021 125.765,105.992 125.611,105.98C125.444,105.968 125.297,106.019 125.249,106.106C125.205,106.187 124.907,107.044 124.588,108.012C123.883,110.15 123.241,111.953 123.097,112.203C122.989,112.389 121.945,115.066 121.664,115.878C121.58,116.12 121.476,116.406 121.432,116.513C121.334,116.754 120.97,117.831 120.506,119.249C120.313,119.84 120.094,120.463 120.018,120.632C119.943,120.801 119.882,121.03 119.882,121.139C119.882,121.249 119.841,121.364 119.791,121.394C119.742,121.425 119.67,121.592 119.632,121.766C119.594,121.94 119.507,122.214 119.438,122.376C119.37,122.537 119.258,122.867 119.19,123.109C119.122,123.351 119.012,123.659 118.946,123.793C118.88,123.927 118.736,124.345 118.627,124.721C118.518,125.098 118.179,126.12 117.875,126.994C117.57,127.868 117.344,128.643 117.372,128.716C117.401,128.792 117.712,128.902 118.09,128.971C118.962,129.129 120.521,129.528 120.75,129.65C120.849,129.703 121.233,129.84 121.603,129.955C121.973,130.07 122.447,130.235 122.656,130.322C122.907,130.427 123.333,130.481 123.908,130.484C124.655,130.487 124.812,130.516 125.012,130.694C125.52,131.147 126.315,131.513 126.794,131.515C127.05,131.516 127.451,131.604 127.685,131.71C128.299,131.989 128.383,131.967 128.383,131.532C128.383,131.327 128.448,131.074 128.527,130.97C128.767,130.652 128.706,130.463 128.322,130.336C127.912,130.201 127.043,129.974 126.478,129.854C125.853,129.722 123.979,129.12 123.478,128.89C123.226,128.774 122.928,128.679 122.815,128.679C122.48,128.679 121.934,128.407 121.934,128.24C121.934,128.155 121.847,127.966 121.741,127.82C121.508,127.501 121.303,126.267 121.389,125.707C121.563,124.57 122.405,121.778 122.827,120.939C122.927,120.739 123.009,120.496 123.009,120.399C123.009,120.301 123.068,120.134 123.141,120.028C123.213,119.922 123.303,119.711 123.34,119.559C123.377,119.407 123.537,119.007 123.697,118.67C124.044,117.935 124.052,117.833 123.766,117.831C123.256,117.828 123.253,117.757 123.69,116.158C124.126,114.561 124.525,113.456 125.098,112.254C125.293,111.846 125.452,111.486 125.452,111.453C125.452,111.341 126.084,110.348 126.389,109.981C126.601,109.725 126.796,109.6 127.044,109.559C127.358,109.508 127.403,109.528 127.456,109.741C127.516,109.979 127.52,109.98 128.56,109.939C129.567,109.9 129.952,109.944 132.052,110.338C132.431,110.409 132.796,110.502 132.864,110.543C132.932,110.585 133.215,110.658 133.495,110.705C133.774,110.752 134.156,110.817 134.344,110.849C134.532,110.881 134.774,110.948 134.881,110.997C135.328,111.201 137.185,111.599 137.413,111.54C137.517,111.512 137.846,111.602 138.144,111.738C138.442,111.874 138.885,112.053 139.129,112.136C139.856,112.383 140.748,112.833 141.035,113.099C141.253,113.301 141.293,113.405 141.246,113.642C141.195,113.894 141.251,114.003 141.64,114.419C141.889,114.686 142.065,114.932 142.03,114.967C141.933,115.064 141.277,114.683 141.11,114.432C140.919,114.146 139.087,112.763 138.664,112.586C138.487,112.512 138.069,112.386 137.735,112.307C137.402,112.227 136.689,112.049 136.152,111.911C135.614,111.773 135.021,111.621 134.833,111.573C134.645,111.525 134.117,111.392 133.66,111.276C131.511,110.731 129.712,110.459 128.461,110.49L127.904,110.503L127.376,111.603C126.793,112.817 126.49,113.524 126.235,114.264C126.142,114.534 125.997,114.952 125.912,115.194C125.69,115.829 125.289,117.412 125.211,117.958C125.147,118.417 125.155,118.437 125.661,119.021C125.994,119.406 126.332,119.682 126.619,119.805C126.884,119.919 127.251,120.208 127.535,120.526C127.796,120.819 128.258,121.203 128.562,121.381C128.867,121.558 129.174,121.823 129.245,121.97C129.316,122.116 129.536,122.34 129.734,122.467C129.931,122.594 130.267,122.878 130.48,123.099C130.856,123.489 131.237,123.614 131.466,123.422C131.517,123.38 131.801,123.271 132.097,123.181C133.423,122.776 134.318,122.488 134.588,122.378C134.75,122.313 135.145,122.182 135.468,122.086C137.461,121.495 141.602,120.079 142.283,119.756C142.47,119.668 142.678,119.529 142.745,119.449C142.835,119.34 142.913,119.328 143.051,119.401C143.307,119.538 143.286,119.633 142.909,120.055C142.388,120.637 142.154,121.221 141.821,122.767C141.026,126.45 140.047,129.326 139.102,130.75C138.984,130.928 138.827,131.191 138.753,131.336C138.678,131.48 138.486,131.757 138.326,131.952C138.103,132.222 137.973,132.298 137.777,132.276C137.441,132.237 137.473,132.064 137.982,131.178C138.591,130.117 139.097,129.145 139.179,128.875C139.22,128.74 139.355,128.41 139.479,128.142C139.729,127.601 140.075,126.665 140.22,126.138C140.272,125.95 140.353,125.708 140.4,125.601C140.707,124.899 141.7,120.948 141.596,120.843C141.45,120.698 139.386,121.427 139.021,121.753C138.32,122.379 136.73,123.076 135.513,123.292C134.542,123.464 133.688,123.678 133.207,123.87C132.725,124.061 131.858,124.328 131.412,124.421C131.278,124.449 131.04,124.583 130.884,124.719C130.359,125.176 129.854,125.035 128.921,124.171C128.706,123.972 128.314,123.641 128.05,123.435C127.177,122.754 126.633,122.213 126.456,121.853C126.309,121.551 126.227,121.492 125.921,121.467C125.707,121.449 125.462,121.501 125.321,121.593C125.183,121.683 124.983,121.727 124.851,121.696C124.725,121.666 124.577,121.675 124.523,121.716C124.421,121.793 124.236,122.237 124.067,122.808C124.012,122.991 123.884,123.255 123.782,123.394C123.68,123.533 123.556,123.91 123.505,124.233C123.454,124.555 123.359,124.998 123.293,125.216C123.141,125.72 123.23,126.074 123.544,126.217C123.879,126.37 123.863,126.678 123.478,127.467C123.244,127.947 123.191,128.147 123.265,128.265C123.367,128.427 125.179,129.091 126.136,129.318C126.431,129.388 127.039,129.536 127.486,129.648C128.503,129.903 128.514,129.903 128.949,129.607C129.47,129.253 129.575,129.284 129.538,129.778C129.511,130.145 129.532,130.197 129.726,130.225C129.864,130.245 130.026,130.165 130.166,130.009C130.287,129.873 130.514,129.731 130.67,129.694C130.948,129.629 130.953,129.635 130.899,129.96C130.869,130.142 130.829,130.354 130.811,130.43C130.771,130.595 131.464,131.02 131.777,131.023C131.932,131.024 132.05,130.916 132.188,130.646C132.424,130.183 132.606,130.101 132.888,130.329C133.098,130.499 133.099,130.514 132.947,130.96C132.795,131.408 132.796,131.421 133.006,131.552C133.349,131.767 133.92,131.836 135.199,131.817C135.857,131.807 136.396,131.836 136.396,131.882C136.396,132.033 135.365,132.295 134.769,132.295C134.448,132.295 133.836,132.201 133.41,132.087C132.983,131.972 132.48,131.873 132.292,131.867C132.078,131.86 131.867,131.772 131.728,131.633C131.502,131.407 130.518,130.927 130.28,130.927C130.208,130.927 129.989,130.851 129.794,130.758C129.453,130.595 129.434,130.596 129.304,130.775C129.229,130.877 129.139,131.118 129.105,131.31C129.071,131.502 128.978,131.734 128.898,131.825C128.819,131.916 128.77,132.039 128.79,132.098C128.81,132.157 129.397,132.429 130.095,132.702C130.793,132.975 131.452,133.234 131.559,133.276C131.949,133.429 133.332,133.853 133.904,133.995C134.227,134.075 134.689,134.206 134.93,134.286C135.172,134.367 135.7,134.527 136.103,134.642C136.506,134.757 137.1,134.954 137.422,135.08C137.745,135.207 138.118,135.339 138.253,135.374C138.387,135.409 138.717,135.539 138.986,135.663C139.601,135.946 140.812,136.399 140.955,136.399C141.014,136.399 141.117,136.465 141.184,136.546C141.251,136.626 141.412,136.692 141.542,136.692C141.729,136.692 141.817,136.599 141.97,136.244C142.075,135.998 142.162,135.698 142.162,135.579C142.162,135.459 142.274,135.078 142.412,134.732C142.79,133.781 143.302,132.215 143.432,131.611C143.679,130.472 143.732,130.239 144.153,128.484C144.391,127.489 144.614,126.543 144.647,126.38C144.681,126.217 144.792,126.032 144.895,125.967C145.052,125.87 145.091,125.88 145.14,126.035C145.189,126.189 144.882,127.676 144.514,129.07C144.465,129.258 144.308,130.028 144.166,130.78C143.818,132.629 143.526,133.888 143.421,134C143.373,134.051 143.334,134.222 143.334,134.38L143.334,134.667L143.693,134.287L144.051,133.907L143.988,134.371C143.908,134.956 143.557,135.651 142.993,136.344C142.751,136.641 142.552,136.951 142.552,137.031C142.552,137.21 142.887,137.302 143.38,137.261C143.706,137.233 143.763,137.189 143.859,136.888C143.944,136.624 144.029,136.539 144.232,136.515C144.589,136.474 144.708,136.72 144.6,137.28C144.475,137.928 144.478,137.94 144.848,138.115C145.302,138.331 145.445,138.255 145.511,137.768C145.572,137.314 145.813,136.985 146.085,136.985C146.295,136.985 146.301,137.051 146.162,137.801C146.038,138.475 146.102,138.724 146.422,138.804C146.603,138.85 146.72,138.802 146.899,138.609C147.211,138.272 147.299,138.286 147.498,138.704C147.698,139.125 147.853,139.2 148.2,139.042C148.433,138.936 148.481,138.949 148.658,139.163C148.818,139.357 148.973,139.413 149.474,139.456C150.156,139.514 150.269,139.568 150.09,139.747C149.908,139.928 147.555,139.89 146.754,139.694C145.409,139.364 145.079,139.253 143.921,138.74C142.352,138.045 141.48,137.75 140.109,137.452C139.131,137.24 138.036,136.944 137.715,136.805C137.608,136.759 137.058,136.574 136.494,136.396C135.93,136.217 135.309,135.972 135.115,135.851C134.522,135.483 133.986,135.383 133.382,135.528C132.953,135.63 132.73,135.63 132.159,135.526C131.775,135.455 131.242,135.364 130.973,135.323C130.704,135.282 130.202,135.155 129.857,135.042C129.513,134.928 129.149,134.835 129.049,134.835C128.95,134.835 128.554,134.725 128.169,134.591C127.228,134.262 126.94,134.267 126.857,134.615C126.746,135.081 126.171,135.699 125.781,135.772C125.317,135.859 123.891,135.662 122.569,135.328C121.334,135.016 120.622,135.037 119.686,135.414C118.657,135.828 118.668,135.818 118.579,136.402C118.534,136.696 118.359,137.398 118.189,137.962C117.906,138.904 117.839,139.028 117.377,139.479L116.873,139.97L115.861,140.09C114.671,140.231 113.339,140.246 113.022,140.122C112.898,140.074 112.607,139.983 112.376,139.921C112.144,139.858 111.792,139.664 111.594,139.489C111.396,139.314 111.031,139.096 110.784,139.004C110.231,138.798 110.022,138.58 109.601,137.767C108.861,136.34 108.457,134.925 108.358,133.418C108.279,132.203 108.363,131.253 108.601,130.684C108.796,130.216 109.608,129.587 110.506,129.208C111.252,128.894 111.971,128.465 112.293,128.143C112.399,128.037 112.43,127.831 112.407,127.386C112.389,127.049 112.414,125.938 112.46,124.917C112.709,119.507 112.664,119.823 113.164,119.923C113.336,119.958 113.566,120.091 113.675,120.219C113.783,120.347 114.03,120.479 114.225,120.512C114.889,120.625 114.943,120.777 114.97,122.572C114.983,123.448 115.038,124.282 115.092,124.425C115.147,124.568 115.218,125.067 115.252,125.534C115.288,126.043 115.389,126.558 115.505,126.822C115.611,127.064 115.696,127.372 115.695,127.506C115.691,127.794 115.867,128.288 115.973,128.288C116.14,128.288 116.262,128 116.363,127.364C116.422,126.994 116.495,126.652 116.524,126.605C116.554,126.557 116.612,126.29 116.654,126.011C116.697,125.731 116.842,124.953 116.977,124.282C117.179,123.281 117.474,121.324 117.485,120.91C117.486,120.857 117.268,120.783 116.999,120.747C115.813,120.587 115.579,120.536 115.478,120.415C115.347,120.257 115.502,119.091 115.789,118.076C116.122,116.9 116.67,115.158 116.804,114.852C117.004,114.394 117.415,113.231 117.53,112.8C117.707,112.13 117.663,111.849 117.333,111.537C116.841,111.073 116.735,110.86 116.848,110.563C116.952,110.289 116.963,110.274 117.435,109.709C117.598,109.513 117.732,109.267 117.732,109.161C117.732,109.055 117.835,108.775 117.96,108.539C118.085,108.303 118.22,107.979 118.26,107.82C118.3,107.661 118.499,107.177 118.703,106.745C118.907,106.313 119.104,105.833 119.141,105.678C119.178,105.523 119.337,105.267 119.496,105.108C119.77,104.835 119.816,104.823 120.395,104.875C120.731,104.905 121.51,104.942 122.127,104.956L123.249,104.982L123.517,104.494C123.665,104.225 123.787,103.931 123.788,103.841C123.79,103.698 123.943,103.326 124.522,102.059C124.647,101.785 124.627,101.513 124.481,101.513C124.333,101.513 123.376,100.482 123.196,100.128C123.012,99.769 122.775,98.884 122.675,98.191C122.476,96.806 122.425,96.105 122.429,94.838C122.434,93.302 122.572,92.34 122.915,91.448C123.028,91.152 123.159,90.789 123.205,90.64C123.391,90.041 124.156,88.453 124.415,88.126C124.479,88.045 124.596,87.847 124.674,87.686C124.752,87.525 125.035,87.182 125.301,86.923C125.568,86.665 125.898,86.29 126.034,86.089C126.171,85.889 126.523,85.506 126.817,85.239C127.111,84.973 127.433,84.655 127.533,84.534C127.632,84.414 127.759,84.315 127.814,84.315C127.87,84.315 128.037,84.216 128.187,84.095C128.336,83.974 128.755,83.699 129.117,83.484C129.996,82.963 130.172,82.788 130.116,82.493C130.077,82.293 130.133,82.224 130.466,82.063C130.685,81.958 130.91,81.872 130.967,81.872C131.024,81.873 131.356,82.026 131.706,82.213C132.055,82.4 132.402,82.583 132.476,82.619C132.55,82.655 132.702,82.628 132.812,82.558C132.928,82.486 133.465,82.411 134.068,82.383C134.956,82.341 135.219,82.364 135.735,82.532C136.072,82.642 136.467,82.759 136.614,82.792C136.761,82.825 137.026,82.979 137.204,83.135C137.381,83.291 137.701,83.449 137.914,83.486C138.127,83.523 138.522,83.611 138.79,83.683C139.059,83.754 139.631,83.834 140.061,83.86C140.491,83.886 140.954,83.95 141.091,84.003C141.228,84.056 141.646,84.13 142.02,84.168C143.06,84.274 144.302,84.477 144.898,84.64C145.761,84.875 146.826,85.087 147.927,85.244C148.491,85.325 149.107,85.432 149.295,85.482C150.982,85.934 150.841,85.863 151.365,86.517C151.88,87.16 152.073,87.26 153.35,87.546C153.619,87.607 153.963,87.718 154.116,87.793C154.268,87.868 154.482,87.93 154.592,87.93C154.702,87.93 155.106,88.047 155.488,88.191C156.043,88.398 156.346,88.449 156.979,88.444C157.417,88.44 157.875,88.383 157.999,88.317C158.143,88.24 158.638,88.2 159.386,88.206L160.548,88.214L161.298,88.687C161.967,89.11 162.092,89.239 162.461,89.889C162.926,90.707 163.407,91.253 163.662,91.253C163.756,91.253 163.905,91.143 163.993,91.008C164.177,90.728 164.403,90.699 164.713,90.917C165.115,91.197 165.226,91.571 165.232,92.644C165.237,93.773 165.301,94.38 165.415,94.38C165.457,94.38 165.59,94.061 165.71,93.671C165.83,93.281 166.029,92.677 166.152,92.327C167.082,89.69 167.467,88.317 167.67,86.915C167.781,86.149 168.286,84.851 168.614,84.489C168.892,84.182 169.213,84.281 170.019,84.925C170.439,85.261 170.809,85.611 170.842,85.702C170.874,85.794 170.837,85.992 170.759,86.143C170.681,86.295 170.439,87.055 170.223,87.834C169.856,89.152 169.533,90.152 169.323,90.617C169.275,90.725 169.144,91.055 169.034,91.35C168.923,91.646 168.767,92.03 168.686,92.204C168.606,92.378 168.478,92.664 168.403,92.839C167.947,93.892 166.314,97.147 165.741,98.142C164.727,99.902 164.106,101.175 163.808,102.099C163.661,102.556 163.369,103.385 163.16,103.94C162.777,104.96 162.718,105.269 162.863,105.498C162.984,105.689 163.241,105.541 163.478,105.143C163.595,104.947 163.856,104.567 164.057,104.298C164.258,104.029 164.702,103.314 165.043,102.708C165.851,101.273 165.967,101.067 167.006,99.217C167.766,97.864 168.496,96.589 168.907,95.896C169.239,95.338 170.207,93.354 170.207,93.234C170.207,93.157 170.407,92.834 170.652,92.516C171.043,92.007 171.139,91.937 171.434,91.937C171.683,91.937 171.871,92.028 172.161,92.29C172.376,92.484 172.552,92.703 172.552,92.777C172.552,93.056 171.974,94.773 171.711,95.274C171.636,95.417 171.575,95.577 171.575,95.63C171.575,95.762 170.665,97.643 170.33,98.202C169.609,99.408 169.016,100.34 168.941,100.387C168.861,100.436 168.398,101.18 168.035,101.841C167.942,102.01 167.73,102.324 167.565,102.539C167.119,103.118 166.222,104.516 166.15,104.744C166.115,104.852 165.893,105.231 165.655,105.585C165.418,105.94 165.223,106.271 165.223,106.321C165.223,106.371 165.118,106.552 164.99,106.723C164.862,106.894 164.663,107.221 164.548,107.449C164.434,107.678 164.055,108.218 163.707,108.649C163.358,109.08 163.073,109.483 163.073,109.543C163.073,109.604 162.947,109.922 162.793,110.249C162.335,111.22 162.335,111.328 162.785,112.213C163.233,113.096 163.953,114.836 163.953,115.038C163.953,115.111 164.018,115.297 164.099,115.451C164.179,115.605 164.245,115.833 164.245,115.957C164.246,116.082 164.292,116.271 164.349,116.377C164.456,116.576 164.61,117.364 164.688,118.105C164.713,118.336 164.777,118.608 164.831,118.71C164.885,118.811 164.929,118.996 164.928,119.12C164.928,119.245 165.023,119.642 165.14,120.003L165.354,120.658L165.033,121.291L164.711,121.924L164.92,122.262L165.129,122.6L164.83,122.879C164.558,123.134 164.397,123.411 164.045,124.233C163.976,124.394 163.887,124.768 163.848,125.063C163.702,126.161 163.56,126.927 163.47,127.092C163.419,127.185 163.298,127.526 163.201,127.848C163.048,128.358 163.025,128.8 163.032,131.221C163.038,133.462 163.07,134.131 163.199,134.641C163.287,134.99 163.473,135.734 163.611,136.296C163.75,136.857 163.953,137.462 164.062,137.639C164.299,138.022 164.26,138.292 163.843,139.194C163.688,139.528 163.562,139.844 163.562,139.895C163.562,140.044 163.168,140.503 163.042,140.5C162.978,140.498 162.75,140.311 162.535,140.085L162.534,140.085ZM163.346,138.775L163.662,138.121L163.379,137.769C162.407,136.559 161.928,133.951 161.907,129.765L161.9,128.457L161.681,128.735C161.561,128.889 161.396,129.127 161.314,129.266C160.758,130.219 160.158,131.171 159.744,131.757C159.22,132.5 159.183,132.68 159.359,133.657C159.413,133.956 159.503,134.464 159.56,134.786C159.746,135.853 159.776,135.957 159.959,136.192C160.059,136.32 160.141,136.562 160.141,136.73C160.142,137.133 160.489,137.685 160.971,138.052C161.186,138.215 161.648,138.59 161.997,138.886C162.347,139.181 162.722,139.424 162.831,139.426C162.98,139.428 163.108,139.265 163.345,138.775L163.346,138.775ZM116.482,137.229C116.884,136.799 117.263,136.352 117.325,136.234C117.57,135.772 117.365,134.715 116.722,133.113C116.525,132.623 116.363,132.18 116.363,132.129C116.363,132.041 115.879,130.893 115.36,129.754C115.226,129.458 115.023,129.133 114.909,129.03C114.795,128.928 114.702,128.783 114.702,128.708C114.702,128.486 114.241,128.093 113.981,128.093C113.717,128.093 113.315,128.515 113.391,128.713C113.416,128.778 113.345,129.094 113.233,129.415C112.88,130.425 112.815,132.596 113.127,132.909C113.243,133.024 113.432,132.452 113.432,131.988C113.432,131.782 113.475,131.426 113.528,131.197C113.582,130.968 113.66,130.604 113.703,130.39C113.803,129.89 114.116,129.775 114.116,130.238C114.116,130.405 114.243,130.793 114.398,131.1C114.559,131.42 114.746,132.036 114.835,132.539C114.921,133.023 115.058,133.726 115.14,134.102C115.279,134.741 115.321,135.571 115.231,135.912C115.205,136.012 115.06,136.064 114.79,136.071C114.434,136.08 114.366,136.044 114.198,135.76C113.813,135.107 113.484,135.259 113.58,136.046C113.673,136.822 114.479,137.759 115.056,137.764C115.225,137.765 115.418,137.834 115.486,137.917C115.555,137.999 115.642,138.054 115.681,138.039C115.72,138.024 116.08,137.659 116.482,137.229L116.482,137.229ZM112.161,136.805C112.161,136.76 112.078,136.397 111.977,135.999C111.659,134.756 111.534,132.245 111.717,130.78C111.82,129.956 111.738,129.894 111.151,130.356C110.874,130.574 110.609,130.818 110.563,130.898C110.517,130.978 110.306,131.2 110.093,131.392L109.707,131.742L109.729,132.922C109.749,134.039 109.942,135.153 110.202,135.666C110.256,135.773 110.342,135.976 110.393,136.116C110.462,136.309 110.612,136.413 111.006,136.541C111.292,136.635 111.592,136.749 111.673,136.796C111.861,136.906 112.161,136.912 112.161,136.805L112.161,136.805ZM156.33,129.891C158.202,128.265 158.58,127.755 158.635,126.783C158.656,126.42 158.86,125.713 159.461,123.928C159.609,123.49 159.707,123.023 159.68,122.883C159.648,122.717 159.709,122.523 159.859,122.313C160.071,122.015 160.084,121.912 160.066,120.719C160.056,120.018 160.019,119.126 159.985,118.736C159.933,118.143 159.894,118.028 159.748,118.028C159.617,118.028 159.554,118.135 159.502,118.443C159.464,118.671 159.35,119.011 159.249,119.198C159.149,119.386 159.066,119.601 159.066,119.675C159.066,119.824 158.513,121.281 158.134,122.132C158.002,122.427 157.854,122.911 157.806,123.207C157.758,123.502 157.646,123.986 157.558,124.282C157.469,124.577 157.359,124.951 157.313,125.112C157.02,126.135 156.442,127.563 156.009,128.337C155.949,128.445 155.83,128.664 155.745,128.826C155.66,128.987 155.427,129.36 155.228,129.655C154.832,130.239 154.771,130.571 155.033,130.718C155.247,130.838 155.225,130.852 156.33,129.891L156.33,129.891ZM153.922,130.332C154.037,130.139 154.246,129.809 154.386,129.599C154.525,129.389 154.829,128.865 155.06,128.435C155.6,127.431 155.596,127.439 155.793,126.92C155.884,126.678 155.999,126.404 156.047,126.311C156.182,126.05 156.152,125.831 155.964,125.693C155.842,125.603 155.793,125.432 155.793,125.095L155.793,124.624L154.913,124.563C153.834,124.489 153.58,124.409 152.814,123.9C152.207,123.496 152.033,123.469 152.028,123.774C152.026,123.865 151.96,124.025 151.881,124.129C151.802,124.234 151.738,124.44 151.738,124.588C151.738,124.736 151.699,124.881 151.651,124.91C151.603,124.939 151.543,125.085 151.516,125.233C151.46,125.539 151.288,126.046 151.093,126.48C151.021,126.642 150.855,127.059 150.725,127.409C150.595,127.758 150.435,128.176 150.369,128.337C150.08,129.044 150.832,130.156 151.786,130.433C152.591,130.667 152.841,130.71 153.287,130.696C153.665,130.684 153.736,130.643 153.922,130.332L153.922,130.332ZM118.159,129.766C118.327,129.7 118.322,129.681 118.09,129.53C117.828,129.358 117.536,129.396 117.536,129.602C117.536,129.85 117.78,129.915 118.158,129.766L118.159,129.766ZM161.367,127.267C161.499,127.135 161.609,126.926 161.611,126.802C161.613,126.679 161.673,126.472 161.745,126.341C161.856,126.142 161.854,126.05 161.733,125.755C161.654,125.563 161.533,125.346 161.463,125.273C161.272,125.075 160.961,125.223 160.819,125.58C160.75,125.753 160.613,125.973 160.515,126.069C160.267,126.312 160.293,126.712 160.585,127.142C160.875,127.569 161.039,127.595 161.367,127.267L161.367,127.267ZM113.961,127.217C114.431,127.015 114.478,126.912 114.301,126.462C114.218,126.25 114.116,123.411 114.116,121.277C114.116,121.21 114.007,121.155 113.873,121.155C113.573,121.155 113.561,121.208 113.477,122.914C113.286,126.788 113.276,127.171 113.363,127.287C113.478,127.439 113.431,127.444 113.961,127.217L113.961,127.217ZM163.082,125.039C163.413,124.678 163.492,124.45 163.447,123.978C163.421,123.711 163.349,123.615 163.073,123.482C162.885,123.391 162.533,123.29 162.291,123.257C162.049,123.224 161.654,123.146 161.412,123.083C160.74,122.908 160.638,122.963 160.237,123.716C160.024,124.116 159.985,124.527 160.151,124.629C160.21,124.666 160.394,124.595 160.56,124.472C160.726,124.35 160.908,124.256 160.966,124.265C161.023,124.273 161.377,124.313 161.754,124.354L162.438,124.428L162.408,124.893C162.382,125.309 162.4,125.357 162.585,125.357C162.698,125.357 162.922,125.214 163.082,125.039L163.082,125.039ZM119.588,114.217C120.101,112.683 120.833,110.69 121.15,109.966C121.642,108.841 122.129,107.62 122.129,107.511C122.129,107.357 122.006,107.34 121.761,107.459C121.668,107.504 121.393,107.637 121.152,107.754C120.616,108.013 120.372,108.372 120.079,109.331C119.956,109.734 119.825,110.108 119.787,110.161C119.749,110.215 119.662,110.523 119.594,110.845C119.525,111.168 119.393,111.674 119.299,111.969C119.205,112.265 119.05,112.77 118.955,113.093C118.859,113.415 118.72,113.818 118.647,113.987C118.573,114.157 118.513,114.407 118.513,114.543C118.513,114.68 118.469,114.819 118.415,114.852C118.229,114.967 118.319,115.306 118.634,115.682C118.808,115.889 118.958,116.051 118.967,116.042C118.976,116.032 119.255,115.211 119.588,114.217L119.588,114.217ZM140.891,113.337C140.785,113.139 140.5,113.064 140.5,113.235C140.5,113.329 140.777,113.524 140.919,113.53C140.961,113.532 140.948,113.445 140.891,113.337L140.891,113.337ZM127.112,110.893C127.24,110.809 127.241,110.785 127.117,110.705C126.947,110.596 126.82,110.658 126.82,110.851C126.82,111.015 126.907,111.028 127.113,110.893L127.112,110.893ZM152.4,108.586C152.6,108.499 152.891,108.399 153.047,108.364C153.577,108.245 153.581,108.05 153.066,107.283C152.53,106.484 152.526,106.245 153.051,106.33C153.446,106.395 153.496,106.312 153.498,105.585C153.502,104.442 154.068,101.904 154.766,99.901C154.934,99.417 155.107,98.89 155.149,98.728C155.243,98.371 155.931,96.83 156.088,96.627C156.15,96.547 156.26,96.33 156.333,96.146C156.637,95.379 158.36,93.375 159,93.044C159.156,92.964 159.383,92.923 159.505,92.954C159.777,93.022 160.099,92.785 160.478,92.237C160.792,91.785 161.118,91.7 161.118,92.071C161.118,92.199 161.052,92.359 160.972,92.425C160.632,92.708 160.881,92.996 161.311,92.818C161.648,92.678 162.025,92.828 161.933,93.067C161.879,93.208 162.429,94.813 162.598,95.007C162.646,95.062 162.777,95.052 162.929,94.983C163.112,94.899 163.236,94.896 163.378,94.972C163.635,95.11 163.576,95.251 163.167,95.47C162.769,95.684 162.698,95.832 162.687,96.481C162.682,96.749 162.612,97.254 162.53,97.602C162.448,97.951 162.342,98.83 162.294,99.557C162.238,100.419 162.142,101.065 162.018,101.416C161.739,102.206 161.222,103.111 160.75,103.639C160.521,103.894 160.156,104.323 159.94,104.591C158.72,106.106 158.182,106.353 157.356,105.774C157.195,105.661 156.931,105.503 156.77,105.422C156.304,105.189 156.112,104.711 156.183,103.96C156.215,103.613 156.278,103.284 156.322,103.228C156.365,103.171 156.43,102.937 156.465,102.706C156.501,102.475 156.57,102.211 156.619,102.12C156.669,102.028 156.891,101.573 157.113,101.108C157.352,100.608 157.676,100.109 157.907,99.886C158.46,99.352 159.031,98.452 159.103,98.002C159.175,97.551 159.413,97.427 159.822,97.626C160.067,97.746 160.091,97.804 160.08,98.253C160.073,98.539 159.996,98.856 159.898,99.007C159.76,99.217 159.751,99.295 159.849,99.413C159.915,99.493 160.026,99.559 160.094,99.559C160.329,99.559 160.334,99.842 160.101,99.971C159.976,100.04 159.693,100.196 159.471,100.318C158.734,100.723 157.927,101.966 157.693,103.058C157.544,103.753 157.605,104.483 157.815,104.523C158.199,104.596 160.337,102.838 160.337,102.45C160.337,102.386 160.441,102.116 160.569,101.85C160.82,101.327 161.428,99.652 161.597,99.021C161.85,98.076 162.004,94.964 161.809,94.73C161.753,94.662 161.64,94.415 161.557,94.181C161.347,93.585 161.154,93.402 160.737,93.404C159.987,93.406 158.915,94.311 158.077,95.65C157.577,96.45 156.651,98.387 156.519,98.909C156.456,99.161 156.365,99.391 156.318,99.42C156.271,99.449 156.233,99.533 156.233,99.607C156.233,99.681 156.181,99.865 156.118,100.017C155.845,100.671 155.267,103.387 155.093,104.836C154.886,106.564 154.885,107.534 155.089,108.001L155.256,108.38L155.8,108.317C156.512,108.233 157.209,107.871 157.992,107.179C158.342,106.87 158.956,106.394 159.356,106.121C160.561,105.302 161.943,103.478 162.496,101.978C162.948,100.753 163.023,100.561 163.439,99.559C163.652,99.048 163.857,98.455 163.897,98.24C163.936,98.025 164.072,97.492 164.198,97.055C164.419,96.288 164.681,94.045 164.679,92.933C164.678,92.375 164.573,92.234 164.154,92.232C163.925,92.23 163.651,92.157 162.826,91.876C162.61,91.803 162.193,91.561 161.898,91.34C161.15,90.778 160.369,90.404 159.378,90.132C158.911,90.004 158.105,89.78 157.587,89.635C157.057,89.486 156.543,89.395 156.412,89.428C155.648,89.62 154.195,91.032 153.253,92.499C152.312,93.965 152.331,93.889 152.75,94.46C152.946,94.726 153.105,95.012 153.105,95.096C153.105,95.181 152.951,95.367 152.763,95.51C152.575,95.654 152.42,95.843 152.418,95.931C152.414,96.129 152.054,96.869 151.762,97.278C151.641,97.447 151.542,97.646 151.542,97.72C151.542,98.011 151.245,98.277 150.887,98.307C150.531,98.337 150.527,98.343 150.277,99.119C149.561,101.342 148.924,104.182 148.888,105.309C148.87,105.882 148.963,106.004 149.418,106.007C149.922,106.01 151.542,107.821 151.542,108.381C151.542,108.547 151.74,108.745 151.906,108.745C151.978,108.745 152.2,108.673 152.4,108.586L152.4,108.586ZM120.293,107.694C120.955,107.14 121.693,106.911 122.143,107.12C122.271,107.179 122.356,107.08 122.558,106.638C122.971,105.737 122.949,105.715 121.625,105.715C120.796,105.715 120.73,105.73 120.478,105.984C120.185,106.278 119.545,107.716 119.639,107.868C119.74,108.031 119.96,107.973 120.293,107.694ZM144.069,105.613C144.104,105.557 144.071,105.414 143.996,105.296C143.921,105.177 143.779,104.86 143.682,104.591C143.584,104.323 143.465,104.061 143.419,104.01C143.372,103.959 143.334,103.84 143.334,103.746C143.334,103.652 143.133,103.287 142.887,102.935C142.641,102.584 142.454,102.219 142.472,102.124C142.524,101.852 142.977,101.861 143.424,102.144C143.861,102.419 144.702,103.499 144.702,103.784C144.702,103.883 144.79,104.06 144.899,104.176C145.007,104.292 145.14,104.55 145.193,104.749C145.272,105.041 145.327,105.1 145.484,105.059C145.835,104.967 146.062,104.435 146.166,103.457C146.258,102.591 146.297,102.341 146.544,101.025C146.599,100.729 146.805,99.938 147.001,99.266C147.196,98.594 147.364,97.915 147.373,97.756C147.387,97.501 147.35,97.46 147.049,97.398C146.634,97.311 146.324,96.963 146.414,96.682C146.449,96.571 146.509,96.304 146.548,96.089C146.588,95.865 146.73,95.585 146.881,95.434C147.026,95.289 147.145,95.114 147.146,95.044C147.147,94.974 147.41,94.609 147.731,94.233C148.251,93.624 148.708,92.876 148.708,92.634C148.708,92.467 148.409,92.301 147.956,92.217C146.803,92.001 145.409,91.079 145.502,90.594C145.567,90.256 145.963,90.345 146.9,90.908C147.115,91.038 147.533,91.216 147.829,91.304C148.124,91.392 148.723,91.615 149.158,91.798C150.176,92.227 150.494,92.232 150.72,91.824C150.925,91.453 151.709,90.587 152.51,89.848C152.894,89.493 152.993,89.35 152.896,89.29C152.824,89.245 152.67,89.233 152.554,89.262C152.253,89.337 151.968,89.155 151.684,88.704C151.548,88.49 151.283,88.143 151.094,87.934C150.741,87.544 150.576,87.473 148.806,86.957C148.403,86.84 147.985,86.704 147.878,86.655C147.77,86.607 147.462,86.495 147.194,86.408C146.925,86.321 146.573,86.191 146.412,86.119C145.295,85.622 143.407,85.159 142.053,85.052C141.199,84.984 140.793,85.093 140.793,85.387C140.793,85.575 140.732,85.585 139.645,85.586C138.313,85.586 137.542,85.693 137.055,85.944C136.864,86.042 136.539,86.209 136.332,86.315C135.856,86.558 134.386,88.013 134.502,88.126C134.549,88.172 134.94,88.23 135.37,88.255C136.333,88.312 137.175,88.457 137.482,88.619C138.004,88.893 138.545,89.317 138.545,89.45C138.545,89.637 138.106,89.635 137.568,89.445C137.34,89.364 136.971,89.298 136.749,89.298C136.527,89.298 136.193,89.255 136.007,89.201C135.744,89.126 135.637,89.136 135.528,89.245C135.405,89.367 135.419,89.428 135.635,89.708C135.772,89.886 136.175,90.33 136.531,90.695C137.425,91.613 137.369,91.909 136.396,91.414C135.599,91.009 135.373,90.841 135.049,90.409C134.679,89.917 134.532,89.885 134.259,90.233L134.062,90.483L133.919,90.208C133.748,89.877 133.209,89.374 132.797,89.161C132.608,89.063 132.248,89.005 131.826,89.005C131.208,89.005 131.132,89.029 130.844,89.31C130.579,89.569 130.532,89.685 130.532,90.084C130.532,90.342 130.559,90.622 130.592,90.707C130.698,90.984 131.009,90.876 131.278,90.469C131.421,90.254 131.631,90.053 131.745,90.025C132.145,89.924 132.983,90.417 132.831,90.663C132.709,90.861 132.884,91.155 133.123,91.155C133.25,91.155 133.382,91.111 133.415,91.057C133.532,90.868 133.673,90.959 133.605,91.18C133.423,91.769 131.978,93.025 131.747,92.794C131.715,92.761 131.799,92.544 131.935,92.311C132.07,92.078 132.252,91.68 132.337,91.425C132.479,91.005 132.479,90.936 132.341,90.668C132.083,90.168 131.823,90.277 131.29,91.107C130.965,91.614 130.826,91.932 130.826,92.169C130.826,92.388 130.739,92.611 130.582,92.799C130.293,93.141 130.248,93.817 130.489,94.163C130.691,94.451 130.79,94.437 131.091,94.08C131.404,93.708 131.506,93.833 131.4,94.457C131.357,94.71 131.271,95.225 131.208,95.601C131.145,95.978 131.085,96.791 131.074,97.409C131.063,98.027 131.005,99.032 130.944,99.642C130.831,100.784 130.87,101.352 131.056,101.29C131.115,101.271 131.186,101.16 131.214,101.044C131.242,100.928 131.347,100.739 131.446,100.624C131.595,100.451 131.701,100.423 132.064,100.464C132.417,100.504 132.514,100.481 132.568,100.345C132.635,100.174 133.422,99.263 134.49,98.12C135.043,97.529 135.637,97.116 135.934,97.116C136.006,97.116 136.14,97.171 136.23,97.238C136.407,97.369 136.419,97.326 135.981,98.119C135.805,98.437 135.341,99.046 134.855,99.599C134.336,100.188 134.421,100.35 135.091,100.047C135.816,99.719 136.823,99.375 136.907,99.426C137.115,99.555 136.84,99.734 135.199,100.543C133.064,101.594 132.839,101.725 132.798,101.937C132.757,102.146 132.828,102.167 134.002,102.294C134.539,102.352 135.221,102.44 135.516,102.489C135.812,102.539 136.336,102.625 136.681,102.682C138.043,102.906 139.129,103.339 141.247,104.502C141.846,104.831 142.396,105.129 142.469,105.165C142.541,105.201 142.777,105.335 142.992,105.462C143.404,105.707 143.963,105.785 144.069,105.613L144.069,105.613ZM133.765,90.707C133.77,90.593 133.793,90.57 133.824,90.648C133.852,90.719 133.849,90.803 133.816,90.835C133.783,90.868 133.76,90.81 133.765,90.707L133.765,90.707ZM126.359,105.153C126.251,104.861 126.076,104.783 125.848,104.927C125.65,105.053 125.886,105.324 126.193,105.324C126.37,105.324 126.408,105.285 126.359,105.153ZM165.727,104.037C165.887,103.866 166.086,103.591 166.17,103.426C166.356,103.059 166.861,102.256 167.541,101.245C167.821,100.828 168.173,100.274 168.322,100.013C168.472,99.752 168.781,99.279 169.009,98.962C169.238,98.645 169.425,98.334 169.425,98.272C169.425,98.209 169.485,98.088 169.559,98.003C169.795,97.733 170.689,95.952 170.978,95.177C171.609,93.487 171.751,92.93 171.606,92.723C171.421,92.46 171.215,92.568 171.14,92.967C171.106,93.15 170.976,93.421 170.851,93.571C170.65,93.813 169.929,95.109 169.396,96.188C169.29,96.403 168.784,97.348 168.272,98.289C167.76,99.229 167.232,100.218 167.099,100.487C166.967,100.756 166.764,101.108 166.648,101.269C166.446,101.551 165.809,102.816 165.809,102.935C165.809,102.967 165.633,103.201 165.418,103.456C165.018,103.93 164.932,104.195 165.149,104.282C165.376,104.374 165.437,104.348 165.727,104.037ZM162.942,103.052C162.915,102.985 162.893,103.04 162.893,103.174C162.893,103.309 162.915,103.364 162.942,103.297C162.969,103.229 162.969,103.119 162.942,103.052ZM128.226,100.87C128.258,100.785 128.285,100.6 128.285,100.459C128.285,100.301 128.412,100.069 128.615,99.856C128.939,99.516 128.943,99.5 128.867,98.924C128.647,97.249 128.935,95.07 129.63,93.158C129.821,92.633 129.813,92.328 129.609,92.328C129.539,92.328 129.424,92.259 129.354,92.174C129.249,92.047 129.254,91.933 129.387,91.514C129.475,91.236 129.566,90.877 129.589,90.715C129.633,90.406 129.818,89.839 129.956,89.592C130.001,89.511 130.125,89.258 130.231,89.029C130.34,88.795 130.524,88.576 130.653,88.527C130.779,88.479 130.968,88.278 131.073,88.081C131.179,87.884 131.411,87.632 131.589,87.521C131.862,87.352 132.005,87.331 132.494,87.386C132.968,87.44 133.086,87.424 133.133,87.302C133.165,87.22 133.351,87.055 133.547,86.936C133.743,86.817 133.926,86.692 133.953,86.66C133.98,86.627 134.22,86.435 134.486,86.234C134.753,86.033 135.026,85.738 135.093,85.579C135.16,85.42 135.324,85.249 135.457,85.198C135.781,85.075 136.884,84.318 136.884,84.22C136.884,83.993 136.014,83.746 134.441,83.527C134.038,83.47 133.553,83.39 133.362,83.347C133.041,83.275 131.899,83.361 131.505,83.486C131.41,83.516 131.263,83.715 131.178,83.928C131.045,84.26 130.981,84.315 130.726,84.315C130.018,84.315 129.011,85.039 127.601,86.564C125.808,88.502 124.655,90.711 123.954,93.549C123.65,94.781 123.677,96.289 124.029,97.807C124.262,98.813 124.416,99.025 125.091,99.277C125.424,99.4 125.876,99.629 126.097,99.784C126.318,99.939 126.736,100.143 127.026,100.236C127.406,100.359 127.606,100.491 127.748,100.712C127.963,101.049 128.135,101.106 128.226,100.87ZM149.075,99.925C149.128,99.858 149.195,99.671 149.222,99.51C149.28,99.171 149.438,98.708 149.698,98.115C149.798,97.885 149.881,97.608 149.881,97.499C149.881,97.271 150.143,96.725 150.253,96.725C150.293,96.725 150.376,96.857 150.437,97.018C150.607,97.469 150.86,97.393 151.272,96.768C151.468,96.47 151.608,96.169 151.581,96.1C151.555,96.031 151.601,95.918 151.684,95.849C151.876,95.69 151.875,95.468 151.681,95.078C151.585,94.885 151.55,94.663 151.589,94.486C151.639,94.261 151.606,94.172 151.428,94.047C151.306,93.961 151.081,93.891 150.929,93.891C150.562,93.891 150.143,93.665 149.942,93.359C149.685,92.966 149.329,93.028 148.78,93.562C148.524,93.811 148.29,94.13 148.259,94.271C148.155,94.75 147.988,95.112 147.713,95.453C147.562,95.639 147.438,95.841 147.438,95.902C147.438,96.078 147.77,96.327 148.091,96.392C148.371,96.447 148.409,96.418 148.688,95.929C148.852,95.641 149.018,95.281 149.055,95.129C149.145,94.771 149.356,94.697 149.71,94.9C149.866,94.99 150.15,95.064 150.339,95.064C150.629,95.064 150.672,95.091 150.613,95.235C150.574,95.329 150.54,95.472 150.539,95.552C150.537,95.633 150.479,95.783 150.409,95.885C150.287,96.063 150.276,96.059 150.163,95.812C150.029,95.517 149.903,95.49 149.631,95.696C149.527,95.775 149.369,95.841 149.281,95.842C149.194,95.844 149.059,95.944 148.982,96.065C148.719,96.48 148.397,97.52 148.457,97.76C148.494,97.906 148.442,98.143 148.319,98.383C148.057,98.897 148.071,99.242 148.37,99.683C148.621,100.052 148.898,100.148 149.075,99.925L149.075,99.925ZM164.681,99.077C164.712,99.027 164.693,98.958 164.638,98.925C164.583,98.891 164.539,98.932 164.539,99.016C164.539,99.187 164.597,99.213 164.681,99.077L164.681,99.077ZM167.546,93.232C167.648,93.084 167.875,92.611 168.05,92.181C168.224,91.751 168.473,91.171 168.603,90.892C168.732,90.614 168.838,90.334 168.838,90.272C168.838,90.21 168.898,90.02 168.972,89.851C169.045,89.681 169.246,89.059 169.419,88.468C169.591,87.877 169.801,87.155 169.885,86.864C169.97,86.573 170.095,86.226 170.164,86.094C170.233,85.962 170.266,85.794 170.238,85.722C170.159,85.516 169.232,84.886 169.058,84.92C168.78,84.974 168.175,86.41 168.016,87.393C167.872,88.279 167.513,89.702 167.079,91.106C166.557,92.795 166.452,93.198 166.517,93.264C166.57,93.316 167.03,93.451 167.293,93.49C167.329,93.496 167.443,93.379 167.546,93.232L167.546,93.232ZM136.951,131.412C136.651,130.983 136.741,130.446 137.678,127.067C138.104,125.53 138.829,123.407 139.054,123.035C139.259,122.695 139.425,122.695 139.425,123.035C139.425,123.23 139.181,124.25 139.056,124.575C139.026,124.655 138.945,124.941 138.878,125.21C138.764,125.663 138.28,127.398 138.046,128.19C137.99,128.379 137.888,128.818 137.819,129.168C137.749,129.517 137.642,129.927 137.581,130.078C137.52,130.229 137.467,130.471 137.463,130.615C137.459,130.76 137.38,131.051 137.286,131.262L137.116,131.647L136.951,131.412ZM144.995,125.385C144.554,125.224 144.255,124.682 144.517,124.52C144.804,124.342 146.091,125.086 145.934,125.339C145.862,125.455 145.266,125.485 144.995,125.385L144.995,125.385ZM145.983,124.154C145.564,124.007 145.32,123.677 145.512,123.517C145.611,123.435 145.76,123.47 146.125,123.662C146.718,123.974 146.672,123.93 146.599,124.121C146.527,124.308 146.434,124.313 145.983,124.154ZM146.173,122.742C145.88,122.594 145.625,122.423 145.606,122.36C145.547,122.171 145.962,122.103 146.205,122.262C146.328,122.342 146.63,122.439 146.878,122.476C147.335,122.544 147.56,122.776 147.319,122.929C147.09,123.074 146.711,123.012 146.173,122.742L146.173,122.742ZM130.075,121.355C129.652,121.098 129.555,120.879 129.555,120.187C129.555,119.043 130.174,118.153 131.053,118.032C131.417,117.982 131.446,117.952 131.586,117.49C132.262,115.254 132.519,114.697 132.981,114.458C133.252,114.318 133.268,114.324 133.533,114.655C133.893,115.105 133.949,115.366 133.776,115.78C133.505,116.426 133.475,116.514 133.41,116.855C133.373,117.043 133.311,117.241 133.272,117.295C133.232,117.349 133.12,117.621 133.022,117.899L132.844,118.406L133.203,118.803C133.4,119.022 133.562,119.294 133.562,119.409C133.562,119.716 133.039,120.574 132.632,120.934C131.979,121.512 130.682,121.726 130.075,121.355ZM131.595,120.624C131.989,120.42 132.61,119.701 132.543,119.526C132.512,119.446 132.487,119.341 132.487,119.295C132.487,119.184 131.843,119.006 131.442,119.005C130.79,119.004 130.351,119.799 130.62,120.495C130.701,120.708 130.786,120.764 131.024,120.764C131.189,120.764 131.446,120.701 131.595,120.624L131.595,120.624ZM146.596,120.817C146.511,120.598 146.641,120.471 146.949,120.471C147.321,120.471 147.396,120.616 147.125,120.806C146.851,120.997 146.666,121.001 146.596,120.817L146.596,120.817ZM142.455,118.859C142.303,118.676 142.386,118.074 142.688,117.175C142.881,116.602 142.945,116.509 143.168,116.482C143.375,116.458 143.437,116.501 143.488,116.706C143.524,116.846 143.505,117.146 143.447,117.372C143.389,117.598 143.316,117.917 143.285,118.081C143.211,118.475 142.882,119.005 142.712,119.005C142.637,119.005 142.521,118.939 142.455,118.859L142.455,118.859Z" style="fill:white;fill-rule:nonzero;"/>
    </g>
</svg>
