<?xml version="1.0" encoding="UTF-8" standalone="no"?>
<!DOCTYPE svg PUBLIC "-//W3C//DTD SVG 1.1//EN" "http://www.w3.org/Graphics/SVG/1.1/DTD/svg11.dtd">
<svg width="100%" height="100%" viewBox="0 0 401 401" version="1.1" xmlns="http://www.w3.org/2000/svg" xmlns:xlink="http://www.w3.org/1999/xlink" xml:space="preserve" xmlns:serif="http://www.serif.com/" style="fill-rule:evenodd;clip-rule:evenodd;stroke-linejoin:round;stroke-miterlimit:2;">
    <g id="g1" transform="matrix(3.77953,0,0,3.77953,-386.471,-647.125)">
        <path id="path1" d="M150.117,276.882C150.039,276.755 148.067,276.565 145.735,276.459C143.404,276.353 141.43,276.159 141.349,276.028C141.267,275.897 140.914,275.789 140.563,275.789C139.963,275.789 138.384,275.046 137.551,274.372C137.346,274.205 136.961,273.58 136.696,272.982C136.22,271.91 135.769,271.624 133.427,270.908C133.136,270.819 132.565,270.307 132.159,269.771C131.547,268.963 131.43,268.564 131.475,267.443C131.505,266.699 131.452,265.965 131.358,265.812C131.26,265.653 130.699,265.589 130.047,265.663C129.207,265.758 128.816,265.68 128.556,265.366C128.362,265.132 127.869,264.941 127.462,264.941C126.326,264.941 125.142,263.612 125.042,262.224L124.96,261.105L122.189,261.029C119.803,260.963 119.335,260.876 118.828,260.399C118.245,259.851 118.243,259.834 118.718,258.887C118.982,258.361 119.266,257.236 119.35,256.388C119.434,255.54 119.689,254.562 119.916,254.214C120.144,253.867 120.33,253.347 120.33,253.06C120.33,252.772 120.436,252.472 120.565,252.392C120.694,252.312 120.88,251.815 120.979,251.288C121.119,250.543 121.047,250.202 120.654,249.763C119.978,249.007 116.806,243.138 115.988,241.129C115.899,240.91 115.598,240.375 115.32,239.938C115.041,239.501 114.804,238.872 114.793,238.538C114.783,238.205 114.531,237.604 114.234,237.202C113.938,236.801 113.46,235.466 113.172,234.237C112.885,233.007 112.532,231.794 112.389,231.541C112.245,231.288 112.128,230.562 112.128,229.926C112.128,228.705 111.086,225.485 110.455,224.759C109.908,224.129 109.689,222.079 110.169,222.079C110.589,222.079 110.665,221.519 110.296,221.139C110.162,221.001 109.978,218.388 109.888,215.332C109.798,212.276 109.592,209.329 109.429,208.783C109.209,208.048 109.211,207.62 109.434,207.131C109.634,206.692 109.651,206.251 109.486,205.817C109.35,205.458 109.339,205.102 109.461,205.026C109.584,204.95 109.767,204.202 109.868,203.363C109.969,202.524 110.221,201.328 110.428,200.704C110.636,200.081 110.805,199.232 110.805,198.818C110.805,198.405 110.984,197.918 111.202,197.737C111.42,197.556 111.599,197.193 111.599,196.93C111.599,196.667 111.748,196.295 111.93,196.102C112.949,195.025 113.844,193.32 113.971,192.216C114.099,191.109 114.185,190.982 114.856,190.905C115.37,190.846 115.82,190.501 116.311,189.79C116.703,189.224 117.148,188.757 117.302,188.751C117.455,188.745 117.991,188.313 118.492,187.79C118.994,187.267 119.893,186.499 120.49,186.084L121.576,185.329L122.409,186.189L123.242,187.048L122.369,187.895C121.889,188.36 121.375,188.741 121.227,188.741C120.914,188.741 119.388,190.276 119.556,190.422C119.618,190.476 120.182,190.586 120.809,190.666C121.94,190.81 121.948,190.805 121.79,190.085C121.655,189.468 121.81,189.193 122.821,188.261C123.645,187.502 124.342,187.111 125.081,186.993C125.877,186.865 126.399,186.546 127.122,185.746C128.229,184.521 127.949,184.171 126.553,185.034C126.046,185.347 125.523,185.536 125.39,185.454C125.257,185.372 125.102,184.816 125.045,184.219C124.946,183.184 124.999,183.093 126.142,182.314C126.802,181.864 127.381,181.4 127.43,181.282C127.478,181.164 127.925,181.068 128.422,181.068C129.15,181.068 129.326,180.965 129.326,180.539L135.633,177.506C136.765,177.303 141.242,175.824 141.629,175.525C141.775,175.412 142.221,175.242 142.621,175.147C143.581,174.917 143.561,175.333 142.555,176.478C141.613,177.552 141.57,177.959 142.327,178.664C142.847,179.149 142.955,179.16 143.65,178.8C144.067,178.585 144.407,178.315 144.407,178.2C144.407,177.871 147.337,176.617 148.508,176.444C149.09,176.359 150.102,176.162 150.757,176.008C151.878,175.743 153.753,175.875 157.122,176.454C157.807,176.572 158.157,176.502 158.411,176.196C158.603,175.966 158.928,175.777 159.133,175.777C159.339,175.777 159.801,175.584 160.159,175.349C160.924,174.848 161.025,173.805 160.378,173.09C159.817,172.47 160.326,171.742 161.172,171.954C161.483,172.032 161.972,171.924 162.259,171.714L165.574,171.218L166.461,171.639C167.305,172.04 167.356,172.146 167.513,173.821C167.603,174.79 167.829,175.928 168.015,176.351C168.35,177.116 169.259,177.571 169.792,177.241C169.953,177.142 170.072,177.291 170.072,177.592C170.072,177.956 170.308,178.168 170.843,178.285C171.268,178.378 171.681,178.626 171.761,178.835C171.873,179.128 172.462,179.216 174.297,179.216C176.155,179.216 176.686,179.298 176.686,179.582C176.686,179.783 176.925,180.01 177.216,180.087C177.51,180.163 177.745,180.447 177.745,180.726C177.745,181.002 177.872,181.355 178.028,181.51C178.23,181.712 178.111,181.952 177.616,182.341C176.953,182.862 176.936,182.94 177.242,183.963C177.534,184.938 177.755,185.161 178.34,185.068C178.449,185.051 178.539,185.216 178.539,185.434C178.539,185.652 178.703,185.831 178.905,185.831C179.106,185.831 179.333,186.069 179.409,186.36C179.485,186.651 179.737,186.889 179.969,186.889C180.201,186.889 180.391,187.068 180.391,187.286C180.391,187.563 180.67,187.683 181.317,187.683C181.879,187.683 182.244,187.813 182.246,188.014C182.251,188.443 184.906,189.286 185.644,189.092C185.974,189.006 186.211,189.068 186.211,189.239C186.211,189.402 186.39,189.535 186.608,189.535C186.885,189.535 187.005,189.814 187.005,190.461C187.005,191.075 187.129,191.387 187.373,191.387C187.583,191.387 187.814,191.783 187.914,192.313C188.009,192.822 188.188,193.239 188.311,193.239C188.433,193.239 188.615,193.686 188.715,194.231C188.815,194.777 189.133,195.63 189.422,196.126C189.885,196.92 189.927,197.31 189.767,199.352C189.642,200.946 189.471,201.718 189.221,201.814C188.685,202.02 188.696,206.733 189.233,206.733C189.44,206.733 189.687,207.086 189.781,207.518C189.921,208.153 190.128,208.336 190.861,208.474C191.377,208.57 191.768,208.802 191.768,209.011C191.768,209.28 192.158,209.379 193.223,209.379C194.34,209.379 194.678,209.286 194.678,208.982C194.678,208.66 195.104,208.585 196.927,208.585C198.703,208.585 199.176,208.665 199.176,208.964C199.176,209.172 199.414,209.419 199.705,209.511C199.996,209.603 200.234,209.849 200.234,210.058C200.234,210.266 200.398,210.437 200.598,210.437C201.021,210.437 201.332,211.687 201.115,212.514C201.033,212.827 200.802,213.083 200.6,213.083C200.399,213.083 200.234,213.307 200.234,213.581C200.234,213.857 199.998,214.141 199.705,214.218C199.414,214.294 199.176,214.546 199.176,214.778C199.176,215.01 198.997,215.2 198.779,215.2C198.561,215.2 198.382,215.364 198.382,215.566C198.382,215.767 198.144,215.994 197.853,216.07C197.562,216.146 197.324,216.398 197.324,216.63C197.324,216.862 197.161,217.052 196.961,217.052C196.716,217.052 196.543,217.545 196.426,218.576C196.225,220.351 196.453,221.814 196.931,221.814C197.115,221.814 197.343,222.231 197.439,222.74C197.543,223.294 197.767,223.666 197.997,223.666C198.298,223.666 198.382,224.074 198.382,225.518C198.382,227.194 198.332,227.37 197.853,227.37C197.5,227.37 197.324,227.547 197.324,227.9C197.324,228.194 197.148,228.429 196.927,228.429C196.709,228.429 196.53,228.607 196.53,228.826C196.53,229.046 196.295,229.222 196.001,229.222C195.648,229.222 195.472,229.399 195.472,229.752C195.472,230.043 195.307,230.281 195.104,230.281C194.894,230.281 194.663,230.676 194.563,231.207C194.459,231.761 194.235,232.133 194.005,232.133C193.793,232.133 193.62,232.298 193.62,232.5C193.62,232.711 193.224,232.942 192.694,233.041C192.104,233.152 191.768,233.366 191.768,233.629C191.768,233.952 191.55,234.016 190.776,233.923C189.654,233.787 188.593,234.159 188.593,234.689C188.593,234.884 188.414,235.043 188.196,235.043C187.978,235.043 187.799,235.222 187.799,235.44C187.799,235.707 187.532,235.837 186.98,235.837C186.384,235.837 186.124,235.981 186.024,236.366C185.947,236.657 185.731,236.895 185.543,236.895C185.294,236.895 185.217,236.441 185.256,235.22C185.306,233.694 185.388,233.474 186.173,232.772C186.867,232.15 187.086,231.692 187.298,230.413C187.442,229.54 187.644,228.329 187.746,227.722C187.872,226.973 188.165,226.436 188.659,226.05C189.26,225.579 189.386,225.273 189.386,224.292C189.386,223.116 188.88,221.135 188.168,219.525C187.965,219.067 187.799,218.45 187.799,218.155C187.799,217.86 187.62,217.44 187.402,217.222C187.184,217.003 187.005,216.602 187.005,216.33C187.005,216.057 186.907,215.721 186.787,215.583C186.666,215.445 186.414,214.796 186.227,214.141C186.039,213.486 185.788,212.653 185.669,212.289C185.55,211.925 185.397,210.318 185.33,208.717C185.244,206.682 185.047,205.39 184.674,204.42C184.382,203.657 184.062,202.557 183.963,201.974C183.865,201.391 183.675,200.848 183.543,200.765C183.41,200.683 183.301,200.433 183.301,200.209C183.301,199.809 182.691,198.254 182.228,197.472C182.099,197.254 181.8,196.694 181.564,196.228C181.328,195.762 180.968,195.241 180.763,195.071C180.558,194.901 180.391,194.64 180.391,194.491C180.391,194.342 179.856,193.612 179.202,192.87C177.495,190.929 177.124,190.569 175.773,189.535C175.107,189.026 174.047,188.184 173.416,187.665C172.785,187.147 171.864,186.57 171.369,186.384C170.874,186.198 169.992,185.865 169.41,185.645C168.828,185.425 167.816,184.983 167.161,184.662C166.507,184.342 165.435,183.93 164.78,183.747C164.125,183.564 163.224,183.303 162.777,183.167C162.33,183.031 161.471,182.92 160.868,182.92C160.265,182.92 159.259,182.746 158.632,182.533C158.005,182.321 156.033,182.082 154.25,182.002C151.352,181.873 150.898,181.915 149.965,182.391C149.391,182.683 148.293,183.09 147.524,183.294C146.756,183.498 145.038,184.033 143.707,184.483C142.376,184.933 140.94,185.302 140.516,185.302C140.093,185.302 138.741,185.662 137.513,186.102C135.22,186.924 134.937,187.035 133.22,187.778C132.669,188.017 131.983,188.212 131.695,188.212C130.87,188.212 130.487,188.459 126.418,191.606C125.98,191.944 125.622,192.348 125.622,192.502C125.622,192.783 122.756,196.203 122.381,196.37C122.272,196.419 122.182,196.607 122.182,196.79C122.182,196.972 121.734,197.528 121.187,198.024C120.639,198.521 119.95,199.264 119.655,199.675C119.16,200.363 119.061,200.396 118.393,200.092C117.765,199.805 117.574,199.832 116.949,200.298C116.207,200.85 116.09,201.31 115.664,205.383C115.581,206.169 115.288,207.215 115.012,207.707C114.735,208.199 114.509,208.812 114.509,209.069C114.509,209.327 114.38,209.667 114.221,209.826C113.638,210.409 114.399,215.633 115.2,216.543C115.402,216.773 115.568,217.098 115.568,217.265C115.568,217.432 115.847,217.751 116.187,217.975C116.528,218.198 117.102,219.004 117.463,219.767C117.824,220.529 118.625,222.212 119.243,223.507C119.914,224.916 120.259,225.928 120.1,226.026C119.324,226.506 118.916,228.72 118.902,232.53C118.891,235.78 119.248,236.967 120.281,237.114C121.511,237.289 121.666,236.829 121.554,233.355C121.497,231.592 121.503,230.592 121.567,231.133C121.71,232.346 122.683,233.191 123.938,233.191C125.071,233.191 125.058,233.435 123.882,234.196C122.694,234.966 122.701,235.97 123.897,236.63C124.485,236.954 124.74,237.338 124.898,238.132C125.049,238.9 125.295,239.284 125.774,239.502C126.691,239.92 126.778,239.901 127.57,239.108C128.161,238.518 128.268,238.179 128.268,236.903C128.268,236.074 128.334,235.33 128.415,235.248C128.497,235.167 128.916,235.234 129.347,235.397C129.938,235.62 130.257,235.614 130.642,235.373C130.956,235.178 131.214,235.152 131.31,235.308C131.527,235.658 130.971,236.631 130.553,236.631C130.366,236.631 129.939,236.921 129.605,237.276L128.999,237.922L129.583,239.129C129.904,239.792 130.305,240.335 130.474,240.335C130.643,240.336 131.229,240.812 131.777,241.394C132.324,241.976 132.99,242.452 133.257,242.452C133.838,242.452 134.618,241.653 134.618,241.057C134.618,240.823 134.737,240.557 134.882,240.467C135.219,240.259 135.229,238.142 134.896,237.808C134.758,237.67 134.561,237.036 134.46,236.399L134.275,235.241L135.174,235.367C135.981,235.481 138.07,235.973 139.116,236.297C139.412,236.388 139.365,236.476 138.928,236.645C138.209,236.922 136.999,239.234 136.999,240.33C136.999,240.773 136.856,241.365 136.681,241.645C136.27,242.303 136.706,243.222 138.165,244.767C138.986,245.637 139.418,245.891 140.078,245.891C140.74,245.891 141.652,245.42 141.776,245.012C142.065,244.064 142.422,240.348 142.254,240.022C142.129,239.777 142.026,239.041 142.026,238.388L142.026,237.199L143.664,237.841C144.565,238.194 145.397,238.632 145.512,238.814C145.815,239.29 145.779,241.597 145.466,241.79C145.32,241.88 145.201,242.62 145.201,243.434C145.201,245.464 146.085,246.685 147.555,246.685C148.61,246.685 149.434,246.074 149.434,245.291C149.434,245.056 149.553,244.791 149.699,244.701C149.844,244.611 149.963,243.539 149.963,242.319C149.963,241.1 150.06,240.042 150.178,239.969C150.485,239.779 152.885,241.206 153.659,242.039C154.412,242.848 154.191,243.549 153.11,243.775C152.762,243.847 152.249,244.042 151.969,244.207C151.512,244.477 151.496,244.59 151.808,245.345C152.093,246.031 152.093,246.298 151.813,246.822C151.538,247.337 151.536,247.539 151.805,247.863C151.989,248.085 152.076,248.432 151.998,248.635C151.781,249.2 152.344,251.1 152.869,251.576C153.127,251.809 153.772,252.07 154.302,252.156C155.615,252.369 156.087,251.879 156.834,249.528C157.169,248.474 157.614,247.219 157.822,246.74C158.221,245.824 158.071,243.117 157.606,242.829C157.477,242.75 157.372,242.49 157.372,242.251C157.372,241.913 157.443,241.887 157.689,242.134C157.864,242.309 158.289,242.452 158.633,242.452C158.977,242.452 159.491,242.576 159.774,242.728C160.058,242.879 160.705,242.926 161.212,242.83C161.92,242.698 162.136,242.526 162.143,242.091C162.151,241.568 162.724,239.791 163.391,238.218C164.077,236.604 167.098,234.514 168.746,234.514C169.576,234.514 169.876,234.368 170.319,233.746C170.619,233.323 170.866,232.85 170.866,232.694C170.866,232.321 172.396,231.537 172.726,231.741C172.867,231.828 172.982,232.112 172.982,232.372C172.982,232.849 173.456,233.338 174.448,233.886C174.745,234.05 176.544,234.271 178.445,234.377C182.254,234.589 182.819,234.746 182.245,235.437C181.433,236.416 180.45,236.672 178.248,236.48C176.435,236.322 176.071,236.362 175.621,236.769C174.268,237.994 175.566,239.531 177.979,239.558C179.134,239.571 179.333,239.628 178.872,239.813C177.973,240.174 175.893,242.368 175.893,242.954C175.893,243.359 177.11,244.304 177.632,244.304C177.67,244.304 178.329,243.768 179.097,243.113C179.864,242.458 180.61,241.922 180.755,241.922C180.9,241.922 181.294,241.664 181.63,241.347L182.243,240.772L182.243,241.612C182.243,242.182 182.115,242.452 181.846,242.452C181.517,242.452 181.449,242.951 181.449,245.362C181.449,247.64 181.527,248.272 181.809,248.272C182.223,248.272 182.503,250.094 182.501,252.77C182.499,254.874 182.303,255.681 181.79,255.681C181.575,255.681 181.337,255.919 181.261,256.21C181.185,256.501 180.958,256.739 180.757,256.739C180.555,256.739 180.391,256.918 180.391,257.136C180.391,257.357 180.156,257.533 179.862,257.533C179.509,257.533 179.332,257.709 179.332,258.062C179.332,258.356 179.156,258.591 178.935,258.591C178.717,258.591 178.539,258.77 178.539,258.988C178.539,259.209 178.303,259.385 178.009,259.385C177.657,259.385 177.48,259.561 177.48,259.914C177.48,260.205 177.348,260.443 177.187,260.443C176.81,260.443 175.639,261.548 175.633,261.91C175.628,262.197 173.627,262.825 172.714,262.825C172.425,262.825 172.189,262.944 172.189,263.089C172.189,263.235 172.308,263.354 172.453,263.354C172.599,263.354 172.718,263.519 172.718,263.721C172.718,263.932 172.322,264.163 171.792,264.262C171.237,264.366 170.866,264.591 170.866,264.821C170.866,265.084 170.574,265.206 169.94,265.206C169.328,265.206 169.014,265.33 169.014,265.572C169.014,265.773 168.775,266 168.484,266.076C168.193,266.152 167.955,266.404 167.955,266.636C167.955,266.928 167.711,267.058 167.162,267.058C166.612,267.058 166.368,267.187 166.368,267.48C166.368,267.711 166.13,267.963 165.839,268.04C165.548,268.116 165.309,268.329 165.309,268.513C165.309,268.697 165.071,268.911 164.78,268.987C164.489,269.063 164.251,269.315 164.251,269.547C164.251,270.055 163.033,270.134 162.852,269.638C162.773,269.422 162.417,269.605 161.825,270.167C161.326,270.64 160.822,271.027 160.705,271.027C160.587,271.027 160.057,271.354 159.527,271.754C158.24,272.725 156.985,273.408 156.487,273.408C156.263,273.408 155.58,274.002 154.968,274.727C154.356,275.453 153.449,276.287 152.953,276.58C152.033,277.122 150.375,277.299 150.117,276.882ZM151.816,271.291C151.816,271.146 151.637,271.027 151.419,271.027C151.2,271.027 151.022,271.146 151.022,271.291C151.022,271.437 151.2,271.556 151.419,271.556C151.637,271.556 151.816,271.437 151.816,271.291ZM160.5,266.969C161.315,266.789 162.018,266.463 162.167,266.197C162.309,265.943 162.615,265.735 162.846,265.735C163.354,265.735 163.966,264.984 163.978,264.346C163.983,264.091 163.941,263.883 163.886,263.883C163.405,263.883 161.857,264.786 161.254,265.419C160.78,265.915 160.327,266.157 160.02,266.077C159.522,265.947 157.901,266.961 157.901,267.403C157.901,267.538 158.169,267.566 158.496,267.464C158.824,267.362 159.725,267.139 160.5,266.969ZM149.075,265.959C149.511,265.611 149.741,264.352 149.879,261.543C149.982,259.46 149.929,258.992 149.544,258.567C148.957,257.917 148.317,257.926 147.715,258.591C147.138,259.229 146.46,259.264 145.603,258.702C145.16,258.412 144.829,258.361 144.519,258.534C143.411,259.154 142.983,262.95 143.826,264.677C144.221,265.485 144.43,265.621 145.467,265.745C146.121,265.823 146.894,266.026 147.185,266.197C147.716,266.509 148.51,266.409 149.075,265.959ZM135.075,265.553C135.127,265.398 134.986,265.201 134.761,265.114C134.475,265.005 134.353,265.12 134.353,265.501C134.353,266.045 134.898,266.084 135.075,265.553ZM138.037,264.244C138.664,264.119 139.007,263.82 139.393,263.064C139.677,262.507 139.909,261.757 139.909,261.395C139.909,261.034 140.028,260.666 140.174,260.576C140.626,260.296 140.466,259.502 139.843,258.93C139.165,258.307 138.173,258.499 137.872,259.312C137.776,259.571 137.246,260.225 136.694,260.767C135.369,262.067 135.159,262.919 135.954,263.765C136.61,264.464 136.764,264.499 138.037,264.244ZM153.668,262.692C154.09,262.183 154.437,262.191 155.025,262.724C155.669,263.306 156.629,263.018 157.041,262.118C157.554,260.998 157.478,256.766 156.934,256.165C156.367,255.539 156.085,255.555 155.338,256.256L154.726,256.831L154.114,256.256C153.386,255.572 153.053,255.539 152.496,256.097C152.182,256.411 152.08,257.075 152.08,258.822C152.08,260.251 151.961,261.251 151.766,261.445C151.524,261.688 151.595,261.911 152.077,262.424C152.793,263.187 153.2,263.255 153.668,262.692ZM131.193,260.179C132.267,260.179 132.905,257.624 132.063,256.694C131.458,256.025 129.856,256.056 129.111,256.749C128.437,257.378 128.438,257.371 128.875,258.627C129.31,259.873 129.845,260.504 130.316,260.323C130.523,260.244 130.918,260.179 131.193,260.179ZM177.116,249.436C177.535,249.339 178.026,249.142 178.208,248.998C178.691,248.617 178.612,247.46 178.076,247.053C177.511,246.625 176.106,246.578 175.709,246.974C175.5,247.183 175.262,247.179 174.85,246.958C174.107,246.56 172.974,246.705 172.639,247.239C172.192,247.954 172.637,249.039 173.449,249.213C173.847,249.299 174.411,249.475 174.702,249.606C175.213,249.835 175.472,249.817 177.116,249.436ZM163.038,246.877C163.625,246.291 163.576,246.11 162.566,245.132C161.843,244.431 161.646,244.346 161.516,244.683C161.429,244.911 161.138,245.097 160.87,245.097C160.603,245.097 160.161,245.26 159.889,245.459C159.444,245.784 159.431,245.906 159.751,246.679C160.093,247.506 160.152,247.533 161.363,247.417C162.054,247.35 162.808,247.108 163.038,246.877ZM122.447,246.008C122.447,245.798 122.397,245.627 122.336,245.627C122.275,245.627 122.037,245.554 121.807,245.466C121.51,245.352 121.389,245.461 121.389,245.841C121.389,246.365 121.855,246.724 122.248,246.501C122.358,246.44 122.447,246.218 122.447,246.008ZM125.977,245.606C126.317,245.121 126.307,244.902 125.898,243.74C125.643,243.015 125.298,242.286 125.131,242.12C124.964,241.953 124.828,241.537 124.828,241.196C124.828,240.855 124.523,240.27 124.149,239.896L123.47,239.217L122.826,239.822C121.881,240.71 121.939,242.514 122.98,244.576C123.721,246.044 123.842,246.156 124.685,246.156C125.303,246.156 125.714,245.981 125.977,245.606ZM145.536,230.621C144.624,229.645 143.878,228.704 143.878,228.532C143.878,228.107 142.105,226.577 141.612,226.577C141.395,226.577 140.487,226.945 139.594,227.396C136.93,228.741 135.773,229.003 134.155,228.629C132.91,228.342 132.753,228.226 132.634,227.509C132.455,226.439 132.617,225.355 133.028,224.859C133.359,224.461 133.593,224.064 134.849,221.771C135.195,221.14 135.642,220.445 135.843,220.227C136.306,219.724 138.631,216.62 138.983,216.036C139.129,215.794 139.397,215.501 139.579,215.385C139.761,215.268 139.909,214.962 139.909,214.703C139.909,214.445 140.562,213.35 141.36,212.269C142.158,211.189 142.974,210.071 143.173,209.786C143.519,209.291 143.568,209.288 144.223,209.717C145.13,210.312 145.647,211.532 145.83,213.515C146.026,215.638 147.1,218.625 148.931,222.141C149.38,223.004 149.21,224.369 148.603,224.772C148.125,225.089 148.084,225.237 148.338,225.713C148.505,226.023 148.641,226.559 148.641,226.903C148.641,227.247 148.745,227.642 148.873,227.78C149,227.919 149.168,229.014 149.244,230.215L149.384,232.397L148.289,232.397C147.278,232.397 147.066,232.26 145.536,230.621ZM135.96,225.975C135.928,225.658 135.565,225.72 135.451,226.061C135.393,226.235 135.488,226.331 135.663,226.272C135.837,226.214 135.971,226.08 135.96,225.975ZM145.682,225.584C145.61,224.965 145.46,224.844 144.672,224.77L143.746,224.684L144.523,225.498C145.483,226.504 145.79,226.527 145.682,225.584ZM140.439,223.931C140.439,223.785 140.326,223.666 140.19,223.666C140.053,223.666 139.867,223.785 139.777,223.931C139.687,224.076 139.799,224.195 140.026,224.195C140.253,224.195 140.439,224.076 140.439,223.931ZM168.766,230.281C168.766,230.063 168.941,229.653 169.154,229.37C169.448,228.982 169.543,228.954 169.543,229.254C169.543,229.472 169.368,229.882 169.154,230.164C168.861,230.552 168.766,230.581 168.766,230.281ZM121.653,228.444C121.653,228.307 121.772,228.122 121.918,228.032C122.063,227.942 122.182,228.054 122.182,228.281C122.182,228.508 122.063,228.693 121.918,228.693C121.772,228.693 121.653,228.581 121.653,228.444ZM167.161,225.65C166.841,225.053 166.87,224.92 167.447,224.302C167.799,223.924 168.445,223.436 168.881,223.215C169.967,222.667 171.659,221.007 171.659,220.49C171.659,220.258 171.777,219.95 171.922,219.806C172.095,219.633 172.029,219.323 171.727,218.893C171.08,217.97 170.336,216.469 170.336,216.085C170.336,215.408 169.833,215.503 168.715,216.392C168.079,216.897 167.424,217.312 167.26,217.314C167.095,217.315 166.811,217.678 166.628,218.121C166.198,219.159 164.458,220.645 163.376,220.898C162.911,221.006 161.809,221.095 160.926,221.094C159.547,221.093 159.158,220.976 158.174,220.263C157.299,219.629 156.945,219.503 156.674,219.727C156.223,220.102 155.52,219.841 155.52,219.3C155.52,218.967 155.624,218.941 156.049,219.168C156.916,219.632 156.655,219.049 155.383,217.678C154.726,216.97 154.123,216.093 154.044,215.729C153.965,215.365 153.803,214.884 153.684,214.66C153.566,214.436 153.389,213.722 153.291,213.073C153.194,212.423 152.994,211.349 152.847,210.685C152.631,209.707 152.678,209.127 153.091,207.642C153.371,206.633 153.778,205.39 153.993,204.881C154.384,203.959 156.842,201.441 157.352,201.441C157.499,201.441 158.228,200.901 158.972,200.24C159.716,199.579 160.675,198.968 161.103,198.883C161.531,198.797 161.945,198.623 162.023,198.497C162.285,198.072 164.772,198.251 165.783,198.767C167.423,199.605 169.286,202.319 169.687,204.454C169.79,205.006 170.277,206.054 170.767,206.783C171.667,208.12 171.99,209.937 171.395,210.305C170.845,210.644 171.171,212.034 172.36,214.428C173.037,215.79 173.751,217.064 173.947,217.261C175.149,218.462 174.342,222.794 172.774,223.561C172.441,223.724 171.898,224.112 171.566,224.423C171.235,224.734 170.864,224.989 170.741,224.989C170.619,224.989 170.128,225.287 169.651,225.651C168.526,226.509 167.621,226.509 167.161,225.65ZM124.189,221.85C124.075,221.665 124.053,221.443 124.14,221.356C124.377,221.119 124.635,221.467 124.507,221.851C124.418,222.12 124.355,222.119 124.189,221.85ZM185.713,221.219C185.733,220.654 185.788,220.541 185.874,220.888C185.945,221.179 186.125,221.566 186.272,221.748C186.466,221.987 186.422,222.079 186.112,222.079C185.797,222.079 185.691,221.848 185.713,221.219ZM133.295,221.285C133.295,221.139 133.421,221.02 133.575,221.02C133.729,221.02 133.782,221.139 133.692,221.285C133.602,221.43 133.476,221.55 133.411,221.55C133.347,221.55 133.295,221.43 133.295,221.285ZM124.075,217.616C123.762,217.344 123.505,217.005 123.505,216.863C123.505,216.721 123.266,216.388 122.974,216.124C121.887,215.14 121.194,212.604 121.893,212.172C122.025,212.091 122.07,211.786 121.994,211.495C121.901,211.14 121.986,210.966 122.253,210.966C122.783,210.966 122.968,210.163 122.972,207.84C122.974,206.775 123.113,205.644 123.28,205.326C123.446,205.009 124.352,203.929 125.292,202.927C126.233,201.926 127.462,200.378 128.023,199.488C128.585,198.598 129.248,197.661 129.496,197.406C129.982,196.908 131.571,196.773 131.84,197.208C131.929,197.353 132.212,197.472 132.467,197.472C132.722,197.472 133.268,197.824 133.68,198.254C134.25,198.849 134.46,199.368 134.56,200.437C134.649,201.38 134.896,202.082 135.316,202.586C136.253,203.709 136.375,204.533 135.708,205.243C135.4,205.572 135.147,206.166 135.147,206.563C135.147,207.375 132.858,210.95 131.917,211.61C131.591,211.838 131.092,212.025 130.807,212.025C130.523,212.025 129.907,212.163 129.438,212.332C128.736,212.586 128.422,212.562 127.645,212.193C127.127,211.947 126.631,211.63 126.544,211.488C126.201,210.933 125.203,211.237 124.728,212.041C124.246,212.857 124.31,214.141 124.833,214.141C124.976,214.141 125.093,214.281 125.093,214.451C125.093,214.622 125.254,214.949 125.452,215.179C125.65,215.408 125.938,215.974 126.092,216.435C126.326,217.131 126.295,217.343 125.91,217.691C125.302,218.242 124.771,218.22 124.075,217.616ZM118.034,215.927C117.437,215.309 116.888,214.445 116.813,214.009C116.738,213.572 116.598,212.86 116.502,212.425C116.291,211.465 117.055,208.85 117.547,208.85C117.736,208.85 117.973,209.292 118.075,209.833C118.176,210.374 118.471,211.118 118.729,211.486C119.066,211.965 119.239,212.856 119.335,214.604C119.409,215.95 119.391,217.052 119.294,217.052C119.197,217.052 118.63,216.546 118.034,215.927Z" style="fill:white;fill-rule:nonzero;"/>
    </g>
</svg>
