<?xml version="1.0" encoding="UTF-8" standalone="no"?>
<!DOCTYPE svg PUBLIC "-//W3C//DTD SVG 1.1//EN" "http://www.w3.org/Graphics/SVG/1.1/DTD/svg11.dtd">
<svg width="100%" height="100%" viewBox="0 0 280 249" version="1.1" xmlns="http://www.w3.org/2000/svg" xmlns:xlink="http://www.w3.org/1999/xlink" xml:space="preserve" xmlns:serif="http://www.serif.com/" style="fill-rule:evenodd;clip-rule:evenodd;stroke-linejoin:round;stroke-miterlimit:2;">
    <g id="g1" transform="matrix(3.77953,0,0,3.77953,-464.359,-435.006)">
        <path id="path1" d="M168.168,180.692C168.088,180.482 167.746,180.432 167.746,180.629C167.746,180.698 167.661,180.755 167.558,180.755C167.454,180.755 167.369,180.705 167.369,180.644C167.369,180.583 166.991,180.509 166.529,180.479C166.048,180.449 165.668,180.364 165.64,180.28C165.613,180.2 165.398,180.098 165.161,180.054C164.924,180.009 164.73,179.899 164.73,179.808C164.73,179.718 164.56,179.607 164.353,179.561C163.391,179.35 164.284,179.271 168.128,179.229C171.617,179.191 172.298,179.154 172.394,178.998C172.474,178.869 172.797,178.798 173.457,178.765C174.161,178.729 174.406,178.672 174.406,178.542C174.406,178.407 174.646,178.367 175.474,178.367C176.295,178.367 176.543,178.327 176.543,178.195C176.543,178.084 176.747,178 177.124,177.957C177.443,177.921 177.75,177.818 177.806,177.728C177.934,177.52 179.425,177.427 179.684,177.61C179.849,177.727 179.845,177.76 179.653,177.873C179.532,177.944 179.433,178.085 179.433,178.185C179.433,178.304 179.301,178.367 179.056,178.367C178.804,178.367 178.679,178.43 178.679,178.556C178.679,178.681 178.554,178.744 178.308,178.744C178.098,178.744 177.888,178.832 177.824,178.946C177.756,179.067 177.479,179.174 177.127,179.214C176.748,179.256 176.543,179.34 176.543,179.452C176.543,179.58 176.334,179.624 175.726,179.624C175.12,179.624 174.909,179.668 174.909,179.795C174.909,179.916 174.663,179.986 174.076,180.033C173.618,180.07 173.202,180.167 173.152,180.248C173.098,180.336 172.568,180.425 171.849,180.468C170.949,180.522 170.636,180.584 170.636,180.711C170.636,180.972 168.269,180.954 168.168,180.692ZM174.452,175.288C174.412,175.185 174.301,175.1 174.204,175.1C174.108,175.1 174.029,174.987 174.029,174.849C174.029,174.709 173.945,174.597 173.841,174.597C173.709,174.597 173.652,174.465 173.652,174.158C173.652,173.868 173.711,173.718 173.825,173.718C173.92,173.718 174.031,173.55 174.073,173.344C174.125,173.084 174.241,172.947 174.458,172.892C174.669,172.839 174.794,172.698 174.849,172.449C174.915,172.148 174.993,172.084 175.296,172.084C175.548,172.084 175.663,172.021 175.663,171.884C175.663,171.774 175.776,171.654 175.914,171.618C176.052,171.582 176.166,171.474 176.166,171.378C176.166,171.269 176.305,171.204 176.543,171.204C176.794,171.204 176.92,171.142 176.92,171.016C176.92,170.911 177.031,170.827 177.171,170.827C177.309,170.827 177.422,170.747 177.422,170.649C177.422,170.551 177.592,170.433 177.799,170.388C178.006,170.342 178.176,170.224 178.176,170.126C178.176,170.028 178.289,169.948 178.427,169.948C178.567,169.948 178.679,169.864 178.679,169.759C178.679,169.656 178.764,169.571 178.867,169.571C178.971,169.571 179.056,169.486 179.056,169.382C179.056,169.279 179.128,169.194 179.216,169.194C179.305,169.194 179.474,169.081 179.592,168.942C179.71,168.804 179.921,168.691 180.06,168.691C180.203,168.691 180.312,168.608 180.312,168.499C180.312,168.393 180.397,168.274 180.501,168.234C180.605,168.194 180.689,168.083 180.689,167.987C180.689,167.89 180.768,167.811 180.864,167.811C180.961,167.811 181.072,167.727 181.112,167.623C181.152,167.519 181.271,167.434 181.377,167.434C181.482,167.434 181.569,167.35 181.569,167.246C181.569,167.142 181.647,167.057 181.743,167.057C181.839,167.057 181.946,166.944 181.982,166.806C182.019,166.668 182.138,166.555 182.248,166.555C182.359,166.555 182.449,166.47 182.449,166.366C182.449,166.263 182.534,166.178 182.637,166.178C182.741,166.178 182.826,166.093 182.826,165.989C182.826,165.886 182.904,165.801 183,165.801C183.095,165.801 183.203,165.688 183.239,165.55C183.275,165.411 183.395,165.298 183.505,165.298C183.615,165.298 183.705,165.213 183.705,165.11C183.705,165.006 183.79,164.921 183.894,164.921C183.998,164.921 184.082,164.836 184.082,164.733C184.082,164.629 184.167,164.544 184.271,164.544C184.375,164.544 184.46,164.474 184.462,164.387C184.465,164.196 185.007,163.665 185.2,163.665C185.276,163.665 185.339,163.495 185.339,163.288C185.339,163.05 185.403,162.911 185.514,162.911C185.613,162.911 185.723,162.723 185.771,162.471C185.82,162.207 185.926,162.031 186.036,162.031C186.136,162.031 186.219,161.918 186.219,161.78C186.219,161.64 186.302,161.528 186.407,161.528C186.533,161.528 186.596,161.403 186.596,161.151C186.596,160.9 186.658,160.774 186.784,160.774C186.888,160.774 186.973,160.702 186.973,160.614C186.973,160.525 187.086,160.356 187.224,160.238C187.362,160.12 187.475,159.909 187.475,159.77C187.475,159.629 187.559,159.518 187.664,159.518C187.795,159.518 187.852,159.385 187.852,159.078C187.852,158.782 187.911,158.638 188.031,158.638C188.129,158.638 188.246,158.473 188.29,158.271C188.334,158.07 188.452,157.874 188.551,157.836C188.653,157.796 188.732,157.601 188.732,157.385C188.732,157.13 188.794,157.004 188.92,157.004C189.063,157.004 189.109,156.85 189.109,156.372C189.109,155.955 189.167,155.718 189.28,155.674C189.39,155.632 189.481,155.289 189.535,154.707C189.59,154.114 189.682,153.771 189.804,153.702C189.937,153.628 189.989,153.371 189.989,152.788C189.989,152.152 190.029,151.978 190.177,151.978C190.334,151.978 190.366,151.733 190.366,150.529C190.366,149.357 190.402,149.066 190.554,149.007C190.764,148.927 190.814,148.585 190.617,148.585C190.548,148.585 190.491,148.5 190.491,148.396C190.491,148.293 190.548,148.208 190.617,148.208C190.819,148.208 190.763,147.489 190.554,147.408C190.404,147.351 190.366,147.08 190.366,146.076C190.366,145.039 190.332,144.815 190.177,144.815C190.029,144.815 189.989,144.64 189.989,143.998C189.989,143.371 189.947,143.181 189.808,143.181C189.676,143.181 189.603,142.943 189.54,142.302C189.479,141.683 189.402,141.422 189.281,141.422C189.158,141.422 189.109,141.242 189.109,140.794C189.109,140.346 189.06,140.165 188.937,140.165C188.83,140.165 188.738,139.967 188.695,139.645C188.657,139.358 188.572,139.09 188.506,139.048C188.44,139.006 188.347,138.788 188.298,138.563C188.249,138.336 188.13,138.155 188.031,138.155C187.911,138.155 187.852,138.011 187.852,137.715C187.852,137.408 187.795,137.275 187.664,137.275C187.538,137.275 187.475,137.149 187.475,136.894C187.475,136.679 187.397,136.483 187.294,136.444C187.195,136.406 187.077,136.21 187.033,136.008C186.989,135.806 186.872,135.641 186.774,135.641C186.654,135.641 186.596,135.498 186.596,135.202C186.596,134.894 186.539,134.762 186.407,134.762C186.303,134.762 186.219,134.653 186.219,134.519C186.219,134.386 186.141,134.199 186.045,134.104C185.95,134.009 185.834,133.755 185.786,133.54C185.739,133.325 185.619,133.118 185.52,133.08C185.251,132.977 185.258,130.992 185.528,130.992C185.631,130.992 185.716,130.907 185.716,130.803C185.716,130.672 185.849,130.615 186.156,130.615C186.463,130.615 186.596,130.672 186.596,130.803C186.596,130.927 186.72,130.992 186.958,130.992C187.215,130.992 187.34,131.065 187.386,131.243C187.423,131.381 187.542,131.495 187.652,131.495C187.791,131.495 187.853,131.61 187.853,131.872C187.853,132.109 187.917,132.249 188.027,132.249C188.127,132.249 188.237,132.436 188.284,132.688C188.33,132.93 188.418,133.128 188.481,133.128C188.544,133.128 188.632,133.326 188.678,133.568C188.725,133.82 188.835,134.008 188.935,134.008C189.045,134.008 189.109,134.147 189.109,134.385C189.109,134.623 189.174,134.762 189.284,134.762C189.384,134.762 189.494,134.95 189.541,135.202C189.586,135.444 189.675,135.641 189.738,135.641C189.8,135.641 189.889,135.839 189.934,136.081C189.982,136.333 190.091,136.521 190.191,136.521C190.301,136.521 190.366,136.66 190.366,136.898C190.366,137.145 190.429,137.275 190.55,137.275C190.676,137.275 190.76,137.473 190.818,137.903C190.872,138.311 190.961,138.532 191.073,138.532C191.186,138.532 191.246,138.683 191.246,138.972C191.246,139.279 191.302,139.411 191.434,139.411C191.565,139.411 191.623,139.543 191.623,139.842C191.623,140.079 191.71,140.36 191.817,140.467C191.923,140.574 192.044,140.945 192.085,141.293C192.134,141.705 192.22,141.925 192.331,141.925C192.453,141.925 192.502,142.107 192.502,142.553C192.502,143.007 192.551,143.181 192.677,143.181C192.809,143.181 192.864,143.433 192.898,144.192C192.931,144.914 192.998,145.236 193.132,145.318C193.29,145.416 193.319,145.957 193.319,148.836C193.319,151.715 193.29,152.256 193.132,152.354C192.998,152.437 192.931,152.759 192.898,153.48C192.866,154.191 192.805,154.491 192.692,154.491C192.586,154.491 192.514,154.749 192.477,155.255C192.447,155.675 192.364,156.057 192.293,156.103C192.222,156.15 192.127,156.46 192.083,156.792C192.039,157.125 191.917,157.482 191.812,157.586C191.708,157.691 191.623,157.97 191.623,158.207C191.623,158.506 191.565,158.638 191.434,158.638C191.302,158.638 191.246,158.771 191.246,159.078C191.246,159.379 191.188,159.518 191.063,159.518C190.953,159.518 190.847,159.694 190.797,159.957C190.75,160.209 190.64,160.397 190.54,160.397C190.43,160.397 190.366,160.536 190.366,160.774C190.366,161.026 190.303,161.151 190.177,161.151C190.051,161.151 189.989,161.277 189.989,161.532C189.989,161.755 189.911,161.943 189.8,161.985C189.697,162.025 189.612,162.124 189.612,162.205C189.612,162.286 189.499,162.449 189.361,162.567C189.222,162.686 189.109,162.896 189.109,163.035C189.109,163.176 189.026,163.288 188.921,163.288C188.817,163.288 188.732,163.36 188.732,163.448C188.732,163.536 188.619,163.706 188.481,163.824C188.343,163.942 188.23,164.153 188.23,164.292C188.23,164.432 188.146,164.544 188.041,164.544C187.937,164.544 187.853,164.629 187.853,164.733C187.853,164.836 187.768,164.921 187.664,164.921C187.559,164.921 187.476,165.033 187.476,165.173C187.476,165.312 187.392,165.424 187.287,165.424C187.183,165.424 187.099,165.509 187.099,165.612C187.099,165.717 186.987,165.801 186.847,165.801C186.652,165.801 186.596,165.885 186.596,166.178C186.596,166.394 186.529,166.556 186.439,166.557C186.247,166.56 185.716,167.102 185.716,167.295C185.716,167.372 185.632,167.434 185.528,167.434C185.424,167.434 185.339,167.519 185.339,167.623C185.339,167.727 185.267,167.811 185.179,167.811C185.09,167.811 184.921,167.925 184.803,168.063C184.685,168.201 184.509,168.314 184.413,168.314C184.316,168.314 184.208,168.427 184.172,168.565C184.136,168.704 184.016,168.817 183.906,168.817C183.796,168.817 183.706,168.902 183.706,169.005C183.706,169.109 183.621,169.194 183.517,169.194C183.414,169.194 183.329,169.279 183.329,169.382C183.329,169.487 183.217,169.571 183.077,169.571C182.938,169.571 182.826,169.655 182.826,169.759C182.826,169.863 182.748,169.948 182.652,169.948C182.557,169.948 182.449,170.061 182.413,170.199C182.376,170.337 182.257,170.45 182.147,170.45C182.036,170.45 181.946,170.535 181.946,170.639C181.946,170.743 181.862,170.827 181.758,170.827C181.654,170.827 181.569,170.908 181.569,171.006C181.569,171.104 181.404,171.221 181.203,171.265C181.001,171.309 180.805,171.427 180.767,171.526C180.729,171.626 180.611,171.707 180.505,171.707C180.399,171.707 180.313,171.792 180.313,171.896C180.313,172 180.201,172.084 180.061,172.084C179.922,172.084 179.81,172.168 179.81,172.273C179.81,172.398 179.684,172.461 179.433,172.461C179.14,172.461 179.056,172.517 179.056,172.712C179.056,172.857 178.972,172.964 178.859,172.964C178.75,172.964 178.576,173.048 178.473,173.152C178.369,173.256 178.175,173.341 178.042,173.341C177.909,173.341 177.799,173.425 177.799,173.529C177.799,173.633 177.715,173.718 177.611,173.718C177.507,173.718 177.422,173.796 177.422,173.892C177.422,173.987 177.309,174.095 177.171,174.131C177.033,174.167 176.92,174.287 176.92,174.397C176.92,174.507 176.835,174.597 176.731,174.597C176.628,174.597 176.543,174.678 176.543,174.776C176.543,174.874 176.378,174.991 176.176,175.035C175.975,175.079 175.779,175.197 175.74,175.296C175.642,175.552 174.55,175.545 174.452,175.288ZM155.18,174.786C155.18,174.638 155.005,174.597 154.363,174.597C153.751,174.597 153.546,174.554 153.546,174.423C153.546,174.328 153.433,174.22 153.295,174.184C153.156,174.148 153.043,174.028 153.043,173.918C153.043,173.808 152.959,173.718 152.855,173.718C152.751,173.718 152.666,173.633 152.666,173.529C152.666,173.426 152.745,173.341 152.84,173.341C152.936,173.341 153.046,173.219 153.085,173.07C153.154,172.805 153.191,172.801 154.69,172.881C155.534,172.927 157.403,172.964 158.844,172.964C161.088,172.964 161.463,172.991 161.463,173.152C161.463,173.256 161.542,173.341 161.638,173.341C161.827,173.341 162.02,173.904 161.899,174.1C161.858,174.166 161.743,174.22 161.644,174.22C161.544,174.22 161.463,174.305 161.463,174.409C161.463,174.567 161.191,174.597 159.766,174.597C158.342,174.597 158.07,174.628 158.07,174.786C158.07,174.942 157.826,174.974 156.625,174.974C155.424,174.974 155.18,174.942 155.18,174.786ZM164.353,171.377C164.353,171.194 164.191,171.182 162.842,171.262C160.804,171.384 158.07,171.234 158.07,171C158.07,170.866 157.803,170.827 156.872,170.827C155.923,170.827 155.659,170.788 155.602,170.639C155.554,170.514 155.355,170.45 155.009,170.449C154.306,170.447 153.923,170.331 153.923,170.122C153.923,170.007 153.774,169.948 153.483,169.948C153.176,169.948 153.043,169.891 153.043,169.759C153.043,169.611 152.869,169.571 152.227,169.571C151.584,169.571 151.41,169.53 151.41,169.382C151.41,169.261 151.287,169.193 151.064,169.192C150.526,169.189 150.153,169.055 150.153,168.865C150.153,168.75 150.004,168.691 149.713,168.691C149.406,168.691 149.273,168.634 149.273,168.503C149.273,168.377 149.148,168.314 148.896,168.314C148.645,168.314 148.519,168.251 148.519,168.126C148.519,168.021 148.408,167.937 148.268,167.937C148.13,167.937 148.017,167.855 148.017,167.754C148.017,167.645 147.84,167.538 147.577,167.489C147.325,167.442 147.137,167.332 147.137,167.232C147.137,167.122 146.998,167.057 146.76,167.057C146.509,167.057 146.383,166.995 146.383,166.869C146.383,166.765 146.298,166.68 146.195,166.68C146.091,166.68 146.006,166.59 146.006,166.48C146.006,166.37 145.893,166.25 145.755,166.214C145.617,166.178 145.503,166.07 145.503,165.975C145.503,165.879 145.419,165.801 145.315,165.801C145.211,165.801 145.126,165.723 145.126,165.627C145.126,165.531 145.013,165.424 144.875,165.387C144.737,165.351 144.624,165.232 144.624,165.121C144.624,165.011 144.539,164.921 144.435,164.921C144.332,164.921 144.247,164.836 144.247,164.733C144.247,164.629 144.162,164.544 144.058,164.544C143.955,164.544 143.87,164.459 143.87,164.356C143.87,164.252 143.798,164.167 143.709,164.167C143.621,164.167 143.452,164.054 143.334,163.916C143.215,163.778 143.005,163.665 142.866,163.665C142.725,163.665 142.613,163.581 142.613,163.476C142.613,163.372 142.528,163.288 142.425,163.288C142.321,163.288 142.236,163.197 142.236,163.087C142.236,162.977 142.123,162.857 141.985,162.821C141.847,162.785 141.734,162.677 141.734,162.582C141.734,162.486 141.649,162.408 141.545,162.408C141.441,162.408 141.357,162.323 141.357,162.219C141.357,162.116 141.278,162.031 141.183,162.031C141.087,162.031 140.979,161.918 140.943,161.78C140.907,161.641 140.787,161.528 140.677,161.528C140.567,161.528 140.477,161.443 140.477,161.34C140.477,161.236 140.392,161.151 140.288,161.151C140.185,161.151 140.1,161.066 140.1,160.963C140.1,160.859 140.02,160.774 139.921,160.774C139.823,160.774 139.707,160.609 139.662,160.408C139.618,160.206 139.501,160.01 139.401,159.972C139.302,159.934 139.22,159.816 139.22,159.71C139.22,159.604 139.135,159.518 139.032,159.518C138.927,159.518 138.843,159.406 138.843,159.266C138.843,159.128 138.763,159.015 138.665,159.015C138.567,159.015 138.449,158.845 138.403,158.638C138.358,158.431 138.24,158.261 138.142,158.261C138.044,158.261 137.964,158.148 137.964,158.01C137.964,157.871 137.883,157.758 137.785,157.758C137.687,157.758 137.569,157.589 137.524,157.381C137.478,157.174 137.361,157.004 137.262,157.004C137.164,157.004 137.084,156.926 137.084,156.829C137.084,156.733 136.999,156.622 136.895,156.582C136.792,156.542 136.707,156.423 136.707,156.317C136.707,156.211 136.622,156.125 136.518,156.125C136.414,156.125 136.33,156.013 136.33,155.873C136.33,155.735 136.25,155.622 136.151,155.622C136.053,155.622 135.936,155.452 135.89,155.245C135.845,155.038 135.727,154.868 135.629,154.868C135.514,154.868 135.45,154.733 135.45,154.491C135.45,154.24 135.388,154.114 135.262,154.114C135.157,154.114 135.073,154.002 135.073,153.863C135.073,153.725 134.991,153.611 134.891,153.611C134.781,153.611 134.675,153.435 134.625,153.172C134.578,152.92 134.468,152.732 134.368,152.732C134.245,152.732 134.194,152.565 134.194,152.166C134.194,151.747 134.145,151.601 134.005,151.601C133.863,151.601 133.817,151.447 133.817,150.972C133.817,150.526 133.767,150.344 133.646,150.344C133.534,150.344 133.449,150.125 133.4,149.712C133.359,149.365 133.238,148.993 133.131,148.887C133.022,148.778 132.937,148.476 132.937,148.199C132.937,147.844 132.884,147.705 132.749,147.705C132.586,147.705 132.56,147.293 132.56,144.752C132.56,142.211 132.586,141.799 132.749,141.799C132.9,141.799 132.937,141.604 132.937,140.794C132.937,140.021 132.977,139.788 133.111,139.788C133.232,139.788 133.311,139.543 133.371,138.982C133.427,138.461 133.521,138.15 133.637,138.106C133.76,138.059 133.817,137.837 133.817,137.405C133.817,136.926 133.863,136.772 134.005,136.772C134.152,136.772 134.194,136.605 134.194,136.018C134.194,135.432 134.236,135.264 134.382,135.264C134.511,135.264 134.571,135.135 134.571,134.853C134.571,134.596 134.666,134.359 134.822,134.225C134.985,134.086 135.073,133.855 135.073,133.569C135.073,133.261 135.13,133.128 135.262,133.128C135.394,133.128 135.45,132.996 135.45,132.688C135.45,132.381 135.507,132.249 135.639,132.249C135.743,132.249 135.827,132.176 135.827,132.088C135.827,132 135.94,131.831 136.079,131.712C136.217,131.594 136.33,131.383 136.33,131.244C136.33,131.104 136.413,130.992 136.518,130.992C136.622,130.992 136.707,130.907 136.707,130.803C136.707,130.7 136.785,130.615 136.881,130.615C136.976,130.615 137.084,130.502 137.12,130.364C137.157,130.225 137.276,130.112 137.386,130.112C137.497,130.112 137.587,130.027 137.587,129.924C137.587,129.82 137.671,129.735 137.775,129.735C137.88,129.735 137.964,129.624 137.964,129.484C137.964,129.344 138.047,129.233 138.152,129.233C138.256,129.233 138.341,129.148 138.341,129.044C138.341,128.94 138.419,128.856 138.516,128.856C138.612,128.856 138.723,128.771 138.763,128.667C138.803,128.563 138.922,128.479 139.028,128.479C139.137,128.479 139.22,128.369 139.22,128.226C139.22,128.087 139.333,127.877 139.472,127.758C139.61,127.64 139.723,127.471 139.723,127.383C139.723,127.294 139.808,127.222 139.911,127.222C140.015,127.222 140.1,127.137 140.1,127.033C140.1,126.93 140.178,126.845 140.274,126.845C140.369,126.845 140.477,126.732 140.513,126.594C140.549,126.455 140.669,126.342 140.779,126.342C140.889,126.342 140.98,126.258 140.98,126.154C140.98,126.05 141.064,125.965 141.168,125.965C141.272,125.965 141.357,125.881 141.357,125.777C141.357,125.673 141.441,125.588 141.545,125.588C141.649,125.588 141.734,125.498 141.734,125.388C141.734,125.278 141.847,125.158 141.985,125.122C142.123,125.086 142.236,124.978 142.236,124.883C142.236,124.773 142.376,124.709 142.613,124.709C142.874,124.709 142.99,124.647 142.99,124.508C142.99,124.398 143.103,124.279 143.242,124.242C143.38,124.206 143.493,124.098 143.493,124.003C143.493,123.893 143.633,123.829 143.87,123.829C144.121,123.829 144.247,123.766 144.247,123.641C144.247,123.515 144.373,123.452 144.624,123.452C144.875,123.452 145.001,123.389 145.001,123.264C145.001,123.16 145.101,123.075 145.224,123.075C145.347,123.075 145.544,122.962 145.663,122.824C145.781,122.685 145.992,122.572 146.131,122.572C146.271,122.572 146.383,122.489 146.383,122.384C146.383,122.258 146.509,122.195 146.76,122.195C147.011,122.195 147.137,122.133 147.137,122.007C147.137,121.902 147.249,121.818 147.388,121.818C147.527,121.818 147.64,121.736 147.64,121.636C147.64,121.526 147.816,121.42 148.08,121.37C148.332,121.323 148.519,121.213 148.519,121.113C148.519,120.979 148.751,120.939 149.525,120.939C150.301,120.939 150.53,120.899 150.53,120.764C150.53,120.632 150.782,120.577 151.541,120.542C152.255,120.51 152.585,120.442 152.665,120.312C152.744,120.184 153.07,120.113 153.728,120.08C154.432,120.044 154.677,119.986 154.677,119.857C154.677,119.711 155.32,119.682 158.51,119.682C161.833,119.682 162.342,119.707 162.342,119.871C162.342,120.027 162.587,120.059 163.788,120.059C164.934,120.059 165.233,120.095 165.233,120.233C165.233,120.423 165.606,120.557 166.144,120.56C166.366,120.561 166.489,120.629 166.489,120.75C166.489,120.893 166.643,120.939 167.118,120.939C167.568,120.939 167.746,120.988 167.746,121.112C167.746,121.235 167.974,121.302 168.524,121.342C168.952,121.373 169.324,121.463 169.35,121.541C169.376,121.62 169.592,121.721 169.829,121.766C170.074,121.811 170.259,121.922 170.259,122.021C170.259,122.137 170.408,122.195 170.699,122.195C171.006,122.195 171.139,122.252 171.139,122.384C171.139,122.51 171.265,122.572 171.52,122.572C171.735,122.572 171.931,122.651 171.97,122.753C172.008,122.853 172.205,122.97 172.406,123.015C172.608,123.059 172.773,123.175 172.773,123.274C172.773,123.394 172.916,123.452 173.212,123.452C173.52,123.452 173.652,123.509 173.652,123.641C173.652,123.744 173.725,123.829 173.813,123.829C173.901,123.829 174.07,123.942 174.189,124.08C174.307,124.219 174.517,124.332 174.656,124.332C174.797,124.332 174.909,124.415 174.909,124.52C174.909,124.624 174.994,124.709 175.097,124.709C175.201,124.709 175.286,124.787 175.286,124.883C175.286,124.978 175.399,125.086 175.537,125.122C175.675,125.158 175.789,125.278 175.789,125.388C175.789,125.498 175.873,125.588 175.977,125.588C176.081,125.588 176.166,125.673 176.166,125.777C176.166,125.881 176.25,125.965 176.354,125.965C176.458,125.965 176.543,126.05 176.543,126.154C176.543,126.257 176.633,126.342 176.743,126.342C176.853,126.342 176.973,126.455 177.009,126.594C177.045,126.732 177.153,126.845 177.248,126.845C177.344,126.845 177.422,126.93 177.422,127.033C177.422,127.137 177.507,127.222 177.611,127.222C177.715,127.222 177.799,127.334 177.799,127.473C177.799,127.613 177.883,127.725 177.988,127.725C178.091,127.725 178.176,127.809 178.176,127.913C178.176,128.017 178.256,128.102 178.355,128.102C178.453,128.102 178.57,128.271 178.616,128.479C178.662,128.686 178.779,128.856 178.877,128.856C178.975,128.856 179.056,128.94 179.056,129.044C179.056,129.148 179.146,129.233 179.256,129.233C179.366,129.233 179.486,129.346 179.522,129.484C179.558,129.622 179.666,129.735 179.762,129.735C179.857,129.735 179.935,129.82 179.935,129.924C179.935,130.027 180.02,130.112 180.124,130.112C180.229,130.112 180.312,130.224 180.312,130.364C180.312,130.502 180.393,130.615 180.491,130.615C180.589,130.615 180.707,130.785 180.752,130.992C180.798,131.199 180.915,131.369 181.014,131.369C181.112,131.369 181.192,131.482 181.192,131.62C181.192,131.76 181.276,131.872 181.381,131.872C181.506,131.872 181.569,131.997 181.569,132.249C181.569,132.5 181.632,132.626 181.758,132.626C181.861,132.626 181.946,132.712 181.946,132.818C181.946,132.924 182.027,133.042 182.127,133.08C182.226,133.118 182.344,133.314 182.388,133.516C182.432,133.717 182.543,133.882 182.633,133.882C182.724,133.882 182.835,134.08 182.88,134.322C182.93,134.585 183.036,134.762 183.146,134.762C183.246,134.762 183.328,134.851 183.328,134.959C183.328,135.068 183.413,135.242 183.517,135.345C183.621,135.449 183.705,135.643 183.705,135.776C183.705,135.909 183.79,136.018 183.894,136.018C184.026,136.018 184.082,136.151 184.082,136.458C184.082,136.759 184.14,136.898 184.265,136.898C184.375,136.898 184.481,137.075 184.53,137.338C184.578,137.59 184.688,137.778 184.787,137.778C184.903,137.778 184.962,137.926 184.962,138.218C184.962,138.525 185.019,138.657 185.151,138.657C185.29,138.657 185.339,138.804 185.339,139.223C185.339,139.616 185.391,139.788 185.51,139.788C185.679,139.788 185.838,140.614 185.841,141.506C185.841,141.725 185.912,141.927 185.999,141.956C186.256,142.042 186.297,149.465 186.04,149.465C185.907,149.465 185.825,149.653 185.767,150.093C185.713,150.501 185.623,150.721 185.511,150.721C185.404,150.721 185.339,150.863 185.339,151.098C185.339,151.335 185.274,151.475 185.165,151.475C185.04,151.475 184.976,151.709 184.938,152.315C184.906,152.81 184.823,153.176 184.735,153.206C184.652,153.233 184.585,153.434 184.584,153.653C184.581,154.911 184.441,155.371 184.065,155.371C183.709,155.371 183.705,155.379 183.705,156.129C183.705,156.672 183.654,156.906 183.525,156.956C183.425,156.994 183.309,157.186 183.266,157.381C183.223,157.577 183.106,157.769 183.007,157.807C182.904,157.846 182.826,158.042 182.826,158.257C182.826,158.512 182.763,158.638 182.637,158.638C182.506,158.638 182.449,158.771 182.449,159.078C182.449,159.367 182.39,159.518 182.276,159.518C182.181,159.518 182.069,159.691 182.026,159.902C181.984,160.113 181.864,160.372 181.759,160.476C181.655,160.581 181.569,160.776 181.569,160.909C181.569,161.042 181.484,161.151 181.381,161.151C181.254,161.151 181.192,161.278 181.192,161.54C181.192,161.823 181.124,161.947 180.941,161.995C180.803,162.031 180.689,162.138 180.689,162.234C180.689,162.33 180.605,162.408 180.501,162.408C180.375,162.408 180.312,162.534 180.312,162.785C180.312,163.036 180.25,163.162 180.124,163.162C180.019,163.162 179.935,163.274 179.935,163.413C179.935,163.551 179.857,163.665 179.762,163.665C179.666,163.665 179.558,163.778 179.522,163.916C179.486,164.054 179.366,164.167 179.256,164.167C179.117,164.167 179.056,164.283 179.056,164.544C179.056,164.781 178.991,164.921 178.882,164.921C178.786,164.921 178.679,165.034 178.642,165.173C178.606,165.311 178.487,165.424 178.376,165.424C178.266,165.424 178.176,165.509 178.176,165.612C178.176,165.716 178.091,165.801 177.988,165.801C177.884,165.801 177.799,165.886 177.799,165.989C177.799,166.093 177.713,166.178 177.607,166.178C177.501,166.178 177.383,166.259 177.345,166.359C177.307,166.458 177.111,166.576 176.909,166.62C176.707,166.664 176.543,166.781 176.543,166.879C176.543,166.977 176.458,167.057 176.354,167.057C176.25,167.057 176.166,167.142 176.166,167.246C176.166,167.351 176.054,167.434 175.914,167.434C175.776,167.434 175.663,167.515 175.663,167.613C175.663,167.711 175.493,167.829 175.286,167.874C175.079,167.92 174.909,168.037 174.909,168.136C174.909,168.234 174.796,168.314 174.658,168.314C174.519,168.314 174.406,168.394 174.406,168.493C174.406,168.591 174.241,168.707 174.04,168.752C173.838,168.796 173.642,168.914 173.604,169.013C173.565,169.114 173.37,169.194 173.164,169.194C172.96,169.194 172.773,169.256 172.748,169.332C172.722,169.408 172.435,169.5 172.109,169.537C171.757,169.576 171.516,169.667 171.516,169.759C171.516,169.851 171.278,169.942 170.935,169.981C170.615,170.017 170.311,170.115 170.259,170.199C170.207,170.283 169.903,170.382 169.584,170.418C169.207,170.46 169.003,170.544 169.003,170.655C169.003,170.79 168.726,170.827 167.746,170.827C166.766,170.827 166.489,170.865 166.489,171C166.489,171.112 166.282,171.195 165.897,171.239C165.571,171.275 165.283,171.367 165.258,171.443C165.18,171.676 164.353,171.615 164.353,171.377ZM175.286,159.706C175.286,159.579 175.413,159.518 175.675,159.518C175.958,159.518 176.081,159.449 176.129,159.266C176.165,159.128 176.273,159.015 176.369,159.015C176.464,159.015 176.543,158.93 176.543,158.826C176.543,158.723 176.627,158.638 176.731,158.638C176.883,158.638 176.92,158.444 176.92,157.646C176.92,156.88 176.877,156.638 176.731,156.582C176.621,156.54 176.543,156.351 176.543,156.129C176.543,155.788 176.502,155.748 176.162,155.748C175.952,155.748 175.751,155.67 175.714,155.575C175.564,155.184 172.396,155.185 172.396,155.575C172.396,155.67 172.283,155.748 172.144,155.748C172.005,155.748 171.893,155.832 171.893,155.936C171.893,156.04 171.808,156.125 171.704,156.125C171.573,156.125 171.516,156.257 171.516,156.565C171.516,156.872 171.459,157.004 171.327,157.004C171.224,157.004 171.139,157.089 171.139,157.193C171.139,157.297 171.224,157.381 171.327,157.381C171.47,157.381 171.516,157.535 171.516,158.01C171.516,158.484 171.562,158.638 171.704,158.638C171.808,158.638 171.893,158.701 171.893,158.777C171.893,158.97 172.424,159.513 172.616,159.515C172.702,159.516 172.773,159.602 172.773,159.706C172.773,159.861 172.996,159.895 174.029,159.895C175.062,159.895 175.286,159.861 175.286,159.706ZM158.95,158.01C158.95,157.87 158.866,157.758 158.761,157.758C158.635,157.758 158.573,157.633 158.573,157.381C158.573,157.13 158.635,157.004 158.761,157.004C158.866,157.004 158.95,156.893 158.95,156.753C158.95,156.613 159.033,156.502 159.138,156.502C159.242,156.502 159.327,156.417 159.327,156.313C159.327,156.208 159.438,156.125 159.578,156.125C159.717,156.125 159.829,156.041 159.829,155.936C159.829,155.788 160.004,155.748 160.646,155.748C161.288,155.748 161.463,155.707 161.463,155.559C161.463,155.456 161.535,155.371 161.623,155.371C161.712,155.371 161.881,155.258 161.999,155.119C162.118,154.981 162.328,154.868 162.467,154.868C162.608,154.868 162.719,154.785 162.719,154.68C162.719,154.576 162.829,154.491 162.962,154.491C163.095,154.491 163.299,154.397 163.414,154.281C163.562,154.133 163.916,154.054 164.617,154.014C165.346,153.971 165.61,153.91 165.61,153.784C165.61,153.671 165.761,153.611 166.05,153.611C166.357,153.611 166.489,153.555 166.489,153.423C166.489,153.297 166.615,153.234 166.866,153.234C167.128,153.234 167.243,153.173 167.243,153.034C167.243,152.924 167.356,152.804 167.495,152.768C167.673,152.722 167.746,152.597 167.746,152.34C167.746,152.102 167.811,151.978 167.935,151.978C168.038,151.978 168.124,151.907 168.125,151.821C168.128,151.629 168.67,151.098 168.863,151.098C168.94,151.098 169.003,151.013 169.003,150.91C169.003,150.805 169.115,150.721 169.255,150.721C169.394,150.721 169.605,150.608 169.723,150.47C169.841,150.332 170.014,150.219 170.108,150.219C170.201,150.219 170.367,150.129 170.476,150.02C170.64,149.856 170.929,149.828 172.101,149.863C173.391,149.9 173.527,149.883 173.527,149.684C173.527,149.548 173.622,149.465 173.778,149.465C173.916,149.465 174.029,149.386 174.029,149.291C174.029,149.1 174.402,148.966 174.94,148.964C175.163,148.963 175.286,148.895 175.286,148.773C175.286,148.642 175.419,148.585 175.726,148.585C176.033,148.585 176.166,148.528 176.166,148.396C176.166,148.259 176.309,148.207 176.7,148.206C177.415,148.204 177.799,148.09 177.799,147.879C177.799,147.783 177.884,147.705 177.988,147.705C178.091,147.705 178.176,147.62 178.176,147.517C178.176,147.413 178.091,147.328 177.988,147.328C177.839,147.328 177.799,147.154 177.799,146.511C177.799,145.869 177.759,145.695 177.611,145.695C177.507,145.695 177.422,145.61 177.422,145.506C177.422,145.374 177.29,145.318 176.982,145.318C176.675,145.318 176.543,145.374 176.543,145.506C176.543,145.638 176.41,145.695 176.103,145.695C175.796,145.695 175.663,145.751 175.663,145.883C175.663,146.026 175.509,146.072 175.035,146.072C174.583,146.072 174.406,146.121 174.406,146.245C174.406,146.436 174.033,146.57 173.495,146.573C173.273,146.574 173.15,146.641 173.15,146.763C173.15,146.915 172.954,146.951 172.144,146.951C171.334,146.951 171.139,146.988 171.139,147.14C171.139,147.297 170.888,147.328 169.631,147.328C168.374,147.328 168.123,147.297 168.123,147.14C168.123,147.014 167.997,146.951 167.742,146.951C167.533,146.951 167.331,146.873 167.295,146.778C167.25,146.663 166.897,146.577 166.231,146.518C165.489,146.454 165.233,146.385 165.233,146.251C165.233,146.119 165.066,146.072 164.604,146.072C164.06,146.072 163.976,146.105 163.976,146.323C163.976,146.461 163.899,146.574 163.804,146.574C163.697,146.574 163.606,146.773 163.562,147.098C163.523,147.386 163.403,147.672 163.294,147.733C163.185,147.794 163.096,147.925 163.096,148.026C163.096,148.126 163.042,148.208 162.976,148.208C162.91,148.208 162.819,148.406 162.774,148.648C162.727,148.9 162.617,149.088 162.517,149.088C162.421,149.088 162.342,149.172 162.342,149.276C162.342,149.38 162.258,149.465 162.154,149.465C162.05,149.465 161.965,149.555 161.965,149.665C161.965,149.775 161.852,149.895 161.714,149.931C161.576,149.967 161.463,150.046 161.463,150.107C161.463,150.168 161.378,150.219 161.274,150.219C161.143,150.219 161.086,150.086 161.086,149.779C161.086,149.472 161.143,149.339 161.274,149.339C161.414,149.339 161.463,149.192 161.463,148.773C161.463,148.378 161.515,148.208 161.635,148.208C161.747,148.208 161.83,148.001 161.874,147.615C161.911,147.289 162.001,147.002 162.075,146.978C162.148,146.953 162.245,146.739 162.29,146.502C162.336,146.257 162.446,146.072 162.545,146.072C162.661,146.072 162.719,145.923 162.719,145.632C162.719,145.325 162.776,145.192 162.908,145.192C163.012,145.192 163.096,145.107 163.096,145.003C163.096,144.899 163.208,144.815 163.348,144.815C163.487,144.815 163.599,144.731 163.599,144.626C163.599,144.523 163.517,144.438 163.416,144.438C163.307,144.438 163.2,144.261 163.151,143.998C163.104,143.746 162.994,143.558 162.894,143.558C162.784,143.558 162.719,143.419 162.719,143.181C162.719,142.943 162.655,142.804 162.545,142.804C162.445,142.804 162.335,142.616 162.288,142.364C162.239,142.101 162.132,141.925 162.023,141.925C161.897,141.925 161.84,141.786 161.84,141.485C161.84,141.178 161.783,141.045 161.651,141.045C161.526,141.045 161.463,140.919 161.463,140.668C161.463,140.417 161.526,140.291 161.651,140.291C161.783,140.291 161.84,140.158 161.84,139.851C161.84,139.544 161.783,139.411 161.651,139.411C161.507,139.411 161.463,139.251 161.463,138.72C161.463,138.19 161.419,138.029 161.274,138.029C161.133,138.029 161.086,137.877 161.086,137.416C161.086,136.557 160.959,136.018 160.756,136.018C160.621,136.018 160.583,135.744 160.583,134.762C160.583,133.729 160.55,133.505 160.395,133.505C160.245,133.505 160.206,133.324 160.206,132.626C160.206,131.967 160.163,131.746 160.035,131.746C159.918,131.746 159.843,131.514 159.797,131.009C159.698,129.917 158.432,129.1 158.115,129.924C158.076,130.027 157.964,130.112 157.868,130.112C157.735,130.112 157.693,130.324 157.693,130.992C157.693,131.662 157.735,131.872 157.869,131.872C158.004,131.872 158.055,132.139 158.089,133.011C158.124,133.937 158.174,134.174 158.353,134.274C158.527,134.372 158.573,134.567 158.573,135.208C158.573,135.845 158.613,136.018 158.761,136.018C158.924,136.018 158.95,136.5 158.95,139.6C158.95,142.7 158.924,143.181 158.761,143.181C158.657,143.181 158.573,143.266 158.573,143.37C158.573,143.512 158.419,143.558 157.944,143.558C157.4,143.558 157.316,143.525 157.316,143.307C157.316,143.167 157.4,143.056 157.504,143.056C157.937,143.056 157.717,142.443 157.253,142.356C157.001,142.309 156.813,142.199 156.813,142.099C156.813,142.003 156.728,141.925 156.625,141.925C156.521,141.925 156.436,141.84 156.436,141.736C156.436,141.633 156.351,141.548 156.248,141.548C156.143,141.548 156.059,141.436 156.059,141.296C156.059,141.129 155.975,141.045 155.808,141.045C155.668,141.045 155.557,140.961 155.557,140.857C155.557,140.753 155.472,140.668 155.368,140.668C155.263,140.668 155.18,140.556 155.18,140.417C155.18,140.277 155.096,140.165 154.991,140.165C154.887,140.165 154.803,140.081 154.803,139.977C154.803,139.873 154.724,139.788 154.629,139.788C154.533,139.788 154.425,139.675 154.389,139.537C154.353,139.399 154.233,139.286 154.123,139.286C154.013,139.286 153.923,139.201 153.923,139.097C153.923,138.994 153.843,138.909 153.744,138.909C153.646,138.909 153.529,138.739 153.483,138.532C153.438,138.324 153.32,138.155 153.222,138.155C153.124,138.155 153.043,138.07 153.043,137.966C153.043,137.863 152.959,137.778 152.855,137.778C152.75,137.778 152.666,137.666 152.666,137.526C152.666,137.387 152.583,137.275 152.478,137.275C152.374,137.275 152.289,137.19 152.289,137.087C152.289,136.955 152.157,136.898 151.85,136.898C151.542,136.898 151.41,136.955 151.41,137.087C151.41,137.191 151.298,137.275 151.158,137.275C151.019,137.275 150.907,137.359 150.907,137.464C150.907,137.567 150.822,137.652 150.719,137.652C150.516,137.652 150.489,137.801 150.609,138.249C150.651,138.405 150.763,138.532 150.859,138.532C150.954,138.532 151.033,138.617 151.033,138.72C151.033,138.824 151.117,138.909 151.221,138.909C151.326,138.909 151.41,139.02 151.41,139.16C151.41,139.298 151.49,139.411 151.588,139.411C151.686,139.411 151.804,139.581 151.85,139.788C151.895,139.996 152.013,140.165 152.111,140.165C152.209,140.165 152.289,140.278 152.289,140.417C152.289,140.556 152.373,140.668 152.478,140.668C152.604,140.668 152.666,140.794 152.666,141.045C152.666,141.306 152.728,141.422 152.867,141.422C152.977,141.422 153.096,141.535 153.133,141.673C153.169,141.812 153.277,141.925 153.372,141.925C153.482,141.925 153.546,142.064 153.546,142.302C153.546,142.553 153.609,142.679 153.734,142.679C153.866,142.679 153.923,142.811 153.923,143.118C153.923,143.426 153.98,143.558 154.111,143.558C154.238,143.558 154.3,143.685 154.3,143.947C154.3,144.23 154.368,144.354 154.551,144.402C154.69,144.438 154.803,144.545 154.803,144.641C154.803,144.737 154.887,144.815 154.991,144.815C155.096,144.815 155.18,144.927 155.18,145.066C155.18,145.206 155.263,145.318 155.368,145.318C155.522,145.318 155.557,145.534 155.557,146.511C155.557,147.489 155.522,147.705 155.368,147.705C155.263,147.705 155.18,147.817 155.18,147.957C155.18,148.096 155.096,148.208 154.991,148.208C154.887,148.208 154.803,148.293 154.803,148.396C154.803,148.5 154.732,148.586 154.646,148.587C154.559,148.588 154.361,148.622 154.206,148.664C153.946,148.734 153.923,148.698 153.923,148.223C153.923,147.846 153.974,147.705 154.111,147.705C154.237,147.705 154.3,147.58 154.3,147.328C154.3,147.077 154.237,146.951 154.111,146.951C154.008,146.951 153.923,147.031 153.923,147.129C153.923,147.268 153.626,147.315 152.532,147.349C151.365,147.384 151.12,147.427 151.017,147.611C150.95,147.732 150.806,147.831 150.697,147.831C150.533,147.831 150.509,147.953 150.557,148.534C150.628,149.388 150.726,149.46 151.818,149.463C152.487,149.464 152.666,149.504 152.666,149.653C152.666,149.785 152.799,149.842 153.106,149.842C153.413,149.842 153.546,149.898 153.546,150.03C153.546,150.134 153.631,150.219 153.734,150.219C153.879,150.219 153.923,150.379 153.923,150.91C153.923,151.44 153.879,151.601 153.734,151.601C153.631,151.601 153.546,151.686 153.546,151.789C153.546,151.893 153.461,151.978 153.357,151.978C153.254,151.978 153.169,152.063 153.169,152.166C153.169,152.271 153.057,152.355 152.918,152.355C152.714,152.355 152.666,152.439 152.666,152.795C152.666,153.102 152.61,153.234 152.478,153.234C152.356,153.234 152.289,153.357 152.288,153.58C152.285,154.118 152.151,154.491 151.961,154.491C151.84,154.491 151.787,154.653 151.788,155.025C151.79,155.741 151.905,156.125 152.115,156.125C152.249,156.125 152.289,156.358 152.289,157.13C152.289,157.94 152.326,158.135 152.478,158.135C152.604,158.135 152.666,158.01 152.666,157.758C152.666,157.507 152.729,157.381 152.855,157.381C153.015,157.381 153.043,157.067 153.043,155.308C153.043,153.234 153.043,153.234 153.483,153.234C153.902,153.234 153.923,153.255 153.923,153.674C153.923,153.981 153.98,154.114 154.111,154.114C154.251,154.114 154.3,154.261 154.3,154.68C154.3,155.104 154.348,155.245 154.492,155.245C154.598,155.245 154.716,155.326 154.754,155.426C154.792,155.525 154.989,155.643 155.19,155.687C155.392,155.732 155.557,155.848 155.557,155.946C155.557,156.044 155.643,156.125 155.749,156.125C155.855,156.125 155.974,156.21 156.014,156.313C156.054,156.417 156.165,156.502 156.261,156.502C156.358,156.502 156.436,156.615 156.436,156.753C156.436,156.949 156.52,157.004 156.813,157.004C157.065,157.004 157.19,157.067 157.19,157.193C157.19,157.298 157.302,157.381 157.442,157.381C157.609,157.381 157.693,157.465 157.693,157.633C157.693,157.772 157.777,157.884 157.881,157.884C157.985,157.884 158.07,157.969 158.07,158.073C158.07,158.204 158.203,158.261 158.51,158.261C158.866,158.261 158.95,158.213 158.95,158.01ZM143.334,155.496C143.452,155.358 143.621,155.245 143.709,155.245C143.798,155.245 143.87,155.16 143.87,155.057C143.87,154.953 143.955,154.868 144.058,154.868C144.201,154.868 144.247,154.714 144.247,154.24C144.247,153.765 144.201,153.611 144.058,153.611C143.955,153.611 143.87,153.527 143.87,153.423C143.87,153.319 143.785,153.234 143.681,153.234C143.578,153.234 143.493,153.155 143.493,153.057C143.493,152.813 142.652,152.688 141.729,152.795C141.211,152.855 140.98,152.937 140.98,153.058C140.98,153.155 140.897,153.234 140.797,153.234C140.687,153.234 140.581,153.411 140.531,153.674C140.484,153.926 140.374,154.114 140.274,154.114C140.164,154.114 140.1,154.253 140.1,154.491C140.1,154.742 140.163,154.868 140.288,154.868C140.392,154.868 140.477,154.955 140.477,155.061C140.477,155.166 140.576,155.29 140.697,155.336C140.818,155.382 140.991,155.493 141.083,155.584C141.371,155.868 143.071,155.803 143.334,155.496ZM144.247,144.626C144.247,144.484 144.4,144.438 144.875,144.438C145.35,144.438 145.503,144.392 145.503,144.249C145.503,144.146 145.566,144.061 145.643,144.061C145.836,144.061 146.378,143.53 146.381,143.338C146.382,143.252 146.468,143.181 146.572,143.181C146.724,143.181 146.76,142.979 146.76,142.113C146.76,141.247 146.724,141.045 146.572,141.045C146.448,141.045 146.383,140.921 146.383,140.682C146.383,140.367 146.325,140.308 145.943,140.236C145.68,140.187 145.503,140.081 145.503,139.971C145.503,139.642 142.286,139.709 142.2,140.04C142.164,140.178 142.044,140.291 141.934,140.291C141.824,140.291 141.734,140.376 141.734,140.48C141.734,140.583 141.649,140.668 141.545,140.668C141.39,140.668 141.357,140.891 141.357,141.925C141.357,142.927 141.393,143.181 141.535,143.181C141.633,143.181 141.75,143.347 141.795,143.55C141.855,143.827 141.967,143.939 142.244,144C142.447,144.044 142.613,144.161 142.613,144.259C142.613,144.39 142.782,144.438 143.242,144.438C143.716,144.438 143.87,144.484 143.87,144.626C143.87,144.73 143.955,144.815 144.058,144.815C144.162,144.815 144.247,144.73 144.247,144.626ZM169.16,142.303C169.383,142.302 169.505,142.235 169.505,142.113C169.505,142.009 169.59,141.925 169.694,141.925C169.842,141.925 169.882,141.75 169.882,141.104C169.882,140.49 169.835,140.265 169.694,140.211C169.59,140.171 169.505,140.06 169.505,139.963C169.505,139.867 169.392,139.788 169.254,139.788C169.114,139.788 169.003,139.705 169.003,139.6C169.003,139.445 168.779,139.411 167.746,139.411C166.713,139.411 166.489,139.445 166.489,139.6C166.489,139.704 166.405,139.788 166.301,139.788C166.151,139.788 166.112,139.97 166.112,140.668C166.112,141.366 166.151,141.548 166.301,141.548C166.405,141.548 166.489,141.632 166.489,141.736C166.489,141.84 166.574,141.925 166.678,141.925C166.782,141.925 166.866,142.006 166.866,142.106C166.866,142.305 167.617,142.426 168.374,142.349C168.616,142.325 168.97,142.304 169.16,142.303ZM174.249,131.413C174.683,131.361 174.909,131.275 174.909,131.163C174.909,131.069 174.994,130.992 175.097,130.992C175.246,130.992 175.286,130.817 175.286,130.175C175.286,129.533 175.246,129.358 175.097,129.358C174.994,129.358 174.909,129.276 174.909,129.175C174.909,129.066 174.732,128.96 174.469,128.91C174.217,128.863 174.029,128.753 174.029,128.653C174.029,128.527 173.853,128.479 173.401,128.479C172.949,128.479 172.773,128.528 172.773,128.653C172.773,128.753 172.585,128.863 172.333,128.91C172.069,128.96 171.893,129.066 171.893,129.175C171.893,129.276 171.808,129.358 171.704,129.358C171.579,129.358 171.516,129.484 171.516,129.735C171.516,129.973 171.58,130.112 171.69,130.112C171.79,130.112 171.9,130.3 171.947,130.552C171.997,130.815 172.103,130.992 172.213,130.992C172.313,130.992 172.396,131.073 172.396,131.172C172.396,131.335 172.582,131.391 173.401,131.473C173.505,131.484 173.886,131.457 174.249,131.413ZM142.016,169.107C141.861,169.076 141.734,169.003 141.734,168.944C141.734,168.885 141.564,168.799 141.357,168.754C141.149,168.708 140.98,168.591 140.98,168.493C140.98,168.394 140.866,168.314 140.728,168.314C140.589,168.314 140.477,168.23 140.477,168.126C140.477,168.022 140.392,167.937 140.288,167.937C140.185,167.937 140.1,167.857 140.1,167.759C140.1,167.66 139.93,167.543 139.723,167.497C139.516,167.452 139.346,167.334 139.346,167.236C139.346,167.138 139.233,167.057 139.095,167.057C138.955,167.057 138.843,166.974 138.843,166.869C138.843,166.765 138.753,166.681 138.643,166.681C138.533,166.681 138.413,166.567 138.377,166.429C138.331,166.251 138.206,166.178 137.949,166.178C137.711,166.178 137.587,166.113 137.587,165.989C137.587,165.886 137.502,165.801 137.398,165.801C137.294,165.801 137.21,165.723 137.21,165.627C137.21,165.531 137.097,165.424 136.958,165.387C136.82,165.351 136.707,165.232 136.707,165.121C136.707,165.011 136.622,164.921 136.519,164.921C136.415,164.921 136.33,164.836 136.33,164.733C136.33,164.628 136.218,164.544 136.077,164.544C135.939,164.544 135.728,164.431 135.61,164.293C135.491,164.155 135.322,164.042 135.234,164.042C135.146,164.042 135.073,163.957 135.073,163.853C135.073,163.749 134.989,163.665 134.885,163.665C134.781,163.665 134.696,163.58 134.696,163.476C134.696,163.371 134.585,163.288 134.445,163.288C134.305,163.288 134.194,163.204 134.194,163.099C134.194,162.995 134.109,162.911 134.005,162.911C133.901,162.911 133.817,162.799 133.817,162.659C133.817,162.52 133.733,162.408 133.628,162.408C133.525,162.408 133.44,162.33 133.44,162.234C133.44,162.138 133.327,162.031 133.188,161.995C133.05,161.958 132.937,161.839 132.937,161.729C132.937,161.618 132.857,161.528 132.759,161.528C132.66,161.528 132.543,161.359 132.497,161.151C132.452,160.944 132.334,160.774 132.236,160.774C132.138,160.774 132.057,160.689 132.057,160.586C132.057,160.482 131.973,160.397 131.869,160.397C131.764,160.397 131.68,160.286 131.68,160.146C131.68,160.006 131.597,159.895 131.492,159.895C131.388,159.895 131.303,159.81 131.303,159.706C131.303,159.602 131.223,159.518 131.125,159.518C131.027,159.518 130.91,159.353 130.866,159.151C130.822,158.95 130.704,158.753 130.605,158.715C130.505,158.677 130.424,158.559 130.424,158.453C130.424,158.348 130.339,158.261 130.235,158.261C130.131,158.261 130.047,158.149 130.047,158.01C130.047,157.871 129.967,157.758 129.868,157.758C129.77,157.758 129.653,157.589 129.607,157.381C129.561,157.174 129.444,157.004 129.346,157.004C129.225,157.004 129.167,156.861 129.167,156.565C129.167,156.257 129.11,156.125 128.979,156.125C128.853,156.125 128.79,155.999 128.79,155.748C128.79,155.5 128.727,155.371 128.606,155.371C128.48,155.371 128.396,155.174 128.339,154.75C128.293,154.403 128.181,154.1 128.084,154.063C127.968,154.019 127.911,153.786 127.911,153.364C127.911,152.886 127.865,152.732 127.722,152.732C127.574,152.732 127.534,152.557 127.534,151.915C127.534,151.31 127.489,151.098 127.363,151.098C127.193,151.098 127.034,150.273 127.032,149.381C127.031,149.162 126.96,148.959 126.874,148.931C126.624,148.847 126.574,142.302 126.823,142.302C126.962,142.302 127.024,142.013 127.094,141.045C127.162,140.098 127.227,139.788 127.359,139.788C127.49,139.788 127.534,139.586 127.534,138.972C127.534,138.364 127.578,138.155 127.706,138.155C127.817,138.155 127.901,137.95 127.943,137.574C127.979,137.254 128.063,136.957 128.129,136.914C128.195,136.871 128.29,136.666 128.341,136.46C128.392,136.253 128.491,136.048 128.563,136.004C128.634,135.96 128.721,135.662 128.757,135.343C128.8,134.967 128.884,134.762 128.995,134.762C129.103,134.762 129.167,134.62 129.167,134.381C129.167,134.161 129.246,133.97 129.352,133.929C129.454,133.89 129.573,133.665 129.618,133.43C129.663,133.188 129.773,133.003 129.872,133.003C129.982,133.003 130.047,132.863 130.047,132.626C130.047,132.374 130.11,132.249 130.235,132.249C130.367,132.249 130.424,132.116 130.424,131.809C130.424,131.512 130.482,131.369 130.602,131.369C130.701,131.369 130.817,131.204 130.861,131.002C130.906,130.801 131.023,130.605 131.123,130.567C131.225,130.527 131.303,130.332 131.303,130.116C131.303,129.861 131.366,129.735 131.492,129.735C131.596,129.735 131.68,129.649 131.68,129.543C131.68,129.437 131.762,129.319 131.861,129.281C131.961,129.243 132.078,129.047 132.123,128.845C132.167,128.644 132.283,128.479 132.382,128.479C132.48,128.479 132.56,128.366 132.56,128.227C132.56,128.088 132.644,127.976 132.749,127.976C132.874,127.976 132.937,127.85 132.937,127.599C132.937,127.361 133.001,127.222 133.112,127.222C133.211,127.222 133.321,127.036 133.367,126.791C133.411,126.554 133.506,126.341 133.578,126.317C133.649,126.294 133.739,126.035 133.779,125.743C133.825,125.393 133.913,125.211 134.034,125.211C134.135,125.211 134.247,125.098 134.283,124.96C134.369,124.631 135.953,124.572 135.953,124.897C135.953,125.001 136.038,125.086 136.142,125.086C136.291,125.086 136.33,125.267 136.33,125.965C136.33,126.663 136.291,126.845 136.142,126.845C136.01,126.845 135.953,126.978 135.953,127.286C135.953,127.572 135.864,127.803 135.702,127.942C135.563,128.061 135.45,128.258 135.45,128.381C135.45,128.504 135.366,128.604 135.262,128.604C135.136,128.604 135.073,128.73 135.073,128.981C135.073,129.223 135.009,129.358 134.895,129.358C134.797,129.358 134.679,129.528 134.634,129.735C134.588,129.943 134.47,130.112 134.372,130.112C134.274,130.112 134.194,130.225 134.194,130.364C134.194,130.503 134.11,130.615 134.005,130.615C133.88,130.615 133.817,130.741 133.817,130.992C133.817,131.23 133.752,131.369 133.642,131.369C133.542,131.369 133.432,131.557 133.385,131.809C133.336,132.072 133.229,132.249 133.12,132.249C132.995,132.249 132.937,132.387 132.937,132.688C132.937,132.996 132.88,133.128 132.749,133.128C132.617,133.128 132.56,133.261 132.56,133.568C132.56,133.856 132.501,134.008 132.388,134.008C132.281,134.008 132.19,134.207 132.146,134.532C132.107,134.82 131.987,135.106 131.878,135.166C131.768,135.228 131.68,135.441 131.68,135.648C131.68,135.894 131.617,136.018 131.492,136.018C131.35,136.018 131.303,136.172 131.303,136.647C131.303,137.095 131.254,137.275 131.131,137.275C131.019,137.275 130.93,137.495 130.876,137.903C130.818,138.334 130.734,138.532 130.608,138.532C130.465,138.532 130.424,138.715 130.424,139.349C130.424,139.991 130.384,140.165 130.235,140.165C130.082,140.165 130.047,140.368 130.047,141.237C130.047,142.075 130.006,142.325 129.858,142.382C129.575,142.491 129.575,148.585 129.858,148.585C130.011,148.585 130.047,148.787 130.047,149.653C130.047,150.477 130.086,150.721 130.22,150.721C130.343,150.721 130.41,150.949 130.45,151.499C130.481,151.927 130.571,152.299 130.65,152.326C130.73,152.352 130.831,152.649 130.876,152.985C130.921,153.325 131.034,153.626 131.13,153.663C131.242,153.706 131.303,153.931 131.303,154.299C131.303,154.721 131.352,154.868 131.492,154.868C131.624,154.868 131.68,155.001 131.68,155.308C131.68,155.604 131.739,155.748 131.859,155.748C131.957,155.748 132.075,155.917 132.12,156.125C132.166,156.332 132.283,156.502 132.382,156.502C132.48,156.502 132.56,156.615 132.56,156.753C132.56,156.893 132.644,157.004 132.749,157.004C132.873,157.004 132.937,157.128 132.937,157.367C132.937,157.623 133.01,157.748 133.188,157.795C133.327,157.831 133.44,157.951 133.44,158.061C133.44,158.171 133.525,158.261 133.628,158.261C133.732,158.261 133.817,158.346 133.817,158.45C133.817,158.553 133.895,158.638 133.991,158.638C134.091,158.638 134.201,158.826 134.248,159.078C134.298,159.341 134.404,159.518 134.514,159.518C134.614,159.518 134.696,159.602 134.696,159.706C134.696,159.81 134.781,159.895 134.885,159.895C134.989,159.895 135.073,159.979 135.073,160.083C135.073,160.187 135.158,160.272 135.262,160.272C135.367,160.272 135.45,160.383 135.45,160.523C135.45,160.691 135.534,160.774 135.702,160.774C135.841,160.774 135.953,160.858 135.953,160.963C135.953,161.066 136.038,161.151 136.142,161.151C136.246,161.151 136.33,161.263 136.33,161.403C136.33,161.542 136.414,161.654 136.519,161.654C136.622,161.654 136.707,161.739 136.707,161.842C136.707,161.946 136.792,162.031 136.896,162.031C136.999,162.031 137.084,162.116 137.084,162.219C137.084,162.324 137.196,162.408 137.335,162.408C137.503,162.408 137.587,162.492 137.587,162.659C137.587,162.799 137.67,162.911 137.775,162.911C137.879,162.911 137.964,162.995 137.964,163.099C137.964,163.204 138.075,163.288 138.215,163.288C138.355,163.288 138.466,163.371 138.466,163.476C138.466,163.58 138.551,163.665 138.655,163.665C138.758,163.665 138.843,163.745 138.843,163.843C138.843,163.941 139.008,164.058 139.21,164.102C139.411,164.146 139.608,164.264 139.646,164.363C139.684,164.463 139.802,164.544 139.908,164.544C140.013,164.544 140.1,164.629 140.1,164.733C140.1,164.836 140.187,164.921 140.292,164.921C140.398,164.921 140.516,165.003 140.554,165.102C140.592,165.201 140.789,165.319 140.99,165.363C141.192,165.408 141.357,165.524 141.357,165.622C141.357,165.721 141.441,165.801 141.545,165.801C141.649,165.801 141.734,165.886 141.734,165.989C141.734,166.094 141.845,166.178 141.985,166.178C142.125,166.178 142.236,166.262 142.236,166.366C142.236,166.47 142.321,166.555 142.425,166.555C142.529,166.555 142.613,166.667 142.613,166.806C142.613,166.974 142.697,167.058 142.865,167.058C143.004,167.058 143.116,167.141 143.116,167.246C143.116,167.35 143.201,167.435 143.304,167.435C143.447,167.435 143.493,167.588 143.493,168.063C143.493,168.528 143.446,168.691 143.311,168.691C143.21,168.691 143.083,168.771 143.028,168.87C142.912,169.076 142.426,169.19 142.016,169.107ZM190.768,166.29C190.807,165.743 190.884,165.488 191.034,165.404C191.157,165.335 191.245,165.131 191.245,164.915C191.245,164.685 191.311,164.544 191.417,164.544C191.529,164.544 191.613,164.337 191.656,163.951C191.693,163.625 191.783,163.339 191.857,163.314C191.931,163.289 192.028,163.075 192.072,162.839C192.118,162.594 192.228,162.408 192.327,162.408C192.443,162.408 192.502,162.26 192.502,161.968C192.502,161.661 192.559,161.528 192.69,161.528C192.816,161.528 192.879,161.402 192.879,161.147C192.879,160.925 192.957,160.736 193.067,160.694C193.171,160.654 193.257,160.501 193.258,160.352C193.261,159.885 193.405,159.518 193.585,159.518C193.7,159.518 193.758,159.369 193.758,159.078C193.758,158.788 193.817,158.638 193.932,158.638C194.054,158.638 194.122,158.413 194.161,157.874C194.191,157.454 194.274,157.072 194.345,157.026C194.417,156.979 194.507,156.693 194.547,156.389C194.587,156.086 194.686,155.796 194.767,155.746C194.861,155.688 194.939,155.08 194.983,154.067C195.036,152.85 195.091,152.48 195.222,152.48C195.362,152.48 195.392,151.658 195.392,147.831C195.392,143.782 195.416,143.181 195.581,143.181C195.712,143.181 195.769,143.049 195.769,142.741C195.769,142.434 195.826,142.302 195.958,142.302C196.061,142.302 196.146,142.217 196.146,142.113C196.146,141.477 196.628,141.97 196.669,142.647C196.797,144.803 196.616,154.365 196.447,154.365C196.313,154.365 196.272,154.586 196.272,155.299C196.272,155.932 196.215,156.289 196.096,156.409C195.999,156.506 195.879,156.962 195.83,157.423C195.767,158.01 195.688,158.261 195.566,158.261C195.441,158.261 195.392,158.438 195.392,158.889C195.392,159.364 195.346,159.518 195.204,159.518C195.078,159.518 195.015,159.644 195.015,159.899C195.015,160.114 194.937,160.31 194.834,160.349C194.735,160.387 194.615,160.594 194.568,160.809C194.52,161.024 194.404,161.278 194.309,161.373C194.213,161.468 194.135,161.74 194.135,161.977C194.135,162.276 194.078,162.408 193.947,162.408C193.821,162.408 193.758,162.534 193.758,162.789C193.758,163.008 193.68,163.2 193.573,163.241C193.472,163.28 193.352,163.504 193.308,163.74C193.263,163.982 193.152,164.167 193.053,164.167C192.943,164.167 192.879,164.306 192.879,164.544C192.879,164.796 192.816,164.921 192.69,164.921C192.559,164.921 192.502,165.054 192.502,165.361C192.502,165.662 192.444,165.801 192.319,165.801C192.21,165.801 192.103,165.977 192.054,166.241C192.006,166.493 191.897,166.681 191.797,166.681C191.701,166.681 191.622,166.765 191.622,166.869C191.622,167.002 191.488,167.057 191.167,167.057C190.712,167.057 190.712,167.057 190.768,166.29ZM128.79,163.099C128.79,162.995 128.712,162.911 128.616,162.911C128.516,162.911 128.406,162.723 128.359,162.471C128.309,162.207 128.203,162.031 128.093,162.031C127.974,162.031 127.911,161.9 127.911,161.654C127.911,161.403 127.848,161.277 127.722,161.277C127.59,161.277 127.534,161.144 127.534,160.837C127.534,160.546 127.475,160.397 127.359,160.397C127.259,160.397 127.149,160.209 127.102,159.957C127.053,159.694 126.946,159.518 126.837,159.518C126.712,159.518 126.654,159.379 126.654,159.078C126.654,158.771 126.597,158.638 126.465,158.638C126.339,158.638 126.277,158.512 126.277,158.257C126.277,158.042 126.198,157.846 126.096,157.807C125.997,157.769 125.877,157.561 125.829,157.347C125.782,157.132 125.666,156.878 125.57,156.783C125.475,156.687 125.397,156.416 125.397,156.179C125.397,155.879 125.34,155.748 125.209,155.748C125.077,155.748 125.02,155.615 125.02,155.308C125.02,155.005 124.963,154.868 124.836,154.868C124.71,154.868 124.626,154.67 124.569,154.24C124.514,153.832 124.425,153.611 124.313,153.611C124.19,153.611 124.141,153.432 124.141,152.983C124.141,152.508 124.094,152.355 123.952,152.355C123.812,152.355 123.764,152.208 123.764,151.785C123.764,151.408 123.703,151.193 123.584,151.147C123.467,151.102 123.373,150.786 123.315,150.245C123.266,149.787 123.149,149.335 123.055,149.241C122.786,148.972 122.803,139.034 123.072,139.034C123.177,139.034 123.261,138.923 123.261,138.783C123.261,138.616 123.345,138.532 123.512,138.532C123.652,138.532 123.764,138.616 123.764,138.72C123.764,138.824 123.846,138.909 123.946,138.909C124.102,138.909 124.134,139.585 124.166,143.5C124.195,146.998 124.241,148.115 124.36,148.188C124.451,148.244 124.552,148.706 124.601,149.282C124.648,149.837 124.759,150.353 124.853,150.446C124.951,150.544 125.02,150.895 125.02,151.296C125.02,151.818 125.064,151.978 125.209,151.978C125.348,151.978 125.397,152.124 125.397,152.537C125.397,152.92 125.461,153.132 125.599,153.209C125.72,153.277 125.827,153.555 125.867,153.907C125.909,154.286 125.993,154.491 126.105,154.491C126.218,154.491 126.277,154.642 126.277,154.931C126.277,155.219 126.336,155.371 126.449,155.371C126.556,155.371 126.647,155.569 126.691,155.895C126.73,156.183 126.85,156.468 126.959,156.529C127.069,156.591 127.157,156.804 127.157,157.011C127.157,157.256 127.22,157.381 127.345,157.381C127.477,157.381 127.534,157.514 127.534,157.821C127.534,158.128 127.59,158.261 127.722,158.261C127.847,158.261 127.911,158.386 127.911,158.632C127.911,158.838 127.998,159.051 128.108,159.113C128.217,159.174 128.337,159.459 128.376,159.748C128.42,160.073 128.511,160.272 128.618,160.272C128.731,160.272 128.79,160.423 128.79,160.711C128.79,161.019 128.847,161.151 128.979,161.151C129.131,161.151 129.167,161.354 129.167,162.219C129.167,163.085 129.131,163.288 128.979,163.288C128.875,163.288 128.79,163.203 128.79,163.099ZM182.386,128.479C182.34,128.271 182.223,128.102 182.125,128.102C182.026,128.102 181.946,127.989 181.946,127.85C181.946,127.711 181.862,127.599 181.758,127.599C181.654,127.599 181.569,127.514 181.569,127.41C181.569,127.306 181.457,127.222 181.318,127.222C181.18,127.222 181.066,127.142 181.066,127.043C181.066,126.945 180.897,126.828 180.689,126.782C180.482,126.737 180.312,126.619 180.312,126.521C180.312,126.423 180.228,126.342 180.124,126.342C180.02,126.342 179.935,126.258 179.935,126.154C179.935,126.049 179.824,125.965 179.684,125.965C179.544,125.965 179.433,125.882 179.433,125.777C179.433,125.673 179.348,125.588 179.244,125.588C179.141,125.588 179.056,125.504 179.056,125.4C179.056,125.296 178.971,125.211 178.867,125.211C178.764,125.211 178.679,125.121 178.679,125.011C178.679,124.901 178.566,124.781 178.427,124.745C178.289,124.709 178.176,124.601 178.176,124.506C178.176,124.398 178.039,124.332 177.814,124.332C177.557,124.332 177.432,124.258 177.386,124.08C177.35,123.942 177.23,123.829 177.12,123.829C177.01,123.829 176.92,123.744 176.92,123.641C176.92,123.537 176.835,123.452 176.731,123.452C176.627,123.452 176.543,123.367 176.543,123.264C176.543,123.137 176.416,123.075 176.162,123.075C175.939,123.075 175.751,122.997 175.708,122.887C175.669,122.783 175.557,122.698 175.461,122.698C175.365,122.698 175.286,122.616 175.286,122.515C175.286,122.406 175.109,122.299 174.846,122.25C174.594,122.203 174.406,122.093 174.406,121.993C174.406,121.883 174.267,121.818 174.029,121.818C173.783,121.818 173.652,121.755 173.652,121.636C173.652,121.526 173.476,121.42 173.212,121.37C172.961,121.323 172.773,121.213 172.773,121.113C172.773,121.017 172.659,120.939 172.521,120.939C172.382,120.939 172.27,120.855 172.27,120.75C172.27,120.625 172.144,120.562 171.893,120.562C171.655,120.562 171.516,120.497 171.516,120.387C171.516,120.287 171.328,120.177 171.076,120.13C170.813,120.081 170.636,119.974 170.636,119.865C170.636,119.732 170.482,119.682 170.071,119.682C169.652,119.682 169.505,119.633 169.505,119.494C169.505,119.362 169.373,119.305 169.072,119.305C168.808,119.305 168.595,119.228 168.528,119.108C168.467,118.999 168.181,118.878 167.893,118.84C167.568,118.796 167.369,118.704 167.369,118.597C167.369,118.475 167.189,118.425 166.741,118.425C166.266,118.425 166.112,118.379 166.112,118.237C166.112,118.095 165.96,118.048 165.49,118.048C165.101,118.048 164.831,117.985 164.768,117.879C164.711,117.782 164.345,117.676 163.925,117.634C163.517,117.593 163.137,117.486 163.082,117.396C162.916,117.128 158.573,117.083 158.573,117.349C158.573,117.507 158.413,117.546 157.756,117.546C157.113,117.546 156.939,117.506 156.939,117.357C156.939,117.253 156.827,117.169 156.688,117.169C156.52,117.169 156.436,117.085 156.436,116.917C156.436,116.778 156.352,116.666 156.248,116.666C156.144,116.666 156.059,116.61 156.059,116.54C156.059,116.471 156.144,116.415 156.248,116.415C156.352,116.415 156.436,116.303 156.436,116.163C156.436,115.968 156.52,115.912 156.813,115.912C157.049,115.912 157.19,115.848 157.19,115.739C157.19,115.568 157.707,115.41 158.264,115.41C158.422,115.41 158.575,115.339 158.604,115.252C158.643,115.136 159.166,115.095 160.646,115.095C162.126,115.095 162.649,115.136 162.688,115.252C162.717,115.339 162.919,115.41 163.138,115.411C164.031,115.413 164.856,115.572 164.856,115.741C164.856,115.868 165.067,115.912 165.673,115.912C166.315,115.912 166.489,115.952 166.489,116.101C166.489,116.243 166.643,116.289 167.118,116.289C167.586,116.289 167.746,116.336 167.746,116.473C167.746,116.599 167.944,116.684 168.374,116.741C168.782,116.795 169.003,116.885 169.003,116.997C169.003,117.119 169.182,117.169 169.631,117.169C170.106,117.169 170.259,117.215 170.259,117.357C170.259,117.489 170.392,117.546 170.699,117.546C171,117.546 171.139,117.604 171.139,117.729C171.139,117.838 171.315,117.945 171.579,117.994C171.831,118.041 172.019,118.151 172.019,118.251C172.019,118.361 172.158,118.425 172.396,118.425C172.647,118.425 172.773,118.488 172.773,118.614C172.773,118.746 172.905,118.802 173.212,118.802C173.513,118.802 173.652,118.86 173.652,118.985C173.652,119.095 173.829,119.201 174.092,119.251C174.344,119.298 174.532,119.408 174.532,119.508C174.532,119.618 174.671,119.682 174.909,119.682C175.16,119.682 175.286,119.745 175.286,119.871C175.286,119.974 175.372,120.059 175.478,120.059C175.584,120.059 175.702,120.14 175.74,120.24C175.778,120.339 175.974,120.457 176.176,120.501C176.378,120.546 176.543,120.662 176.543,120.76C176.543,120.858 176.656,120.939 176.794,120.939C176.932,120.939 177.045,121.019 177.045,121.117C177.045,121.215 177.215,121.333 177.422,121.379C177.63,121.424 177.799,121.542 177.799,121.64C177.799,121.738 177.884,121.818 177.988,121.818C178.091,121.818 178.176,121.903 178.176,122.007C178.176,122.112 178.288,122.195 178.427,122.195C178.567,122.195 178.679,122.279 178.679,122.384C178.679,122.488 178.764,122.572 178.867,122.572C178.971,122.572 179.056,122.657 179.056,122.761C179.056,122.865 179.146,122.949 179.256,122.949C179.366,122.949 179.486,123.062 179.522,123.201C179.569,123.379 179.693,123.452 179.95,123.452C180.229,123.452 180.312,123.51 180.312,123.705C180.312,123.843 180.426,124.054 180.564,124.172C180.702,124.291 180.815,124.46 180.815,124.548C180.815,124.636 180.9,124.709 181.004,124.709C181.107,124.709 181.192,124.793 181.192,124.897C181.192,125.001 181.277,125.086 181.381,125.086C181.485,125.086 181.569,125.197 181.569,125.337C181.569,125.475 181.649,125.588 181.748,125.588C181.846,125.588 181.966,125.768 182.014,125.99C182.063,126.21 182.18,126.469 182.276,126.564C182.371,126.659 182.449,126.931 182.449,127.168C182.449,127.467 182.506,127.599 182.637,127.599C182.742,127.599 182.826,127.711 182.826,127.85C182.826,127.99 182.91,128.102 183.014,128.102C183.14,128.102 183.203,128.227 183.203,128.479C183.203,128.811 183.16,128.856 182.836,128.856C182.53,128.856 182.455,128.792 182.386,128.479ZM129.293,124.52C129.293,124.417 129.349,124.332 129.418,124.332C129.488,124.332 129.544,124.242 129.544,124.131C129.544,124.021 129.657,123.902 129.795,123.865C129.973,123.819 130.047,123.694 130.047,123.437C130.047,123.232 130.115,123.074 130.204,123.073C130.395,123.07 130.926,122.528 130.926,122.335C130.926,122.258 131.096,122.195 131.303,122.195C131.555,122.195 131.68,122.133 131.68,122.007C131.68,121.903 131.759,121.818 131.854,121.818C131.95,121.818 132.058,121.705 132.094,121.567C132.13,121.429 132.25,121.316 132.36,121.316C132.47,121.316 132.56,121.231 132.56,121.127C132.56,121.002 132.686,120.939 132.937,120.939C133.198,120.939 133.314,120.877 133.314,120.739C133.314,120.628 133.427,120.509 133.565,120.473C133.704,120.436 133.817,120.329 133.817,120.233C133.817,120.137 133.902,120.059 134.005,120.059C134.109,120.059 134.194,119.974 134.194,119.871C134.194,119.739 134.326,119.682 134.634,119.682C134.941,119.682 135.073,119.625 135.073,119.494C135.073,119.39 135.152,119.305 135.247,119.305C135.343,119.305 135.451,119.192 135.487,119.054C135.535,118.871 135.658,118.802 135.941,118.802C136.203,118.802 136.33,118.741 136.33,118.614C136.33,118.488 136.456,118.425 136.707,118.425C136.945,118.425 137.084,118.361 137.084,118.251C137.084,118.151 137.272,118.041 137.524,117.994C137.787,117.945 137.964,117.838 137.964,117.729C137.964,117.603 138.102,117.546 138.403,117.546C138.711,117.546 138.843,117.489 138.843,117.357C138.843,117.209 139.018,117.169 139.66,117.169C140.302,117.169 140.477,117.129 140.477,116.98C140.477,116.825 140.7,116.792 141.734,116.792C142.767,116.792 142.99,116.825 142.99,116.98C142.99,117.106 142.865,117.169 142.613,117.169C142.366,117.169 142.236,117.232 142.236,117.353C142.236,117.479 142.038,117.563 141.608,117.621C141.2,117.675 140.98,117.764 140.98,117.876C140.98,117.989 140.829,118.048 140.54,118.048C140.233,118.048 140.1,118.105 140.1,118.237C140.1,118.379 139.946,118.425 139.472,118.425C139.006,118.425 138.843,118.473 138.843,118.608C138.843,118.718 138.667,118.824 138.403,118.874C138.152,118.921 137.964,119.031 137.964,119.131C137.964,119.241 137.825,119.305 137.587,119.305C137.335,119.305 137.21,119.368 137.21,119.494C137.21,119.598 137.098,119.682 136.958,119.682C136.82,119.682 136.707,119.762 136.707,119.861C136.707,119.959 136.542,120.075 136.341,120.12C136.139,120.164 135.943,120.282 135.905,120.381C135.866,120.48 135.749,120.562 135.643,120.562C135.537,120.562 135.45,120.647 135.45,120.75C135.45,120.876 135.325,120.939 135.073,120.939C134.836,120.939 134.696,121.003 134.696,121.113C134.696,121.208 134.583,121.316 134.445,121.352C134.307,121.388 134.194,121.508 134.194,121.618C134.194,121.757 134.078,121.818 133.817,121.818C133.565,121.818 133.44,121.881 133.44,122.007C133.44,122.112 133.328,122.195 133.188,122.195C133.049,122.195 132.937,122.279 132.937,122.384C132.937,122.488 132.865,122.572 132.777,122.572C132.688,122.572 132.519,122.686 132.401,122.824C132.282,122.962 132.072,123.075 131.933,123.075C131.792,123.075 131.68,123.159 131.68,123.264C131.68,123.367 131.596,123.452 131.492,123.452C131.388,123.452 131.303,123.53 131.303,123.626C131.303,123.721 131.19,123.829 131.052,123.865C130.914,123.902 130.801,124.021 130.801,124.131C130.801,124.242 130.716,124.332 130.612,124.332C130.509,124.332 130.424,124.417 130.424,124.52C130.424,124.66 130.277,124.709 129.858,124.709C129.439,124.709 129.293,124.66 129.293,124.52ZM184.962,123.892C184.962,123.536 184.914,123.452 184.711,123.452C184.571,123.452 184.459,123.368 184.459,123.264C184.459,123.16 184.375,123.075 184.271,123.075C184.167,123.075 184.082,122.997 184.082,122.901C184.082,122.806 183.969,122.698 183.831,122.662C183.693,122.626 183.58,122.506 183.58,122.396C183.58,122.286 183.495,122.195 183.391,122.195C183.288,122.195 183.203,122.111 183.203,122.007C183.203,121.903 183.118,121.818 183.014,121.818C182.911,121.818 182.826,121.734 182.826,121.63C182.826,121.526 182.741,121.441 182.637,121.441C182.533,121.441 182.449,121.33 182.449,121.19C182.449,121.023 182.365,120.939 182.197,120.939C182.058,120.939 181.946,120.855 181.946,120.75C181.946,120.647 181.861,120.562 181.758,120.562C181.654,120.562 181.569,120.481 181.569,120.383C181.569,120.285 181.399,120.167 181.192,120.122C180.985,120.076 180.815,119.959 180.815,119.861C180.815,119.762 180.702,119.682 180.564,119.682C180.424,119.682 180.312,119.598 180.312,119.494C180.312,119.39 180.228,119.305 180.124,119.305C180.02,119.305 179.935,119.227 179.935,119.131C179.935,119.036 179.822,118.928 179.684,118.892C179.546,118.856 179.433,118.736 179.433,118.626C179.433,118.487 179.317,118.425 179.056,118.425C178.804,118.425 178.679,118.363 178.679,118.237C178.679,118.132 178.567,118.048 178.427,118.048C178.289,118.048 178.176,117.968 178.176,117.87C178.176,117.772 178.006,117.654 177.799,117.609C177.592,117.563 177.422,117.446 177.422,117.347C177.422,117.249 177.309,117.169 177.171,117.169C177.031,117.169 176.919,117.085 176.919,116.98C176.919,116.877 176.835,116.792 176.731,116.792C176.599,116.792 176.543,116.659 176.543,116.352C176.543,115.933 176.563,115.912 176.982,115.912C177.29,115.912 177.422,115.969 177.422,116.101C177.422,116.243 177.576,116.289 178.05,116.289C178.517,116.289 178.679,116.336 178.679,116.472C178.679,116.581 178.855,116.688 179.119,116.737C179.371,116.785 179.558,116.894 179.558,116.994C179.558,117.104 179.698,117.169 179.935,117.169C180.173,117.169 180.312,117.233 180.312,117.343C180.312,117.438 180.426,117.546 180.564,117.582C180.702,117.618 180.815,117.738 180.815,117.848C180.815,117.958 180.9,118.048 181.004,118.048C181.107,118.048 181.192,118.133 181.192,118.237C181.192,118.361 181.316,118.425 181.554,118.425C181.811,118.425 181.936,118.499 181.982,118.677C182.019,118.815 182.138,118.928 182.248,118.928C182.359,118.928 182.449,119.013 182.449,119.117C182.449,119.22 182.534,119.305 182.637,119.305C182.741,119.305 182.826,119.39 182.826,119.494C182.826,119.597 182.911,119.682 183.014,119.682C183.118,119.682 183.203,119.754 183.203,119.843C183.203,119.931 183.316,120.1 183.454,120.218C183.592,120.337 183.705,120.547 183.705,120.686C183.705,120.827 183.789,120.939 183.894,120.939C183.998,120.939 184.082,121.024 184.082,121.127C184.082,121.231 184.165,121.316 184.265,121.316C184.375,121.316 184.481,121.492 184.53,121.756C184.578,122.007 184.688,122.195 184.787,122.195C184.903,122.195 184.962,122.344 184.962,122.635C184.962,122.942 185.019,123.075 185.15,123.075C185.293,123.075 185.339,123.229 185.339,123.703C185.339,124.178 185.293,124.332 185.15,124.332C185.019,124.332 184.962,124.199 184.962,123.892Z" style="fill-rule:nonzero;"/>
    </g>
</svg>
