<?xml version="1.0" encoding="UTF-8" standalone="no"?>
<!DOCTYPE svg PUBLIC "-//W3C//DTD SVG 1.1//EN" "http://www.w3.org/Graphics/SVG/1.1/DTD/svg11.dtd">
<svg width="100%" height="100%" viewBox="0 0 234 249" version="1.1" xmlns="http://www.w3.org/2000/svg" xmlns:xlink="http://www.w3.org/1999/xlink" xml:space="preserve" xmlns:serif="http://www.serif.com/" style="fill-rule:evenodd;clip-rule:evenodd;stroke-linejoin:round;stroke-miterlimit:2;">
    <g id="g1" transform="matrix(3.70565,0,0,3.70565,-379.735,-393.487)">
        <path id="path4" d="M152.556,172.404C152.35,172.162 152.191,171.756 151.923,170.789C151.74,170.13 151.765,169.724 151.988,169.724C152.047,169.724 152.096,169.616 152.096,169.484C152.096,169.192 152.017,169.187 151.418,169.439C150.643,169.767 149.66,169.959 149.42,169.831C149.129,169.675 149.148,169.547 149.549,168.961C150.328,167.824 150.651,167.211 150.651,166.867C150.651,166.726 150.554,166.704 150.199,166.765C148.921,166.986 148.849,166.986 148.766,166.77C148.706,166.614 148.906,166.352 149.55,165.742C150.026,165.292 150.558,164.82 150.732,164.694L151.048,164.463L150.744,163.813C150.577,163.455 150.38,162.94 150.306,162.67C150.037,161.688 149.408,161.497 148.242,162.043C147.175,162.541 145.86,162.869 144.602,162.948C143.416,163.023 143.184,162.927 143.184,162.36C143.184,162.088 143.277,161.955 143.6,161.765C144.132,161.45 144.881,160.327 144.925,159.777C144.971,159.196 145.471,158.698 146.113,158.594C146.39,158.549 146.963,158.498 147.385,158.481C148.093,158.452 148.186,158.416 148.541,158.028C149.012,157.514 149.76,156.257 149.993,155.587C150.226,154.92 150.212,154.44 149.94,153.683C149.814,153.333 149.68,152.748 149.642,152.384C149.604,152.019 149.544,151.514 149.508,151.26C149.456,150.897 149.396,145.611 149.431,144.496C149.435,144.363 149.443,143.848 149.448,143.352C149.454,142.855 149.51,142.397 149.573,142.334C149.636,142.271 149.687,142.129 149.687,142.018C149.687,141.739 149.992,141.511 150.254,141.595C150.373,141.633 150.683,141.854 150.944,142.086C151.204,142.319 151.485,142.509 151.569,142.509C151.923,142.509 151.812,142.262 151.221,141.734C150.039,140.679 149.687,140.294 149.678,140.047C149.609,138.28 149.828,137.069 150.303,136.595C150.518,136.379 150.521,136.337 150.344,135.914C150.241,135.667 150.028,135.328 149.872,135.163C149.354,134.614 148.603,133.546 148.603,133.357C148.603,133.255 148.468,132.972 148.302,132.728C148.137,132.485 148.001,132.226 148.001,132.154C148.001,132.081 147.886,131.867 147.746,131.677C147.578,131.45 147.493,131.161 147.498,130.833C147.504,130.409 147.473,130.344 147.291,130.402C146.765,130.569 145.992,130.496 145.429,130.226C144.596,129.827 144.39,129.43 144.389,128.228L144.389,127.255L144.008,127.255C143.733,127.255 143.534,127.149 143.286,126.872C142.877,126.414 142.872,126.323 143.19,125.231C143.443,124.365 143.509,124.167 143.941,122.977C144.166,122.356 144.175,122.227 144.037,121.592C143.953,121.207 143.781,120.603 143.655,120.249C143.528,119.896 143.425,119.471 143.425,119.305C143.425,119.139 143.35,118.859 143.257,118.683C143.165,118.507 143.003,118.065 142.899,117.701C142.794,117.337 142.544,116.524 142.344,115.894C141.908,114.523 141.883,114.05 142.233,113.804C142.543,113.587 142.481,113.186 141.966,112.076C141.775,111.665 141.619,111.244 141.619,111.14C141.619,110.894 142.183,110.683 142.642,110.756C143.089,110.828 145.024,110.537 146.075,110.24C146.505,110.118 147.356,109.878 147.965,109.705C148.574,109.533 149.182,109.392 149.316,109.392C149.449,109.392 149.75,109.3 149.984,109.189C150.403,108.989 150.526,108.755 150.289,108.609C150.098,108.49 150.141,107.157 150.342,106.99C150.555,106.813 151.143,106.793 151.847,106.937C152.32,107.035 152.419,107.116 152.716,107.647C152.9,107.978 153.053,108.412 153.055,108.612C153.057,108.813 153.22,109.355 153.417,109.817C153.614,110.278 153.777,110.795 153.779,110.965C153.781,111.134 153.89,111.498 154.023,111.772C154.155,112.046 154.264,112.432 154.264,112.63C154.264,112.828 154.318,113.024 154.384,113.065C154.45,113.106 154.504,113.319 154.504,113.539C154.504,113.759 154.586,114.133 154.685,114.371C154.784,114.609 154.866,115.098 154.866,115.46L154.866,116.116L155.697,116.878C156.154,117.298 156.881,118.129 157.312,118.725C159.369,121.568 160.003,122.391 160.239,122.522C160.38,122.599 160.614,122.874 160.759,123.132C160.904,123.391 161.102,123.602 161.199,123.602C161.757,123.602 161.325,124.516 160.332,125.436C160.027,125.719 159.591,126.123 159.362,126.334C159.133,126.546 158.692,126.838 158.381,126.985C158.07,127.131 157.702,127.353 157.563,127.478C157.246,127.762 155.886,128.261 154.997,128.419C154.627,128.485 154.026,128.599 153.661,128.673C152.916,128.824 151.232,128.745 150.554,128.528C149.337,128.138 148.466,127.714 148.018,127.294C147.268,126.588 146.766,125.562 147.375,125.978C147.488,126.056 148.23,126.455 149.025,126.866C150.363,127.558 150.564,127.625 151.735,127.774C152.916,127.924 153.061,127.918 153.954,127.688C154.48,127.553 155.314,127.256 155.808,127.028C156.302,126.799 156.755,126.613 156.816,126.613C157.178,126.613 159.803,124.64 159.803,124.368C159.803,124.293 159.939,124.143 160.104,124.034C160.27,123.926 160.405,123.791 160.405,123.736C160.405,123.68 160.189,123.491 159.925,123.316C159.467,123.013 158.452,121.834 157.936,121.006C156.843,119.249 156.356,118.684 155.858,118.59C155.616,118.545 155.133,118.378 154.786,118.218C154.208,117.954 154.11,117.942 153.641,118.083C153.079,118.251 152.785,118.517 150.908,120.551C149.587,121.984 148.685,123.237 148.41,124.023C148.041,125.073 147.744,125.649 147.57,125.649C147.329,125.649 147.309,125.403 147.484,124.571C147.677,123.65 148.441,122.173 149.04,121.565C149.273,121.327 149.537,120.998 149.625,120.832C149.792,120.519 151.806,118.553 152.412,118.111C152.602,117.972 153.047,117.763 153.4,117.646C154.029,117.439 154.056,117.44 154.764,117.698C155.162,117.843 155.518,117.932 155.554,117.896C155.591,117.859 155.531,117.692 155.421,117.524C155.208,117.199 154.597,116.776 153.734,116.357L153.205,116.1L152.787,116.359C152.556,116.501 152.049,116.949 151.66,117.353C150.812,118.234 150.88,118.169 149.787,119.146C149.01,119.842 147.75,121.095 146.487,122.428C146.087,122.85 146.065,122.914 146.142,123.428C146.21,123.884 146.183,124.021 145.98,124.241C145.846,124.386 145.596,124.841 145.425,125.252C145.071,126.1 145.117,126.404 145.686,126.966C145.866,127.144 146.204,127.526 146.436,127.815C147.977,129.731 149.918,130.957 151.062,130.739C151.224,130.708 151.634,130.774 151.972,130.887C152.823,131.169 153.983,131.045 154.162,130.653C154.236,130.492 154.689,130.18 155.297,129.873C155.854,129.592 156.34,129.313 156.377,129.252C156.415,129.191 156.556,129.142 156.69,129.142C156.825,129.142 157.073,129.033 157.241,128.901C157.41,128.768 157.609,128.66 157.684,128.66C157.759,128.66 158.118,128.497 158.481,128.299C158.844,128.1 159.303,127.86 159.502,127.766C160.099,127.482 161.32,126.062 161.787,125.107C161.917,124.842 162.201,124.473 162.419,124.286C162.992,123.792 162.949,123.442 162.262,123.006C161.959,122.814 161.511,122.623 161.267,122.581C161.022,122.54 160.742,122.454 160.644,122.389C160.491,122.289 160.499,122.247 160.699,122.094C160.97,121.888 161.34,121.874 162.066,122.041C163.643,122.405 164.522,123.936 163.58,124.677C163.205,124.972 162.832,125.49 162.266,126.501C161.952,127.061 161.653,127.408 161.244,127.688C160.925,127.905 160.542,128.213 160.393,128.371C160.244,128.53 160.064,128.661 159.993,128.662C159.922,128.663 159.728,128.771 159.562,128.901C159.397,129.03 159.17,129.137 159.058,129.139C158.709,129.144 158.696,129.361 159.015,129.83C159.342,130.312 159.427,131.135 159.209,131.71C159.147,131.872 159.079,132.321 159.058,132.706L159.02,133.406L159.803,133.542C160.604,133.682 161.481,133.907 161.911,134.084C162.043,134.139 162.368,134.247 162.633,134.324C162.898,134.401 163.315,134.567 163.56,134.693C163.805,134.819 164.192,134.922 164.42,134.922C164.807,134.922 164.981,135.075 164.981,135.413C164.981,135.473 164.735,135.639 164.435,135.78C164.113,135.931 163.814,136.179 163.709,136.383C163.611,136.573 163.486,136.728 163.432,136.728C163.377,136.728 163.053,137.318 162.71,138.04C162.368,138.761 162.011,139.415 161.917,139.493C161.822,139.571 161.711,139.792 161.669,139.983C161.627,140.175 161.363,140.681 161.082,141.109C160.801,141.537 160.494,142.122 160.4,142.409C160.184,143.071 159.18,144.074 158.731,144.076C158.383,144.078 158.275,144.139 157.961,144.512C157.761,144.748 157.76,144.784 157.939,144.963C158.047,145.07 158.259,145.158 158.412,145.158C158.565,145.158 158.753,145.235 158.831,145.328C158.946,145.467 158.899,145.513 158.575,145.583C158.356,145.629 158.11,145.722 158.028,145.788C157.946,145.854 157.729,145.878 157.546,145.84C157.364,145.803 156.933,145.719 156.589,145.654C155.946,145.533 154.778,145.213 154.288,145.024C153.817,144.842 153.55,144.897 153.489,145.188C153.326,145.967 153.212,147.64 153.313,147.763C153.375,147.838 153.587,147.931 153.785,147.971C154.067,148.027 154.143,148.106 154.143,148.342C154.143,148.668 154.038,148.79 153.462,149.131C153.111,149.339 153.078,149.412 153.04,150.094C153.018,150.499 153.051,150.882 153.114,150.945C153.176,151.008 153.408,151.059 153.629,151.059C153.876,151.059 154.057,151.129 154.1,151.241C154.2,151.502 153.814,152.031 153.412,152.183C152.92,152.369 152.894,152.652 153.106,155.507C153.17,156.355 153,156.932 152.544,157.417L152.282,157.696L152.58,158.223C153.677,160.157 153.94,160.573 154.065,160.573C154.196,160.573 155.138,159.786 156.037,158.926C156.573,158.414 156.672,158.081 156.672,156.802C156.672,155.872 156.763,155.211 157.094,153.708C157.116,153.609 157.188,153.311 157.255,153.046C157.66,151.43 157.782,150.973 157.868,150.758C157.921,150.626 158.055,150.165 158.167,149.734C158.682,147.746 158.759,147.495 158.915,147.316C159.006,147.212 159.081,146.958 159.081,146.751C159.081,146.545 159.141,146.34 159.214,146.294C159.298,146.242 159.319,146.032 159.269,145.723C159.196,145.268 159.222,145.206 159.639,144.835C160.138,144.391 160.258,144.361 160.583,144.599C160.799,144.757 160.799,144.783 160.594,145.352C160.477,145.676 160.192,146.591 159.96,147.386C159.104,150.325 158.826,151.261 158.546,152.143C158.148,153.397 157.97,154.573 158.017,155.635C158.055,156.495 158.072,156.54 158.358,156.579C158.793,156.637 158.827,156.713 158.717,157.381C158.637,157.869 158.662,158.077 158.85,158.473C158.977,158.742 159.081,159.056 159.081,159.169C159.081,159.283 159.163,159.574 159.264,159.815C159.389,160.114 159.408,160.293 159.324,160.377C159.257,160.445 159.201,160.601 159.201,160.724C159.201,161.054 158.51,162.282 157.919,163.002C157.546,163.457 157.421,163.705 157.468,163.894C157.515,164.082 157.358,164.395 156.907,165.013C156.563,165.485 156.231,165.871 156.17,165.871C156.108,165.871 155.983,166.048 155.892,166.263C155.801,166.478 155.48,166.894 155.18,167.187C154.546,167.805 154.471,168.069 154.235,170.506C154.105,171.846 154.052,172.076 153.866,172.112C153.448,172.192 153.3,171.91 153.3,171.033C153.3,170.087 153.08,169.243 152.833,169.243C152.698,169.243 152.681,169.427 152.743,170.201C152.785,170.727 152.874,171.3 152.94,171.473C153.005,171.646 153.059,171.974 153.059,172.202C153.059,172.663 152.848,172.748 152.556,172.405L152.556,172.404ZM151.782,168.45C152.163,168.276 152.504,168.057 152.539,167.964C152.575,167.872 152.517,167.612 152.41,167.387C152.304,167.162 152.216,166.926 152.216,166.862C152.216,166.798 152.099,166.597 151.955,166.414C151.708,166.1 151.684,166.094 151.533,166.3C151.445,166.421 151.373,166.642 151.373,166.793C151.373,167.03 151.01,167.946 150.623,168.687C150.519,168.886 150.54,168.905 150.797,168.841C150.958,168.8 151.402,168.624 151.782,168.45ZM153.944,166.637C154.132,166.254 154.373,165.94 154.506,165.905C154.69,165.857 154.715,165.798 154.622,165.625C154.457,165.316 154.476,164.907 154.655,164.907C155.015,164.907 157.154,162.517 157.154,162.114C157.154,162.021 157.204,161.893 157.265,161.831C157.327,161.768 157.575,161.365 157.816,160.936C158.34,160.006 158.489,159.155 158.183,158.849C157.882,158.547 157.775,158.588 157.167,159.237C156.861,159.563 156.327,160.131 155.978,160.501C155.312,161.207 154.052,161.947 153.728,161.822C153.625,161.783 153.541,161.615 153.541,161.45C153.541,161.275 153.215,160.681 152.764,160.034C151.93,158.838 151.104,157.352 150.967,156.8C150.859,156.365 150.665,156.435 150.331,157.028C150.185,157.288 149.974,157.66 149.862,157.853C149.672,158.183 149.672,158.226 149.865,158.554C149.979,158.746 150.037,158.937 149.995,158.979C149.878,159.097 148.649,159.226 147.543,159.237C146.275,159.25 145.833,159.448 145.833,160.003C145.833,160.217 145.716,160.581 145.574,160.813C145.432,161.045 145.212,161.418 145.086,161.642L144.855,162.05L145.314,161.969C146.875,161.693 147.815,161.417 148.368,161.073C149.072,160.636 149.072,160.636 149.527,160.864C149.714,160.958 150.084,161.08 150.349,161.135C150.72,161.211 150.84,161.297 150.869,161.506C150.891,161.655 151.125,161.953 151.39,162.168C153.055,163.517 153.448,163.886 153.261,163.922C153.152,163.943 152.687,163.755 152.226,163.503C151.766,163.251 151.346,163.088 151.293,163.14C151.241,163.193 151.341,163.517 151.515,163.861C151.69,164.205 152.139,165.117 152.513,165.887C152.887,166.658 153.222,167.318 153.258,167.354C153.408,167.505 153.634,167.268 153.944,166.637ZM152.289,156.776C152.469,156.502 152.474,156.272 152.344,154.338C152.211,152.362 152.177,152.169 151.889,151.748L151.577,151.294L151.862,150.991C152.257,150.57 152.222,149.428 151.791,148.692C151.627,148.413 151.494,148.163 151.494,148.135C151.494,148.106 151.646,147.924 151.832,147.73C152.162,147.384 152.169,147.347 152.135,146.192C152.106,145.239 152.14,144.94 152.308,144.654C152.492,144.342 152.495,144.286 152.337,144.197C152.237,144.141 151.941,143.925 151.678,143.716C150.932,143.122 150.918,143.189 150.978,147.054C151.035,150.781 151.064,151.377 151.235,152.504C151.417,153.694 151.703,155.125 151.787,155.261C151.829,155.328 151.781,155.578 151.681,155.817C151.563,156.1 151.538,156.321 151.609,156.454C151.668,156.567 151.746,156.753 151.782,156.869C151.874,157.165 152.057,157.131 152.289,156.776ZM158.27,142.788C158.484,142.478 158.808,142.051 158.99,141.839C159.234,141.555 159.321,141.323 159.321,140.964C159.321,140.695 159.267,140.442 159.201,140.401C159.02,140.289 159.056,139.921 159.289,139.516C159.466,139.207 159.475,139.093 159.349,138.745C159.267,138.52 159.201,138.216 159.201,138.068C159.201,137.92 159.121,137.645 159.024,137.456C158.871,137.161 158.87,137.094 159.017,136.972C159.28,136.753 159.737,136.868 159.779,137.163C159.799,137.303 159.975,137.57 160.17,137.757C160.366,137.944 160.525,138.169 160.525,138.256C160.525,138.654 160.875,138.343 161.23,137.631C161.444,137.2 161.671,136.848 161.733,136.848C161.796,136.848 162.147,136.577 162.514,136.245L163.18,135.641L162.846,135.503C162.663,135.427 162.244,135.238 161.917,135.083C161.589,134.928 161.21,134.799 161.074,134.797C160.938,134.795 160.691,134.715 160.525,134.62C160.214,134.442 159.368,134.383 159.025,134.515C158.724,134.63 158.329,135.512 158.337,136.051C158.347,136.744 158.05,137.156 157.283,137.519C156.703,137.794 156.473,137.832 155.471,137.822C154.84,137.816 154.134,137.778 153.902,137.739C153.192,137.619 151.869,137.209 151.792,137.085C151.657,136.867 151.271,136.968 151.02,137.287C150.778,137.594 150.776,137.617 150.981,137.935C151.097,138.117 151.436,138.451 151.734,138.678C152.032,138.905 152.547,139.299 152.878,139.553C154.057,140.459 155.762,140.981 157.137,140.856C157.762,140.799 157.876,140.819 157.876,140.982C157.876,141.27 156.996,141.46 155.949,141.396C154.372,141.301 153.024,140.63 151.453,139.157C151,138.733 150.585,138.433 150.531,138.49C150.476,138.548 150.413,138.868 150.39,139.202L150.349,139.81L151.132,140.53C152.438,141.732 153.63,142.508 154.169,142.508C154.308,142.508 154.671,142.657 154.975,142.839C155.379,143.081 155.755,143.189 156.371,143.241C157.964,143.376 157.844,143.404 158.27,142.788ZM157.057,135.086C157.31,134.91 157.515,134.668 157.515,134.544C157.515,134.283 157.486,134.278 156.872,134.449C156.485,134.556 156.372,134.544 156.184,134.373C156.026,134.231 155.857,134.193 155.623,134.25C155.438,134.294 155.097,134.349 154.866,134.372C153.528,134.505 153.059,134.604 153.059,134.753C153.059,135.179 154.01,135.229 154.77,134.845C155.065,134.695 155.119,134.704 155.334,134.934C155.534,135.149 156.015,135.34 156.485,135.391C156.548,135.398 156.805,135.26 157.057,135.086ZM152.207,133.908C152.496,133.748 152.494,133.746 152.026,133.691C151.767,133.661 151.459,133.594 151.343,133.543C150.995,133.39 151.1,133.692 151.464,133.889C151.867,134.108 151.848,134.107 152.207,133.908ZM153.715,132.914C153.647,132.721 153.4,132.486 153.096,132.325C152.646,132.088 152.565,132.078 152.344,132.232C151.948,132.51 152.044,132.715 152.603,132.79C152.965,132.839 153.177,132.949 153.342,133.175C153.636,133.579 153.887,133.402 153.715,132.914ZM155.558,132.974C155.778,132.861 155.872,132.875 156.064,133.049C156.291,133.255 156.302,133.252 156.376,132.959C156.482,132.535 156.247,132.152 155.88,132.152C155.714,132.152 155.37,132.258 155.116,132.388C154.766,132.566 154.641,132.712 154.6,132.987C154.538,133.409 154.705,133.519 155.046,133.28C155.179,133.187 155.409,133.049 155.558,132.974ZM157.57,132.253C158.193,131.968 157.712,131.541 156.882,131.642C156.316,131.71 156.234,131.834 156.547,132.147C156.825,132.425 157.124,132.456 157.57,132.253ZM146.6,120.992C147.101,120.35 147.1,120.353 146.841,119.627C146.734,119.329 146.604,118.923 146.552,118.724C146.5,118.525 146.363,118.038 146.25,117.64C145.976,116.688 145.837,115.921 145.723,114.75C145.672,114.22 145.557,113.615 145.468,113.405C145.255,112.901 145.454,112.643 146.059,112.642C146.719,112.642 148.849,112.202 149.942,111.841C151.054,111.473 152.378,110.719 152.438,110.419C152.495,110.135 152.219,109.512 152.036,109.512C151.953,109.512 151.821,109.589 151.742,109.683C151.664,109.777 151.373,109.892 151.095,109.938C150.818,109.984 150.428,110.105 150.229,110.208C149.86,110.398 148.44,110.815 147.038,111.146C146.607,111.248 145.966,111.413 145.612,111.515C145.259,111.616 144.584,111.72 144.113,111.747C142.914,111.815 142.882,111.873 143.319,113.185C143.518,113.781 143.755,114.539 143.846,114.87C143.937,115.202 144.146,115.879 144.309,116.376C144.472,116.873 144.726,117.685 144.873,118.182C145.019,118.679 145.214,119.325 145.306,119.619C145.397,119.912 145.473,120.237 145.473,120.341C145.474,120.445 145.555,120.686 145.654,120.875C145.753,121.065 145.834,121.295 145.834,121.387C145.834,121.717 146.171,121.544 146.6,120.992ZM148.539,119.176C148.881,118.861 149.509,118.319 149.936,117.972C150.362,117.624 151.143,116.986 151.671,116.552C152.199,116.119 152.768,115.736 152.935,115.701C153.612,115.558 153.782,115.429 153.782,115.055C153.782,114.64 153.615,113.865 153.303,112.823C153.183,112.426 153.052,111.952 153.01,111.769C152.912,111.342 152.673,111.35 152.113,111.8C151.866,111.999 151.358,112.269 150.986,112.4C150.303,112.64 147.876,113.157 146.707,113.312C146.027,113.402 146.018,113.417 146.186,114.074C146.248,114.313 146.389,115.078 146.499,115.774C146.61,116.469 146.804,117.363 146.93,117.761C147.057,118.158 147.253,118.768 147.365,119.115C147.487,119.492 147.64,119.748 147.744,119.748C147.84,119.748 148.197,119.49 148.539,119.176ZM120.136,167.069C119.962,166.874 119.763,166.714 119.694,166.714C119.625,166.714 119.495,166.538 119.405,166.322C119.315,166.107 119.037,165.768 118.788,165.57C118.227,165.123 118.015,164.914 118.015,164.808C118.015,164.639 116.969,163.611 116.715,163.53C116.569,163.484 116.45,163.366 116.45,163.267C116.45,163.169 116.293,163.034 116.1,162.967C115.836,162.875 115.701,162.707 115.546,162.28C115.433,161.97 115.352,161.581 115.365,161.415C115.394,161.046 115.401,160.628 115.385,160.151C115.379,159.952 115.401,159.22 115.434,158.525C115.507,156.971 115.508,156.844 115.451,155.901C115.426,155.484 115.45,155.115 115.506,155.081C115.816,154.889 115.12,153.708 114.697,153.708C114.161,153.708 114.105,153.952 114.085,156.404C114.074,157.67 114.061,159.058 114.055,159.488C114.049,159.919 114.049,160.697 114.053,161.218C114.063,162.284 113.928,162.565 113.626,162.105C113.428,161.801 113.02,160.55 112.833,159.669C112.777,159.404 112.615,158.727 112.474,158.164C112.265,157.332 112.205,156.642 112.153,154.491L112.089,151.841L111.523,151.239C111.006,150.688 110.549,149.917 110.549,149.596C110.549,149.285 111.747,147.99 112.747,147.22C113.123,146.931 113.516,146.562 113.622,146.402C113.799,146.131 113.795,146.061 113.569,145.458C113.165,144.376 113.061,141.685 113.258,137.39C113.298,136.529 113.382,135.667 113.445,135.475C113.601,135 113.589,134.277 113.422,134.11C113.336,134.024 113.281,133.405 113.273,132.43C113.26,130.866 113.329,130.458 113.826,129.162C114.127,128.375 113.997,128.149 113.486,128.576C113.295,128.736 113.017,128.905 112.87,128.951C112.723,128.997 112.533,129.178 112.448,129.354C112.216,129.837 111.037,130.224 109.368,130.365C107.732,130.504 107.067,130.341 106.27,129.606C105.992,129.35 105.706,129.141 105.634,129.141C105.562,129.141 105.351,128.938 105.166,128.689C104.98,128.441 104.734,128.167 104.618,128.08C104.502,127.994 104.407,127.858 104.407,127.779C104.406,127.7 104.223,127.272 104,126.828C103.776,126.384 103.554,125.762 103.507,125.445C103.459,125.128 103.344,124.722 103.251,124.542C103.042,124.137 103.038,123.368 103.242,122.578L103.398,121.976L104.342,121.94C104.888,121.92 105.34,121.958 105.413,122.03C105.715,122.333 106.158,122.164 106.608,121.573C106.853,121.252 107.365,120.712 107.747,120.373C108.129,120.034 108.613,119.592 108.822,119.39C109.401,118.834 110.685,118.303 111.448,118.303C111.855,118.303 112.136,118.365 112.228,118.476C112.459,118.754 112.681,118.568 112.766,118.024C112.872,117.341 113.298,115.911 113.521,115.495C113.706,115.149 113.653,114.569 113.436,114.569C113.182,114.569 113.337,114.117 113.709,113.771C114.153,113.359 115.666,112.404 115.884,112.398C115.963,112.396 116.299,112.261 116.63,112.098C116.961,111.935 117.374,111.801 117.548,111.801C117.722,111.8 118.074,111.726 118.331,111.637C119.121,111.361 122.645,111.113 122.89,111.316C122.977,111.388 123.009,112.239 122.988,113.887L122.957,116.351L123.251,116.544C123.413,116.65 123.615,116.739 123.7,116.74C123.786,116.742 124.097,116.959 124.393,117.222C124.688,117.485 124.968,117.7 125.015,117.7C125.284,117.7 126.06,119.407 125.982,119.829C125.955,119.98 126.053,120.018 126.986,120.216C127.318,120.286 127.843,120.399 128.154,120.467C128.464,120.535 128.972,120.591 129.281,120.591C129.83,120.591 130.471,120.757 131.669,121.211C131.992,121.333 132.372,121.435 132.512,121.437C132.652,121.439 132.984,121.575 133.248,121.738C133.513,121.901 133.805,122.035 133.896,122.035C133.988,122.036 134.354,121.732 134.712,121.36L135.361,120.684L136.853,120.757C137.674,120.797 138.472,120.88 138.627,120.943C138.945,121.071 139.46,121.575 140.172,122.457C140.439,122.788 140.728,123.141 140.814,123.24C140.9,123.339 141.112,123.719 141.284,124.083C141.456,124.447 141.737,125.04 141.908,125.401C142.08,125.762 142.22,126.186 142.22,126.342C142.22,126.499 142.283,126.745 142.359,126.888C142.522,127.192 142.684,127.778 142.816,128.539C142.968,129.42 143.187,130.224 143.557,131.26C143.794,131.921 143.906,132.467 143.906,132.952C143.906,133.365 143.97,133.733 144.057,133.819C144.214,133.977 144.252,136.133 144.109,136.728C144.069,136.893 143.999,137.191 143.955,137.39C143.91,137.589 143.831,137.806 143.78,137.872C143.728,137.938 143.684,138.236 143.683,138.534C143.679,139.264 142.735,144.258 142.47,144.955C142.399,145.141 142.341,145.442 142.341,145.624C142.341,145.806 142.261,146.06 142.164,146.188C142.067,146.317 141.985,146.537 141.983,146.678C141.981,146.819 141.895,147.136 141.793,147.381C141.597,147.848 141.7,148.168 142.045,148.168C142.301,148.168 142.971,149.042 143.521,150.091C143.956,150.922 144.022,151.14 143.953,151.51C143.8,152.324 143.058,153.28 142.341,153.585C142.175,153.655 141.914,153.897 141.76,154.122C141.493,154.513 141.489,154.546 141.68,154.838C141.867,155.123 141.867,155.189 141.683,155.781C141.574,156.131 141.434,156.511 141.371,156.626C141.309,156.741 141.257,156.979 141.257,157.155C141.257,157.331 141.154,157.697 141.029,157.97C140.903,158.242 140.737,158.708 140.66,159.006C140.583,159.305 140.436,159.792 140.334,160.09C140.232,160.388 140.101,160.825 140.045,161.061C139.85,161.873 138.985,163.867 138.616,164.357C137.338,166.052 137.031,166.321 136.543,166.166C136.21,166.06 136.269,165.607 136.684,165.085C136.884,164.833 137.079,164.504 137.116,164.354C137.154,164.204 137.261,164.052 137.354,164.017C137.448,163.981 137.524,163.877 137.524,163.785C137.524,163.694 137.677,163.407 137.863,163.149C138.205,162.676 138.849,161.403 138.849,161.2C138.849,161.14 138.961,160.989 139.099,160.865C139.415,160.579 139.887,159.568 139.981,158.976C140.021,158.728 140.086,158.336 140.126,158.105C140.184,157.773 140.155,157.667 139.99,157.604C139.695,157.491 139.479,157.809 138.426,159.91C137.928,160.903 137.278,162.068 136.981,162.499C136.684,162.929 136.441,163.343 136.441,163.417C136.441,163.492 136.359,163.621 136.26,163.703C136.16,163.785 136.079,163.814 136.079,163.767C136.079,163.719 135.976,163.157 135.85,162.518C135.723,161.878 135.557,160.975 135.48,160.512C135.403,160.048 135.294,159.506 135.238,159.308C135.183,159.109 135.103,158.646 135.061,158.279L134.984,157.612L133.244,157.62C130.933,157.63 130.977,157.591 131.009,159.591L131.031,161.038L130.494,161.352C130.199,161.525 129.888,161.751 129.802,161.854C129.716,161.958 129.515,162.092 129.354,162.153C129.193,162.214 128.616,162.561 128.071,162.923C127.526,163.286 126.993,163.583 126.887,163.583C126.78,163.583 126.573,163.745 126.426,163.944C126.246,164.186 126.054,164.305 125.841,164.305C125.521,164.305 125,164.739 125,165.005C125,165.084 124.857,165.148 124.682,165.148C124.507,165.148 124.1,165.311 123.777,165.509C123.454,165.708 123.156,165.871 123.114,165.871C122.961,165.871 121.748,166.73 121.748,166.838C121.748,167.002 121.261,167.276 120.83,167.355C120.518,167.412 120.398,167.363 120.136,167.069ZM121.688,164.546C121.729,164.48 121.91,164.426 122.09,164.426C122.27,164.426 122.548,164.334 122.707,164.223C122.866,164.111 123.124,164.006 123.279,163.99C123.434,163.973 123.762,163.801 124.009,163.607C124.256,163.413 124.648,163.157 124.879,163.039C125.906,162.513 126.791,161.847 127.412,161.133L127.813,160.671L127.22,160.755C126.893,160.801 126.566,160.914 126.492,161.006C126.419,161.099 126.262,161.174 126.145,161.174C125.87,161.174 125.214,161.581 124.767,162.028C124.574,162.221 124.329,162.378 124.222,162.378C124.023,162.378 122.46,163.07 122.351,163.206C122.318,163.248 122.02,163.379 121.69,163.497C121.191,163.676 121.069,163.685 120.968,163.55C120.9,163.46 120.751,163.352 120.635,163.308C120.519,163.265 120.424,163.164 120.424,163.084C120.424,163.005 120.334,162.84 120.224,162.718C120.114,162.597 119.963,162.376 119.889,162.227C119.815,162.079 119.61,161.888 119.434,161.803C119.258,161.719 119.081,161.548 119.042,161.425C119.003,161.301 118.793,161.078 118.576,160.93C117.696,160.326 117.322,158.807 117.705,157.388C117.795,157.053 117.935,156.372 118.015,155.875C118.095,155.379 118.192,154.891 118.23,154.792C118.268,154.692 118.315,154.53 118.334,154.43C118.354,154.331 118.429,153.959 118.501,153.604C118.635,152.951 118.588,152.554 118.391,152.675C118.273,152.748 117.917,154.057 117.602,155.574C117.492,156.104 117.354,156.728 117.296,156.959C117.238,157.191 117.128,157.884 117.05,158.5C116.919,159.544 116.926,159.654 117.158,160.147C117.3,160.45 117.955,161.232 118.691,161.979C120.059,163.366 120.34,163.719 120.367,164.079C120.387,164.354 120.395,164.361 120.845,164.52C121.317,164.687 121.596,164.695 121.688,164.546ZM128.946,159.198C129.087,158.631 129.096,158.361 128.989,157.873C128.878,157.368 128.729,155.194 128.73,154.103C128.73,153.756 128.335,153.534 128.019,153.703C127.892,153.771 127.708,153.797 127.61,153.759C127.513,153.722 127.397,153.749 127.353,153.82C127.31,153.891 127.355,153.949 127.455,153.949C127.554,153.949 127.678,154.016 127.73,154.099C127.83,154.256 127.958,155.76 128.083,158.224C128.123,159.018 128.213,159.739 128.283,159.824C128.536,160.134 128.768,159.914 128.946,159.198ZM135.658,155.759C136.121,155.674 136.555,155.565 136.621,155.517C136.687,155.468 136.987,155.369 137.287,155.296C138.404,155.024 140.839,153.347 140.97,152.759C141.009,152.585 141.139,152.145 141.26,151.781C141.621,150.689 141.652,150.388 141.443,149.983C141.337,149.78 141.184,149.613 141.101,149.613C141.018,149.613 140.607,150.079 140.186,150.649C139.446,151.651 139.385,151.701 138.29,152.22C137.668,152.515 136.915,152.92 136.617,153.121C136.215,153.392 135.912,153.495 135.445,153.519C135.098,153.537 134.394,153.639 133.879,153.745C133.364,153.851 132.41,153.975 131.757,154.02L130.571,154.101L130.5,154.87C130.46,155.292 130.456,155.711 130.491,155.8C130.573,156.014 134.433,155.983 135.658,155.759ZM124.759,153.528C124.841,153.429 124.88,153.239 124.845,153.106C124.81,152.974 124.831,152.835 124.891,152.798C125.109,152.663 124.996,152.256 124.704,152.123C124.467,152.015 124.347,152.028 124.102,152.188C123.723,152.436 123.702,152.876 124.045,153.358C124.322,153.747 124.535,153.798 124.759,153.528ZM123.037,152.556C123.071,152.304 123.013,152.042 122.878,151.835L122.665,151.51L122.403,151.839C122.187,152.11 122.158,152.244 122.239,152.603C122.362,153.148 122.707,153.446 122.873,153.15C122.934,153.041 123.008,152.773 123.037,152.556ZM121.267,152.949C121.267,152.797 121.319,152.62 121.383,152.555C121.588,152.351 121.659,151.522 121.498,151.22C121.293,150.837 121.145,150.864 120.752,151.357C120.487,151.689 120.436,151.845 120.506,152.109C120.555,152.293 120.579,152.516 120.561,152.606C120.52,152.808 120.887,153.226 121.105,153.226C121.194,153.226 121.267,153.101 121.267,152.949ZM131.684,152.701C132.123,152.568 132.162,152.524 132.128,152.187C132.082,151.733 132.435,151.465 133.291,151.303C134.055,151.158 134.874,150.836 135.184,150.558C135.321,150.436 135.551,150.336 135.697,150.336C136.031,150.336 136.961,149.904 137.203,149.636C137.304,149.524 137.506,148.999 137.652,148.469C138.072,146.943 138.073,147.033 137.626,146.901C136.819,146.662 136.7,145.75 137.464,145.66C137.649,145.638 138.013,145.486 138.272,145.322C138.657,145.079 138.737,144.965 138.706,144.7C138.672,144.405 138.612,144.369 138.066,144.312C137.353,144.239 137.163,144.138 137.163,143.835C137.163,143.565 137.682,143.132 138.116,143.038C139.138,142.817 139.24,142.656 139.494,140.882C139.618,140.013 139.659,139.915 139.913,139.879C140.067,139.857 140.3,139.936 140.43,140.054C140.631,140.235 140.658,140.376 140.605,140.972C140.57,141.36 140.512,141.726 140.475,141.786C140.438,141.846 140.442,142.033 140.484,142.202C140.538,142.418 140.641,142.508 140.836,142.508C141.222,142.508 141.297,142.817 141.061,143.436C140.902,143.852 140.784,143.982 140.518,144.035C140.246,144.089 140.163,144.186 140.101,144.519C140.033,144.878 140.075,144.989 140.41,145.334C140.971,145.913 140.884,146.147 139.982,146.479C139.694,146.585 139.553,146.758 139.36,147.241C139.012,148.112 138.896,149.011 139.132,149.011C139.368,149.011 139.44,149.247 139.312,149.593C139.207,149.876 139.263,150.095 139.44,150.095C139.705,150.095 141.428,145.152 141.56,144.014C141.583,143.815 141.683,143.327 141.782,142.93C142.147,141.464 142.486,139.657 142.44,139.43C142.408,139.276 142.312,139.21 142.156,139.237C141.296,139.382 140.248,139.388 139.9,139.248C138.986,138.882 138.411,137.804 138.299,136.246C138.264,135.749 138.21,135.26 138.181,135.159C138.103,134.895 138.452,132.037 138.678,131.087C138.956,129.916 139.191,129.055 139.457,128.238C139.586,127.84 139.692,127.412 139.692,127.286C139.692,127.16 139.914,126.851 140.187,126.599L140.682,126.142L140.404,125.685C139.931,124.908 139.419,124.323 139.22,124.333C138.815,124.353 136.897,125.757 136.52,126.309C135.207,128.235 134.818,129.074 134.554,130.553C134.245,132.286 134.278,134.482 134.631,135.644C134.702,135.876 134.793,136.556 134.834,137.156L134.908,138.247L134.5,138.712C134.094,139.174 134.092,139.183 134.092,140.391C134.092,141.598 134.089,141.611 133.573,142.536C133.024,143.521 132.347,144.178 131.635,144.418C131.029,144.622 128.836,144.598 128.545,144.384C128.315,144.215 128.317,144.195 128.646,143.21C128.83,142.658 128.979,142.054 128.977,141.868C128.975,141.681 129.023,141.437 129.083,141.324C129.249,141.014 129.325,139.036 129.197,138.353C129.135,138.022 129.036,137.48 128.977,137.149C128.815,136.237 128.512,135.329 128.315,135.165C128.17,135.045 128.074,135.089 127.785,135.406C127.405,135.822 127.266,136.269 127.285,137.022C127.303,137.74 127.523,138.102 127.986,138.173C128.203,138.206 128.379,138.274 128.376,138.323C128.373,138.373 128.371,138.459 128.371,138.515C128.371,138.57 128.238,138.677 128.074,138.751C127.65,138.944 126.99,138.647 126.731,138.144C126.404,137.513 126.455,136.324 126.844,135.512C127.245,134.674 127.55,134.391 128.052,134.391C128.689,134.391 129.06,134.758 129.334,135.661C130.149,138.337 130.197,140.507 129.495,142.819C129.21,143.757 129.275,143.886 130.058,143.932C130.913,143.982 131.491,143.804 131.974,143.343C132.885,142.472 133.574,140.861 133.309,140.222C133.235,140.041 133.19,139.629 133.211,139.305C133.245,138.767 133.284,138.699 133.661,138.522C133.888,138.415 134.113,138.221 134.161,138.091C134.238,137.884 134.011,136.439 133.644,134.801C133.449,133.929 133.418,132.778 133.556,131.517C133.728,129.936 133.913,129.284 134.58,127.894C135.059,126.896 135.3,126.563 136.168,125.697C136.73,125.136 137.36,124.594 137.568,124.493C138.949,123.82 139.02,123.732 138.611,123.212C138.349,122.879 138.028,122.738 137.042,122.524C136.678,122.444 136.233,122.324 136.054,122.255C135.768,122.147 135.664,122.183 135.211,122.547C134.65,122.998 134.325,123.189 133.309,123.667C132.944,123.838 132.402,124.105 132.105,124.26C131.334,124.661 129.676,124.853 128.454,124.682L127.514,124.55L127.056,124.963C126.804,125.191 126.364,125.631 126.077,125.942C125.544,126.521 124.949,126.853 124.445,126.853C124.236,126.853 124.097,126.728 123.919,126.377C123.785,126.116 123.679,125.777 123.682,125.625C123.691,125.141 123.527,124.149 123.414,124.005C123.354,123.929 123.121,123.833 122.896,123.791C122.431,123.703 121.459,123.201 121.055,122.838L120.783,122.595L121.055,122.299C121.204,122.136 121.556,121.9 121.836,121.774C122.51,121.471 122.679,121.161 122.351,120.832C122.169,120.651 122.02,120.608 121.776,120.666C121.305,120.779 120.788,121.055 120.305,121.451C120.075,121.64 119.829,121.795 119.759,121.795C119.643,121.795 118.737,123.908 118.737,124.179C118.737,124.242 118.659,124.359 118.564,124.438C118.469,124.517 118.353,124.754 118.307,124.964C118.261,125.175 117.928,125.998 117.567,126.793C117.207,127.587 116.813,128.454 116.693,128.719C116.158,129.898 115.42,132.603 115.324,133.734C115.288,134.155 115.222,134.679 115.176,134.897C115.107,135.222 115.156,135.386 115.446,135.8C115.786,136.286 115.933,136.621 116.807,138.895C117.359,140.332 117.646,140.74 117.803,140.31C117.874,140.116 117.711,138.839 117.469,137.691C117.184,136.343 117.04,135.148 117.111,134.733C117.184,134.304 117.771,133.693 118.376,133.415C118.608,133.308 118.929,133.147 119.09,133.056C119.341,132.914 119.433,132.917 119.738,133.074C120.089,133.256 120.092,133.265 120.033,134.095C119.986,134.751 119.913,134.997 119.695,135.228C119.193,135.762 118.621,135.481 119.027,134.9C119.205,134.647 119.301,133.838 119.154,133.838C118.95,133.838 118.122,134.357 117.962,134.585C117.759,134.875 117.708,135.469 117.878,135.574C117.935,135.609 118.016,136.005 118.058,136.454C118.1,136.902 118.193,137.568 118.265,137.932C118.337,138.296 118.423,139.211 118.457,139.965C118.519,141.363 118.473,141.538 118.042,141.543C117.767,141.546 116.596,140.239 116.293,139.59C115.72,138.366 115.606,138.074 115.606,137.838C115.606,137.707 115.531,137.538 115.439,137.462C115.149,137.221 115.137,137.968 115.39,140.341C115.521,141.566 115.647,142.758 115.67,142.99C115.747,143.78 116.173,145.337 116.441,145.81C116.723,146.308 118.617,148.289 118.811,148.289C118.873,148.289 119.017,148.397 119.131,148.529C119.244,148.662 119.417,148.77 119.516,148.77C119.614,148.77 119.785,148.909 119.896,149.078C120.104,149.395 120.644,149.734 120.941,149.734C121.196,149.734 121.257,148.621 121.312,143.05C121.362,137.846 121.416,137.228 122.017,134.982C122.262,134.066 123.156,131.879 123.026,132.513C122.992,132.678 122.905,133.193 122.833,133.657C122.761,134.121 122.619,134.906 122.517,135.403C122.239,136.753 122.282,143.199 122.593,146.877L122.702,148.175L123.339,148.834C123.689,149.196 124.067,149.661 124.179,149.868C124.505,150.472 126.422,151.781 126.98,151.781C127.208,151.781 128.671,152.366 129.154,152.651C129.581,152.903 130.926,152.929 131.683,152.701L131.684,152.701ZM125.803,128.338C125.605,128.14 125.764,127.941 126.278,127.744C126.857,127.523 127.573,126.759 128.295,125.592C128.698,124.94 128.926,124.941 128.885,125.594C128.819,126.639 127.169,128.418 126.267,128.418C126.056,128.418 125.847,128.382 125.803,128.338ZM116.611,151.87C118.765,149.538 118.737,149.599 117.964,148.886C117.66,148.606 117.169,148.037 116.873,147.622L116.335,146.869L115.339,147.836C114.791,148.368 114.058,148.994 113.71,149.226C113.362,149.458 113.08,149.707 113.083,149.781C113.086,149.854 113.208,150.141 113.354,150.418C113.669,151.015 115.49,152.5 115.908,152.5C115.974,152.5 116.29,152.217 116.611,151.87ZM141.983,138.384C142.569,137.987 143.181,137.045 143.337,136.301C143.456,135.732 143.447,135.627 143.259,135.419C143.098,135.241 143.075,135.126 143.165,134.957C143.232,134.833 143.299,134.3 143.315,133.773C143.34,132.918 143.294,132.683 142.89,131.61C142.64,130.947 142.395,130.216 142.345,129.984C142.235,129.476 141.768,128.297 141.594,128.087C141.41,127.865 141.163,127.904 141.016,128.178C140.862,128.467 141.06,129.132 141.596,130.122C142.258,131.346 142.424,134.01 141.974,136.186C141.85,136.785 141.473,137.46 140.92,138.073C140.76,138.249 140.665,138.453 140.71,138.524C140.847,138.747 141.564,138.668 141.983,138.384ZM110.669,128.9C110.929,128.768 111.218,128.659 111.312,128.659C111.531,128.659 111.8,128.341 111.656,128.252C111.597,128.215 111.382,128.247 111.18,128.324C110.738,128.491 109.747,128.303 108.789,127.872C107.983,127.508 106.795,126.207 106.348,125.199C106.167,124.789 105.929,124.355 105.821,124.235C105.712,124.115 105.552,123.801 105.466,123.538C105.314,123.074 105.292,123.059 104.768,123.059L104.227,123.059L104.19,123.696C104.127,124.787 104.78,126.404 105.521,126.995C105.77,127.193 105.973,127.407 105.973,127.471C105.973,127.738 107.205,128.804 107.692,128.957C108.518,129.217 110.107,129.187 110.669,128.9ZM111.257,127.317C111.798,126.92 111.994,126.575 111.994,126.025C111.994,125.844 112.11,125.353 112.251,124.933C112.487,124.236 112.496,124.101 112.36,123.342C112.279,122.886 112.225,122.04 112.241,121.462C112.257,120.883 112.276,120.139 112.282,119.808L112.295,119.206L111.697,119.245C111.118,119.282 110.428,119.573 110.428,119.78C110.428,119.835 110.266,119.937 110.067,120.007C109.868,120.076 109.706,120.168 109.706,120.212C109.706,120.256 109.298,120.725 108.799,121.254C108.301,121.783 107.805,122.379 107.697,122.578C107.589,122.776 107.401,123.074 107.28,123.24C107.158,123.406 107.024,123.792 106.983,124.098C106.917,124.589 106.957,124.741 107.32,125.363C107.547,125.752 107.765,126.156 107.805,126.262C107.92,126.566 109.22,127.368 109.655,127.402C109.873,127.42 110.149,127.491 110.27,127.561C110.599,127.753 110.698,127.729 111.257,127.317ZM114.344,124.954C114.561,124.797 115.486,123.632 115.486,123.515C115.486,123.453 115.702,123.19 115.966,122.93C116.23,122.67 116.447,122.362 116.448,122.247C116.449,122.131 116.501,122.036 116.563,122.036C116.726,122.036 117.494,121.196 117.729,120.759C117.941,120.366 117.884,119.748 117.636,119.748C117.368,119.748 116.67,120.267 116.564,120.546C116.505,120.703 116.38,120.832 116.286,120.832C116.11,120.832 115.486,121.57 115.486,121.779C115.486,121.846 115.305,122.08 115.082,122.299C114.8,122.577 114.582,122.991 114.36,123.664C113.951,124.904 113.947,125.242 114.344,124.954ZM114.674,121.171C114.922,120.923 115.125,120.673 115.125,120.614C115.125,120.441 115.94,119.652 116.206,119.568C116.34,119.525 116.45,119.442 116.45,119.383C116.45,119.323 116.609,119.093 116.803,118.872C116.997,118.651 117.192,118.326 117.236,118.15C117.337,117.748 118.085,117.136 119.099,116.623C119.818,116.26 119.951,116.233 120.72,116.288C121.731,116.36 122.161,116.215 121.974,115.866C121.905,115.737 121.859,115.243 121.872,114.769C121.884,114.295 121.889,113.507 121.882,113.017L121.869,112.128L120.936,112.212C120.422,112.259 119.731,112.318 119.4,112.344C119.069,112.37 118.488,112.502 118.109,112.637C117.73,112.773 117.35,112.884 117.266,112.884C117.037,112.885 115.849,113.388 115.362,113.69C114.955,113.943 114.923,114.016 114.591,115.436C114.401,116.251 114.114,117.432 113.953,118.062C113.532,119.715 113.419,120.395 113.366,121.614L113.318,122.698L113.77,122.159C114.019,121.863 114.425,121.418 114.674,121.171ZM125.109,120.239C125.235,120.159 125.258,119.974 125.202,119.496C125.139,118.961 125.046,118.778 124.624,118.348C124.348,118.067 123.806,117.648 123.419,117.419C122.744,117.019 122.667,117.002 121.514,116.999C120.492,116.997 120.267,117.032 120.006,117.237C119.837,117.37 119.634,117.457 119.554,117.43C119.474,117.404 119.217,117.507 118.983,117.66C118.362,118.065 118.256,118.171 118.256,118.38C118.256,118.643 118.899,118.546 120.132,118.097C120.756,117.87 121.187,117.775 121.336,117.834C121.464,117.883 121.74,117.928 121.95,117.933C122.172,117.938 122.482,118.067 122.69,118.242C122.887,118.408 123.152,118.543 123.279,118.543C123.582,118.543 124.037,118.974 124.037,119.263C124.037,119.388 124.145,119.525 124.277,119.567C124.538,119.65 124.614,120.108 124.368,120.111C124.267,120.112 124.277,120.152 124.398,120.229C124.623,120.375 124.889,120.379 125.108,120.239L125.109,120.239Z" style="fill-rule:nonzero;"/>
    </g>
</svg>
