<?xml version="1.0" encoding="UTF-8" standalone="no"?>
<!DOCTYPE svg PUBLIC "-//W3C//DTD SVG 1.1//EN" "http://www.w3.org/Graphics/SVG/1.1/DTD/svg11.dtd">
<svg width="100%" height="100%" viewBox="0 0 281 288" version="1.1" xmlns="http://www.w3.org/2000/svg" xmlns:xlink="http://www.w3.org/1999/xlink" xml:space="preserve" xmlns:serif="http://www.serif.com/" style="fill-rule:evenodd;clip-rule:evenodd;stroke-linejoin:round;stroke-miterlimit:2;">
    <g id="path1" transform="matrix(3.70301,0,0,3.70301,-172.226,-549.481)">
        <g id="g1">
            <path id="path11" serif:id="path1" d="M82.928,225.006C82.673,224.813 82.465,224.519 82.465,224.353C82.465,224.187 82.33,224.052 82.166,224.052C81.958,224.052 81.927,223.633 82.065,222.663C82.174,221.899 82.244,220.678 82.222,219.951C82.199,219.223 82.122,215.549 82.049,211.787C81.907,204.404 81.867,204.208 80.48,204.208C79.838,204.208 79.025,203.69 79.025,203.282C79.025,202.998 78.289,202.356 77.964,202.356C77.796,202.356 76.9,201.582 75.973,200.636C75.045,199.69 74.217,198.916 74.133,198.916C74.049,198.916 73.57,198.529 73.068,198.056C71.412,196.497 70.844,196.006 70.693,196.006C70.499,196.006 65.796,191.303 65.796,191.109C65.796,190.845 63.969,189.127 63.688,189.127C63.538,189.127 63.415,189.002 63.415,188.85C63.415,188.698 63.147,188.301 62.819,187.969C62.492,187.636 61.926,187.006 61.562,186.568C61.199,186.131 60.663,185.638 60.372,185.473C60.081,185.309 59.992,185.17 60.173,185.166C60.682,185.154 60.565,184.525 59.975,184.1C59.684,183.89 59.446,183.506 59.446,183.247C59.446,182.953 59.644,182.777 59.975,182.777C60.266,182.777 60.504,182.896 60.504,183.041C60.504,183.187 60.699,183.306 60.936,183.306C61.49,183.306 62.356,184.299 62.356,184.934C62.356,185.246 62.547,185.423 62.885,185.423C63.179,185.423 63.415,185.599 63.415,185.819C63.415,186.038 63.537,186.216 63.687,186.216C63.99,186.216 64.378,186.569 68.653,190.721C70.297,192.318 71.755,193.625 71.894,193.625C72.032,193.625 72.146,193.749 72.146,193.901C72.146,194.19 73.332,195.477 73.598,195.477C73.682,195.477 74.162,195.864 74.664,196.337C76.328,197.905 76.888,198.387 77.043,198.387C77.128,198.387 77.495,198.685 77.858,199.049C78.222,199.412 78.614,199.71 78.73,199.71C78.845,199.71 79.978,200.707 81.247,201.926L83.555,204.142L83.676,214.758C83.743,220.597 83.706,225.371 83.594,225.366C83.482,225.361 83.182,225.2 82.928,225.006ZM86.839,223.192C87.242,220.508 86.833,205.862 86.332,205.052C86.171,204.791 87.169,203.575 89.542,201.142C90.161,200.507 90.667,199.92 90.667,199.837C90.667,199.754 90.935,199.407 91.262,199.066C92.396,197.885 93.577,196.517 93.577,196.385C93.577,196.312 93.964,195.858 94.437,195.376C95.542,194.249 96.487,193.131 96.487,192.949C96.487,192.871 96.785,192.509 97.149,192.145C97.513,191.782 97.81,191.385 97.81,191.263C97.81,191.142 98.287,190.552 98.869,189.952C99.451,189.352 99.928,188.772 99.929,188.663C99.93,188.554 100.615,187.739 101.451,186.852C102.286,185.964 103.208,184.907 103.499,184.502C103.79,184.096 104.415,183.368 104.888,182.883C105.361,182.397 105.748,181.878 105.748,181.727C105.748,181.312 106.697,181.401 107.071,181.851C107.252,182.069 107.564,182.248 107.765,182.248C107.965,182.248 108.129,182.367 108.129,182.512C108.129,182.658 108.316,182.777 108.545,182.777C108.774,182.777 109.119,182.925 109.312,183.107C109.505,183.289 110.101,183.795 110.636,184.232C111.171,184.668 111.892,185.294 112.238,185.621C112.584,185.948 112.992,186.216 113.144,186.216C113.296,186.216 113.421,186.335 113.421,186.481C113.421,186.626 113.659,186.745 113.95,186.745C114.241,186.745 114.479,186.851 114.479,186.98C114.479,187.109 115.253,187.544 116.199,187.946C117.145,188.348 117.919,188.778 117.919,188.902C117.919,189.025 118.157,189.127 118.448,189.127C118.739,189.127 118.977,189.246 118.977,189.391C118.977,189.537 119.156,189.656 119.374,189.656C119.592,189.656 119.771,189.775 119.771,189.92C119.771,190.066 120.009,190.185 120.3,190.185C121.362,190.185 120.855,191.249 118.779,193.378C115.839,196.393 115.008,197.293 115.008,197.466C115.008,197.698 113.738,198.916 113.496,198.916C113.378,198.916 113.045,199.236 112.756,199.626C111.974,200.681 107.603,205.002 107.318,205.002C107.182,205.002 107.071,205.162 107.071,205.358C107.071,205.7 96.484,216.457 94.532,218.099C94.013,218.535 93.586,219.041 93.583,219.223C93.58,219.405 93.446,219.554 93.286,219.554C93.126,219.554 92.662,219.911 92.254,220.348C91.846,220.784 91.372,221.141 91.2,221.141C91.029,221.141 90.129,221.915 89.202,222.861C88.274,223.807 87.316,224.581 87.073,224.581C86.689,224.581 86.658,224.397 86.839,223.192ZM109.262,192.914C109.441,191.978 109.239,191.508 108.658,191.508C107.805,191.508 107.734,192.379 108.514,193.284C108.938,193.776 109.113,193.689 109.262,192.914ZM99.927,207.118C99.927,206.973 100.165,206.854 100.456,206.854C101.269,206.854 101.036,206.054 100.125,205.718C99.096,205.339 98.485,206.176 99.199,206.987C99.589,207.43 99.927,207.491 99.927,207.118ZM83.523,200.359C83.014,199.858 82.51,199.448 82.405,199.447C82.299,199.446 81.588,198.85 80.825,198.123C80.063,197.395 79.356,196.8 79.256,196.8C79.156,196.8 77.956,195.698 76.589,194.352C75.222,193.006 73.782,191.668 73.389,191.379C72.996,191.09 72.675,190.762 72.675,190.652C72.675,190.541 72.196,189.957 71.611,189.353C71.025,188.75 70.619,188.185 70.707,188.096C70.796,188.008 71.086,188.204 71.351,188.531C71.617,188.859 72.023,189.127 72.254,189.127C72.486,189.127 72.675,189.292 72.675,189.493C72.675,189.695 72.943,190.04 73.27,190.261C73.598,190.482 74.312,191.091 74.858,191.615C75.404,192.138 75.97,192.566 76.115,192.566C76.26,192.566 76.38,192.656 76.381,192.765C76.383,193.002 77.665,193.625 78.152,193.625C79.088,193.625 78.098,192.376 73.724,188.038C71.1,185.435 68.894,183.306 68.823,183.306C68.569,183.306 66.325,180.935 66.325,180.667C66.325,180.518 66.206,180.395 66.06,180.395C65.915,180.395 65.796,180.181 65.796,179.919C65.796,179.657 65.653,179.3 65.478,179.125C65.231,178.878 65.231,178.808 65.478,178.808C65.653,178.808 65.796,178.656 65.796,178.469C65.796,178.283 66.034,177.959 66.325,177.75C66.616,177.54 66.854,177.156 66.854,176.897C66.854,176.639 66.973,176.427 67.119,176.427C67.264,176.427 67.383,176.3 67.383,176.144C67.383,175.989 67.681,175.472 68.045,174.995C68.409,174.518 68.706,173.99 68.706,173.822C68.706,173.654 68.825,173.516 68.971,173.516C69.116,173.516 69.235,173.338 69.235,173.119C69.235,172.901 69.354,172.723 69.5,172.723C69.646,172.723 69.765,172.544 69.765,172.326C69.765,172.107 69.884,171.929 70.029,171.929C70.175,171.929 70.294,171.768 70.294,171.572C70.294,171.376 70.535,170.938 70.83,170.598C71.125,170.257 71.436,169.703 71.52,169.366C71.605,169.029 71.78,168.754 71.91,168.754C72.04,168.754 72.146,168.575 72.146,168.357C72.146,168.139 72.265,167.96 72.41,167.96C72.556,167.96 72.675,167.781 72.675,167.563C72.675,167.345 72.764,167.164 72.873,167.16C72.983,167.157 73.429,166.622 73.866,165.97C74.302,165.319 74.749,164.786 74.858,164.786C74.967,164.785 75.056,164.547 75.056,164.256C75.056,163.965 75.175,163.727 75.321,163.727C75.466,163.727 75.585,163.548 75.585,163.33C75.585,163.112 75.696,162.933 75.832,162.933C75.968,162.933 76.15,162.709 76.237,162.435C76.376,161.996 76.658,161.597 77.697,160.364C77.845,160.189 77.967,159.921 77.967,159.769C77.967,159.617 78.086,159.493 78.231,159.493C78.377,159.493 78.496,159.299 78.496,159.061C78.496,158.824 78.71,158.437 78.972,158.201C79.235,157.966 79.8,157.301 80.229,156.723C80.658,156.145 81.456,155.208 82.002,154.641C82.547,154.073 82.994,153.509 82.994,153.388C82.994,153.267 83.291,152.87 83.655,152.506C84.019,152.142 84.317,151.711 84.317,151.549C84.317,151.386 84.465,151.103 84.647,150.919C84.829,150.735 85.215,150.268 85.504,149.88C85.793,149.492 86.129,149.175 86.25,149.175C86.663,149.175 87.227,149.928 87.227,150.479C87.227,150.78 87.346,151.027 87.492,151.027C87.637,151.027 87.756,151.265 87.756,151.556C87.756,151.847 87.846,152.085 87.955,152.086C88.064,152.086 88.498,152.86 88.919,153.805C89.34,154.751 89.786,155.525 89.911,155.525C90.035,155.525 90.137,155.703 90.137,155.921C90.137,156.14 90.257,156.318 90.402,156.318C90.548,156.318 90.667,156.556 90.667,156.848C90.667,157.139 90.778,157.377 90.913,157.377C91.049,157.377 91.232,157.604 91.32,157.882C91.409,158.159 91.831,158.784 92.26,159.271C92.689,159.757 93.041,160.304 93.044,160.486C93.046,160.667 93.167,160.816 93.312,160.816C93.458,160.816 93.577,161.054 93.577,161.345C93.577,161.636 93.696,161.875 93.842,161.875C93.987,161.875 94.106,161.993 94.106,162.137C94.106,162.376 94.775,163.257 95.628,164.14C95.809,164.328 95.958,164.67 95.958,164.898C95.958,165.127 96.077,165.314 96.223,165.314C96.368,165.314 96.487,165.493 96.487,165.711C96.487,165.929 96.593,166.108 96.723,166.108C96.852,166.108 97.206,166.614 97.509,167.232C98.319,168.888 98.943,169.889 99.464,170.372C99.719,170.607 99.927,170.995 99.927,171.232C99.927,171.47 100.033,171.664 100.163,171.664C100.293,171.664 100.468,171.94 100.553,172.277C100.637,172.614 100.948,173.168 101.243,173.508C101.538,173.848 101.779,174.287 101.779,174.483C101.779,174.679 101.898,174.839 102.044,174.839C102.189,174.839 102.308,175.137 102.308,175.501C102.308,175.864 102.427,176.162 102.573,176.162C102.718,176.162 102.837,176.341 102.837,176.559C102.837,176.777 102.957,176.956 103.102,176.956C103.248,176.956 103.367,177.114 103.367,177.307C103.367,177.5 103.664,177.937 104.028,178.279C104.392,178.621 104.69,179.057 104.69,179.249C104.69,179.594 104.06,180.427 102.904,181.613C102.576,181.949 102.308,182.3 102.308,182.394C102.308,182.488 100.88,183.979 99.133,185.709C97.387,187.438 95.958,189.033 95.958,189.254C95.958,189.475 95.869,189.657 95.76,189.658C95.651,189.659 95.264,190.102 94.9,190.644C94.536,191.185 93.316,192.567 92.188,193.715C91.06,194.863 90.136,195.878 90.134,195.97C90.132,196.063 89.655,196.664 89.075,197.308C88.495,197.951 88.021,198.575 88.021,198.696C88.021,199.142 85.489,201.294 84.978,201.282C84.687,201.275 84.032,200.86 83.523,200.359ZM82.616,168.223C82.616,167.71 82.703,167.38 82.877,167.235C83.052,167.08 83.439,167.002 84.04,167.002L86.321,167.002C87.823,167.002 88.855,167.075 89.417,167.22C89.979,167.366 90.352,167.656 90.536,168.092C90.652,168.373 90.71,168.669 90.71,168.979L90.71,169.357C90.71,169.657 90.802,169.802 90.986,169.793C91.151,169.783 91.258,169.71 91.306,169.575C91.354,169.429 91.403,169.076 91.451,168.514L91.509,167.656C91.558,167.017 91.597,166.629 91.626,166.494C91.655,166.358 91.669,166.247 91.669,166.159C91.669,165.878 91.509,165.738 91.19,165.738C91.064,165.738 90.87,165.757 90.608,165.796C90.482,165.815 90.134,165.835 89.562,165.854L87.498,165.956C86.588,165.995 85.541,166.014 84.359,166.014C82.412,166.014 80.746,165.937 79.36,165.782C78.953,165.733 78.629,165.709 78.387,165.709C77.951,165.709 77.733,165.845 77.733,166.116C77.733,166.3 77.873,166.392 78.154,166.392C79.036,166.392 79.627,166.634 79.927,167.119C80.237,167.593 80.392,168.523 80.392,169.909L80.392,182.189L80.378,183.133C80.378,184.296 80.029,184.974 79.331,185.168L78.779,185.328C78.527,185.396 78.401,185.512 78.401,185.677C78.401,185.89 78.556,185.996 78.866,185.996C79.002,185.996 79.254,185.962 79.622,185.895C80.319,185.778 81.516,185.72 83.211,185.72C84.422,185.72 85.953,185.807 87.804,185.982C88.278,186.021 88.656,186.04 88.937,186.04C90.235,186.04 91.311,185.517 92.163,184.47C92.871,183.598 93.224,182.848 93.224,182.218C93.224,181.956 93.137,181.83 92.963,181.84C92.856,181.85 92.75,181.937 92.643,182.102C91.558,183.816 89.112,184.674 85.304,184.674C84.103,184.674 83.352,184.572 83.052,184.369C82.761,184.165 82.616,183.652 82.616,182.828L82.616,177.48L82.601,177.001C82.601,176.71 82.679,176.516 82.834,176.419C82.998,176.323 83.318,176.274 83.793,176.274L87.004,176.274C87.838,176.274 88.429,176.39 88.777,176.623C89.126,176.855 89.359,177.296 89.475,177.945L89.562,178.352C89.601,178.565 89.722,178.672 89.925,178.672C90.109,178.672 90.202,178.551 90.202,178.309C90.202,178.221 90.192,178.081 90.172,177.887C90.114,177.306 90.085,176.72 90.085,176.129C90.085,175.354 90.124,174.496 90.202,173.556C90.211,173.411 90.216,173.305 90.216,173.237C90.216,172.985 90.124,172.854 89.94,172.844C89.746,172.835 89.625,172.951 89.577,173.193C89.451,173.833 89.31,174.24 89.155,174.414C89,174.588 88.661,174.729 88.138,174.835C87.547,174.952 86.743,175.01 85.725,175.01L83.487,175.01C83.071,175.01 82.819,174.966 82.732,174.879C82.654,174.782 82.616,174.511 82.616,174.065L82.616,168.223ZM120.66,187.761C120.494,187.607 120.053,187.196 119.68,186.848C119.307,186.501 118.932,186.216 118.848,186.216C118.764,186.216 118.289,185.829 117.792,185.356C116.492,184.118 116.124,183.835 115.813,183.835C115.662,183.835 115.537,183.716 115.537,183.57C115.537,183.425 115.25,183.306 114.898,183.306C114.546,183.306 114.219,183.217 114.17,183.107C114.122,182.998 113.546,182.617 112.892,182.261C111.735,181.631 111.423,181.417 110.652,180.726C110.45,180.544 110.156,180.395 110,180.395C109.844,180.395 109.717,180.276 109.717,180.131C109.717,179.985 109.479,179.866 109.187,179.866C108.896,179.866 108.658,179.747 108.658,179.602C108.658,179.456 108.489,179.337 108.283,179.337C107.698,179.337 106.281,178.448 106.279,178.08C106.278,177.898 106.158,177.75 106.012,177.75C105.867,177.75 105.748,177.571 105.748,177.353C105.748,177.134 105.629,176.956 105.483,176.956C105.338,176.956 105.219,176.718 105.219,176.427C105.219,176.136 105.1,175.898 104.954,175.898C104.809,175.898 104.69,175.784 104.69,175.645C104.69,175.402 103.661,173.725 103.106,173.064C102.958,172.889 102.837,172.561 102.837,172.337C102.837,172.112 102.718,171.929 102.573,171.929C102.427,171.929 102.308,171.804 102.308,171.652C102.308,171.5 102.04,171.089 101.713,170.739C100.721,169.677 100.456,169.318 100.456,169.03C100.456,168.878 100.337,168.754 100.192,168.754C100.046,168.754 99.927,168.575 99.927,168.357C99.927,168.139 99.808,167.96 99.662,167.96C99.517,167.96 99.398,167.781 99.398,167.563C99.398,167.345 99.279,167.166 99.133,167.166C98.988,167.166 98.869,167.016 98.869,166.833C98.869,166.649 98.571,166.178 98.207,165.786C97.843,165.394 97.546,164.889 97.546,164.664C97.546,164.44 97.427,164.256 97.281,164.256C97.136,164.256 97.017,164.077 97.017,163.859C97.017,163.641 96.898,163.462 96.752,163.462C96.607,163.462 96.487,163.224 96.487,162.933C96.487,162.642 96.383,162.404 96.255,162.404C96.127,162.404 95.875,162.047 95.694,161.61C95.513,161.173 95.279,160.816 95.175,160.816C95.071,160.816 94.758,160.341 94.48,159.761C94.201,159.181 93.885,158.704 93.775,158.703C93.666,158.701 93.577,158.521 93.577,158.303C93.577,158.084 93.458,157.906 93.312,157.906C93.167,157.906 93.048,157.668 93.048,157.377C93.048,157.086 92.948,156.848 92.825,156.848C92.702,156.848 92.378,156.431 92.103,155.921C91.829,155.412 91.513,154.995 91.4,154.995C91.288,154.995 91.196,154.757 91.196,154.466C91.196,154.175 91.077,153.937 90.931,153.937C90.786,153.937 90.667,153.639 90.667,153.276C90.667,152.912 90.548,152.614 90.402,152.614C90.257,152.614 90.137,152.376 90.137,152.085C90.137,151.794 90.032,151.556 89.904,151.556C89.775,151.556 89.608,151.318 89.532,151.027C89.442,150.683 89.524,150.498 89.765,150.498C89.97,150.498 90.137,150.676 90.137,150.894C90.137,151.113 90.257,151.291 90.402,151.291C90.548,151.291 90.667,151.47 90.667,151.688C90.667,151.906 90.854,152.085 91.082,152.085C91.311,152.085 91.649,152.234 91.832,152.416C92.016,152.598 92.484,152.983 92.872,153.272C93.26,153.561 93.577,153.897 93.577,154.019C93.577,154.273 94.255,154.995 94.493,154.995C94.697,154.995 96.487,156.779 96.487,156.983C96.487,157.067 97.142,157.764 97.943,158.533C98.743,159.303 99.398,160.076 99.398,160.253C99.398,160.43 100.053,161.204 100.853,161.973C101.653,162.742 102.308,163.514 102.308,163.689C102.308,163.864 103.082,164.769 104.028,165.701C104.974,166.633 105.748,167.506 105.748,167.64C105.748,167.775 106.522,168.67 107.468,169.63C108.414,170.59 109.187,171.446 109.187,171.531C109.187,171.723 109.593,172.218 110.709,173.39C111.182,173.886 111.569,174.421 111.569,174.578C111.569,174.735 111.837,175.134 112.164,175.465C112.491,175.796 112.997,176.401 113.289,176.809C113.58,177.218 114.086,177.829 114.413,178.168C114.74,178.507 115.008,178.854 115.008,178.94C115.008,179.026 115.276,179.371 115.604,179.707C116.488,180.614 117.39,181.703 117.39,181.864C117.39,181.942 118.044,182.666 118.845,183.473C119.645,184.28 120.3,185.048 120.3,185.181C120.3,185.314 120.419,185.423 120.565,185.423C120.71,185.423 120.829,185.601 120.829,185.819C120.829,186.038 120.948,186.216 121.094,186.216C121.239,186.216 121.358,186.633 121.358,187.142C121.358,188.095 121.184,188.25 120.66,187.761ZM47.275,187.295C47.275,187.161 50.222,184.086 53.823,180.462C57.425,176.838 60.685,173.465 61.069,172.967C61.452,172.469 63.027,170.767 64.569,169.186C66.111,167.605 67.643,165.969 67.973,165.551C68.304,165.132 68.669,164.789 68.784,164.787C69.061,164.784 70.294,163.547 70.294,163.272C70.294,163.155 70.618,162.822 71.014,162.533C71.41,162.244 73.601,160.161 75.883,157.906C81.066,152.782 81.406,152.491 81.406,153.175C81.406,153.338 80.87,153.985 80.216,154.612C79.561,155.24 79.025,155.88 79.025,156.036C79.025,156.191 78.906,156.318 78.76,156.318C78.615,156.318 78.496,156.497 78.496,156.715C78.496,156.933 78.377,157.112 78.231,157.112C78.086,157.112 77.967,157.237 77.967,157.389C77.967,157.541 77.699,157.94 77.371,158.276C76.486,159.184 75.585,160.272 75.585,160.433C75.585,160.512 75.288,160.873 74.924,161.237C74.56,161.601 74.262,161.995 74.262,162.112C74.262,162.229 73.905,162.699 73.469,163.156C73.032,163.613 72.675,164.14 72.675,164.327C72.675,164.515 72.437,164.84 72.146,165.05C71.855,165.259 71.614,165.554 71.612,165.703C71.609,165.853 71.192,166.451 70.686,167.031C70.179,167.612 69.765,168.237 69.765,168.42C69.765,168.604 69.646,168.754 69.5,168.754C69.354,168.754 69.235,169.025 69.235,169.357C69.235,169.688 68.997,170.131 68.706,170.341C68.415,170.551 68.177,170.87 68.177,171.051C68.177,171.231 67.582,171.983 66.854,172.723C66.127,173.462 65.531,174.158 65.531,174.269C65.531,174.38 64.847,175.185 64.01,176.057C63.173,176.929 62.134,178.113 61.701,178.688C61.268,179.263 60.67,179.98 60.372,180.282C59.775,180.885 56.654,182.777 56.257,182.777C56.119,182.777 56.006,182.896 56.006,183.041C56.006,183.187 55.643,183.306 55.198,183.306C54.665,183.306 54.103,183.576 53.544,184.099C53.079,184.535 52.193,185.101 51.575,185.356C50.958,185.611 50.452,185.909 50.451,186.018C50.45,186.127 50.158,186.216 49.801,186.216C49.443,186.216 48.853,186.514 48.49,186.878C47.817,187.55 47.275,187.737 47.275,187.295ZM68.706,186.481C68.706,186.335 68.825,186.216 68.971,186.216C69.116,186.216 69.235,186.335 69.235,186.481C69.235,186.626 69.116,186.745 68.971,186.745C68.825,186.745 68.706,186.626 68.706,186.481Z"/>
        </g>
    </g>
</svg>
