<?xml version="1.0" encoding="UTF-8" standalone="no"?>
<!DOCTYPE svg PUBLIC "-//W3C//DTD SVG 1.1//EN" "http://www.w3.org/Graphics/SVG/1.1/DTD/svg11.dtd">
<svg width="100%" height="100%" viewBox="0 0 135 137" version="1.1" xmlns="http://www.w3.org/2000/svg" xmlns:xlink="http://www.w3.org/1999/xlink" xml:space="preserve" xmlns:serif="http://www.serif.com/" style="fill-rule:evenodd;clip-rule:evenodd;stroke-linejoin:round;stroke-miterlimit:2;">
    <g id="g1" transform="matrix(3.72797,0,0,3.72797,-241.414,-481.791)">
        <path id="path1" d="M83.13,165.494C82.279,165.474 81.651,165.41 81.651,165.343C81.651,165.278 81.573,165.226 81.478,165.226C81.383,165.226 81.288,165.105 81.267,164.957C81.246,164.809 81.106,164.628 80.957,164.554C80.526,164.34 80.786,164.251 81.602,164.335C82.4,164.416 82.979,164.334 82.979,164.137C82.979,164.072 82.875,164.018 82.748,164.018C82.62,164.018 82.498,163.965 82.476,163.9C82.454,163.835 81.947,163.75 81.349,163.71C80.751,163.67 80.154,163.591 80.021,163.535C79.888,163.479 79.562,163.404 79.296,163.369C79.031,163.334 78.433,163.22 77.968,163.116C77.503,163.011 77.001,162.956 76.851,162.992C76.702,163.028 76.58,163.002 76.58,162.934C76.58,162.866 76.51,162.811 76.425,162.811C76.34,162.811 76.192,162.702 76.097,162.569C76.001,162.437 75.839,162.327 75.738,162.325C75.636,162.324 75.391,162.134 75.192,161.903C74.994,161.672 74.763,161.483 74.679,161.483C74.453,161.483 74.49,161.347 74.889,160.717C75.088,160.403 75.251,160.094 75.251,160.03C75.251,159.966 75.292,159.913 75.343,159.913C75.393,159.913 75.504,159.756 75.589,159.563C75.689,159.336 75.975,159.092 76.403,158.869C76.765,158.68 77.062,158.484 77.062,158.434C77.062,158.384 79.727,158.343 82.984,158.343L88.906,158.343L89.185,158.615C89.588,159.008 90.095,159.43 90.164,159.43C90.28,159.43 92.155,161.364 92.155,161.483C92.155,161.549 92.204,161.603 92.263,161.603C92.416,161.603 92.523,161.932 92.441,162.147C92.401,162.25 92.221,162.328 92.022,162.328C91.83,162.328 91.672,162.382 91.672,162.449C91.672,162.515 91.568,162.569 91.441,162.569C91.314,162.569 91.191,162.61 91.169,162.66C91.147,162.71 90.776,162.914 90.344,163.113C89.913,163.312 89.532,163.51 89.499,163.554C89.466,163.597 89.181,163.671 88.865,163.718C88.55,163.766 88.292,163.846 88.292,163.898C88.292,163.949 88.047,164.064 87.748,164.152C87.449,164.24 87.205,164.355 87.205,164.407C87.205,164.459 87.104,164.501 86.98,164.501C86.856,164.501 86.616,164.61 86.448,164.743C86.279,164.876 86.054,164.984 85.948,164.984C85.843,164.984 85.756,165.039 85.756,165.105C85.756,165.171 85.593,165.226 85.394,165.226C85.195,165.226 85.032,165.274 85.032,165.332C85.032,165.502 84.705,165.53 83.13,165.494L83.13,165.494ZM81.892,162.342C81.892,162.136 81.596,161.972 81.216,161.967C81.07,161.965 80.564,162.373 80.564,162.493C80.564,162.535 80.863,162.569 81.228,162.569C81.798,162.569 81.892,162.537 81.892,162.342ZM88.007,162.388C88.168,162.227 88.168,162.187 88.007,162.026C87.614,161.633 86.976,161.906 87.161,162.388C87.2,162.488 87.365,162.569 87.528,162.569C87.692,162.569 87.907,162.488 88.007,162.388ZM78.218,161.552C78.481,161.289 78.433,161.241 77.908,161.241C77.505,161.241 77.425,161.282 77.425,161.483C77.425,161.775 77.949,161.821 78.218,161.552ZM76.63,161.53C76.945,161.409 76.846,161.241 76.459,161.241C76.094,161.241 75.967,161.41 76.248,161.524C76.331,161.557 76.408,161.589 76.419,161.594C76.43,161.599 76.525,161.571 76.63,161.53L76.63,161.53ZM79.96,160.931C79.96,160.841 79.636,160.517 79.546,160.517C79.508,160.517 79.477,160.625 79.477,160.758C79.477,160.919 79.558,161 79.719,161C79.852,161 79.96,160.969 79.96,160.931L79.96,160.931ZM77.304,159.309C77.304,159.243 77.219,159.189 77.116,159.189C77.012,159.189 76.961,159.243 77.002,159.309C77.043,159.376 77.128,159.43 77.19,159.43C77.253,159.43 77.304,159.376 77.304,159.309ZM93.635,161.765C93.551,161.732 93.484,161.612 93.484,161.499C93.484,161.387 93.375,161.216 93.242,161.121C93.109,161.025 93.001,160.85 93.001,160.732C93.001,160.613 92.958,160.517 92.906,160.517C92.854,160.517 92.708,160.34 92.582,160.124C92.457,159.909 92.255,159.644 92.134,159.537C92.013,159.429 91.914,159.304 91.914,159.259C91.914,159.214 91.561,158.827 91.129,158.399C90.423,157.7 90.344,157.574 90.344,157.138C90.344,156.871 90.399,156.653 90.465,156.653C90.531,156.653 90.586,156.517 90.586,156.351C90.586,156.185 90.64,156.049 90.706,156.049C90.773,156.049 90.827,155.913 90.827,155.747C90.827,155.581 90.882,155.446 90.948,155.446C91.014,155.446 91.07,155.351 91.073,155.234C91.075,155.118 91.156,154.918 91.254,154.789C91.351,154.66 91.431,154.481 91.431,154.39C91.431,154.3 91.54,154.002 91.672,153.727C91.805,153.452 91.914,153.128 91.914,153.008C91.914,152.888 91.968,152.789 92.035,152.789C92.101,152.789 92.155,152.629 92.155,152.434C92.155,152.239 92.197,152.054 92.247,152.022C92.298,151.991 92.447,151.608 92.579,151.17C92.711,150.732 92.86,150.374 92.91,150.374C92.96,150.374 93.001,150.211 93.001,150.012C93.001,149.813 93.055,149.65 93.121,149.65C93.188,149.65 93.242,149.514 93.242,149.348C93.242,149.182 93.296,149.046 93.363,149.046C93.429,149.046 93.484,148.883 93.484,148.684C93.484,148.485 93.538,148.322 93.604,148.322C93.671,148.322 93.725,148.245 93.725,148.15C93.725,148.056 93.816,147.798 93.927,147.577C94.294,146.844 94.329,146.757 94.329,146.573C94.329,146.472 94.383,146.39 94.45,146.39C94.516,146.39 94.57,146.227 94.57,146.028C94.57,145.828 94.625,145.665 94.691,145.665C94.757,145.665 94.812,145.475 94.812,145.243C94.812,145.01 94.866,144.82 94.932,144.82C94.999,144.82 95.053,144.632 95.053,144.402C95.053,143.942 95.295,143.734 95.83,143.734C96.001,143.734 96.14,143.679 96.14,143.613C96.14,143.546 96.327,143.492 96.555,143.492C96.784,143.492 97.004,143.438 97.045,143.371C97.087,143.305 97.307,143.251 97.536,143.251C97.764,143.251 97.951,143.196 97.951,143.13C97.951,143.063 98.103,143.009 98.289,143.009C98.475,143.009 98.679,142.958 98.742,142.895C98.805,142.832 99.076,142.745 99.345,142.702C99.775,142.633 99.879,142.667 100.22,142.986L100.607,143.347L100.62,148.556C100.634,153.713 100.631,153.766 100.379,153.985C100.239,154.107 100.124,154.27 100.124,154.348C100.124,154.426 100.012,154.61 99.874,154.756C99.737,154.903 99.506,155.18 99.361,155.373C99.216,155.565 98.731,156.097 98.283,156.554C97.835,157.012 97.468,157.413 97.468,157.447C97.468,157.481 97.413,157.574 97.345,157.654C96.879,158.207 96.744,158.392 96.744,158.477C96.744,158.53 96.608,158.71 96.442,158.876C96.276,159.042 96.14,159.21 96.14,159.249C96.14,159.318 96.057,159.412 95.204,160.32C94.988,160.55 94.812,160.777 94.812,160.824C94.812,160.872 94.712,160.999 94.589,161.106C94.467,161.214 94.302,161.424 94.223,161.573C94.082,161.84 93.937,161.887 93.635,161.765L93.635,161.765ZM92.375,157.83C92.344,157.614 92.247,157.551 91.899,157.522C91.547,157.493 91.45,157.532 91.399,157.726C91.315,158.05 91.39,158.102 91.942,158.102C92.362,158.102 92.409,158.072 92.375,157.83ZM93.051,156.459C93.164,156.416 93.242,156.244 93.242,156.036C93.242,155.727 93.2,155.687 92.871,155.687C92.473,155.687 92.155,155.92 92.155,156.212C92.155,156.484 92.638,156.618 93.051,156.459ZM98.487,146.779L98.76,146.565L98.484,146.357C98.143,146.1 98.121,146.1 97.784,146.354C97.536,146.541 97.528,146.578 97.698,146.776C97.932,147.05 98.142,147.051 98.487,146.779L98.487,146.779ZM71.871,159.792C71.871,159.726 71.762,159.672 71.629,159.672C71.468,159.672 71.388,159.591 71.388,159.43C71.388,159.269 71.468,159.189 71.629,159.189C71.825,159.189 71.871,159.108 71.871,158.766C71.871,158.424 71.825,158.343 71.629,158.343C71.492,158.343 71.388,158.263 71.388,158.157C71.388,158.055 71.281,157.857 71.152,157.718C70.966,157.518 70.825,157.48 70.486,157.535C70.036,157.608 70.076,157.634 69.244,156.719C69.095,156.555 68.973,156.337 68.973,156.235C68.973,156.133 68.918,156.049 68.852,156.049C68.786,156.049 68.731,155.972 68.731,155.878C68.731,155.784 68.691,155.689 68.641,155.667C68.524,155.615 67.886,154.636 67.886,154.509C67.886,154.456 67.777,154.334 67.645,154.238C67.512,154.142 67.403,153.967 67.403,153.849C67.403,153.731 67.36,153.634 67.307,153.634C67.144,153.634 66.92,151.703 66.92,150.294C66.92,148.705 66.833,147.972 66.607,147.662C66.459,147.46 66.405,147.453 66.137,147.597C65.848,147.751 65.833,147.81 65.833,148.825C65.833,149.455 65.883,149.891 65.954,149.891C66.022,149.891 66.075,150.233 66.075,150.676C66.075,151.508 65.997,151.621 65.709,151.203C65.612,151.061 65.405,150.79 65.25,150.6C64.998,150.292 64.975,150.165 65.025,149.38C65.057,148.897 65.152,147.226 65.237,145.665C65.323,144.105 65.444,142.793 65.507,142.751C65.605,142.685 66.259,142.952 66.437,143.13C66.47,143.163 66.647,143.268 66.83,143.362C67.012,143.456 67.162,143.578 67.162,143.633C67.162,143.688 67.264,143.733 67.388,143.733C67.513,143.733 67.683,143.815 67.765,143.915C67.848,144.014 68.014,144.096 68.135,144.096C68.256,144.096 68.388,144.15 68.429,144.216C68.47,144.283 68.61,144.337 68.738,144.337C68.867,144.337 68.973,144.391 68.973,144.458C68.973,144.524 69.217,144.579 69.516,144.579C69.979,144.579 70.059,144.614 70.059,144.82C70.059,144.953 70.114,145.062 70.18,145.062C70.247,145.062 70.301,145.153 70.301,145.264C70.301,145.474 70.333,145.584 70.842,147.135C71.009,147.644 71.146,148.174 71.146,148.312C71.146,148.45 71.2,148.563 71.267,148.563C71.333,148.563 71.388,148.726 71.388,148.925C71.388,149.202 71.442,149.288 71.618,149.288C71.812,149.288 71.859,149.4 71.91,149.982C71.992,150.913 72.117,151.461 72.247,151.461C72.305,151.461 72.354,151.597 72.354,151.763C72.354,151.929 72.408,152.065 72.474,152.065C72.541,152.065 72.595,152.228 72.595,152.427C72.595,152.626 72.649,152.789 72.716,152.789C72.782,152.789 72.837,152.871 72.837,152.972C72.837,153.072 72.882,153.249 72.938,153.364C72.993,153.48 73.184,153.874 73.36,154.24C73.537,154.606 73.682,155.027 73.682,155.176C73.682,155.324 73.736,155.446 73.802,155.446C73.869,155.446 73.923,155.554 73.923,155.687C73.923,155.82 73.978,155.929 74.044,155.929C74.11,155.929 74.165,156.088 74.165,156.284C74.165,156.479 74.219,156.672 74.285,156.713C74.352,156.754 74.406,156.893 74.406,157.022C74.406,157.151 74.461,157.257 74.527,157.257C74.733,157.257 74.66,157.681 74.406,157.953C74.273,158.096 74.165,158.296 74.165,158.399C74.165,158.501 74.11,158.585 74.044,158.585C73.978,158.585 73.923,158.666 73.923,158.766C73.923,158.866 73.869,158.947 73.802,158.947C73.736,158.947 73.682,159.056 73.682,159.189C73.682,159.321 73.631,159.43 73.569,159.43C73.507,159.43 73.422,159.539 73.38,159.672C73.315,159.877 73.197,159.913 72.587,159.913C72.19,159.913 71.871,159.859 71.871,159.792L71.871,159.792ZM69.456,155.083C69.456,155.017 69.333,154.966 69.184,154.971C68.925,154.979 68.923,154.984 69.154,155.083C69.287,155.14 69.409,155.191 69.426,155.196C69.442,155.201 69.456,155.15 69.456,155.083L69.456,155.083ZM69.837,152.548C70.041,152.548 70.301,152.214 70.301,151.953C70.301,151.815 70.355,151.703 70.422,151.703C70.488,151.703 70.542,151.598 70.542,151.471C70.542,151.344 70.583,151.222 70.633,151.199C70.774,151.137 71.146,150.378 71.146,150.152C71.146,150.041 71.046,149.887 70.923,149.81C70.741,149.696 70.642,149.721 70.38,149.946C70.204,150.097 70.059,150.306 70.059,150.409C70.059,150.511 70.019,150.614 69.969,150.636C69.822,150.701 69.214,151.988 69.214,152.234C69.214,152.479 69.611,152.844 69.677,152.66C69.699,152.598 69.771,152.548 69.837,152.548ZM68.731,149.891C68.731,149.704 68.651,149.65 68.369,149.65C68.087,149.65 68.007,149.704 68.007,149.891C68.007,150.079 68.087,150.133 68.369,150.133C68.651,150.133 68.731,150.079 68.731,149.891ZM66.29,146.685C66.442,146.578 66.558,146.37 66.558,146.202C66.558,145.957 66.498,145.907 66.209,145.907C65.919,145.907 65.852,145.964 65.811,146.25C65.718,146.881 65.845,146.996 66.29,146.685ZM79.719,157.136C79.719,157.066 79.337,157.015 78.813,157.015C78.29,157.015 77.908,156.964 77.908,156.894C77.908,156.828 77.663,156.774 77.364,156.774C77.066,156.774 76.821,156.719 76.821,156.653C76.821,156.587 76.769,156.532 76.705,156.532C76.432,156.532 75.493,155.854 75.493,155.658C75.493,155.541 75.441,155.446 75.378,155.446C75.175,155.446 74.406,154.571 74.406,154.34C74.406,154.218 74.352,154.117 74.285,154.117C74.219,154.117 74.165,153.954 74.165,153.755C74.165,153.556 74.11,153.393 74.044,153.393C73.978,153.393 73.923,153.257 73.923,153.091C73.923,152.925 73.869,152.789 73.802,152.789C73.736,152.789 73.682,152.687 73.682,152.562C73.682,152.436 73.602,152.18 73.505,151.993C73.407,151.805 73.357,151.536 73.392,151.394C73.435,151.226 73.35,151.01 73.147,150.768C72.976,150.566 72.837,150.285 72.837,150.146C72.837,150.006 72.782,149.891 72.716,149.891C72.649,149.891 72.595,149.701 72.595,149.469C72.595,149.236 72.553,149.046 72.501,149.046C72.449,149.046 72.336,148.788 72.25,148.473C72.164,148.157 72.044,147.774 71.982,147.622C71.921,147.469 71.871,147.021 71.871,146.626C71.871,145.987 71.844,145.907 71.629,145.907C71.442,145.907 71.388,145.826 71.388,145.552C71.388,145.356 71.333,145.163 71.267,145.122C71.2,145.081 71.146,144.942 71.146,144.813C71.146,144.684 71.2,144.579 71.267,144.579C71.333,144.579 71.388,144.443 71.388,144.277C71.388,144.055 71.452,143.975 71.629,143.975C71.83,143.975 71.871,143.894 71.871,143.501C71.871,143.011 71.956,142.877 72.53,142.466C72.715,142.333 72.993,142.102 73.148,141.953C73.303,141.803 73.461,141.681 73.5,141.681C73.579,141.681 73.792,141.513 74.225,141.107C74.385,140.958 74.561,140.836 74.616,140.836C74.67,140.836 74.793,140.727 74.889,140.594C74.985,140.461 75.14,140.353 75.234,140.353C75.327,140.353 75.492,140.254 75.599,140.133C75.707,140.012 75.971,139.81 76.187,139.684C76.403,139.558 76.58,139.413 76.58,139.361C76.58,139.309 76.661,139.266 76.761,139.266C76.86,139.266 76.942,139.212 76.942,139.145C76.942,139.079 77.023,139.025 77.123,139.025C77.223,139.025 77.304,138.97 77.304,138.904C77.304,138.837 77.361,138.783 77.43,138.783C77.499,138.783 77.621,138.728 77.702,138.66C78.374,138.093 78.592,137.938 78.723,137.938C78.806,137.938 78.874,137.884 78.874,137.817C78.874,137.751 78.955,137.696 79.055,137.696C79.154,137.696 79.236,137.649 79.236,137.59C79.236,137.532 79.399,137.417 79.598,137.334C79.797,137.252 79.96,137.149 79.96,137.105C79.96,137.062 80.151,136.924 80.383,136.799C80.615,136.674 80.806,136.526 80.806,136.47C80.806,136.414 80.914,136.368 81.047,136.368C81.18,136.368 81.289,136.314 81.289,136.247C81.289,136.181 81.356,136.126 81.439,136.124C81.522,136.123 81.726,136.015 81.892,135.885C82.215,135.633 82.617,135.566 82.617,135.764C82.617,135.831 82.698,135.885 82.798,135.885C82.897,135.885 82.979,135.94 82.979,136.006C82.979,136.072 83.088,136.127 83.22,136.127C83.353,136.127 83.462,136.173 83.462,136.228C83.462,136.284 83.698,136.452 83.986,136.6C84.275,136.748 84.653,137.001 84.826,137.162C85,137.323 85.226,137.455 85.328,137.455C85.431,137.455 85.515,137.509 85.515,137.576C85.515,137.642 85.596,137.696 85.696,137.696C85.795,137.696 85.877,137.751 85.877,137.817C85.877,137.884 85.985,137.938 86.118,137.938C86.251,137.938 86.36,137.98 86.36,138.031C86.36,138.082 86.55,138.227 86.782,138.352C87.015,138.477 87.205,138.625 87.205,138.681C87.205,138.737 87.302,138.783 87.42,138.783C87.538,138.783 87.713,138.892 87.809,139.025C87.904,139.157 88.054,139.266 88.14,139.266C88.279,139.266 89.306,139.9 89.705,140.232C89.785,140.298 89.908,140.353 89.977,140.353C90.046,140.353 90.103,140.407 90.103,140.473C90.103,140.54 90.187,140.594 90.289,140.594C90.392,140.594 90.612,140.73 90.778,140.896C90.944,141.062 91.124,141.198 91.177,141.198C91.231,141.198 91.445,141.361 91.653,141.56C91.862,141.759 92.088,141.922 92.155,141.922C92.223,141.922 92.427,142.054 92.609,142.216C92.791,142.377 93.076,142.62 93.242,142.757C93.408,142.893 93.61,143.06 93.69,143.128C93.77,143.195 94.001,143.251 94.203,143.251C94.49,143.251 94.57,143.303 94.57,143.492C94.57,143.625 94.523,143.734 94.466,143.734C94.409,143.734 94.269,144.046 94.155,144.428C93.907,145.26 93.72,145.665 93.584,145.665C93.529,145.665 93.484,145.774 93.484,145.907C93.484,146.04 93.429,146.148 93.363,146.148C93.296,146.148 93.242,146.281 93.242,146.443C93.242,146.605 93.188,146.771 93.121,146.812C93.055,146.853 93.001,146.979 93.001,147.091C93.001,147.28 92.513,148.594 92.264,149.075C92.204,149.19 92.155,149.394 92.155,149.528C92.155,149.661 92.101,149.771 92.035,149.771C91.968,149.771 91.914,149.907 91.914,150.073C91.914,150.239 91.86,150.374 91.793,150.374C91.727,150.374 91.672,150.479 91.672,150.606C91.672,150.733 91.632,150.855 91.582,150.877C91.461,150.931 90.827,152.209 90.827,152.399C90.827,152.481 90.773,152.548 90.706,152.548C90.64,152.548 90.586,152.684 90.586,152.85C90.586,153.016 90.531,153.151 90.465,153.151C90.399,153.151 90.344,153.247 90.344,153.363C90.343,153.479 90.153,153.944 89.921,154.396C89.689,154.849 89.499,155.324 89.499,155.453C89.499,155.582 89.445,155.687 89.378,155.687C89.312,155.687 89.258,155.877 89.258,156.11C89.258,156.342 89.203,156.532 89.137,156.532C89.07,156.532 89.016,156.695 89.016,156.895L89.016,157.257L84.367,157.257C81.349,157.257 79.719,157.214 79.719,157.136L79.719,157.136ZM89.861,147.356C89.861,147.289 89.943,147.235 90.042,147.235C90.246,147.235 90.254,147.213 90.15,146.943C90.075,146.746 89.783,146.697 89.449,146.825C89.218,146.914 89.206,147.065 89.409,147.296C89.584,147.495 89.861,147.532 89.861,147.356L89.861,147.356ZM88.976,143.907C89.015,143.802 88.986,143.655 88.911,143.58C88.741,143.41 88.338,143.757 88.466,143.963C88.586,144.158 88.892,144.124 88.976,143.907L88.976,143.907ZM69.154,142.88C68.941,142.673 68.121,142.164 68.001,142.164C67.938,142.164 67.886,142.11 67.886,142.043C67.886,141.977 67.587,141.922 67.222,141.922C66.638,141.922 66.558,141.893 66.558,141.681C66.558,141.548 66.61,141.439 66.673,141.439C66.736,141.439 66.878,141.249 66.989,141.017C67.099,140.784 67.237,140.594 67.296,140.594C67.355,140.594 67.403,140.486 67.403,140.353C67.403,140.22 67.444,140.111 67.494,140.111C67.543,140.111 67.741,139.758 67.934,139.326C68.126,138.895 68.329,138.542 68.386,138.542C68.443,138.542 68.49,138.406 68.49,138.24C68.49,138.074 68.544,137.938 68.611,137.938C68.677,137.938 68.731,137.829 68.731,137.696C68.731,137.564 68.786,137.455 68.852,137.455C68.918,137.455 68.973,137.319 68.973,137.153C68.973,136.987 69.022,136.851 69.083,136.851C69.143,136.851 69.229,136.62 69.272,136.338C69.398,135.524 69.56,135.106 69.819,134.919C69.951,134.823 70.059,134.649 70.059,134.53C70.059,134.412 70.114,134.316 70.18,134.316C70.247,134.316 70.301,134.259 70.301,134.191C70.301,134.122 70.478,133.881 70.693,133.654C71.259,133.061 71.388,132.893 71.388,132.751C71.388,132.682 71.496,132.625 71.629,132.625C71.781,132.625 71.871,132.545 71.871,132.408C71.871,132.13 72.1,131.901 72.378,131.901C72.497,131.901 72.595,131.846 72.595,131.78C72.595,131.714 72.717,131.659 72.867,131.658C73.016,131.658 73.294,131.577 73.484,131.477C73.674,131.378 73.957,131.297 74.111,131.297C74.266,131.297 74.426,131.243 74.467,131.176C74.508,131.11 74.701,131.056 74.896,131.056C75.092,131.056 75.251,131.001 75.251,130.935C75.251,130.868 75.496,130.814 75.795,130.814C76.094,130.814 76.338,130.76 76.338,130.693C76.338,130.627 76.519,130.573 76.741,130.573C76.962,130.573 77.18,130.535 77.226,130.49C77.336,130.38 78.859,129.985 79.206,129.976C79.355,129.972 79.477,129.914 79.477,129.848C79.477,129.782 79.722,129.727 80.021,129.727C80.32,129.727 80.564,129.673 80.564,129.607C80.564,129.54 80.853,129.486 81.206,129.486L81.848,129.486L81.983,130.494C82.083,131.24 82.083,131.71 81.982,132.297C81.886,132.861 81.883,133.21 81.974,133.506C82.063,133.796 82.063,133.989 81.974,134.148C81.798,134.465 81.572,134.678 81.412,134.678C81.338,134.678 81.157,134.801 81.011,134.952C80.72,135.252 79.782,135.885 79.627,135.885C79.574,135.885 79.452,135.994 79.357,136.127C79.261,136.259 79.113,136.368 79.028,136.368C78.943,136.368 78.874,136.422 78.874,136.489C78.874,136.555 78.806,136.61 78.723,136.61C78.592,136.61 78.374,136.764 77.702,137.332C77.621,137.399 77.499,137.455 77.43,137.455C77.361,137.455 77.304,137.509 77.304,137.576C77.304,137.642 77.22,137.696 77.117,137.696C77.015,137.696 76.805,137.819 76.652,137.968C76.187,138.421 75.738,138.783 75.639,138.783C75.588,138.783 75.468,138.892 75.372,139.024C75.276,139.157 75.142,139.267 75.074,139.268C75.005,139.269 74.766,139.432 74.541,139.63C74.316,139.828 74.088,139.99 74.033,139.99C73.979,139.99 73.798,140.126 73.632,140.292C73.466,140.458 73.299,140.594 73.26,140.594C73.17,140.594 72.963,140.766 72.276,141.409C71.974,141.691 71.678,141.922 71.617,141.922C71.556,141.922 71.34,142.081 71.137,142.275C70.92,142.483 70.572,142.661 70.293,142.709C70.032,142.753 69.818,142.838 69.818,142.899C69.818,143.044 69.308,143.029 69.154,142.88L69.154,142.88ZM70.372,141.347C70.541,141.233 70.666,140.741 70.582,140.522C70.483,140.265 69.935,140.32 69.681,140.613C69.435,140.896 69.419,140.963 69.529,141.248C69.605,141.445 70.135,141.507 70.372,141.347L70.372,141.347ZM70.059,139.025C70.059,138.819 69.979,138.783 69.516,138.783C69.053,138.783 68.973,138.819 68.973,139.025C68.973,139.23 69.053,139.266 69.516,139.266C69.979,139.266 70.059,139.23 70.059,139.025ZM77.063,135.454C77.063,135.306 76.743,135.077 76.427,134.998C76.245,134.952 76.097,134.861 76.097,134.796C76.097,134.731 75.988,134.678 75.855,134.678C75.722,134.678 75.614,134.623 75.614,134.557C75.614,134.491 75.508,134.436 75.379,134.436C75.25,134.436 75.111,134.382 75.07,134.316C75.029,134.249 74.89,134.195 74.761,134.195C74.632,134.195 74.527,134.141 74.527,134.074C74.527,134.008 74.282,133.953 73.984,133.953C73.685,133.953 73.44,133.984 73.44,134.022C73.44,134.141 73.779,134.436 73.915,134.436C73.986,134.436 74.044,134.491 74.044,134.557C74.044,134.623 74.147,134.678 74.273,134.678C74.398,134.678 74.532,134.759 74.571,134.859C74.614,134.973 74.799,135.04 75.066,135.04C75.301,135.04 75.493,135.094 75.493,135.161C75.493,135.227 75.615,135.282 75.765,135.283C75.914,135.284 76.118,135.338 76.217,135.402C76.412,135.528 77.063,135.568 77.063,135.454L77.063,135.454ZM77.908,133.893C77.908,133.793 77.852,133.712 77.783,133.712C77.714,133.712 77.473,133.535 77.246,133.319C76.503,132.612 76.23,132.461 75.915,132.582C75.565,132.716 75.814,133.47 76.209,133.47C76.28,133.47 76.338,133.518 76.338,133.576C76.338,133.736 77.145,134.023 77.696,134.06C77.813,134.068 77.908,133.993 77.908,133.893ZM94.013,142.432C92.741,141.322 92.353,141.005 92.146,140.908C92.018,140.848 91.914,140.753 91.914,140.696C91.914,140.64 91.832,140.594 91.733,140.594C91.633,140.594 91.552,140.54 91.552,140.473C91.552,140.407 91.463,140.353 91.355,140.353C91.246,140.353 91.07,140.257 90.962,140.14C90.717,139.872 89.787,139.266 89.622,139.266C89.555,139.266 89.499,139.212 89.499,139.145C89.499,139.079 89.39,139.025 89.258,139.025C89.125,139.025 89.016,138.979 89.016,138.923C89.016,138.867 88.826,138.719 88.593,138.593C88.361,138.468 88.171,138.324 88.171,138.273C88.171,138.221 88.074,138.179 87.956,138.179C87.838,138.179 87.663,138.071 87.567,137.938C87.471,137.805 87.296,137.696 87.178,137.696C87.06,137.696 86.963,137.642 86.963,137.576C86.963,137.509 86.882,137.455 86.782,137.455C86.683,137.455 86.601,137.411 86.601,137.356C86.601,137.302 86.425,137.167 86.209,137.055C85.634,136.758 85.361,136.575 85.14,136.338C85.032,136.222 84.88,136.127 84.803,136.127C84.726,136.127 84.394,135.941 84.065,135.715C83.736,135.488 83.419,135.285 83.362,135.262C83.304,135.24 83.221,133.931 83.178,132.353L83.099,129.486L83.522,129.486C83.755,129.486 83.945,129.54 83.945,129.607C83.945,129.673 84.105,129.727 84.3,129.727C84.495,129.727 84.684,129.774 84.72,129.832C84.805,129.969 87.942,130.572 88.571,130.572C88.749,130.572 88.895,130.627 88.895,130.693C88.895,130.76 89.086,130.814 89.318,130.814C89.55,130.814 89.741,130.855 89.741,130.905C89.741,130.955 89.917,131.073 90.133,131.167C90.349,131.261 90.553,131.375 90.586,131.42C90.693,131.566 91.797,132.142 91.969,132.142C92.06,132.142 92.167,132.074 92.206,131.991C92.262,131.871 92.29,131.871 92.347,131.991C92.385,132.074 92.548,132.142 92.709,132.142C92.869,132.142 93.001,132.196 93.001,132.263C93.001,132.329 93.096,132.385 93.212,132.387C93.328,132.389 93.559,132.582 93.725,132.816C93.993,133.194 94.359,133.625 95.173,134.523C95.306,134.67 95.415,134.834 95.415,134.888C95.415,134.942 95.524,135.065 95.657,135.161C95.79,135.256 95.898,135.4 95.898,135.479C95.898,135.559 95.966,135.651 96.049,135.685C96.17,135.733 96.17,135.747 96.049,135.755C95.871,135.766 95.842,136.127 96.019,136.127C96.086,136.127 96.14,136.212 96.14,136.316C96.14,136.421 96.208,136.575 96.291,136.659C96.374,136.743 96.55,136.963 96.683,137.149C96.816,137.335 97.101,137.668 97.317,137.889C97.533,138.111 97.71,138.323 97.71,138.362C97.71,138.4 97.832,138.565 97.981,138.727C98.668,139.472 98.796,139.624 98.796,139.69C98.796,139.728 98.919,139.886 99.068,140.041C99.438,140.424 99.751,140.871 99.751,141.017C99.751,141.213 99.356,141.681 99.19,141.681C99.106,141.681 99.038,141.735 99.038,141.802C99.038,141.868 98.793,141.922 98.494,141.922C98.196,141.922 97.951,141.971 97.951,142.03C97.951,142.089 97.774,142.166 97.559,142.201C96.824,142.32 95.959,142.551 95.844,142.66C95.781,142.719 95.428,142.766 95.059,142.764C94.506,142.761 94.324,142.703 94.013,142.432L94.013,142.432ZM87.205,134.074C87.205,134.008 87.151,133.953 87.084,133.953C87.018,133.953 86.963,134.008 86.963,134.074C86.963,134.14 87.018,134.195 87.084,134.195C87.151,134.195 87.205,134.141 87.205,134.074ZM85.207,132.727C85.431,132.624 85.515,132.494 85.515,132.244C85.515,131.923 85.482,131.901 85.023,131.901C84.598,131.901 84.186,132.102 84.186,132.31C84.186,132.406 84.7,132.867 84.807,132.867C84.858,132.867 85.038,132.804 85.207,132.727Z" style="fill-rule:nonzero;"/>
    </g>
</svg>
