<?xml version="1.0" encoding="UTF-8" standalone="no"?>
<!DOCTYPE svg PUBLIC "-//W3C//DTD SVG 1.1//EN" "http://www.w3.org/Graphics/SVG/1.1/DTD/svg11.dtd">
<svg width="100%" height="100%" viewBox="0 0 284 286" version="1.1" xmlns="http://www.w3.org/2000/svg" xmlns:xlink="http://www.w3.org/1999/xlink" xml:space="preserve" xmlns:serif="http://www.serif.com/" style="fill-rule:evenodd;clip-rule:evenodd;stroke-linejoin:round;stroke-miterlimit:2;">
    <g id="path3" transform="matrix(3.77953,0,0,3.77953,-223.694,-505.984)">
        <g id="g1">
            <path id="path31" serif:id="path3" d="M84.932,208.516C84.932,208.265 86.352,203.816 88.087,198.63C89.823,193.444 91.242,188.867 91.242,188.46C91.242,188.053 91.538,187.724 91.9,187.729C93.271,187.749 103.228,191.669 106.754,193.578C113.639,197.304 119.637,200.831 119.637,201.153C119.637,201.33 115.208,202.24 109.795,203.176C101.583,204.596 91.401,206.928 86.115,208.6C85.465,208.805 84.932,208.768 84.932,208.516ZM79.323,205.374C78.173,204.028 75.2,200.258 72.718,196.998C70.236,193.738 66.409,188.911 64.212,186.271C60.054,181.275 59.276,179.597 61.401,180.208C62.753,180.597 65.867,181.095 76.188,182.575C84.816,183.812 88.373,185.094 88.791,187.116C89.268,189.417 84.106,206.519 82.664,207.418C81.669,208.038 81.525,207.951 79.323,205.374ZM113.59,195.368C110.12,193.346 105.47,190.931 103.257,190.002C99.57,188.454 94.923,185.917 94.923,185.453C94.923,185.347 96.546,184.315 98.529,183.16C100.512,182.005 103.098,180.297 104.275,179.364C105.453,178.432 108.447,176.277 110.93,174.576C113.412,172.875 116.834,170.517 118.533,169.336L121.621,167.19L121.391,180.419C121.264,187.695 120.929,194.645 120.647,195.865C120.365,197.084 120.273,198.302 120.443,198.571C121.076,199.575 119.736,198.949 113.59,195.368ZM112.539,190.813C112.717,190.529 112.376,190.297 111.781,190.297C111.185,190.297 110.698,190.529 110.698,190.813C110.698,191.096 111.039,191.328 111.456,191.328C111.873,191.328 112.36,191.096 112.539,190.813ZM122.882,186.045C123.08,182.288 123.402,176.027 123.597,172.132L123.951,165.049L128.202,167.235C130.539,168.437 132.685,169.799 132.97,170.262C133.365,170.903 132.284,173.554 128.403,181.458C125.606,187.154 123.318,192.053 123.318,192.344C123.318,192.636 123.139,192.874 122.92,192.874C122.701,192.874 122.684,189.801 122.882,186.045ZM127.553,175.607C127.512,174.841 126.335,174.982 126.062,175.785C125.915,176.218 126.155,176.411 126.703,176.3C127.186,176.202 127.568,175.89 127.553,175.607ZM91.183,182.694C90.875,181.914 90.172,179.562 89.621,177.466C89.069,175.371 88.407,173.399 88.149,173.085C87.891,172.771 87.565,171.586 87.424,170.452C87.284,169.318 86.429,164.258 85.525,159.207C84.62,154.156 83.881,149.791 83.881,149.507C83.881,149.223 84.318,149.127 84.853,149.293C85.387,149.46 86.825,149.693 88.047,149.813C89.27,149.932 90.548,150.249 90.887,150.517C91.79,151.23 98.709,153.894 103.862,155.513C106.321,156.285 109.633,157.553 111.224,158.329C112.815,159.106 115.711,160.255 117.66,160.884C121.36,162.078 121.909,162.437 121.312,163.273C120.904,163.845 116.16,167.246 108.069,172.77C105.032,174.843 100.387,178.243 97.746,180.326C95.106,182.408 92.674,184.112 92.344,184.112C92.013,184.112 91.49,183.474 91.183,182.694ZM106.393,170.742C106.524,170.355 106.327,170.162 105.933,170.291C105.553,170.415 105.139,170.821 105.013,171.193C104.881,171.58 105.078,171.773 105.473,171.644C105.852,171.52 106.266,171.114 106.393,170.742ZM102.022,163.493C102.201,163.21 101.964,162.978 101.496,162.978C101.028,162.978 100.792,163.21 100.97,163.493C101.149,163.777 101.386,164.009 101.496,164.009C101.607,164.009 101.843,163.777 102.022,163.493ZM75.467,180.373C68.671,178.664 63.027,177.198 62.926,177.115C62.825,177.032 64.532,174.687 66.719,171.904C68.907,169.121 73.24,163.511 76.347,159.437L81.998,152.03L83.407,159.952C84.761,167.562 85.447,170.397 87.571,177.153C88.965,181.585 89.249,183.608 88.469,183.538C88.114,183.506 82.264,182.082 75.467,180.373ZM76.826,178.57C76.61,178.358 75.565,177.946 74.504,177.656C72.931,177.225 72.297,176.622 71.071,174.389L69.567,171.65L71.202,169.995C73.05,168.126 73.321,167.327 71.844,168.102C70.7,168.702 64.425,175.697 64.425,176.372C64.425,176.619 65.667,177.083 67.185,177.402C74.096,178.857 77.544,179.275 76.826,178.57ZM77.308,172.772C77.486,172.488 77.145,172.256 76.55,172.256C75.954,172.256 75.467,172.488 75.467,172.772C75.467,173.055 75.808,173.287 76.225,173.287C76.642,173.287 77.129,173.055 77.308,172.772ZM80.463,172.772C80.641,172.488 80.3,172.256 79.705,172.256C79.109,172.256 78.622,172.488 78.622,172.772C78.622,173.055 78.963,173.287 79.38,173.287C79.797,173.287 80.284,173.055 80.463,172.772ZM79.148,167.905C79.148,167.361 78.139,167.132 77.839,167.609C77.657,167.897 77.877,168.132 78.328,168.132C78.779,168.132 79.148,168.03 79.148,167.905ZM79.937,162.978C80.116,162.694 79.789,162.462 79.21,162.462C78.632,162.462 78.012,162.694 77.833,162.978C77.655,163.261 77.982,163.493 78.56,163.493C79.139,163.493 79.758,163.261 79.937,162.978ZM128.194,164.535C124.824,162.11 123.858,161.121 123.56,159.789C123.352,158.863 121.793,155.11 120.095,151.449C118.397,147.788 117.008,144.659 117.008,144.495C117.008,144.332 118.369,146.065 120.032,148.346C121.695,150.627 124.656,154.563 126.613,157.092C129.864,161.292 133.156,166.908 132.656,167.398C132.544,167.508 130.536,166.22 128.194,164.535ZM128.051,160.401C128.051,160.117 127.696,159.885 127.262,159.885C126.828,159.885 126.473,160.117 126.473,160.401C126.473,160.684 126.828,160.916 127.262,160.916C127.696,160.916 128.051,160.684 128.051,160.401ZM127.262,158.854C127.083,158.571 126.61,158.339 126.21,158.339C125.811,158.339 125.337,158.571 125.159,158.854C124.974,159.148 125.427,159.37 126.21,159.37C126.994,159.37 127.447,159.148 127.262,158.854ZM70.218,161.683C70.223,161.119 71.047,158.687 72.049,156.277C74.11,151.324 74.327,149.933 72.999,150.184C72.425,150.292 71.734,151.498 71.057,153.572C69.972,156.898 68.773,158.03 69.355,155.181C69.615,153.905 73.181,144.542 73.596,144.044C73.825,143.769 81.479,147.816 81.621,148.287C81.707,148.571 80.062,150.749 77.965,153.127C75.868,155.506 73.265,158.634 72.181,160.079C70.773,161.955 70.211,162.414 70.218,161.683ZM74.678,148.545C74.857,148.262 74.635,148.03 74.184,148.03C73.733,148.03 73.364,148.262 73.364,148.545C73.364,148.829 73.587,149.06 73.859,149.06C74.131,149.06 74.5,148.829 74.678,148.545ZM116.22,157.261C114.484,156.429 111.408,155.276 109.384,154.699C103.008,152.884 95.897,150.701 90.47,148.893L85.228,147.147L93.625,143.155C98.243,140.959 103.678,138.467 105.703,137.617C107.727,136.767 109.608,135.862 109.883,135.607C110.566,134.973 111.75,135.022 111.75,135.683C111.75,135.981 112.24,137.198 112.84,138.39C113.439,139.581 114.41,142.063 114.998,143.906C115.586,145.749 116.248,147.488 116.47,147.772C116.692,148.055 117.647,150.375 118.593,152.926C119.539,155.478 120.423,157.855 120.557,158.21C120.931,159.196 119.682,158.923 116.22,157.261ZM114.603,152.325C114.788,151.852 114.711,151.241 114.432,150.968C113.657,150.209 112.276,150.958 112.276,152.137C112.276,153.43 114.112,153.578 114.603,152.325ZM80.989,145.766C80.41,145.402 79.236,144.681 78.38,144.164L76.824,143.225L79.695,142.248C81.274,141.711 84.104,140.957 85.984,140.574C87.864,140.19 91.295,139.415 93.609,138.851C102.276,136.737 103.88,136.879 98.078,139.248C96.488,139.897 92.409,141.791 89.016,143.456C85.622,145.121 82.664,146.471 82.443,146.456C82.221,146.441 81.567,146.131 80.989,145.766Z" style="fill-rule:nonzero;"/>
        </g>
    </g>
</svg>
