<?xml version="1.0" encoding="UTF-8" standalone="no"?>
<!DOCTYPE svg PUBLIC "-//W3C//DTD SVG 1.1//EN" "http://www.w3.org/Graphics/SVG/1.1/DTD/svg11.dtd">
<svg width="100%" height="100%" viewBox="0 0 242 232" version="1.1" xmlns="http://www.w3.org/2000/svg" xmlns:xlink="http://www.w3.org/1999/xlink" xml:space="preserve" xmlns:serif="http://www.serif.com/" style="fill-rule:evenodd;clip-rule:evenodd;stroke-linejoin:round;stroke-miterlimit:2;">
    <g id="g1" transform="matrix(3.73636,0,0,3.73636,-189.217,-675.885)">
        <path id="path2" d="M111.566,242.357C111.566,242.183 105.015,242.093 92.442,242.093C73.357,242.093 73.318,242.092 72.844,241.538C72.583,241.233 72.408,240.961 72.455,240.934C72.798,240.732 74.514,240.24 74.874,240.24C75.118,240.24 75.318,240.121 75.318,239.976C75.318,239.83 75.139,239.711 74.921,239.711C74.703,239.711 74.524,239.593 74.524,239.449C74.524,239.282 70.317,239.163 62.816,239.119L51.108,239.05L51.024,238.455C50.977,238.127 51.067,237.859 51.222,237.859C51.378,237.859 51.505,237.621 51.505,237.33C51.505,237.039 51.624,236.801 51.77,236.801C51.915,236.801 52.034,236.563 52.034,236.272C52.034,235.981 52.154,235.743 52.299,235.743C52.445,235.743 52.564,235.598 52.564,235.422C52.564,234.921 54.233,231.689 54.729,231.229C54.974,231.002 55.253,230.466 55.35,230.038C55.569,229.066 56.861,226.484 57.128,226.483C57.237,226.482 57.326,226.304 57.326,226.085C57.326,225.867 57.445,225.688 57.591,225.688C57.736,225.688 57.855,225.504 57.855,225.279C57.855,225.055 58.123,224.601 58.451,224.272C58.778,223.943 59.344,223.235 59.707,222.699C60.071,222.162 60.458,221.722 60.567,221.721C60.676,221.72 60.766,221.482 60.766,221.19C60.766,220.899 60.885,220.661 61.03,220.661C61.176,220.661 61.295,220.495 61.295,220.291C61.295,220.088 61.591,219.403 61.953,218.77C62.791,217.304 62.852,215.899 62.077,215.899C61.584,215.899 60.237,216.97 60.237,217.361C60.237,217.451 60.088,217.68 59.906,217.87C59.724,218.06 59.4,218.468 59.186,218.777C58.59,219.637 57.855,219.509 57.855,218.545C57.855,218.108 57.974,217.751 58.12,217.751C58.265,217.751 58.384,217.572 58.384,217.354C58.384,217.136 58.504,216.957 58.649,216.957C58.795,216.957 58.914,216.719 58.914,216.428C58.914,216.137 59.014,215.899 59.136,215.899C59.258,215.899 59.585,215.424 59.863,214.844C60.141,214.263 60.458,213.787 60.567,213.785C60.676,213.783 60.766,213.604 60.766,213.385C60.766,213.167 60.885,212.988 61.03,212.988C61.176,212.988 61.295,212.75 61.295,212.459C61.295,212.168 61.384,211.929 61.493,211.927C61.602,211.925 61.928,211.419 62.216,210.803C62.504,210.186 62.951,209.489 63.208,209.253C63.466,209.018 63.676,208.631 63.676,208.393C63.676,208.156 63.795,207.961 63.941,207.961C64.086,207.961 64.205,207.783 64.205,207.564C64.205,207.346 64.324,207.168 64.47,207.168C64.615,207.168 64.734,206.98 64.734,206.752C64.734,206.523 64.883,206.17 65.065,205.967C65.85,205.092 66.057,204.792 66.057,204.533C66.057,204.381 66.176,204.257 66.322,204.257C66.467,204.257 66.587,204.074 66.587,203.849C66.587,203.625 66.795,203.216 67.05,202.941C67.304,202.666 67.749,201.986 68.038,201.431C68.327,200.875 68.774,200.228 69.03,199.993C69.287,199.757 69.497,199.37 69.497,199.133C69.497,198.895 69.616,198.701 69.762,198.701C69.907,198.701 70.026,198.577 70.026,198.425C70.026,198.273 70.147,198.006 70.294,197.83C70.849,197.169 71.878,195.493 71.878,195.25C71.878,195.11 71.997,194.997 72.143,194.997C72.288,194.997 72.407,194.769 72.407,194.49C72.407,194.211 72.504,193.943 72.621,193.894C72.739,193.846 73.302,193.092 73.873,192.219C74.443,191.345 75.002,190.591 75.114,190.543C75.226,190.494 75.318,190.227 75.318,189.948C75.318,189.669 75.437,189.44 75.582,189.44C75.728,189.44 75.847,189.262 75.847,189.044C75.847,188.825 75.936,188.646 76.045,188.646C76.155,188.645 76.597,187.99 77.028,187.191C77.46,186.391 77.906,185.736 78.021,185.736C78.135,185.736 78.228,185.498 78.228,185.207C78.228,184.916 78.347,184.678 78.493,184.678C78.638,184.678 78.757,184.499 78.757,184.281C78.757,184.063 78.876,183.884 79.022,183.884C79.167,183.884 79.287,183.646 79.287,183.355C79.287,183.064 79.376,182.825 79.485,182.824C79.594,182.823 79.886,182.466 80.134,182.03C80.616,181.184 81.139,180.98 81.139,181.64C81.139,181.861 81.555,182.446 82.065,182.941C82.574,183.435 82.991,184.029 82.991,184.259C82.991,184.489 83.11,184.678 83.255,184.678C83.401,184.678 83.52,184.916 83.52,185.207C83.52,185.498 83.639,185.736 83.784,185.736C83.93,185.736 84.049,185.974 84.049,186.265C84.049,186.557 84.168,186.795 84.314,186.795C84.459,186.795 84.578,187.049 84.578,187.359C84.578,187.669 84.789,188.116 85.046,188.351C85.304,188.586 85.75,189.284 86.038,189.9C86.327,190.517 86.652,191.023 86.761,191.025C86.87,191.027 86.959,191.266 86.959,191.557C86.959,191.848 87.079,192.086 87.224,192.086C87.37,192.086 87.489,192.265 87.489,192.483C87.489,192.701 87.6,192.88 87.735,192.88C87.871,192.88 88.053,193.104 88.14,193.378C88.32,193.944 89.176,194.997 89.457,194.997C89.744,194.997 90.399,195.719 90.399,196.036C90.399,196.192 90.518,196.32 90.664,196.32C90.809,196.32 90.928,196.558 90.928,196.849C90.928,197.14 91.047,197.378 91.193,197.378C91.338,197.378 91.457,197.564 91.457,197.792C91.457,198.019 91.755,198.856 92.119,199.652C92.483,200.447 92.78,201.158 92.78,201.232C92.78,201.305 93.023,201.629 93.319,201.951C94.023,202.718 95.162,204.476 95.162,204.798C95.162,204.937 95.281,205.051 95.426,205.051C95.572,205.051 95.691,205.263 95.691,205.522C95.691,205.781 95.929,206.164 96.22,206.374C96.511,206.584 96.749,206.912 96.749,207.103C96.749,207.437 97.485,208.745 97.828,209.02C97.995,209.154 98.601,210.233 98.601,210.397C98.601,210.446 98.184,210.711 97.675,210.986C97.166,211.26 96.749,211.585 96.749,211.707C96.749,211.83 96.511,211.93 96.22,211.93C95.575,211.93 95.556,212.097 96.132,212.674C96.454,212.995 96.604,213.026 96.684,212.788C96.744,212.607 96.962,212.459 97.168,212.459C97.374,212.459 97.543,212.34 97.543,212.195C97.543,212.049 97.771,211.93 98.05,211.93C98.329,211.93 98.606,211.785 98.665,211.607C98.814,211.159 100.004,212.388 100.564,213.568C100.809,214.083 101.241,214.754 101.525,215.058C101.809,215.363 102.041,215.796 102.041,216.02C102.041,216.244 102.16,216.428 102.305,216.428C102.451,216.428 102.57,216.55 102.57,216.698C102.57,217.019 103.938,219.167 104.224,219.294C104.333,219.343 104.422,219.551 104.422,219.757C104.422,219.963 104.541,220.132 104.687,220.132C104.832,220.132 104.951,220.327 104.951,220.564C104.951,220.802 105.168,221.189 105.433,221.424C105.698,221.659 106.14,222.239 106.416,222.712C106.692,223.185 107.011,223.572 107.125,223.572C107.239,223.572 107.332,223.81 107.332,224.101C107.332,224.392 107.422,224.631 107.531,224.632C107.64,224.633 108.204,225.378 108.784,226.286C109.365,227.194 109.93,227.977 110.041,228.026C110.152,228.074 110.243,228.392 110.243,228.731C110.243,229.071 110.362,229.388 110.507,229.437C110.653,229.485 110.945,230.351 111.156,231.361C111.367,232.371 111.784,233.527 112.082,233.93C112.38,234.333 112.624,234.787 112.624,234.938C112.624,235.09 112.743,235.213 112.889,235.213C113.034,235.213 113.153,235.425 113.153,235.684C113.153,235.943 113.391,236.327 113.682,236.536C113.973,236.746 114.212,237.124 114.212,237.375C114.212,237.627 114.408,237.943 114.647,238.077C115.007,238.278 115.059,238.624 114.943,240.062C114.859,241.119 114.643,241.964 114.394,242.212C113.937,242.67 111.566,242.791 111.566,242.357L111.566,242.357ZM83.52,240.13C83.52,239.398 83.092,239.182 81.639,239.182C80.257,239.182 80.08,239.242 80.08,239.711C80.08,240.186 80.257,240.24 81.8,240.24C82.746,240.24 83.52,240.191 83.52,240.13ZM111.455,239.86C112.243,239.072 112.332,238.306 111.749,237.33C111.445,236.821 110.982,236.211 110.719,235.976C110.457,235.741 110.243,235.469 110.243,235.372C110.243,234.956 108.361,233.361 107.87,233.361C107.432,233.361 107.332,233.533 107.332,234.287C107.332,234.797 107.451,235.213 107.597,235.213C107.742,235.213 107.862,235.397 107.862,235.622C107.862,235.847 108.129,236.318 108.457,236.668C109.441,237.72 109.714,238.088 109.714,238.364C109.714,238.52 108.135,238.675 105.811,238.746C102.101,238.859 99.659,239.101 99.659,239.353C99.659,239.417 99.808,239.638 99.99,239.845C100.48,240.401 110.9,240.415 111.455,239.86L111.455,239.86ZM68.368,236.38C68.717,236.031 68.727,235.921 68.428,235.736C68.229,235.613 67.763,235.572 67.393,235.644C66.905,235.739 66.627,235.624 66.386,235.23C66.189,234.907 66.162,234.684 66.32,234.684C66.466,234.684 66.587,234.56 66.587,234.409C66.587,234.257 66.818,233.885 67.101,233.581C67.537,233.113 67.56,232.974 67.252,232.666C67.052,232.466 66.785,232.303 66.658,232.303C66.111,232.303 64.986,233.002 64.849,233.427C64.766,233.682 64.588,233.89 64.452,233.89C64.178,233.89 64.114,235.727 64.366,236.382C64.595,236.979 67.771,236.977 68.368,236.38L68.368,236.38ZM53.882,235.412C53.884,235.303 53.708,235.213 53.49,235.213C53.042,235.213 53.026,235.26 53.262,235.875C53.397,236.227 53.476,236.245 53.655,235.963C53.778,235.769 53.88,235.521 53.882,235.412L53.882,235.412ZM73.853,235.224C74.172,234.871 74.268,234.491 74.153,234.033C73.836,232.77 71.349,233.284 71.349,234.612C71.349,235.763 73,236.166 73.853,235.224ZM77.078,232.892C77.877,232.251 77.492,231.243 76.451,231.249C75.579,231.254 75.21,231.471 74.971,232.119C74.573,233.195 76.033,233.731 77.078,232.892ZM71.279,230.824C71.863,230.24 71.292,229.894 69.894,229.985C69.023,230.042 68.82,230.16 68.751,230.649C68.675,231.184 68.777,231.245 69.762,231.245C70.411,231.245 71.029,231.073 71.279,230.824ZM102.041,224.365C102.041,224.22 101.803,224.101 101.512,224.101C101.22,224.101 100.982,224.22 100.982,224.365C100.982,224.511 101.22,224.63 101.512,224.63C101.803,224.63 102.041,224.511 102.041,224.365ZM73.617,222.4C74.101,221.916 74.095,221.72 73.598,221.72C73.38,221.72 73.201,221.769 73.201,221.83C73.201,221.891 73.129,222.129 73.04,222.359C72.841,222.88 73.117,222.9 73.617,222.4L73.617,222.4ZM66.784,212.564C67.312,212.036 67.211,210.607 66.645,210.607C65.82,210.607 64.205,211.893 64.205,212.551C64.205,212.767 64.354,213 64.536,213.067C65.03,213.25 66.405,212.943 66.784,212.564Z" style="fill-rule:nonzero;"/>
    </g>
</svg>
