<?xml version="1.0" encoding="UTF-8" standalone="no"?>
<!DOCTYPE svg PUBLIC "-//W3C//DTD SVG 1.1//EN" "http://www.w3.org/Graphics/SVG/1.1/DTD/svg11.dtd">
<svg width="100%" height="100%" viewBox="0 0 180 165" version="1.1" xmlns="http://www.w3.org/2000/svg" xmlns:xlink="http://www.w3.org/1999/xlink" xml:space="preserve" xmlns:serif="http://www.serif.com/" style="fill-rule:evenodd;clip-rule:evenodd;stroke-linejoin:round;stroke-miterlimit:2;">
    <g id="g1" transform="matrix(3.77953,0,0,3.77953,-283.908,-554.873)">
        <path id="path1" d="M108.613,190.135C108.236,189.982 103.391,189.77 97.368,189.644C91.547,189.522 86.755,189.412 86.718,189.401C86.682,189.39 86.652,189.261 86.652,189.116C86.652,188.95 88.456,188.841 91.481,188.825C96.446,188.798 97.514,188.676 97.701,188.116C97.784,187.867 96.323,187.793 91.357,187.793C86.692,187.793 84.818,187.705 84.588,187.475C84.414,187.301 84.253,186.795 84.231,186.351C84.195,185.605 84.184,185.596 84.085,186.234C83.933,187.215 82.897,187.732 82.022,187.264L81.36,186.91L81.36,181.149C81.36,177.981 81.255,175.324 81.126,175.244C80.998,175.165 80.744,174.312 80.562,173.349C80.229,171.585 80.448,166.933 81.133,161.202C81.272,160.038 81.446,158.55 81.519,157.895C81.593,157.24 81.781,156.445 81.939,156.127C82.096,155.809 82.16,155.382 82.082,155.177C82.003,154.972 82.036,154.647 82.154,154.455C82.332,154.168 82.516,154.167 83.203,154.451C83.828,154.71 84.111,154.721 84.338,154.494C84.791,154.042 98.205,154.068 98.369,154.522C98.465,154.786 98.601,154.786 99.049,154.522C99.457,154.281 101.326,154.194 105.897,154.201L112.184,154.211L113.933,156.589L113.593,164.849C113.225,173.772 113.199,179.839 113.506,185.314L113.7,188.788L112.965,189.613C112.302,190.357 112.082,190.437 110.752,190.422C109.939,190.413 108.976,190.284 108.612,190.135L108.613,190.135ZM104.379,187.938C104.379,187.216 101.49,186.712 100.838,187.32C100.212,187.906 100.965,188.301 102.726,188.312C104,188.32 104.379,188.234 104.379,187.938ZM86.009,185.911C86.233,185.549 85.639,185.146 85.155,185.332C84.96,185.407 84.8,185.634 84.8,185.837C84.8,186.275 85.748,186.333 86.009,185.911ZM86.255,184.353C86.165,184.208 85.98,184.089 85.843,184.089C85.706,184.089 85.594,184.208 85.594,184.353C85.594,184.499 85.779,184.618 86.006,184.618C86.233,184.618 86.345,184.499 86.255,184.353ZM107.648,183.405C108.158,183.21 107.906,182.5 107.327,182.505C106.68,182.511 106.138,182.931 106.345,183.265C106.546,183.59 107.032,183.642 107.648,183.405ZM94.512,182.087C95.07,181.529 94.583,181.056 93.683,181.282C93.238,181.394 93.002,181.635 93.002,181.977C93.002,182.623 93.91,182.689 94.512,182.087ZM110.465,180.206C110.465,179.682 110.348,179.571 109.872,179.639C109.211,179.733 108.906,180.604 109.422,180.924C109.96,181.256 110.465,180.908 110.465,180.206ZM85.329,179.591C85.329,179.445 85.144,179.326 84.917,179.326C84.69,179.326 84.578,179.445 84.668,179.591C84.758,179.736 84.943,179.855 85.08,179.855C85.217,179.855 85.329,179.736 85.329,179.591ZM88.967,176.879C88.907,176.697 88.698,176.548 88.504,176.548C88.31,176.548 88.102,176.697 88.041,176.879C87.976,177.076 88.163,177.21 88.504,177.21C88.845,177.21 89.033,177.076 88.967,176.879ZM101.204,174.299C101.204,174.154 101.152,174.035 101.088,174.035C101.023,174.035 100.897,174.154 100.807,174.299C100.717,174.445 100.77,174.564 100.924,174.564C101.078,174.564 101.204,174.445 101.204,174.299ZM115.189,180.715C115.095,172.536 115.315,160.705 115.607,158.126L115.927,155.314L118.764,152.463C120.976,150.241 121.672,149.682 121.92,149.93C122.316,150.326 122.67,165.939 122.412,171.653C122.253,175.169 122.198,175.483 121.756,175.408C120.782,175.242 120.519,175.833 120.519,178.188C120.519,180.308 120.478,180.466 119.745,181.199C119.32,181.624 118.854,181.972 118.709,181.972C118.564,181.972 118.406,182.064 118.358,182.175C118.256,182.411 115.664,184.089 115.402,184.089C115.306,184.089 115.21,182.571 115.189,180.715ZM121.048,158.803C121.048,158.249 120.937,158.139 120.453,158.207C120.07,158.262 119.827,158.505 119.773,158.887C119.704,159.372 119.814,159.483 120.368,159.483C120.922,159.483 121.048,159.356 121.048,158.803ZM120.519,155.514C120.519,154.96 120.314,154.877 119.614,155.145C118.945,155.402 119.119,156.043 119.857,156.043C120.342,156.043 120.519,155.902 120.519,155.514ZM122.392,178.378C122.404,178.07 122.467,178.007 122.552,178.218C122.628,178.409 122.619,178.638 122.531,178.725C122.443,178.813 122.38,178.657 122.392,178.378ZM114.433,153.991C114.433,153.508 114.226,153.418 112.78,153.272C111.87,153.179 105.024,153.14 97.566,153.184C86.852,153.248 84.006,153.195 84.006,152.934C84.006,152.752 84.096,152.601 84.205,152.599C84.314,152.597 84.774,152.269 85.227,151.872C85.68,151.474 86.746,150.553 87.596,149.825C88.445,149.098 89.321,148.294 89.542,148.039C89.764,147.785 90.144,147.576 90.387,147.576C90.63,147.576 90.899,147.393 90.985,147.169C91.124,146.807 92.789,146.77 105.708,146.838C120.945,146.918 120.763,146.905 120.779,147.984C120.782,148.189 116.31,152.83 114.632,154.362C114.523,154.462 114.433,154.295 114.433,153.991ZM115.179,151.743C115.275,150.908 114.73,150.757 114.055,151.432C113.381,152.106 113.532,152.651 114.367,152.555C114.939,152.489 115.113,152.315 115.179,151.743ZM93.665,150.485C93.755,150.338 93.624,150.14 93.373,150.043C92.971,149.889 92.984,149.844 93.489,149.657C94.259,149.372 94.215,148.899 93.418,148.899C92.256,148.899 91.404,150.307 92.407,150.569C93.209,150.778 93.495,150.759 93.665,150.485ZM100.605,150.186C101.292,149.499 99.52,148.814 98.586,149.406C98.383,149.534 98.29,149.83 98.379,150.063C98.57,150.561 100.143,150.648 100.605,150.186ZM115.937,149.908C115.853,149.697 115.79,149.76 115.777,150.068C115.766,150.347 115.828,150.503 115.916,150.415C116.004,150.327 116.013,150.099 115.937,149.908Z" style="fill-rule:nonzero;"/>
    </g>
</svg>
