<?xml version="1.0" encoding="UTF-8" standalone="no"?>
<!DOCTYPE svg PUBLIC "-//W3C//DTD SVG 1.1//EN" "http://www.w3.org/Graphics/SVG/1.1/DTD/svg11.dtd">
<svg width="100%" height="100%" viewBox="0 0 180 205" version="1.1" xmlns="http://www.w3.org/2000/svg" xmlns:xlink="http://www.w3.org/1999/xlink" xml:space="preserve" xmlns:serif="http://www.serif.com/" style="fill-rule:evenodd;clip-rule:evenodd;stroke-linejoin:round;stroke-miterlimit:2;">
    <g id="g1" transform="matrix(3.7062,0,0,3.7062,-295.101,-341.189)">
        <path id="path2" d="M101.421,144.847C100.461,143.901 98.871,142.609 97.888,141.977C95.979,140.748 95.088,140.025 93.032,138.036C92.318,137.344 91.585,136.761 91.404,136.74C91.223,136.718 90.836,136.688 90.545,136.674C90.135,136.653 90.032,136.488 90.089,135.939C90.129,135.55 90.04,135.156 89.891,135.063C88.95,134.482 90.53,134.398 102.323,134.398C111.845,134.398 115.155,134.317 115.542,134.076C115.947,133.822 116.316,133.822 117.262,134.076C117.924,134.253 119.767,134.398 121.357,134.398C122.947,134.398 124.315,134.506 124.397,134.638C124.653,135.052 124.3,135.582 123.548,135.916C123.15,136.093 121.837,136.895 120.63,137.699C119.424,138.502 118.328,139.16 118.195,139.16C118.063,139.16 117.026,139.652 115.892,140.253C114.757,140.854 112.995,141.777 111.976,142.304C110.958,142.83 109.967,143.41 109.775,143.592C109.582,143.774 109.265,143.923 109.069,143.923C108.873,143.923 108.674,144.012 108.625,144.121C108.501,144.401 106.845,145.246 106.421,145.246C106.226,145.246 106.028,145.335 105.979,145.444C105.862,145.708 103.986,146.568 103.528,146.568C103.33,146.568 102.382,145.794 101.421,144.847L101.421,144.847ZM102.055,142.203C102.055,141.782 101.125,141.648 100.887,142.034C100.691,142.35 100.993,142.6 101.569,142.6C101.836,142.6 102.055,142.421 102.055,142.203ZM108.934,140.88C108.934,140.662 108.747,140.483 108.518,140.483C108.289,140.483 107.924,140.662 107.705,140.88C107.353,141.233 107.399,141.277 108.121,141.277C108.667,141.277 108.934,141.146 108.934,140.88ZM100.049,139.793C100.693,139.546 100.545,139.16 99.806,139.16C99.163,139.16 98.961,139.418 99.321,139.777C99.535,139.992 99.53,139.992 100.049,139.793L100.049,139.793ZM114.755,138.496C114.755,137.469 113.16,137.313 112.78,138.303C112.553,138.895 113.253,139.385 114.093,139.225C114.568,139.134 114.755,138.928 114.755,138.496ZM111.463,138.779C112.125,138.287 111.701,137.477 110.719,137.359C110.037,137.277 109.198,138.084 109.198,138.822C109.198,139.288 110.818,139.257 111.463,138.779L111.463,138.779ZM104.171,137.985C104.171,137.427 103.677,137.214 103.234,137.582C102.658,138.059 102.767,138.366 103.51,138.366C103.909,138.366 104.171,138.215 104.171,137.985ZM104.039,136.779C103.949,136.633 103.763,136.514 103.626,136.514C103.489,136.514 103.377,136.633 103.377,136.779C103.377,136.924 103.563,137.043 103.79,137.043C104.017,137.043 104.129,136.924 104.039,136.779ZM95.969,136.099C95.969,135.823 95.776,135.712 95.395,135.768C94.547,135.893 94.457,136.514 95.286,136.514C95.73,136.514 95.969,136.369 95.969,136.099ZM80.094,133.042C80.094,132.873 80.553,132.008 81.114,131.119C81.675,130.23 82.219,129.235 82.323,128.907C82.426,128.58 82.622,128.312 82.758,128.312C82.894,128.312 83.005,128.143 83.005,127.937C83.005,127.59 83.759,125.97 84.063,125.667C84.136,125.594 84.587,124.76 85.066,123.814C85.954,122.058 86.473,121.14 86.709,120.904C86.781,120.831 87.166,120.139 87.564,119.365C88.659,117.234 89.189,116.319 89.553,115.929C89.735,115.734 89.884,115.404 89.884,115.196C89.884,114.988 89.975,114.818 90.086,114.818C90.288,114.818 90.766,114.034 91.094,113.165C91.19,112.91 91.374,112.702 91.502,112.702C91.631,112.702 91.736,112.575 91.736,112.419C91.736,112.264 92.018,111.758 92.364,111.295C92.709,110.832 93.296,109.899 93.667,109.222C94.848,107.069 95.716,105.802 96.113,105.649C96.325,105.568 96.498,105.293 96.498,105.038C96.498,104.594 97.68,102.188 98.583,100.794C99.42,99.502 99.679,99.071 99.854,98.679C99.952,98.461 100.1,98.222 100.183,98.15C100.267,98.077 100.743,97.243 101.243,96.298C102.795,93.359 102.983,93.054 103.25,93.044C103.552,93.033 106.021,96.905 106.885,98.745C107.21,99.436 107.565,100.002 107.675,100.002C107.785,100.002 107.875,100.172 107.875,100.38C107.875,100.588 108.024,100.916 108.206,101.11C108.505,101.428 109.175,102.66 111.49,107.145C111.903,107.946 112.301,108.66 112.374,108.733C112.446,108.806 112.77,109.401 113.093,110.056C113.416,110.711 113.99,111.602 114.369,112.038C114.748,112.473 115.495,113.723 116.03,114.816C116.566,115.909 117.075,116.862 117.163,116.935C117.403,117.135 118.708,119.384 118.89,119.912C118.978,120.166 119.155,120.375 119.283,120.375C119.412,120.375 119.517,120.477 119.517,120.603C119.517,120.728 120.087,121.71 120.783,122.785C121.48,123.861 122.283,125.217 122.569,125.799C122.855,126.381 123.152,126.916 123.229,126.989C123.305,127.062 123.589,127.657 123.86,128.312C124.13,128.967 124.514,129.878 124.712,130.336C124.911,130.795 125.073,131.253 125.073,131.354C125.073,131.455 125.317,131.88 125.615,132.298L126.156,133.058L125.549,133.208C125.214,133.29 120.298,133.311 114.622,133.254C108.947,133.197 104.184,133.151 104.039,133.151C103.893,133.151 98.446,133.196 91.934,133.251C83.059,133.325 80.094,133.273 80.094,133.042L80.094,133.042ZM84.28,131.024C84.342,130.589 84.231,130.429 83.87,130.429C83.289,130.429 82.74,130.913 82.74,131.425C82.74,131.664 82.988,131.758 83.468,131.703C83.989,131.643 84.219,131.45 84.28,131.024ZM85.783,130.693C85.873,130.548 86.723,130.429 87.672,130.429C88.938,130.429 89.368,130.341 89.284,130.098C89.204,129.868 88.548,129.777 87.126,129.8C85.114,129.832 84.36,130.104 84.71,130.67C84.933,131.031 85.566,131.044 85.783,130.693L85.783,130.693ZM110.736,130.363C110.801,130.026 110.652,129.9 110.188,129.9C109.411,129.9 109.188,130.094 109.382,130.601C109.583,131.123 110.626,130.939 110.736,130.363ZM120.311,128.841C120.311,128.696 120.132,128.577 119.914,128.577C119.696,128.577 119.517,128.696 119.517,128.841C119.517,128.987 119.696,129.106 119.914,129.106C120.132,129.106 120.311,128.987 120.311,128.841ZM87.436,127.981C87.376,127.8 87.108,127.651 86.841,127.651C86.574,127.651 86.306,127.8 86.246,127.981C86.176,128.191 86.394,128.312 86.841,128.312C87.288,128.312 87.506,128.191 87.436,127.981ZM86.372,127.094C86.285,127.006 86.056,126.997 85.865,127.073C85.654,127.158 85.717,127.22 86.025,127.233C86.304,127.244 86.46,127.182 86.372,127.094L86.372,127.094ZM127.035,131.179C126.731,130.839 125.96,129.49 125.322,128.18C124.683,126.87 123.413,124.565 122.5,123.056C121.587,121.548 120.84,120.27 120.84,120.217C120.84,120.164 120.441,119.493 119.954,118.726C119.086,117.362 118.031,115.486 116.639,112.834C116.258,112.106 115.878,111.452 115.795,111.379C115.713,111.306 115.349,110.651 114.987,109.924C114.625,109.196 113.963,107.946 113.514,107.145C113.066,106.345 112.104,104.559 111.377,103.177C109.198,99.034 109.074,98.815 108.868,98.723C108.758,98.674 108.669,98.357 108.669,98.017C108.669,97.678 108.567,97.36 108.443,97.312C108.233,97.23 105.494,92.951 105.494,92.705C105.494,92.45 106.088,92.641 107.922,93.486C111.917,95.325 112.357,95.504 112.888,95.504C113.187,95.504 113.432,95.623 113.432,95.768C113.432,95.914 113.61,96.033 113.829,96.033C114.047,96.033 114.225,96.152 114.225,96.298C114.225,96.443 114.338,96.562 114.477,96.562C114.615,96.562 115.257,96.919 115.904,97.356C116.551,97.792 117.212,98.15 117.373,98.15C117.533,98.15 117.665,98.269 117.665,98.414C117.665,98.56 117.785,98.679 117.932,98.679C118.151,98.679 121.317,100.524 122.957,101.607C123.175,101.751 123.562,101.939 123.817,102.025C124.133,102.131 124.28,102.457 124.28,103.057C124.28,103.722 124.417,103.978 124.847,104.115C125.159,104.214 125.754,104.643 126.17,105.068L126.925,105.841L126.925,110.036C126.925,112.343 127.109,117.132 127.334,120.676C127.559,124.221 127.708,128.174 127.665,129.459L127.587,131.797L127.035,131.179ZM125.184,116.774C125.805,116.536 125.731,115.348 125.095,115.348C123.881,115.348 123.397,115.946 124.068,116.618C124.428,116.978 124.593,117.001 125.184,116.774L125.184,116.774ZM121.313,109.725C121.618,109.356 121.443,108.016 121.058,107.778C120.921,107.694 120.519,107.698 120.163,107.787C119.672,107.911 119.517,108.126 119.517,108.685C119.517,109.881 120.644,110.534 121.313,109.725L121.313,109.725ZM117.246,104.868C117.477,104.78 117.665,104.542 117.665,104.339C117.665,103.914 116.923,103.858 116.342,104.239C115.989,104.471 115.989,104.529 116.342,104.76C116.819,105.074 116.737,105.064 117.246,104.868L117.246,104.868ZM83.311,120.741C83.618,119.629 83.445,114.035 83.037,111.908C82.884,111.108 82.678,109.887 82.58,109.196C82.274,107.039 81.946,107.817 81.946,110.702C81.946,113.258 81.902,113.496 81.358,113.877C81.035,114.104 80.678,114.289 80.564,114.289C80.451,114.289 80.359,112.425 80.359,110.147C80.359,106.052 80.367,105.994 81.077,105.054C82.004,103.826 82.208,103.634 83.005,103.241C84.164,102.67 85.255,101.997 86.663,100.986C87.416,100.445 88.271,100.002 88.561,100.002C88.852,100.002 89.09,99.91 89.09,99.799C89.09,99.687 89.775,99.19 90.611,98.694C91.448,98.198 92.192,97.723 92.265,97.638C92.338,97.553 92.844,97.249 93.389,96.962C93.935,96.676 94.382,96.364 94.382,96.268C94.382,96.173 94.59,96.025 94.845,95.939C95.295,95.788 96.231,95.242 96.498,94.975C96.766,94.707 97.702,94.161 98.152,94.01C98.407,93.925 98.615,93.749 98.615,93.621C98.615,93.492 98.779,93.387 98.979,93.387C99.18,93.387 99.492,93.209 99.673,92.99C100.019,92.574 100.996,92.439 100.996,92.808C100.996,92.926 100.783,93.254 100.523,93.536C100.263,93.818 99.36,95.418 98.516,97.091C96.766,100.561 97.051,100.05 94.788,103.779C93.837,105.347 93.059,106.678 93.059,106.737C93.059,106.879 89.56,112.532 89.368,112.702C89.285,112.775 88.983,113.28 88.697,113.826C88.41,114.372 88.098,114.818 88.002,114.818C87.907,114.818 87.759,115.027 87.673,115.281C87.509,115.77 86.947,116.712 86.686,116.935C86.601,117.008 85.898,118.109 85.124,119.382C83.621,121.854 82.843,122.437 83.311,120.741ZM85.65,117.067C85.65,116.847 85.415,116.67 85.121,116.67C84.594,116.67 84.433,116.952 84.768,117.288C85.091,117.61 85.65,117.47 85.65,117.067ZM87.502,112.056C87.502,111.992 87.383,111.866 87.238,111.776C87.092,111.686 86.973,111.738 86.973,111.892C86.973,112.046 87.092,112.173 87.238,112.173C87.383,112.173 87.502,112.12 87.502,112.056ZM88.825,109.41C88.825,109.346 88.706,109.22 88.561,109.13C88.415,109.04 88.296,109.092 88.296,109.247C88.296,109.401 88.415,109.527 88.561,109.527C88.706,109.527 88.825,109.474 88.825,109.41Z" style="fill-rule:nonzero;"/>
    </g>
</svg>
