<?xml version="1.0" encoding="UTF-8" standalone="no"?>
<!DOCTYPE svg PUBLIC "-//W3C//DTD SVG 1.1//EN" "http://www.w3.org/Graphics/SVG/1.1/DTD/svg11.dtd">
<svg width="100%" height="100%" viewBox="0 0 690 690" version="1.1" xmlns="http://www.w3.org/2000/svg" xmlns:xlink="http://www.w3.org/1999/xlink" xml:space="preserve" xmlns:serif="http://www.serif.com/" style="fill-rule:evenodd;clip-rule:evenodd;stroke-linejoin:round;stroke-miterlimit:2;">
    <g id="g1" transform="matrix(3.77953,0,0,3.77953,-44.936,-424.693)">
        <path id="path1" d="M127.388,260.024C127.343,259.979 127.306,259.839 127.306,259.715C127.306,259.545 127.4,259.488 127.677,259.488C127.99,259.488 128.048,259.536 128.048,259.797C128.048,260.039 127.985,260.106 127.759,260.106C127.601,260.106 127.434,260.069 127.388,260.024ZM71.02,259.793C69.42,259.527 66.749,259.264 64.148,259.115C59.738,258.862 60.037,258.76 67.247,258.063C68.2,257.971 70.538,257.805 72.443,257.695C74.348,257.585 75.986,257.467 76.084,257.435C76.223,257.388 76.203,257.317 75.987,257.102C75.714,256.828 75.204,256.787 72.195,256.792C72.059,256.792 71.823,256.784 71.67,256.774C71.199,256.744 68.912,256.743 68.268,256.773C67.954,256.788 67.712,256.784 66.567,256.749C65.409,256.713 64.636,256.713 63.722,256.748C62.088,256.81 61.519,256.817 59.825,256.797C53.722,256.725 51.082,256.775 49.063,257.004C46.085,257.341 39.583,257.693 34.05,257.817C31.206,257.881 31.154,257.886 30.799,258.185C30.6,258.352 30.258,258.516 30.039,258.549C29.147,258.684 20.301,258.74 19.964,258.613C19.775,258.542 19.444,258.313 19.227,258.104C18.882,257.771 18.726,257.717 17.939,257.661C17.447,257.626 16.328,257.67 15.452,257.759C13.913,257.916 13.848,257.913 13.524,257.671C13.339,257.534 13.159,257.26 13.123,257.063C13.061,256.72 13.034,256.707 12.474,256.746L11.889,256.787L11.889,255.427L16.188,255.426C21.806,255.425 21.42,255.439 21.34,255.232C21.204,254.878 21.932,254.284 22.772,254.065L23.569,253.856L23.73,253.054C24.065,251.391 25.019,249.18 26.056,247.664C27.149,246.066 28.05,245.553 29.565,245.661C30.672,245.741 31.275,246.076 32.499,247.291C33.985,248.768 33.89,248.741 35.459,248.123C36.954,247.535 38.433,246.989 41.702,245.821C43.213,245.281 44.895,244.551 46.65,243.673C48.113,242.942 49.812,242.112 50.426,241.83C51.04,241.548 52.46,240.875 53.581,240.335C55.916,239.211 56.854,238.891 58.578,238.632C59.254,238.53 59.874,238.408 59.958,238.36C60.041,238.312 60.536,237.883 61.059,237.407C61.581,236.931 62.114,236.485 62.242,236.416C62.37,236.347 63.013,235.793 63.671,235.187C64.591,234.337 64.949,233.91 65.226,233.333C65.425,232.92 65.668,232.436 65.767,232.257C65.866,232.078 66.037,231.498 66.147,230.967C66.331,230.08 66.331,229.975 66.147,229.665C65.845,229.153 65.914,228.588 66.621,225.779C66.888,224.719 67.433,221.86 67.433,221.52C67.433,221.263 67.391,221.241 67.038,221.312C66.821,221.355 66.167,221.635 65.585,221.933C65.002,222.232 64.192,222.572 63.783,222.688C63.375,222.805 62.955,222.976 62.849,223.069C62.743,223.162 61.94,223.578 61.064,223.994C60.188,224.41 58.939,225.098 58.288,225.525C57.018,226.355 55.14,227.3 54.134,227.613C53.794,227.719 52.987,227.918 52.341,228.055C51.694,228.193 50.72,228.415 50.176,228.549C49.632,228.683 48.853,228.832 48.446,228.881C48.039,228.929 47.339,229.125 46.891,229.316C46.443,229.506 45.635,229.779 45.095,229.922C44.556,230.065 43.641,230.409 43.063,230.687C41.686,231.348 41.468,231.412 40.183,231.53C39.586,231.585 39.029,231.683 38.946,231.747C38.649,231.977 37.61,232.181 37.054,232.118C36.367,232.041 34.895,231.332 34.218,230.753C33.946,230.52 33.497,230.214 33.22,230.073C32.511,229.712 31.887,228.972 31.629,228.184C31.372,227.398 31.361,227.113 31.537,225.779C31.787,223.886 31.951,223.051 32.263,222.068C32.506,221.302 32.599,220.673 32.671,219.284C32.821,216.433 33.423,214.361 34.399,213.343C34.611,213.122 35.329,212.143 35.687,211.589C35.814,211.392 36.164,210.281 36.464,209.12C36.764,207.959 37.092,206.834 37.193,206.621C37.486,206 38.483,204.547 39.352,203.474C39.794,202.928 40.405,202.165 40.71,201.778C41.015,201.392 41.571,200.811 41.947,200.489C43.62,199.052 46.219,197.512 46.97,197.512C47.202,197.512 47.393,197.543 47.393,197.581C47.393,197.618 47.072,198.039 46.681,198.516C45.027,200.532 44.791,200.868 44.552,201.55C44.413,201.944 44.3,202.353 44.3,202.458C44.3,202.564 44.189,202.857 44.053,203.111C43.911,203.376 43.805,203.809 43.805,204.127C43.805,204.585 43.86,204.718 44.12,204.888C44.554,205.172 44.894,204.97 45.29,204.19C45.603,203.573 47.263,201.696 48.506,200.554C49.689,199.467 51.61,197.463 51.777,197.141C51.865,196.971 51.977,196.561 52.025,196.229C52.126,195.537 52.536,195.038 53.004,195.038C53.255,195.038 53.341,195.139 53.505,195.619C53.772,196.402 53.904,199.475 53.704,200.234C53.623,200.54 53.473,201.18 53.371,201.656C52.945,203.649 52.721,204.433 52.295,205.425C52.048,206.001 51.846,206.52 51.846,206.58C51.846,206.639 52.25,206.65 52.743,206.604C53.394,206.543 53.848,206.574 54.4,206.717C54.818,206.825 55.32,206.914 55.515,206.914C55.722,206.914 56.561,206.537 57.533,206.006C59.178,205.109 59.197,205.093 59.336,204.553C59.622,203.442 60.243,202.634 61.611,201.595L62.018,201.285L61.628,199.986C60.63,196.661 60.335,194.779 60.341,191.76C60.347,188.605 60.746,186.337 61.621,184.486C61.904,183.888 62.077,183.656 62.221,183.685C62.398,183.72 62.421,183.956 62.409,185.578C62.4,186.692 62.314,187.874 62.193,188.544C61.89,190.212 61.926,192.908 62.273,194.5C62.423,195.191 62.602,195.764 62.67,195.774C62.738,195.785 62.891,195.247 63.009,194.581C63.127,193.914 63.277,193.229 63.342,193.059C63.407,192.889 63.659,191.919 63.903,190.903C64.147,189.887 64.395,188.997 64.455,188.924C64.514,188.851 64.713,188.29 64.897,187.678C65.279,186.406 66.194,184.499 66.663,184C66.908,183.738 67.018,183.693 67.147,183.801C67.24,183.878 67.335,183.918 67.359,183.892C67.525,183.707 67.955,182.663 68.298,181.616C68.521,180.936 68.745,180.324 68.796,180.256C68.847,180.188 69.056,179.599 69.262,178.947C69.677,177.631 70.357,176.205 71.147,174.995C72.108,173.523 74.731,171.255 74.731,171.895C74.731,172.157 74.556,172.488 73.677,173.885C72.053,176.466 71.174,178.369 70.335,181.121C69.754,183.029 69.075,185.092 68.788,185.827C68.654,186.17 68.464,186.869 68.366,187.38C68.15,188.512 67.779,191.467 67.845,191.533C67.945,191.634 68.142,191.232 68.401,190.399C69.19,187.856 70.322,184.825 71.089,183.198C71.701,181.9 72.158,181.307 72.546,181.307C72.772,181.307 72.783,181.368 72.708,182.204C72.626,183.123 72.155,185.133 71.919,185.575C71.815,185.771 71.179,187.979 70.815,189.41C70.758,189.636 70.766,189.634 70.917,189.39C71.189,188.949 71.936,187.618 72.503,186.564C72.796,186.02 73.104,185.491 73.188,185.389C73.273,185.287 73.465,184.953 73.616,184.647C73.767,184.341 74.091,183.784 74.335,183.41C74.579,183.036 74.955,182.451 75.17,182.111C75.961,180.859 77.091,179.128 77.433,178.647C77.626,178.375 77.915,177.93 78.076,177.658C78.236,177.386 78.415,177.13 78.473,177.09C78.532,177.05 78.768,176.743 78.998,176.409C80.144,174.748 80.58,174.143 81.038,173.575C81.312,173.235 81.769,172.651 82.053,172.277C82.338,171.902 83.381,170.684 84.372,169.57C85.363,168.455 86.359,167.314 86.586,167.034C86.812,166.754 87.313,166.185 87.699,165.771C88.085,165.357 88.902,164.475 89.514,163.81C90.65,162.576 92.732,160.686 93.844,159.879C94.184,159.632 94.71,159.175 95.014,158.864C95.708,158.151 95.981,158.123 95.891,158.775C95.878,158.867 95.532,159.293 95.122,159.722C94.712,160.151 94.248,160.691 94.09,160.923C93.653,161.567 92.092,163.603 90.935,165.04C90.66,165.38 90.201,165.965 89.913,166.341C89.284,167.161 88.653,167.936 87.655,169.11C87.244,169.593 86.716,170.238 86.481,170.545C86.246,170.851 85.993,171.157 85.919,171.225C85.845,171.293 85.594,171.599 85.362,171.905C85.13,172.212 84.866,172.54 84.774,172.636C84.683,172.731 84.376,173.115 84.092,173.49C83.808,173.864 83.396,174.398 83.176,174.677C81.692,176.555 79.13,180.251 77.222,183.264C76.907,183.761 76.474,184.433 76.26,184.756C76.047,185.079 75.723,185.618 75.542,185.954C75.36,186.29 74.995,186.926 74.731,187.368C74.467,187.811 74.027,188.598 73.754,189.118C73.481,189.638 73.116,190.272 72.943,190.527C72.532,191.132 72.53,191.451 72.936,191.451C73.19,191.451 73.319,191.306 73.679,190.616C73.918,190.156 74.332,189.419 74.599,188.977C74.866,188.534 75.279,187.839 75.517,187.43C76.127,186.381 77.007,185.022 77.357,184.585C77.521,184.381 77.786,183.991 77.947,183.719C78.109,183.447 78.383,183.051 78.558,182.84C78.733,182.629 79.098,182.163 79.37,181.804C82.34,177.893 84.686,175.278 88.032,172.15C90.515,169.83 94.255,166.957 94.794,166.957C95.101,166.957 95.076,167.239 94.731,167.659C94.573,167.851 94.259,168.287 94.034,168.627C93.808,168.967 93.561,169.301 93.484,169.369C93.408,169.437 93.153,169.744 92.918,170.05C92.105,171.108 91.166,172.121 88.524,174.794C86.222,177.124 84.776,178.649 83.824,179.756C83.483,180.151 83.028,180.676 82.813,180.922C82.597,181.168 82.05,181.842 81.599,182.42C81.147,182.999 80.694,183.574 80.592,183.699C80.49,183.823 80.201,184.213 79.951,184.564C79.7,184.916 79.161,185.655 78.752,186.206C78.344,186.757 77.842,187.475 77.638,187.802C77.434,188.129 77.16,188.569 77.029,188.78C76.898,188.99 76.605,189.446 76.379,189.794C76.153,190.141 75.968,190.487 75.968,190.563C75.968,191.073 78.15,189.227 80.109,187.059C80.847,186.243 82.55,184.489 83.893,183.163C85.237,181.836 86.509,180.5 86.72,180.194C86.931,179.887 87.325,179.359 87.597,179.018C87.869,178.678 88.315,178.094 88.589,177.72C88.863,177.345 89.362,176.677 89.7,176.235C90.037,175.793 90.547,175.097 90.833,174.689C91.12,174.281 91.419,173.891 91.497,173.823C91.576,173.755 91.772,173.504 91.932,173.266C92.092,173.028 92.268,172.802 92.323,172.764C92.378,172.725 92.555,172.514 92.717,172.294C94.006,170.547 96.234,168.263 99.163,165.687C100.852,164.2 102.812,162.376 106.017,159.305C106.398,158.941 106.959,158.441 107.266,158.193C107.572,157.946 108.184,157.434 108.626,157.055C109.069,156.676 109.547,156.286 109.69,156.188C109.833,156.09 110.282,155.745 110.687,155.421C111.391,154.858 111.707,154.662 112.956,154.016C113.498,153.736 113.946,153.639 113.946,153.801C113.946,154.084 111.636,156.486 109.623,158.298C108.98,158.876 106.747,161.047 104.661,163.122C102.574,165.198 99.635,168.095 98.129,169.561C96.622,171.028 95.39,172.299 95.39,172.387C95.39,172.612 95.817,172.327 97.709,170.836C98.585,170.145 100.022,169.039 100.902,168.377C102.883,166.888 102.914,166.862 104.73,165.167C108.02,162.095 109.881,160.416 111.179,159.35C111.51,159.077 112.031,158.628 112.338,158.351C112.916,157.826 114.466,156.563 115.058,156.133C115.245,155.997 115.698,155.659 116.064,155.382C116.672,154.921 118.63,153.624 119.604,153.035C120.069,152.754 123.045,150.94 123.407,150.717C123.542,150.634 123.876,150.422 124.149,150.245C124.423,150.068 125.342,149.537 126.192,149.066C128.921,147.553 130.646,146.879 130.646,147.325C130.646,147.586 129.7,148.351 127.553,149.827C125.9,150.964 124.545,151.937 123.595,152.669C123.084,153.062 121.212,154.429 120.374,155.02C119.21,155.841 117.69,156.985 116.687,157.797C116.051,158.311 115.316,158.898 115.054,159.102C114.414,159.601 114.351,159.776 114.855,159.663C115.073,159.614 115.361,159.514 115.496,159.442C115.997,159.174 117.227,158.793 117.835,158.717C118.179,158.674 118.645,158.554 118.87,158.451C119.193,158.302 119.31,158.295 119.427,158.415C119.542,158.533 119.511,158.612 119.288,158.772C119.13,158.886 118.712,159.25 118.36,159.582C117.529,160.365 115.836,161.62 114.157,162.698C112.436,163.804 107.091,167.369 106.509,167.801C106.262,167.983 105.594,168.463 105.024,168.868C103.565,169.904 103.021,170.401 101.503,172.091C100.77,172.907 100.103,173.631 100.021,173.699C99.537,174.102 97.923,176.212 98.023,176.311C98.057,176.345 99.162,175.77 100.479,175.033C102.738,173.769 105.033,172.593 106.709,171.841C107.117,171.657 107.813,171.34 108.255,171.136C110.376,170.157 114.509,168.353 115.616,167.922C117.967,167.006 121.194,166.006 123.718,165.41C125.195,165.062 129.019,163.986 130.955,163.374C135.577,161.914 137.628,161.349 139.538,161.012C140.312,160.875 140.972,160.789 141.004,160.821C141.159,160.977 140.791,161.153 139.338,161.618C138.47,161.896 136.646,162.48 135.285,162.917C133.924,163.354 131.308,164.308 129.471,165.037C127.634,165.766 125.782,166.494 125.355,166.655C124.928,166.816 124.399,167.025 124.18,167.12C122.845,167.695 121.919,168.051 119.451,168.941C116.299,170.078 114.813,170.741 109.863,173.223C105.225,175.549 103.214,176.615 101.841,177.475C101.409,177.745 101.039,177.967 101.019,177.967C100.998,177.967 100.628,178.189 100.196,178.46C99.764,178.731 99.243,179.046 99.039,179.158C98.835,179.271 98.223,179.652 97.679,180.005C97.134,180.357 96.427,180.809 96.106,181.007C95.785,181.206 95.521,181.411 95.518,181.462C95.516,181.513 96.089,181.554 96.793,181.554C98.22,181.554 98.147,181.575 101.513,180.254C107.443,177.927 111.262,176.745 123.162,173.554C129.39,171.883 133.49,171.076 139.367,170.364C140.796,170.19 142.188,170.021 142.46,169.988C144.232,169.768 148.057,169.412 148.851,169.393C150.49,169.352 150.267,169.748 148.414,170.168C147.793,170.309 147.061,170.477 146.789,170.542C146.517,170.606 145.571,170.829 144.686,171.036C142.778,171.485 139.691,172.266 139.429,172.367C138.887,172.575 139.842,172.497 142.03,172.152C147.044,171.363 151.041,170.979 155.449,170.863C157.492,170.809 158.046,170.832 158.634,170.996C159.025,171.106 159.345,171.23 159.344,171.272C159.34,171.486 157.662,172.035 156.667,172.148C155.625,172.267 151.993,172.972 147.408,173.947C142.208,175.052 139.141,175.646 129.161,177.479C125.821,178.092 122.195,178.872 119.698,179.514C116.14,180.428 111.224,182.134 111.224,182.455C111.224,182.531 111.49,182.551 111.92,182.507C112.41,182.456 112.762,182.493 113.105,182.63C113.734,182.882 115.409,182.78 117.455,182.364C118.811,182.089 119.043,182.076 120.862,182.18C121.935,182.241 123.379,182.375 124.069,182.479C124.76,182.583 125.924,182.668 126.656,182.668C128.432,182.669 130.579,183.044 132.625,183.711C133.544,184.01 134.796,184.379 135.408,184.532C136.547,184.815 137.574,185.17 138.563,185.624C138.891,185.774 139.381,185.88 139.756,185.881C140.106,185.882 140.746,185.989 141.179,186.117C141.611,186.246 142.46,186.416 143.065,186.495C144.229,186.649 145.336,187.102 145.799,187.615C146.108,187.957 146.481,188.151 147.62,188.562C148.115,188.74 149.133,189.286 149.881,189.773C150.63,190.261 151.632,190.875 152.109,191.138C153.078,191.672 155.059,192.975 155.832,193.586C157.613,194.995 157.922,195.186 160.582,196.529C161.569,197.027 163.074,197.859 163.926,198.377C165.673,199.441 169.235,201.223 169.612,201.223C169.772,201.223 169.86,201.141 169.86,200.991C169.86,200.863 169.939,200.57 170.035,200.339C170.132,200.109 170.331,199.42 170.478,198.809C170.8,197.474 171.585,195 172.146,193.554C172.37,192.975 172.679,192.113 172.832,191.636C172.985,191.16 173.154,190.713 173.209,190.643C173.264,190.573 173.506,189.961 173.748,189.283C173.989,188.604 174.253,187.938 174.333,187.801C174.487,187.54 175.061,186.143 175.733,184.4C176.242,183.077 177.195,181.323 177.883,180.439C179.259,178.673 182.15,177.201 184.609,177.015C185.696,176.932 186.98,177.184 187.934,177.666C189.076,178.242 191.73,180.944 192.027,181.832C192.101,182.053 192.284,182.402 192.435,182.606C192.895,183.231 193.055,184.17 193.055,186.255C193.055,188.367 192.874,189.853 192.424,191.451C192.26,192.029 192.047,192.921 191.949,193.434C191.851,193.946 191.713,194.518 191.642,194.704C191.571,194.891 191.428,195.418 191.324,195.876C191.126,196.747 190.673,198.099 190.503,198.324C190.448,198.396 190.202,198.981 189.955,199.623C189.708,200.265 189.434,200.874 189.346,200.976C189.259,201.078 189.061,201.412 188.908,201.718C187.423,204.682 184.928,206.432 179.509,208.311L177.716,208.933L175.922,208.916C174.935,208.907 173.909,208.884 173.64,208.865L173.152,208.831L172.747,210.316C172.524,211.132 172.278,211.967 172.202,212.171C171.935,212.882 171.229,215.389 171.227,215.635C171.221,216.294 171.43,216.242 172.315,215.362C173.26,214.422 174.446,213.75 175.674,213.458C176.865,213.174 180.87,213.285 180.87,213.601C180.87,213.763 180.182,214.029 179.163,214.26C177.726,214.587 176.298,215.071 175.18,215.61C174.318,216.025 173.938,216.309 173.077,217.184C172.498,217.771 171.802,218.623 171.53,219.076C169.856,221.867 169.803,222.062 169.815,225.346C169.822,227.135 169.884,228.192 170.026,228.933C170.136,229.512 170.364,230.933 170.533,232.093C170.854,234.304 171.217,235.468 171.915,236.522C172.134,236.852 172.337,237.434 172.483,238.149C172.648,238.959 172.824,239.431 173.127,239.881C173.448,240.358 173.563,240.684 173.629,241.304C173.784,242.767 174.088,243.948 174.648,245.262C174.952,245.977 175.253,246.624 175.316,246.7C175.448,246.86 175.737,247.832 175.853,248.508C175.948,249.061 176.199,249.221 176.97,249.221C177.284,249.221 177.956,249.307 178.465,249.412C179.235,249.571 179.672,249.581 181.088,249.474C184.487,249.217 189.121,249.372 189.755,249.764C189.946,249.882 189.941,250.171 189.746,250.292C189.46,250.471 184.406,250.943 182.714,250.949C181.941,250.952 181.736,250.996 181.555,251.196C181.156,251.637 180.599,251.726 178.824,251.631L177.164,251.542L177.047,251.85C176.983,252.019 176.787,252.27 176.612,252.408C176.221,252.715 176.221,252.724 176.603,253.106C177.315,253.818 176.784,254.626 175.459,254.846C174.91,254.937 174.711,255.083 174.941,255.226C175.016,255.272 175.702,255.359 176.465,255.42C177.229,255.481 178.157,255.621 178.527,255.731C179.005,255.873 180.025,255.958 182.046,256.024C185.837,256.149 187.198,256.329 188.259,256.848C188.939,257.18 188.931,257.46 188.23,257.77C187.467,258.107 185.147,258.242 179.995,258.247L176.089,258.251L175.812,258.547C175.331,259.059 174.595,259.18 172.026,259.171C170.733,259.167 168.646,259.069 167.387,258.954C162.686,258.524 160.183,258.454 148.955,258.434C141.356,258.421 137.462,258.37 136.832,258.275C135.312,258.046 133.647,258.091 133.014,258.378C132.599,258.566 132.207,258.622 131.305,258.622C130.265,258.622 130.092,258.59 129.741,258.327C129.525,258.165 129.222,257.995 129.069,257.948C128.651,257.821 128.733,257.558 129.286,257.247C129.558,257.094 129.781,256.931 129.781,256.884C129.781,256.738 128.891,256.647 128.662,256.77C128.523,256.844 128.309,256.839 128.069,256.755C127.85,256.679 127.24,256.653 126.603,256.693C126.004,256.73 125.374,256.769 125.204,256.779C124.869,256.799 124.475,256.797 122.111,256.766C121.26,256.755 119.646,256.753 118.524,256.761C117.401,256.769 116.301,256.772 116.08,256.767C115.859,256.762 115.386,256.76 115.029,256.761C114.227,256.765 111.504,256.751 110.173,256.736C109.629,256.73 108.377,256.738 107.39,256.754C106.404,256.769 104.959,256.779 104.18,256.774C103.402,256.769 102.726,256.808 102.678,256.859C102.631,256.91 102.554,257.13 102.508,257.348L102.425,257.744L103.197,257.781C103.983,257.819 104.303,258.037 103.769,258.171C103.461,258.248 101.348,258.427 98.36,258.627C97.373,258.694 94.478,258.802 91.927,258.868C86.815,259 84.668,259.151 83.639,259.451C82.379,259.818 72.746,260.079 71.021,259.793L71.02,259.793ZM74.443,254.712C74.814,254.311 75.351,253.677 75.636,253.303C75.921,252.928 76.215,252.567 76.289,252.499C76.364,252.431 76.556,252.18 76.716,251.942C77.524,250.744 78.659,249.479 79.446,248.901C80.063,248.448 80.793,247.474 80.793,247.104C80.793,246.789 80.968,246.717 82.145,246.543C83.268,246.377 83.296,246.358 83.962,245.344C84.133,245.083 84.445,244.777 84.655,244.664C85.167,244.388 85.264,244.275 86.156,242.911C87.318,241.134 87.258,241.186 91.246,238.54C91.654,238.269 92.121,237.931 92.283,237.789C92.577,237.531 92.703,237.373 94.071,235.556L94.793,234.596L94.434,234.208C94.236,233.994 93.522,233.207 92.848,232.458C92.173,231.71 91.444,230.903 91.228,230.665C91.012,230.427 90.406,229.745 89.882,229.149C89.358,228.554 88.875,228.067 88.808,228.067C88.68,228.067 87.961,228.671 85.617,230.749C83.963,232.215 83.174,232.791 81.945,233.427C80.641,234.101 79.641,234.392 78.369,234.466L77.243,234.531L77.105,235.276C77.028,235.686 76.993,236.064 77.026,236.117C77.059,236.17 77.544,235.999 78.104,235.737C79.373,235.143 82.288,234.163 83.236,234.011C83.627,233.949 84.053,233.88 84.181,233.858C84.587,233.791 84.538,234.105 84.11,234.321C83.884,234.435 83.561,234.651 83.391,234.802C82.864,235.27 81.769,235.879 78.257,237.656C73.863,239.88 71.592,241.072 71.36,241.275C71.241,241.38 71.144,241.566 71.144,241.69C71.144,241.898 71.261,241.909 72.783,241.853C73.684,241.82 74.791,241.77 75.241,241.742C75.697,241.714 76.115,241.746 76.184,241.816C76.267,241.899 76.21,242.144 76.01,242.558C75.756,243.085 75.615,243.219 75.054,243.468C74.066,243.904 72.466,244.355 71.104,244.581C69.553,244.837 69.573,244.828 69.265,245.432C69.122,245.713 68.866,246.125 68.697,246.348C68.527,246.571 68.423,246.788 68.465,246.831C68.508,246.873 69.003,246.844 69.565,246.765C70.899,246.579 71.416,246.585 71.698,246.791C71.919,246.952 71.914,246.97 71.596,247.178C71.408,247.301 70.846,247.443 70.306,247.504C67.183,247.853 67.313,247.76 67.399,249.567C67.456,250.742 67.496,250.926 67.757,251.206C68.547,252.054 67.607,253.052 66.017,253.055C65.688,253.055 65.37,253.165 65.044,253.391C64.594,253.703 64.436,253.733 62.811,253.818C61.849,253.868 60.644,253.961 60.134,254.024C59.624,254.087 58.316,254.104 57.227,254.061C55,253.973 54.479,253.805 54.278,253.111C53.93,251.91 53.685,251.777 52.403,252.091C47.574,253.274 48.031,253.199 44.918,253.324C43.32,253.388 41.343,253.428 40.527,253.413C37.738,253.36 37.273,253.38 37.002,253.561C36.857,253.657 36.581,254.11 36.388,254.567L36.038,255.399L37.787,255.433C38.75,255.452 47.239,255.461 56.652,255.454L73.767,255.44L74.443,254.712ZM99.72,254.351C100.638,254.244 101.946,254.072 102.627,253.968C104.984,253.608 105.353,253.554 106.338,253.43C107.837,253.24 111.05,253.068 115.598,252.932C120.395,252.79 123.695,252.614 126.193,252.369C127.179,252.272 128.751,252.128 129.685,252.05L131.385,251.907L131.856,252.219C132.323,252.528 132.365,252.532 135.662,252.608C137.496,252.65 140.026,252.717 141.284,252.757C142.953,252.809 144.071,252.776 145.414,252.633C147.632,252.397 148.818,252.385 149.639,252.591C150.092,252.706 151.228,252.73 153.974,252.684L157.694,252.622L158.202,252.124C158.531,251.801 159.062,251.482 159.715,251.215C160.669,250.826 161.696,250.061 161.696,249.742C161.696,249.668 161.459,249.575 161.17,249.536C160.544,249.452 156.697,249.252 152.665,249.095C149.742,248.981 148.784,248.865 149.262,248.682C149.759,248.491 151.984,248.36 155.078,248.341C156.847,248.329 159.212,248.286 160.335,248.245L162.376,248.169L162.65,247.303C162.967,246.304 163.52,245.715 164.347,245.496C164.624,245.422 165.059,245.289 165.313,245.199C165.582,245.104 165.806,245.083 165.846,245.148C165.953,245.321 166.843,245.284 166.995,245.1C167.069,245.011 167.21,244.635 167.309,244.265C167.408,243.895 167.572,243.341 167.673,243.035C168.283,241.182 168.269,241.294 167.998,240.365C167.86,239.895 167.554,238.563 167.319,237.407C167.083,236.25 166.81,235.109 166.711,234.871C166.613,234.633 166.385,233.882 166.205,233.203C166.025,232.524 165.807,231.828 165.72,231.656C165.633,231.485 165.382,230.649 165.162,229.799C164.942,228.948 164.677,228.086 164.572,227.883C164.394,227.539 164.371,227.529 164.244,227.747C163.555,228.929 162.181,230.517 160.699,231.846C159.784,232.666 158.739,233.628 158.375,233.983C157.345,234.991 155.383,236.654 154.768,237.041C153.457,237.866 151.767,238.601 149.202,239.462C147.906,239.896 147.455,239.989 146.418,240.035C145.453,240.077 145.128,240.048 144.938,239.905C144.56,239.619 144.873,239.371 145.901,239.142C148.151,238.641 151.027,237.311 153.222,235.757C153.881,235.29 155.782,233.633 156.5,232.898C159.165,230.172 160.704,228.486 161.135,227.82C161.891,226.653 162.745,225.131 163.05,224.409L163.315,223.782L162.998,222.904C162.622,221.862 161.069,218.972 160.686,218.601C160.533,218.453 160.093,218.793 159.471,219.541C158.938,220.181 158.851,220.361 158.851,220.818C158.851,221.48 158.648,222.101 158.308,222.486C158.028,222.801 157.19,223.235 156.852,223.24C156.74,223.241 156.318,223.429 155.915,223.656C154.825,224.273 154.103,224.479 153.041,224.479C152.025,224.479 151.31,224.225 150.972,223.742C150.875,223.603 150.153,223.173 149.369,222.788C148.262,222.243 147.921,222.123 147.842,222.251C147.786,222.341 147.702,222.922 147.655,223.54C147.542,225.028 147.151,227.02 146.851,227.627C146.719,227.896 146.629,228.133 146.65,228.155C146.672,228.176 147.282,228.054 148.007,227.883C149.404,227.553 150.136,227.498 150.439,227.7C150.769,227.92 149.984,228.464 148.394,229.118C145.746,230.207 141.692,232.377 141.077,233.036C140.929,233.195 140.634,233.658 140.423,234.067C140.212,234.475 139.929,234.902 139.794,235.015C139.51,235.256 138.574,237.082 138.127,238.268C137.957,238.72 137.739,239.212 137.641,239.361C137.544,239.511 137.299,240.051 137.097,240.561C136.142,242.972 135.111,245.132 134.167,246.7C133.848,247.231 133.778,247.437 133.893,247.51C133.978,247.564 134.966,247.611 136.089,247.614C137.212,247.617 138.548,247.679 139.058,247.751C139.568,247.823 140.32,247.919 140.728,247.964C141.269,248.023 141.47,248.096 141.47,248.231C141.47,248.346 141.33,248.43 141.099,248.453C140.895,248.474 140.477,248.567 140.171,248.661C139.428,248.889 137.602,249.069 135.015,249.169C133.213,249.239 132.755,249.218 132.004,249.034C131.25,248.849 130.99,248.838 130.265,248.958C129.796,249.035 128.423,249.153 127.215,249.219C119.868,249.62 116.693,249.682 114.255,249.472C113.507,249.408 111.391,249.325 109.554,249.288C105.121,249.198 103.099,249.009 102.807,248.658C102.652,248.471 103.821,248.173 105.472,247.98C106.084,247.908 107.003,247.755 107.513,247.641C108.57,247.404 112.795,247.346 115.327,247.534L116.77,247.641L116.963,247.267C117.138,246.928 119.804,244.233 120.873,243.314C121.355,242.899 123.045,241.629 124.61,240.505L125.636,239.769L128.536,239.665L129.127,239.03C130.138,237.944 131.175,236.577 131.741,235.585C131.964,235.195 132.192,234.847 132.248,234.812C132.305,234.778 132.503,234.456 132.688,234.099C133.288,232.943 134.286,231.424 135.366,230.023C135.691,229.6 136.315,228.369 136.943,226.907C137.439,225.752 137.224,224.898 136.213,224.012C135.32,223.23 133.319,222.35 132.44,222.354C131.683,222.357 129.918,223.362 129.236,224.178C128.971,224.496 128.515,224.907 128.222,225.092C127.93,225.278 127.472,225.703 127.205,226.037C126.55,226.858 126.211,227.154 125.669,227.381C124.815,227.737 123.812,227.524 123.402,226.898C123.222,226.624 123.199,226.349 123.25,225.064C123.302,223.734 123.349,223.473 123.642,222.897C124.298,221.607 124.444,220.157 124.164,217.713C123.796,214.5 123.928,209.648 124.465,206.666C124.761,205.017 125.607,201.757 125.87,201.249C126.057,200.887 126.056,200.854 125.853,200.749C125.734,200.687 125.371,200.598 125.047,200.551C124.577,200.482 124.391,200.512 124.12,200.698C123.154,201.361 120.978,201.38 119.777,200.737C119.363,200.515 119.188,200.583 118.848,201.097C118.567,201.522 117.62,202.712 115.465,205.348C115.178,205.698 114.717,206.347 114.44,206.79C114.162,207.232 113.757,207.877 113.539,208.222C113.32,208.568 112.739,209.306 112.247,209.863C111.755,210.42 111.262,211.055 111.15,211.276C111.039,211.496 110.84,211.794 110.708,211.939C110.575,212.084 110.309,212.591 110.116,213.066C109.923,213.541 109.495,214.277 109.165,214.701C108.835,215.126 108.446,215.651 108.301,215.868C108.156,216.086 107.837,216.416 107.593,216.602C107.074,216.998 106.274,218.313 105.828,219.501C105.656,219.96 105.413,220.447 105.289,220.583C105.164,220.719 104.848,221.22 104.587,221.696C104.125,222.538 104.111,222.597 104.111,223.799C104.111,224.778 104.156,225.1 104.328,225.342C104.447,225.51 104.544,225.74 104.544,225.853C104.544,225.965 104.624,226.124 104.722,226.205C104.82,226.286 104.938,226.529 104.986,226.746C105.109,227.306 105.558,228.191 105.72,228.191C105.877,228.191 106.472,227.595 106.98,226.931C107.171,226.681 107.884,225.796 108.565,224.965C109.245,224.133 109.938,223.28 110.104,223.069C110.27,222.858 110.604,222.459 110.846,222.181C111.088,221.903 111.537,221.38 111.843,221.018C112.829,219.851 113.602,218.982 113.935,218.665C114.114,218.495 114.416,218.151 114.607,217.9C114.819,217.621 115.022,217.469 115.13,217.511C115.387,217.609 115.348,217.82 114.983,218.301C114.806,218.535 114.547,218.978 114.409,219.284C114.271,219.59 114.009,220.063 113.827,220.335C112.405,222.455 111.859,223.254 111.501,223.737C110.407,225.216 108.959,227.137 108.527,227.685C108.343,227.917 108.082,228.258 107.946,228.444C107.81,228.629 107.365,229.184 106.956,229.677C105.839,231.026 105.744,231.16 105.906,231.16C106.041,231.16 107.374,230.284 108.565,229.415C110.294,228.151 112.777,226.75 113.097,226.856C113.477,226.983 109.543,230.754 107.51,232.211C107.32,232.347 107.007,232.588 106.813,232.745C106.499,233.002 105.847,233.474 104.73,234.253C103.968,234.785 100.872,236.975 100.258,237.417C99.908,237.669 99.504,238.085 99.36,238.341C99.216,238.597 98.918,238.964 98.698,239.158C98.477,239.352 98.047,239.949 97.74,240.486C97.282,241.289 96.729,241.915 94.6,244.04C93.179,245.458 91.943,246.76 91.854,246.932C91.765,247.104 91.369,247.611 90.974,248.058C90.315,248.804 90.224,248.866 89.858,248.807C89.582,248.762 89.373,248.812 89.181,248.968L88.903,249.193L89.125,250.049C89.343,250.892 89.343,250.918 89.09,251.636C88.949,252.038 88.834,252.425 88.834,252.497C88.834,252.569 89.173,252.692 89.588,252.771C90.022,252.853 90.555,253.062 90.846,253.263C91.293,253.573 91.459,253.612 92.311,253.612C93.23,253.612 93.29,253.63 93.693,254.019C93.925,254.244 94.276,254.48 94.474,254.544C94.939,254.695 97.594,254.597 99.72,254.351ZM151.338,251.238C151.458,251.206 151.625,251.208 151.709,251.243C151.793,251.277 151.694,251.302 151.49,251.3C151.286,251.297 151.217,251.269 151.338,251.238ZM151.687,245.766C151.591,245.706 151.444,245.682 151.359,245.715C151.165,245.789 151.101,245.682 150.993,245.106L150.906,244.643L151.445,244.645C152.12,244.647 152.271,244.743 152.367,245.226C152.429,245.533 152.394,245.637 152.192,245.745C151.892,245.906 151.907,245.906 151.687,245.766ZM33.752,222.129C33.84,221.959 33.897,221.569 33.879,221.263C33.853,220.809 33.8,220.7 33.593,220.67C33.453,220.65 33.239,220.743 33.118,220.877C32.829,221.196 32.712,222.065 32.923,222.319C33.148,222.591 33.564,222.495 33.752,222.129ZM44.507,221.68C45.18,221.339 45.661,220.803 45.658,220.397C45.653,219.762 44.907,219.678 43.912,220.201C43.547,220.393 42.918,220.629 42.514,220.725C41.647,220.932 41.455,221.067 41.455,221.47C41.455,222.207 43.225,222.328 44.507,221.68ZM33.781,218.426C33.998,218.021 33.905,216.686 33.66,216.686C33.57,216.686 33.208,217.44 33.036,217.985C32.858,218.551 33.508,218.936 33.781,218.426ZM141.241,218.171C141.71,218.171 141.595,217.757 140.985,217.258C140.685,217.011 140.409,216.81 140.373,216.81C140.289,216.81 139.429,218.104 139.429,218.232C139.429,218.286 139.771,218.294 140.189,218.25C140.607,218.206 141.081,218.171 141.241,218.171ZM42.774,216.751C43.412,216.131 43.746,215.907 44.244,215.762C45.078,215.519 45.471,215.207 45.365,214.873C45.112,214.077 43.101,214.208 42.035,215.089C41.518,215.517 40.589,216.712 40.589,216.949C40.589,217.272 41.001,217.552 41.473,217.552C41.891,217.552 42.049,217.454 42.774,216.751ZM158.939,211.29C159.264,211.179 160.544,210.588 161.783,209.977C163.741,209.011 164.142,208.857 164.845,208.8C165.722,208.73 166.601,208.967 167.085,209.404C167.463,209.746 167.564,209.695 167.79,209.047C168.04,208.331 168.5,206.466 168.5,206.168C168.5,206.037 168.316,205.871 168.036,205.746C167.78,205.633 167.464,205.481 167.333,205.408C164.871,204.04 162.654,203.169 161.077,202.949C160.635,202.888 159.856,202.728 159.345,202.594C158.599,202.398 156.652,202.242 155.971,202.325C155.918,202.331 155.958,202.495 156.058,202.69C156.357,203.267 156.748,205.454 156.748,206.546C156.748,207.755 157.063,210.004 157.318,210.614C157.697,211.522 157.947,211.626 158.939,211.29ZM180.067,203.14C181.73,202.663 183.49,201.757 184.604,200.805C185.861,199.731 186.339,199.078 186.797,197.811C187.007,197.232 187.253,196.608 187.345,196.424C187.511,196.092 187.624,195.587 187.985,193.553C188.087,192.975 188.256,192.14 188.36,191.698C188.513,191.046 188.533,190.403 188.468,188.296C188.416,186.641 188.328,185.541 188.224,185.265C188.135,185.027 188,184.526 187.925,184.152C187.635,182.713 185.943,180.812 184.951,180.812C184.131,180.812 182.425,182.266 181.2,184.009C179.648,186.217 178.559,188.244 177.965,190.026C177.784,190.569 177.59,191.07 177.533,191.139C177.388,191.316 177.087,192.415 176.795,193.838C176.658,194.504 176.468,195.284 176.372,195.57C176.277,195.855 176.159,196.59 176.112,197.203C176.009,198.509 175.514,201.317 175.257,202.045C175.158,202.325 175.059,202.713 175.036,202.909C174.996,203.247 175.026,203.271 175.674,203.416C176.719,203.648 178.738,203.521 180.067,203.14ZM193.364,256.998C192.861,256.692 192.744,256.543 192.832,256.314C192.93,256.06 194.338,256.086 194.437,256.343C194.51,256.534 194.145,257.146 193.913,257.222C193.849,257.243 193.602,257.142 193.364,256.998ZM152.739,182.483C152.171,181.87 152.17,180.373 152.737,179.619C153.051,179.201 154.474,178.461 154.965,178.461C155.429,178.461 155.692,179.087 155.692,180.193C155.692,181.4 155.483,181.787 154.568,182.283C153.525,182.848 153.119,182.892 152.739,182.483ZM69.798,166.144C69.363,165.591 69.295,163.805 69.682,163.078C70.253,162.005 71.891,160.772 72.746,160.772C73.299,160.772 73.617,161.34 73.618,162.33C73.618,163.513 73.466,163.792 72.443,164.483C71.792,164.922 71.504,165.201 71.403,165.492C71.074,166.435 70.281,166.757 69.798,166.144ZM77.023,162.881C76.91,162.662 76.834,162.189 76.834,161.699C76.834,160.694 77.076,160.153 77.524,160.153C77.941,160.153 78.195,160.763 78.195,161.763C78.195,162.694 77.942,163.246 77.515,163.246C77.304,163.246 77.154,163.134 77.023,162.881Z" style="fill-rule:nonzero;"/>
    </g>
</svg>
