<?xml version="1.0" encoding="UTF-8" standalone="no"?>
<!DOCTYPE svg PUBLIC "-//W3C//DTD SVG 1.1//EN" "http://www.w3.org/Graphics/SVG/1.1/DTD/svg11.dtd">
<svg width="100%" height="100%" viewBox="0 0 344 344" version="1.1" xmlns="http://www.w3.org/2000/svg" xmlns:xlink="http://www.w3.org/1999/xlink" xml:space="preserve" xmlns:serif="http://www.serif.com/" style="fill-rule:evenodd;clip-rule:evenodd;stroke-linejoin:round;stroke-miterlimit:2;">
    <g id="path5" transform="matrix(3.64448,0,0,3.64448,-307.774,-354.717)">
        <g id="g1">
            <path id="path51" serif:id="path5" d="M118.422,189.825C118.34,189.692 118.987,189.107 119.216,189.107C119.416,189.107 121.594,187.544 121.594,187.4C121.594,187.09 120.888,187.337 119.05,188.29L117.084,189.31L115.025,189.405L115.46,188.997L115.896,188.589L116.858,188.347C118.18,188.015 118.811,187.736 118.689,187.539L118.589,187.378L116.437,187.508L115.012,188.085C112.909,188.937 112.131,189.109 109.939,189.205L107.961,189.291L107.197,189.552C106.284,189.865 106,189.878 105.785,189.618L105.623,189.423L107.537,188.64L110.151,188.531C112.618,188.428 113.541,188.284 113.541,188.003C113.541,187.877 106.829,187.625 104.888,187.678L103.794,187.709L103.629,187.348C103.383,186.807 103.403,186.805 106.644,187.01C108.301,187.115 110.578,187.195 111.705,187.189L113.753,187.179L117.002,186.136L121.922,185.664L122.642,185.044L122.385,183.951C122.243,183.35 121.952,182.373 121.738,181.78C121.524,181.187 121.378,180.622 121.413,180.525C121.512,180.248 120.877,177.351 120.63,176.958C120.508,176.764 120.364,176.287 120.31,175.898C120.256,175.51 119.887,174.486 119.49,173.624C119.093,172.761 118.77,171.967 118.773,171.858L118.777,171.66L118.975,171.921C119.084,172.065 119.24,172.141 119.323,172.09L119.473,171.997L119.258,171.581C119.038,171.156 118.771,171.027 118.764,171.342C118.762,171.439 118.692,171.403 118.61,171.261C118.527,171.12 118.497,170.856 118.542,170.676C118.592,170.476 118.485,170.033 118.268,169.542L117.912,168.736L117.443,169.117L117.567,168.835C117.854,168.181 117.547,166.951 117.067,166.826L116.782,166.751L116.864,166.491L116.947,166.231L116.254,165.202C115.546,164.151 115.095,163.356 115.095,163.158C115.095,163.097 115.263,163.3 115.468,163.61C115.673,163.919 115.905,164.236 115.983,164.314C116.163,164.492 113.479,159.259 112.467,157.459C110.815,154.519 109.718,151.476 108.728,147.078L108.027,143.97L107.814,141.71C107.697,140.467 107.541,139.163 107.468,138.814L107.336,138.178L107.777,135.282C108.266,132.062 108.235,132.176 108.543,132.484L108.765,132.706L108.61,132.996C108.409,133.371 108.411,134.051 108.614,134.254L108.773,134.413L108.581,135.691L108.211,135.549L108.121,135.998C108.072,136.245 108.033,136.582 108.034,136.748L108.037,137.048L108.526,136.418L109.154,136.584L109.222,137.028C109.259,137.272 109.329,137.722 109.378,138.028L109.467,138.585L109.24,138.397C108.865,138.086 108.455,140.308 108.455,142.65L108.455,143.935L108.802,145.648C109.244,147.832 110.391,151.818 110.655,152.088L110.857,152.295L110.857,151.928C110.857,151.726 110.634,150.692 110.362,149.631C110.09,148.57 109.868,147.599 109.868,147.474L109.868,147.246L110.433,147.758L110.43,147.347C110.429,147.122 110.336,146.081 110.224,145.035C109.933,142.307 110.137,142.597 110.717,145.736C111.076,147.682 111.123,147.855 111.279,147.855C111.346,147.855 111.425,147.744 111.454,147.608L111.506,147.361L111.693,147.926C111.972,148.773 112.127,148.845 112.132,148.131L112.137,147.502L113.104,150.116C113.636,151.553 114.49,153.778 115.002,155.06L115.932,157.391L115.655,157.436C115.34,157.488 115.305,157.778 115.535,158.437C115.622,158.686 115.658,158.923 115.616,158.965C115.457,159.124 114.812,157.911 114.46,156.791C114.09,155.614 113.824,155.292 113.824,156.023C113.824,156.582 114.191,157.785 114.71,158.924L115.15,159.892L114.482,160.395L114.671,160.871C114.775,161.133 115.264,162.118 115.757,163.06L116.655,164.772L117.363,164.866C118.407,165.005 118.408,165.011 117.194,162.389L116.073,159.968L116.361,159.767C116.679,159.544 116.73,159.149 116.496,158.712C116.167,158.097 116.498,158.34 116.949,159.045L117.426,159.791L117.469,159.422C117.493,159.219 117.35,157.742 117.151,156.14C116.765,153.02 116.721,152.382 116.909,152.595C116.974,152.669 117.228,154.16 117.474,155.908C117.89,158.874 118.61,162.351 118.906,162.826L119.035,163.033L119.643,162.7C119.978,162.517 120.345,162.281 120.458,162.175L120.665,161.983L120.494,161.983C120.146,161.983 120.336,161.733 120.746,161.651L121.17,161.566L121.17,160.99L120.605,161.081C119.846,161.202 119.875,160.943 120.64,160.774L121.241,160.641L121.334,159.979L121.076,160.052C120.361,160.254 119.898,160.299 119.898,160.166C119.898,160.087 120.182,159.98 120.53,159.928C121.451,159.789 121.437,159.86 122.122,151.848C122.164,151.361 122.284,150.894 122.39,150.806L122.583,150.646L122.583,149.074C122.583,148.21 122.707,146.517 122.857,145.312C123.008,144.108 123.203,142.392 123.29,141.498C123.753,136.759 125.562,122.63 125.845,121.547L125.982,121.022L125.546,120.158C125.306,119.683 125.135,119.22 125.166,119.13C125.197,119.039 125.401,119.314 125.618,119.74L126.012,120.516L126.128,120.203L126.244,119.889L125.451,118.72C124.434,117.223 124.501,117.287 124.143,117.478L123.836,117.642L123.637,117.477C123.527,117.386 123.397,117.094 123.347,116.829C123.295,116.548 123.093,116.215 122.865,116.031C122.517,115.751 121.785,114.548 121.902,114.448C121.927,114.427 122.251,114.277 122.623,114.115L123.3,113.819L122.921,113.22L122.543,112.621L122.704,112.567C122.793,112.537 122.865,112.334 122.865,112.114L122.865,111.716L123.378,111.102C123.661,110.764 123.961,110.335 124.047,110.149L124.202,109.809L123.931,109.654C123.541,109.431 122.441,108.424 122.441,108.291C122.441,108.228 123.046,107.843 123.786,107.435C125.322,106.586 125.325,106.613 123.678,106.181C122.28,105.814 122.191,105.724 123.042,105.535L123.642,105.402L123.609,105.084L123.575,104.767L125.316,104.767L125.009,104.44C124.608,104.013 124.622,103.943 125.085,104.031L125.468,104.105L124.944,103.492C124.205,102.629 124.396,102.325 125.585,102.472L126.115,102.537L126.115,102.027C126.115,101.507 126.274,101.399 126.672,101.651C126.796,101.729 126.974,101.728 127.124,101.647L127.372,101.514L127.225,100.033L127.447,100.308C127.569,100.458 127.668,100.694 127.668,100.832L127.668,101.082L128.057,101.064C128.271,101.054 128.552,101.093 128.681,101.151L128.917,101.256L129.011,100.599L129.314,100.555C129.481,100.531 129.65,100.388 129.689,100.237C129.733,100.07 129.883,99.963 130.072,99.963C130.243,99.963 130.504,99.808 130.652,99.62C130.99,99.191 131.774,98.922 132.331,99.045L132.754,99.138L132.663,99.515C132.495,100.208 132.335,100.539 131.911,101.067C131.679,101.355 131.447,101.804 131.395,102.065L131.3,102.538L131.639,102.434C131.825,102.378 132.089,102.233 132.225,102.114L132.472,101.897L132.472,101.283C132.472,100.945 132.53,100.669 132.602,100.669C132.944,100.669 133.206,100.887 133.389,101.324C133.657,101.964 133.935,102.041 134.68,101.679C135.53,101.266 135.538,101.285 134.805,101.987C134.454,102.323 134.167,102.725 134.167,102.881C134.167,103.036 134.008,103.312 133.814,103.495L133.46,103.827L134.45,104.734L134.45,105.728L135.049,105.918C135.409,106.032 135.667,106.207 135.695,106.355L135.742,106.603L134.531,106.603C133.151,106.603 132.999,106.756 134.039,107.101C134.815,107.359 134.811,107.545 134.026,107.617L133.531,107.662L135.073,108.567L134.867,108.638C134.754,108.676 134.386,108.779 134.048,108.865L133.435,109.022L133.525,109.402C133.575,109.611 133.648,109.893 133.689,110.029C133.778,110.328 133.626,110.338 133.257,110.059C132.857,109.757 132.754,109.801 132.754,110.276L132.754,110.7L132.018,110.7L132.104,110.925C132.308,111.457 132.343,111.805 132.201,111.893C131.931,112.06 132.035,112.241 132.624,112.631L133.199,113.011L132.167,113.423L132.252,113.721C132.299,113.885 132.374,114.185 132.418,114.387L132.499,114.754L131.849,115.135L131.2,115.515L131.415,115.933L131.631,116.351L130.899,116.351L131.007,116.668C131.149,117.086 131.122,117.616 130.949,117.789L130.81,117.927L129.766,117.639L129.86,118.196C129.975,118.879 129.923,118.882 129.144,118.244L128.523,117.735L128.19,118.466L127.426,118.331L127.188,119.433C127.057,120.039 126.993,120.645 127.045,120.78C127.103,120.933 127.051,121.091 126.908,121.196L126.677,121.366L126.396,122.819C126.241,123.618 126.114,124.5 126.114,124.779C126.114,125.058 126.019,125.867 125.902,126.576C125.785,127.284 125.566,129.168 125.416,130.761C125.265,132.353 124.886,136.2 124.574,139.308C123.47,150.276 123.126,153.936 123.185,154.109C123.218,154.204 123.675,152.98 124.201,151.387C125.436,147.648 125.854,146.501 127.3,142.869C127.956,141.221 128.575,139.593 128.675,139.251L128.856,138.628L129.316,138.357C129.88,138.024 129.96,137.786 130.002,136.307L130.035,135.138L130.559,133.691C130.847,132.895 131.176,132.028 131.29,131.765C131.404,131.501 131.559,130.579 131.633,129.716C131.708,128.853 131.831,127.797 131.906,127.37C131.981,126.943 132.206,125.48 132.406,124.121C133.209,118.665 133.778,116.581 134.555,116.257L135.06,116.045L135.541,116.135C135.805,116.185 136.27,116.451 136.576,116.727L137.131,117.229L137.291,117.814L137.45,118.399L137.272,125.11C137.174,128.8 137.124,132.52 137.16,133.374L137.226,134.928L137.478,135.528C137.616,135.857 137.783,136.094 137.848,136.054C137.984,135.97 139.906,132.9 140.038,132.557L140.124,132.332L139.619,132.237C138.939,132.11 139.136,131.836 139.828,131.947L140.367,132.033L140.591,131.715L140.815,131.396L140.634,131.37C140.535,131.356 140.152,131.304 139.783,131.255C139.414,131.207 139.112,131.101 139.112,131.021L139.112,130.874L140.823,131.073L141.097,130.824C141.524,130.438 141.441,130.38 140.425,130.352C139.904,130.337 139.444,130.292 139.403,130.251C139.238,130.086 139.298,129.361 139.482,129.29C139.777,129.177 139.716,128.987 139.327,128.81L138.978,128.651L139.041,127.582L138.264,127.493L138.264,127.232C138.264,127.089 138.455,126.811 138.688,126.615C139.222,126.165 139.23,126.201 138.476,125.66C137.625,125.048 137.67,124.877 138.564,125.33C139.387,125.747 139.451,125.717 139.699,124.787L139.879,124.11L139.707,123.835C139.447,123.418 139.488,123.337 140.101,123.061C140.743,122.771 140.752,122.755 140.429,122.398L140.192,122.136L140.923,121.46C141.325,121.088 141.655,120.73 141.655,120.664C141.655,120.336 140.841,119.55 140.127,119.189L139.324,118.782L140.101,118.563C140.528,118.443 141.323,118.229 141.867,118.088L142.855,117.831L142.763,116.916L142.979,116.916C143.098,116.916 143.516,116.847 143.908,116.763L144.621,116.61L144.621,116.371C144.621,116.24 144.817,115.895 145.056,115.605L145.492,115.077L146.318,115.565L146.922,114.961L147.178,115.12C147.604,115.386 147.626,115.145 147.246,114.394C147.026,113.961 146.94,113.647 147.026,113.594C147.248,113.457 147.995,114.126 148.004,114.47C148.014,114.85 148.06,114.878 148.877,114.997L149.531,115.091L149.837,114.573C150.19,113.974 150.375,114.018 150.155,114.647L150.005,115.078L150.386,115.157C151.895,115.471 152.308,115.988 151.682,116.778C151.092,117.523 151.228,117.625 152.187,117.155C153.947,116.291 154.157,116.954 152.423,117.903C151.231,118.555 151.766,119.001 153.199,118.549C154.194,118.236 154.302,118.355 153.43,118.802C153.053,118.995 152.625,119.244 152.478,119.354L152.211,119.554L152.796,119.788C153.514,120.075 153.515,120.091 152.815,120.448C152.101,120.812 152.106,120.925 152.846,121.146L153.442,121.325L153.172,121.522C153.024,121.63 152.844,121.719 152.773,121.719C152.702,121.719 152.682,121.818 152.728,121.939L152.812,122.158L152.284,122.377C151.593,122.664 151.609,122.629 151.952,123.11C152.116,123.34 152.25,123.605 152.25,123.699L152.25,123.87L151.261,123.684L151.261,123.894C151.261,124.009 151.324,124.143 151.402,124.191C151.479,124.239 151.612,124.409 151.698,124.569L151.854,124.861L151.664,124.75C151.559,124.688 151.235,124.453 150.943,124.226L150.414,123.814L150.414,124.113C150.414,124.278 150.509,124.641 150.625,124.919C150.742,125.198 150.837,125.451 150.837,125.48C150.837,125.616 150.431,125.514 150.381,125.366L150.326,125.199L149.67,125.383C149.31,125.484 148.919,125.673 148.801,125.803L148.587,126.039L148.586,126.881C148.585,127.344 148.572,127.962 148.556,128.253L148.527,128.783L148.012,128.783L148.012,129.057C148.012,129.208 148.076,129.37 148.153,129.418C148.461,129.608 148.266,129.772 147.732,129.772L147.17,129.772L146.895,130.311C146.465,131.155 145.149,131.542 144.267,131.085C143.889,130.889 142.648,130.764 142.626,130.919C142.616,130.987 142.596,131.091 142.58,131.149C142.565,131.207 142.502,131.559 142.44,131.93L142.328,132.604L142.143,132.451C142.041,132.366 141.686,132.317 141.353,132.341L140.747,132.385L140.122,133.445C139.194,135.014 138.029,137.387 137.846,138.075L137.686,138.679L137.834,139.479C137.915,139.918 137.982,141.077 137.982,142.054L137.982,143.829L138.264,144.817C138.42,145.361 138.547,145.925 138.547,146.072L138.547,146.339L138.24,145.931C138.071,145.707 137.873,145.46 137.8,145.382L137.666,145.241L137.81,147.925L138.324,149.599C138.607,150.52 138.999,151.59 139.196,151.978L139.553,152.682L139.949,152.53L139.716,153.018C139.447,153.582 139.311,153.628 139.175,153.2C139.122,153.032 138.794,152.287 138.447,151.543L137.815,150.191L137.463,148.074C136.995,145.256 136.776,144.852 136.438,146.173L136.253,146.893L135.851,147.252C135.629,147.449 135.374,147.834 135.284,148.107L135.12,148.603L134.864,148.146L135.223,147.438C136.533,144.853 137.43,140.973 136.922,140.085C136.811,139.89 136.718,139.514 136.715,139.248C136.712,138.982 136.624,138.664 136.519,138.542C136.414,138.419 136.054,137.507 135.72,136.514C135.386,135.522 135.038,134.608 134.947,134.484L134.781,134.257L133.957,136.429C133.504,137.624 132.725,139.46 132.227,140.509C131.044,142.996 129.73,146.115 128.681,148.921L127.838,151.175L127.471,153.153C127.126,155.004 126.203,160.73 125.823,163.365C125.73,164.009 125.686,164.568 125.725,164.606C125.857,164.739 128.156,158.75 130.067,153.294C132.523,146.282 133.706,143.3 134.635,141.776L135.086,141.038L136.105,140.697L135.371,142.475C134.967,143.452 134.108,145.524 133.463,147.078C132.818,148.632 131.895,150.857 131.412,152.022C129.046,157.727 127.879,161.016 126.825,164.949C126.586,165.843 126.266,166.892 126.115,167.28C125.487,168.891 125.112,170.812 124.917,173.416C124.873,173.994 124.808,174.497 124.771,174.533C124.734,174.57 124.772,174.682 124.854,174.781L125.004,174.961L124.844,175.26C124.757,175.424 124.705,175.761 124.729,176.01L124.773,176.463L125.999,176.626L126.129,176.283C126.201,176.094 126.518,174.912 126.833,173.658C127.866,169.548 128.873,166.237 130.404,161.914L130.903,160.505L130.67,160.247L130.438,159.99L130.614,159.538C131.509,157.245 132.042,155.147 132.046,153.904L132.048,153.102L132.27,152.88C132.397,152.753 132.713,152.663 133.011,152.67L133.531,152.682L133.134,152.802C132.388,153.025 132.053,153.839 132.449,154.463L132.564,154.644L132.725,154.291C133.027,153.628 134.589,153.668 136.886,154.399C138.046,154.768 138.308,154.678 137.487,154.193C136.8,153.788 136.859,153.77 137.898,154.067L138.804,154.326L139.394,153.913L139.394,154.27C139.394,154.602 139.731,154.918 140.086,154.918C140.166,154.918 140.398,154.68 140.602,154.389C140.806,154.097 140.939,153.986 140.897,154.141C140.855,154.297 140.781,154.589 140.733,154.791L140.646,155.158L141.327,155.449C142.296,155.863 144.061,156.098 145.381,155.989L146.493,155.898L146.401,156.22C146.35,156.398 146.209,156.916 146.088,157.373L145.867,158.202L145.963,162.427L145.793,162.028C145.699,161.809 145.615,161.057 145.605,160.358L145.587,159.086L145.361,159.581L145.134,160.075L145.131,161.205L145.127,162.335L145.431,163.006C145.601,163.381 145.882,163.743 146.069,163.828C146.253,163.912 146.476,164.172 146.564,164.406L146.725,164.832L146.534,164.759C146.221,164.639 146.186,164.803 146.398,165.403C146.785,166.5 146.45,166.227 145.888,164.987C144.907,162.824 144.553,160.649 144.905,158.945C145.167,157.672 145.228,157.179 145.121,157.179C145.068,157.179 144.07,156.988 142.903,156.755C141.736,156.522 140.694,156.331 140.587,156.331C140.481,156.331 140.034,156.824 139.593,157.426C138.445,158.996 138.248,158.963 139.321,157.38C139.708,156.81 139.922,155.955 139.726,155.759C139.493,155.526 135.128,154.205 134.309,154.119L133.503,154.035L133.271,155.304C133.037,156.582 132.422,158.975 131.554,161.982C130.728,164.847 129.764,168.956 129.834,169.321C129.874,169.532 129.713,170.129 129.433,170.808C128.625,172.763 127.356,176.719 127.335,177.346L127.315,177.946L126.929,177.946L127.009,178.253C127.053,178.422 127.01,178.629 126.913,178.713C126.817,178.796 126.618,179.232 126.472,179.681L126.207,180.497L126.372,180.663C126.627,180.918 126.57,181.036 126.233,180.948L125.929,180.868L126.107,181.761L125.899,181.761C125.715,181.761 125.618,182.026 125.676,182.369C125.687,182.431 125.601,182.577 125.485,182.693C125.369,182.809 125.144,183.325 124.985,183.841L124.695,184.778L124.964,185.047L125.056,184.499C125.19,183.692 125.258,183.532 125.404,183.68C125.48,183.757 125.449,184.202 125.326,184.784C125.073,185.983 124.762,185.832 127.821,185.996C129.252,186.073 131.44,186.224 132.683,186.332C133.927,186.439 135.198,186.503 135.509,186.473C135.82,186.442 136.941,186.318 138.002,186.196L139.929,185.975L140.827,186.226C141.321,186.365 142.043,186.462 142.431,186.444C143.112,186.411 147.013,186.805 147.447,186.951L147.658,187.022L147.164,187.232L146.67,187.443L145.747,187.269C144.797,187.09 144.311,187.071 141.16,187.086C140.15,187.091 138.624,187.092 137.769,187.088C133.566,187.07 133.231,187.615 136.828,188.622C138.657,189.134 139.133,189.393 138.228,189.385C137.27,189.376 134.186,188.702 133.241,188.294L132.26,187.87L129.933,187.718C128.654,187.635 127.58,187.594 127.547,187.627C127.32,187.854 128.186,188.312 129.142,188.471L129.697,188.564L129.495,188.692C128.935,189.046 128.073,188.774 126.317,187.689L125.791,187.363L125.888,187.882C125.994,188.443 125.896,188.515 125.47,188.193C125.047,187.873 124.984,187.927 124.984,188.612L124.984,189.248L124.8,189.248C124.699,189.248 124.536,189.025 124.438,188.753C124.199,188.091 123.995,188.128 123.995,188.834L123.995,189.41L123.748,189.363C123.599,189.335 123.483,189.162 123.456,188.929C123.398,188.424 123.208,188.438 122.935,188.965C122.572,189.669 122.477,188.783 122.821,187.888C122.948,187.557 122.622,187.67 121.573,188.323C121.017,188.669 120.389,188.99 120.176,189.037C119.964,189.084 119.623,189.309 119.419,189.538C119.056,189.946 118.581,190.082 118.422,189.824L118.422,189.825ZM119.539,186.857C119.584,186.785 119.566,186.692 119.499,186.65C119.321,186.54 118.345,186.722 118.345,186.866C118.345,187.031 119.437,187.023 119.539,186.857ZM124.133,184.184C124.39,182.821 124.227,181.474 123.85,181.85C123.705,181.995 123.555,184.802 123.675,185.116C123.804,185.453 123.949,185.158 124.133,184.184ZM122.379,181.238C122.238,180.87 122.137,181.131 122.252,181.568L122.358,181.973L122.412,181.718C122.441,181.577 122.427,181.361 122.379,181.238ZM124.984,181.549C124.984,181.511 124.953,181.479 124.914,181.479C124.875,181.479 124.843,181.511 124.843,181.549C124.843,181.588 124.875,181.62 124.914,181.62C124.953,181.62 124.984,181.588 124.984,181.549ZM124.137,181.149C124.137,180.882 124.001,180.779 123.766,180.869L123.564,180.947L123.727,181.142C123.932,181.39 124.137,181.393 124.137,181.149ZM122.724,180.623C122.724,180.472 122.66,180.348 122.583,180.348C122.505,180.348 122.441,180.511 122.441,180.71C122.441,180.915 122.503,181.034 122.583,180.984C122.66,180.936 122.724,180.773 122.724,180.623ZM122.114,180.604C122.069,180.492 122.036,180.525 122.029,180.69C122.023,180.839 122.056,180.922 122.103,180.875C122.15,180.828 122.155,180.707 122.114,180.605L122.114,180.604ZM125.079,180.678C125.027,180.626 124.942,180.626 124.89,180.678C124.838,180.73 124.881,180.772 124.984,180.772C125.088,180.772 125.13,180.73 125.079,180.678ZM123.713,180.569C123.713,180.534 123.649,180.467 123.572,180.419C123.494,180.371 123.43,180.399 123.43,180.481C123.43,180.564 123.494,180.631 123.572,180.631C123.649,180.631 123.713,180.603 123.713,180.569ZM122.099,178.983C122.048,178.374 122.012,177.564 122.018,177.183L122.03,176.49L121.597,176.848L121.527,176.656C121.489,176.55 121.307,175.891 121.123,175.192L120.789,173.92L120.52,173.92C120.207,173.92 120.198,173.858 120.728,175.404C120.955,176.064 121.317,177.448 121.533,178.48C121.97,180.558 122.251,180.808 122.099,178.983ZM123.807,179.972C123.755,179.92 123.713,179.963 123.713,180.066C123.713,180.17 123.755,180.212 123.807,180.16C123.859,180.108 123.859,180.024 123.807,179.972ZM124.843,180.137C124.843,180.098 124.811,180.066 124.773,180.066C124.734,180.066 124.702,180.098 124.702,180.137C124.702,180.175 124.734,180.207 124.773,180.207C124.811,180.207 124.843,180.175 124.843,180.137ZM126.029,179.639C126.283,179.005 126.319,178.653 126.13,178.653C125.989,178.653 125.549,179.672 125.549,179.998C125.549,180.395 125.802,180.206 126.029,179.639ZM123.854,179.408C123.854,179.136 123.252,178.091 123.094,178.089C122.951,178.088 123.052,178.822 123.272,179.392L123.421,179.778L123.638,179.695C123.757,179.649 123.854,179.52 123.854,179.408ZM125.464,179.136C125.609,178.757 125.559,178.512 125.338,178.512L125.126,178.512L125.126,178.936C125.126,179.389 125.322,179.505 125.464,179.136ZM124.137,178.327C124.137,177.992 124.049,177.598 123.942,177.452L123.747,177.186L123.274,177.659L123.648,178.297C124.109,179.083 124.137,179.085 124.137,178.327ZM126.512,178.051L126.559,177.806L125.973,177.806L125.973,178.391L126.219,178.344C126.354,178.318 126.486,178.186 126.512,178.051ZM125.775,178.066C125.9,177.864 125.697,177.716 125.161,177.616L124.702,177.53L124.702,177.785C124.702,178.196 125.556,178.42 125.775,178.066ZM126.786,177.276C126.863,177.044 126.42,176.878 126.23,177.068C126.149,177.149 126.128,177.288 126.182,177.377C126.307,177.579 126.707,177.512 126.786,177.276ZM123.47,176.669L123.397,176.393L123.61,176.393C123.726,176.393 123.931,176.226 124.064,176.022L124.307,175.652L124.451,173.497L123.266,171.731L123.003,171.731C122.528,171.731 122.587,171.953 123.361,173.084C124.178,174.278 124.242,174.476 123.95,174.913C123.848,175.067 123.57,175.542 123.334,175.969L122.903,176.746L123.167,177.452L123.354,177.199C123.457,177.059 123.509,176.821 123.469,176.669L123.47,176.669ZM125.973,177.178C125.973,176.924 125.891,176.877 125.232,176.758L124.702,176.662L124.702,176.928C124.702,177.308 124.821,177.382 125.432,177.382L125.973,177.382L125.973,177.178ZM124.278,176.746C124.278,176.629 124.214,176.534 124.137,176.534C124.059,176.534 123.995,176.629 123.995,176.746C123.995,176.862 124.059,176.958 124.137,176.958C124.214,176.958 124.278,176.862 124.278,176.746ZM127.874,173.911C129.088,170.335 130.431,165.669 131.877,160.005C132.599,157.173 132.9,155.79 132.898,155.308L132.896,154.919L132.472,154.919L132.471,155.308C132.469,156.036 131.354,159.965 129.335,166.362C127.859,171.038 127.086,173.609 126.668,175.233L126.329,176.546L126.539,176.675C126.857,176.872 126.899,176.783 127.874,173.911ZM123.852,174.415C123.853,174.376 123.535,173.867 123.145,173.285L122.437,172.225L122.494,172.861C122.572,173.729 122.712,174.027 123.007,173.95L123.252,173.886L123.224,174.938L122.795,174.909L122.749,175.31C122.723,175.53 122.744,175.816 122.793,175.946L122.884,176.181L123.367,175.333C123.633,174.867 123.851,174.454 123.852,174.415ZM122.677,174.321C122.625,174.269 122.583,174.312 122.583,174.415C122.583,174.518 122.625,174.561 122.677,174.509C122.729,174.457 122.729,174.373 122.677,174.321ZM120.381,173.623C120.504,173.576 120.605,173.417 120.605,173.27L120.605,173.002L120.331,173.002C120.006,173.002 119.843,173.218 119.952,173.503C120.041,173.735 120.069,173.743 120.381,173.623ZM120.248,172.669C120.405,172.555 120.475,172.387 120.422,172.251L120.335,172.023L119.87,172.181C119.286,172.378 119.31,172.353 119.416,172.629C119.524,172.911 119.893,172.929 120.248,172.669ZM121.453,172.799C121.453,172.764 121.389,172.697 121.311,172.649C121.234,172.601 121.17,172.629 121.17,172.711C121.17,172.794 121.234,172.861 121.311,172.861C121.389,172.861 121.453,172.833 121.453,172.799ZM124.218,171.482C124.175,171.439 124.014,171.461 123.86,171.532L123.58,171.66L124.207,172.649L124.252,172.105C124.277,171.806 124.261,171.526 124.218,171.482ZM121.241,172.145C121.241,172.036 121.129,171.925 120.993,171.899C120.75,171.852 120.649,172.152 120.843,172.346C120.991,172.494 121.241,172.368 121.241,172.145ZM120.14,171.677C120.112,171.59 119.95,171.498 119.781,171.474C119.452,171.425 119.431,171.453 119.554,171.774C119.648,172.017 120.221,171.922 120.14,171.677ZM123.506,171.315C124.232,171.193 124.419,171.074 124.419,170.733C124.419,170.402 124.464,170.403 123.348,170.701L122.441,170.942L122.441,171.62L122.689,171.515C122.825,171.457 123.193,171.367 123.506,171.315ZM120.981,170.962C120.903,170.76 119.36,170.244 119.228,170.376C119.187,170.417 119.264,170.619 119.399,170.825L119.645,171.2L120.265,171.115C120.606,171.068 120.878,171.076 120.87,171.133C120.835,171.362 120.914,171.507 120.983,171.338C121.023,171.238 121.022,171.069 120.981,170.962ZM118.91,170.671C118.91,170.632 118.878,170.601 118.839,170.601C118.8,170.601 118.768,170.632 118.768,170.671C118.768,170.71 118.8,170.742 118.839,170.742C118.878,170.742 118.91,170.71 118.91,170.671ZM121.832,170.291C121.786,170.179 121.753,170.212 121.746,170.377C121.74,170.526 121.774,170.609 121.82,170.562C121.867,170.515 121.872,170.393 121.832,170.291ZM123.922,170.259L124.49,170.095L124.535,169.782C124.589,169.41 124.647,169.415 123.423,169.693L122.441,169.917L122.441,170.623L122.898,170.523C123.148,170.468 123.609,170.349 123.922,170.259ZM120.605,170.177C120.605,169.645 119.714,169.306 119.477,169.748L119.328,170.026L119.79,170.159C120.416,170.34 120.605,170.344 120.605,170.177ZM119.305,169.4L118.839,169.032L118.792,169.258C118.766,169.382 118.827,169.582 118.927,169.703L119.108,169.921L119.305,169.4ZM123.457,168.976C124.393,168.596 124.843,168.267 124.843,167.965C124.843,167.675 124.514,167.734 123.432,168.218L122.441,168.66L122.441,168.995C122.441,169.405 122.4,169.405 123.457,168.976ZM124.612,169.117C124.699,168.889 124.579,168.853 124.207,168.995L123.972,169.086L124.16,169.205C124.429,169.375 124.519,169.358 124.612,169.117ZM120.04,169.117C120.04,169.078 120.008,169.046 119.969,169.046C119.93,169.046 119.899,169.078 119.899,169.117C119.899,169.156 119.93,169.188 119.969,169.188C120.008,169.188 120.04,169.156 120.04,169.117ZM119.692,168.897C119.813,168.7 119.648,168.058 119.476,168.058C119.3,168.058 118.894,168.842 119.009,168.958C119.151,169.099 119.591,169.06 119.692,168.897ZM119.205,167.743C119.582,166.833 119.08,166.683 118.57,167.553C118.163,168.247 118.123,168.486 118.371,168.734L118.539,168.902L118.792,168.516C118.931,168.304 119.117,167.956 119.205,167.743ZM124.82,167.272C124.846,167.251 124.9,166.989 124.94,166.69L125.013,166.147L123.825,165.76C122.407,165.299 122.441,165.301 122.441,165.651C122.441,165.982 122.74,166.159 123.734,166.413C124.476,166.603 124.834,166.927 124.302,166.927C124.147,166.927 123.665,167.063 123.231,167.229L122.441,167.532L122.441,168.309L123.607,167.81C124.248,167.536 124.794,167.293 124.82,167.272ZM118.493,167.19L118.62,166.958L118.165,166.887C117.566,166.794 117.492,166.899 117.741,167.489L117.948,167.981L118.157,167.701C118.271,167.548 118.423,167.318 118.493,167.19ZM123.536,166.727C123.59,166.673 122.759,166.362 122.562,166.362C122.496,166.362 122.441,166.554 122.441,166.788L122.441,167.214L122.964,166.995C123.251,166.875 123.509,166.755 123.536,166.727ZM118.915,166.426L119.097,166.208L119.329,166.574L119.333,166.049L119.126,166.129C119.012,166.173 118.881,166.148 118.835,166.074C118.789,165.999 118.405,165.938 117.983,165.938L117.214,165.938L117.214,166.155C117.214,166.602 118.587,166.821 118.915,166.426ZM120.318,165.719C119.894,165.033 119.806,165.204 120.194,165.96C120.367,166.298 120.535,166.495 120.568,166.398C120.601,166.301 120.489,165.996 120.318,165.719ZM125.126,165.604L125.126,165.27L123.9,164.823L122.675,164.377L122.56,164.557C122.353,164.884 122.521,165.016 123.636,165.403C124.242,165.614 124.773,165.821 124.814,165.863C124.986,166.034 125.126,165.918 125.126,165.604ZM118.627,165.59C118.627,165.284 118.165,165.091 117.435,165.091C116.794,165.091 116.7,165.156 116.899,165.463C117.026,165.66 117.401,165.759 118.097,165.781L118.627,165.797L118.627,165.59ZM119.192,165.664C119.192,165.591 119.129,165.492 119.051,165.444C118.973,165.396 118.91,165.456 118.91,165.577C118.91,165.698 118.973,165.797 119.051,165.797C119.129,165.797 119.192,165.737 119.192,165.664ZM120.878,164.985C120.889,164.78 120.755,164.762 120.484,164.934L120.293,165.055L120.471,165.388L120.649,165.72L120.758,165.441C120.818,165.287 120.872,165.082 120.878,164.985ZM125.269,164.773C125.269,164.676 125.308,164.365 125.355,164.082L125.44,163.568L124.365,163.869C123.075,164.23 123.069,164.248 124.101,164.63C125.06,164.985 125.266,165.01 125.268,164.773L125.269,164.773ZM116.225,164.596C116.225,164.557 116.194,164.526 116.155,164.526C116.116,164.526 116.084,164.557 116.084,164.596C116.084,164.635 116.116,164.667 116.155,164.667C116.194,164.667 116.225,164.635 116.225,164.596ZM120.455,164.534L120.657,164.406L120.473,164.183C120.264,163.931 120.186,163.917 119.929,164.08C119.721,164.212 119.847,164.668 120.09,164.665C120.179,164.664 120.343,164.605 120.455,164.534ZM118.591,163.46C118.519,162.818 118.107,162.163 117.904,162.368C117.845,162.428 117.898,162.843 118.023,163.29L118.25,164.102L118.664,164.102L118.591,163.46ZM121.027,163.643C121.028,163.584 120.933,163.537 120.817,163.537C120.6,163.537 120.527,163.836 120.701,164.01C120.796,164.105 121.022,163.849 121.027,163.643ZM120.253,163.5L120.958,163.04L121.05,162.234L120.177,162.709C119.273,163.2 119.105,163.387 119.243,163.749C119.357,164.046 119.455,164.021 120.253,163.5ZM124.349,163.631L125.479,163.325L125.801,160.923C126.599,154.967 127.107,151.794 127.388,151.019C127.554,150.561 127.785,149.837 127.9,149.409C128.015,148.982 128.201,148.304 128.313,147.904C128.425,147.503 128.739,146.909 129.011,146.584L129.505,145.992L129.508,145.546C129.51,145.301 129.673,144.719 129.871,144.253C130.377,143.057 130.46,142.791 130.572,141.992C130.627,141.604 130.701,141.365 130.736,141.463C130.771,141.56 130.882,141.639 130.983,141.639L131.166,141.639L131.292,139.897L131.811,139.461C132.097,139.222 132.33,138.942 132.33,138.841C132.33,138.739 132.579,137.912 132.883,137.004C133.206,136.036 133.532,134.68 133.668,133.728C133.797,132.834 134.245,130.387 134.666,128.289C135.359,124.826 135.678,122.769 135.989,119.742C136.049,119.159 136.209,118.47 136.344,118.21C136.479,117.95 136.569,117.72 136.544,117.699C136.519,117.678 136.358,117.588 136.186,117.499L135.874,117.336L135.734,117.597C135.658,117.741 135.494,118.489 135.37,119.259C135.246,120.03 134.93,121.486 134.668,122.496C134.184,124.363 133.095,128.863 132.678,130.726C132.446,131.762 132.37,131.875 132.09,131.595L131.935,131.44L131.855,131.842C131.812,132.063 131.739,132.562 131.693,132.951L131.61,133.657L132.038,132.951L132.048,133.859L131.781,134.002C131.626,134.085 131.349,134.607 131.122,135.243C130.907,135.847 130.484,137.008 130.183,137.823C129.861,138.694 129.696,139.325 129.782,139.353C129.863,139.38 129.928,139.508 129.926,139.638L129.924,139.873L129.793,139.665C129.596,139.354 128.987,141.118 127.992,144.889C127.879,145.316 127.721,145.729 127.641,145.807L127.494,145.948L127.591,145.454C128.013,143.308 127.755,143.085 127.027,144.966C126.493,146.343 126.476,146.784 126.982,146.158L127.266,145.807L127.143,146.584L127.557,146.584L127.472,146.807C127.424,146.93 127.384,147.105 127.381,147.196C127.379,147.287 127.288,147.244 127.181,147.102L126.984,146.843L126.753,147.196C126.625,147.39 126.171,148.323 125.744,149.269L124.967,150.988L124.411,153.342C123.717,156.282 123.671,155.924 124.915,157.24C125.497,157.855 125.971,158.459 125.969,158.582C125.967,158.706 125.5,158.304 124.913,157.674L123.862,156.544L123.719,156.756C123.501,157.078 123.512,157.099 124.419,158.121C124.885,158.646 125.267,159.126 125.267,159.187C125.267,159.439 125.019,159.254 124.375,158.52C123.62,157.659 123.43,157.575 123.43,158.101C123.43,158.321 123.648,158.694 124,159.075L124.569,159.692L125.059,159.784C125.329,159.835 125.549,159.936 125.549,160.008C125.549,160.137 125.295,160.112 123.953,159.853C123.023,159.674 123.006,159.677 123.006,160.065L123.006,160.408L123.819,160.502C124.94,160.632 125.45,160.767 125.512,160.952L125.564,161.108L125.027,160.995C124.731,160.932 124.124,160.838 123.677,160.786L122.865,160.691L122.865,160.896C122.865,161.195 123.149,161.381 123.748,161.476C124.039,161.521 124.5,161.594 124.772,161.636C125.395,161.733 125.419,161.98 124.808,161.991C123.735,162.012 122.283,162.719 122.621,163.057C122.675,163.111 123.181,163.019 123.746,162.851C124.31,162.684 124.862,162.547 124.972,162.547C125.382,162.548 124.929,162.77 123.809,163.117L122.655,163.474L122.609,163.717L122.562,163.961L122.89,163.949C123.071,163.943 123.727,163.8 124.348,163.631L124.349,163.631ZM126.892,148.562C126.94,148.484 127.007,148.42 127.041,148.42C127.076,148.42 127.104,148.484 127.104,148.562C127.104,148.639 127.036,148.703 126.954,148.703C126.872,148.703 126.844,148.639 126.892,148.562ZM123.347,162.039C123.661,161.918 123.481,161.7 123.069,161.7C122.857,161.7 122.724,161.782 122.724,161.912C122.724,162.134 122.97,162.184 123.347,162.039ZM117.356,161.214C117.356,161.002 117.102,160.777 116.99,160.889C116.891,160.987 117.086,161.418 117.229,161.418C117.299,161.418 117.356,161.326 117.356,161.214ZM123.854,159.471C123.854,159.247 123.406,158.732 123.279,158.81C123.087,158.929 123.119,159.404 123.324,159.487C123.602,159.599 123.854,159.592 123.854,159.471ZM145.752,156.784C145.752,156.379 145.264,156.249 144.666,156.496L144.268,156.659L144.692,156.761C145.294,156.906 145.752,156.916 145.752,156.784ZM114.745,155.353C114.643,155.031 114.389,154.953 114.389,155.244C114.389,155.445 114.688,155.797 114.781,155.704C114.812,155.673 114.797,155.515 114.745,155.353ZM113.3,154.212C113.259,154.057 113.169,153.93 113.101,153.93C112.958,153.93 112.931,154.403 113.066,154.538C113.23,154.702 113.375,154.5 113.299,154.212L113.3,154.212ZM112.746,152.765C112.707,152.512 112.567,151.574 112.437,150.681L112.199,149.056L111.126,148.968L111.497,149.7C111.701,150.103 111.965,150.949 112.084,151.581C112.359,153.044 112.955,154.109 112.746,152.764L112.746,152.765ZM113.541,152.588C113.541,152.394 113.478,152.235 113.4,152.235C113.242,152.235 113.206,152.7 113.353,152.847C113.509,153.003 113.541,152.958 113.541,152.588ZM137.217,138.991C137.063,138.837 136.957,139.082 137.068,139.337L137.178,139.591L137.239,139.332C137.273,139.19 137.263,139.037 137.217,138.991ZM108.658,138.34L108.756,137.795L108.574,137.856C108.364,137.926 108.146,138.782 108.258,139.096L108.333,139.308L108.447,139.096C108.509,138.98 108.604,138.639 108.658,138.34ZM136.993,137.382C136.993,136.144 136.526,133.085 136.256,132.546L135.981,131.999L135.828,132.152C135.744,132.236 135.648,132.8 135.614,133.405L135.553,134.505L135.782,135.494C136.213,137.353 136.993,138.569 136.993,137.382ZM124.513,134.905C124.462,134.853 124.419,134.896 124.419,134.999C124.419,135.103 124.462,135.145 124.513,135.094C124.565,135.042 124.565,134.957 124.513,134.905ZM124.795,132.986C124.756,132.889 124.724,132.968 124.724,133.163C124.724,133.357 124.756,133.436 124.795,133.339C124.835,133.242 124.835,133.083 124.795,132.986ZM141.935,131.856C141.934,131.759 141.874,131.587 141.803,131.473L141.672,131.267L141.381,131.53C140.979,131.894 141.016,132.033 141.514,132.033C141.76,132.033 141.936,131.958 141.935,131.856ZM132.316,129.878C132.382,129.703 132.483,129.346 132.54,129.083L132.643,128.607L132.5,128.695C132.316,128.809 131.906,130.006 132.013,130.114C132.146,130.247 132.19,130.213 132.316,129.878ZM135.815,126.064C135.776,125.967 135.744,126.046 135.744,126.24C135.744,126.435 135.776,126.514 135.815,126.417C135.854,126.32 135.854,126.161 135.815,126.064ZM133.401,125.428C133.449,125.214 133.614,124.572 133.769,124C134.082,122.84 134.148,121.502 133.903,121.258L133.743,121.098L133.616,121.232C133.546,121.306 133.414,122.034 133.325,122.85C133.235,123.666 133.124,124.667 133.079,125.075L132.998,125.816L133.156,125.816C133.243,125.816 133.353,125.642 133.401,125.428ZM136.91,124.139C137.22,122.508 137.162,120.57 136.793,120.201C136.485,119.893 136.251,122.112 136.375,124.175C136.477,125.887 136.58,125.88 136.91,124.139ZM147.8,123.413C147.8,123.11 147.39,123.154 147.33,123.463L147.28,123.723L147.54,123.673C147.683,123.645 147.8,123.528 147.8,123.413ZM144.926,121.543L144.625,121.243L144.275,121.572C143.801,122.018 143.971,122.223 144.501,121.846L144.926,121.543ZM134.716,120.321C134.798,119.94 134.908,119.113 134.96,118.484L135.056,117.34L134.902,117.34C134.631,117.34 134.03,120.535 134.238,120.872C134.42,121.166 134.573,120.99 134.716,120.321ZM143.562,119.177C143.612,119.096 143.493,119.035 143.288,119.035C143.089,119.035 142.926,119.099 142.926,119.177C142.926,119.254 143.05,119.318 143.2,119.318C143.351,119.318 143.514,119.254 143.562,119.177ZM125.972,117.762C125.648,117.307 125.487,117.307 125.368,117.761L125.294,118.045L125.738,118.505L126.183,118.965L126.229,118.576C126.256,118.343 126.153,118.016 125.972,117.762ZM142.185,118.647L142.243,118.47L141.816,118.47C141.385,118.47 141.157,118.632 141.335,118.81C141.489,118.963 142.121,118.842 142.185,118.647ZM123.642,114.938C123.692,114.858 123.573,114.797 123.368,114.797C123.169,114.797 123.007,114.861 123.007,114.938C123.007,115.016 123.13,115.08 123.281,115.08C123.432,115.08 123.594,115.016 123.642,114.938ZM125.09,113.852C124.954,113.817 124.732,113.817 124.596,113.852C124.46,113.888 124.571,113.917 124.843,113.917C125.115,113.917 125.226,113.888 125.09,113.852ZM124.96,109.097L125.01,108.84L124.715,108.998C124.357,109.189 124.323,109.468 124.665,109.402C124.8,109.376 124.933,109.239 124.96,109.097ZM155.214,183.434C153.739,181.413 152.903,178.847 152.465,175C152.263,173.231 151.93,172.04 151.574,171.82L151.43,171.731L151.332,175.657L151.049,175.975C150.579,176.504 149.614,176.845 148.366,176.923L147.214,176.995L146.137,176.484L145.864,175.867C145.513,175.073 145.605,174.779 145.997,175.443C146.162,175.722 146.505,176.059 146.759,176.19L147.221,176.429L148.305,176.355C148.937,176.312 149.659,176.161 150.037,175.994L150.686,175.707L150.753,175.379C151.023,174.063 150.906,171.908 150.544,171.528C150.343,171.318 150.268,171.494 150.116,172.526C150.038,173.06 149.942,173.59 149.904,173.705L149.833,173.913L149.702,173.705C149.524,173.424 149.533,172.58 149.725,171.478L149.883,170.567L149.551,169.459L148.287,168.214C147.592,167.53 147.023,166.873 147.023,166.756L147.023,166.543L147.756,166.683L149.872,169.03C151.036,170.321 152.146,171.684 152.339,172.059L152.69,172.741L152.894,174.581C153.232,177.627 153.974,180.304 155.095,182.518C155.866,184.04 155.911,184.39 155.214,183.434ZM127.104,169.965C127.104,169.926 127.135,169.894 127.174,169.894C127.213,169.894 127.245,169.926 127.245,169.965C127.245,170.004 127.213,170.035 127.174,170.035C127.135,170.035 127.104,170.004 127.104,169.965ZM132.607,167.274C133.108,166.734 134.173,165.407 134.973,164.325C136.457,162.318 137.02,161.936 135.698,163.833C134.382,165.721 132.958,167.362 132.119,167.956C131.881,168.125 132.095,167.825 132.607,167.274ZM132.156,166.996C132.238,166.84 132.447,166.586 132.621,166.431L132.937,166.15L132.788,166.435C132.706,166.591 132.497,166.845 132.323,167L132.007,167.281L132.156,166.996ZM147.253,165.721C147.116,165.366 147.157,165.274 147.323,165.561C147.406,165.702 147.443,165.848 147.407,165.885C147.37,165.921 147.301,165.847 147.253,165.721ZM133.731,165.115C133.807,164.972 133.982,164.766 134.119,164.655L134.368,164.455L134.046,164.914C133.697,165.412 133.507,165.533 133.731,165.115ZM132.189,164.738C132.189,164.699 132.221,164.667 132.26,164.667C132.299,164.667 132.331,164.699 132.331,164.738C132.331,164.776 132.299,164.808 132.26,164.808C132.221,164.808 132.189,164.776 132.189,164.738ZM132.901,163.879C132.904,163.807 133.062,163.558 133.253,163.325L133.601,162.901L133.601,163.124C133.602,163.246 133.443,163.496 133.249,163.678C133.055,163.861 132.898,163.951 132.901,163.879ZM135.139,163.576C135.474,163.089 135.721,162.878 135.721,163.078C135.721,163.146 135.52,163.388 135.273,163.616L134.825,164.031L135.139,163.576ZM115.393,161.382L115.24,160.923L115.45,161.197C115.566,161.348 115.66,161.555 115.66,161.657C115.66,161.972 115.553,161.862 115.393,161.382ZM137.47,160.641C137.584,160.408 137.775,160.09 137.893,159.934L138.109,159.652L138.035,159.944C137.995,160.105 137.804,160.423 137.612,160.651L137.262,161.064L137.47,160.641ZM162.664,159.626C162.626,159.562 162.204,158.289 161.727,156.796L160.859,154.082L160.401,153.48C159.945,152.883 158.846,151.952 158.597,151.952C158.525,151.952 158.466,152.242 158.466,152.596C158.466,153.384 158.282,153.308 157.979,152.397C157.675,151.483 157.109,150.967 156.18,150.758L155.43,150.589L155.43,150.319C155.429,150.161 155.312,150.028 155.147,149.998C154.991,149.969 154.734,149.826 154.575,149.68C154.415,149.533 153.546,149.123 152.643,148.768L151.002,148.123L150.775,147.777C150.651,147.587 150.42,147.431 150.264,147.431C150.092,147.431 149.461,146.911 148.677,146.124L147.376,144.817L146.322,142.986L145.267,141.154L145.21,140.267C145.149,139.31 145.119,139.272 144.672,139.585C144.278,139.861 144.131,140.275 143.716,142.275C143.189,144.809 142.685,146.873 142.566,146.982C142.508,147.035 142.503,146.919 142.554,146.725C142.605,146.531 142.933,144.936 143.282,143.181C143.906,140.049 144.443,138.095 144.702,138.011C144.914,137.944 145.643,139.796 145.55,140.165C145.505,140.345 145.527,140.528 145.598,140.572C145.669,140.616 145.904,141.113 146.119,141.675C147.041,144.089 149.175,146.573 151.185,147.574C152.63,148.292 156.521,149.988 157.244,150.214L157.928,150.427L158.545,150.255C159.929,149.867 160.727,148.795 160.727,147.323L160.727,146.352L160.338,145.585L159.95,144.818L159.319,144.5L158.689,144.182L156.856,144.182L157.017,144.021C157.825,143.213 160.068,143.997 160.802,145.345L161.186,146.051L161.258,146.95C161.301,147.488 161.256,148.116 161.145,148.512L160.959,149.174L160.384,149.757C160.067,150.078 159.65,150.442 159.455,150.566L159.102,150.791L159.419,151.195C161.236,153.51 161.808,154.74 162.408,157.628C162.792,159.478 162.851,159.939 162.664,159.626ZM136.293,159.016C136.29,158.899 136.415,158.613 136.569,158.38C136.926,157.842 136.926,158.082 136.569,158.733C136.42,159.005 136.296,159.133 136.293,159.016ZM116.225,158.098C116.225,158.059 116.257,158.027 116.296,158.027C116.335,158.027 116.367,158.059 116.367,158.098C116.367,158.137 116.335,158.168 116.296,158.168C116.257,158.168 116.225,158.137 116.225,158.098ZM137.417,157.25C137.417,157.211 137.448,157.179 137.487,157.179C137.526,157.179 137.558,157.211 137.558,157.25C137.558,157.289 137.526,157.321 137.487,157.321C137.448,157.321 137.417,157.289 137.417,157.25ZM134.874,153.224C134.757,153.148 134.725,153.087 134.803,153.087C134.881,153.087 135.04,153.148 135.156,153.224C135.273,153.299 135.305,153.361 135.227,153.361C135.149,153.361 134.99,153.299 134.874,153.224ZM139.96,152.305C139.96,152.267 139.991,152.235 140.03,152.235C140.069,152.235 140.101,152.267 140.101,152.305C140.101,152.344 140.069,152.376 140.03,152.376C139.991,152.376 139.96,152.344 139.96,152.305ZM142.732,150.322C142.599,149.977 142.635,149.667 142.86,149.197L143.064,148.774L142.922,149.763L143.197,149.11C143.348,148.751 143.573,148.217 143.696,147.923C144.204,146.707 144.016,147.646 143.48,149C142.814,150.684 142.848,150.624 142.732,150.322ZM142.879,149.88C142.827,149.828 142.785,149.871 142.785,149.974C142.785,150.078 142.827,150.12 142.879,150.069C142.931,150.017 142.931,149.932 142.879,149.88ZM153.875,150.116L153.593,149.994L154.122,149.984C154.414,149.979 154.652,150.038 154.652,150.116C154.652,150.284 154.268,150.284 153.875,150.116ZM149.621,148.788C149.224,148.603 148.683,148.405 148.42,148.348C147.331,148.113 145.098,146.414 145.274,145.955C145.309,145.864 145.215,145.678 145.065,145.542L144.792,145.295L144.203,146.363C143.653,147.36 143.425,147.673 143.555,147.255C145.056,142.438 145.139,142.289 145.639,143.507L145.999,144.387L145.858,144.697C145.78,144.869 145.759,145.293 145.812,145.647L145.908,146.285L146.396,146.714L146.884,147.142L147.26,146.971L147.637,146.799L147.685,146.939C147.712,147.015 147.813,147.237 147.91,147.431L148.086,147.785L148.756,147.986C149.124,148.097 149.425,148.259 149.425,148.347C149.425,148.434 149.695,148.642 150.025,148.808C150.847,149.221 150.516,149.204 149.621,148.788ZM100.488,147.502C100.324,146.166 100.731,143.579 101.347,142.039L101.568,141.488L101.303,141.193L101.038,140.899L101.603,140.978C101.914,141.022 102.359,141.098 102.592,141.147L103.016,141.236L103.89,140.648L104.763,140.06L105.245,140.33L102.451,141.856L102.408,142.603C102.385,143.014 102.468,143.704 102.593,144.135C102.718,144.566 102.786,144.954 102.744,144.996C102.636,145.104 102.14,143.938 102.022,143.298C101.87,142.467 101.711,142.548 101.602,143.511C101.495,144.447 101.345,144.863 101.154,144.747C101.091,144.709 100.947,144.941 100.835,145.265L100.632,145.853L100.815,146.407L100.997,146.961L100.795,147.655L100.592,148.35L100.488,147.502ZM111.281,146.869L111.281,145.084L111.073,144.81C110.799,144.446 110.804,144.273 111.086,144.381L111.315,144.469L111.212,144.149C111.063,143.685 110.947,141.832 111.074,141.955C111.184,142.06 111.841,145.712 111.844,146.232C111.845,146.388 111.719,146.595 111.563,146.692L111.281,146.869ZM147.023,145.736L146.872,145.454L147.089,145.454C147.212,145.454 147.306,145.576 147.306,145.736C147.306,145.892 147.276,146.019 147.24,146.019C147.204,146.019 147.106,145.892 147.023,145.736ZM109.727,141.357C109.727,141.253 109.769,141.211 109.821,141.262C109.873,141.314 109.873,141.399 109.821,141.451C109.769,141.503 109.727,141.46 109.727,141.357ZM100.399,140.361C100.314,140.202 100.267,139.868 100.295,139.62L100.345,139.167L100.514,139.562C100.911,140.49 100.817,141.143 100.399,140.361ZM109.588,139.626L109.59,139.308L109.727,139.52C109.904,139.794 109.904,139.944 109.727,139.944C109.649,139.944 109.586,139.801 109.587,139.626L109.588,139.626ZM119.061,138.222C119.066,138.12 119.125,137.91 119.192,137.754L119.314,137.472L119.324,137.852C119.329,138.061 119.27,138.271 119.192,138.319C119.115,138.367 119.055,138.323 119.061,138.222ZM119.477,136.456C119.478,136.393 119.541,136.246 119.616,136.13L119.753,135.918L119.755,136.157C119.756,136.288 119.694,136.435 119.616,136.483C119.538,136.531 119.476,136.519 119.477,136.456ZM109.162,135.423C109.162,135.32 109.204,135.277 109.256,135.329C109.308,135.381 109.308,135.466 109.256,135.517C109.204,135.569 109.162,135.526 109.162,135.423ZM110.732,133.339L110.749,132.244L110.864,132.93C110.927,133.307 111.017,133.715 111.064,133.837L111.149,134.059L111.364,133.752C111.483,133.583 111.671,133.445 111.783,133.445C112.057,133.445 112.04,133.305 111.74,133.077L111.493,132.889L112.34,132.88C113.514,132.867 115.058,132.573 116.687,132.051C117.445,131.808 118.239,131.612 118.452,131.615L118.839,131.621L118.387,131.817C118.139,131.925 117.138,132.281 116.162,132.607C114.506,133.161 114.045,133.421 114.636,133.465C114.772,133.475 114.169,133.565 113.295,133.666L111.706,133.848L111.333,134.142C110.765,134.589 110.714,134.521 110.732,133.34L110.732,133.339ZM120.605,133.077L120.605,132.708L120.287,132.784C120.112,132.825 119.588,132.896 119.122,132.94L118.274,133.02L118.768,132.787C119.306,132.534 121.332,132.006 121.422,132.096C121.482,132.156 120.756,133.445 120.662,133.445C120.631,133.445 120.605,133.279 120.605,133.077ZM116.405,133.206C116.542,133.17 116.733,133.173 116.828,133.211C116.924,133.25 116.812,133.279 116.579,133.276C116.345,133.273 116.267,133.242 116.405,133.206ZM108.74,131.856C108.746,130.382 110.087,126.861 111.2,125.393C111.407,125.121 111.675,124.558 111.795,124.142L112.015,123.386L111.841,121.958L111.666,120.53L111.845,118.968L112.025,117.406L111.638,116.631C111.084,115.523 110.67,115.145 109.457,114.642C106.506,113.417 105.035,112.378 104.372,111.05C103.92,110.145 104.073,110.131 104.742,111.017C105.482,111.997 106.567,112.82 107.962,113.46C108.583,113.745 109.556,114.2 110.125,114.471L111.159,114.963L111.631,115.701C111.891,116.107 112.169,116.69 112.25,116.996L112.397,117.552L112.268,118.965C112.104,120.759 112.098,122.441 112.254,122.688L112.376,122.88L112.467,122.732C112.517,122.651 112.782,121.967 113.055,121.211L113.552,119.838L113.361,116.404L113.682,115.805L113.283,114.677C112.715,113.074 112.115,112.16 110.498,110.439C107.92,107.695 106.985,105.781 106.701,102.659C106.59,101.445 106.7,101.62 107.109,103.309C107.846,106.354 108.503,107.517 110.991,110.19C113.153,112.514 114.061,114.308 114.379,116.888L114.524,118.061L114.37,118.795C114.285,119.199 114.128,119.63 114.02,119.752C113.913,119.875 113.726,120.415 113.605,120.953C113.169,122.889 112.944,123.5 112.332,124.404L111.71,125.322L110.994,127.37C109.193,132.525 108.734,133.439 108.74,131.856ZM119.781,131.485L119.594,131.366L120.185,131.287C120.511,131.243 120.997,131.243 121.267,131.287L121.757,131.367L121.569,131.486C121.326,131.64 120.025,131.64 119.781,131.485ZM125.012,120.956C124.534,119.935 124.364,119.459 124.478,119.459C124.564,119.459 125.114,120.512 125.456,121.331C125.829,122.227 125.461,121.917 125.012,120.956ZM114.567,120.916C114.698,120.784 114.846,120.716 114.894,120.765C115.033,120.904 114.82,121.154 114.562,121.154L114.328,121.154L114.567,120.916ZM114.813,119.079C114.814,118.861 115.01,117.983 115.249,117.128C116.29,113.413 116.22,112.383 114.729,109.396L113.934,107.804L114.341,108.187C114.928,108.742 115.626,109.957 116.042,111.147L116.403,112.184L116.399,113.455C116.395,114.89 115.886,117.634 115.594,117.798C115.49,117.856 115.33,118.222 115.236,118.611C115.043,119.415 114.812,119.671 114.813,119.079ZM103.934,110.064C103.934,110.026 103.966,109.994 104.005,109.994C104.044,109.994 104.076,110.026 104.076,110.064C104.076,110.103 104.044,110.135 104.005,110.135C103.966,110.135 103.934,110.103 103.934,110.064ZM103.793,109.782C103.793,109.743 103.825,109.711 103.864,109.711C103.903,109.711 103.934,109.743 103.934,109.782C103.934,109.821 103.903,109.852 103.864,109.852C103.825,109.852 103.793,109.821 103.793,109.782ZM106.646,101.164C106.649,100.931 106.681,100.853 106.717,100.99C106.752,101.128 106.75,101.318 106.712,101.414C106.673,101.51 106.644,101.397 106.647,101.164L106.646,101.164Z" style="fill-rule:nonzero;"/>
        </g>
    </g>
</svg>
