<?xml version="1.0" encoding="UTF-8" standalone="no"?>
<!DOCTYPE svg PUBLIC "-//W3C//DTD SVG 1.1//EN" "http://www.w3.org/Graphics/SVG/1.1/DTD/svg11.dtd">
<svg width="100%" height="100%" viewBox="0 0 241 342" version="1.1" xmlns="http://www.w3.org/2000/svg" xmlns:xlink="http://www.w3.org/1999/xlink" xml:space="preserve" xmlns:serif="http://www.serif.com/" style="fill-rule:evenodd;clip-rule:evenodd;stroke-linejoin:round;stroke-miterlimit:2;">
    <g id="path2" transform="matrix(3.6495,0,0,3.6495,-371.117,-526.931)">
        <g id="g1">
            <path id="path21" serif:id="path2" d="M124.66,236.143C121.484,235.839 118.468,235.043 116.106,233.884C114.546,233.119 114.015,232.694 113.394,231.715C112.967,231.043 112.625,230.137 112.628,229.69C112.637,228.489 113.482,226.844 114.688,225.68L115.757,224.649L115.5,223.326C115.359,222.598 114.957,220.114 114.607,217.805C114.258,215.496 113.914,213.549 113.843,213.479C113.699,213.334 113.68,211.705 113.68,211.641C113.68,211.576 113.394,209.714 113.044,207.503C112.29,202.737 112.209,201.916 111.689,193.825C111.284,187.518 111.014,185.09 109.821,177.024C109.455,174.55 108.747,169.311 108.248,165.382C107.214,157.239 107.049,156.488 106.211,156.121C105.881,155.976 105.573,155.595 105.528,155.276C105.464,154.83 105.68,154.574 106.454,154.181C109.227,152.77 115.543,151.116 125.19,149.273C128.745,148.594 133.43,148.072 138.207,147.825C142.584,147.598 142.811,147.558 144.188,146.781C145.417,146.088 145.876,145.977 147.443,145.994C150.646,146.03 150.812,146.22 152.042,151.258C153.628,157.754 154.465,163.993 154.823,171.997C154.915,174.034 155.225,178.38 155.513,181.654C155.801,184.928 156.109,190.673 156.196,194.42C156.313,199.409 156.597,203.212 156.501,203.308C156.314,203.496 156.475,205.307 157.408,213.516L158.008,218.787L159.938,219.766C163.724,221.688 165.073,223.943 163.851,226.307C162.241,229.42 153.789,232.83 143.049,234.699C135.382,236.034 128.865,236.545 124.66,236.143ZM127.571,229.798C133.916,229.201 138.005,228.344 143.119,226.539C145.917,225.552 150.207,224.362 153.656,223.617C154.859,223.358 155.664,222.508 155.858,221.294C156.114,219.695 155.54,215.272 154.971,214.461C154.586,213.913 154.474,212.933 154.32,208.773C154.09,202.542 153.458,193.471 153.096,191.179C152.754,189.019 151.938,181.398 151.255,173.981C150.126,161.729 149.701,158.654 148.458,153.74C147.799,151.135 147.031,148.546 146.858,148.347C146.809,148.291 146.471,148.44 146.107,148.679C144.953,149.435 142.627,149.872 138.209,150.165C130.338,150.686 115.014,153.568 110.439,155.388C109.31,155.837 109.301,155.887 109.827,158.635C110.035,159.727 110.455,162.644 110.759,165.118C111.063,167.591 111.841,172.83 112.489,176.759C113.872,185.148 114.077,186.925 114.602,195.015C115.018,201.426 115.255,203.473 116.554,211.817C116.996,214.654 117.543,218.643 117.769,220.68C117.995,222.717 118.246,224.682 118.326,225.046C118.818,227.278 119.02,227.703 119.775,228.093C120.207,228.316 120.559,228.66 120.559,228.857C120.559,229.668 122.34,230.379 123.867,230.177C124.303,230.119 125.97,229.949 127.571,229.798ZM122.081,225.574C121.499,225.21 121.483,224.625 122.048,224.408C122.285,224.317 123.059,224.32 123.768,224.414C124.984,224.575 125.057,224.551 125.057,223.981C125.057,223.607 125.447,223.043 126.081,222.501C127.044,221.676 127.115,221.513 127.291,219.698C127.394,218.637 127.581,217.234 127.707,216.579C127.832,215.924 128.006,214.847 128.092,214.185C128.247,212.999 128.234,212.973 127.182,212.382L126.116,211.783L126.114,210.014C126.113,209.041 126.039,207.646 125.951,206.914C125.797,205.626 125.747,205.561 124.432,204.907C123.329,204.357 122.911,203.942 122.21,202.697C121.735,201.854 121.281,200.903 121.201,200.584C121.121,200.265 120.709,199.8 120.287,199.551C118.837,198.694 117.914,197.755 117.914,197.137C117.914,196.802 117.735,196.459 117.517,196.375C117.204,196.255 117.12,195.707 117.122,193.767C117.124,190.961 117.535,187.971 118.692,182.345C119.138,180.179 119.628,177.623 119.781,176.667C120.074,174.833 120.373,174.246 121.015,174.246C121.23,174.246 121.745,173.882 122.16,173.438C122.907,172.638 122.909,172.627 122.398,172.115C122.115,171.832 121.883,171.425 121.883,171.211C121.883,170.997 122.527,169.182 123.314,167.176C126.641,158.699 127.132,157.835 128.61,157.85C129.798,157.862 131.065,158.764 133.218,161.134C135.208,163.323 136.589,165.24 137.395,166.93C137.766,167.707 137.803,168.027 137.566,168.406C137.321,168.799 137.355,168.932 137.753,169.12C138.465,169.457 140.397,171.897 140.445,172.521C140.467,172.815 140.464,173.314 140.438,173.63C140.37,174.438 140.731,174.574 142.392,174.366C143.738,174.198 143.843,174.134 143.843,173.487C143.843,172.743 142.124,162.645 141.85,161.784C141.761,161.503 141.296,161.108 140.817,160.908C140.233,160.664 139.885,160.302 139.761,159.809C139.66,159.405 139.346,158.781 139.064,158.422C138.463,157.658 138.409,156.845 138.909,156.114C139.105,155.827 139.341,155.286 139.432,154.91C139.747,153.611 142.143,153.16 143.416,154.161C144.397,154.933 144.988,156.171 144.777,157.016C144.238,159.176 144.208,160.328 144.647,161.912C144.896,162.808 145.418,165.504 145.808,167.901C146.198,170.299 146.659,172.915 146.834,173.713L147.15,175.165L148.225,175.086C148.982,175.03 149.486,175.157 149.932,175.518C150.517,175.992 150.542,176.107 150.258,177.056C150.089,177.621 149.903,178.942 149.843,179.992C149.774,181.218 149.568,182.157 149.268,182.615C148.898,183.18 148.782,184.032 148.711,186.722C148.648,189.092 148.506,190.296 148.24,190.714C147.911,191.229 147.908,191.676 148.218,193.957C148.819,198.386 149.654,203.653 149.914,204.653C150.287,206.088 151.19,211.459 151.392,213.44C151.573,215.216 151.414,216.314 150.976,216.314C150.626,216.314 149.928,214.857 149.928,214.128C149.928,213.785 149.696,212.618 149.413,211.536C148.189,206.864 147.154,201.542 146.482,196.471C146.318,195.234 146.097,193.626 145.991,192.899L145.797,191.576L145.326,193.163C144.824,194.853 144.27,195.677 143.637,195.677C143.344,195.677 143.288,195.877 143.409,196.482C143.678,197.828 145.168,201.33 145.724,201.924C146.651,202.914 149.142,211.128 149.939,215.823C150.217,217.46 150.29,217.591 151.008,217.734C152.017,217.936 153.103,218.659 153.103,219.13C153.103,219.643 151.993,220.019 150.473,220.019C149.772,220.019 148.772,220.197 148.249,220.415C147.727,220.634 146.939,220.812 146.497,220.812C145.382,220.812 145.458,220.138 146.621,219.718C147.13,219.534 147.547,219.309 147.547,219.218C147.547,218.846 146.177,215.164 145.842,214.635C145.643,214.322 145.098,213.135 144.63,211.999C143.954,210.356 143.692,209.968 143.348,210.106C140.493,211.257 137.686,212.254 135.549,212.874C134.117,213.291 132.879,213.697 132.799,213.777C132.571,214.004 131.657,219.057 131.783,219.391C131.845,219.555 131.79,219.795 131.66,219.925C131.531,220.054 131.371,220.694 131.305,221.346C131.239,221.998 131.097,222.758 130.988,223.035C130.82,223.464 130.885,223.515 131.43,223.385C133.669,222.852 139.744,221.851 140.325,221.92C141.558,222.066 141.313,222.616 139.826,223.042C138.468,223.43 134.353,224.311 129.952,225.157C127.069,225.711 122.672,225.944 122.081,225.574L122.081,225.574ZM128.346,167.48C128.95,166.876 128.856,166.331 128.1,166.044C127.299,165.739 126.116,166.121 126.116,166.683C126.116,167.104 127.093,167.896 127.611,167.896C127.786,167.896 128.117,167.709 128.346,167.48ZM133.213,166.417C133.69,166.083 133.75,165.919 133.504,165.623C132.945,164.948 131.407,165.245 131.407,166.028C131.407,166.937 132.22,167.112 133.213,166.417Z" style="fill-rule:nonzero;"/>
        </g>
    </g>
</svg>
