<?xml version="1.0" encoding="UTF-8" standalone="no"?>
<!DOCTYPE svg PUBLIC "-//W3C//DTD SVG 1.1//EN" "http://www.w3.org/Graphics/SVG/1.1/DTD/svg11.dtd">
<svg width="100%" height="100%" viewBox="0 0 174 174" version="1.1" xmlns="http://www.w3.org/2000/svg" xmlns:xlink="http://www.w3.org/1999/xlink" xml:space="preserve" xmlns:serif="http://www.serif.com/" style="fill-rule:evenodd;clip-rule:evenodd;stroke-linejoin:round;stroke-miterlimit:2;">
    <g id="path4" transform="matrix(3.67999,0,0,3.67999,-412.478,-299.364)">
        <g id="g1">
            <path id="path41" serif:id="path4" d="M129.629,127.372C128.42,127.153 126.411,126.467 125.09,125.822C123.786,125.185 122.452,124.644 122.125,124.619C121.798,124.594 121.142,124.116 120.666,123.555C116.771,118.966 115.175,115.694 114.665,111.252C114.501,109.821 114.221,107.991 114.043,107.185C113.865,106.38 113.807,104.946 113.915,103.998C114.053,102.783 113.979,101.96 113.666,101.213C112.932,99.461 112.453,95.017 112.854,93.682C113.201,92.529 114.828,90.963 116.084,90.573C116.43,90.466 117.777,89.354 119.077,88.102C122.218,85.079 125.757,83.287 130.388,82.372C133.423,81.772 133.447,81.785 131.606,83.035C128.206,85.342 120.752,91.469 120.752,91.955C120.752,92.42 122.493,92.192 123.208,91.634C124.582,90.561 127.875,89.081 130.437,88.386C137.638,86.43 143.32,88.772 140.012,92.332C138.546,93.91 135.726,94.455 133.605,93.571C132.248,93.005 132.223,92.149 133.539,91.34C134.8,90.564 136.519,90.117 135.96,90.709C135.432,91.269 135.489,91.593 136.115,91.593C136.89,91.593 137.536,90.462 137.076,89.909C136.582,89.316 135.592,89.372 133.629,90.105C130.816,91.154 130.212,92.848 132.187,94.152C134.635,95.767 138.511,95.42 140.838,93.377C141.591,92.716 142.281,91.942 142.372,91.656C142.515,91.207 142.875,91.151 144.989,91.247C147.524,91.362 148.38,91.078 147.773,90.323C147.6,90.109 147.362,88.872 147.243,87.575L147.028,85.216L148.19,85.434C149.908,85.755 151.768,87.455 152.576,89.441C152.949,90.357 153.756,91.608 154.37,92.22C155.506,93.353 156.261,95.119 156.765,97.822C156.915,98.63 157.412,100.31 157.869,101.555C158.616,103.59 158.7,104.218 158.702,107.744C158.705,114.037 157.343,117.682 153.627,121.331C151.497,123.423 147.766,125.626 145.419,126.179C144.919,126.296 144.366,126.505 144.19,126.642C143.556,127.135 138.094,127.816 134.977,127.79C133.229,127.776 130.823,127.587 129.629,127.372ZM141.03,126.664C141.709,126.38 141.632,126.341 140.273,126.288C139.441,126.255 138.147,126.242 137.398,126.26C136.181,126.288 136.127,126.263 136.888,126.02C138.682,125.446 139.024,124.517 137.456,124.478C136.65,124.457 136.648,124.454 137.325,124.128C137.822,123.89 138.214,123.893 138.758,124.14C139.406,124.435 139.469,124.585 139.217,125.244C138.876,126.141 138.86,126.138 141.611,125.665C142.706,125.476 144.352,124.971 145.267,124.542L146.932,123.762L142.543,123.572C136.913,123.328 133.674,122.673 130.488,121.135C128.008,119.937 127.255,119.81 128.01,120.717C128.337,121.11 128.273,121.177 127.575,121.177C126.739,121.177 124.553,122.99 125.142,123.195C125.838,123.438 126.318,123.876 126.113,124.081C125.771,124.422 123.627,123.793 123.627,123.352C123.627,123.136 124.415,122.176 125.378,121.217C127.103,119.5 127.119,119.468 126.422,119.151C125.816,118.876 125.56,118.966 124.64,119.777C122.683,121.504 121.546,122.385 121.276,122.385C120.812,122.385 122.65,123.767 124.384,124.721C126.081,125.656 128.417,126.488 130.588,126.932C132.211,127.263 140.079,127.061 141.03,126.663L141.03,126.664ZM131.529,125.531C131.283,124.892 133.006,123.167 133.646,123.412C133.906,123.511 134.388,123.592 134.717,123.592C135.061,123.592 135.231,123.728 135.117,123.912C135.008,124.088 134.61,124.191 134.233,124.142C133.547,124.052 132.556,124.641 132.556,125.139C132.556,125.284 133.108,125.404 133.784,125.404C134.526,125.404 134.938,125.523 134.826,125.706C134.505,126.223 131.739,126.076 131.529,125.531ZM128.47,124.959C127.248,124.558 127.45,124.386 129.023,124.491C129.861,124.547 131.042,123.792 131.042,123.202C131.042,123.038 130.804,122.724 130.513,122.503C130.01,122.123 130.011,122.102 130.533,122.093C131.223,122.08 132.253,122.617 132.253,122.989C132.253,123.43 130.414,125.406 130.027,125.38C129.836,125.368 129.136,125.178 128.47,124.959ZM140.5,124.724C140.57,124.517 140.853,124.303 141.13,124.25C141.481,124.182 141.578,124.296 141.451,124.627C141.236,125.185 140.315,125.279 140.5,124.724ZM127.41,123.6C127.41,123 128.463,122.083 129.151,122.083C129.417,122.083 129.331,122.375 128.887,122.974C128.052,124.099 127.41,124.372 127.41,123.6ZM150.519,122.72C154.688,119.648 156.627,116.188 157.392,110.455C157.66,108.446 157.66,107.154 157.395,105.084C157.028,102.232 156.635,101.004 156.362,101.857C155.852,103.454 155.558,105.425 155.558,107.256C155.558,110.273 155.027,110.442 154.5,107.593C153.926,104.483 151.461,99.744 150.418,99.744C149.303,99.744 149.217,100.382 150.118,101.975C150.599,102.825 151.195,104.403 151.443,105.482C152.074,108.23 152.549,115.684 152.193,117.262C151.861,118.735 150.073,122.216 149.137,123.209C148.169,124.236 148.731,124.037 150.519,122.72ZM154.347,112.74C154.347,112.098 155.106,111.569 155.484,111.947C155.732,112.194 155.196,113.097 154.704,113.26C154.505,113.326 154.347,113.096 154.347,112.74ZM147.05,122.351C148.562,121.826 149.447,119.753 149.976,115.505C150.496,111.318 150.54,106.856 150.078,105.025C149.664,103.386 147.66,101.084 146.9,101.375C146.611,101.485 146.16,101.362 145.858,101.089C145.453,100.723 145.192,100.685 144.767,100.93C143.882,101.439 139.904,102.495 137.095,102.968C135.415,103.25 133.286,103.352 130.957,103.261C127.052,103.107 126.345,103.287 124.945,104.789C123.647,106.181 123.015,108.315 123.073,111.108C123.108,112.764 123.295,113.897 123.649,114.579C124.453,116.132 127.246,118.62 128.855,119.216C129.642,119.508 130.694,119.984 131.194,120.273C132.612,121.096 136.011,122.078 138.4,122.356C141.651,122.733 145.958,122.731 147.05,122.352L147.05,122.351ZM121.414,120.843C122.721,119.621 124.099,118.765 124.762,118.763C125.412,118.762 125.445,118.36 124.838,117.857C124.405,117.499 123.956,117.663 123.173,118.465C123.09,118.55 122.318,119.146 121.459,119.79C120.513,120.498 119.958,121.122 120.053,121.371C120.264,121.919 120.265,121.919 121.414,120.843ZM120.155,119.157C120.566,118.876 120.971,118.566 121.054,118.468C121.138,118.37 121.811,117.853 122.552,117.319C123.292,116.784 123.744,116.347 123.557,116.347C123.37,116.347 123.036,116.522 122.816,116.736C122.337,117.201 118.905,119.145 118.803,119.009C118.105,118.079 116.513,111.984 116.518,110.259C116.522,108.771 117.956,103.772 118.92,101.888C119.67,100.421 119.543,100.046 118.296,100.046C117.511,100.046 117.307,100.23 116.784,101.408C115.933,103.328 115.211,107.712 115.417,109.706C115.857,113.96 118.038,119.628 119.247,119.663C119.335,119.665 119.743,119.438 120.155,119.157ZM121.811,114.383C121.811,113.451 121.685,113.162 121.241,113.076C120.759,112.984 120.703,113.093 120.878,113.787C121.022,114.361 120.929,114.778 120.568,115.175C119.88,115.933 119.583,115.892 119.239,114.989C119.08,114.574 118.811,114.234 118.641,114.234C118.149,114.234 118.281,115.953 118.813,116.484C119.255,116.924 119.402,116.906 120.553,116.273C121.701,115.642 121.811,115.476 121.811,114.383ZM118.936,111.97C118.936,111.115 119.051,110.913 119.541,110.913C119.877,110.913 120.147,111.115 120.147,111.366C120.147,111.615 120.351,111.819 120.601,111.819C120.901,111.819 121.054,111.519 121.054,110.931C121.054,109.823 120.828,109.683 119.411,109.912C118.119,110.121 117.53,111 117.844,112.25C118.145,113.445 118.936,113.242 118.936,111.97ZM120.542,108.362C121.11,107.796 121.49,105.793 121.103,105.407C120.909,105.214 120.662,105.62 120.39,106.578C119.93,108.203 119.012,108.688 119.185,107.215C119.325,106.019 118.438,106.118 118.171,107.329C118.027,107.98 118.09,108.352 118.374,108.532C119.005,108.93 120.055,108.849 120.542,108.362ZM120.312,103.925C120.416,103.599 120.839,103.204 121.251,103.047C122.28,102.657 122.331,102.679 121.973,103.347C121.387,104.439 121.853,104.697 122.512,103.645C123.031,102.817 122.507,102.159 121.331,102.159C120.68,102.159 120.288,102.427 119.717,103.266C119.302,103.875 119.029,104.48 119.11,104.611C119.35,104.999 120.108,104.566 120.312,103.925ZM137.636,101.961C140.572,101.488 144.979,100.057 147.642,98.711C149.003,98.023 149.202,97.806 149.202,97.007C149.202,95.942 149.839,94.612 151.094,93.053C151.818,92.155 151.947,91.773 151.781,91.019C151.549,89.968 151.018,89.463 151.017,90.293C151.016,90.593 150.729,91.314 150.38,91.895C148.51,95.004 143.72,97.484 138.079,98.266C136.789,98.445 134.698,98.782 133.433,99.017C130.578,99.545 129.706,99.542 126.609,98.996C121.146,98.032 119.48,97.42 117.605,95.689C116.956,95.09 116.35,94.675 116.259,94.767C115.99,95.035 116.809,97.725 117.336,98.306C117.602,98.599 118.002,98.838 118.226,98.838C118.45,98.838 118.633,98.957 118.633,99.103C118.633,99.249 119.348,99.663 120.222,100.025C121.096,100.386 122.084,100.805 122.416,100.955C124.31,101.81 130.908,102.778 133.312,102.554C134.145,102.476 136.09,102.209 137.636,101.961ZM130.156,97.07L130.85,96.51L130.059,95.992C129.437,95.586 129.133,95.546 128.641,95.809C127.877,96.217 127.833,96.891 128.545,97.305C129.268,97.725 129.362,97.711 130.156,97.07ZM123.3,96.844C124.029,96.565 123.872,95.547 123.041,95.17C121.678,94.55 120.377,95.786 121.517,96.618C122.133,97.067 122.572,97.123 123.3,96.844ZM141.152,95.938C141.366,95.381 140.774,95.145 139.47,95.27C138.7,95.344 138.435,95.523 138.364,96.02C138.302,96.454 138.455,96.714 138.818,96.793C139.591,96.962 140.95,96.464 141.152,95.938ZM139.214,96.121C139.214,95.955 139.426,95.82 139.686,95.82C139.945,95.82 140.074,95.955 139.971,96.121C139.868,96.288 139.656,96.423 139.499,96.423C139.342,96.423 139.214,96.288 139.214,96.121ZM119.726,94.18C119.818,93.942 119.586,93.334 119.211,92.828C118.686,92.12 118.436,91.985 118.127,92.24C117.645,92.64 117.615,93.239 118.039,94.028C118.404,94.71 119.485,94.807 119.726,94.18ZM118.633,93.689C118.633,93.513 118.769,93.453 118.936,93.556C119.102,93.658 119.239,93.802 119.239,93.875C119.239,93.948 119.102,94.008 118.936,94.008C118.769,94.008 118.633,93.864 118.633,93.689ZM146.713,93.84C147.631,93.199 147.609,92.197 146.676,92.197C145.811,92.197 144.825,93.209 145.07,93.846C145.297,94.438 145.861,94.436 146.713,93.84ZM142.543,89.827C142.543,89.011 140.965,87.496 139.621,87.023C137.222,86.177 128.9,86.863 127.5,88.022C127.276,88.207 127.02,88.286 126.932,88.198C126.843,88.109 127.221,87.723 127.771,87.339C128.322,86.955 128.84,86.56 128.924,86.461C129.007,86.362 129.552,85.955 130.134,85.556C130.717,85.157 131.262,84.744 131.345,84.639C131.428,84.533 132.382,83.87 133.464,83.164C135.43,81.881 135.432,81.88 137.701,82.043C138.949,82.132 140.481,82.37 141.106,82.572C142.091,82.892 142.241,83.063 142.243,83.871C142.244,84.382 142.516,85.93 142.848,87.311C143.571,90.318 143.574,90.386 142.997,90.386C142.748,90.386 142.543,90.134 142.543,89.827ZM144.045,89.103C144.038,88.563 143.859,87.134 143.646,85.926C143.385,84.44 143.364,83.766 143.581,83.838C143.757,83.896 144.063,85.078 144.26,86.463C144.457,87.848 144.684,89.23 144.763,89.533C144.853,89.873 144.745,90.084 144.482,90.084C144.206,90.084 144.052,89.739 144.045,89.103ZM145.866,89.858C145.862,89.733 145.68,88.442 145.461,86.99C145.242,85.537 145.169,84.348 145.298,84.348C145.427,84.348 145.62,84.994 145.726,85.782C145.832,86.571 146.026,87.861 146.157,88.65C146.288,89.439 146.278,90.084 146.134,90.084C145.99,90.084 145.87,89.982 145.866,89.858Z" style="fill-rule:nonzero;"/>
        </g>
    </g>
</svg>
