<?xml version="1.0" encoding="UTF-8" standalone="no"?>
<!DOCTYPE svg PUBLIC "-//W3C//DTD SVG 1.1//EN" "http://www.w3.org/Graphics/SVG/1.1/DTD/svg11.dtd">
<svg width="100%" height="100%" viewBox="0 0 271 280" version="1.1" xmlns="http://www.w3.org/2000/svg" xmlns:xlink="http://www.w3.org/1999/xlink" xml:space="preserve" xmlns:serif="http://www.serif.com/" style="fill-rule:evenodd;clip-rule:evenodd;stroke-linejoin:round;stroke-miterlimit:2;">
    <g id="g1" transform="matrix(3.64164,0,0,3.64164,-371.114,-367.261)">
        <path id="path4" d="M168.019,176.101C167.71,176.026 167.234,175.892 166.96,175.805C166.685,175.718 166.409,175.647 166.345,175.647C166.164,175.647 164.609,174.898 164.045,174.539C163.766,174.362 163.404,174.018 163.241,173.775C162.799,173.116 162.438,172.7 161.177,171.394C160.548,170.742 159.476,169.606 158.795,168.869C158.114,168.133 157.315,167.268 157.019,166.948C156.723,166.628 156.235,166.118 155.934,165.814C155.634,165.51 154.766,164.584 154.007,163.755C153.248,162.926 152.089,161.688 151.433,161.003C150.776,160.318 149.659,159.132 148.949,158.366C145.996,155.182 146.033,155.213 145.5,155.416C145.236,155.516 145.159,155.493 144.867,155.224C144.685,155.055 144.35,154.782 144.124,154.617C143.776,154.362 143.142,153.744 141.995,152.542C141.681,152.212 140.822,150.89 140.822,150.734C140.822,150.664 140.653,150.452 140.446,150.264C140.133,149.979 140.069,149.847 140.069,149.482C140.069,148.973 140.048,148.944 138.282,147.074C136.837,145.543 136.452,145.051 136.649,144.987C137.681,143.639 134.527,146.928 133.827,147.663C131.634,149.971 131.523,150.089 130.599,151.125C130.214,151.556 129.674,152.153 129.398,152.451C128.358,153.576 127.55,154.509 127.388,154.769C127.296,154.917 126.871,155.384 126.444,155.807C126.017,156.229 125.582,156.707 125.476,156.869C125.295,157.144 125.295,157.171 125.466,157.296C125.883,157.601 125.513,157.997 124.809,157.997C124.597,157.997 124.361,158.17 123.902,158.66C123.318,159.284 123.141,159.612 123.388,159.612C123.447,159.612 123.496,159.684 123.496,159.773C123.496,159.923 123.421,159.951 122.943,159.983C122.667,160.002 122.437,160.246 122.493,160.46C122.53,160.603 122.448,160.692 122.186,160.796C121.989,160.873 121.618,161.159 121.362,161.431C121.105,161.703 120.57,162.265 120.172,162.679C119.535,163.341 118.415,164.563 115.291,168.004C114.042,169.379 114.07,169.35 112.431,170.937C111.591,171.749 110.904,172.484 110.904,172.57C110.904,172.655 110.741,172.778 110.542,172.844C110.278,172.931 110.129,173.078 109.989,173.388C109.769,173.876 109.482,174.092 108.771,174.308C108.009,174.539 107.841,174.509 107.555,174.084C107.414,173.875 107.194,173.677 107.067,173.644C106.83,173.583 106.276,173.867 106.276,174.05C106.276,174.27 105.736,174.678 105.447,174.677C104.666,174.674 103.263,173.609 103.263,173.019C103.263,172.846 103.415,172.628 103.713,172.373C103.96,172.161 104.202,171.988 104.251,171.988C104.405,171.988 105.392,171.236 105.455,171.071C105.575,170.758 105.406,170.589 104.974,170.589C104.598,170.589 104.555,170.561 104.555,170.318C104.555,170.008 105.133,168.929 105.405,168.731C105.506,168.658 105.662,168.49 105.753,168.357C105.844,168.225 106.277,167.74 106.716,167.281C107.51,166.45 107.514,166.443 107.514,165.854C107.514,165.288 107.527,165.26 107.809,165.228C108.032,165.202 108.09,165.233 108.044,165.351C108.011,165.438 108.036,165.541 108.1,165.581C108.236,165.665 109.362,164.736 109.447,164.469C109.478,164.369 109.856,163.978 110.285,163.601C110.714,163.223 111.144,162.789 111.24,162.635C111.336,162.482 111.506,162.28 111.617,162.186C111.728,162.093 112.339,161.496 112.976,160.859C113.773,160.061 114.133,159.624 114.133,159.455C114.133,158.588 114.556,158.141 115.254,158.272L115.626,158.342L115.66,157.874C115.692,157.417 115.702,157.406 116.07,157.404C116.666,157.402 116.731,157.31 116.695,156.522C116.668,155.944 116.695,155.799 116.853,155.698C117.079,155.554 117.258,155.75 117.179,156.053C117.153,156.154 117.209,156.302 117.304,156.381C117.456,156.506 117.578,156.42 118.272,155.698C118.75,155.202 119.095,154.743 119.138,154.55C119.23,154.132 119.462,153.908 119.805,153.908C120.185,153.908 120.78,153.251 120.939,152.656C121.053,152.23 121.111,152.168 121.501,152.058C122.074,151.896 122.597,151.398 122.685,150.931C122.774,150.455 123.112,150.107 123.397,150.198C123.708,150.297 125.236,148.792 125.483,148.144C125.621,147.784 125.739,147.648 125.968,147.586C126.304,147.496 127.355,146.503 129.146,144.585C129.797,143.887 130.701,142.927 131.156,142.451C132.073,141.49 132.638,140.827 132.479,140.899C132.421,140.925 132.245,141.012 132.087,141.091C131.816,141.227 131.763,141.206 131.134,140.723C130.224,140.023 128.778,138.538 128.699,138.222C128.663,138.081 128.689,137.91 128.755,137.843C128.928,137.671 128.905,137.101 128.715,136.829C128.561,136.61 128.28,136.302 127.185,135.155C126.717,134.665 126.382,134.522 126.24,134.752C126.066,135.033 125.622,134.842 125.024,134.23C124.687,133.884 124.362,133.581 124.303,133.558C124.125,133.486 122.156,131.31 121.537,130.501C120.952,129.737 120.697,129.136 120.697,128.523C120.697,128.172 120.535,127.975 118.463,125.823C118.03,125.374 117.559,124.756 117.406,124.437C117.145,123.893 117.14,123.852 117.314,123.659C117.51,123.443 117.467,123.399 116.985,123.322C116.831,123.298 116.76,123.191 116.736,122.95C116.707,122.643 116.663,122.606 116.252,122.546C115.279,122.403 115.32,122.389 114.853,123.046C114.445,123.621 114.41,123.726 114.354,124.572C114.307,125.286 114.243,125.546 114.056,125.785C113.925,125.952 113.647,126.385 113.438,126.749C113.053,127.421 112.906,127.541 112.472,127.541C112.338,127.541 112.068,127.621 111.873,127.719C111.433,127.938 111.187,127.816 111.141,127.357C111.115,127.103 111.202,126.933 111.544,126.566C111.784,126.308 111.985,126.047 111.99,125.985C112.014,125.706 111.958,123.21 111.912,122.483L111.86,121.676L112.413,120.958C112.718,120.563 113.147,120.12 113.367,119.975C113.7,119.755 113.799,119.598 113.95,119.053C114.05,118.692 114.133,118.239 114.134,118.045C114.135,117.852 114.18,117.625 114.233,117.54C114.349,117.357 113.758,116.58 113.326,116.349C113.175,116.268 112.88,115.944 112.671,115.63C112.389,115.204 112.226,115.057 112.034,115.057C111.809,115.057 111.773,115.001 111.744,114.602C111.718,114.242 111.655,114.12 111.442,114.015C111.294,113.942 111.124,113.764 111.065,113.62C111.005,113.475 110.472,112.85 109.881,112.231C109.289,111.611 108.647,110.928 108.453,110.713C108.259,110.498 108.066,110.322 108.023,110.322C107.98,110.323 107.615,110.438 107.211,110.58C106.596,110.795 106.426,110.817 106.153,110.714C105.884,110.612 105.807,110.62 105.703,110.762C105.633,110.855 105.448,110.964 105.29,111.003C105.055,111.062 104.897,110.988 104.41,110.591C103.414,109.78 103.338,109.618 103.299,108.215L103.265,107.002L103.805,106.433C104.112,106.109 104.32,105.8 104.288,105.715C104.127,105.296 104.121,105.043 104.267,104.761C104.465,104.379 105.371,103.518 105.82,103.286C106.117,103.133 106.199,103.132 106.604,103.275C107.219,103.491 107.217,103.492 107.947,103.007C108.301,102.772 108.644,102.578 108.71,102.576C108.775,102.574 109.008,102.694 109.226,102.842C109.444,102.99 109.72,103.111 109.84,103.111C110.164,103.111 110.481,103.306 110.931,103.78C111.331,104.203 111.474,104.735 111.227,104.887C111.154,104.932 111.154,105.021 111.227,105.156C111.393,105.466 111.356,105.877 111.119,106.34C111.001,106.572 110.904,106.951 110.904,107.182C110.904,107.447 110.82,107.709 110.676,107.892C110.418,108.221 110.464,108.319 110.881,108.326C111.132,108.33 111.175,108.378 111.184,108.663C111.197,109.065 111.614,109.661 111.94,109.743C112.07,109.776 112.236,109.945 112.308,110.118C112.379,110.291 112.695,110.668 113.009,110.955C113.323,111.242 113.671,111.627 113.783,111.81C113.894,111.993 114.112,112.243 114.266,112.364C114.421,112.486 114.652,112.754 114.779,112.96C114.908,113.168 115.099,113.335 115.209,113.335C115.611,113.335 115.747,113.46 115.747,113.831C115.747,114.032 115.794,114.196 115.851,114.196C115.908,114.196 116.126,114.346 116.334,114.53C116.698,114.849 116.743,114.86 117.363,114.788C117.879,114.728 118.068,114.749 118.286,114.892C118.554,115.068 118.572,115.063 119.152,114.607C120.539,113.519 120.681,113.434 121.308,113.316C121.653,113.252 122.54,113.193 123.28,113.186L124.626,113.174L125.276,112.717C125.763,112.374 126.028,112.259 126.333,112.259L126.74,112.259L126.665,112.878C126.58,113.574 126.473,113.831 126.136,114.143C125.661,114.583 125.543,114.639 124.557,114.89C124.003,115.031 123.33,115.27 123.063,115.421C122.198,115.906 121.74,116.564 122.266,116.564C122.439,116.564 122.849,117.17 122.849,117.426C122.85,117.516 123.098,117.7 123.415,117.845C123.826,118.032 124.244,118.383 124.948,119.135C125.481,119.703 126.06,120.313 126.234,120.491C127.688,121.976 128.338,122.744 128.338,122.978C128.338,123.43 128.522,123.258 128.811,122.535C130.221,119.015 131.908,116.076 134.705,112.271C134.862,112.058 135.215,111.519 135.49,111.075C135.764,110.631 136.154,110.05 136.356,109.784C136.558,109.518 136.864,109.095 137.037,108.844C137.299,108.465 138.541,107.094 140.137,105.423C140.81,104.719 145.439,102.251 146.086,102.251C146.443,102.251 146.961,102.696 147.752,103.681C148.142,104.167 148.619,104.714 148.812,104.896C150.979,106.946 151.63,107.522 152.229,107.925C153.306,108.648 153.669,108.904 153.844,109.066C153.933,109.148 154.224,109.37 154.49,109.56C155.101,109.997 156.49,111.263 157.789,112.568L158.793,113.577L159.09,113.388C159.253,113.284 159.488,113.108 159.611,112.996C159.814,112.813 159.911,112.804 160.613,112.903C161.379,113.012 161.808,112.935 161.808,112.69C161.808,112.635 162.196,112.341 162.67,112.037C163.144,111.733 163.567,111.425 163.612,111.353C163.656,111.281 163.895,111.104 164.143,110.96C164.392,110.816 164.816,110.553 165.086,110.376C166.823,109.234 167.342,108.923 167.509,108.923C167.788,108.923 168.231,108.536 168.309,108.224C168.356,108.038 168.537,107.875 168.886,107.706C169.166,107.571 169.734,107.263 170.149,107.023C170.563,106.783 171.067,106.555 171.269,106.516C171.471,106.478 171.704,106.349 171.787,106.231C171.87,106.113 172.08,105.942 172.254,105.852C172.54,105.705 172.57,105.705 172.57,105.86C172.57,106.103 172.395,106.403 171.796,107.185C171.508,107.561 171.175,108.059 171.056,108.292C170.812,108.771 169.559,110.326 169.079,110.745C168.533,111.223 165.935,113.908 165.593,114.348C165.574,114.373 165.638,114.516 165.737,114.667C165.91,114.931 165.906,114.951 165.641,115.217C165.489,115.368 165.22,115.521 165.042,115.557C164.498,115.666 164.445,115.823 164.446,117.315C164.448,118.841 164.428,118.787 165.407,119.965C165.706,120.325 166.363,121.191 166.866,121.888C167.369,122.585 167.858,123.234 167.951,123.33C168.045,123.427 168.431,123.917 168.81,124.421C169.189,124.924 169.621,125.46 169.77,125.612C169.919,125.765 170.307,126.193 170.633,126.564C170.958,126.935 171.301,127.319 171.395,127.417C171.488,127.515 171.841,127.946 172.18,128.376C172.518,128.805 172.836,129.156 172.888,129.156C172.939,129.156 173.182,129.521 173.427,129.968C173.715,130.493 173.994,130.852 174.217,130.984C174.756,131.303 174.843,131.413 174.801,131.721C174.76,132.027 174.474,132.763 174.293,133.03C174.233,133.119 174.076,133.409 173.945,133.676C173.524,134.534 172.327,136.519 172.049,136.823C171.9,136.985 171.454,137.311 171.058,137.546C170.324,137.982 169.664,138.62 169.664,138.894C169.664,138.978 169.491,139.129 169.278,139.23C169.066,139.331 168.836,139.507 168.767,139.621C168.698,139.735 168.182,140.174 167.62,140.595C167.057,141.017 166.573,141.391 166.543,141.428C166.514,141.464 166.094,141.692 165.611,141.935C165.127,142.177 164.449,142.599 164.104,142.872C160.978,145.342 156.807,147.533 153.014,148.696C152.632,148.814 152.386,148.942 152.44,148.996C152.492,149.047 152.597,149.051 152.673,149.004C153.055,148.768 153.424,148.849 153.804,149.254C154.186,149.66 154.863,150.643 155.38,151.54C155.533,151.807 156.008,152.388 156.436,152.832C157.74,154.187 158.911,155.431 159.871,156.478C160.374,157.027 160.955,157.655 161.162,157.874C161.37,158.092 162.023,158.801 162.615,159.451C163.207,160.1 163.841,160.777 164.023,160.956C164.206,161.134 164.93,161.91 165.633,162.679C166.336,163.449 167.292,164.46 167.757,164.926C168.222,165.393 168.729,165.974 168.883,166.218C169.036,166.461 169.396,166.967 169.682,167.34C169.968,167.714 170.202,168.08 170.202,168.155C170.202,168.23 170.322,168.404 170.468,168.541C170.615,168.679 170.788,168.953 170.853,169.15C170.918,169.347 171.133,169.841 171.331,170.248C171.528,170.654 171.797,171.321 171.927,171.73C172.439,173.332 172.112,175.525 171.314,175.843C170.464,176.183 168.86,176.308 168.018,176.101L168.019,176.101ZM171.144,175.364C171.359,175.307 171.386,175.23 171.386,174.699C171.386,173.982 171.206,172.93 170.998,172.442C170.916,172.247 170.848,171.994 170.848,171.879C170.848,171.678 170.108,170.073 169.757,169.513C169.665,169.365 169.458,169.026 169.299,168.759C169.14,168.493 168.867,168.081 168.692,167.845C168.517,167.608 168.172,167.051 167.925,166.607C167.308,165.499 167.384,165.588 163.863,161.881C160.712,158.564 160.124,157.943 159.314,157.083C156.904,154.52 156.797,154.419 156.502,154.419C156.343,154.419 156.141,154.479 156.053,154.552C155.914,154.667 155.937,154.746 156.226,155.148C156.741,155.865 156.546,155.919 155.856,155.25C155.285,154.697 155.204,154.653 154.888,154.725C154.699,154.768 154.132,154.796 153.629,154.788C153.126,154.78 152.012,154.852 151.154,154.949C150.296,155.046 149.472,155.118 149.324,155.11C148.745,155.077 148.356,155.202 148.356,155.419C148.356,155.535 148.401,155.63 148.456,155.63C148.511,155.63 149.492,156.633 150.635,157.859C151.779,159.085 152.969,160.343 153.279,160.655C153.59,160.966 153.844,161.25 153.844,161.285C153.844,161.32 154.002,161.504 154.194,161.695C154.629,162.127 155.426,162.975 157.342,165.047C159.603,167.491 159.836,167.74 161.046,168.995C161.663,169.635 162.2,170.159 162.24,170.159C162.345,170.159 162.562,169.38 162.559,169.016C162.555,168.504 162.05,166.893 161.848,166.745C161.744,166.669 161.584,166.607 161.492,166.607C161.264,166.607 159.627,166.065 159.5,165.948C159.444,165.896 159.244,165.854 159.056,165.854C158.868,165.854 158.666,165.793 158.608,165.719C158.494,165.575 158.388,165.036 158.31,164.209C158.283,163.926 158.183,163.427 158.088,163.1C157.946,162.611 157.855,162.478 157.575,162.355C157.056,162.127 154.81,161.266 154.371,161.127C153.72,160.921 153.346,159.84 153.89,159.736C154.004,159.714 154.182,159.592 154.285,159.466L154.472,159.235L155.022,159.751L155.553,159.385C156.238,158.915 156.355,158.731 156.194,158.377C156.1,158.171 156.101,158.038 156.198,157.825C156.312,157.573 156.367,157.551 156.726,157.614C156.947,157.652 157.301,157.681 157.513,157.678C157.94,157.672 158.198,157.884 158.311,158.334C158.367,158.558 158.308,158.7 158.03,159.016C157.683,159.412 157.681,159.421 157.82,159.917C157.897,160.193 158.043,160.722 158.143,161.093C158.243,161.464 158.37,161.81 158.425,161.863C158.481,161.915 159.05,162.132 159.691,162.345C160.916,162.752 161.183,162.747 161.321,162.312C161.467,161.853 161.909,162.004 162.535,162.726C162.714,162.933 162.705,163.486 162.518,163.873C162.351,164.216 162.423,164.829 162.762,165.958C162.93,166.518 162.963,166.555 163.423,166.688C163.689,166.766 164.282,166.881 164.74,166.944C165.511,167.05 165.608,167.041 166.068,166.818L166.563,166.579L166.785,166.8C166.983,166.999 166.992,167.057 166.869,167.354C166.717,167.722 166.398,167.852 165.897,167.749C165.72,167.713 165.43,167.654 165.252,167.617C165.007,167.567 164.929,167.59 164.929,167.714C164.929,167.804 164.754,168.136 164.539,168.453C164.324,168.769 164.102,169.192 164.046,169.392C163.894,169.928 163.508,170.266 163.048,170.266C162.809,170.266 162.64,170.326 162.602,170.424C162.531,170.61 162.947,171.235 163.143,171.235C163.218,171.235 164.074,171.504 165.046,171.833C166.018,172.162 167.055,172.507 167.351,172.6C167.988,172.799 168.158,172.919 168.158,173.167C168.158,173.323 168.06,173.348 167.522,173.328C167.173,173.315 166.835,173.273 166.773,173.234C166.71,173.196 166.294,173.138 165.848,173.106C165.158,173.056 165.027,173.074 164.968,173.225C164.931,173.324 164.967,173.47 165.049,173.551C165.239,173.738 167.605,174.385 167.81,174.306C168.03,174.221 170.323,174.987 170.577,175.229C170.813,175.455 170.808,175.454 171.144,175.364ZM168.965,173.218C168.431,172.941 168.403,172.848 168.864,172.877L169.288,172.903L169.287,172.311C169.287,171.985 169.245,171.598 169.194,171.45C169.117,171.226 169.126,171.204 169.248,171.32C169.456,171.518 169.687,173.199 169.521,173.304C169.351,173.412 169.334,173.41 168.965,173.218ZM153.27,159.54C153.231,159.501 153.199,159.398 153.199,159.312C153.199,159.185 153.229,159.18 153.36,159.289C153.449,159.363 153.522,159.465 153.522,159.517C153.522,159.629 153.373,159.642 153.27,159.54ZM105.432,173.262C105.848,172.817 105.958,172.599 105.853,172.429C105.76,172.28 105.353,172.442 104.743,172.871C104.402,173.111 104.382,173.199 104.616,173.433C104.868,173.685 105.078,173.641 105.432,173.262ZM108.758,173.184C109.307,172.827 109.936,172.26 109.936,172.12C109.936,172.068 109.812,171.909 109.66,171.767C109.444,171.564 109.257,171.505 108.797,171.493C108.406,171.483 108.139,171.416 108.003,171.292C107.78,171.091 107.568,171.148 107.568,171.409C107.568,171.499 107.464,171.813 107.337,172.108L107.107,172.644L107.418,172.973C107.686,173.256 108.009,173.464 108.219,173.488C108.252,173.492 108.494,173.355 108.758,173.184ZM111.473,170.726C112.771,169.516 112.796,169.424 111.901,169.142C111.561,169.035 111.025,168.802 110.709,168.623C109.761,168.088 109.691,168.389 110.219,170.724C110.33,171.213 110.434,171.45 110.54,171.45C110.627,171.45 111.047,171.124 111.473,170.726ZM109.353,170.176C109.324,170.078 109.246,169.489 109.179,168.867C109.055,167.7 108.925,167.413 108.384,167.122C108.116,166.977 107.891,167.262 107.891,167.744C107.891,168.235 108.713,170.087 109.045,170.343C109.255,170.506 109.424,170.415 109.353,170.176ZM113.947,168.171C114.345,167.789 114.671,167.432 114.671,167.379C114.671,167.325 114.378,167.175 114.02,167.044C113.087,166.704 111.135,165.782 110.669,165.462C110.169,165.117 109.98,165.175 109.412,165.849C109.002,166.336 108.844,166.715 109.053,166.715C109.196,166.715 109.397,166.467 109.398,166.29C109.399,166.087 109.866,165.852 110.047,165.964C110.148,166.026 110.147,166.162 110.04,166.581C109.964,166.876 109.931,167.194 109.967,167.286C110.033,167.459 111.302,168.322 111.496,168.327C111.556,168.328 111.895,168.45 112.25,168.596C112.605,168.742 112.969,168.863 113.06,168.865C113.15,168.866 113.549,168.554 113.947,168.171ZM163.909,168.256C164.566,167.57 164.552,167.327 163.845,167.164C163.544,167.094 163.235,167.037 163.157,167.037C162.943,167.037 162.871,167.338 162.98,167.775C163.034,167.991 163.108,168.301 163.145,168.463C163.181,168.626 163.26,168.759 163.319,168.759C163.378,168.759 163.643,168.533 163.909,168.256ZM115.723,166.224C116.078,165.975 116.018,165.799 115.466,165.476C114.526,164.925 113.778,164.001 113.44,162.975C113.209,162.271 112.986,162.24 112.397,162.829C112.091,163.135 111.998,163.301 112.052,163.448C112.205,163.857 112.65,164.438 113.082,164.79C113.743,165.329 115.246,166.375 115.373,166.384C115.434,166.388 115.592,166.316 115.723,166.224ZM114.074,166.198C114.017,166.151 113.627,165.855 113.205,165.542C112.784,165.229 112.258,164.735 112.037,164.444C111.815,164.153 111.547,163.917 111.438,163.917C111.212,163.917 110.797,164.4 110.797,164.663C110.797,164.94 113.396,166.266 113.966,166.279C114.084,166.282 114.131,166.246 114.074,166.198ZM161.747,165.628C161.728,164.405 161.446,163.98 160.857,164.284C160.309,164.568 159.906,165.463 160.212,165.717C160.376,165.853 161.482,166.17 161.647,166.129C161.706,166.114 161.751,165.888 161.747,165.628ZM116.667,165.235C116.759,165.131 117.34,164.517 117.959,163.871C118.577,163.224 119.083,162.612 119.083,162.511C119.083,162.385 118.908,162.27 118.524,162.144C117.763,161.895 116.892,161.445 116.032,160.857C115.275,160.338 114.994,160.252 114.994,160.54C114.994,160.734 115.633,162.381 116.03,163.209C116.169,163.5 116.261,163.761 116.233,163.789C116.079,163.943 115.436,163.072 114.838,161.899C114.566,161.364 114.38,161.118 114.246,161.118C113.931,161.118 113.773,161.416 113.786,161.985C113.802,162.716 114.412,163.847 115.266,164.732C115.98,165.471 116.343,165.601 116.667,165.235ZM160.336,163.74C160.568,163.521 160.707,163.31 160.654,163.257C160.501,163.105 158.932,162.728 158.745,162.8C158.639,162.841 158.595,162.943 158.63,163.068C158.662,163.18 158.716,163.371 158.751,163.494C158.824,163.752 159.396,164.131 159.71,164.13C159.828,164.13 160.11,163.955 160.336,163.74ZM119.55,161.907C119.633,161.824 119.315,161.441 119.162,161.441C118.962,161.441 117.945,160.645 117.132,159.852L116.312,159.051L116.029,159.236C115.358,159.676 115.951,160.309 118.061,161.406C119.115,161.955 119.405,162.052 119.55,161.907ZM157.541,161.27C157.518,160.844 157.15,159.646 156.994,159.489C156.896,159.391 156.763,159.434 156.419,159.675C156.173,159.848 155.796,160.089 155.581,160.211C154.972,160.557 155.064,160.761 155.997,161.135C157.502,161.737 157.566,161.742 157.541,161.27ZM120.482,161.118C120.601,161 120.697,160.843 120.696,160.769C120.696,160.695 120.321,160.44 119.864,160.204C119.308,159.916 118.736,159.49 118.136,158.917C117.395,158.211 117.208,158.081 117.058,158.176C116.7,158.401 116.803,158.639 117.599,159.423C118.586,160.397 118.904,160.663 119.514,161.031C120.101,161.385 120.206,161.394 120.482,161.118ZM121.605,159.981C121.698,159.888 121.774,159.753 121.774,159.682C121.774,159.61 121.454,159.238 121.063,158.855C120.55,158.353 120.236,157.924 119.939,157.316C119.397,156.211 119.336,156.141 119.045,156.293C118.684,156.482 117.899,157.379 117.899,157.603C117.899,157.974 118.644,158.791 119.507,159.367C120.68,160.15 121.264,160.321 121.605,159.981ZM154.382,159.935C154.382,159.875 154.334,159.827 154.275,159.827C154.216,159.827 154.167,159.875 154.167,159.935C154.167,159.994 154.216,160.042 154.275,160.042C154.334,160.042 154.382,159.994 154.382,159.935ZM122.995,158.423C123.455,157.924 123.627,157.567 123.407,157.567C123.359,157.567 123.115,157.392 122.865,157.179C122.317,156.709 121.664,155.765 121.395,155.054C121.287,154.767 121.136,154.509 121.061,154.48C120.837,154.394 120.167,154.98 120.07,155.347C119.84,156.21 120.816,158.107 121.82,158.751C122.305,159.061 122.443,159.023 122.995,158.423ZM124.86,156.321C125.234,155.932 125.54,155.567 125.54,155.509C125.54,155.452 125.39,155.322 125.206,155.221C124.406,154.782 123.731,154.112 123.34,153.366C123.123,152.954 122.922,152.617 122.893,152.617C122.863,152.617 122.7,152.688 122.53,152.776C122.133,152.982 121.774,153.488 121.774,153.841C121.774,154.222 122.231,155.405 122.585,155.94C122.883,156.389 123.724,157.029 124.018,157.029C124.107,157.029 124.486,156.711 124.86,156.321ZM126.528,154.393C126.928,154.057 127.8,152.992 127.8,152.841C127.8,152.729 127.655,152.683 126.939,152.569C126.401,152.483 125.362,151.712 125.104,151.207C124.814,150.637 124.512,150.645 124.057,151.237C123.619,151.807 123.599,152.349 123.985,153.125C124.252,153.66 124.699,154.094 125.372,154.468C125.834,154.726 126.157,154.705 126.528,154.393ZM149.97,154.178C150.942,154.02 151.239,153.97 152.876,153.689C153.799,153.53 154.491,153.184 154.734,152.76L154.93,152.42L154.102,151.523C153.647,151.029 152.964,150.303 152.585,149.908C151.96,149.259 151.913,149.179 152.089,149.069C152.27,148.956 152.269,148.951 152.069,148.998C151.95,149.025 151.394,149.153 150.833,149.281C150.271,149.409 149.642,149.587 149.434,149.677C149.225,149.766 148.934,149.876 148.786,149.92C148.431,150.026 146.593,149.831 146.313,149.658C146.168,149.569 146.173,149.246 146.321,149.098C146.385,149.033 146.417,148.89 146.391,148.781C146.353,148.623 146.307,148.661 146.175,148.957C145.879,149.619 145.604,149.781 144.535,149.921C143.21,150.094 142.974,150.195 142.974,150.59C142.974,150.834 143.152,151.095 143.754,151.734C144.182,152.19 144.646,152.604 144.785,152.655C144.938,152.712 145.358,152.693 145.862,152.607C146.316,152.53 147.026,152.464 147.441,152.461C148.127,152.456 148.197,152.475 148.226,152.682C148.25,152.847 148.177,152.938 147.957,153.018C147.642,153.133 146.861,153.31 146.18,153.421C145.52,153.528 145.546,153.803 146.257,154.257C146.542,154.438 146.719,154.456 147.763,154.404C148.415,154.372 149.407,154.27 149.97,154.178ZM149.664,152.454C149.731,152.11 151.046,151.859 151.046,152.19C151.046,152.342 150.714,152.481 150.148,152.566C149.684,152.635 149.63,152.623 149.664,152.454ZM129.822,150.76C131.158,149.28 131.66,148.742 133.538,146.78C135.504,144.726 142.874,137.312 143.195,137.065C143.766,136.627 144.942,135.216 145.257,134.59C145.437,134.235 145.82,133.624 146.109,133.232C146.397,132.84 146.634,132.433 146.634,132.328C146.634,132.224 147.021,131.767 147.495,131.314C147.968,130.861 148.356,130.43 148.356,130.356C148.356,130.229 147.355,129.697 147.112,129.695C147.049,129.694 146.742,129.476 146.43,129.209C146.118,128.943 145.813,128.725 145.752,128.725C145.692,128.725 145.345,129.03 144.981,129.402C141.935,132.52 138.856,135.706 137.917,136.708C137.295,137.371 136.563,138.135 136.29,138.404C136.017,138.674 135.194,139.576 134.46,140.408C133.037,142.024 132.885,142.2 132.061,143.2C131.769,143.555 131.296,144.067 131.011,144.338C130.726,144.609 130.436,144.996 130.366,145.199C130.296,145.402 130.041,145.829 129.8,146.148C129.558,146.467 129.266,146.854 129.149,147.009C129.033,147.163 128.597,147.691 128.181,148.183C127.764,148.674 127.286,149.261 127.117,149.487L126.811,149.898L127.203,150.8C127.634,151.791 127.888,152.078 128.336,152.078C128.579,152.078 128.848,151.84 129.822,150.76ZM127.693,149.977C127.693,149.946 128.044,149.564 128.473,149.128C128.902,148.693 129.495,148.04 129.791,147.678C130.086,147.316 130.369,147.02 130.418,147.02C130.533,147.02 130.09,147.755 129.798,148.051C129.676,148.175 129.237,148.669 128.823,149.151C128.408,149.632 127.985,150.028 127.881,150.03C127.778,150.032 127.693,150.008 127.693,149.977ZM130.601,146.966C130.597,146.736 131.031,146.177 131.873,145.327C132.356,144.84 132.751,144.485 132.751,144.538C132.751,144.733 130.605,147.157 130.601,146.966ZM141.409,135.819C141.323,135.681 141.848,135.105 142.146,135.01C142.534,134.887 142.562,135.208 142.196,135.585C141.853,135.939 141.541,136.032 141.409,135.819ZM126.294,151.002C126.294,150.748 125.901,150.321 125.752,150.413C125.593,150.511 125.628,150.802 125.826,151.021C126.061,151.28 126.294,151.271 126.294,151.002ZM150.454,148.64C152.561,147.954 152.837,147.86 153.252,147.693C153.91,147.428 153.952,147.329 153.951,146.058C153.951,145.433 154.055,143.769 154.182,142.36C154.353,140.473 154.382,139.766 154.293,139.678C154.227,139.611 153.821,139.498 153.39,139.426C152.08,139.206 151.55,139.081 150.918,138.844C150.324,138.622 149.983,138.362 150.113,138.232C150.191,138.154 151.401,138.369 151.83,138.538C152.44,138.777 152.224,138.524 151.521,138.178C151.122,137.98 150.542,137.589 150.233,137.308C149.924,137.026 149.618,136.796 149.553,136.796C149.427,136.796 149.427,136.797 149.173,138.249C149.08,138.782 148.95,139.436 148.885,139.702C148.819,139.969 148.702,140.453 148.625,140.778C148.548,141.104 148.426,141.612 148.354,141.908C148.238,142.388 148.104,143.001 147.814,144.384C147.579,145.503 147.372,146.609 147.258,147.358C147.146,148.088 147.152,148.212 147.316,148.461C147.454,148.672 147.59,148.742 147.861,148.742C148.061,148.742 148.286,148.819 148.365,148.915C148.552,149.14 149.162,149.06 150.454,148.64ZM145.687,148.606C145.965,148.529 146.216,148.443 146.244,148.414C146.272,148.386 146.326,147.976 146.363,147.503C146.45,146.405 146.774,144.682 147.336,142.339C147.436,141.925 147.58,141.295 147.656,140.94C148.009,139.303 148.132,138.774 148.199,138.599C148.323,138.276 148.155,138.393 147.968,138.76C147.87,138.953 147.78,139.123 147.767,139.138C147.754,139.154 147.281,139.047 146.717,138.9C146.152,138.753 145.285,138.604 144.79,138.569C144.295,138.534 143.781,138.483 143.647,138.456C143.123,138.276 144.175,137.21 143.298,138.075C142.823,138.565 142.772,138.671 143.058,138.58C143.2,138.535 143.427,138.728 143.929,139.317C144.302,139.755 144.742,140.17 144.905,140.237C145.069,140.305 145.438,140.685 145.725,141.081C146.012,141.477 146.407,141.991 146.602,142.224C146.974,142.667 147.053,143.088 146.839,143.488C146.73,143.691 146.637,143.619 145.6,142.539C144.984,141.896 144.246,141.128 143.962,140.832C142.252,139.367 143,138.371 142.168,139.164C141.56,139.764 141.469,139.917 141.72,139.917C141.799,139.917 142.223,140.312 142.661,140.793C143.1,141.275 143.794,142.038 144.203,142.488C144.613,142.939 145.004,143.356 145.074,143.415C145.402,143.694 146.323,144.891 146.259,144.955C146.22,144.995 146.14,144.943 146.082,144.84C146.025,144.737 145.922,144.653 145.855,144.653C145.787,144.653 145.546,144.447 145.318,144.195C145.091,143.944 144.239,143.06 143.426,142.231C142.612,141.403 141.814,140.563 141.652,140.365L141.358,140.005L141.009,140.313C139.947,141.354 137.698,143.479 137.253,144.252C137.361,144.077 137.419,144.13 138.525,145.406C139.063,146.027 139.722,146.77 139.99,147.055L140.476,147.574L141.612,146.998L141.782,147.22C141.991,147.491 143.16,148.255 143.89,148.597C144.461,148.864 144.753,148.866 145.687,148.606ZM162.809,143.292C163.124,143.13 164.068,142.368 164.875,141.625C165.053,141.462 165.308,141.228 165.442,141.105C165.665,140.902 165.673,140.857 165.539,140.588C165.458,140.426 165.334,140.061 165.264,139.775C165.195,139.49 165.014,139.061 164.864,138.823C164.714,138.585 164.472,138.028 164.328,137.584C163.998,136.574 163.781,136.151 163.593,136.151C163.451,136.151 162.444,136.789 162.146,137.068C162.031,137.175 162.025,137.283 162.116,137.566C162.336,138.246 162.446,142.568 162.256,143.054C162.08,143.505 162.251,143.579 162.809,143.292ZM134.454,138.887L134.092,138.638C133.892,138.501 133.489,138.15 133.196,137.857C132.838,137.498 132.564,137.317 132.358,137.302C132.071,137.282 132.042,137.319 131.897,137.89C131.694,138.691 131.856,139.275 132.433,139.826C133.319,141.117 133.406,140.194 134.454,138.887ZM155.916,138.864C156.02,138.774 156.104,138.635 156.104,138.555C156.104,138.385 155.888,138.376 155.297,138.522C155.061,138.58 154.443,138.629 153.925,138.63C152.989,138.632 152.664,138.776 153.333,138.892C154.15,139.034 155.209,139.128 155.459,139.079C155.607,139.051 155.812,138.954 155.916,138.864ZM168.509,138.623C168.752,138.385 169.159,138.034 169.413,137.843C169.667,137.652 169.899,137.423 169.93,137.334C169.96,137.245 169.864,136.934 169.717,136.643C169.432,136.079 169.382,135.775 169.558,135.666C169.775,135.531 170.047,135.729 170.298,136.203C170.494,136.574 170.617,136.689 170.815,136.689C171.339,136.689 171.7,136.386 172.044,135.658C172.226,135.272 172.529,134.753 172.716,134.504C172.903,134.256 173.135,133.929 173.231,133.78C173.532,133.309 174.097,131.858 174.025,131.741C173.987,131.679 173.815,131.557 173.644,131.468C173.439,131.362 173.214,131.069 172.985,130.61C172.602,129.84 171.052,128.079 170.759,128.08C170.568,128.081 170.461,128.243 169.696,129.694C169.165,130.699 169.043,130.877 168.889,130.877C168.76,130.877 168.878,130.121 169.085,129.627C169.167,129.431 169.234,129.099 169.234,128.889C169.234,128.68 169.347,128.275 169.485,127.989C169.921,127.085 169.929,127.146 169.271,126.457C168.769,125.93 168.601,125.819 168.308,125.819C167.99,125.819 167.941,125.777 167.844,125.425C167.722,124.984 167.132,124.313 166.867,124.313C166.743,124.313 166.614,124.589 166.403,125.308C166.243,125.856 166.039,126.441 165.951,126.608C165.862,126.776 165.79,126.994 165.79,127.092C165.79,127.623 165.068,129.031 164.368,129.867C163.531,130.867 163.191,131.096 162.377,131.21C161.976,131.267 161.356,131.382 161.001,131.466C159.815,131.746 159.219,131.846 158.736,131.846C158.187,131.846 158.166,131.905 158.471,132.577C158.87,133.456 158.862,133.948 158.428,135.193C158.075,136.206 157.666,137.097 157.112,138.056C156.714,138.747 157.262,138.713 159.172,137.93C159.349,137.857 159.664,137.733 159.871,137.654C160.332,137.479 162.041,136.532 162.575,136.156C162.789,136.005 163.538,135.47 164.239,134.967C165.796,133.849 165.891,133.792 166.191,133.787C166.404,133.784 166.419,133.814 166.326,134.059C166.268,134.211 166.221,134.469 166.221,134.633C166.221,134.935 166.71,136.43 166.88,136.646C166.932,136.711 167.022,137.021 167.082,137.335C167.218,138.051 167.701,139.056 167.91,139.056C167.996,139.056 168.266,138.862 168.509,138.623ZM135.657,137.707C135.657,137.683 135.591,137.689 135.512,137.72C135.424,137.753 135.121,137.475 134.746,137.017C134.405,136.6 134.089,136.258 134.045,136.258C133.969,136.258 133.683,135.86 133.238,135.137C133.063,134.851 133.032,134.839 132.911,135.004C132.838,135.104 132.774,135.408 132.768,135.68C132.757,136.236 132.813,136.307 134.079,137.332C134.843,137.952 134.836,137.934 134.62,138.66C134.587,138.768 134.808,138.607 135.109,138.302C135.41,137.998 135.657,137.73 135.657,137.707ZM148.407,137.469C148.591,136.619 148.738,136.08 148.91,135.63L149.006,135.378L149.39,135.605C149.768,135.828 149.775,135.829 149.829,135.621C149.873,135.452 149.97,135.413 150.304,135.426C150.892,135.45 151.127,135.205 150.943,134.761C150.868,134.58 150.837,134.312 150.874,134.164C150.932,133.933 151.822,132.809 152.006,132.735C152.141,132.68 152.553,133.476 152.553,133.793C152.553,134.231 151.892,135.481 151.418,135.941C151.017,136.329 151.031,136.328 149.943,135.972C149.591,135.857 149.75,136.168 150.376,136.815C150.974,137.434 151.022,137.46 151.704,137.545C152.093,137.593 152.643,137.735 152.926,137.86C153.915,138.298 155.777,138.083 156.335,137.467C156.613,137.159 157.213,136.192 157.592,135.44C157.787,135.054 157.806,134.874 157.75,134.008L157.686,133.018L157.209,132.513C156.946,132.235 156.61,131.751 156.462,131.438C156.067,130.604 153.752,128.187 153.348,128.187C153.174,128.187 152.727,128.647 152.381,129.182C152.237,129.404 152.069,129.586 152.006,129.586C151.855,129.586 145.069,136.343 145.144,136.418C145.176,136.45 145.382,136.306 145.603,136.098C145.823,135.89 146.044,135.72 146.094,135.72C146.144,135.72 146.203,135.666 146.225,135.601C146.25,135.527 146.731,135.459 147.472,135.424C148.76,135.363 148.757,135.362 148.613,135.899C148.56,136.1 148.447,136.141 147.781,136.203C147.076,136.27 145.5,136.594 145.058,136.764L145.884,137.556C146.868,137.826 148.115,138.22 148.21,138.291C148.219,138.298 148.308,137.928 148.407,137.469ZM149.432,135.505C149.301,135.421 149.317,135.4 149.513,135.399C149.646,135.398 149.755,135.446 149.755,135.505C149.755,135.64 149.641,135.64 149.432,135.505ZM151.525,132.398C151.129,132.157 150.401,131.477 150.401,131.348C150.401,131.295 150.506,131.186 150.635,131.106C150.849,130.972 150.895,130.99 151.176,131.322C151.501,131.706 151.949,132.486 151.883,132.552C151.861,132.574 151.7,132.504 151.525,132.398ZM136.518,136.785C136.518,136.646 137.486,135.87 137.486,135.635C137.486,135.544 137.518,135.501 137.557,135.539C137.595,135.578 137.773,135.457 137.951,135.27C138.258,134.949 138.264,134.927 138.062,134.852C137.944,134.808 137.765,134.647 137.665,134.493C137.564,134.339 137.412,134.214 137.327,134.214C137.243,134.214 137.094,134.046 136.997,133.842C136.732,133.283 136.558,133.175 136.3,133.408C136.017,133.664 136.031,133.783 136.344,133.783C136.756,133.783 137.062,134.109 137.131,134.619C137.189,135.058 137.17,135.098 136.657,135.587C136.363,135.867 136.006,136.178 135.863,136.276C135.647,136.425 135.624,136.489 135.725,136.653C135.793,136.761 135.926,136.843 136.021,136.835L136.518,136.785ZM130.66,135.342C131.315,134.705 131.216,134.56 130.142,134.578C129.191,134.593 129.107,134.744 129.69,135.39C129.907,135.631 130.102,135.828 130.123,135.828C130.143,135.828 130.385,135.609 130.66,135.342ZM136.21,135.189C136.417,135.019 136.442,134.944 136.344,134.785C136.173,134.505 135.95,134.545 135.787,134.887C135.549,135.382 135.776,135.545 136.21,135.189ZM134.895,135.042C134.947,134.905 135.122,134.637 135.283,134.445C135.444,134.254 135.548,134.069 135.515,134.036C135.439,133.96 134.36,134.217 134.177,134.355C133.977,134.504 134.014,134.831 134.258,135.074C134.542,135.359 134.779,135.347 134.895,135.041L134.895,135.042ZM140.731,131.995C140.542,132.135 140.097,132.355 139.744,132.484C139.39,132.613 139.1,132.749 139.1,132.787C139.1,132.825 139.231,132.992 139.39,133.158L140.731,131.995ZM132.945,133.466C133.178,133.403 133.486,133.259 133.63,133.147C133.773,133.034 134.191,132.765 134.558,132.55C135.476,132.012 135.458,131.74 134.437,130.689C133.921,130.158 133.904,130.123 134.154,130.111C134.3,130.104 134.459,130.105 134.508,130.114C134.557,130.122 134.57,130.087 134.539,130.036C134.455,129.9 130.956,129.802 130.383,129.92C128.306,130.346 127.266,130.351 127.104,129.934C126.902,129.414 126.923,128.323 127.153,127.38C127.282,126.847 127.426,126.363 127.472,126.304C127.518,126.245 127.639,125.906 127.741,125.551C127.844,125.195 128.02,124.646 128.133,124.33C128.378,123.644 128.382,123.604 128.189,123.765C128.069,123.864 127.922,123.76 127.452,123.24C127.129,122.883 126.821,122.59 126.768,122.589C126.714,122.588 126.311,122.245 125.872,121.829L125.074,121.072L124.857,121.29C124.672,121.474 124.655,121.567 124.74,121.906C124.82,122.223 124.917,122.333 125.218,122.445C125.58,122.581 125.57,122.584 124.949,122.522C124.593,122.487 124.257,122.416 124.201,122.363C124.004,122.18 123.743,122.271 123.352,122.663C122.918,123.097 122.9,123.148 123.082,123.439C123.151,123.549 123.174,123.724 123.134,123.828C123.075,123.983 122.982,124.004 122.626,123.947C122.036,123.853 121.965,123.926 122.162,124.419C122.328,124.832 122.325,124.846 122.025,125.222C121.857,125.432 121.687,125.604 121.647,125.604C121.515,125.604 121.236,125.27 121.236,125.112C121.236,125.028 121.139,124.959 121.02,124.959C120.715,124.959 120.72,125.55 121.026,125.738C121.282,125.894 122.63,127.646 123.012,128.317C123.24,128.719 123.338,128.788 123.84,128.905C124.154,128.978 124.497,129.012 124.604,128.98C124.71,128.949 124.914,128.999 125.057,129.093C125.226,129.204 125.559,129.263 126.009,129.263C126.723,129.263 126.832,129.333 126.832,129.79C126.832,129.892 126.929,130.081 127.049,130.209L127.266,130.442L126.992,130.511C126.529,130.627 124.335,130.363 123.753,130.121C123.375,129.963 123.065,130.037 123.065,130.285C123.065,130.477 124.489,131.869 125.123,132.297C125.359,132.456 125.661,132.747 125.793,132.943C126.016,133.274 126.078,133.3 126.658,133.315C127.002,133.324 127.484,133.383 127.73,133.447C128.397,133.62 128.553,133.629 130.618,133.604C131.664,133.591 132.711,133.529 132.944,133.467L132.945,133.466ZM126.677,123.806C126.619,123.653 126.631,123.64 126.738,123.746C126.811,123.819 126.844,123.906 126.811,123.939C126.778,123.972 126.718,123.912 126.677,123.806ZM126.032,123.175C125.837,122.98 125.821,122.913 125.967,122.913C126.024,122.913 126.123,123.01 126.186,123.129C126.324,123.387 126.263,123.406 126.032,123.175ZM138.746,132.121C139.035,131.976 139.511,131.8 139.805,131.731C140.098,131.661 140.449,131.562 140.585,131.51C140.721,131.458 140.95,131.415 141.093,131.415C141.292,131.415 141.337,131.458 141.285,131.595C141.159,131.924 141.473,131.631 143.832,129.225C145.107,127.924 146.712,126.295 147.4,125.605C148.088,124.915 148.706,124.248 148.773,124.122C148.879,123.923 148.829,123.815 148.372,123.269C147.544,122.278 146.193,121.046 145.661,120.796C145.393,120.67 144.917,120.336 144.603,120.054C144.056,119.562 144.018,119.546 143.684,119.667C143.295,119.808 142.659,119.831 142.483,119.71C142.419,119.667 142.336,119.546 142.298,119.443C142.203,119.187 141.971,119.206 141.493,119.508C141.272,119.647 140.987,119.794 140.859,119.835C140.493,119.951 140.338,120.19 140.501,120.387C140.616,120.524 140.562,120.613 140.165,120.952C139.176,121.792 138.658,122.441 138.219,123.39L137.782,124.333L137.964,125.534C138.063,126.194 138.192,126.913 138.249,127.133C138.376,127.619 138.783,128.119 139.334,128.467C139.877,128.81 139.902,129.155 139.383,129.155C139.183,129.155 138.959,129.228 138.886,129.316C138.813,129.404 138.563,129.528 138.33,129.59C137.766,129.742 136.151,129.932 135.553,129.917C135.197,129.908 135.103,129.937 135.193,130.026C135.259,130.093 135.545,130.154 135.827,130.162L136.34,130.178L136.714,130.917C137.128,131.734 137.706,132.384 138.019,132.384C138.131,132.384 138.458,132.265 138.746,132.121ZM151.158,129.075C151.924,128.395 153.289,127.02 154.813,125.393C155.612,124.54 156.46,123.642 156.696,123.397C156.933,123.151 157.829,122.207 158.687,121.299C159.546,120.39 160.625,119.283 161.087,118.838C162.075,117.884 162.104,117.717 161.353,117.312C160.855,117.043 160.215,116.442 159.635,115.698L159.345,115.326L159.097,115.611C158.96,115.767 158.765,115.938 158.663,115.99C158.455,116.097 156.478,117.912 155.229,119.144C150.78,123.53 148.553,125.801 148.415,126.092C148.09,126.776 148.61,128.264 149.391,128.886C150.297,129.609 150.529,129.634 151.158,129.075ZM152.194,125.532C151.988,125.326 152.226,124.987 153.268,123.999C153.899,123.402 154.47,122.913 154.538,122.913C154.702,122.913 154.921,123.137 154.921,123.304C154.921,123.377 154.428,123.924 153.826,124.52C152.801,125.534 152.428,125.766 152.194,125.532ZM155.746,121.55C155.609,121.414 155.675,121.299 155.889,121.299C156.009,121.299 156.104,121.371 156.104,121.461C156.104,121.624 155.877,121.681 155.746,121.55ZM136.565,129.145C136.627,129.087 136.573,128.827 136.425,128.469C135.793,126.944 135.937,122.856 136.68,121.218C136.941,120.644 137.092,120.526 137.202,120.813C137.27,120.991 137.491,120.933 137.92,120.623C138.066,120.518 138.519,120.191 138.927,119.896C139.335,119.602 139.843,119.315 140.057,119.258C142.958,118.484 143.584,118.406 144.411,118.718C144.849,118.883 145.074,118.92 145.152,118.842C145.214,118.78 145.426,118.109 145.622,117.35C146.167,115.245 146.255,114.955 146.594,114.142C146.957,113.273 147.136,113.153 148.679,112.738C149.182,112.603 149.811,112.412 150.078,112.314C151.652,111.732 152.674,111.413 153.172,111.346C153.482,111.304 153.766,111.223 153.801,111.166C153.837,111.108 153.558,110.737 153.183,110.34C152.807,109.944 152.397,109.475 152.272,109.298C152.051,108.985 152.017,108.975 150.927,108.915C149.353,108.828 148.372,109.049 146.536,109.903C144.552,110.826 142.841,112.037 141.63,113.375C141.274,113.768 140.947,114.089 140.901,114.089C140.671,114.089 141.33,113.183 142.077,112.471C143.73,110.897 144.753,110.245 147.226,109.193C147.817,108.942 149.051,108.6 149.368,108.6C149.735,108.6 149.97,108.494 149.97,108.328C149.97,108.25 150.09,108.043 150.237,107.869L150.504,107.552L150.123,107.16C149.914,106.945 149.54,106.667 149.291,106.543C148.766,106.28 148.132,105.624 146.987,104.161C146.536,103.584 146.102,103.111 146.023,103.111C145.806,103.111 142.766,104.682 142.275,105.048C142.039,105.225 141.598,105.536 141.297,105.739C140.74,106.116 137.432,109.838 136.327,111.331C136.016,111.753 135.628,112.266 135.466,112.473C135.088,112.955 134.58,113.749 134.58,113.858C134.58,113.905 134.437,114.133 134.261,114.365C133.886,114.861 133.851,115.168 134.15,115.355C134.268,115.429 134.365,115.586 134.365,115.705C134.365,115.89 134.299,115.917 133.898,115.902C133.322,115.88 133.25,115.924 132.921,116.489C132.498,117.215 132.479,117.449 132.808,117.84C132.967,118.029 133.068,118.253 133.034,118.341C132.961,118.532 132.611,118.55 132.333,118.376C132.224,118.308 132.059,118.281 131.967,118.316C131.813,118.375 130.407,121.128 130.224,121.73C130.179,121.878 130.031,122.241 129.894,122.537C129.369,123.674 128.876,124.956 128.873,125.194C128.871,125.331 128.799,125.536 128.712,125.651C128.625,125.766 128.554,125.95 128.554,126.06C128.554,126.17 128.456,126.463 128.336,126.711C128.017,127.371 127.719,128.901 127.878,129.06C127.963,129.145 128.846,129.199 130.669,129.23C132.136,129.254 133.349,129.287 133.365,129.303C133.44,129.378 136.477,129.228 136.565,129.145ZM140.177,115.016C140.177,114.901 140.497,114.304 140.559,114.304C140.588,114.304 140.533,114.461 140.435,114.654C140.235,115.046 140.177,115.128 140.177,115.016ZM138.394,128.905C138.579,128.77 138.573,128.749 138.292,128.528C138.129,128.4 137.955,128.294 137.905,128.294C137.687,128.294 137.469,127.556 137.373,126.488C137.216,124.736 136.915,123.664 136.654,123.925C136.519,124.06 136.573,126.998 136.725,127.785C136.912,128.755 137.149,129.048 137.743,129.048C137.993,129.048 138.286,128.983 138.394,128.905ZM156.192,128.681C156.473,128.539 156.944,128.389 157.238,128.349C157.532,128.308 157.946,128.231 158.158,128.178C158.369,128.125 159.15,128.057 159.891,128.027C161.308,127.97 161.985,127.795 162.09,127.457C162.122,127.355 162.217,127.144 162.301,126.986C162.385,126.829 162.454,126.63 162.454,126.544C162.454,126.458 162.611,126.073 162.804,125.688C162.996,125.303 163.275,124.704 163.423,124.357C163.571,124.009 163.848,123.416 164.039,123.039C164.448,122.232 164.443,122.214 163.543,121.233C163.21,120.87 162.753,120.35 162.527,120.075C161.819,119.217 161.822,119.216 160.726,120.289C160.196,120.807 159.763,121.287 159.763,121.356C159.763,121.425 159.86,121.569 159.979,121.676C160.097,121.783 160.194,121.987 160.194,122.128C160.194,122.433 159.91,123.021 159.763,123.021C159.706,123.021 159.567,123.203 159.453,123.425C159.202,123.915 157.704,125.389 157.457,125.389C157.359,125.389 157.079,125.286 156.833,125.161L156.386,124.933L155.169,126.196C154.5,126.891 153.952,127.516 153.952,127.585C153.952,127.864 155.255,128.937 155.597,128.94C155.643,128.94 155.911,128.824 156.192,128.681ZM112.418,127.214C112.533,127.153 112.745,126.869 112.889,126.584C113.034,126.299 113.288,125.903 113.454,125.706C113.732,125.376 113.754,125.284 113.727,124.579C113.708,124.089 113.754,123.678 113.853,123.443C114.013,123.067 114.905,122.036 115.962,121.008C117.255,119.752 118.669,118.405 119.556,117.586C120.069,117.113 120.815,116.423 121.212,116.055C121.61,115.686 121.977,115.383 122.028,115.382C122.079,115.381 122.345,115.193 122.62,114.965C122.894,114.737 123.292,114.518 123.504,114.479C123.938,114.4 124.342,114.146 124.224,114.028C124.16,113.964 122.599,113.961 121.212,114.022C120.833,114.039 119.984,114.686 119.008,115.703C117.245,117.538 116.507,118.22 115.837,118.633C115.672,118.735 115.45,119.001 115.345,119.224C115.213,119.505 114.972,119.738 114.563,119.982C113.841,120.413 112.922,121.261 112.689,121.712C112.495,122.086 112.491,122.154 112.581,123.505C112.616,124.038 112.599,124.672 112.543,124.915C112.46,125.276 112.472,125.375 112.612,125.463C112.759,125.556 112.764,125.615 112.644,125.883C112.567,126.055 112.38,126.376 112.229,126.597C112.079,126.817 111.983,127.071 112.018,127.162C112.093,127.356 112.142,127.362 112.418,127.214ZM117.097,118.516C116.972,118.124 117.273,117.787 117.626,117.922C117.849,118.008 117.941,118.375 117.788,118.56C117.602,118.784 117.173,118.757 117.097,118.516ZM120.59,124.42C120.708,124.302 120.805,124.094 120.805,123.957C120.805,123.63 120.998,123.452 121.353,123.452C121.659,123.452 121.774,123.288 121.774,122.851C121.774,122.589 121.846,122.551 122.277,122.585C122.415,122.596 122.693,122.441 122.95,122.208C123.308,121.884 123.388,121.741 123.39,121.421C123.393,120.822 123.512,120.697 123.92,120.866C124.221,120.991 124.274,120.984 124.411,120.803C124.496,120.691 124.567,120.569 124.568,120.531C124.573,120.44 122.646,118.609 122.545,118.609C122.502,118.609 121.836,119.202 121.065,119.927C120.294,120.652 119.388,121.502 119.05,121.816C118.713,122.131 118.438,122.465 118.438,122.56C118.438,122.708 119.79,124.326 120.104,124.553C120.273,124.676 120.358,124.652 120.59,124.42ZM157.765,124.043C157.985,123.836 158.202,123.667 158.247,123.667C158.364,123.667 158.588,123.146 158.495,123.091C158.252,122.948 157.073,123.878 157.073,124.213C157.073,124.524 157.32,124.464 157.765,124.043ZM149.843,123.156C150.061,122.994 150.281,122.788 150.333,122.699C150.385,122.61 150.831,122.141 151.325,121.656C152.272,120.727 152.42,120.453 152.236,119.97C152.057,119.5 152.1,119.265 152.417,118.972C152.578,118.822 152.784,118.588 152.874,118.453C152.964,118.317 153.365,117.928 153.765,117.587L154.493,116.967L156.017,117.117L156.385,116.687C156.588,116.45 156.914,116.157 157.11,116.036C157.764,115.632 157.809,115.098 157.229,114.642C156.837,114.333 156.253,114.343 154.646,114.686C153.939,114.837 153.05,115.026 152.671,115.107C152.079,115.233 151.935,115.231 151.648,115.098C151.366,114.966 151.242,114.964 150.833,115.085C150.409,115.21 150.336,115.278 150.223,115.653C150.152,115.888 150.091,116.261 150.086,116.482C150.081,116.703 149.865,117.526 149.606,118.311C149.08,119.904 148.604,121.506 148.508,122.004C148.456,122.277 148.52,122.428 148.887,122.892C149.13,123.2 149.356,123.452 149.388,123.452C149.42,123.452 149.625,123.319 149.843,123.156ZM159.225,122.268C159.225,122.209 159.177,122.16 159.118,122.16C159.059,122.16 159.01,122.209 159.01,122.268C159.01,122.327 159.059,122.375 159.118,122.375C159.177,122.375 159.225,122.327 159.225,122.268ZM165.744,121.367C165.1,120.497 164.987,120.39 164.822,120.492C164.754,120.534 164.769,120.664 164.865,120.848C165.055,121.215 166.263,122.411 166.308,122.276C166.326,122.221 166.072,121.812 165.744,121.367ZM119.006,120.949C119.266,120.698 120.019,119.989 120.68,119.374C121.341,118.76 121.881,118.215 121.881,118.164C121.881,118.112 121.772,118.071 121.639,118.07C121.506,118.07 121.257,117.949 121.085,117.802C120.846,117.596 120.739,117.561 120.627,117.654C120.404,117.839 120.454,117.963 120.751,117.963C120.899,117.963 121.02,118.004 121.02,118.054C121.02,118.275 120.326,119.064 119.263,120.053C118.631,120.641 118.115,121.186 118.115,121.264C118.115,121.548 118.543,121.397 119.006,120.949ZM153.689,119.346C154.011,119.042 154.275,118.727 154.275,118.648C154.275,118.568 154.452,118.418 154.669,118.314C155.141,118.086 155.347,117.809 155.173,117.634C154.994,117.456 154.487,117.756 153.792,118.45C153.076,119.166 152.832,119.524 152.914,119.738C152.949,119.827 153.005,119.9 153.04,119.9C153.075,119.9 153.367,119.651 153.689,119.346ZM162.889,116.429C163.064,116.059 163.207,115.674 163.207,115.572C163.207,115.346 161.756,113.873 161.533,113.873C161.445,113.873 161.318,113.994 161.252,114.14C161.185,114.287 161.047,114.434 160.945,114.466C160.844,114.498 160.672,114.623 160.563,114.743C160.374,114.951 160.374,114.975 160.555,115.311C160.829,115.82 161.415,116.447 161.942,116.797C162.194,116.964 162.439,117.101 162.486,117.102C162.533,117.102 162.714,116.799 162.889,116.429ZM117.361,116.298C118.01,116.28 118.331,116.177 118.328,115.987C118.324,115.672 118.16,115.629 116.842,115.6C116.704,115.597 116.505,115.548 116.4,115.491C116.253,115.413 116.152,115.447 115.977,115.633C115.699,115.93 115.694,116.004 115.933,116.268C116.077,116.427 116.192,116.455 116.444,116.393C116.623,116.349 117.036,116.306 117.361,116.298ZM115.523,115.192C115.782,114.95 115.822,114.851 115.743,114.654C115.609,114.317 115.335,114.351 114.918,114.755C114.544,115.118 114.475,115.326 114.698,115.416C114.994,115.536 115.22,115.474 115.523,115.192ZM114.238,114.359C114.639,114.151 114.748,113.815 114.502,113.543C114.25,113.264 114.118,113.281 113.776,113.637C113.442,113.986 113.408,114.247 113.675,114.403C113.915,114.543 113.877,114.546 114.238,114.359ZM164.831,113.737C166.318,112.285 168.912,109.442 168.847,109.336C168.761,109.197 168.194,109.301 168.004,109.492C167.926,109.569 167.56,109.873 167.19,110.166C166.82,110.459 166.222,110.941 165.86,111.237C165.498,111.533 165.025,111.896 164.809,112.044C164.592,112.192 164.096,112.579 163.706,112.905C162.865,113.607 162.781,113.95 163.369,114.283C163.827,114.543 164.116,114.435 164.831,113.737ZM125.406,113.899C125.546,113.808 125.648,113.632 125.648,113.482C125.648,113.228 125.639,113.23 125.115,113.621C124.583,114.019 124.492,114.27 124.931,114.131C125.059,114.091 125.273,113.986 125.406,113.899ZM113.316,113.112C113.537,112.849 113.571,112.74 113.483,112.574C113.342,112.31 113.219,112.313 112.831,112.589C112.537,112.798 112.415,113.196 112.59,113.371C112.751,113.532 113.053,113.424 113.316,113.112ZM156.858,112.43C156.858,112.252 155.468,110.973 155.27,110.97C155.027,110.966 155.127,111.126 155.824,111.859C156.483,112.55 156.858,112.757 156.858,112.43ZM112.389,112.022C112.582,111.829 112.545,111.456 112.312,111.245C112.015,110.976 111.63,111.066 111.501,111.434C111.409,111.698 111.43,111.765 111.661,111.942C111.969,112.179 112.207,112.205 112.389,112.022ZM111.119,110.327C111.119,109.691 110.247,109.33 109.986,109.858C109.831,110.168 109.954,111.275 110.157,111.408C110.378,111.552 111.119,110.719 111.119,110.327ZM107.627,108.896C108.174,108.348 108.911,107.649 109.265,107.341C109.668,106.991 109.933,106.668 109.972,106.48C110.188,105.447 110.201,105.524 109.705,104.931C109.002,104.092 108.762,103.973 108.106,104.143C107.574,104.282 106.78,104.755 106.486,105.11C106.4,105.213 106.088,105.477 105.792,105.697C105.496,105.917 105.07,106.271 104.846,106.485C104.621,106.698 104.362,106.915 104.27,106.967C103.974,107.132 104.057,107.82 104.42,108.207C104.594,108.394 104.805,108.648 104.888,108.772C105.184,109.215 106.07,109.891 106.353,109.891C106.562,109.891 106.884,109.64 107.627,108.896ZM106.63,107.868C106.397,107.72 106.148,106.969 106.215,106.614C106.298,106.17 107.04,105.587 107.522,105.587C108.082,105.587 108.346,105.885 108.404,106.585C108.453,107.173 108.444,107.198 108.038,107.571C107.705,107.877 107.535,107.953 107.191,107.952C106.954,107.952 106.702,107.914 106.63,107.868ZM107.518,107.158C107.688,107.033 107.706,106.954 107.619,106.709C107.484,106.326 107.338,106.284 107.023,106.539C106.798,106.721 106.783,106.778 106.897,107.027C107.041,107.343 107.214,107.38 107.518,107.158ZM105.776,104.806C106.453,104.179 106.532,103.97 106.088,103.977C105.716,103.982 104.77,104.822 104.77,105.147C104.77,105.528 105.127,105.407 105.776,104.806Z" style="fill-rule:nonzero;"/>
    </g>
</svg>
